<svg width="18" height="20" viewBox="0 0 18 20" fill="none" xmlns="http://www.w3.org/2000/svg">
<path d="M0.210648 18.3861C-0.128422 18.822 -0.0498879 19.4503 0.386059 19.7894C0.822007 20.1284 1.45028 20.0499 1.78935 19.6139L0.210648 18.3861ZM15.9923 0.875966C15.9238 0.327946 15.424 -0.0607799 14.876 0.00772231L5.94546 1.12404C5.39744 1.19254 5.00872 1.69233 5.07722 2.24035C5.14572 2.78837 5.64551 3.17709 6.19353 3.10859L14.1318 2.11631L15.124 10.0545C15.1925 10.6026 15.6923 10.9913 16.2403 10.9228C16.7884 10.8543 17.1771 10.3545 17.1086 9.80647L15.9923 0.875966ZM1.78935 19.6139L15.7894 1.61394L14.2106 0.38606L0.210648 18.3861L1.78935 19.6139Z" fill="#222222"/>
</svg>
