<svg width="204" height="132" viewBox="0 0 204 132" fill="none" xmlns="http://www.w3.org/2000/svg">
<path fill-rule="evenodd" clip-rule="evenodd" d="M156.003 132.004C149.375 132.004 144.003 126.631 144.003 120.004C144.003 113.377 149.375 108.004 156.003 108.004H163.304C157.397 102.623 149.426 95.9245 139.179 88.4474C112.394 68.9012 69.9947 43.9834 8.20847 23.3883C1.92119 21.2919 -1.47673 14.4963 0.61907 8.2095C2.71475 1.92149 9.51059 -1.47569 15.798 0.619507C80.0118 22.0239 124.612 48.1066 153.327 69.0604C164.603 77.2893 173.42 84.7195 180.003 90.7531V84.0039C180.003 77.3765 185.375 72.0039 192.003 72.0039C198.631 72.0039 204.003 77.3765 204.003 84.0039V120.004C204.003 126.631 198.631 132.004 192.003 132.004H156.003Z" fill="#23BB4E"/>
</svg>
