<svg width="40" height="40" viewBox="0 0 40 40" fill="none" xmlns="http://www.w3.org/2000/svg">
<path d="M23.4151 9.23376C23.7524 9.15622 24.1056 9.18565 24.4254 9.31796C24.7453 9.45027 25.016 9.67889 25.2001 9.97209L26.8567 12.6171C26.9903 12.8301 27.1704 13.0102 27.3834 13.1438L30.0284 14.8004C30.3222 14.9843 30.5514 15.2552 30.684 15.5755C30.8166 15.8957 30.8461 16.2493 30.7684 16.5871L30.0684 19.6271C30.0119 19.8728 30.0119 20.1281 30.0684 20.3738L30.7684 23.4154C30.8454 23.7527 30.8155 24.1056 30.6829 24.4252C30.5503 24.7447 30.3216 25.0151 30.0284 25.1988L27.3834 26.8571C27.1704 26.9907 26.9903 27.1707 26.8567 27.3838L25.2001 30.0288C25.0163 30.3223 24.7456 30.5512 24.4257 30.6838C24.1058 30.8165 23.7526 30.8461 23.4151 30.7688L20.3734 30.0688C20.1282 30.0125 19.8735 30.0125 19.6284 30.0688L16.5867 30.7688C16.2492 30.8461 15.8959 30.8165 15.576 30.6838C15.2561 30.5512 14.9855 30.3223 14.8017 30.0288L13.1451 27.3838C13.011 27.1705 12.8304 26.9905 12.6167 26.8571L9.97339 25.2004C9.67989 25.0166 9.45092 24.746 9.3183 24.4261C9.18569 24.1062 9.15601 23.753 9.23339 23.4154L9.93172 20.3738C9.98819 20.1281 9.98819 19.8728 9.93172 19.6271L9.23172 16.5871C9.15413 16.2491 9.18387 15.8954 9.31681 15.5751C9.44975 15.2549 9.67927 14.9841 9.97339 14.8004L12.6167 13.1438C12.8304 13.0104 13.011 12.8303 13.1451 12.6171L14.8017 9.97209C14.9856 9.67921 15.2561 9.4508 15.5756 9.3185C15.8952 9.18621 16.2479 9.15659 16.5851 9.23376L19.6284 9.93209C19.8735 9.9883 20.1282 9.9883 20.3734 9.93209L23.4151 9.23376Z" stroke="#23BB4E"/>
<path d="M15.8594 20.8944L19.251 24.1427L24.1427 15.8594" stroke="#23BB4E" stroke-linecap="round" stroke-linejoin="round"/>
</svg>
