<svg width="794" height="535" viewBox="0 0 794 535" fill="none" xmlns="http://www.w3.org/2000/svg">
<g opacity="0.71" filter="url(#filter0_dd_4800_24494)">
<rect x="104.725" y="61" width="584" height="356" rx="12" fill="white" fill-opacity="0.01" shape-rendering="crispEdges"/>
<g clip-path="url(#clip0_4800_24494)">
<mask id="mask0_4800_24494" style="mask-type:luminance" maskUnits="userSpaceOnUse" x="104" y="61" width="585" height="356">
<path d="M104.725 61H688.725V417H104.725V61Z" fill="white"/>
</mask>
<g mask="url(#mask0_4800_24494)">
<path d="M104.725 61H688.725V417H104.725V61Z" fill="white"/>
<mask id="mask1_4800_24494" style="mask-type:luminance" maskUnits="userSpaceOnUse" x="104" y="61" width="585" height="356">
<path d="M104.725 61H688.725V417H104.725V61Z" fill="white"/>
</mask>
<g mask="url(#mask1_4800_24494)">
<g opacity="0.48">
<path d="M113.111 80.1094V66.6994H118.763C119.603 66.6994 120.329 66.8494 120.941 67.1494C121.553 67.4374 122.021 67.8574 122.345 68.4094C122.669 68.9494 122.831 69.5914 122.831 70.3354C122.831 70.9834 122.663 71.5774 122.327 72.1174C122.003 72.6454 121.493 73.0654 120.797 73.3774V72.4774C121.409 72.7174 121.907 73.0234 122.291 73.3954C122.675 73.7554 122.951 74.1634 123.119 74.6194C123.299 75.0754 123.389 75.5554 123.389 76.0594C123.389 77.3194 122.975 78.3094 122.147 79.0294C121.331 79.7494 120.209 80.1094 118.781 80.1094H113.111ZM115.235 78.2194H118.943C119.651 78.2194 120.215 78.0274 120.635 77.6434C121.055 77.2474 121.265 76.7254 121.265 76.0774C121.265 75.4174 121.055 74.8954 120.635 74.5114C120.215 74.1154 119.651 73.9174 118.943 73.9174H115.235V78.2194ZM115.235 72.0454H118.817C119.393 72.0454 119.855 71.8834 120.203 71.5594C120.551 71.2234 120.725 70.7854 120.725 70.2454C120.725 69.7054 120.551 69.2854 120.203 68.9854C119.855 68.6854 119.393 68.5354 118.817 68.5354H115.235V72.0454ZM128.994 80.3254C128.058 80.3254 127.2 80.1034 126.42 79.6594C125.652 79.2154 125.04 78.6094 124.584 77.8414C124.128 77.0734 123.9 76.2034 123.9 75.2314C123.9 74.2474 124.128 73.3774 124.584 72.6214C125.04 71.8534 125.652 71.2534 126.42 70.8214C127.188 70.3774 128.046 70.1554 128.994 70.1554C129.954 70.1554 130.812 70.3774 131.568 70.8214C132.336 71.2534 132.942 71.8534 133.386 72.6214C133.842 73.3774 134.07 74.2474 134.07 75.2314C134.07 76.2154 133.842 77.0914 133.386 77.8594C132.93 78.6274 132.318 79.2334 131.55 79.6774C130.782 80.1094 129.93 80.3254 128.994 80.3254ZM128.994 78.4354C129.57 78.4354 130.08 78.2974 130.524 78.0214C130.968 77.7454 131.316 77.3674 131.568 76.8874C131.832 76.3954 131.964 75.8434 131.964 75.2314C131.964 74.6194 131.832 74.0734 131.568 73.5934C131.316 73.1134 130.968 72.7354 130.524 72.4594C130.08 72.1834 129.57 72.0454 128.994 72.0454C128.43 72.0454 127.92 72.1834 127.464 72.4594C127.02 72.7354 126.666 73.1134 126.402 73.5934C126.15 74.0734 126.024 74.6194 126.024 75.2314C126.024 75.8434 126.15 76.3954 126.402 76.8874C126.666 77.3674 127.02 77.7454 127.464 78.0214C127.92 78.2974 128.43 78.4354 128.994 78.4354ZM139.673 80.3254C138.737 80.3254 137.879 80.1034 137.099 79.6594C136.331 79.2154 135.719 78.6094 135.263 77.8414C134.807 77.0734 134.579 76.2034 134.579 75.2314C134.579 74.2474 134.807 73.3774 135.263 72.6214C135.719 71.8534 136.331 71.2534 137.099 70.8214C137.867 70.3774 138.725 70.1554 139.673 70.1554C140.633 70.1554 141.491 70.3774 142.247 70.8214C143.015 71.2534 143.621 71.8534 144.065 72.6214C144.521 73.3774 144.749 74.2474 144.749 75.2314C144.749 76.2154 144.521 77.0914 144.065 77.8594C143.609 78.6274 142.997 79.2334 142.229 79.6774C141.461 80.1094 140.609 80.3254 139.673 80.3254ZM139.673 78.4354C140.249 78.4354 140.759 78.2974 141.203 78.0214C141.647 77.7454 141.995 77.3674 142.247 76.8874C142.511 76.3954 142.643 75.8434 142.643 75.2314C142.643 74.6194 142.511 74.0734 142.247 73.5934C141.995 73.1134 141.647 72.7354 141.203 72.4594C140.759 72.1834 140.249 72.0454 139.673 72.0454C139.109 72.0454 138.599 72.1834 138.143 72.4594C137.699 72.7354 137.345 73.1134 137.081 73.5934C136.829 74.0734 136.703 74.6194 136.703 75.2314C136.703 75.8434 136.829 76.3954 137.081 76.8874C137.345 77.3674 137.699 77.7454 138.143 78.0214C138.599 78.2974 139.109 78.4354 139.673 78.4354ZM145.655 80.1094V66.4834H147.689V75.6094L146.897 75.4114L151.775 70.3714H154.313L150.641 74.2774L154.475 80.1094H152.135L148.715 74.9434L149.921 74.7814L147.041 77.8414L147.689 76.4914V80.1094H145.655ZM154.788 80.1094V70.3714H156.822V80.1094H154.788ZM154.788 69.0394V66.6994H156.822V69.0394H154.788ZM158.12 80.1094V70.3714H160.064V72.2794L159.83 72.0274C160.07 71.4154 160.454 70.9534 160.982 70.6414C161.51 70.3174 162.122 70.1554 162.818 70.1554C163.538 70.1554 164.174 70.3114 164.726 70.6234C165.278 70.9354 165.71 71.3674 166.022 71.9194C166.334 72.4714 166.49 73.1074 166.49 73.8274V80.1094H164.474V74.3674C164.474 73.8754 164.384 73.4614 164.204 73.1254C164.024 72.7774 163.766 72.5134 163.43 72.3334C163.106 72.1414 162.734 72.0454 162.314 72.0454C161.894 72.0454 161.516 72.1414 161.18 72.3334C160.856 72.5134 160.604 72.7774 160.424 73.1254C160.244 73.4734 160.154 73.8874 160.154 74.3674V80.1094H158.12ZM172.285 84.0694C171.577 84.0694 170.923 83.9554 170.323 83.7274C169.723 83.4994 169.207 83.1814 168.775 82.7734C168.343 82.3774 168.019 81.9094 167.803 81.3694L169.675 80.5954C169.843 81.0514 170.149 81.4294 170.593 81.7294C171.049 82.0294 171.607 82.1794 172.267 82.1794C172.783 82.1794 173.245 82.0774 173.653 81.8734C174.061 81.6814 174.385 81.3934 174.625 81.0094C174.865 80.6374 174.985 80.1874 174.985 79.6594V77.4634L175.345 77.8774C175.009 78.5014 174.541 78.9754 173.941 79.2994C173.353 79.6234 172.687 79.7854 171.943 79.7854C171.043 79.7854 170.233 79.5754 169.513 79.1554C168.793 78.7354 168.223 78.1594 167.803 77.4274C167.395 76.6954 167.191 75.8734 167.191 74.9614C167.191 74.0374 167.395 73.2154 167.803 72.4954C168.223 71.7754 168.787 71.2054 169.495 70.7854C170.203 70.3654 171.013 70.1554 171.925 70.1554C172.669 70.1554 173.329 70.3174 173.905 70.6414C174.493 70.9534 174.973 71.4094 175.345 72.0094L175.075 72.5134V70.3714H177.001V79.6594C177.001 80.4994 176.797 81.2494 176.389 81.9094C175.993 82.5814 175.441 83.1094 174.733 83.4934C174.025 83.8774 173.209 84.0694 172.285 84.0694ZM172.177 77.8954C172.717 77.8954 173.197 77.7694 173.617 77.5174C174.037 77.2534 174.367 76.9054 174.607 76.4734C174.859 76.0294 174.985 75.5314 174.985 74.9794C174.985 74.4274 174.859 73.9294 174.607 73.4854C174.355 73.0414 174.019 72.6934 173.599 72.4414C173.179 72.1774 172.705 72.0454 172.177 72.0454C171.625 72.0454 171.133 72.1774 170.701 72.4414C170.269 72.6934 169.927 73.0414 169.675 73.4854C169.435 73.9174 169.315 74.4154 169.315 74.9794C169.315 75.5194 169.435 76.0114 169.675 76.4554C169.927 76.8994 170.269 77.2534 170.701 77.5174C171.133 77.7694 171.625 77.8954 172.177 77.8954ZM180.566 80.1094V66.6994H185.444C186.344 66.6994 187.136 66.8674 187.82 67.2034C188.516 67.5274 189.056 68.0074 189.44 68.6434C189.824 69.2674 190.016 70.0174 190.016 70.8934C190.016 71.7574 189.818 72.5014 189.422 73.1254C189.038 73.7494 188.504 74.2294 187.82 74.5654C187.136 74.9014 186.344 75.0694 185.444 75.0694H182.69V80.1094H180.566ZM182.69 73.1794H185.498C185.978 73.1794 186.398 73.0834 186.758 72.8914C187.118 72.6994 187.4 72.4354 187.604 72.0994C187.808 71.7514 187.91 71.3434 187.91 70.8754C187.91 70.4074 187.808 70.0054 187.604 69.6694C187.4 69.3214 187.118 69.0574 186.758 68.8774C186.398 68.6854 185.978 68.5894 185.498 68.5894H182.69V73.1794ZM195.145 80.3254C194.173 80.3254 193.309 80.1034 192.553 79.6594C191.809 79.2034 191.227 78.5914 190.807 77.8234C190.387 77.0434 190.177 76.1734 190.177 75.2134C190.177 74.2294 190.387 73.3594 190.807 72.6034C191.239 71.8474 191.815 71.2534 192.535 70.8214C193.255 70.3774 194.071 70.1554 194.983 70.1554C195.715 70.1554 196.369 70.2814 196.945 70.5334C197.521 70.7854 198.007 71.1334 198.403 71.5774C198.799 72.0094 199.099 72.5074 199.303 73.0714C199.519 73.6354 199.627 74.2354 199.627 74.8714C199.627 75.0274 199.621 75.1894 199.609 75.3574C199.597 75.5254 199.573 75.6814 199.537 75.8254H191.779V74.2054H198.385L197.413 74.9434C197.533 74.3554 197.491 73.8334 197.287 73.3774C197.095 72.9094 196.795 72.5434 196.387 72.2794C195.991 72.0034 195.523 71.8654 194.983 71.8654C194.443 71.8654 193.963 72.0034 193.543 72.2794C193.123 72.5434 192.799 72.9274 192.571 73.4314C192.343 73.9234 192.253 74.5234 192.301 75.2314C192.241 75.8914 192.331 76.4674 192.571 76.9594C192.823 77.4514 193.171 77.8354 193.615 78.1114C194.071 78.3874 194.587 78.5254 195.163 78.5254C195.751 78.5254 196.249 78.3934 196.657 78.1294C197.077 77.8654 197.407 77.5234 197.647 77.1034L199.303 77.9134C199.111 78.3694 198.811 78.7834 198.403 79.1554C198.007 79.5154 197.527 79.8034 196.963 80.0194C196.411 80.2234 195.805 80.3254 195.145 80.3254ZM200.533 80.1094V70.3714H202.477V72.3334L202.297 72.0454C202.513 71.4094 202.861 70.9534 203.341 70.6774C203.821 70.3894 204.397 70.2454 205.069 70.2454H205.663V72.0994H204.817C204.145 72.0994 203.599 72.3094 203.179 72.7294C202.771 73.1374 202.567 73.7254 202.567 74.4934V80.1094H200.533ZM205.974 80.1094V70.3714H208.008V80.1094H205.974ZM205.974 69.0394V66.6994H208.008V69.0394H205.974ZM214.004 80.3254C213.068 80.3254 212.21 80.1034 211.43 79.6594C210.662 79.2154 210.05 78.6094 209.594 77.8414C209.138 77.0734 208.91 76.2034 208.91 75.2314C208.91 74.2474 209.138 73.3774 209.594 72.6214C210.05 71.8534 210.662 71.2534 211.43 70.8214C212.198 70.3774 213.056 70.1554 214.004 70.1554C214.964 70.1554 215.822 70.3774 216.578 70.8214C217.346 71.2534 217.952 71.8534 218.396 72.6214C218.852 73.3774 219.08 74.2474 219.08 75.2314C219.08 76.2154 218.852 77.0914 218.396 77.8594C217.94 78.6274 217.328 79.2334 216.56 79.6774C215.792 80.1094 214.94 80.3254 214.004 80.3254ZM214.004 78.4354C214.58 78.4354 215.09 78.2974 215.534 78.0214C215.978 77.7454 216.326 77.3674 216.578 76.8874C216.842 76.3954 216.974 75.8434 216.974 75.2314C216.974 74.6194 216.842 74.0734 216.578 73.5934C216.326 73.1134 215.978 72.7354 215.534 72.4594C215.09 72.1834 214.58 72.0454 214.004 72.0454C213.44 72.0454 212.93 72.1834 212.474 72.4594C212.03 72.7354 211.676 73.1134 211.412 73.5934C211.16 74.0734 211.034 74.6194 211.034 75.2314C211.034 75.8434 211.16 76.3954 211.412 76.8874C211.676 77.3674 212.03 77.7454 212.474 78.0214C212.93 78.2974 213.44 78.4354 214.004 78.4354ZM224.486 80.3254C223.55 80.3254 222.71 80.1034 221.966 79.6594C221.234 79.2034 220.652 78.5914 220.22 77.8234C219.8 77.0554 219.59 76.1914 219.59 75.2314C219.59 74.2714 219.806 73.4074 220.238 72.6394C220.67 71.8714 221.252 71.2654 221.984 70.8214C222.716 70.3774 223.544 70.1554 224.468 70.1554C225.248 70.1554 225.938 70.3114 226.538 70.6234C227.138 70.9354 227.612 71.3674 227.96 71.9194L227.654 72.3874V66.4834H229.67V80.1094H227.744V78.1294L227.978 78.5074C227.642 79.0954 227.162 79.5454 226.538 79.8574C225.914 80.1694 225.23 80.3254 224.486 80.3254ZM224.684 78.4354C225.248 78.4354 225.752 78.2974 226.196 78.0214C226.652 77.7454 227.006 77.3674 227.258 76.8874C227.522 76.3954 227.654 75.8434 227.654 75.2314C227.654 74.6194 227.522 74.0734 227.258 73.5934C227.006 73.1134 226.652 72.7354 226.196 72.4594C225.752 72.1834 225.248 72.0454 224.684 72.0454C224.12 72.0454 223.61 72.1834 223.154 72.4594C222.698 72.7354 222.344 73.1134 222.092 73.5934C221.84 74.0734 221.714 74.6194 221.714 75.2314C221.714 75.8434 221.84 76.3954 222.092 76.8874C222.344 77.3674 222.692 77.7454 223.136 78.0214C223.592 78.2974 224.108 78.4354 224.684 78.4354Z" fill="#222222" fill-opacity="0.6"/>
<rect x="111.725" y="131.109" width="24" height="24" rx="5" fill="#23BB4E"/>
<path d="M118.293 143.881L121.396 146.985L129.154 139.227" stroke="white" stroke-width="1.6" stroke-linecap="round" stroke-linejoin="round"/>
<path d="M153.188 151.109V136.954H155.43V143.186H161.985V136.954H164.208V151.109H161.985V145.181H155.43V151.109H153.188ZM171.321 151.337C170.333 151.337 169.427 151.103 168.604 150.634C167.793 150.166 167.147 149.526 166.666 148.715C166.184 147.905 165.944 146.986 165.944 145.96C165.944 144.922 166.184 144.003 166.666 143.205C167.147 142.395 167.793 141.761 168.604 141.305C169.414 140.837 170.32 140.602 171.321 140.602C172.334 140.602 173.24 140.837 174.038 141.305C174.848 141.761 175.488 142.395 175.957 143.205C176.438 144.003 176.679 144.922 176.679 145.96C176.679 146.999 176.438 147.924 175.957 148.734C175.475 149.545 174.829 150.185 174.019 150.653C173.208 151.109 172.309 151.337 171.321 151.337ZM171.321 149.342C171.929 149.342 172.467 149.197 172.936 148.905C173.404 148.614 173.772 148.215 174.038 147.708C174.316 147.189 174.456 146.606 174.456 145.96C174.456 145.314 174.316 144.738 174.038 144.231C173.772 143.725 173.404 143.326 172.936 143.034C172.467 142.743 171.929 142.597 171.321 142.597C170.725 142.597 170.187 142.743 169.706 143.034C169.237 143.326 168.863 143.725 168.585 144.231C168.319 144.738 168.186 145.314 168.186 145.96C168.186 146.606 168.319 147.189 168.585 147.708C168.863 148.215 169.237 148.614 169.706 148.905C170.187 149.197 170.725 149.342 171.321 149.342ZM181.872 151.337C181.099 151.337 180.421 151.166 179.839 150.824C179.256 150.47 178.8 149.982 178.471 149.361C178.154 148.728 177.996 148 177.996 147.176V140.83H180.143V146.986C180.143 147.455 180.238 147.867 180.428 148.221C180.618 148.576 180.884 148.855 181.226 149.057C181.568 149.247 181.96 149.342 182.404 149.342C182.86 149.342 183.259 149.241 183.601 149.038C183.943 148.836 184.209 148.551 184.399 148.183C184.601 147.816 184.703 147.385 184.703 146.891V140.83H186.831V151.109H184.798V149.095L185.026 149.361C184.785 149.995 184.386 150.482 183.829 150.824C183.271 151.166 182.619 151.337 181.872 151.337ZM188.768 151.109V140.83H190.82V142.901L190.63 142.597C190.858 141.926 191.225 141.445 191.732 141.153C192.238 140.849 192.846 140.697 193.556 140.697H194.183V142.654H193.29C192.58 142.654 192.004 142.876 191.561 143.319C191.13 143.75 190.915 144.371 190.915 145.181V151.109H188.768ZM195.081 151.109V136.726H197.228V151.109H195.081ZM200.081 155.289C199.827 155.289 199.574 155.264 199.321 155.213C199.08 155.175 198.858 155.112 198.656 155.023V153.18C198.808 153.218 198.991 153.25 199.207 153.275C199.422 153.313 199.631 153.332 199.834 153.332C200.429 153.332 200.866 153.199 201.145 152.933C201.436 152.68 201.696 152.287 201.924 151.755L202.608 150.197L202.57 152.002L198.124 140.83H200.423L203.71 149.399H202.931L206.199 140.83H208.517L203.976 152.23C203.735 152.838 203.431 153.37 203.064 153.826C202.709 154.295 202.285 154.656 201.791 154.909C201.309 155.163 200.739 155.289 200.081 155.289ZM212.376 151.109V136.954H218.342C219.229 136.954 219.995 137.113 220.641 137.429C221.287 137.733 221.781 138.177 222.123 138.759C222.465 139.329 222.636 140.007 222.636 140.792C222.636 141.476 222.459 142.103 222.104 142.673C221.762 143.231 221.224 143.674 220.489 144.003V143.053C221.135 143.307 221.661 143.63 222.066 144.022C222.472 144.402 222.763 144.833 222.94 145.314C223.13 145.796 223.225 146.302 223.225 146.834C223.225 148.164 222.788 149.209 221.914 149.969C221.053 150.729 219.869 151.109 218.361 151.109H212.376ZM214.618 149.114H218.532C219.28 149.114 219.875 148.912 220.318 148.506C220.762 148.088 220.983 147.537 220.983 146.853C220.983 146.157 220.762 145.606 220.318 145.2C219.875 144.782 219.28 144.573 218.532 144.573H214.618V149.114ZM214.618 142.597H218.399C219.007 142.597 219.495 142.426 219.862 142.084C220.23 141.73 220.413 141.267 220.413 140.697C220.413 140.127 220.23 139.684 219.862 139.367C219.495 139.051 219.007 138.892 218.399 138.892H214.618V142.597ZM227.831 151.337C227.134 151.337 226.52 151.217 225.988 150.976C225.468 150.723 225.063 150.381 224.772 149.95C224.48 149.507 224.335 148.988 224.335 148.392C224.335 147.835 224.455 147.335 224.696 146.891C224.949 146.448 225.335 146.074 225.855 145.77C226.374 145.466 227.026 145.251 227.812 145.124L231.384 144.535V146.226L228.23 146.777C227.66 146.879 227.242 147.062 226.976 147.328C226.71 147.582 226.577 147.911 226.577 148.316C226.577 148.709 226.722 149.032 227.014 149.285C227.318 149.526 227.704 149.646 228.173 149.646C228.755 149.646 229.262 149.52 229.693 149.266C230.136 149.013 230.478 148.677 230.719 148.259C230.959 147.829 231.08 147.354 231.08 146.834V144.193C231.08 143.687 230.89 143.275 230.51 142.958C230.142 142.629 229.648 142.464 229.028 142.464C228.458 142.464 227.957 142.616 227.527 142.92C227.109 143.212 226.798 143.592 226.596 144.06L224.81 143.167C225 142.661 225.31 142.217 225.741 141.837C226.171 141.445 226.672 141.141 227.242 140.925C227.824 140.71 228.439 140.602 229.085 140.602C229.895 140.602 230.611 140.754 231.232 141.058C231.865 141.362 232.353 141.787 232.695 142.331C233.049 142.863 233.227 143.484 233.227 144.193V151.109H231.175V149.247L231.612 149.304C231.371 149.722 231.061 150.083 230.681 150.387C230.313 150.691 229.889 150.926 229.408 151.09C228.939 151.255 228.413 151.337 227.831 151.337ZM238.967 151.337C237.916 151.337 236.991 151.078 236.193 150.558C235.408 150.039 234.857 149.342 234.54 148.468L236.193 147.689C236.472 148.272 236.852 148.734 237.333 149.076C237.827 149.418 238.372 149.589 238.967 149.589C239.474 149.589 239.885 149.475 240.202 149.247C240.519 149.019 240.677 148.709 240.677 148.316C240.677 148.063 240.607 147.86 240.468 147.708C240.329 147.544 240.151 147.411 239.936 147.309C239.733 147.208 239.524 147.132 239.309 147.081L237.694 146.625C236.807 146.372 236.142 145.992 235.699 145.485C235.268 144.966 235.053 144.364 235.053 143.68C235.053 143.06 235.211 142.521 235.528 142.065C235.845 141.597 236.282 141.236 236.839 140.982C237.396 140.729 238.023 140.602 238.72 140.602C239.657 140.602 240.493 140.837 241.228 141.305C241.963 141.761 242.482 142.401 242.786 143.224L241.133 144.003C240.93 143.509 240.607 143.117 240.164 142.825C239.733 142.534 239.246 142.388 238.701 142.388C238.232 142.388 237.859 142.502 237.58 142.73C237.301 142.946 237.162 143.231 237.162 143.585C237.162 143.826 237.225 144.029 237.352 144.193C237.479 144.345 237.643 144.472 237.846 144.573C238.049 144.662 238.258 144.738 238.473 144.801L240.145 145.295C240.994 145.536 241.646 145.916 242.102 146.435C242.558 146.942 242.786 147.55 242.786 148.259C242.786 148.867 242.621 149.406 242.292 149.874C241.975 150.33 241.532 150.691 240.962 150.957C240.392 151.211 239.727 151.337 238.967 151.337ZM244.32 151.109V140.83H246.467V151.109H244.32ZM244.32 139.424V136.954H246.467V139.424H244.32ZM252.207 151.337C251.156 151.337 250.231 151.078 249.433 150.558C248.648 150.039 248.097 149.342 247.78 148.468L249.433 147.689C249.712 148.272 250.092 148.734 250.573 149.076C251.067 149.418 251.612 149.589 252.207 149.589C252.714 149.589 253.125 149.475 253.442 149.247C253.759 149.019 253.917 148.709 253.917 148.316C253.917 148.063 253.847 147.86 253.708 147.708C253.569 147.544 253.391 147.411 253.176 147.309C252.973 147.208 252.764 147.132 252.549 147.081L250.934 146.625C250.047 146.372 249.382 145.992 248.939 145.485C248.508 144.966 248.293 144.364 248.293 143.68C248.293 143.06 248.451 142.521 248.768 142.065C249.085 141.597 249.522 141.236 250.079 140.982C250.636 140.729 251.263 140.602 251.96 140.602C252.897 140.602 253.733 140.837 254.468 141.305C255.203 141.761 255.722 142.401 256.026 143.224L254.373 144.003C254.17 143.509 253.847 143.117 253.404 142.825C252.973 142.534 252.486 142.388 251.941 142.388C251.472 142.388 251.099 142.502 250.82 142.73C250.541 142.946 250.402 143.231 250.402 143.585C250.402 143.826 250.465 144.029 250.592 144.193C250.719 144.345 250.883 144.472 251.086 144.573C251.289 144.662 251.498 144.738 251.713 144.801L253.385 145.295C254.234 145.536 254.886 145.916 255.342 146.435C255.798 146.942 256.026 147.55 256.026 148.259C256.026 148.867 255.861 149.406 255.532 149.874C255.215 150.33 254.772 150.691 254.202 150.957C253.632 151.211 252.967 151.337 252.207 151.337Z" fill="#222222"/>
<rect x="111.725" y="179.109" width="24" height="24" rx="5" fill="#23BB4E"/>
<path d="M118.293 191.881L121.396 194.985L129.154 187.227" stroke="white" stroke-width="1.6" stroke-linecap="round" stroke-linejoin="round"/>
<path d="M153.188 199.109V184.954H157.824C159.293 184.954 160.566 185.252 161.643 185.847C162.732 186.43 163.574 187.253 164.17 188.317C164.765 189.381 165.063 190.616 165.063 192.022C165.063 193.416 164.765 194.651 164.17 195.727C163.574 196.791 162.732 197.621 161.643 198.216C160.566 198.812 159.293 199.109 157.824 199.109H153.188ZM155.43 197.114H157.862C158.862 197.114 159.73 196.905 160.465 196.487C161.212 196.069 161.788 195.48 162.194 194.72C162.599 193.96 162.802 193.061 162.802 192.022C162.802 190.984 162.593 190.091 162.175 189.343C161.769 188.583 161.199 187.994 160.465 187.576C159.73 187.158 158.862 186.949 157.862 186.949H155.43V197.114ZM169.477 199.337C168.78 199.337 168.166 199.217 167.634 198.976C167.115 198.723 166.709 198.381 166.418 197.95C166.127 197.507 165.981 196.988 165.981 196.392C165.981 195.835 166.101 195.335 166.342 194.891C166.595 194.448 166.982 194.074 167.501 193.77C168.02 193.466 168.673 193.251 169.458 193.124L173.03 192.535V194.226L169.876 194.777C169.306 194.879 168.888 195.062 168.622 195.328C168.356 195.582 168.223 195.911 168.223 196.316C168.223 196.709 168.369 197.032 168.66 197.285C168.964 197.526 169.35 197.646 169.819 197.646C170.402 197.646 170.908 197.52 171.339 197.266C171.782 197.013 172.124 196.677 172.365 196.259C172.606 195.829 172.726 195.354 172.726 194.834V192.193C172.726 191.687 172.536 191.275 172.156 190.958C171.789 190.629 171.295 190.464 170.674 190.464C170.104 190.464 169.604 190.616 169.173 190.92C168.755 191.212 168.445 191.592 168.242 192.06L166.456 191.167C166.646 190.661 166.956 190.217 167.387 189.837C167.818 189.445 168.318 189.141 168.888 188.925C169.471 188.71 170.085 188.602 170.731 188.602C171.542 188.602 172.257 188.754 172.878 189.058C173.511 189.362 173.999 189.787 174.341 190.331C174.696 190.863 174.873 191.484 174.873 192.193V199.109H172.821V197.247L173.258 197.304C173.017 197.722 172.707 198.083 172.327 198.387C171.96 198.691 171.535 198.926 171.054 199.09C170.585 199.255 170.06 199.337 169.477 199.337ZM176.813 199.109V188.83H178.96V199.109H176.813ZM176.813 187.424V184.954H178.96V187.424H176.813ZM180.9 199.109V184.726H183.047V199.109H180.9ZM185.9 203.289C185.646 203.289 185.393 203.264 185.14 203.213C184.899 203.175 184.677 203.112 184.475 203.023V201.18C184.627 201.218 184.81 201.25 185.026 201.275C185.241 201.313 185.45 201.332 185.653 201.332C186.248 201.332 186.685 201.199 186.964 200.933C187.255 200.68 187.515 200.287 187.743 199.755L188.427 198.197L188.389 200.002L183.943 188.83H186.242L189.529 197.399H188.75L192.018 188.83H194.336L189.795 200.23C189.554 200.838 189.25 201.37 188.883 201.826C188.528 202.295 188.104 202.656 187.61 202.909C187.128 203.163 186.558 203.289 185.9 203.289ZM198.195 199.109V184.954H204.161C205.048 184.954 205.814 185.113 206.46 185.429C207.106 185.733 207.6 186.177 207.942 186.759C208.284 187.329 208.455 188.007 208.455 188.792C208.455 189.476 208.278 190.103 207.923 190.673C207.581 191.231 207.043 191.674 206.308 192.003V191.053C206.954 191.307 207.48 191.63 207.885 192.022C208.291 192.402 208.582 192.833 208.759 193.314C208.949 193.796 209.044 194.302 209.044 194.834C209.044 196.164 208.607 197.209 207.733 197.969C206.872 198.729 205.688 199.109 204.18 199.109H198.195ZM200.437 197.114H204.351C205.099 197.114 205.694 196.912 206.137 196.506C206.581 196.088 206.802 195.537 206.802 194.853C206.802 194.157 206.581 193.606 206.137 193.2C205.694 192.782 205.099 192.573 204.351 192.573H200.437V197.114ZM200.437 190.597H204.218C204.826 190.597 205.314 190.426 205.681 190.084C206.049 189.73 206.232 189.267 206.232 188.697C206.232 188.127 206.049 187.684 205.681 187.367C205.314 187.051 204.826 186.892 204.218 186.892H200.437V190.597ZM213.65 199.337C212.953 199.337 212.339 199.217 211.807 198.976C211.287 198.723 210.882 198.381 210.591 197.95C210.299 197.507 210.154 196.988 210.154 196.392C210.154 195.835 210.274 195.335 210.515 194.891C210.768 194.448 211.154 194.074 211.674 193.77C212.193 193.466 212.845 193.251 213.631 193.124L217.203 192.535V194.226L214.049 194.777C213.479 194.879 213.061 195.062 212.795 195.328C212.529 195.582 212.396 195.911 212.396 196.316C212.396 196.709 212.541 197.032 212.833 197.285C213.137 197.526 213.523 197.646 213.992 197.646C214.574 197.646 215.081 197.52 215.512 197.266C215.955 197.013 216.297 196.677 216.538 196.259C216.778 195.829 216.899 195.354 216.899 194.834V192.193C216.899 191.687 216.709 191.275 216.329 190.958C215.961 190.629 215.467 190.464 214.847 190.464C214.277 190.464 213.776 190.616 213.346 190.92C212.928 191.212 212.617 191.592 212.415 192.06L210.629 191.167C210.819 190.661 211.129 190.217 211.56 189.837C211.99 189.445 212.491 189.141 213.061 188.925C213.643 188.71 214.258 188.602 214.904 188.602C215.714 188.602 216.43 188.754 217.051 189.058C217.684 189.362 218.172 189.787 218.514 190.331C218.868 190.863 219.046 191.484 219.046 192.193V199.109H216.994V197.247L217.431 197.304C217.19 197.722 216.88 198.083 216.5 198.387C216.132 198.691 215.708 198.926 215.227 199.09C214.758 199.255 214.232 199.337 213.65 199.337ZM224.786 199.337C223.735 199.337 222.81 199.078 222.012 198.558C221.227 198.039 220.676 197.342 220.359 196.468L222.012 195.689C222.291 196.272 222.671 196.734 223.152 197.076C223.646 197.418 224.191 197.589 224.786 197.589C225.293 197.589 225.704 197.475 226.021 197.247C226.338 197.019 226.496 196.709 226.496 196.316C226.496 196.063 226.426 195.86 226.287 195.708C226.148 195.544 225.97 195.411 225.755 195.309C225.552 195.208 225.343 195.132 225.128 195.081L223.513 194.625C222.626 194.372 221.961 193.992 221.518 193.485C221.087 192.966 220.872 192.364 220.872 191.68C220.872 191.06 221.03 190.521 221.347 190.065C221.664 189.597 222.101 189.236 222.658 188.982C223.215 188.729 223.842 188.602 224.539 188.602C225.476 188.602 226.312 188.837 227.047 189.305C227.782 189.761 228.301 190.401 228.605 191.224L226.952 192.003C226.749 191.509 226.426 191.117 225.983 190.825C225.552 190.534 225.065 190.388 224.52 190.388C224.051 190.388 223.678 190.502 223.399 190.73C223.12 190.946 222.981 191.231 222.981 191.585C222.981 191.826 223.044 192.029 223.171 192.193C223.298 192.345 223.462 192.472 223.665 192.573C223.868 192.662 224.077 192.738 224.292 192.801L225.964 193.295C226.813 193.536 227.465 193.916 227.921 194.435C228.377 194.942 228.605 195.55 228.605 196.259C228.605 196.867 228.44 197.406 228.111 197.874C227.794 198.33 227.351 198.691 226.781 198.957C226.211 199.211 225.546 199.337 224.786 199.337ZM230.139 199.109V188.83H232.286V199.109H230.139ZM230.139 187.424V184.954H232.286V187.424H230.139ZM238.026 199.337C236.975 199.337 236.05 199.078 235.252 198.558C234.467 198.039 233.916 197.342 233.599 196.468L235.252 195.689C235.531 196.272 235.911 196.734 236.392 197.076C236.886 197.418 237.431 197.589 238.026 197.589C238.533 197.589 238.944 197.475 239.261 197.247C239.578 197.019 239.736 196.709 239.736 196.316C239.736 196.063 239.666 195.86 239.527 195.708C239.388 195.544 239.21 195.411 238.995 195.309C238.792 195.208 238.583 195.132 238.368 195.081L236.753 194.625C235.866 194.372 235.201 193.992 234.758 193.485C234.327 192.966 234.112 192.364 234.112 191.68C234.112 191.06 234.27 190.521 234.587 190.065C234.904 189.597 235.341 189.236 235.898 188.982C236.455 188.729 237.082 188.602 237.779 188.602C238.716 188.602 239.552 188.837 240.287 189.305C241.022 189.761 241.541 190.401 241.845 191.224L240.192 192.003C239.989 191.509 239.666 191.117 239.223 190.825C238.792 190.534 238.305 190.388 237.76 190.388C237.291 190.388 236.918 190.502 236.639 190.73C236.36 190.946 236.221 191.231 236.221 191.585C236.221 191.826 236.284 192.029 236.411 192.193C236.538 192.345 236.702 192.472 236.905 192.573C237.108 192.662 237.317 192.738 237.532 192.801L239.204 193.295C240.053 193.536 240.705 193.916 241.161 194.435C241.617 194.942 241.845 195.55 241.845 196.259C241.845 196.867 241.68 197.406 241.351 197.874C241.034 198.33 240.591 198.691 240.021 198.957C239.451 199.211 238.786 199.337 238.026 199.337Z" fill="#222222"/>
<rect x="111.725" y="227.109" width="24" height="24" rx="5" fill="#23BB4E"/>
<path d="M118.293 239.881L121.396 242.985L129.154 235.227" stroke="white" stroke-width="1.6" stroke-linecap="round" stroke-linejoin="round"/>
<path d="M153.188 247.109V232.954H155.278L160.598 240.326H159.553L164.778 232.954H166.868V247.109H164.645V235.595L165.481 235.823L160.142 243.119H159.914L154.689 235.823L155.43 235.595V247.109H153.188ZM173.974 247.337C172.986 247.337 172.08 247.103 171.257 246.634C170.446 246.166 169.8 245.526 169.319 244.715C168.838 243.905 168.597 242.986 168.597 241.96C168.597 240.922 168.838 240.003 169.319 239.205C169.8 238.395 170.446 237.761 171.257 237.305C172.068 236.837 172.973 236.602 173.974 236.602C174.987 236.602 175.893 236.837 176.691 237.305C177.502 237.761 178.141 238.395 178.61 239.205C179.091 240.003 179.332 240.922 179.332 241.96C179.332 242.999 179.091 243.924 178.61 244.734C178.129 245.545 177.483 246.185 176.672 246.653C175.861 247.109 174.962 247.337 173.974 247.337ZM173.974 245.342C174.582 245.342 175.12 245.197 175.589 244.905C176.058 244.614 176.425 244.215 176.691 243.708C176.97 243.189 177.109 242.606 177.109 241.96C177.109 241.314 176.97 240.738 176.691 240.231C176.425 239.725 176.058 239.326 175.589 239.034C175.12 238.743 174.582 238.597 173.974 238.597C173.379 238.597 172.84 238.743 172.359 239.034C171.89 239.326 171.517 239.725 171.238 240.231C170.972 240.738 170.839 241.314 170.839 241.96C170.839 242.606 170.972 243.189 171.238 243.708C171.517 244.215 171.89 244.614 172.359 244.905C172.84 245.197 173.379 245.342 173.974 245.342ZM180.858 247.109V236.83H182.91V238.844L182.663 238.578C182.916 237.932 183.322 237.445 183.879 237.115C184.436 236.773 185.082 236.602 185.817 236.602C186.577 236.602 187.248 236.767 187.831 237.096C188.414 237.426 188.87 237.882 189.199 238.464C189.528 239.047 189.693 239.718 189.693 240.478V247.109H187.565V241.048C187.565 240.529 187.47 240.092 187.28 239.737C187.09 239.37 186.818 239.091 186.463 238.901C186.121 238.699 185.728 238.597 185.285 238.597C184.842 238.597 184.443 238.699 184.088 238.901C183.746 239.091 183.48 239.37 183.29 239.737C183.1 240.105 183.005 240.542 183.005 241.048V247.109H180.858ZM195.867 247.223C194.79 247.223 193.954 246.919 193.359 246.311C192.764 245.703 192.466 244.848 192.466 243.746V238.768H190.661V236.83H190.946C191.427 236.83 191.801 236.691 192.067 236.412C192.333 236.134 192.466 235.754 192.466 235.272V234.474H194.613V236.83H196.95V238.768H194.613V243.651C194.613 244.006 194.67 244.31 194.784 244.563C194.898 244.804 195.082 244.994 195.335 245.133C195.588 245.26 195.918 245.323 196.323 245.323C196.424 245.323 196.538 245.317 196.665 245.304C196.792 245.292 196.912 245.279 197.026 245.266V247.109C196.849 247.135 196.652 247.16 196.437 247.185C196.222 247.211 196.032 247.223 195.867 247.223ZM198.551 247.109V232.726H200.698V238.844L200.356 238.578C200.609 237.932 201.015 237.445 201.572 237.115C202.129 236.773 202.775 236.602 203.51 236.602C204.27 236.602 204.941 236.767 205.524 237.096C206.107 237.426 206.563 237.882 206.892 238.464C207.221 239.047 207.386 239.712 207.386 240.459V247.109H205.258V241.048C205.258 240.529 205.157 240.092 204.954 239.737C204.764 239.37 204.498 239.091 204.156 238.901C203.814 238.699 203.421 238.597 202.978 238.597C202.547 238.597 202.155 238.699 201.8 238.901C201.458 239.091 201.186 239.37 200.983 239.737C200.793 240.105 200.698 240.542 200.698 241.048V247.109H198.551ZM209.114 247.109V232.726H211.261V247.109H209.114ZM214.113 251.289C213.86 251.289 213.607 251.264 213.353 251.213C213.113 251.175 212.891 251.112 212.688 251.023V249.18C212.84 249.218 213.024 249.25 213.239 249.275C213.455 249.313 213.664 249.332 213.866 249.332C214.462 249.332 214.899 249.199 215.177 248.933C215.469 248.68 215.728 248.287 215.956 247.755L216.64 246.197L216.602 248.002L212.156 236.83H214.455L217.742 245.399H216.963L220.231 236.83H222.549L218.008 248.23C217.768 248.838 217.464 249.37 217.096 249.826C216.742 250.295 216.317 250.656 215.823 250.909C215.342 251.163 214.772 251.289 214.113 251.289ZM226.409 247.109V232.954H232.375C233.262 232.954 234.028 233.113 234.674 233.429C235.32 233.733 235.814 234.177 236.156 234.759C236.498 235.329 236.669 236.007 236.669 236.792C236.669 237.476 236.492 238.103 236.137 238.673C235.795 239.231 235.257 239.674 234.522 240.003V239.053C235.168 239.307 235.694 239.63 236.099 240.022C236.504 240.402 236.796 240.833 236.973 241.314C237.163 241.796 237.258 242.302 237.258 242.834C237.258 244.164 236.821 245.209 235.947 245.969C235.086 246.729 233.901 247.109 232.394 247.109H226.409ZM228.651 245.114H232.565C233.312 245.114 233.908 244.912 234.351 244.506C234.794 244.088 235.016 243.537 235.016 242.853C235.016 242.157 234.794 241.606 234.351 241.2C233.908 240.782 233.312 240.573 232.565 240.573H228.651V245.114ZM228.651 238.597H232.432C233.04 238.597 233.528 238.426 233.895 238.084C234.262 237.73 234.446 237.267 234.446 236.697C234.446 236.127 234.262 235.684 233.895 235.367C233.528 235.051 233.04 234.892 232.432 234.892H228.651V238.597ZM241.863 247.337C241.166 247.337 240.552 247.217 240.02 246.976C239.501 246.723 239.095 246.381 238.804 245.95C238.513 245.507 238.367 244.988 238.367 244.392C238.367 243.835 238.487 243.335 238.728 242.891C238.981 242.448 239.368 242.074 239.887 241.77C240.406 241.466 241.059 241.251 241.844 241.124L245.416 240.535V242.226L242.262 242.777C241.692 242.879 241.274 243.062 241.008 243.328C240.742 243.582 240.609 243.911 240.609 244.316C240.609 244.709 240.755 245.032 241.046 245.285C241.35 245.526 241.736 245.646 242.205 245.646C242.788 245.646 243.294 245.52 243.725 245.266C244.168 245.013 244.51 244.677 244.751 244.259C244.992 243.829 245.112 243.354 245.112 242.834V240.193C245.112 239.687 244.922 239.275 244.542 238.958C244.175 238.629 243.681 238.464 243.06 238.464C242.49 238.464 241.99 238.616 241.559 238.92C241.141 239.212 240.831 239.592 240.628 240.06L238.842 239.167C239.032 238.661 239.342 238.217 239.773 237.837C240.204 237.445 240.704 237.141 241.274 236.925C241.857 236.71 242.471 236.602 243.117 236.602C243.928 236.602 244.643 236.754 245.264 237.058C245.897 237.362 246.385 237.787 246.727 238.331C247.082 238.863 247.259 239.484 247.259 240.193V247.109H245.207V245.247L245.644 245.304C245.403 245.722 245.093 246.083 244.713 246.387C244.346 246.691 243.921 246.926 243.44 247.09C242.971 247.255 242.446 247.337 241.863 247.337ZM253 247.337C251.948 247.337 251.024 247.078 250.226 246.558C249.44 246.039 248.889 245.342 248.573 244.468L250.226 243.689C250.504 244.272 250.884 244.734 251.366 245.076C251.86 245.418 252.404 245.589 253 245.589C253.506 245.589 253.918 245.475 254.235 245.247C254.551 245.019 254.71 244.709 254.71 244.316C254.71 244.063 254.64 243.86 254.501 243.708C254.361 243.544 254.184 243.411 253.969 243.309C253.766 243.208 253.557 243.132 253.342 243.081L251.727 242.625C250.84 242.372 250.175 241.992 249.732 241.485C249.301 240.966 249.086 240.364 249.086 239.68C249.086 239.06 249.244 238.521 249.561 238.065C249.877 237.597 250.314 237.236 250.872 236.982C251.429 236.729 252.056 236.602 252.753 236.602C253.69 236.602 254.526 236.837 255.261 237.305C255.995 237.761 256.515 238.401 256.819 239.224L255.166 240.003C254.963 239.509 254.64 239.117 254.197 238.825C253.766 238.534 253.278 238.388 252.734 238.388C252.265 238.388 251.891 238.502 251.613 238.73C251.334 238.946 251.195 239.231 251.195 239.585C251.195 239.826 251.258 240.029 251.385 240.193C251.511 240.345 251.676 240.472 251.879 240.573C252.081 240.662 252.29 240.738 252.506 240.801L254.178 241.295C255.026 241.536 255.679 241.916 256.135 242.435C256.591 242.942 256.819 243.55 256.819 244.259C256.819 244.867 256.654 245.406 256.325 245.874C256.008 246.33 255.565 246.691 254.995 246.957C254.425 247.211 253.76 247.337 253 247.337ZM258.352 247.109V236.83H260.499V247.109H258.352ZM258.352 235.424V232.954H260.499V235.424H258.352ZM266.239 247.337C265.188 247.337 264.263 247.078 263.465 246.558C262.68 246.039 262.129 245.342 261.812 244.468L263.465 243.689C263.744 244.272 264.124 244.734 264.605 245.076C265.099 245.418 265.644 245.589 266.239 245.589C266.746 245.589 267.158 245.475 267.474 245.247C267.791 245.019 267.949 244.709 267.949 244.316C267.949 244.063 267.88 243.86 267.74 243.708C267.601 243.544 267.424 243.411 267.208 243.309C267.006 243.208 266.797 243.132 266.581 243.081L264.966 242.625C264.08 242.372 263.415 241.992 262.971 241.485C262.541 240.966 262.325 240.364 262.325 239.68C262.325 239.06 262.484 238.521 262.8 238.065C263.117 237.597 263.554 237.236 264.111 236.982C264.669 236.729 265.296 236.602 265.992 236.602C266.93 236.602 267.766 236.837 268.5 237.305C269.235 237.761 269.754 238.401 270.058 239.224L268.405 240.003C268.203 239.509 267.88 239.117 267.436 238.825C267.006 238.534 266.518 238.388 265.973 238.388C265.505 238.388 265.131 238.502 264.852 238.73C264.574 238.946 264.434 239.231 264.434 239.585C264.434 239.826 264.498 240.029 264.624 240.193C264.751 240.345 264.916 240.472 265.118 240.573C265.321 240.662 265.53 240.738 265.745 240.801L267.417 241.295C268.266 241.536 268.918 241.916 269.374 242.435C269.83 242.942 270.058 243.55 270.058 244.259C270.058 244.867 269.894 245.406 269.564 245.874C269.248 246.33 268.804 246.691 268.234 246.957C267.664 247.211 266.999 247.337 266.239 247.337Z" fill="#222222"/>
<rect x="111.725" y="275.109" width="24" height="24" rx="5" fill="#23BB4E"/>
<path d="M118.293 287.881L121.396 290.985L129.154 283.227" stroke="white" stroke-width="1.6" stroke-linecap="round" stroke-linejoin="round"/>
<path d="M156.779 295.109V288.725L151.934 280.954H154.461L158.337 287.243H157.444L161.301 280.954H163.828L159.002 288.725V295.109H156.779ZM167.755 295.337C166.729 295.337 165.817 295.103 165.019 294.634C164.234 294.153 163.619 293.507 163.176 292.696C162.733 291.873 162.511 290.955 162.511 289.941C162.511 288.903 162.733 287.984 163.176 287.186C163.632 286.388 164.24 285.761 165 285.305C165.76 284.837 166.621 284.602 167.584 284.602C168.357 284.602 169.047 284.735 169.655 285.001C170.263 285.267 170.776 285.635 171.194 286.103C171.612 286.559 171.929 287.085 172.144 287.68C172.372 288.276 172.486 288.909 172.486 289.58C172.486 289.745 172.48 289.916 172.467 290.093C172.454 290.271 172.429 290.435 172.391 290.587H164.202V288.877H171.175L170.149 289.656C170.276 289.036 170.231 288.485 170.016 288.003C169.813 287.509 169.497 287.123 169.066 286.844C168.648 286.553 168.154 286.407 167.584 286.407C167.014 286.407 166.507 286.553 166.064 286.844C165.621 287.123 165.279 287.528 165.038 288.06C164.797 288.58 164.702 289.213 164.753 289.96C164.69 290.657 164.785 291.265 165.038 291.784C165.304 292.304 165.671 292.709 166.14 293C166.621 293.292 167.166 293.437 167.774 293.437C168.395 293.437 168.92 293.298 169.351 293.019C169.794 292.741 170.143 292.38 170.396 291.936L172.144 292.791C171.941 293.273 171.625 293.71 171.194 294.102C170.776 294.482 170.269 294.786 169.674 295.014C169.091 295.23 168.452 295.337 167.755 295.337ZM176.997 295.337C176.3 295.337 175.686 295.217 175.154 294.976C174.634 294.723 174.229 294.381 173.938 293.95C173.646 293.507 173.501 292.988 173.501 292.392C173.501 291.835 173.621 291.335 173.862 290.891C174.115 290.448 174.501 290.074 175.021 289.77C175.54 289.466 176.192 289.251 176.978 289.124L180.55 288.535V290.226L177.396 290.777C176.826 290.879 176.408 291.062 176.142 291.328C175.876 291.582 175.743 291.911 175.743 292.316C175.743 292.709 175.888 293.032 176.18 293.285C176.484 293.526 176.87 293.646 177.339 293.646C177.921 293.646 178.428 293.52 178.859 293.266C179.302 293.013 179.644 292.677 179.885 292.259C180.125 291.829 180.246 291.354 180.246 290.834V288.193C180.246 287.687 180.056 287.275 179.676 286.958C179.308 286.629 178.814 286.464 178.194 286.464C177.624 286.464 177.123 286.616 176.693 286.92C176.275 287.212 175.964 287.592 175.762 288.06L173.976 287.167C174.166 286.661 174.476 286.217 174.907 285.837C175.337 285.445 175.838 285.141 176.408 284.925C176.99 284.71 177.605 284.602 178.251 284.602C179.061 284.602 179.777 284.754 180.398 285.058C181.031 285.362 181.519 285.787 181.861 286.331C182.215 286.863 182.393 287.484 182.393 288.193V295.109H180.341V293.247L180.778 293.304C180.537 293.722 180.227 294.083 179.847 294.387C179.479 294.691 179.055 294.926 178.574 295.09C178.105 295.255 177.579 295.337 176.997 295.337ZM184.333 295.109V284.83H186.385V286.901L186.195 286.597C186.423 285.926 186.79 285.445 187.297 285.153C187.804 284.849 188.412 284.697 189.121 284.697H189.748V286.654H188.855C188.146 286.654 187.569 286.876 187.126 287.319C186.695 287.75 186.48 288.371 186.48 289.181V295.109H184.333ZM190.647 295.109V280.726H192.794V295.109H190.647ZM195.646 299.289C195.393 299.289 195.139 299.264 194.886 299.213C194.645 299.175 194.424 299.112 194.221 299.023V297.18C194.373 297.218 194.557 297.25 194.772 297.275C194.987 297.313 195.196 297.332 195.399 297.332C195.994 297.332 196.431 297.199 196.71 296.933C197.001 296.68 197.261 296.287 197.489 295.755L198.173 294.197L198.135 296.002L193.689 284.83H195.988L199.275 293.399H198.496L201.764 284.83H204.082L199.541 296.23C199.3 296.838 198.996 297.37 198.629 297.826C198.274 298.295 197.85 298.656 197.356 298.909C196.875 299.163 196.305 299.289 195.646 299.289Z" fill="#222222"/>
</g>
<path d="M293 61.3691H1047.02V119.259H293V61.3691Z" fill="white"/>
<g filter="url(#filter1_d_4800_24494)">
<path d="M548.777 77.0762H332.418C325.108 77.0762 319.182 83.0021 319.182 90.3122V90.3132C319.182 97.6232 325.108 103.549 332.418 103.549H548.777C556.087 103.549 562.013 97.6232 562.013 90.3132V90.3122C562.013 83.0021 556.087 77.0762 548.777 77.0762Z" fill="white"/>
<path fill-rule="evenodd" clip-rule="evenodd" d="M331.779 86.3855C331.323 86.3778 330.87 86.461 330.446 86.6303C330.022 86.7996 329.637 87.0515 329.311 87.3714C328.986 87.6914 328.728 88.0729 328.551 88.4937C328.375 88.9145 328.284 89.3663 328.284 89.8226C328.284 90.2788 328.375 90.7305 328.552 91.1513C328.728 91.5721 328.987 91.9535 329.312 92.2734C329.637 92.5932 330.023 92.845 330.447 93.0142C330.871 93.1833 331.324 93.2664 331.78 93.2585C332.682 93.243 333.541 92.8741 334.173 92.2312C334.804 91.5883 335.158 90.723 335.158 89.8216C335.158 88.9202 334.804 88.0549 334.172 87.4122C333.54 86.7695 332.681 86.4008 331.779 86.3855ZM327.361 89.8225C327.361 89.1168 327.53 88.4213 327.854 87.7943C328.178 87.1673 328.648 86.6271 329.223 86.2188C329.799 85.8105 330.464 85.546 331.163 85.4475C331.862 85.349 332.574 85.4194 333.24 85.6527C333.906 85.8861 334.507 86.2756 334.991 86.7886C335.476 87.3017 335.83 87.9234 336.025 88.6016C336.22 89.2799 336.25 89.995 336.112 90.6871C335.974 91.3792 335.672 92.0281 335.231 92.5795L338.017 95.3655C338.063 95.4111 338.099 95.4652 338.124 95.5248C338.148 95.5843 338.161 95.6481 338.161 95.7125C338.161 95.777 338.148 95.8408 338.124 95.9003C338.099 95.9599 338.063 96.014 338.017 96.0595C337.972 96.1051 337.918 96.1413 337.858 96.1659C337.799 96.1906 337.735 96.2033 337.67 96.2033C337.606 96.2033 337.542 96.1906 337.483 96.1659C337.423 96.1413 337.369 96.1051 337.323 96.0595L334.537 93.2745C333.887 93.794 333.104 94.1193 332.277 94.213C331.45 94.3068 330.614 94.1651 329.864 93.8044C329.114 93.4438 328.482 92.8787 328.039 92.1742C327.596 91.4698 327.361 90.6546 327.361 89.8225Z" fill="#979FB4"/>
<path opacity="0.6" d="M358.22 94.2294C357.747 94.2294 357.317 94.1394 356.93 93.9594C356.544 93.7794 356.217 93.5394 355.95 93.2394C355.684 92.9327 355.494 92.596 355.38 92.2294L356.1 91.9594C356.274 92.466 356.544 92.8527 356.91 93.1194C357.277 93.3794 357.714 93.5094 358.22 93.5094C358.54 93.5094 358.82 93.4594 359.06 93.3594C359.307 93.2527 359.497 93.106 359.63 92.9194C359.764 92.7327 359.83 92.516 359.83 92.2694C359.83 91.9027 359.73 91.6194 359.53 91.4194C359.33 91.2194 359.044 91.066 358.67 90.9594L357.33 90.5594C356.804 90.406 356.397 90.1494 356.11 89.7894C355.83 89.4294 355.69 89.0194 355.69 88.5594C355.69 88.166 355.787 87.8194 355.98 87.5194C356.174 87.2127 356.437 86.9727 356.77 86.7994C357.11 86.626 357.494 86.5394 357.92 86.5394C358.367 86.5394 358.767 86.6227 359.12 86.7894C359.48 86.9494 359.784 87.1627 360.03 87.4294C360.277 87.696 360.454 87.9927 360.56 88.3194L359.86 88.5994C359.7 88.1594 359.45 87.826 359.11 87.5994C358.777 87.3727 358.384 87.2594 357.93 87.2594C357.644 87.2594 357.39 87.3094 357.17 87.4094C356.957 87.5094 356.79 87.6527 356.67 87.8394C356.55 88.026 356.49 88.246 356.49 88.4994C356.49 88.806 356.587 89.0827 356.78 89.3294C356.974 89.5694 357.27 89.7494 357.67 89.8694L358.85 90.2194C359.437 90.3927 359.88 90.6427 360.18 90.9694C360.48 91.296 360.63 91.706 360.63 92.1994C360.63 92.5994 360.527 92.9527 360.32 93.2594C360.12 93.5594 359.837 93.796 359.47 93.9694C359.11 94.1427 358.694 94.2294 358.22 94.2294ZM364.005 94.2294C363.505 94.2294 363.052 94.1094 362.645 93.8694C362.245 93.6227 361.929 93.286 361.695 92.8594C361.462 92.4327 361.345 91.9494 361.345 91.4094C361.345 90.8694 361.459 90.3927 361.685 89.9794C361.912 89.5594 362.219 89.2294 362.605 88.9894C362.999 88.7494 363.439 88.6294 363.925 88.6294C364.312 88.6294 364.655 88.7027 364.955 88.8494C365.262 88.9894 365.522 89.1827 365.735 89.4294C365.949 89.6694 366.112 89.9427 366.225 90.2494C366.339 90.5494 366.395 90.8594 366.395 91.1794C366.395 91.246 366.392 91.3227 366.385 91.4094C366.379 91.4894 366.369 91.5727 366.355 91.6594H361.825V90.9594H365.925L365.565 91.2594C365.625 90.8927 365.582 90.566 365.435 90.2794C365.295 89.986 365.092 89.756 364.825 89.5894C364.559 89.416 364.259 89.3294 363.925 89.3294C363.592 89.3294 363.282 89.416 362.995 89.5894C362.715 89.7627 362.495 90.006 362.335 90.3194C362.175 90.626 362.112 90.9927 362.145 91.4194C362.112 91.846 362.179 92.2194 362.345 92.5394C362.519 92.8527 362.752 93.096 363.045 93.2694C363.345 93.4427 363.665 93.5294 364.005 93.5294C364.399 93.5294 364.729 93.436 364.995 93.2494C365.262 93.0627 365.479 92.8294 365.645 92.5494L366.285 92.8894C366.179 93.1294 366.015 93.3527 365.795 93.5594C365.575 93.7594 365.312 93.9227 365.005 94.0494C364.705 94.1694 364.372 94.2294 364.005 94.2294ZM368.67 94.2294C368.33 94.2294 368.027 94.166 367.76 94.0394C367.493 93.906 367.283 93.726 367.13 93.4994C366.977 93.2727 366.9 93.0127 366.9 92.7194C366.9 92.4394 366.96 92.186 367.08 91.9594C367.2 91.726 367.387 91.5294 367.64 91.3694C367.893 91.2094 368.217 91.096 368.61 91.0294L370.71 90.6794V91.3594L368.79 91.6794C368.403 91.746 368.123 91.8694 367.95 92.0494C367.783 92.2294 367.7 92.4427 367.7 92.6894C367.7 92.9294 367.793 93.1327 367.98 93.2994C368.173 93.466 368.42 93.5494 368.72 93.5494C369.087 93.5494 369.407 93.4727 369.68 93.3194C369.953 93.1594 370.167 92.946 370.32 92.6794C370.473 92.4127 370.55 92.116 370.55 91.7894V90.4294C370.55 90.1094 370.433 89.8494 370.2 89.6494C369.967 89.4494 369.663 89.3494 369.29 89.3494C368.963 89.3494 368.677 89.4327 368.43 89.5994C368.183 89.7594 368 89.9694 367.88 90.2294L367.2 89.8594C367.3 89.6327 367.457 89.426 367.67 89.2394C367.89 89.0527 368.14 88.906 368.42 88.7994C368.7 88.686 368.99 88.6294 369.29 88.6294C369.683 88.6294 370.03 88.706 370.33 88.8594C370.637 89.0127 370.873 89.226 371.04 89.4994C371.213 89.766 371.3 90.076 371.3 90.4294V94.1094H370.55V93.0394L370.66 93.1494C370.567 93.3494 370.42 93.5327 370.22 93.6994C370.027 93.8594 369.797 93.9894 369.53 94.0894C369.27 94.1827 368.983 94.2294 368.67 94.2294ZM372.343 94.1094V88.7494H373.093V89.6294L372.993 89.4994C373.119 89.246 373.309 89.046 373.563 88.8994C373.823 88.7527 374.136 88.6794 374.503 88.6794H374.843V89.4294H374.373C373.986 89.4294 373.676 89.5494 373.443 89.7894C373.209 90.0294 373.093 90.3694 373.093 90.8094V94.1094H372.343ZM377.672 94.2294C377.145 94.2294 376.682 94.106 376.282 93.8594C375.882 93.6127 375.568 93.2794 375.342 92.8594C375.115 92.4327 375.002 91.9527 375.002 91.4194C375.002 90.886 375.115 90.4094 375.342 89.9894C375.568 89.5694 375.882 89.2394 376.282 88.9994C376.682 88.7527 377.145 88.6294 377.672 88.6294C378.005 88.6294 378.318 88.6894 378.612 88.8094C378.905 88.9294 379.165 89.0927 379.392 89.2994C379.618 89.4994 379.788 89.7327 379.902 89.9994L379.222 90.3494C379.088 90.0627 378.885 89.8294 378.612 89.6494C378.338 89.4694 378.025 89.3794 377.672 89.3794C377.318 89.3794 376.998 89.4694 376.712 89.6494C376.432 89.8227 376.208 90.066 376.042 90.3794C375.882 90.686 375.802 91.036 375.802 91.4294C375.802 91.816 375.882 92.166 376.042 92.4794C376.208 92.786 376.432 93.0294 376.712 93.2094C376.998 93.3894 377.318 93.4794 377.672 93.4794C378.025 93.4794 378.335 93.3894 378.602 93.2094C378.875 93.0294 379.082 92.7894 379.222 92.4894L379.902 92.8594C379.788 93.1194 379.618 93.3527 379.392 93.5594C379.165 93.766 378.905 93.9294 378.612 94.0494C378.318 94.1694 378.005 94.2294 377.672 94.2294ZM380.718 94.1094V86.5394H381.468V89.7894L381.298 89.7494C381.431 89.4027 381.648 89.1294 381.948 88.9294C382.254 88.7294 382.608 88.6294 383.008 88.6294C383.388 88.6294 383.728 88.716 384.028 88.8894C384.334 89.0627 384.574 89.3027 384.748 89.6094C384.928 89.9094 385.018 90.2494 385.018 90.6294V94.1094H384.268V90.9194C384.268 90.5927 384.208 90.316 384.088 90.0894C383.968 89.8627 383.801 89.6894 383.588 89.5694C383.381 89.4427 383.144 89.3794 382.878 89.3794C382.611 89.3794 382.371 89.4427 382.158 89.5694C381.944 89.6894 381.774 89.866 381.648 90.0994C381.528 90.326 381.468 90.5994 381.468 90.9194V94.1094H380.718ZM389.859 94.2294C389.399 94.2294 388.983 94.126 388.609 93.9194C388.243 93.706 387.966 93.406 387.779 93.0194L387.899 92.9094V94.1094H387.149V86.5394H387.899V89.9494L387.779 89.7394C387.993 89.3994 388.276 89.1294 388.629 88.9294C388.989 88.7294 389.399 88.6294 389.859 88.6294C390.366 88.6294 390.816 88.7527 391.209 88.9994C391.609 89.2394 391.923 89.5694 392.149 89.9894C392.383 90.4094 392.499 90.8894 392.499 91.4294C392.499 91.9627 392.383 92.4427 392.149 92.8694C391.923 93.2894 391.609 93.6227 391.209 93.8694C390.816 94.1094 390.366 94.2294 389.859 94.2294ZM389.819 93.4794C390.179 93.4794 390.499 93.3894 390.779 93.2094C391.066 93.0294 391.289 92.786 391.449 92.4794C391.616 92.166 391.699 91.816 391.699 91.4294C391.699 91.036 391.616 90.686 391.449 90.3794C391.289 90.0727 391.066 89.8294 390.779 89.6494C390.499 89.4694 390.179 89.3794 389.819 89.3794C389.459 89.3794 389.133 89.4694 388.839 89.6494C388.553 89.8294 388.323 90.076 388.149 90.3894C387.983 90.696 387.899 91.0427 387.899 91.4294C387.899 91.816 387.983 92.166 388.149 92.4794C388.323 92.786 388.553 93.0294 388.839 93.2094C389.133 93.3894 389.459 93.4794 389.819 93.4794ZM393.332 96.3094C393.225 96.3094 393.115 96.2994 393.002 96.2794C392.895 96.266 392.788 96.2394 392.682 96.1994V95.4994C392.748 95.506 392.832 95.516 392.932 95.5294C393.038 95.5494 393.145 95.5594 393.252 95.5594C393.578 95.5594 393.828 95.4894 394.002 95.3494C394.175 95.216 394.345 94.956 394.512 94.5694L394.852 93.7694L394.832 94.4294L392.562 88.7494H393.372L395.232 93.4394H395.022L396.872 88.7494H397.702L395.252 94.7894C395.145 95.0494 395.008 95.296 394.842 95.5294C394.682 95.7627 394.478 95.9494 394.232 96.0894C393.985 96.236 393.685 96.3094 393.332 96.3094ZM399.392 94.1094V86.6594H400.192V91.0094L400.012 90.9194L403.762 86.6594H404.762L401.752 90.0794L401.792 89.5094L404.942 94.1094H403.982L401.442 90.4394L400.192 91.8594V94.1094H399.392ZM407.57 94.2294C407.07 94.2294 406.616 94.1094 406.21 93.8694C405.81 93.6227 405.493 93.286 405.26 92.8594C405.026 92.4327 404.91 91.9494 404.91 91.4094C404.91 90.8694 405.023 90.3927 405.25 89.9794C405.476 89.5594 405.783 89.2294 406.17 88.9894C406.563 88.7494 407.003 88.6294 407.49 88.6294C407.876 88.6294 408.22 88.7027 408.52 88.8494C408.826 88.9894 409.086 89.1827 409.3 89.4294C409.513 89.6694 409.676 89.9427 409.79 90.2494C409.903 90.5494 409.96 90.8594 409.96 91.1794C409.96 91.246 409.956 91.3227 409.95 91.4094C409.943 91.4894 409.933 91.5727 409.92 91.6594H405.39V90.9594H409.49L409.13 91.2594C409.19 90.8927 409.146 90.566 409 90.2794C408.86 89.986 408.656 89.756 408.39 89.5894C408.123 89.416 407.823 89.3294 407.49 89.3294C407.156 89.3294 406.846 89.416 406.56 89.5894C406.28 89.7627 406.06 90.006 405.9 90.3194C405.74 90.626 405.676 90.9927 405.71 91.4194C405.676 91.846 405.743 92.2194 405.91 92.5394C406.083 92.8527 406.316 93.096 406.61 93.2694C406.91 93.4427 407.23 93.5294 407.57 93.5294C407.963 93.5294 408.293 93.436 408.56 93.2494C408.826 93.0627 409.043 92.8294 409.21 92.5494L409.85 92.8894C409.743 93.1294 409.58 93.3527 409.36 93.5594C409.14 93.7594 408.876 93.9227 408.57 94.0494C408.27 94.1694 407.936 94.2294 407.57 94.2294ZM410.892 96.3094C410.785 96.3094 410.675 96.2994 410.562 96.2794C410.455 96.266 410.349 96.2394 410.242 96.1994V95.4994C410.309 95.506 410.392 95.516 410.492 95.5294C410.599 95.5494 410.705 95.5594 410.812 95.5594C411.139 95.5594 411.389 95.4894 411.562 95.3494C411.735 95.216 411.905 94.956 412.072 94.5694L412.412 93.7694L412.392 94.4294L410.122 88.7494H410.932L412.792 93.4394H412.582L414.432 88.7494H415.262L412.812 94.7894C412.705 95.0494 412.569 95.296 412.402 95.5294C412.242 95.7627 412.039 95.9494 411.792 96.0894C411.545 96.236 411.245 96.3094 410.892 96.3094ZM416.823 94.1094L414.983 88.7494H415.833L417.353 93.4394H417.053L418.483 88.7494H419.233L420.663 93.4394H420.363L421.893 88.7494H422.733L420.893 94.1094H420.143L418.753 89.5194H418.963L417.573 94.1094H416.823ZM425.524 94.2294C425.018 94.2294 424.558 94.1094 424.144 93.8694C423.731 93.6227 423.401 93.2894 423.154 92.8694C422.914 92.4427 422.794 91.9594 422.794 91.4194C422.794 90.886 422.914 90.4094 423.154 89.9894C423.394 89.5694 423.718 89.2394 424.124 88.9994C424.538 88.7527 425.004 88.6294 425.524 88.6294C426.044 88.6294 426.508 88.7494 426.914 88.9894C427.328 89.2294 427.651 89.5594 427.884 89.9794C428.124 90.3994 428.244 90.8794 428.244 91.4194C428.244 91.966 428.121 92.4527 427.874 92.8794C427.628 93.2994 427.298 93.6294 426.884 93.8694C426.478 94.1094 426.024 94.2294 425.524 94.2294ZM425.524 93.4794C425.884 93.4794 426.208 93.3894 426.494 93.2094C426.788 93.0294 427.018 92.7827 427.184 92.4694C427.358 92.156 427.444 91.806 427.444 91.4194C427.444 91.0327 427.358 90.686 427.184 90.3794C427.018 90.0727 426.788 89.8294 426.494 89.6494C426.208 89.4694 425.884 89.3794 425.524 89.3794C425.164 89.3794 424.838 89.4694 424.544 89.6494C424.258 89.8294 424.028 90.0727 423.854 90.3794C423.681 90.686 423.594 91.0327 423.594 91.4194C423.594 91.806 423.681 92.156 423.854 92.4694C424.028 92.7827 424.258 93.0294 424.544 93.2094C424.838 93.3894 425.164 93.4794 425.524 93.4794ZM429.067 94.1094V88.7494H429.817V89.6294L429.717 89.4994C429.844 89.246 430.034 89.046 430.287 88.8994C430.547 88.7527 430.861 88.6794 431.227 88.6794H431.567V89.4294H431.097C430.711 89.4294 430.401 89.5494 430.167 89.7894C429.934 90.0294 429.817 90.3694 429.817 90.8094V94.1094H429.067ZM434.366 94.2294C433.866 94.2294 433.416 94.1094 433.016 93.8694C432.616 93.6227 432.299 93.2894 432.066 92.8694C431.839 92.4427 431.726 91.9627 431.726 91.4294C431.726 90.8894 431.839 90.4094 432.066 89.9894C432.299 89.5694 432.613 89.2394 433.006 88.9994C433.406 88.7527 433.859 88.6294 434.366 88.6294C434.826 88.6294 435.236 88.7294 435.596 88.9294C435.956 89.1294 436.239 89.3994 436.446 89.7394L436.326 89.9494V86.5394H437.076V94.1094H436.326V92.9094L436.446 93.0194C436.259 93.406 435.979 93.706 435.606 93.9194C435.239 94.126 434.826 94.2294 434.366 94.2294ZM434.406 93.4794C434.766 93.4794 435.089 93.3894 435.376 93.2094C435.669 93.0294 435.899 92.786 436.066 92.4794C436.239 92.166 436.326 91.816 436.326 91.4294C436.326 91.0427 436.239 90.696 436.066 90.3894C435.899 90.076 435.669 89.8294 435.376 89.6494C435.089 89.4694 434.766 89.3794 434.406 89.3794C434.053 89.3794 433.733 89.4694 433.446 89.6494C433.159 89.8294 432.933 90.0727 432.766 90.3794C432.606 90.686 432.526 91.036 432.526 91.4294C432.526 91.816 432.606 92.166 432.766 92.4794C432.933 92.786 433.156 93.0294 433.436 93.2094C433.723 93.3894 434.046 93.4794 434.406 93.4794Z" fill="#222222"/>
<path opacity="0.6" d="M476.958 93.1094L474.818 85.6594H475.628L477.478 92.3294H477.308L479.208 85.6594H480.058L481.948 92.3294H481.768L483.628 85.6594H484.438L482.298 93.1094H481.448L479.538 86.4094H479.718L477.808 93.1094H476.958ZM484.822 93.1094V85.5394H485.572V88.7894L485.402 88.7494C485.535 88.4027 485.752 88.1294 486.052 87.9294C486.359 87.7294 486.712 87.6294 487.112 87.6294C487.492 87.6294 487.832 87.716 488.132 87.8894C488.439 88.0627 488.679 88.3027 488.852 88.6094C489.032 88.9094 489.122 89.2494 489.122 89.6294V93.1094H488.372V89.9194C488.372 89.5927 488.312 89.316 488.192 89.0894C488.072 88.8627 487.905 88.6894 487.692 88.5694C487.485 88.4427 487.249 88.3794 486.982 88.3794C486.715 88.3794 486.475 88.4427 486.262 88.5694C486.049 88.6894 485.879 88.866 485.752 89.0994C485.632 89.326 485.572 89.5994 485.572 89.9194V93.1094H484.822ZM492.495 93.2294C491.995 93.2294 491.541 93.1094 491.135 92.8694C490.735 92.6227 490.418 92.286 490.185 91.8594C489.951 91.4327 489.835 90.9494 489.835 90.4094C489.835 89.8694 489.948 89.3927 490.175 88.9794C490.401 88.5594 490.708 88.2294 491.095 87.9894C491.488 87.7494 491.928 87.6294 492.415 87.6294C492.801 87.6294 493.145 87.7027 493.445 87.8494C493.751 87.9894 494.011 88.1827 494.225 88.4294C494.438 88.6694 494.601 88.9427 494.715 89.2494C494.828 89.5494 494.885 89.8594 494.885 90.1794C494.885 90.246 494.881 90.3227 494.875 90.4094C494.868 90.4894 494.858 90.5727 494.845 90.6594H490.315V89.9594H494.415L494.055 90.2594C494.115 89.8927 494.071 89.566 493.925 89.2794C493.785 88.986 493.581 88.756 493.315 88.5894C493.048 88.416 492.748 88.3294 492.415 88.3294C492.081 88.3294 491.771 88.416 491.485 88.5894C491.205 88.7627 490.985 89.006 490.825 89.3194C490.665 89.626 490.601 89.9927 490.635 90.4194C490.601 90.846 490.668 91.2194 490.835 91.5394C491.008 91.8527 491.241 92.096 491.535 92.2694C491.835 92.4427 492.155 92.5294 492.495 92.5294C492.888 92.5294 493.218 92.436 493.485 92.2494C493.751 92.0627 493.968 91.8294 494.135 91.5494L494.775 91.8894C494.668 92.1294 494.505 92.3527 494.285 92.5594C494.065 92.7594 493.801 92.9227 493.495 93.0494C493.195 93.1694 492.861 93.2294 492.495 93.2294ZM495.707 93.1094V87.7494H496.457V88.6294L496.357 88.4994C496.484 88.246 496.674 88.046 496.927 87.8994C497.187 87.7527 497.5 87.6794 497.867 87.6794H498.207V88.4294H497.737C497.35 88.4294 497.04 88.5494 496.807 88.7894C496.574 89.0294 496.457 89.3694 496.457 89.8094V93.1094H495.707ZM501.026 93.2294C500.526 93.2294 500.072 93.1094 499.666 92.8694C499.266 92.6227 498.949 92.286 498.716 91.8594C498.482 91.4327 498.366 90.9494 498.366 90.4094C498.366 89.8694 498.479 89.3927 498.706 88.9794C498.932 88.5594 499.239 88.2294 499.626 87.9894C500.019 87.7494 500.459 87.6294 500.946 87.6294C501.332 87.6294 501.676 87.7027 501.976 87.8494C502.282 87.9894 502.542 88.1827 502.756 88.4294C502.969 88.6694 503.132 88.9427 503.246 89.2494C503.359 89.5494 503.416 89.8594 503.416 90.1794C503.416 90.246 503.412 90.3227 503.406 90.4094C503.399 90.4894 503.389 90.5727 503.376 90.6594H498.846V89.9594H502.946L502.586 90.2594C502.646 89.8927 502.602 89.566 502.456 89.2794C502.316 88.986 502.112 88.756 501.846 88.5894C501.579 88.416 501.279 88.3294 500.946 88.3294C500.612 88.3294 500.302 88.416 500.016 88.5894C499.736 88.7627 499.516 89.006 499.356 89.3194C499.196 89.626 499.132 89.9927 499.166 90.4194C499.132 90.846 499.199 91.2194 499.366 91.5394C499.539 91.8527 499.772 92.096 500.066 92.2694C500.366 92.4427 500.686 92.5294 501.026 92.5294C501.419 92.5294 501.749 92.436 502.016 92.2494C502.282 92.0627 502.499 91.8294 502.666 91.5494L503.306 91.8894C503.199 92.1294 503.036 92.3527 502.816 92.5594C502.596 92.7594 502.332 92.9227 502.026 93.0494C501.726 93.1694 501.392 93.2294 501.026 93.2294Z" fill="#222222"/>
<path d="M548.777 77.0762H332.418C325.108 77.0762 319.182 83.0021 319.182 90.3122V90.3132C319.182 97.6232 325.108 103.549 332.418 103.549H548.777C556.087 103.549 562.013 97.6232 562.013 90.3132V90.3122C562.013 83.0021 556.087 77.0762 548.777 77.0762Z" stroke="#E9EBF1" stroke-width="0.655"/>
</g>
<path d="M293 119.258H1047.02V188.148H293V119.258Z" fill="white"/>
<path fill-rule="evenodd" clip-rule="evenodd" d="M374.783 137.947C374.945 138.027 375.01 138.225 374.929 138.387L372.966 142.313C372.927 142.39 372.859 142.449 372.777 142.477C372.695 142.505 372.605 142.498 372.527 142.46C372.449 142.421 372.39 142.353 372.363 142.271C372.335 142.188 372.341 142.098 372.38 142.021L374.344 138.094C374.363 138.055 374.39 138.021 374.422 137.992C374.455 137.964 374.492 137.943 374.533 137.929C374.574 137.915 374.617 137.91 374.66 137.913C374.703 137.916 374.745 137.927 374.783 137.947Z" fill="#979FB4"/>
<path fill-rule="evenodd" clip-rule="evenodd" d="M432.728 137.947C432.89 138.027 432.955 138.225 432.874 138.387L430.911 142.313C430.873 142.39 430.805 142.449 430.722 142.477C430.64 142.505 430.55 142.498 430.472 142.46C430.395 142.421 430.336 142.353 430.308 142.271C430.28 142.188 430.287 142.098 430.325 142.021L432.289 138.094C432.309 138.055 432.335 138.021 432.367 137.992C432.4 137.964 432.438 137.943 432.478 137.929C432.519 137.915 432.562 137.91 432.605 137.913C432.648 137.916 432.69 137.927 432.728 137.947Z" fill="#979FB4"/>
<path d="M327.475 194.738H337.975C343.083 194.738 347.225 198.88 347.225 203.988V214.488C347.225 219.597 343.083 223.738 337.975 223.738H327.475C322.366 223.738 318.225 219.597 318.225 214.488V203.988C318.225 198.88 322.366 194.738 327.475 194.738Z" fill="#23BB4E" stroke="#23BB4E"/>
<path d="M330.324 210.38L332.542 212.22L336.564 206.738" stroke="white" stroke-width="2" stroke-linecap="round" stroke-linejoin="round"/>
<path d="M357.649 213.738V204.798H361.417C361.977 204.798 362.461 204.898 362.869 205.098C363.277 205.29 363.589 205.57 363.805 205.938C364.021 206.298 364.129 206.726 364.129 207.222C364.129 207.654 364.017 208.05 363.793 208.41C363.577 208.762 363.237 209.042 362.773 209.25V208.65C363.181 208.81 363.513 209.014 363.769 209.262C364.025 209.502 364.209 209.774 364.321 210.078C364.441 210.382 364.501 210.702 364.501 211.038C364.501 211.878 364.225 212.538 363.673 213.018C363.129 213.498 362.381 213.738 361.429 213.738H357.649ZM359.065 212.478H361.537C362.009 212.478 362.385 212.35 362.665 212.094C362.945 211.83 363.085 211.482 363.085 211.05C363.085 210.61 362.945 210.262 362.665 210.006C362.385 209.742 362.009 209.61 361.537 209.61H359.065V212.478ZM359.065 208.362H361.453C361.837 208.362 362.145 208.254 362.377 208.038C362.609 207.814 362.725 207.522 362.725 207.162C362.725 206.802 362.609 206.522 362.377 206.322C362.145 206.122 361.837 206.022 361.453 206.022H359.065V208.362ZM368.957 213.882C368.333 213.882 367.761 213.734 367.241 213.438C366.729 213.142 366.321 212.738 366.017 212.226C365.713 211.714 365.561 211.134 365.561 210.486C365.561 209.83 365.713 209.25 366.017 208.746C366.321 208.234 366.729 207.834 367.241 207.546C367.753 207.25 368.325 207.102 368.957 207.102C369.597 207.102 370.169 207.25 370.673 207.546C371.185 207.834 371.589 208.234 371.885 208.746C372.189 209.25 372.341 209.83 372.341 210.486C372.341 211.142 372.189 211.726 371.885 212.238C371.581 212.75 371.173 213.154 370.661 213.45C370.149 213.738 369.581 213.882 368.957 213.882ZM368.957 212.622C369.341 212.622 369.681 212.53 369.977 212.346C370.273 212.162 370.505 211.91 370.673 211.59C370.849 211.262 370.937 210.894 370.937 210.486C370.937 210.078 370.849 209.714 370.673 209.394C370.505 209.074 370.273 208.822 369.977 208.638C369.681 208.454 369.341 208.362 368.957 208.362C368.581 208.362 368.241 208.454 367.937 208.638C367.641 208.822 367.405 209.074 367.229 209.394C367.061 209.714 366.977 210.078 366.977 210.486C366.977 210.894 367.061 211.262 367.229 211.59C367.405 211.91 367.641 212.162 367.937 212.346C368.241 212.53 368.581 212.622 368.957 212.622ZM376.797 213.882C376.173 213.882 375.601 213.734 375.081 213.438C374.569 213.142 374.161 212.738 373.857 212.226C373.553 211.714 373.401 211.134 373.401 210.486C373.401 209.83 373.553 209.25 373.857 208.746C374.161 208.234 374.569 207.834 375.081 207.546C375.593 207.25 376.165 207.102 376.797 207.102C377.437 207.102 378.009 207.25 378.513 207.546C379.025 207.834 379.429 208.234 379.725 208.746C380.029 209.25 380.181 209.83 380.181 210.486C380.181 211.142 380.029 211.726 379.725 212.238C379.421 212.75 379.013 213.154 378.501 213.45C377.989 213.738 377.421 213.882 376.797 213.882ZM376.797 212.622C377.181 212.622 377.521 212.53 377.817 212.346C378.113 212.162 378.345 211.91 378.513 211.59C378.689 211.262 378.777 210.894 378.777 210.486C378.777 210.078 378.689 209.714 378.513 209.394C378.345 209.074 378.113 208.822 377.817 208.638C377.521 208.454 377.181 208.362 376.797 208.362C376.421 208.362 376.081 208.454 375.777 208.638C375.481 208.822 375.245 209.074 375.069 209.394C374.901 209.714 374.817 210.078 374.817 210.486C374.817 210.894 374.901 211.262 375.069 211.59C375.245 211.91 375.481 212.162 375.777 212.346C376.081 212.53 376.421 212.622 376.797 212.622ZM381.505 213.738V204.654H382.861V210.738L382.333 210.606L385.585 207.246H387.277L384.829 209.85L387.385 213.738H385.825L383.545 210.294L384.349 210.186L382.429 212.226L382.861 211.326V213.738H381.505ZM388.313 213.738V207.246H389.669V213.738H388.313ZM388.313 206.358V204.798H389.669V206.358H388.313ZM391.255 213.738V207.246H392.551V208.518L392.395 208.35C392.555 207.942 392.811 207.634 393.163 207.426C393.515 207.21 393.923 207.102 394.387 207.102C394.867 207.102 395.291 207.206 395.659 207.414C396.027 207.622 396.315 207.91 396.523 208.278C396.731 208.646 396.835 209.07 396.835 209.55V213.738H395.491V209.91C395.491 209.582 395.431 209.306 395.311 209.082C395.191 208.85 395.019 208.674 394.795 208.554C394.579 208.426 394.331 208.362 394.051 208.362C393.771 208.362 393.519 208.426 393.295 208.554C393.079 208.674 392.911 208.85 392.791 209.082C392.671 209.314 392.611 209.59 392.611 209.91V213.738H391.255ZM401.418 216.378C400.946 216.378 400.51 216.302 400.11 216.15C399.71 215.998 399.366 215.786 399.078 215.514C398.79 215.25 398.574 214.938 398.43 214.578L399.678 214.062C399.79 214.366 399.994 214.618 400.29 214.818C400.594 215.018 400.966 215.118 401.406 215.118C401.75 215.118 402.058 215.05 402.33 214.914C402.602 214.786 402.818 214.594 402.978 214.338C403.138 214.09 403.218 213.79 403.218 213.438V211.974L403.458 212.25C403.234 212.666 402.922 212.982 402.522 213.198C402.13 213.414 401.686 213.522 401.19 213.522C400.59 213.522 400.05 213.382 399.57 213.102C399.09 212.822 398.71 212.438 398.43 211.95C398.158 211.462 398.022 210.914 398.022 210.306C398.022 209.69 398.158 209.142 398.43 208.662C398.71 208.182 399.086 207.802 399.558 207.522C400.03 207.242 400.57 207.102 401.178 207.102C401.674 207.102 402.114 207.21 402.498 207.426C402.89 207.634 403.21 207.938 403.458 208.338L403.278 208.674V207.246H404.562V213.438C404.562 213.998 404.426 214.498 404.154 214.938C403.89 215.386 403.522 215.738 403.05 215.994C402.578 216.25 402.034 216.378 401.418 216.378ZM401.346 212.262C401.706 212.262 402.026 212.178 402.306 212.01C402.586 211.834 402.806 211.602 402.966 211.314C403.134 211.018 403.218 210.686 403.218 210.318C403.218 209.95 403.134 209.618 402.966 209.322C402.798 209.026 402.574 208.794 402.294 208.626C402.014 208.45 401.698 208.362 401.346 208.362C400.978 208.362 400.65 208.45 400.362 208.626C400.074 208.794 399.846 209.026 399.678 209.322C399.518 209.61 399.438 209.942 399.438 210.318C399.438 210.678 399.518 211.006 399.678 211.302C399.846 211.598 400.074 211.834 400.362 212.01C400.65 212.178 400.978 212.262 401.346 212.262ZM411.511 213.882C410.951 213.882 410.431 213.778 409.951 213.57C409.471 213.354 409.063 213.062 408.727 212.694C408.391 212.326 408.143 211.902 407.983 211.422L409.183 210.918C409.399 211.47 409.715 211.894 410.131 212.19C410.547 212.486 411.027 212.634 411.571 212.634C411.891 212.634 412.171 212.586 412.411 212.49C412.651 212.386 412.835 212.242 412.963 212.058C413.099 211.874 413.167 211.662 413.167 211.422C413.167 211.094 413.075 210.834 412.891 210.642C412.707 210.45 412.435 210.298 412.075 210.186L410.395 209.658C409.723 209.45 409.211 209.134 408.859 208.71C408.507 208.278 408.331 207.774 408.331 207.198C408.331 206.694 408.455 206.254 408.703 205.878C408.951 205.494 409.291 205.194 409.723 204.978C410.163 204.762 410.663 204.654 411.223 204.654C411.759 204.654 412.247 204.75 412.687 204.942C413.127 205.126 413.503 205.382 413.815 205.71C414.135 206.038 414.367 206.418 414.511 206.85L413.335 207.366C413.159 206.894 412.883 206.53 412.507 206.274C412.139 206.018 411.711 205.89 411.223 205.89C410.927 205.89 410.667 205.942 410.443 206.046C410.219 206.142 410.043 206.286 409.915 206.478C409.795 206.662 409.735 206.878 409.735 207.126C409.735 207.414 409.827 207.67 410.011 207.894C410.195 208.118 410.475 208.286 410.851 208.398L412.411 208.89C413.123 209.106 413.659 209.418 414.019 209.826C414.379 210.226 414.559 210.726 414.559 211.326C414.559 211.822 414.427 212.262 414.163 212.646C413.907 213.03 413.551 213.334 413.095 213.558C412.639 213.774 412.111 213.882 411.511 213.882ZM418.333 213.882C417.845 213.882 417.417 213.774 417.049 213.558C416.681 213.334 416.393 213.026 416.185 212.634C415.985 212.234 415.885 211.774 415.885 211.254V207.246H417.241V211.134C417.241 211.43 417.301 211.69 417.421 211.914C417.541 212.138 417.709 212.314 417.925 212.442C418.141 212.562 418.389 212.622 418.669 212.622C418.957 212.622 419.209 212.558 419.425 212.43C419.641 212.302 419.809 212.122 419.929 211.89C420.057 211.658 420.121 211.386 420.121 211.074V207.246H421.465V213.738H420.181V212.466L420.325 212.634C420.173 213.034 419.921 213.342 419.569 213.558C419.217 213.774 418.805 213.882 418.333 213.882ZM423.048 213.738V207.246H424.344V208.65L424.176 208.434C424.312 207.994 424.56 207.662 424.92 207.438C425.28 207.214 425.692 207.102 426.156 207.102C426.676 207.102 427.136 207.242 427.536 207.522C427.944 207.794 428.216 208.158 428.352 208.614L427.968 208.65C428.16 208.13 428.452 207.742 428.844 207.486C429.244 207.23 429.7 207.102 430.212 207.102C430.66 207.102 431.064 207.206 431.424 207.414C431.792 207.622 432.084 207.91 432.3 208.278C432.516 208.646 432.624 209.066 432.624 209.538V213.738H431.268V209.91C431.268 209.582 431.208 209.306 431.088 209.082C430.976 208.85 430.816 208.674 430.608 208.554C430.408 208.426 430.172 208.362 429.9 208.362C429.628 208.362 429.388 208.426 429.18 208.554C428.972 208.674 428.808 208.85 428.688 209.082C428.568 209.314 428.508 209.59 428.508 209.91V213.738H427.164V209.91C427.164 209.582 427.104 209.306 426.984 209.082C426.872 208.85 426.712 208.674 426.504 208.554C426.304 208.426 426.064 208.362 425.784 208.362C425.512 208.362 425.272 208.426 425.064 208.554C424.856 208.674 424.692 208.85 424.572 209.082C424.46 209.314 424.404 209.59 424.404 209.91V213.738H423.048ZM434.075 213.738V207.246H435.371V208.65L435.203 208.434C435.339 207.994 435.587 207.662 435.947 207.438C436.307 207.214 436.719 207.102 437.183 207.102C437.703 207.102 438.163 207.242 438.563 207.522C438.971 207.794 439.243 208.158 439.379 208.614L438.995 208.65C439.187 208.13 439.479 207.742 439.871 207.486C440.271 207.23 440.727 207.102 441.239 207.102C441.687 207.102 442.091 207.206 442.451 207.414C442.819 207.622 443.111 207.91 443.327 208.278C443.543 208.646 443.651 209.066 443.651 209.538V213.738H442.295V209.91C442.295 209.582 442.235 209.306 442.115 209.082C442.003 208.85 441.843 208.674 441.635 208.554C441.435 208.426 441.199 208.362 440.927 208.362C440.655 208.362 440.415 208.426 440.207 208.554C439.999 208.674 439.835 208.85 439.715 209.082C439.595 209.314 439.535 209.59 439.535 209.91V213.738H438.191V209.91C438.191 209.582 438.131 209.306 438.011 209.082C437.899 208.85 437.739 208.674 437.531 208.554C437.331 208.426 437.091 208.362 436.811 208.362C436.539 208.362 436.299 208.426 436.091 208.554C435.883 208.674 435.719 208.85 435.599 209.082C435.487 209.314 435.431 209.59 435.431 209.91V213.738H434.075ZM447.047 213.882C446.607 213.882 446.219 213.806 445.883 213.654C445.555 213.494 445.299 213.278 445.115 213.006C444.931 212.726 444.839 212.398 444.839 212.022C444.839 211.67 444.915 211.354 445.067 211.074C445.227 210.794 445.471 210.558 445.799 210.366C446.127 210.174 446.539 210.038 447.035 209.958L449.291 209.586V210.654L447.299 211.002C446.939 211.066 446.675 211.182 446.507 211.35C446.339 211.51 446.255 211.718 446.255 211.974C446.255 212.222 446.347 212.426 446.531 212.586C446.723 212.738 446.967 212.814 447.263 212.814C447.631 212.814 447.951 212.734 448.223 212.574C448.503 212.414 448.719 212.202 448.871 211.938C449.023 211.666 449.099 211.366 449.099 211.038V209.37C449.099 209.05 448.979 208.79 448.739 208.59C448.507 208.382 448.195 208.278 447.803 208.278C447.443 208.278 447.127 208.374 446.855 208.566C446.591 208.75 446.395 208.99 446.267 209.286L445.139 208.722C445.259 208.402 445.455 208.122 445.727 207.882C445.999 207.634 446.315 207.442 446.675 207.306C447.043 207.17 447.431 207.102 447.839 207.102C448.351 207.102 448.803 207.198 449.195 207.39C449.595 207.582 449.903 207.85 450.119 208.194C450.343 208.53 450.455 208.922 450.455 209.37V213.738H449.159V212.562L449.435 212.598C449.283 212.862 449.087 213.09 448.847 213.282C448.615 213.474 448.347 213.622 448.043 213.726C447.747 213.83 447.415 213.882 447.047 213.882ZM452.04 213.738V207.246H453.336V208.554L453.216 208.362C453.36 207.938 453.592 207.634 453.912 207.45C454.232 207.258 454.616 207.162 455.064 207.162H455.46V208.398H454.896C454.448 208.398 454.084 208.538 453.804 208.818C453.532 209.09 453.396 209.482 453.396 209.994V213.738H452.04ZM456.964 216.378C456.804 216.378 456.644 216.362 456.484 216.33C456.332 216.306 456.192 216.266 456.064 216.21V215.046C456.16 215.07 456.276 215.09 456.412 215.106C456.548 215.13 456.68 215.142 456.808 215.142C457.184 215.142 457.46 215.058 457.636 214.89C457.82 214.73 457.984 214.482 458.128 214.146L458.56 213.162L458.536 214.302L455.728 207.246H457.18L459.256 212.658H458.764L460.828 207.246H462.292L459.424 214.446C459.272 214.83 459.08 215.166 458.848 215.454C458.624 215.75 458.356 215.978 458.044 216.138C457.74 216.298 457.38 216.378 456.964 216.378Z" fill="#23BB4E"/>
<rect x="472.725" y="208.238" width="65" height="2" fill="#23BB4E"/>
<path d="M564.475 194.738H574.975C580.083 194.738 584.225 198.88 584.225 203.988V214.488C584.225 219.597 580.083 223.738 574.975 223.738H564.475C559.366 223.738 555.225 219.597 555.225 214.488V203.988C555.225 198.88 559.366 194.738 564.475 194.738Z" fill="#23BB4E" stroke="#23BB4E"/>
<path d="M567.324 210.38L569.542 212.22L573.564 206.738" stroke="white" stroke-width="2" stroke-linecap="round" stroke-linejoin="round"/>
<path d="M594.649 213.738V204.798H597.901C598.501 204.798 599.029 204.91 599.485 205.134C599.949 205.35 600.309 205.67 600.565 206.094C600.821 206.51 600.949 207.01 600.949 207.594C600.949 208.17 600.817 208.666 600.553 209.082C600.297 209.498 599.941 209.818 599.485 210.042C599.029 210.266 598.501 210.378 597.901 210.378H596.065V213.738H594.649ZM596.065 209.118H597.937C598.257 209.118 598.537 209.054 598.777 208.926C599.017 208.798 599.205 208.622 599.341 208.398C599.477 208.166 599.545 207.894 599.545 207.582C599.545 207.27 599.477 207.002 599.341 206.778C599.205 206.546 599.017 206.37 598.777 206.25C598.537 206.122 598.257 206.058 597.937 206.058H596.065V209.118ZM603.797 213.882C603.357 213.882 602.969 213.806 602.633 213.654C602.305 213.494 602.049 213.278 601.865 213.006C601.681 212.726 601.589 212.398 601.589 212.022C601.589 211.67 601.665 211.354 601.817 211.074C601.977 210.794 602.221 210.558 602.549 210.366C602.877 210.174 603.289 210.038 603.785 209.958L606.041 209.586V210.654L604.049 211.002C603.689 211.066 603.425 211.182 603.257 211.35C603.089 211.51 603.005 211.718 603.005 211.974C603.005 212.222 603.097 212.426 603.281 212.586C603.473 212.738 603.717 212.814 604.013 212.814C604.381 212.814 604.701 212.734 604.973 212.574C605.253 212.414 605.469 212.202 605.621 211.938C605.773 211.666 605.849 211.366 605.849 211.038V209.37C605.849 209.05 605.729 208.79 605.489 208.59C605.257 208.382 604.945 208.278 604.553 208.278C604.193 208.278 603.877 208.374 603.605 208.566C603.341 208.75 603.145 208.99 603.017 209.286L601.889 208.722C602.009 208.402 602.205 208.122 602.477 207.882C602.749 207.634 603.065 207.442 603.425 207.306C603.793 207.17 604.181 207.102 604.589 207.102C605.101 207.102 605.553 207.198 605.945 207.39C606.345 207.582 606.653 207.85 606.869 208.194C607.093 208.53 607.205 208.922 607.205 209.37V213.738H605.909V212.562L606.185 212.598C606.033 212.862 605.837 213.09 605.597 213.282C605.365 213.474 605.097 213.622 604.793 213.726C604.497 213.83 604.165 213.882 603.797 213.882ZM609.366 216.378C609.206 216.378 609.046 216.362 608.886 216.33C608.734 216.306 608.594 216.266 608.466 216.21V215.046C608.562 215.07 608.678 215.09 608.814 215.106C608.95 215.13 609.082 215.142 609.21 215.142C609.586 215.142 609.862 215.058 610.038 214.89C610.222 214.73 610.386 214.482 610.53 214.146L610.962 213.162L610.938 214.302L608.13 207.246H609.582L611.658 212.658H611.166L613.23 207.246H614.694L611.826 214.446C611.674 214.83 611.482 215.166 611.25 215.454C611.026 215.75 610.758 215.978 610.446 216.138C610.142 216.298 609.782 216.378 609.366 216.378ZM615.622 213.738V207.246H616.918V208.65L616.75 208.434C616.886 207.994 617.134 207.662 617.494 207.438C617.854 207.214 618.266 207.102 618.73 207.102C619.25 207.102 619.71 207.242 620.11 207.522C620.518 207.794 620.79 208.158 620.926 208.614L620.542 208.65C620.734 208.13 621.026 207.742 621.418 207.486C621.818 207.23 622.274 207.102 622.786 207.102C623.234 207.102 623.638 207.206 623.998 207.414C624.366 207.622 624.658 207.91 624.874 208.278C625.09 208.646 625.198 209.066 625.198 209.538V213.738H623.842V209.91C623.842 209.582 623.782 209.306 623.662 209.082C623.55 208.85 623.39 208.674 623.182 208.554C622.982 208.426 622.746 208.362 622.474 208.362C622.202 208.362 621.962 208.426 621.754 208.554C621.546 208.674 621.382 208.85 621.262 209.082C621.142 209.314 621.082 209.59 621.082 209.91V213.738H619.738V209.91C619.738 209.582 619.678 209.306 619.558 209.082C619.446 208.85 619.286 208.674 619.078 208.554C618.878 208.426 618.638 208.362 618.358 208.362C618.086 208.362 617.846 208.426 617.638 208.554C617.43 208.674 617.266 208.85 617.146 209.082C617.034 209.314 616.978 209.59 616.978 209.91V213.738H615.622ZM629.697 213.882C629.049 213.882 628.473 213.734 627.969 213.438C627.473 213.134 627.085 212.726 626.805 212.214C626.525 211.694 626.385 211.114 626.385 210.474C626.385 209.818 626.525 209.238 626.805 208.734C627.093 208.23 627.477 207.834 627.957 207.546C628.437 207.25 628.981 207.102 629.589 207.102C630.077 207.102 630.513 207.186 630.897 207.354C631.281 207.522 631.605 207.754 631.869 208.05C632.133 208.338 632.333 208.67 632.469 209.046C632.613 209.422 632.685 209.822 632.685 210.246C632.685 210.35 632.681 210.458 632.673 210.57C632.665 210.682 632.649 210.786 632.625 210.882H627.453V209.802H631.857L631.209 210.294C631.289 209.902 631.261 209.554 631.125 209.25C630.997 208.938 630.797 208.694 630.525 208.518C630.261 208.334 629.949 208.242 629.589 208.242C629.229 208.242 628.909 208.334 628.629 208.518C628.349 208.694 628.133 208.95 627.981 209.286C627.829 209.614 627.769 210.014 627.801 210.486C627.761 210.926 627.821 211.31 627.981 211.638C628.149 211.966 628.381 212.222 628.677 212.406C628.981 212.59 629.325 212.682 629.709 212.682C630.101 212.682 630.433 212.594 630.705 212.418C630.985 212.242 631.205 212.014 631.365 211.734L632.469 212.274C632.341 212.578 632.141 212.854 631.869 213.102C631.605 213.342 631.285 213.534 630.909 213.678C630.541 213.814 630.137 213.882 629.697 213.882ZM634.009 213.738V207.246H635.305V208.518L635.149 208.35C635.309 207.942 635.565 207.634 635.917 207.426C636.269 207.21 636.677 207.102 637.141 207.102C637.621 207.102 638.045 207.206 638.413 207.414C638.781 207.622 639.069 207.91 639.277 208.278C639.485 208.646 639.589 209.07 639.589 209.55V213.738H638.245V209.91C638.245 209.582 638.185 209.306 638.065 209.082C637.945 208.85 637.773 208.674 637.549 208.554C637.333 208.426 637.085 208.362 636.805 208.362C636.525 208.362 636.273 208.426 636.049 208.554C635.833 208.674 635.665 208.85 635.545 209.082C635.425 209.314 635.365 209.59 635.365 209.91V213.738H634.009ZM643.848 213.81C643.168 213.81 642.64 213.618 642.264 213.234C641.888 212.85 641.7 212.31 641.7 211.614V208.47H640.56V207.246H640.74C641.044 207.246 641.28 207.158 641.448 206.982C641.616 206.806 641.7 206.566 641.7 206.262V205.758H643.056V207.246H644.532V208.47H643.056V211.554C643.056 211.778 643.092 211.97 643.164 212.13C643.236 212.282 643.352 212.402 643.512 212.49C643.672 212.57 643.88 212.61 644.136 212.61C644.2 212.61 644.272 212.606 644.352 212.598C644.432 212.59 644.508 212.582 644.58 212.574V213.738C644.468 213.754 644.344 213.77 644.208 213.786C644.072 213.802 643.952 213.81 643.848 213.81Z" fill="#23BB4E"/>
<rect x="661.725" y="208.238" width="65" height="2" fill="#222222" fill-opacity="0.3"/>
</g>
</g>
<rect x="573.725" y="73.1094" width="69" height="33" rx="16.5" fill="#23BB4E"/>
<path d="M589.23 94.1094V85.1694H595.122V86.4294H590.646V88.9974H594.882V90.2574H590.646V92.8494H595.122V94.1094H589.23ZM594.938 94.1094L597.206 90.8574L594.938 87.6174H596.534L598.394 90.3294H597.626L599.486 87.6174H601.082L598.802 90.8574L601.07 94.1094H599.474L597.638 91.3854H598.382L596.534 94.1094H594.938ZM601.287 96.5094V87.6174H602.583V88.9614L602.427 88.6494C602.667 88.2814 602.987 87.9934 603.387 87.7854C603.787 87.5774 604.243 87.4734 604.755 87.4734C605.371 87.4734 605.923 87.6214 606.411 87.9174C606.907 88.2134 607.295 88.6174 607.575 89.1294C607.863 89.6414 608.007 90.2174 608.007 90.8574C608.007 91.4974 607.863 92.0734 607.575 92.5854C607.295 93.0974 606.911 93.5054 606.423 93.8094C605.935 94.1054 605.379 94.2534 604.755 94.2534C604.251 94.2534 603.791 94.1494 603.375 93.9414C602.967 93.7334 602.651 93.4334 602.427 93.0414L602.643 92.7894V96.5094H601.287ZM604.623 92.9934C605.007 92.9934 605.347 92.9014 605.643 92.7174C605.939 92.5334 606.171 92.2814 606.339 91.9614C606.515 91.6334 606.603 91.2654 606.603 90.8574C606.603 90.4494 606.515 90.0854 606.339 89.7654C606.171 89.4454 605.939 89.1934 605.643 89.0094C605.347 88.8254 605.007 88.7334 604.623 88.7334C604.247 88.7334 603.907 88.8254 603.603 89.0094C603.307 89.1934 603.071 89.4454 602.895 89.7654C602.727 90.0854 602.643 90.4494 602.643 90.8574C602.643 91.2654 602.727 91.6334 602.895 91.9614C603.071 92.2814 603.307 92.5334 603.603 92.7174C603.907 92.9014 604.247 92.9934 604.623 92.9934ZM608.606 94.1094V85.0254H609.962V94.1094H608.606ZM613.96 94.2534C613.336 94.2534 612.764 94.1054 612.244 93.8094C611.732 93.5134 611.324 93.1094 611.02 92.5974C610.716 92.0854 610.564 91.5054 610.564 90.8574C610.564 90.2014 610.716 89.6214 611.02 89.1174C611.324 88.6054 611.732 88.2054 612.244 87.9174C612.756 87.6214 613.328 87.4734 613.96 87.4734C614.6 87.4734 615.172 87.6214 615.676 87.9174C616.188 88.2054 616.592 88.6054 616.888 89.1174C617.192 89.6214 617.344 90.2014 617.344 90.8574C617.344 91.5134 617.192 92.0974 616.888 92.6094C616.584 93.1214 616.176 93.5254 615.664 93.8214C615.152 94.1094 614.584 94.2534 613.96 94.2534ZM613.96 92.9934C614.344 92.9934 614.684 92.9014 614.98 92.7174C615.276 92.5334 615.508 92.2814 615.676 91.9614C615.852 91.6334 615.94 91.2654 615.94 90.8574C615.94 90.4494 615.852 90.0854 615.676 89.7654C615.508 89.4454 615.276 89.1934 614.98 89.0094C614.684 88.8254 614.344 88.7334 613.96 88.7334C613.584 88.7334 613.244 88.8254 612.94 89.0094C612.644 89.1934 612.408 89.4454 612.232 89.7654C612.064 90.0854 611.98 90.4494 611.98 90.8574C611.98 91.2654 612.064 91.6334 612.232 91.9614C612.408 92.2814 612.644 92.5334 612.94 92.7174C613.244 92.9014 613.584 92.9934 613.96 92.9934ZM617.948 94.1094V87.6174H619.244V88.9254L619.124 88.7334C619.268 88.3094 619.5 88.0054 619.82 87.8214C620.14 87.6294 620.524 87.5334 620.972 87.5334H621.368V88.7694H620.804C620.356 88.7694 619.992 88.9094 619.712 89.1894C619.44 89.4614 619.304 89.8534 619.304 90.3654V94.1094H617.948ZM624.623 94.2534C623.975 94.2534 623.399 94.1054 622.895 93.8094C622.399 93.5054 622.011 93.0974 621.731 92.5854C621.451 92.0654 621.311 91.4854 621.311 90.8454C621.311 90.1894 621.451 89.6094 621.731 89.1054C622.019 88.6014 622.403 88.2054 622.883 87.9174C623.363 87.6214 623.907 87.4734 624.515 87.4734C625.003 87.4734 625.439 87.5574 625.823 87.7254C626.207 87.8934 626.531 88.1254 626.795 88.4214C627.059 88.7094 627.259 89.0414 627.395 89.4174C627.539 89.7934 627.611 90.1934 627.611 90.6174C627.611 90.7214 627.607 90.8294 627.599 90.9414C627.591 91.0534 627.575 91.1574 627.551 91.2534H622.379V90.1734H626.783L626.135 90.6654C626.215 90.2734 626.187 89.9254 626.051 89.6214C625.923 89.3094 625.723 89.0654 625.451 88.8894C625.187 88.7054 624.875 88.6134 624.515 88.6134C624.155 88.6134 623.835 88.7054 623.555 88.8894C623.275 89.0654 623.059 89.3214 622.907 89.6574C622.755 89.9854 622.695 90.3854 622.727 90.8574C622.687 91.2974 622.747 91.6814 622.907 92.0094C623.075 92.3374 623.307 92.5934 623.603 92.7774C623.907 92.9614 624.251 93.0534 624.635 93.0534C625.027 93.0534 625.359 92.9654 625.631 92.7894C625.911 92.6134 626.131 92.3854 626.291 92.1054L627.395 92.6454C627.267 92.9494 627.067 93.2254 626.795 93.4734C626.531 93.7134 626.211 93.9054 625.835 94.0494C625.467 94.1854 625.063 94.2534 624.623 94.2534Z" fill="white"/>
</g>
<rect x="105.225" y="61.5" width="583" height="355" rx="11.5" stroke="#E9EBF1"/>
</g>
<defs>
<filter id="filter0_dd_4800_24494" x="-0.000389099" y="-30.6344" width="793.45" height="565.45" filterUnits="userSpaceOnUse" color-interpolation-filters="sRGB">
<feFlood flood-opacity="0" result="BackgroundImageFix"/>
<feColorMatrix in="SourceAlpha" type="matrix" values="0 0 0 0 0 0 0 0 0 0 0 0 0 0 0 0 0 0 127 0" result="hardAlpha"/>
<feMorphology radius="4.36353" operator="dilate" in="SourceAlpha" result="effect1_dropShadow_4800_24494"/>
<feOffset/>
<feComposite in2="hardAlpha" operator="out"/>
<feColorMatrix type="matrix" values="0 0 0 0 1 0 0 0 0 1 0 0 0 0 1 0 0 0 1 0"/>
<feBlend mode="normal" in2="BackgroundImageFix" result="effect1_dropShadow_4800_24494"/>
<feColorMatrix in="SourceAlpha" type="matrix" values="0 0 0 0 0 0 0 0 0 0 0 0 0 0 0 0 0 0 127 0" result="hardAlpha"/>
<feOffset dy="13.0906"/>
<feGaussianBlur stdDeviation="52.3625"/>
<feComposite in2="hardAlpha" operator="out"/>
<feColorMatrix type="matrix" values="0 0 0 0 0.0235294 0 0 0 0 0.0431373 0 0 0 0 0.0745098 0 0 0 0.08 0"/>
<feBlend mode="normal" in2="effect1_dropShadow_4800_24494" result="effect2_dropShadow_4800_24494"/>
<feBlend mode="normal" in="SourceGraphic" in2="effect2_dropShadow_4800_24494" result="shape"/>
</filter>
<filter id="filter1_d_4800_24494" x="318.364" y="76.503" width="244.466" height="28.1089" filterUnits="userSpaceOnUse" color-interpolation-filters="sRGB">
<feFlood flood-opacity="0" result="BackgroundImageFix"/>
<feColorMatrix in="SourceAlpha" type="matrix" values="0 0 0 0 0 0 0 0 0 0 0 0 0 0 0 0 0 0 127 0" result="hardAlpha"/>
<feOffset dy="0.245"/>
<feGaussianBlur stdDeviation="0.245"/>
<feComposite in2="hardAlpha" operator="out"/>
<feColorMatrix type="matrix" values="0 0 0 0 0.0431373 0 0 0 0 0.0509804 0 0 0 0 0.054902 0 0 0 0.01 0"/>
<feBlend mode="normal" in2="BackgroundImageFix" result="effect1_dropShadow_4800_24494"/>
<feBlend mode="normal" in="SourceGraphic" in2="effect1_dropShadow_4800_24494" result="shape"/>
</filter>
<clipPath id="clip0_4800_24494">
<rect width="584" height="356" fill="white" transform="translate(104.725 61)"/>
</clipPath>
</defs>
</svg>
