<svg width="64" height="64" viewBox="0 0 64 64" fill="none" xmlns="http://www.w3.org/2000/svg">
<path d="M23.9997 53.332H15.9997C13.1707 53.332 10.4576 52.2082 8.4572 50.2078C6.45681 48.2074 5.33301 45.4943 5.33301 42.6654V18.6654C5.33301 15.8364 6.45681 13.1233 8.4572 11.1229C10.4576 9.1225 13.1707 7.9987 15.9997 7.9987H45.333C48.162 7.9987 50.8751 9.1225 52.8755 11.1229C54.8759 13.1233 55.9997 15.8364 55.9997 18.6654V26.6654M21.333 5.33203V10.6654M39.9997 5.33203V10.6654M5.33301 21.332H55.9997M49.333 41.7134L45.333 45.7134" stroke="#23BB4E" stroke-width="3" stroke-linecap="round" stroke-linejoin="round"/>
<path d="M45.3343 58.6667C52.6981 58.6667 58.6676 52.6971 58.6676 45.3333C58.6676 37.9695 52.6981 32 45.3343 32C37.9705 32 32.001 37.9695 32.001 45.3333C32.001 52.6971 37.9705 58.6667 45.3343 58.6667Z" stroke="#23BB4E" stroke-width="3" stroke-linecap="round" stroke-linejoin="round"/>
</svg>
