<svg width="45" height="45" viewBox="0 0 45 45" fill="none" xmlns="http://www.w3.org/2000/svg">
<path d="M20.614 8.59755C22.4744 8.50005 24.102 9.77712 24.4888 11.5398L24.5559 12.7334C24.463 13.6231 24.0564 14.4506 23.4089 15.0677C22.7614 15.6849 21.9154 16.0513 21.0223 16.1015C20.0277 16.1536 19.053 15.8095 18.3115 15.1446C17.5701 14.4797 17.1223 13.548 17.0662 12.5537C17.0141 11.5591 17.3581 10.5844 18.0231 9.84289C18.688 9.10143 19.6196 8.65364 20.614 8.59755Z" fill="#23BB4E"/>
<path d="M27.6781 42.8052L27.3155 35.8847C27.2558 34.7463 26.2784 33.8662 25.14 33.9259L20.2567 34.1818C19.1182 34.2415 18.2524 35.2031 18.312 36.3415L18.6755 43.277L14.1817 43.5125L13.8676 37.5207C13.8245 36.6969 13.4557 35.9652 12.8874 35.4392C12.3049 34.929 11.5386 34.6387 10.7148 34.6819C9.92019 34.7235 9.17472 35.0791 8.64233 35.6704C8.10993 36.2616 7.83423 37.0402 7.87587 37.8348L8.18989 43.8265L3.69605 44.062L2.28298 17.099C1.8857 17.1199 1.49643 16.982 1.20078 16.7158C0.905142 16.4496 0.727356 16.0769 0.706535 15.6796C0.685715 15.2823 0.823566 14.8931 1.08976 14.5974C1.35596 14.3018 1.7287 14.124 2.12598 14.1032L9.6157 13.7106L9.16038 5.02256C9.15514 4.9227 9.1544 4.8226 9.15816 4.72227L9.14467 4.72298C8.3208 4.76615 7.6114 4.1274 7.56823 3.30354C7.52505 2.47967 8.1638 1.77026 8.98767 1.72709L32.9548 0.471024C33.7786 0.427846 34.488 1.06659 34.5312 1.89046C34.5744 2.71433 33.9357 3.42374 33.1118 3.46691L33.0983 3.46762C33.1125 3.56701 33.1223 3.66664 33.1275 3.7665L33.5828 12.4546L41.0725 12.0621C41.4698 12.0412 41.8591 12.1791 42.1547 12.4453C42.4504 12.7115 42.6282 13.0842 42.649 13.4815C42.6698 13.8788 42.5319 14.2681 42.2658 14.5637C41.9996 14.8593 41.6268 15.0371 41.2295 15.0579L42.6426 42.0209L27.6781 42.8052ZM25.8158 8.41554C25.764 7.4269 26.1032 6.4478 26.7703 5.70687C26.8981 5.56499 26.7799 5.31583 26.5844 5.31106L23.2148 5.50267C23.1684 5.50254 23.1232 5.51672 23.0852 5.54326C23.0473 5.5698 23.0184 5.60742 23.0026 5.65097C22.9868 5.69452 22.9849 5.74188 22.997 5.78659C23.0091 5.8313 23.0348 5.87118 23.0704 5.90077C23.7924 6.55088 24.2425 7.45856 24.3139 8.41914C23.5382 7.72918 22.5756 7.28424 21.5475 7.14039C20.5193 6.99654 19.4716 7.1602 18.5363 7.61077C17.601 8.06133 16.82 8.77864 16.2917 9.67231C15.7634 10.566 15.5114 11.596 15.5674 12.6327C15.6444 14.1007 16.3134 15.4024 17.3665 16.2935L15.0297 16.416C14.6103 16.438 14.2988 16.7998 14.32 17.2042C14.342 17.6237 14.7038 17.9351 15.1082 17.9139L21.0992 17.585C21.3539 17.5716 21.6077 17.5433 21.845 17.4858C22.9538 17.2692 23.9624 16.6987 24.7193 15.8601C25.4763 15.0214 25.9407 13.9598 26.0429 12.8347L26.0623 12.8337L26.0563 12.7183C26.0769 12.501 26.0803 12.279 26.0665 12.0524C26.051 11.8251 26.0226 11.599 25.9814 11.3749L25.8158 8.41554ZM15.4865 25.4194L19.9953 25.1831C20.3998 25.1619 20.7121 24.8151 20.7051 24.3949L20.5473 21.384C20.5253 20.9646 20.1635 20.6531 19.7591 20.6743L15.2502 20.9106C14.8308 20.9326 14.5193 21.2944 14.5405 21.6988L14.6983 24.7097C14.7203 25.1291 15.0821 25.4406 15.4865 25.4194ZM28.983 24.7121C29.3875 24.6909 29.6997 24.3441 29.6927 23.9239L29.5349 20.913C29.513 20.4936 29.1512 20.1821 28.7467 20.2033L24.2379 20.4396C23.8185 20.4616 23.507 20.8234 23.5282 21.2278L23.686 24.2387C23.708 24.6581 24.0698 24.9696 24.4742 24.9484L28.983 24.7121ZM15.8006 31.4112L20.3094 31.1749C20.7138 31.1537 21.0261 30.8069 21.0191 30.3867L20.8613 27.3758C20.8393 26.9564 20.4775 26.6449 20.0731 26.6661L15.5643 26.9024C15.1448 26.9244 14.8333 27.2862 14.8545 27.6906L15.0123 30.7015C15.0343 31.1209 15.3961 31.4324 15.8006 31.4112ZM29.297 30.7039C29.7015 30.6827 30.0138 30.3359 30.0068 29.9157L29.849 26.9048C29.827 26.4854 29.4652 26.1739 29.0607 26.1951L24.5519 26.4314C24.1325 26.4534 23.821 26.8152 23.8422 27.2196L24 30.2305C24.022 30.6499 24.3838 30.9614 24.7882 30.9402L29.297 30.7039ZM8.08253 30.3136C8.57685 30.2877 8.9601 29.8621 8.94839 29.352L8.57314 22.1918C8.54645 21.6825 8.12081 21.2993 7.61151 21.326L4.94517 21.4657C4.43586 21.4924 4.05262 21.918 4.07931 22.4273L4.45456 29.5875C4.48125 30.0968 4.90689 30.4801 5.41619 30.4534L8.08253 30.3136ZM39.5394 28.6651C40.0337 28.6391 40.4169 28.2135 40.4052 27.7034L40.03 20.5432C40.0033 20.0339 39.5776 19.6507 39.0683 19.6774L36.402 19.8171C35.8927 19.8438 35.5094 20.2695 35.5361 20.7788L35.9114 27.9389C35.9381 28.4482 36.3637 28.8315 36.873 28.8048L39.5394 28.6651Z" fill="#23BB4E"/>
<path d="M12.6833 43.5914L12.648 42.9173C12.6245 42.4679 12.2303 42.1131 11.781 42.1366L10.4328 42.2073C9.98342 42.2308 9.62856 42.6249 9.65211 43.0743L9.68744 43.7484L12.6833 43.5914ZM10.1224 37.7173C9.70297 37.7393 9.35615 37.4271 9.33417 37.0076C9.31219 36.5882 9.62447 36.2414 10.0439 36.2194L11.5418 36.1409C11.9613 36.1189 12.3081 36.4312 12.3301 36.8506C12.352 37.27 12.0398 37.6169 11.6203 37.6388L10.1224 37.7173Z" fill="#23BB4E"/>
</svg>
