<svg width="51" height="51" viewBox="0 0 51 51" fill="none" xmlns="http://www.w3.org/2000/svg">
<g clip-path="url(#clip0_6047_5147)">
<path d="M44.2968 45.2525L42.5697 12.2978L33.582 12.7688L33.111 3.78113L6.14803 5.1942L8.34614 47.1366L2.35436 47.4507L2.51137 50.4465L23.4826 49.3475L23.0116 40.3598L29.0033 40.0458L29.4744 49.0335L50.4456 47.9344L50.2886 44.9385L44.2968 45.2525ZM19.7017 34.5251L13.7099 34.8391L13.3959 28.8473L19.3876 28.5333L19.7017 34.5251ZM19.2306 25.5374L13.2389 25.8514L12.9248 19.8596L18.9166 19.5456L19.2306 25.5374ZM18.7596 16.5497L12.7678 16.8637L12.4538 10.872L18.4456 10.5579L18.7596 16.5497ZM28.6893 34.054L22.6975 34.368L22.3835 28.3763L28.3753 28.0623L28.6893 34.054ZM28.2183 25.0664L22.2265 25.3804L21.9125 19.3886L27.9043 19.0746L28.2183 25.0664ZM27.7473 16.0787L21.7555 16.3927L21.4415 10.4009L27.4333 10.0869L27.7473 16.0787ZM40.6729 33.426L34.6811 33.74L34.3671 27.7482L40.3589 27.4342L40.6729 33.426ZM40.2019 24.4383L34.2101 24.7524L33.8961 18.7606L39.8878 18.4466L40.2019 24.4383Z" fill="#23BB4E"/>
</g>
<defs>
<clipPath id="clip0_6047_5147">
<rect width="48" height="48" fill="white" transform="translate(0 2.51213) rotate(-3)"/>
</clipPath>
</defs>
</svg>
