<svg width="424" height="321" viewBox="0 0 424 321" fill="none" xmlns="http://www.w3.org/2000/svg">
<path d="M390.551 266.698C390.461 266.698 391.864 261.22 391.994 260.882C393.526 256.989 399.058 250.264 404.222 250.388C405.08 250.429 405.92 250.632 406.685 250.983C407.45 251.335 408.123 251.826 408.661 252.427C409.2 253.027 409.59 253.722 409.808 254.467C410.025 255.212 410.064 255.989 409.923 256.748C409.455 259.982 406.122 262.681 403.127 264.213C399.605 266.012 390.561 266.698 390.551 266.698Z" fill="#222222"/>
<path d="M391.127 244.411C391.037 244.411 393.345 239.174 393.534 238.862C395.713 235.21 402.31 229.313 407.394 230.141C408.235 230.299 409.03 230.613 409.726 231.064C410.422 231.514 411.005 232.091 411.436 232.757C411.867 233.422 412.136 234.161 412.227 234.926C412.317 235.691 412.227 236.465 411.961 237.196C410.966 240.34 407.195 242.541 404.001 243.654C400.191 244.964 391.137 244.411 391.127 244.411Z" fill="#222222"/>
<path d="M397.614 219.638C397.515 219.638 399.823 214.401 400.012 214.089C402.191 210.446 408.798 204.549 413.882 205.368C414.723 205.527 415.518 205.842 416.214 206.293C416.91 206.745 417.492 207.323 417.922 207.989C418.352 208.656 418.62 209.396 418.709 210.161C418.798 210.927 418.706 211.7 418.439 212.432C417.444 215.567 413.673 217.777 410.479 218.89C406.679 220.19 397.614 219.638 397.614 219.638Z" fill="#222222"/>
<path d="M402.46 196.017C402.361 196.017 404.669 190.779 404.858 190.458C407.037 186.815 413.644 180.918 418.728 181.747C419.569 181.904 420.363 182.218 421.06 182.669C421.756 183.12 422.339 183.696 422.769 184.362C423.2 185.027 423.47 185.767 423.56 186.532C423.651 187.297 423.56 188.07 423.295 188.802C422.3 191.946 418.519 194.146 415.335 195.26C411.524 196.56 402.46 196.017 402.46 196.017Z" fill="#222222"/>
<path d="M400.401 175.483C400.302 175.483 400.988 169.907 401.078 169.56C402.073 165.525 406.729 158.274 411.883 157.873C412.741 157.827 413.599 157.943 414.403 158.214C415.206 158.485 415.937 158.904 416.548 159.444C417.159 159.984 417.636 160.633 417.949 161.35C418.261 162.066 418.401 162.833 418.361 163.601C418.361 166.87 415.376 169.889 412.57 171.715C409.306 173.835 400.401 175.483 400.401 175.483Z" fill="#222222"/>
<path d="M388.043 266.092C388.133 266.092 387.138 260.551 387.048 260.213C385.804 256.231 380.78 249.194 375.616 249.016C374.756 249.007 373.904 249.161 373.115 249.467C372.326 249.773 371.618 250.224 371.037 250.791C370.456 251.359 370.015 252.029 369.743 252.759C369.47 253.489 369.373 254.263 369.457 255.029C369.686 258.289 372.82 261.175 375.695 262.876C379.058 264.88 388.033 266.092 388.043 266.092Z" fill="#222222"/>
<path d="M390.769 241.311C390.869 241.311 388.938 235.967 388.779 235.628C386.869 231.86 380.71 225.589 375.576 226.115C374.725 226.224 373.91 226.492 373.182 226.901C372.455 227.311 371.832 227.853 371.354 228.493C370.876 229.132 370.554 229.855 370.409 230.613C370.264 231.371 370.299 232.148 370.512 232.894C371.288 236.083 374.879 238.514 378.004 239.806C381.685 241.329 390.759 241.311 390.769 241.311Z" fill="#222222"/>
<path d="M396.937 217.957C397.027 217.957 395.107 212.612 394.947 212.283C393.047 208.515 386.888 202.244 381.754 202.769C380.903 202.877 380.088 203.144 379.36 203.553C378.632 203.961 378.009 204.502 377.53 205.141C377.052 205.78 376.728 206.501 376.582 207.259C376.435 208.017 376.469 208.794 376.68 209.539C377.466 212.737 381.048 215.16 384.182 216.46C387.853 217.975 396.927 217.957 396.937 217.957Z" fill="#222222"/>
<path d="M401.446 196.222C401.545 196.222 399.615 190.878 399.456 190.539C397.546 186.78 391.397 180.509 386.253 181.035C385.402 181.142 384.587 181.409 383.859 181.818C383.132 182.227 382.509 182.768 382.031 183.407C381.553 184.046 381.231 184.768 381.086 185.525C380.941 186.283 380.976 187.06 381.188 187.805C381.964 191.003 385.556 193.425 388.69 194.717C392.362 196.24 401.446 196.222 401.446 196.222Z" fill="#222222"/>
<path d="M400.211 176.152C400.311 176.152 397.744 171.013 397.535 170.701C395.177 167.138 388.292 161.517 383.247 162.551C382.415 162.741 381.637 163.087 380.964 163.566C380.291 164.044 379.738 164.644 379.342 165.327C378.945 166.009 378.714 166.759 378.664 167.527C378.613 168.295 378.744 169.064 379.048 169.784C380.212 172.874 384.073 174.941 387.346 175.912C391.187 177.061 400.211 176.152 400.211 176.152Z" fill="#222222"/>
<path d="M394.778 158.39C394.858 158.39 395.226 152.805 395.206 152.449C394.938 148.316 391.724 140.477 386.719 139.31C385.882 139.137 385.014 139.124 384.171 139.271C383.328 139.419 382.529 139.723 381.826 140.165C381.123 140.607 380.532 141.176 380.091 141.836C379.65 142.497 379.369 143.232 379.267 143.996C378.71 147.229 381.078 150.65 383.476 152.903C386.291 155.469 394.768 158.382 394.778 158.39Z" fill="#222222"/>
<path d="M389.734 296.628C389.734 296.628 389.406 294.268 389.008 290.17C388.61 286.073 388.152 280.212 387.944 273.166C387.834 269.603 387.794 265.826 387.874 261.782C387.874 259.751 387.993 257.72 388.083 255.546C388.162 254.495 388.252 253.435 388.332 252.357C388.411 251.28 388.61 250.175 388.74 249.07C389.421 244.574 390.374 240.113 391.595 235.709C392.819 231.211 394.212 226.695 395.575 222.187C396.938 217.68 398.281 213.173 399.336 208.692C400.409 204.317 401.13 199.879 401.495 195.411C401.751 191.229 401.591 187.035 401.017 182.878C400.546 179.111 399.825 175.372 398.858 171.681C397.983 168.27 396.958 165.188 396.023 162.471C395.087 159.754 394.122 157.42 393.326 155.505C391.705 151.675 390.6 149.555 390.6 149.555C390.6 149.555 391.754 151.657 393.466 155.452C394.321 157.349 395.306 159.674 396.341 162.373C397.376 165.072 398.45 168.145 399.406 171.556C400.48 175.221 401.314 178.939 401.903 182.691C402.588 186.89 402.854 191.135 402.699 195.375C402.433 199.904 401.811 204.411 400.838 208.862C399.843 213.404 398.649 217.965 397.386 222.508C396.122 227.051 394.799 231.603 393.694 236.056C392.598 240.413 391.767 244.82 391.207 249.258C391.108 250.335 390.928 251.36 390.889 252.446C390.849 253.533 390.769 254.593 390.71 255.644C390.71 257.675 390.64 259.777 390.66 261.764C390.66 265.763 390.809 269.54 391.008 273.023C391.376 279.998 392.003 285.797 392.471 289.841C392.938 293.885 393.336 296.165 393.336 296.165C393.371 296.376 393.359 296.591 393.3 296.798C393.242 297.005 393.139 297.2 392.997 297.371C392.854 297.542 392.676 297.687 392.471 297.796C392.267 297.906 392.04 297.978 391.804 298.009C391.568 298.04 391.328 298.029 391.097 297.977C390.866 297.925 390.648 297.832 390.457 297.705C390.266 297.578 390.104 297.418 389.982 297.234C389.86 297.051 389.779 296.848 389.744 296.637V296.628H389.734Z" fill="#222222"/>
<path d="M378.671 287.426H403.476V292.022H401.316L396.839 317.106H385.317L380.83 292.022H378.671V287.426Z" fill="#222222" stroke="#222222" stroke-linecap="round" stroke-linejoin="round"/>
<path d="M215.227 304.2C215.227 304.2 214.371 308.717 214.998 309.732C215.625 310.748 216.63 312.084 216.63 312.084H224.53L224.958 309.901C226.047 310.984 227.384 311.844 228.878 312.422C230.977 313.09 233.007 312.422 235.465 312.591C237.544 312.734 242.429 312.591 242.429 312.591L242.29 310.231L228.032 304.512L222.928 300.949C222.928 300.949 218.451 304.566 215.227 304.2Z" fill="#222222" stroke="#222222" stroke-linecap="round" stroke-linejoin="round"/>
<path d="M156.384 304.2C156.384 304.2 157.737 307.879 157.239 308.886C156.742 309.892 155.926 312.084 155.926 312.084H148.036L147.339 309.901C146.379 310.989 145.14 311.853 143.728 312.422C141.738 313.09 139.588 312.422 137.161 312.591C135.101 312.734 130.196 312.591 130.196 312.591L130.057 310.231L143.618 304.512L149.001 301.84C149.001 301.84 153.2 304.566 156.384 304.2Z" fill="#222222" stroke="#222222" stroke-linecap="round" stroke-linejoin="round"/>
<path d="M219.486 130.537C219.486 130.537 222.749 168.359 223.884 186.441C225.018 204.524 225.545 212.728 225.674 225.457C225.804 238.186 226.431 263.341 226.431 272.792C226.442 282.44 225.74 292.078 224.331 301.643L214.789 306.195C214.789 306.195 211.705 281.931 210.461 273.237C209.337 265.372 205.228 233.367 203.367 223.47C201.507 213.574 193.03 179.164 193.03 179.164C193.03 179.164 181.717 215.266 178.792 229.688C175.866 244.109 164.862 276.631 162.504 284.541C160.146 292.451 156.385 304.182 156.385 304.182C155.059 304.53 153.666 304.627 152.295 304.467C151.68 304.424 151.087 304.246 150.566 303.949C150.046 303.653 149.615 303.246 149.311 302.766C149.311 302.766 152.087 279.089 153.231 267.581C154.654 253.329 155.101 234.409 156.833 226.49C158.564 218.571 158.504 203.401 160.514 193.22C161.658 187.439 167.479 132.132 167.479 132.132C167.479 132.132 199.756 143.827 219.486 130.537Z" fill="#222222" stroke="#222222" stroke-linecap="round" stroke-linejoin="round"/>
<path d="M224.331 301.643L216.898 307.041" stroke="white" stroke-width="0.5" stroke-linecap="round" stroke-linejoin="round"/>
<path d="M149.012 301.82L154.912 305.873" stroke="white" stroke-width="0.5" stroke-linecap="round" stroke-linejoin="round"/>
<path d="M197.904 143.266L197.307 165.321L201.486 161.589" stroke="white" stroke-width="0.5" stroke-linecap="round" stroke-linejoin="round"/>
<path d="M195.297 178.524L207.167 165.305" stroke="white" stroke-width="0.5" stroke-linecap="round" stroke-linejoin="round"/>
<path d="M210.46 166.266L200.561 174.959" stroke="white" stroke-width="0.5" stroke-linecap="round" stroke-linejoin="round"/>
<path d="M188.233 167.237C185.171 161.168 179.937 156.184 173.358 153.074" stroke="white" stroke-width="0.5" stroke-linecap="round" stroke-linejoin="round"/>
<path d="M203.326 137.299L202.759 139.882L198.143 140.844L198.67 137.628" stroke="white" stroke-width="0.5" stroke-linecap="round" stroke-linejoin="round"/>
<path d="M198.143 140.843C198.143 140.843 189.497 140.522 185.109 139.231L186.035 136.656" stroke="white" stroke-width="0.5" stroke-linecap="round" stroke-linejoin="round"/>
<path d="M182.035 136.016L181.159 139.231C181.159 139.231 174.304 138.911 173.199 137.949" stroke="white" stroke-width="0.5" stroke-linecap="round" stroke-linejoin="round"/>
<path d="M202.76 139.852C205.113 139.79 207.419 139.241 209.496 138.249L212.63 136.636L211.416 134.383" stroke="white" stroke-width="0.5" stroke-linecap="round" stroke-linejoin="round"/>
<path d="M223.744 56.5234C223.744 56.5234 229.993 61.3781 231.863 64.5848C233.734 67.7916 258.289 112.615 258.19 115.679C258.09 118.743 254.459 124.586 248.051 124.586C241.644 124.586 217.356 89.6508 217.356 89.6508L223.744 56.5234Z" fill="white"/>
<mask id="mask0_5865_2082" style="mask-type:luminance" maskUnits="userSpaceOnUse" x="217" y="56" width="42" height="69">
<path d="M223.744 56.5234C223.744 56.5234 229.993 61.3781 231.863 64.5848C233.734 67.7916 258.289 112.615 258.19 115.679C258.09 118.743 254.459 124.586 248.051 124.586C241.644 124.586 217.356 89.6508 217.356 89.6508L223.744 56.5234Z" fill="white"/>
</mask>
<g mask="url(#mask0_5865_2082)">
<g style="mix-blend-mode:multiply" opacity="0.5">
<path d="M224.508 61.903L224.926 62.1079C225.663 62.4909 227.314 63.3549 229.125 64.4327C231.171 65.8379 233.037 67.4422 234.687 69.2161C234.687 69.2161 232.438 63.8716 229.145 61.3151C227.314 59.9063 225.61 58.3693 224.051 56.7188L224.508 61.903Z" fill="#23BB4E"/>
</g>
</g>
<path d="M223.744 56.5234C223.744 56.5234 229.993 61.3781 231.863 64.5848C233.734 67.7916 258.289 112.615 258.19 115.679C258.09 118.743 254.459 124.586 248.051 124.586C241.644 124.586 217.356 89.6508 217.356 89.6508L223.744 56.5234Z" stroke="#222222" stroke-linecap="round" stroke-linejoin="round"/>
<path opacity="0.5" d="M239.394 103.395C238.568 102.504 232.429 93.6592 231.802 90.3544C231.175 87.0497 232.797 82.8186 232.797 80.6095C232.797 78.4004 228.897 84.4665 228.688 83.7361C228.479 83.0057 226.021 75.0957 226.021 75.0957L218.49 83.8162L217.365 89.6686C217.365 89.6686 226.877 103.342 235.573 113.577C241.762 111.795 251.105 109.078 253.114 107.992C256.229 106.344 240.22 104.322 239.394 103.395Z" fill="#23BB4E"/>
<path d="M193.745 50.4668L223.783 56.524C223.783 56.524 225.873 70.304 225.634 77.7508C225.395 85.1976 219.206 131.25 219.206 131.25C219.206 131.25 203.287 145.787 167.548 132.141C167.548 132.141 166.304 129.994 165.836 113.942C165.388 98.1136 152.096 68.7185 153.16 65.3692C155.349 58.5015 181.636 51.9009 185.089 51.7139C188.001 51.466 190.893 51.0494 193.745 50.4668Z" fill="white" stroke="#222222" stroke-linecap="round" stroke-linejoin="round"/>
<g style="mix-blend-mode:multiply" opacity="0.5">
<path d="M196.461 131.169L168.95 121.513L173.706 74.7305L204.998 87.8425L223.753 80.2888L210.341 129.111L196.461 131.169Z" fill="#23BB4E"/>
</g>
<g style="mix-blend-mode:multiply" opacity="0.5">
<path d="M204.601 58.5455C205.885 58.5455 217.755 60.6744 224.501 61.9037C224.113 58.7504 223.774 56.5591 223.774 56.5591L193.736 50.502C190.884 51.0876 187.993 51.5071 185.08 51.7579C181.627 51.945 155.34 58.5455 153.151 65.4133C152.803 66.5267 154.017 70.4817 155.818 75.853C158.445 69.7869 160.793 64.7898 161.599 64.0861C163.41 62.4649 181.498 58.2605 181.498 58.2605L204.601 58.5455Z" fill="#23BB4E"/>
</g>
<path d="M201.905 64.2219L197.775 72.4881L206.83 129.764L200.193 137.781L193.895 131.243L195.656 73.2186L187.318 64.5069L192.651 55.4746L201.905 64.2219Z" fill="#222222"/>
<path d="M233.893 82.7292L209.825 94.6832L178.871 80.1816L173.966 121.112L204.621 134.34L227.833 121.834L233.893 82.7292Z" fill="#23BB4E" stroke="#222222" stroke-linecap="round" stroke-linejoin="round"/>
<path d="M208.907 103.879L209.823 97.3047" stroke="#222222" stroke-width="0.5" stroke-linecap="round" stroke-linejoin="round"/>
<path d="M204.62 134.343L208.401 107.486" stroke="#222222" stroke-width="0.5" stroke-linecap="round" stroke-linejoin="round"/>
<path d="M196.541 48.1707C196.541 48.1707 201.963 48.1707 204.321 51.3774C206.679 54.5841 211.206 67.2597 211.206 67.2597L194.889 63.1533L184.999 72.3014C184.999 72.3014 175.935 60.2761 179.626 52.6423C183.317 45.0085 196.541 48.1707 196.541 48.1707Z" fill="white" stroke="#222222" stroke-linecap="round" stroke-linejoin="round"/>
<g style="mix-blend-mode:multiply" opacity="0.5">
<path d="M205.973 54.3414C205.506 53.3171 204.954 52.3256 204.322 51.3752C201.964 48.1239 196.541 48.1684 196.541 48.1684C196.541 48.1684 183.338 45.0062 179.627 52.6222C178.433 55.0896 178.632 58.0202 179.318 60.8529C179.965 59.3386 181.428 56.3011 183.298 54.6175C185.825 52.355 186.124 54.3236 186.124 54.3236L200.272 53.317C202.146 53.7671 204.051 54.1093 205.973 54.3414Z" fill="#23BB4E"/>
</g>
<path d="M198.869 40.793C198.869 40.793 199.785 57.6462 197.407 60.9687C195.029 64.2912 192.322 63.0175 190.342 60.9687C188.363 58.92 186.124 54.3414 186.124 54.3414L183.706 41.8708C183.706 41.8708 197.795 44.1957 198.869 40.793Z" fill="white" stroke="#222222" stroke-linecap="round" stroke-linejoin="round"/>
<g style="mix-blend-mode:multiply" opacity="0.5">
<path d="M193.765 54.3417C195.814 53.8161 197.634 52.7403 198.979 51.2596C198.979 50.3065 198.979 49.3623 198.979 48.4448C196.661 46.0665 191.338 41.5771 185.408 43.0201C184.9 43.1448 184.413 43.2873 183.965 43.4299L186.114 54.3417C186.114 54.3417 188.363 58.9558 190.333 60.969L188.343 53.0144C189.037 53.6423 189.904 54.0955 190.855 54.3285C191.807 54.5615 192.811 54.566 193.765 54.3417Z" fill="#23BB4E"/>
</g>
<path d="M207.167 25.4625C207.167 25.4625 209.893 25.2843 209.953 29.3551C210.013 33.4259 207.336 36.8464 205.496 35.4301C203.655 34.0138 206.66 23.6097 207.167 25.4625Z" fill="white" stroke="#222222" stroke-linecap="round" stroke-linejoin="round"/>
<path d="M188.452 4.38766C176.045 7.00649 172.722 14.186 172.821 20.6886C172.821 23.1738 174.105 27.4762 175.806 32.0102L175.587 31.6004C175.587 31.6004 171.856 25.7748 171.309 29.2755C170.762 32.7762 174.453 36.4016 175.677 37.5685C176.016 37.8486 176.454 38.0142 176.915 38.0369C177.376 38.0597 177.832 37.9382 178.204 37.6932C180.672 43.0378 183.428 47.8212 185.228 49.1217C189.129 51.9454 194.611 53.3973 198.969 50.0124C203.327 46.6275 207.635 27.3247 207.635 27.3247C208.67 7.79927 200.859 1.78663 188.452 4.38766Z" fill="white"/>
<mask id="mask1_5865_2082" style="mask-type:luminance" maskUnits="userSpaceOnUse" x="171" y="3" width="37" height="49">
<path d="M188.45 4.38766C176.043 7.00649 172.72 14.186 172.819 20.6886C172.819 23.1738 174.103 27.4762 175.804 32.0102L175.585 31.6004C175.585 31.6004 171.854 25.7748 171.307 29.2755C170.76 32.7762 174.451 36.4016 175.675 37.5685C176.014 37.8486 176.452 38.0142 176.913 38.0369C177.374 38.0597 177.83 37.9382 178.202 37.6932C180.67 43.0378 183.426 47.8212 185.227 49.1217C189.127 51.9454 194.609 53.3973 198.967 50.0124C203.325 46.6275 207.633 27.3247 207.633 27.3247C208.668 7.79927 200.857 1.78663 188.45 4.38766Z" fill="white"/>
</mask>
<g mask="url(#mask1_5865_2082)">
<g style="mix-blend-mode:multiply" opacity="0.5">
<path d="M181.844 24.9477C181.844 24.9477 186.172 21.7143 190.51 21.7143C194.848 21.7143 203.882 25.2773 204.957 28.1812C205.613 29.9627 204.837 35.7081 204.111 40.0729C206.2 33.9266 207.673 27.3528 207.673 27.3528C208.668 7.83622 200.848 1.80577 188.45 4.4246C176.053 7.04344 172.72 14.223 172.819 20.7255C172.819 23.2108 174.103 27.5131 175.804 32.0471L175.585 31.6374C175.585 31.6374 171.854 25.8118 171.307 29.3125C170.76 32.8132 174.451 36.4385 175.675 37.6054C176.014 37.8855 176.452 38.0511 176.913 38.0739C177.374 38.0966 177.83 37.9751 178.202 37.7302C180.67 43.0747 183.426 47.8581 185.227 49.1586C185.227 49.1586 181.077 40.7944 179.635 37.2402C178.192 33.6861 178.59 27.5042 181.844 24.9477Z" fill="#23BB4E"/>
</g>
</g>
<path d="M188.452 4.38766C176.045 7.00649 172.722 14.186 172.821 20.6886C172.821 23.1738 174.105 27.4762 175.806 32.0102L175.587 31.6004C175.587 31.6004 171.856 25.7748 171.309 29.2755C170.762 32.7762 174.453 36.4016 175.677 37.5685C176.016 37.8486 176.454 38.0142 176.915 38.0369C177.376 38.0597 177.832 37.9382 178.204 37.6932C180.672 43.0378 183.428 47.8212 185.228 49.1217C189.129 51.9454 194.611 53.3973 198.969 50.0124C203.327 46.6275 207.635 27.3247 207.635 27.3247C208.67 7.79927 200.859 1.78663 188.452 4.38766Z" stroke="#222222" stroke-linecap="round" stroke-linejoin="round"/>
<path d="M203.038 33.0078C202.417 33.8443 201.454 34.4288 200.356 34.6354C199.258 34.842 198.113 34.6542 197.168 34.1124" stroke="#222222" stroke-linecap="round" stroke-linejoin="round"/>
<path d="M189.795 34.1855C189.174 35.022 188.21 35.6065 187.112 35.8131C186.014 36.0197 184.87 35.8319 183.925 35.2901" stroke="#222222" stroke-linecap="round" stroke-linejoin="round"/>
<path d="M190.433 31.4929C188.829 30.7724 187.093 30.3168 185.309 30.1479C182.941 30.0588 180.612 31.7869 180.612 31.7869" stroke="#222222" stroke-linecap="round" stroke-linejoin="round"/>
<path d="M196.143 40.4883C196.058 41.0296 195.74 41.5196 195.256 41.8528C194.772 42.186 194.162 42.3358 193.556 42.2698C192.923 42.287 192.297 42.1472 191.747 41.8658C191.198 41.5844 190.746 41.1724 190.441 40.6753" stroke="#222222" stroke-linecap="round" stroke-linejoin="round"/>
<path d="M198.233 44.791C198.233 44.791 192.423 46.3409 188.691 44.9959C189.179 45.7804 189.846 46.4643 190.648 47.003C191.45 47.5417 192.37 47.9231 193.348 48.1225C195.557 48.648 198.233 44.791 198.233 44.791Z" fill="#222222"/>
<path d="M203.764 29.1488C203.764 29.1488 201.585 28.9796 199.525 28.9974C197.635 28.9974 195.755 31.1976 195.755 31.1976L195.088 33.8699" stroke="#222222" stroke-linecap="round" stroke-linejoin="round"/>
<path d="M185.835 19.5393C190.347 22.9221 195.277 25.8302 200.53 28.2064C209.087 32.0366 215.654 24.6433 211.644 21.009C207.634 17.3747 216.868 24.9996 218.32 20.4389C219.773 15.8782 206.48 0.227558 193.128 0.00486825C179.775 -0.217822 176.542 7.27348 176.542 7.27348C176.542 7.27348 174.97 3.41648 173.786 5.5454C173.097 6.70405 172.703 7.98461 172.631 9.2955C172.631 9.2955 169.925 11.077 168.731 12.137C167.537 13.197 169.069 14.3194 169.069 14.3194C169.069 14.3194 166.681 19.664 167.955 23.7882L174.81 32.6958C175.637 32.6718 176.447 32.4777 177.177 32.1287C177.907 31.7796 178.537 31.2848 179.019 30.6827C180.81 28.5805 179.497 22.0245 179.497 22.0245C179.497 22.0245 179.606 29.0793 181.705 27.5294C183.805 25.9795 180.711 19.085 180.711 19.085L185.835 19.5393Z" fill="#222222"/>
<path d="M179.875 12.252C179.875 12.252 185.984 16.3673 190.402 20.1263C194.819 23.8853 201.555 25.3283 203.555 24.4999" stroke="white" stroke-width="0.5" stroke-miterlimit="10" stroke-linecap="round"/>
<path d="M198.75 17.4291C198.75 17.4291 189.994 15.6476 187.934 12.2449C185.875 8.84218 179.497 9.24303 179.497 9.24303C181.09 7.92776 183.034 7.00105 185.142 6.55182C187.25 6.10259 189.452 6.14592 191.536 6.67764" stroke="white" stroke-width="0.5" stroke-miterlimit="10" stroke-linecap="round"/>
<path d="M176.552 13.9355C176.552 13.9355 183.397 23.1727 179.079 26.0143" stroke="white" stroke-width="0.5" stroke-miterlimit="10" stroke-linecap="round"/>
<path d="M153.159 65.3789C153.159 65.3789 134.583 110.719 135.439 115.778C136.295 120.838 146.045 118.825 149.12 118.139C152.194 117.453 164.044 100.617 164.124 96.992C164.889 96.5633 165.544 95.9937 166.045 95.321C166.546 94.6484 166.882 93.888 167.029 93.0905C167.755 90.1688 168.253 79.7291 163.537 71.8993" fill="white"/>
<mask id="mask2_5865_2082" style="mask-type:luminance" maskUnits="userSpaceOnUse" x="135" y="65" width="33" height="55">
<path d="M153.159 65.375C153.159 65.375 134.583 110.715 135.439 115.774C136.295 120.834 146.045 118.821 149.12 118.135C152.194 117.449 164.044 100.614 164.124 96.9881C164.889 96.5594 165.544 95.9898 166.045 95.3171C166.546 94.6445 166.882 93.8841 167.029 93.0866C167.755 90.1649 168.253 79.7252 163.537 71.8954" fill="white"/>
</mask>
<g mask="url(#mask2_5865_2082)">
<g style="mix-blend-mode:multiply" opacity="0.5">
<path d="M153.159 65.375C153.159 65.375 134.583 110.715 135.439 115.774C135.916 118.545 139.061 119.186 142.304 119.097C144.573 113.369 145.458 102.903 147.16 97.7185C149.04 91.9197 155.169 76.9103 158.9 69.0182L153.159 65.375Z" fill="#23BB4E"/>
</g>
</g>
<path d="M153.159 65.3789C153.159 65.3789 134.583 110.719 135.439 115.778C136.295 120.838 146.045 118.825 149.12 118.139C152.194 117.453 164.044 100.617 164.124 96.992C164.889 96.5633 165.544 95.9937 166.045 95.321C166.546 94.6484 166.882 93.888 167.029 93.0905C167.755 90.1688 168.253 79.7291 163.537 71.8993" stroke="#222222" stroke-linecap="round" stroke-linejoin="round"/>
<path d="M167.199 111.636C167.199 111.636 143.32 110.336 140.255 110.113C137.191 109.89 133.519 113.676 136.404 118.914C139.29 124.151 143.877 124.454 149.508 123.501C155.14 122.548 167.577 115.751 167.577 115.751L167.199 111.636Z" fill="white"/>
<mask id="mask3_5865_2082" style="mask-type:luminance" maskUnits="userSpaceOnUse" x="135" y="110" width="33" height="14">
<path d="M167.199 111.636C167.199 111.636 143.32 110.336 140.255 110.113C137.191 109.89 133.519 113.676 136.404 118.914C139.29 124.151 143.877 124.454 149.508 123.501C155.14 122.548 167.577 115.751 167.577 115.751L167.199 111.636Z" fill="white"/>
</mask>
<g mask="url(#mask3_5865_2082)">
<path opacity="0.5" d="M167.199 111.636C167.199 111.636 143.32 110.336 140.255 110.113C137.191 109.89 133.519 113.676 136.404 118.914C139.29 124.151 143.877 124.454 149.508 123.501C155.14 122.548 167.577 115.751 167.577 115.751L167.199 111.636Z" fill="#23BB4E" stroke="#222222" stroke-linecap="round" stroke-linejoin="round"/>
</g>
<path d="M167.199 111.636C167.199 111.636 143.32 110.336 140.255 110.113C137.191 109.89 133.519 113.676 136.404 118.914C139.29 124.151 143.877 124.454 149.508 123.501C155.14 122.548 167.577 115.751 167.577 115.751L167.199 111.636Z" stroke="#222222" stroke-linecap="round" stroke-linejoin="round"/>
<path d="M171.01 106.424C171.01 106.424 174.094 103.493 174.91 103.556C175.726 103.618 181.716 103.324 182.223 104.58C182.73 105.836 181.924 105.284 181.099 105.702C180.273 106.121 176.174 106.593 176.174 106.593C176.174 106.593 179.706 106.851 180.77 107.413C181.835 107.974 186.342 111.697 186.322 112.428C186.302 113.158 185.755 113.318 184.661 113.318C183.566 113.318 184.372 114.022 184.074 114.726C183.775 115.43 181.616 115.278 181.616 115.278C181.616 115.278 181.805 117.719 180.173 117.594C178.542 117.469 175.616 115.563 175.616 115.563C175.616 115.563 169.577 117.541 167.408 117.389C165.983 117.332 164.567 117.618 163.309 118.218C165.133 113.934 167.735 109.949 171.01 106.424Z" fill="white"/>
<mask id="mask4_5865_2082" style="mask-type:luminance" maskUnits="userSpaceOnUse" x="163" y="103" width="24" height="16">
<path d="M171.01 106.424C171.01 106.424 174.094 103.493 174.91 103.556C175.726 103.618 181.716 103.324 182.223 104.58C182.73 105.836 181.924 105.284 181.099 105.702C180.273 106.121 176.174 106.593 176.174 106.593C176.174 106.593 179.706 106.851 180.77 107.413C181.835 107.974 186.342 111.697 186.322 112.428C186.302 113.158 185.755 113.318 184.661 113.318C183.566 113.318 184.372 114.022 184.074 114.726C183.775 115.43 181.616 115.278 181.616 115.278C181.616 115.278 181.805 117.719 180.173 117.594C178.542 117.469 175.616 115.563 175.616 115.563C175.616 115.563 169.577 117.541 167.408 117.389C165.983 117.332 164.567 117.618 163.309 118.218C165.133 113.934 167.735 109.949 171.01 106.424Z" fill="white"/>
</mask>
<g mask="url(#mask4_5865_2082)">
<g style="mix-blend-mode:multiply" opacity="0.5">
<path d="M171.01 106.424C167.743 109.924 165.141 113.882 163.309 118.137C164.567 117.538 165.983 117.251 167.408 117.309C168.121 117.32 168.833 117.251 169.527 117.104C169.959 115.401 170.216 113.665 170.293 111.92C170.293 109.328 174.91 103.556 174.91 103.556C174.084 103.493 171.01 106.424 171.01 106.424Z" fill="#23BB4E"/>
</g>
</g>
<path d="M171.01 106.424C171.01 106.424 174.094 103.493 174.91 103.556C175.726 103.618 181.716 103.324 182.223 104.58C182.73 105.836 181.924 105.284 181.099 105.702C180.273 106.121 176.174 106.593 176.174 106.593C176.174 106.593 179.706 106.851 180.77 107.413C181.835 107.974 186.342 111.697 186.322 112.428C186.302 113.158 185.755 113.318 184.661 113.318C183.566 113.318 184.372 114.022 184.074 114.726C183.775 115.43 181.616 115.278 181.616 115.278C181.616 115.278 181.805 117.719 180.173 117.594C178.542 117.469 175.616 115.563 175.616 115.563C175.616 115.563 169.577 117.541 167.408 117.389C165.983 117.332 164.567 117.618 163.309 118.218C165.133 113.934 167.735 109.949 171.01 106.424Z" stroke="#222222" stroke-linecap="round" stroke-linejoin="round"/>
<path d="M184.66 113.238L179.337 109.452L174.999 108.891" stroke="#222222" stroke-linecap="round" stroke-linejoin="round"/>
<path d="M181.607 115.198L175.707 112.339L173.001 111.902" stroke="#222222" stroke-linecap="round" stroke-linejoin="round"/>
<path d="M236.401 102.816C236.401 102.816 233.316 99.8945 232.5 99.948C231.684 100.001 225.695 99.7253 225.187 100.972C224.68 102.219 225.486 101.676 226.312 102.104C227.921 102.52 229.569 102.804 231.237 102.95C231.237 102.95 227.705 103.208 226.64 103.778C225.575 104.348 221.068 108.063 221.088 108.784C221.108 109.506 221.655 109.675 222.75 109.675C223.844 109.675 223.038 110.379 223.337 111.083C223.635 111.786 225.794 111.626 225.794 111.626C225.794 111.626 225.605 114.067 227.237 113.951C228.869 113.835 231.794 111.92 231.794 111.92C231.794 111.92 237.833 113.897 240.002 113.701C241.428 113.642 242.845 113.931 244.102 114.539C242.27 110.279 239.668 106.319 236.401 102.816Z" fill="white" stroke="#222222" stroke-linecap="round" stroke-linejoin="round"/>
<path d="M222.749 109.629L228.062 105.852L232.4 105.291" stroke="#222222" stroke-linecap="round" stroke-linejoin="round"/>
<path d="M225.793 111.591L231.693 108.74L234.399 108.295" stroke="#222222" stroke-linecap="round" stroke-linejoin="round"/>
<path d="M239.951 107.251C239.951 107.251 250.189 106.2 253.702 108.56C257.214 110.921 256.627 116.933 256.627 116.933" stroke="#222222" stroke-linecap="round" stroke-linejoin="round"/>
<path d="M159.07 301.082C159.07 301.082 160.165 299.131 163.657 299.523C167.149 299.915 169.338 303.629 166.931 304.796C164.523 305.963 159.07 301.082 159.07 301.082Z" fill="#23BB4E" stroke="#222222" stroke-linecap="round" stroke-linejoin="round"/>
<path d="M164.234 210.367C164.234 210.367 172.452 211.845 176.402 214.197C180.353 216.548 180.999 217.136 181.984 221.848C182.969 226.561 179.358 239.209 179.358 245.685C179.358 252.161 174.094 291.595 174.094 294.846C174.094 298.098 177.716 304.85 177.388 307.201C177.248 308.892 177.471 310.591 178.044 312.207C178.044 312.207 180.343 313.677 177.388 313.989C174.432 314.301 174.094 314.577 171.467 313.401C168.841 312.225 167.488 306.337 165.219 304.573C162.95 302.81 161.607 300.752 161.607 299.273C161.607 297.795 166.861 292.219 166.861 292.219C166.861 292.219 166.204 283.979 165.866 276.915C165.527 269.852 161.886 254.254 161.886 247.52C161.886 240.786 166.861 224.859 166.861 224.859C166.861 224.859 154.095 226.258 149.12 223.318C144.146 220.379 149.777 207.427 164.234 210.367Z" fill="white" stroke="#222222" stroke-linecap="round" stroke-linejoin="round"/>
<path d="M165.219 304.536C165.219 304.536 159.249 299.949 159.07 301.116C158.891 302.283 158.851 311.484 159.289 312.455C159.727 313.426 171.517 314.415 177.636 315.395C183.755 316.375 181.348 312.847 180.034 312.063C178.721 311.279 165.219 304.536 165.219 304.536Z" fill="#23BB4E" stroke="#222222" stroke-linecap="round" stroke-linejoin="round"/>
<path opacity="0.2" d="M165.219 304.536C165.219 304.536 159.249 299.949 159.07 301.116C158.891 302.283 158.851 311.484 159.289 312.455C159.727 313.426 171.517 314.415 177.636 315.395C183.755 316.375 181.348 312.847 180.034 312.063C178.721 311.279 165.219 304.536 165.219 304.536Z" fill="#222222"/>
<path d="M166.93 309.723C168.125 308.44 169.523 307.321 171.079 306.4C172.927 305.225 175.001 304.364 177.198 303.861L180.033 308.743C178.078 309.156 176.177 309.753 174.362 310.524C172.985 311.271 171.735 312.192 170.651 313.259C170.651 313.259 167.367 311.29 166.93 309.723Z" fill="#222222" stroke="#222222" stroke-linecap="round" stroke-linejoin="round"/>
<path d="M172.832 304.255C172.556 304.286 172.29 304.367 172.05 304.493C171.811 304.62 171.602 304.788 171.438 304.99C171.274 305.191 171.158 305.42 171.096 305.662C171.035 305.905 171.029 306.157 171.08 306.401C171.299 308.361 171.518 314.614 172.394 314.81C173.269 315.006 184.184 316.592 188.114 316.761C192.044 316.93 196.412 316.957 196.412 315.202C196.412 313.447 195.756 312.663 194.89 312.663C194.024 312.663 192.044 312.076 189.428 310.713C186.811 309.35 180.473 304.068 178.483 303.872C176.493 303.676 173.926 302.491 172.832 304.255Z" fill="#23BB4E" stroke="#222222" stroke-linecap="round" stroke-linejoin="round"/>
<path opacity="0.2" d="M172.832 304.255C172.556 304.286 172.29 304.367 172.05 304.493C171.811 304.62 171.602 304.788 171.438 304.99C171.274 305.191 171.158 305.42 171.096 305.662C171.035 305.905 171.029 306.157 171.08 306.401C171.299 308.361 171.518 314.614 172.394 314.81C173.269 315.006 184.184 316.592 188.114 316.761C192.044 316.93 196.412 316.957 196.412 315.202C196.412 313.447 195.756 312.663 194.89 312.663C194.024 312.663 192.044 312.076 189.428 310.713C186.811 309.35 180.473 304.068 178.483 303.872C176.493 303.676 173.926 302.491 172.832 304.255Z" fill="#222222"/>
<path d="M81.2739 312.663C81.2739 311.782 80.9821 310.921 80.4355 310.188C79.8889 309.456 79.1119 308.885 78.2029 308.548C77.2938 308.211 76.2935 308.123 75.3285 308.295C74.3635 308.466 73.4771 308.891 72.7813 309.513C72.0856 310.136 71.6118 310.93 71.4198 311.794C71.2279 312.658 71.3264 313.553 71.7029 314.367C72.0794 315.181 72.7171 315.877 73.5352 316.366C74.3533 316.855 75.3151 317.117 76.2991 317.117C77.6185 317.117 78.8839 316.647 79.8168 315.812C80.7498 314.977 81.2739 313.844 81.2739 312.663Z" fill="#222222" stroke="#222222" stroke-linecap="round" stroke-linejoin="round"/>
<path d="M76.2999 314.88C77.6737 314.88 78.7873 313.883 78.7873 312.653C78.7873 311.423 77.6737 310.426 76.2999 310.426C74.9262 310.426 73.8125 311.423 73.8125 312.653C73.8125 313.883 74.9262 314.88 76.2999 314.88Z" fill="white" stroke="#222222" stroke-linecap="round" stroke-linejoin="round"/>
<path d="M134.584 312.663C134.584 311.782 134.293 310.921 133.746 310.188C133.199 309.456 132.422 308.885 131.513 308.548C130.604 308.211 129.604 308.123 128.639 308.295C127.674 308.466 126.788 308.891 126.092 309.513C125.396 310.136 124.922 310.93 124.73 311.794C124.538 312.658 124.637 313.553 125.013 314.367C125.39 315.181 126.028 315.877 126.846 316.366C127.664 316.855 128.626 317.117 129.61 317.117C130.929 317.117 132.194 316.647 133.127 315.812C134.06 314.977 134.584 313.844 134.584 312.663Z" fill="#222222" stroke="#222222" stroke-linecap="round" stroke-linejoin="round"/>
<path d="M132.096 312.662C132.096 312.222 131.95 311.791 131.677 311.425C131.403 311.059 131.015 310.774 130.56 310.605C130.106 310.437 129.606 310.392 129.123 310.478C128.641 310.564 128.198 310.776 127.85 311.088C127.502 311.399 127.265 311.796 127.169 312.228C127.073 312.66 127.122 313.108 127.31 313.515C127.499 313.922 127.818 314.269 128.227 314.514C128.636 314.759 129.117 314.889 129.609 314.889C130.268 314.889 130.901 314.655 131.367 314.237C131.834 313.819 132.096 313.253 132.096 312.662Z" fill="white" stroke="#222222" stroke-linecap="round" stroke-linejoin="round"/>
<path d="M152.005 312.663C152.005 311.782 151.714 310.921 151.167 310.188C150.62 309.456 149.843 308.885 148.934 308.548C148.025 308.211 147.025 308.123 146.06 308.295C145.095 308.466 144.209 308.891 143.513 309.513C142.817 310.136 142.343 310.93 142.151 311.794C141.959 312.658 142.058 313.553 142.434 314.367C142.811 315.181 143.449 315.877 144.267 316.366C145.085 316.855 146.047 317.117 147.031 317.117C148.35 317.117 149.615 316.647 150.548 315.812C151.481 314.977 152.005 313.844 152.005 312.663Z" fill="#222222" stroke="#222222" stroke-linecap="round" stroke-linejoin="round"/>
<path d="M149.52 312.661C149.522 312.218 149.377 311.784 149.103 311.415C148.83 311.046 148.44 310.758 147.983 310.588C147.526 310.418 147.023 310.373 146.538 310.459C146.053 310.545 145.607 310.758 145.257 311.071C144.907 311.384 144.669 311.783 144.573 312.218C144.477 312.652 144.527 313.103 144.717 313.512C144.908 313.92 145.229 314.27 145.641 314.515C146.054 314.76 146.538 314.889 147.033 314.888C147.692 314.888 148.325 314.653 148.792 314.235C149.258 313.818 149.52 313.251 149.52 312.661Z" fill="white" stroke="#222222" stroke-linecap="round" stroke-linejoin="round"/>
<path d="M121.89 236.199H111.363V307.558H121.89V236.199Z" fill="#222222" stroke="#222222" stroke-linecap="round" stroke-linejoin="round"/>
<path d="M124.705 273.486H108.566V307.558H124.705V273.486Z" fill="#222222" stroke="#222222" stroke-linecap="round" stroke-linejoin="round"/>
<path d="M75.2748 306.213H149.629C150.684 306.213 151.697 306.588 152.443 307.256C153.189 307.925 153.609 308.831 153.609 309.776V310.248H71.2949V309.776C71.2949 308.831 71.7142 307.925 72.4606 307.256C73.207 306.588 74.2193 306.213 75.2748 306.213Z" fill="#222222" stroke="#222222" stroke-linecap="round" stroke-linejoin="round"/>
<path d="M105.88 208.604H92.3486V228.129H105.88V208.604Z" fill="#222222" stroke="#222222" stroke-linecap="round" stroke-linejoin="round"/>
<path d="M160.464 225.43H72.7873C68.7594 225.43 65.4941 228.353 65.4941 231.959V233.714C65.4941 237.32 68.7594 240.243 72.7873 240.243H160.464C164.492 240.243 167.757 237.32 167.757 233.714V231.959C167.757 228.353 164.492 225.43 160.464 225.43Z" fill="#23BB4E" stroke="#222222" stroke-linecap="round" stroke-linejoin="round"/>
<path opacity="0.1" d="M160.464 225.43H72.7873C68.7594 225.43 65.4941 228.353 65.4941 231.959V233.714C65.4941 237.32 68.7594 240.243 72.7873 240.243H160.464C164.492 240.243 167.757 237.32 167.757 233.714V231.959C167.757 228.353 164.492 225.43 160.464 225.43Z" fill="#222222"/>
<path d="M167.757 232.832C167.757 230.869 166.886 228.986 165.335 227.598C163.784 226.21 161.681 225.43 159.489 225.43H114.377C113.266 225.396 112.159 225.562 111.122 225.918C110.084 226.275 109.138 226.815 108.338 227.506C107.539 228.198 106.904 229.026 106.469 229.942C106.035 230.857 105.812 231.842 105.812 232.837C105.812 233.832 106.035 234.816 106.469 235.732C106.904 236.648 107.539 237.476 108.338 238.167C109.138 238.859 110.084 239.399 111.122 239.755C112.159 240.112 113.266 240.278 114.377 240.244H159.489C161.682 240.241 163.785 239.459 165.336 238.07C166.886 236.68 167.757 234.796 167.757 232.832Z" fill="#23BB4E" stroke="#222222" stroke-miterlimit="10"/>
<path opacity="0.1" d="M167.757 233.063C167.757 232.091 167.543 231.128 167.127 230.23C166.712 229.332 166.103 228.516 165.335 227.829C164.567 227.141 163.656 226.596 162.653 226.224C161.649 225.852 160.574 225.661 159.489 225.661H114.377C113.266 225.626 112.159 225.792 111.122 226.149C110.084 226.506 109.138 227.046 108.338 227.737C107.539 228.428 106.904 229.256 106.469 230.172C106.035 231.088 105.812 232.073 105.812 233.067C105.812 234.062 106.035 235.047 106.469 235.963C106.904 236.879 107.539 237.707 108.338 238.398C109.138 239.089 110.084 239.629 111.122 239.986C112.159 240.343 113.266 240.509 114.377 240.474H159.489C160.575 240.474 161.651 240.282 162.655 239.91C163.659 239.537 164.571 238.991 165.339 238.303C166.106 237.615 166.715 236.798 167.13 235.898C167.545 234.999 167.758 234.036 167.757 233.063Z" fill="#222222"/>
<path d="M125.769 208.61H73.0352C71.8023 208.61 70.5818 208.39 69.4458 207.961C68.3097 207.532 67.281 206.904 66.4204 206.114C65.5598 205.323 64.8847 204.387 64.435 203.359C63.9853 202.331 63.77 201.233 63.8019 200.13L65.1053 154.104C65.1625 151.947 66.1608 149.895 67.8865 148.389C69.6122 146.882 71.9282 146.04 74.3386 146.043H117.849C120.056 146.04 122.192 146.745 123.868 148.031C125.544 149.318 126.649 151.1 126.982 153.053L134.892 199.115C135.09 200.29 135.002 201.49 134.634 202.633C134.266 203.775 133.628 204.833 132.762 205.735C131.896 206.636 130.823 207.359 129.616 207.856C128.409 208.352 127.097 208.609 125.769 208.61Z" fill="#23BB4E" stroke="#222222" stroke-linecap="round" stroke-linejoin="round"/>
<path opacity="0.1" d="M125.769 208.61H73.0352C71.8023 208.61 70.5818 208.39 69.4458 207.961C68.3097 207.532 67.281 206.904 66.4204 206.114C65.5598 205.323 64.8847 204.387 64.435 203.359C63.9853 202.331 63.77 201.233 63.8019 200.13L65.1053 154.104C65.1625 151.947 66.1608 149.895 67.8865 148.389C69.6122 146.882 71.9282 146.04 74.3386 146.043H117.849C120.056 146.04 122.192 146.745 123.868 148.031C125.544 149.318 126.649 151.1 126.982 153.053L134.892 199.115C135.09 200.29 135.002 201.49 134.634 202.633C134.266 203.775 133.628 204.833 132.762 205.735C131.896 206.636 130.823 207.359 129.616 207.856C128.409 208.352 127.097 208.609 125.769 208.61Z" fill="#222222"/>
<path d="M108.546 237.883L85.4229 251.511" stroke="#222222" stroke-linecap="round" stroke-linejoin="round"/>
<path d="M84.5485 249.417L80.5687 251.813C80.257 252.004 79.9963 252.253 79.8051 252.544C79.6138 252.835 79.4969 253.161 79.4627 253.497C79.4285 253.833 79.4778 254.172 79.607 254.49C79.7363 254.807 79.9424 255.094 80.2105 255.332L80.5488 255.617C80.9959 256.011 81.59 256.242 82.2165 256.267C82.8431 256.292 83.4576 256.108 83.9416 255.751L87.5832 253.078C87.8535 252.878 88.0747 252.63 88.2329 252.35C88.3911 252.069 88.4828 251.763 88.5025 251.449C88.5221 251.135 88.4691 250.822 88.3469 250.527C88.2246 250.233 88.0358 249.964 87.7921 249.738C87.38 249.352 86.8288 249.108 86.2356 249.049C85.6423 248.99 85.045 249.121 84.5485 249.417Z" fill="#222222" stroke="#222222" stroke-linecap="round" stroke-linejoin="round"/>
<path d="M112.158 306.213H134.973C136.028 306.213 137.041 306.588 137.787 307.256C138.533 307.925 138.953 308.831 138.953 309.776V310.248H112.158V306.213Z" fill="#222222" stroke="#222222" stroke-linecap="round" stroke-linejoin="round"/>
<path d="M130.426 184.892C134.927 184.892 138.575 183.033 138.575 180.741C138.575 178.448 134.927 176.59 130.426 176.59C125.926 176.59 122.277 178.448 122.277 180.741C122.277 183.033 125.926 184.892 130.426 184.892Z" fill="white" stroke="#222222" stroke-linecap="round" stroke-linejoin="round"/>
<path d="M153.101 214.785C153.101 214.785 166.244 215.373 169.209 221.555C169.82 223.672 170.154 225.845 170.204 228.031C170.204 231.264 182.363 293.653 182.691 294.838C183.019 296.023 190.253 305.135 191.238 307.193C192.223 309.25 193.228 311.023 193.228 311.023C193.228 311.023 196.213 312.199 195.864 313.081C195.516 313.962 188.631 314.256 185.676 314.256C182.721 314.256 179.427 307.789 177.457 307.193C175.487 306.596 173.179 304.52 173.179 303.371C173.179 302.222 174.174 293.662 174.174 293.662C172.913 286.679 170.708 279.859 167.607 273.353C163.209 264.383 157.737 251.28 157.08 245.107C156.424 238.934 156.424 233.037 156.424 233.037L148.126 231.852C148.126 231.852 147.131 216.549 153.101 214.785Z" fill="white" stroke="#222222" stroke-linecap="round" stroke-linejoin="round"/>
<path d="M179.815 310.116C179.815 310.116 182.442 300.54 189.208 304.255L192.044 308.548C192.044 308.548 185.716 308.548 183.746 314.026C182.783 313.711 181.922 313.19 181.237 312.509C180.552 311.827 180.064 311.005 179.815 310.116Z" fill="#222222" stroke="#222222" stroke-linecap="round" stroke-linejoin="round"/>
<path d="M125.899 196.915L125.581 196.96C122.596 186.075 118.566 174.949 118.566 174.949C118.566 174.949 98.7965 179.626 87.3941 176.455C87.3941 176.455 81.5934 202.028 81.5934 208.709C81.5934 214.054 80.3597 219.487 84.8768 222.623C85.3137 223.198 85.8752 223.69 86.5281 224.068C87.181 224.446 87.9119 224.702 88.6776 224.823C101.005 226.898 122.248 226.177 125.79 226.809C129.332 227.442 148.127 231.851 148.127 231.851C148.127 231.851 149.251 222.569 152.435 216.548C155.619 210.526 170.156 211.551 170.156 211.551L125.899 196.915Z" fill="#222222" stroke="#222222" stroke-linecap="round" stroke-linejoin="round"/>
<path d="M121.331 125.602C121.331 125.602 118.604 122.538 115.659 125.914C112.714 129.29 115.052 141.012 116.505 145.698C117.958 150.383 142.494 169.819 144.802 171.263C147.11 172.706 177.188 178.789 179.815 177.676C182.442 176.563 183.198 170.924 181.705 167.878C180.213 164.831 152.105 158.364 152.105 158.364L121.331 125.602Z" fill="white"/>
<mask id="mask5_5865_2082" style="mask-type:luminance" maskUnits="userSpaceOnUse" x="114" y="124" width="69" height="54">
<path d="M121.331 125.602C121.331 125.602 118.604 122.538 115.659 125.914C112.714 129.29 115.052 141.012 116.505 145.698C117.958 150.383 142.494 169.819 144.802 171.263C147.11 172.706 177.188 178.789 179.815 177.676C182.442 176.563 183.198 170.924 181.705 167.878C180.213 164.831 152.105 158.364 152.105 158.364L121.331 125.602Z" fill="white"/>
</mask>
<g mask="url(#mask5_5865_2082)">
<g style="mix-blend-mode:multiply" opacity="0.5">
<path d="M144.802 171.28C147.11 172.714 177.188 178.807 179.815 177.694C181.327 177.052 182.213 174.897 182.412 172.607C177.765 170.933 172.253 169.801 169.696 169.935C165.985 170.122 168.472 173.222 162.522 172.349C156.572 171.476 149.787 168.786 143.618 165.633C137.449 162.479 126.375 153.162 126.375 153.162L135.061 154.053L125.161 151.318L133.768 148.423L126.375 148.031C126.849 146.983 127.069 145.857 127.022 144.727C127.022 142.437 122.146 133.939 122.146 133.939L116.973 146.668C120.584 152.476 142.623 169.917 144.802 171.28Z" fill="#23BB4E"/>
</g>
</g>
<path d="M121.331 125.602C121.331 125.602 118.604 122.538 115.659 125.914C112.714 129.29 115.052 141.012 116.505 145.698C117.958 150.383 142.494 169.819 144.802 171.263C147.11 172.706 177.188 178.789 179.815 177.676C182.442 176.563 183.198 170.924 181.705 167.878C180.213 164.831 152.105 158.364 152.105 158.364L121.331 125.602Z" stroke="#222222" stroke-linecap="round" stroke-linejoin="round"/>
<path d="M130.992 150.215L124.236 152.558L135.599 155.942" stroke="#222222" stroke-width="0.5" stroke-linecap="round" stroke-linejoin="round"/>
<path d="M179.887 167.851C179.018 168.01 178.224 168.401 177.608 168.971C176.992 169.542 176.583 170.266 176.434 171.048C175.847 173.837 178.912 176.215 178.912 176.215C178.912 176.215 185.369 178.201 187.299 173.543C189.229 168.884 183.011 167.672 179.887 167.851Z" fill="white"/>
<mask id="mask6_5865_2082" style="mask-type:luminance" maskUnits="userSpaceOnUse" x="176" y="167" width="12" height="10">
<path d="M179.887 167.851C179.018 168.01 178.224 168.401 177.608 168.971C176.992 169.542 176.583 170.266 176.434 171.048C175.847 173.837 178.912 176.215 178.912 176.215C178.912 176.215 185.369 178.201 187.299 173.543C189.229 168.884 183.011 167.672 179.887 167.851Z" fill="white"/>
</mask>
<g mask="url(#mask6_5865_2082)">
<g style="mix-blend-mode:multiply" opacity="0.5">
<path d="M178.912 176.215C178.912 176.215 184.424 177.898 186.782 174.505C183.543 172.89 180.08 171.666 176.484 170.861C176.463 170.923 176.446 170.985 176.434 171.048C175.847 173.836 178.912 176.215 178.912 176.215Z" fill="#23BB4E"/>
</g>
</g>
<path d="M179.887 167.851C179.018 168.01 178.224 168.401 177.608 168.971C176.992 169.542 176.583 170.266 176.434 171.048C175.847 173.837 178.912 176.215 178.912 176.215C178.912 176.215 185.369 178.201 187.299 173.543C189.229 168.884 183.011 167.672 179.887 167.851Z" stroke="#222222" stroke-linecap="round" stroke-linejoin="round"/>
<path d="M198.959 174.289C200.763 174.548 202.424 175.323 203.695 176.498C205.575 178.396 204.043 179.171 202.839 178.895C201.635 178.618 197.675 173.381 198.959 174.289Z" fill="white" stroke="#222222" stroke-linecap="round" stroke-linejoin="round"/>
<path d="M197.705 173.942C199.452 174.422 200.978 175.398 202.053 176.721C203.625 178.823 201.983 179.393 200.839 178.984C199.695 178.574 196.571 172.882 197.705 173.942Z" fill="white" stroke="#222222" stroke-linecap="round" stroke-linejoin="round"/>
<path d="M186.441 169.791C186.441 169.791 183.457 170.771 183.128 172.463C183.074 172.992 183.143 173.524 183.332 174.027C183.52 174.53 183.824 174.993 184.223 175.385C184.223 175.385 187.208 177.523 188.342 177.746C189.476 177.968 192.023 179.269 192.322 178.031C192.62 176.792 189.595 175.697 189.595 175.697C189.595 175.697 195.376 176.009 195.565 177.051C195.754 178.093 197.844 179.171 199.694 179.197C201.545 179.224 199.306 175.875 198.859 175.038C198.411 174.2 190.143 169.853 186.441 169.791Z" fill="white" stroke="#222222" stroke-linecap="round" stroke-linejoin="round"/>
<path d="M91.6916 117.292C91.6916 117.292 73.5036 126.761 72.0808 127.385C70.658 128.008 69.2451 137.807 69.2451 138.733C69.2451 139.66 87.4332 176.457 87.4332 176.457C87.4332 176.457 91.9105 179.851 105.014 179.851C118.118 179.851 119.133 178.069 119.133 178.069L120.178 162.543C120.178 162.543 124.655 152.05 125.003 150.197C125.351 148.344 121.332 125.603 121.332 125.603L102.726 114.496C102.726 114.496 95.1442 110.505 91.6916 117.292Z" fill="white"/>
<mask id="mask7_5865_2082" style="mask-type:luminance" maskUnits="userSpaceOnUse" x="69" y="113" width="57" height="67">
<path d="M91.6916 117.292C91.6916 117.292 73.5036 126.761 72.0808 127.385C70.658 128.008 69.2451 137.807 69.2451 138.733C69.2451 139.66 87.4332 176.457 87.4332 176.457C87.4332 176.457 91.9105 179.851 105.014 179.851C118.118 179.851 119.133 178.069 119.133 178.069L120.178 162.543C120.178 162.543 124.655 152.05 125.003 150.197C125.351 148.344 121.332 125.603 121.332 125.603L102.726 114.496C102.726 114.496 95.1442 110.505 91.6916 117.292Z" fill="white"/>
</mask>
<g mask="url(#mask7_5865_2082)">
<g style="mix-blend-mode:multiply" opacity="0.5">
<path d="M73.9314 134.119C75.3542 132.079 88.448 124.437 88.448 124.437L93.2836 121.889L99.4822 113.472C96.9948 113.062 93.6716 113.4 91.6916 117.293C91.6916 117.293 73.4638 126.762 72.0808 127.376C70.6978 127.991 69.2451 137.798 69.2451 138.725C69.2451 138.929 70.1008 140.818 71.434 143.659C71.9514 139.446 72.9365 135.545 73.9314 134.119Z" fill="#23BB4E"/>
</g>
</g>
<path d="M91.6916 117.292C91.6916 117.292 73.5036 126.761 72.0808 127.385C70.658 128.008 69.2451 137.807 69.2451 138.733C69.2451 139.66 87.4332 176.457 87.4332 176.457C87.4332 176.457 91.9105 179.851 105.014 179.851C118.118 179.851 119.133 178.069 119.133 178.069L120.178 162.543C120.178 162.543 124.655 152.05 125.003 150.197C125.351 148.344 121.332 125.603 121.332 125.603L102.726 114.496C102.726 114.496 95.1442 110.505 91.6916 117.292Z" stroke="#222222" stroke-linecap="round" stroke-linejoin="round"/>
<path d="M97.7895 131.981L103.093 137.103L101.988 158.882L109.749 160.717L110.565 151.204L113.42 161.082L119.142 155.96L106.774 136.738L108.406 130.885L101.461 123.938L96.9736 133.451" fill="#222222"/>
<path d="M97.7895 131.981L103.093 137.103L101.988 158.882L109.749 160.717L110.565 151.204L113.42 161.082L119.142 155.96L106.774 136.738L108.406 130.885L101.461 123.938L96.9736 133.451" stroke="#222222" stroke-linecap="round" stroke-linejoin="round"/>
<path d="M88.1396 117.347C88.1396 117.347 89.2739 124.126 90.7863 127.145C92.2986 130.165 95.7114 135.287 95.7114 135.287L102.905 128.838L110.109 133.292C110.109 133.292 109.352 122.104 106.696 117.018C104.039 111.931 91.1644 106.836 88.1396 117.347Z" fill="white" stroke="#222222" stroke-linecap="round" stroke-linejoin="round"/>
<g style="mix-blend-mode:multiply" opacity="0.5">
<path d="M93.2836 121.888L100.477 112.09C99.1642 111.575 97.7593 111.274 96.3282 111.199C95.0945 111.422 93.7015 111.698 92.229 111.992C90.4281 112.883 88.9356 114.557 88.1396 117.337C88.1396 117.337 88.7068 120.757 89.5824 123.83L93.2836 121.888Z" fill="#23BB4E"/>
</g>
<path d="M105.94 115.306C104.966 117.226 104.451 119.307 104.428 121.416C104.428 124.801 105.184 128.542 105.184 130.235V135.321C105.184 135.321 100.637 130.235 97.2241 126.502C93.8114 122.77 91.1648 119.376 91.5429 116.33C91.9209 113.283 95.3337 101.401 95.3337 101.401C97.1364 101.386 98.9078 101.823 100.448 102.662C101.988 103.501 103.235 104.708 104.05 106.148C107.074 111.235 105.94 115.306 105.94 115.306Z" fill="white" stroke="#222222" stroke-linecap="round" stroke-linejoin="round"/>
<g style="mix-blend-mode:multiply" opacity="0.5">
<path d="M94.1393 109.409L93.005 109.899C92.3085 112.572 91.6917 115.128 91.5424 116.331C91.1743 119.27 93.6319 122.566 96.8655 126.129L97.2734 119.119L105.94 115.333L98.9749 109.178L94.1393 109.409Z" fill="#23BB4E"/>
</g>
<path d="M113.302 111.662C113.302 111.662 110.795 115.822 113.501 115.991C116.207 116.161 115.62 114.085 116.008 113.399C116.396 112.713 118.138 114.29 117.172 117.55C116.207 120.81 111.372 123.091 108.466 120.49C105.561 117.889 106.347 115.145 107.312 113.052C108.277 110.959 112.168 109.934 113.302 111.662Z" fill="#222222" stroke="#222222" stroke-linecap="round" stroke-linejoin="round"/>
<path d="M107.869 74.8914C107.023 74.7845 106.138 74.7043 105.222 74.6598C101.889 74.5084 98.2574 74.7043 95.6605 76.566C90.2678 80.4319 91.1732 88.1994 91.5613 93.6063C91.999 99.7436 91.9095 108.696 97.0535 113.141C105.74 120.641 119.321 112.615 119.321 103.725C119.321 99.9663 119.48 94.2387 119.759 92.956C120.121 91.3715 120.371 89.7678 120.505 88.1548C121.102 79.9687 115.918 75.9158 107.869 74.8914Z" fill="white" stroke="#222222" stroke-linecap="round" stroke-linejoin="round"/>
<g style="mix-blend-mode:multiply" opacity="0.5">
<path d="M111.074 114.744C108.643 114.713 106.218 114.547 103.811 114.245C100.119 113.737 94.9951 108.384 97.5521 100.999C100.109 93.6148 100.119 89.7846 100.119 89.7846L91.4132 84.9121C91.2135 87.8093 91.2668 90.7161 91.5724 93.6059C92.0102 99.7433 91.9206 108.695 97.0646 113.14C101.283 116.792 106.656 116.757 111.074 114.744Z" fill="#23BB4E"/>
</g>
<path d="M106.137 98.5852C106.681 98.5852 107.122 97.9073 107.122 97.0709C107.122 96.2346 106.681 95.5566 106.137 95.5566C105.593 95.5566 105.152 96.2346 105.152 97.0709C105.152 97.9073 105.593 98.5852 106.137 98.5852Z" fill="#222222"/>
<path d="M115.859 97.4461C115.799 98.2834 115.302 98.9337 114.764 98.898C114.227 98.8624 113.829 98.1676 113.889 97.3303C113.948 96.493 114.436 95.8427 114.983 95.8784C115.53 95.914 115.918 96.6088 115.859 97.4461Z" fill="#222222"/>
<path d="M103.084 93.4478C103.084 93.4478 105.074 89.6888 108.268 91.4614L103.084 93.4478Z" fill="white"/>
<path d="M103.084 93.4478C103.084 93.4478 105.074 89.6888 108.268 91.4614" stroke="#222222" stroke-linecap="round" stroke-linejoin="round"/>
<path d="M113.451 92.1183C113.451 92.1183 115.809 89.6954 117.152 93.6682L113.451 92.1183Z" fill="white"/>
<path d="M113.451 92.1183C113.451 92.1183 115.809 89.6954 117.152 93.6682" stroke="#222222" stroke-linecap="round" stroke-linejoin="round"/>
<path d="M111.92 100.084C111.92 100.235 111.92 100.387 111.92 100.52C112.168 102.07 113.402 103.193 112.915 103.834C112.427 104.475 109.93 104.725 109.93 104.725" fill="white"/>
<path d="M111.92 100.084C111.92 100.235 111.92 100.387 111.92 100.52C112.168 102.07 113.402 103.193 112.915 103.834C112.427 104.475 109.93 104.725 109.93 104.725" stroke="#222222" stroke-linecap="round" stroke-linejoin="round"/>
<path d="M109.003 108.258C109.003 108.258 104.655 109.461 103.033 106.316L109.003 108.258Z" fill="white"/>
<path d="M109.003 108.258C109.003 108.258 104.655 109.461 103.033 106.316" stroke="#222222" stroke-linecap="round" stroke-linejoin="round"/>
<path d="M105.293 100.776C108.117 100.776 110.407 98.7263 110.407 96.1977C110.407 93.669 108.117 91.6191 105.293 91.6191C102.468 91.6191 100.179 93.669 100.179 96.1977C100.179 98.7263 102.468 100.776 105.293 100.776Z" stroke="#222222" stroke-width="0.5" stroke-linecap="round" stroke-linejoin="round"/>
<path d="M116.863 100.776C119.396 100.776 121.45 98.7263 121.45 96.1977C121.45 93.669 119.396 91.6191 116.863 91.6191C114.33 91.6191 112.276 93.669 112.276 96.1977C112.276 98.7263 114.33 100.776 116.863 100.776Z" stroke="#222222" stroke-width="0.5" stroke-linecap="round" stroke-linejoin="round"/>
<path d="M100.178 96.1973L92.875 96.4734" stroke="#222222" stroke-width="0.5" stroke-linecap="round" stroke-linejoin="round"/>
<path d="M121.452 96.1973H119.581" stroke="#222222" stroke-width="0.5" stroke-linecap="round" stroke-linejoin="round"/>
<path d="M110.396 94.8008H112.516" stroke="#222222" stroke-width="0.5" stroke-linecap="round" stroke-linejoin="round"/>
<path d="M116.894 69.4865C113.076 68.8896 109.216 68.5324 105.342 68.4176C105.342 68.4176 98.5665 65.5582 89.4228 68.7739C76.3389 73.3524 76.6275 88.9942 79.8711 98.9618C80.866 101.973 83.2042 106.542 81.0551 109.562C79.7019 111.468 75.8315 110.453 76.4185 107.834C77.0055 105.215 77.9607 106.106 78.7368 105.758C79.5129 105.411 78.3488 105.063 76.6076 104.547C74.8664 104.03 73.3441 105.438 73.1252 108.867C72.5481 118.22 87.9403 124.411 93.8106 116.234C96.1985 112.671 94.0792 106.48 93.0445 101.981C92.7159 100.424 92.4933 98.8507 92.3778 97.2693C94.2353 97.11 95.9579 96.3309 97.2034 95.087C98.1256 93.9554 98.9126 92.7402 99.5516 91.4616C100.248 91.4616 100.974 91.5061 101.77 91.5774C109.73 92.29 112.138 80.1578 112.138 80.1578C112.138 80.1578 116.118 86.9365 117.312 89.4395L118.506 91.9337C118.506 91.9337 121.7 92.29 124.883 86.2239C128.067 80.1578 124.466 70.5821 116.894 69.4865Z" fill="#222222" stroke="#222222" stroke-linecap="round" stroke-linejoin="round"/>
<path d="M111.68 77.3047C111.68 77.3047 121.47 80.3155 121.769 85.5175C122.067 90.7195 120.545 90.9868 120.545 90.9868" stroke="white" stroke-width="0.5" stroke-miterlimit="10" stroke-linecap="round"/>
<path d="M110.467 75.3887C110.467 75.3887 119.63 73.4736 122.695 78.9518" stroke="white" stroke-width="0.5" stroke-miterlimit="10" stroke-linecap="round"/>
<path d="M99.1533 69.9121C99.1533 69.9121 108.317 74.0185 109.849 77.8577C111.381 81.6969 103.432 89.0724 98.228 90.4442C93.0243 91.8159 89.0643 90.168 85.3928 92.6354C81.7214 95.1028 83.2537 101.935 83.2537 101.935" stroke="white" stroke-width="0.5" stroke-miterlimit="10" stroke-linecap="round"/>
<path d="M80.4677 94.274C80.4677 94.274 78.0201 89.072 83.2237 86.3373C88.4274 83.6027 93.0043 86.3373 98.8149 83.0504C104.626 79.7635 105.541 75.666 105.541 75.666" stroke="white" stroke-width="0.5" stroke-miterlimit="10" stroke-linecap="round"/>
<path d="M93.93 98.9957C93.93 98.9957 90.7162 92.0033 87.4925 94.4707C84.2688 96.9381 89.7909 103.521 93.4624 102.701" fill="white"/>
<path d="M93.93 98.9957C93.93 98.9957 90.7162 92.0033 87.4925 94.4707C84.2688 96.9381 89.7909 103.521 93.4624 102.701" stroke="#222222" stroke-linecap="round" stroke-linejoin="round"/>
<g opacity="0.37">
<path d="M93.93 98.9957C93.93 98.9957 90.7162 92.0033 87.4925 94.4707C84.2688 96.9381 89.7909 103.521 93.4624 102.701" fill="#23BB4E"/>
<path d="M93.93 98.9957C93.93 98.9957 90.7162 92.0033 87.4925 94.4707C84.2688 96.9381 89.7909 103.521 93.4624 102.701" stroke="#222222" stroke-linecap="round" stroke-linejoin="round"/>
</g>
<path d="M74.2984 128.087C74.2984 128.087 72.7363 127.036 69.2639 129.378C65.7914 131.721 62.5578 142.374 64.7268 146.891C66.8958 151.407 72.6866 174.887 75.3829 176.17C78.0793 177.453 107.073 177.346 110.495 176.624C113.918 175.903 116.306 171.894 115.729 168.429C115.152 164.964 111.331 164.065 110.207 164.038C109.083 164.011 85.9893 162.835 85.9893 162.835L78.8156 135.703" fill="white"/>
<mask id="mask8_5865_2082" style="mask-type:luminance" maskUnits="userSpaceOnUse" x="64" y="127" width="52" height="51">
<path d="M74.2984 128.087C74.2984 128.087 72.7363 127.036 69.2639 129.378C65.7914 131.721 62.5578 142.374 64.7268 146.891C66.8958 151.407 72.6866 174.887 75.3829 176.17C78.0793 177.453 107.073 177.346 110.495 176.624C113.918 175.903 116.306 171.894 115.729 168.429C115.152 164.964 111.331 164.065 110.207 164.038C109.083 164.011 85.9893 162.835 85.9893 162.835L78.8156 135.703" fill="white"/>
</mask>
<g mask="url(#mask8_5865_2082)">
<g style="mix-blend-mode:multiply" opacity="0.5">
<path d="M111.411 170.809C109.759 168.983 83.472 172.163 80.6662 170.809C77.8604 169.455 76.5072 166.88 78.5569 165.143C80.6065 163.406 74.6367 163.015 74.6864 161.482C74.7362 159.95 78.1589 159.532 77.94 157.483C77.7211 155.434 70.3285 155.007 70.5076 149.145C70.6867 143.284 72.3284 136.194 73.8109 134.189C74.6318 133.344 75.5755 132.601 76.6167 131.98L74.2984 128.079C74.2984 128.079 72.7363 127.028 69.2639 129.37C65.7914 131.713 62.5578 142.376 64.7268 146.892C66.8958 151.408 72.6866 174.888 75.3829 176.171C78.0793 177.454 107.073 177.347 110.495 176.625C111.602 176.308 112.607 175.759 113.428 175.023C114.248 174.287 114.86 173.385 115.212 172.394C113.371 171.922 111.898 171.343 111.411 170.809Z" fill="#23BB4E"/>
</g>
</g>
<path d="M74.2984 128.087C74.2984 128.087 72.7363 127.036 69.2639 129.378C65.7914 131.721 62.5578 142.374 64.7268 146.891C66.8958 151.407 72.6866 174.887 75.3829 176.17C78.0793 177.453 107.073 177.346 110.495 176.624C113.918 175.903 116.306 171.894 115.729 168.429C115.152 164.964 111.331 164.065 110.207 164.038C109.083 164.011 85.9893 162.835 85.9893 162.835L78.8156 135.703" stroke="#222222" stroke-linecap="round" stroke-linejoin="round"/>
<path d="M77.2041 167.843C78.9154 163.336 85.9797 163.247 85.9797 163.247C83.1622 162.586 80.2164 162.492 77.3533 162.97" stroke="#222222" stroke-width="0.5" stroke-linecap="round" stroke-linejoin="round"/>
<path d="M114.476 165.158C113.43 165.559 112.538 166.224 111.909 167.072C111.28 167.92 110.941 168.915 110.934 169.933C110.814 173.585 113.52 174.262 114.187 174.68C114.854 175.099 118.873 177.032 120.495 175.847C122.117 174.663 124.027 171.474 122.485 168.801C120.943 166.129 116.058 165.194 114.476 165.158Z" fill="white"/>
<mask id="mask9_5865_2082" style="mask-type:luminance" maskUnits="userSpaceOnUse" x="110" y="165" width="14" height="12">
<path d="M114.476 165.158C113.43 165.559 112.538 166.224 111.909 167.072C111.28 167.92 110.941 168.915 110.934 169.933C110.814 173.585 113.52 174.262 114.187 174.68C114.854 175.099 118.873 177.032 120.495 175.847C122.117 174.663 124.027 171.474 122.485 168.801C120.943 166.129 116.058 165.194 114.476 165.158Z" fill="white"/>
</mask>
<g mask="url(#mask9_5865_2082)">
<g style="mix-blend-mode:multiply" opacity="0.5">
<path d="M120.495 175.849C120.908 175.535 121.276 175.176 121.59 174.78L118.207 173.168C115.102 172.402 112.147 171.618 111.411 170.807C111.283 170.686 111.122 170.597 110.943 170.549C111.132 173.666 113.55 174.29 114.187 174.682C114.824 175.074 118.873 177.034 120.495 175.849Z" fill="#23BB4E"/>
</g>
</g>
<path d="M114.476 165.158C113.43 165.559 112.538 166.224 111.909 167.072C111.28 167.92 110.941 168.915 110.934 169.933C110.814 173.585 113.52 174.262 114.187 174.68C114.854 175.099 118.873 177.032 120.495 175.847C122.117 174.663 124.027 171.474 122.485 168.801C120.943 166.129 116.058 165.194 114.476 165.158Z" stroke="#222222" stroke-linecap="round" stroke-linejoin="round"/>
<path d="M120.077 168.428C120.077 168.428 117.609 169.274 117.271 170.94C116.933 172.605 117.052 173.505 117.48 173.612C117.908 173.719 119.331 174.298 119.331 174.298L123.718 176.338C123.718 176.338 127.201 179.901 128.345 180.186C129.489 180.471 128.504 179.803 128.345 179.028C127.847 177.918 127.202 176.865 126.425 175.892L131.618 180.008C131.618 180.008 133.33 180.56 132.932 179.393C132.534 178.226 129.877 175.83 129.877 175.83L134.782 179.812C134.782 179.812 135.777 180.221 135.777 179.705C135.833 179.446 135.813 179.178 135.719 178.929C135.625 178.679 135.46 178.455 135.24 178.28C134.683 177.879 131.34 174.449 131.34 174.449L135.996 177.006C135.996 177.006 136.991 178.19 137.688 178.208C138.384 178.226 137.986 177.825 137.459 176.427C136.932 175.028 133.39 172.98 132.126 172.178C130.862 171.376 123.957 168.526 120.077 168.428Z" fill="white" stroke="#222222" stroke-linecap="round" stroke-linejoin="round"/>
<path d="M342.692 167.362H303.828L310.823 147.053H349.686L342.692 167.362Z" fill="#222222" stroke="#222222" stroke-linecap="round" stroke-linejoin="round"/>
<path d="M339.639 169.277H300.785L307.78 148.959H346.633L339.639 169.277Z" fill="white" stroke="#222222" stroke-linecap="round" stroke-linejoin="round"/>
<path d="M283.8 161.23H347.836C349.419 161.23 350.938 161.794 352.057 162.796C353.177 163.798 353.806 165.158 353.806 166.575V181.522H283.8V161.23Z" fill="#222222" stroke="#222222" stroke-linecap="round" stroke-linejoin="round"/>
<path d="M342.344 161.23H272.308V181.549H342.344V161.23Z" fill="white" stroke="#222222" stroke-linecap="round" stroke-linejoin="round"/>
<path d="M326.584 176.1H270.637V178.781H326.584V176.1Z" fill="white" stroke="#222222" stroke-linecap="round" stroke-linejoin="round"/>
<path d="M326.584 173.418H282.576V176.099H326.584V173.418Z" fill="#222222" stroke="#222222" stroke-linecap="round" stroke-linejoin="round"/>
<path d="M270.866 179.572H226.719V181.416H270.866V179.572Z" fill="white" stroke="#222222" stroke-linecap="round" stroke-linejoin="round"/>
<path d="M304.812 114.309H209.653V169.251H304.812V114.309Z" fill="white" stroke="#222222" stroke-linecap="round" stroke-linejoin="round"/>
<path d="M304.813 114.309H214.848V169.251H304.813V114.309Z" fill="#222222" stroke="#222222" stroke-linecap="round" stroke-linejoin="round"/>
<path d="M271.89 139.836H251.065V182.254H271.89V139.836Z" fill="white" stroke="#222222" stroke-linecap="round" stroke-linejoin="round"/>
<path d="M273.811 139.836H252.986V182.254H273.811V139.836Z" fill="#222222" stroke="#222222" stroke-linecap="round" stroke-linejoin="round"/>
<path d="M251.604 140.336H274.299V169.384" stroke="white" stroke-linejoin="round"/>
<path d="M208.999 178.584H145.251V181.568H208.999V178.584Z" fill="white" stroke="#222222" stroke-linecap="round" stroke-linejoin="round"/>
<path d="M225.474 178.584H161.727V181.568H225.474V178.584Z" fill="white" stroke="#222222" stroke-linecap="round" stroke-linejoin="round"/>
<path d="M142.794 186.484H45.1174L40.4808 314.273C40.4553 314.627 40.5087 314.982 40.6379 315.317C40.7672 315.652 40.9696 315.961 41.2336 316.226C41.4975 316.49 41.8176 316.705 42.1752 316.858C42.5328 317.01 42.9208 317.097 43.3165 317.114C44.0483 317.095 44.7455 316.831 45.2705 316.375C45.7955 315.918 46.1101 315.301 46.1522 314.647L55.475 210.223C55.5933 208.361 56.4862 206.606 57.9778 205.303C59.4694 204.001 61.4517 203.245 63.5343 203.186H124.377C126.458 203.246 128.439 204.001 129.929 205.304C131.419 206.606 132.31 208.362 132.426 210.223L141.759 314.629C141.801 315.282 142.114 315.897 142.637 316.354C143.16 316.811 143.854 317.075 144.584 317.097C144.98 317.081 145.368 316.995 145.726 316.843C146.084 316.691 146.405 316.478 146.67 316.214C146.935 315.95 147.139 315.642 147.269 315.307C147.399 314.973 147.454 314.618 147.43 314.264L142.794 186.484Z" fill="#23BB4E" stroke="#222222" stroke-linecap="round" stroke-linejoin="round"/>
<path d="M143.011 192.363L142.792 186.484H110.844H77.0648H45.1164L44.8975 192.363H143.011Z" fill="#222222" stroke="#222222" stroke-linecap="round" stroke-linejoin="round"/>
<path d="M365.229 186.484H267.523L262.896 314.273C262.872 314.626 262.926 314.98 263.056 315.314C263.186 315.649 263.389 315.956 263.653 316.22C263.917 316.483 264.236 316.697 264.593 316.849C264.95 317.001 265.337 317.089 265.732 317.106C266.462 317.084 267.157 316.819 267.68 316.363C268.203 315.906 268.516 315.291 268.558 314.638L277.91 210.223C278.029 208.361 278.921 206.606 280.413 205.303C281.905 204.001 283.887 203.245 285.97 203.186H346.812C348.893 203.246 350.875 204.001 352.365 205.304C353.855 206.606 354.745 208.362 354.861 210.223L364.194 314.629C364.231 315.285 364.542 315.905 365.066 316.365C365.589 316.826 366.286 317.093 367.02 317.114C367.415 317.097 367.802 317.01 368.159 316.858C368.515 316.706 368.835 316.492 369.099 316.229C369.363 315.965 369.565 315.657 369.695 315.323C369.825 314.989 369.88 314.635 369.855 314.282L365.229 186.484Z" fill="#23BB4E" stroke="#222222" stroke-linecap="round" stroke-linejoin="round"/>
<path d="M365.875 192.363L365.667 186.484H333.718H299.929H267.98L267.771 192.363H365.875Z" fill="#222222" stroke="#222222" stroke-linecap="round" stroke-linejoin="round"/>
<path d="M371.665 181.551H37.1963V188.285H371.665V181.551Z" fill="white" stroke="#222222" stroke-linecap="round" stroke-linejoin="round"/>
<path d="M371.676 181.551H131.948V188.285H371.676V181.551Z" fill="white" stroke="#222222" stroke-linecap="round" stroke-linejoin="round"/>
</svg>
