<svg width="50" height="50" viewBox="0 0 50 50" fill="none" xmlns="http://www.w3.org/2000/svg">
<g clip-path="url(#clip0_6047_5136)">
<path d="M46.5899 46.2395C46.6094 45.6826 46.3058 45.1992 45.8653 44.9204C46.0333 44.6614 46.1288 44.362 46.1417 44.0535C46.1587 43.6006 45.9952 43.1594 45.6871 42.8269C45.379 42.4945 44.9515 42.298 44.4986 42.2806C44.4633 42.2793 44.4255 42.2885 44.3893 42.2918L44.3968 42.0797C44.4136 41.5962 44.0361 41.189 43.5549 41.1722C43.4327 41.168 43.3192 41.1963 43.2126 41.2398L43.2342 40.6199L44.5699 40.6666L44.7099 36.658L43.7422 36.6242L43.8589 33.2843L44.8265 33.3181L44.9665 29.3088L43.9989 29.275L44.1155 25.9343L45.0832 25.968L45.2232 21.9587L44.2556 21.9249L44.3722 18.5842L45.3399 18.618L45.4799 14.6095L44.5122 14.5757L44.6289 11.235L45.5965 11.2688L45.8065 5.25592L36.9596 4.94698L37.0369 2.73508L13.445 1.91123L13.3444 4.79098L11.0403 4.71052L11.0637 4.04267L4.38224 3.80935L3.21566 37.2157L1.87923 37.1691L1.80924 39.1733L3.14567 39.22L2.889 46.57L46.5252 48.0938L46.5509 47.357L46.0584 47.3398C46.368 47.0722 46.5744 46.6825 46.5899 46.2395ZM30.8972 10.7562L34.2379 10.8729L34.1213 14.2136L30.7805 14.0969L30.8972 10.7562ZM30.6406 18.1047L33.9813 18.2214L33.8646 21.5621L30.5239 21.4454L30.6406 18.1047ZM30.3839 25.4547L33.7246 25.5714L33.608 28.9121L30.2673 28.7954L30.3839 25.4547ZM30.1272 32.8048L33.468 32.9214L33.3513 36.2621L30.0106 36.1455L30.1272 32.8048ZM24.2158 10.5229L27.5565 10.6395L27.4398 13.9802L24.0991 13.8636L24.2158 10.5229ZM23.9592 17.8714L27.2999 17.9881L27.1832 21.3288L23.8425 21.2121L23.9592 17.8714ZM23.7025 25.2214L27.0432 25.3381L26.9265 28.6788L23.5858 28.5621L23.7025 25.2214ZM23.4458 32.5714L26.7865 32.6881L26.6699 36.0288L23.3292 35.9121L23.4458 32.5714ZM12.4287 46.1655L10.4244 46.0955L10.6086 40.8194L12.6129 40.8894L12.4287 46.1655ZM15.1008 46.2588L13.0965 46.1888L13.2808 40.9128L15.2851 40.9828L15.1008 46.2588ZM19.6176 46.4165L15.7686 46.2821L15.9762 40.3375L9.96341 40.1275L9.75581 46.0721L4.25042 45.8799L4.48133 39.2674L19.8485 39.804L19.6176 46.4165ZM20.1051 32.4548L19.9185 37.7998L9.89632 37.4498L10.118 31.1027L20.1401 31.4526L20.1051 32.4548ZM20.3618 25.1048L20.2101 29.4476L10.188 29.0976L10.3746 23.7526L20.3968 24.1026L20.3618 25.1048ZM20.6184 17.7547L20.4668 22.0976L10.4446 21.7476L10.6313 16.4026L20.6534 16.7526L20.6184 17.7547ZM20.8751 10.4062L20.7234 14.7491L10.7013 14.3991L10.8879 9.05409L20.9101 9.40407L20.8751 10.4062ZM20.9801 7.39905L10.9579 7.04906L11.0163 5.37833L21.0384 5.72831L20.9801 7.39905ZM22.9583 46.5332L20.7471 46.456L20.7728 45.7192L22.984 45.7964L23.1892 39.9207L26.5299 40.0374L26.3247 45.913L29.6654 46.0297L29.8706 40.154L33.2113 40.2707L33.0061 46.1464L36.0643 46.2531C36.2032 46.6145 36.4989 46.8935 36.8698 47.019L22.9583 46.5332ZM36.4725 42.687L36.5528 40.3874L39.8935 40.504L39.8577 41.5287C39.7773 41.5093 39.7011 41.4797 39.6141 41.4766C39.3664 41.469 39.1216 41.532 38.9084 41.6584C38.6952 41.7848 38.5224 41.9693 38.4102 42.1903C38.2313 42.1209 38.0425 42.0807 37.8508 42.0709C37.2999 42.0517 36.805 42.2971 36.4725 42.687ZM37.3744 45.7856C37.1338 45.7772 36.9327 46.0126 36.9412 45.7705C36.9452 45.655 36.9949 45.5458 37.0795 45.467C37.164 45.3882 37.2763 45.3461 37.3918 45.3502C37.5073 45.3542 37.6165 45.404 37.6953 45.4885C37.7741 45.573 37.8162 45.6854 37.8121 45.8009C37.8037 46.043 37.6187 45.7941 37.3744 45.7856ZM37.9245 43.4424C37.4418 43.4255 37.0237 44.1794 37.0408 43.6899C37.0489 43.4577 37.1489 43.2383 37.3189 43.0798C37.4888 42.9214 37.7147 42.8369 37.9469 42.845C38.1791 42.8531 38.3985 42.9531 38.557 43.1231C38.7154 43.293 38.7999 43.5189 38.7918 43.7511C38.7746 44.2413 38.4132 43.4594 37.9245 43.4424ZM39.7416 45.8652C39.2603 45.8484 38.8456 46.5086 38.8625 46.0229C38.871 45.7914 38.9707 45.5726 39.1399 45.4143C39.3091 45.256 39.534 45.171 39.7656 45.1779C39.8801 45.1821 39.9927 45.2089 40.0969 45.2568C40.201 45.3046 40.2947 45.3726 40.3725 45.4567C40.4504 45.5409 40.5108 45.6396 40.5503 45.7472C40.5899 45.8548 40.6077 45.9692 40.603 46.0837C40.5867 46.5694 40.2273 45.8822 39.7416 45.8652ZM40.9612 42.4009C40.9667 42.2446 41.034 42.0968 41.1484 41.9901C41.2628 41.8834 41.4149 41.8266 41.5713 41.832C41.7276 41.8375 41.8754 41.9048 41.9821 42.0192C42.0888 42.1337 42.1457 42.2858 42.1402 42.4421C42.1288 42.7689 41.8836 42.2681 41.5546 42.2566C41.2293 42.2452 40.9498 42.727 40.9612 42.4009ZM41.911 44.6007C41.6704 44.5923 41.4693 44.8284 41.4778 44.5856C41.4861 44.3465 41.6856 44.1576 41.9262 44.166C41.9835 44.1676 42.04 44.1805 42.0923 44.204C42.1447 44.2275 42.1918 44.2612 42.2311 44.303C42.2704 44.3448 42.301 44.394 42.3212 44.4477C42.3414 44.5015 42.3507 44.5586 42.3487 44.616C42.3403 44.8588 42.1576 44.6093 41.911 44.6007ZM42.6366 36.5864L35.9552 36.3531L36.0719 33.0123L42.7533 33.2457L42.6366 36.5864ZM42.8933 29.2364L36.2119 29.003L36.3285 25.6623L43.01 25.8956L42.8933 29.2364ZM43.15 21.8863L36.4686 21.653L36.5852 18.3123L43.2666 18.5456L43.15 21.8863ZM43.4066 14.5378L36.7252 14.3045L36.8418 10.9638L43.5233 11.1971L43.4066 14.5378ZM43.047 46.2193C42.7209 46.2079 42.4422 46.6897 42.4536 46.3637C42.4535 46.2845 42.4694 46.2061 42.5003 46.1332C42.5312 46.0603 42.5765 45.9944 42.6334 45.9394C42.6903 45.8843 42.7578 45.8413 42.8317 45.8129C42.9056 45.7845 42.9845 45.7713 43.0636 45.7741C43.1428 45.7769 43.2205 45.7955 43.2923 45.829C43.3641 45.8625 43.4283 45.9101 43.4813 45.969C43.5343 46.0278 43.5748 46.0968 43.6005 46.1716C43.6263 46.2465 43.6367 46.3258 43.6311 46.4048C43.6197 46.7309 43.3768 46.2308 43.047 46.2193ZM43.2983 43.3854C43.0569 43.3769 42.8539 43.688 42.8624 43.4459C42.871 43.1986 43.0697 43.0119 43.311 43.0203C43.5486 43.0286 43.742 43.229 43.7334 43.4764C43.7249 43.7185 43.5366 43.3937 43.2983 43.3854ZM44.294 44.7642C44.298 44.6488 44.3477 44.5397 44.4322 44.461C44.5166 44.3822 44.6289 44.3403 44.7443 44.3443C44.8597 44.3483 44.9688 44.398 45.0475 44.4825C45.1263 44.5669 45.1683 44.6792 45.1642 44.7946C45.1558 45.0367 44.9748 44.7167 44.7342 44.7083C44.4899 44.6997 44.2855 45.0063 44.294 44.7642ZM45.076 46.3532C44.8347 46.3448 44.6282 46.5852 44.6368 46.3379C44.6451 46.0995 44.8499 45.9078 45.0913 45.9162C45.3304 45.9246 45.5176 46.13 45.5093 46.3683C45.5006 46.6157 45.3159 46.3616 45.076 46.3532Z" fill="white"/>
</g>
<defs>
<clipPath id="clip0_6047_5136">
<rect width="48" height="48" fill="white" transform="translate(1.67578) rotate(2)"/>
</clipPath>
</defs>
</svg>
