<svg width="48" height="48" viewBox="0 0 48 48" fill="none" xmlns="http://www.w3.org/2000/svg">
<path d="M15 24H27M15 16H21" stroke="#23BB4E" stroke-width="2" stroke-linecap="round" stroke-linejoin="round"/>
<path d="M17 40C19.1008 41.7394 21.629 42.8476 24.527 43.0376C26.8104 43.1874 29.1942 43.1872 31.473 43.0376C32.2576 42.9862 33.113 42.8014 33.8496 42.502C34.669 42.169 35.079 42.0024 35.2874 42.0276C35.4956 42.0528 35.7978 42.2728 36.4022 42.7126C37.4678 43.488 38.8102 44.045 40.801 43.9972C41.8076 43.973 42.311 43.9608 42.5362 43.5818C42.7616 43.2026 42.481 42.6778 41.9196 41.6282C41.1412 40.1724 40.648 38.5058 41.3954 37.1704C42.6826 35.263 43.7758 33.0042 43.9356 30.5646C44.0214 29.2538 44.0214 27.8962 43.9356 26.5854C43.8292 24.9598 43.4346 23.4146 42.8024 22" stroke="#23BB4E" stroke-width="2" stroke-linecap="round" stroke-linejoin="round"/>
<path d="M24.69 34.9736C31.8012 34.5052 37.4656 28.8138 37.9316 21.6688C38.0228 20.2706 38.0228 18.8226 37.9316 17.4244C37.4656 10.2794 31.8012 4.58802 24.69 4.1197C22.264 3.95994 19.7311 3.96026 17.31 4.1197C10.1989 4.58802 4.5345 10.2794 4.0684 17.4244C3.9772 18.8226 3.9772 20.2706 4.0684 21.6688C4.23816 24.2712 5.39984 26.6806 6.76744 28.7152C7.56152 30.1394 7.03746 31.9172 6.21036 33.47C5.614 34.5896 5.31582 35.1494 5.55524 35.5538C5.79464 35.9582 6.32944 35.9712 7.39902 35.997C9.51424 36.048 10.9406 35.4538 12.0728 34.6268C12.7149 34.1576 13.036 33.923 13.2572 33.8962C13.4785 33.8692 13.914 34.0468 14.7848 34.4022C15.5675 34.7216 16.4762 34.9186 17.31 34.9736C19.7311 35.133 22.264 35.1332 24.69 34.9736Z" stroke="#23BB4E" stroke-width="2" stroke-linejoin="round"/>
</svg>
