<svg width="1396" height="849" viewBox="0 0 1396 849" fill="none" xmlns="http://www.w3.org/2000/svg">
<path fill-rule="evenodd" clip-rule="evenodd" d="M1144.26 629.865V722.047L1233.3 734.387L1270.77 714.82V593.822L1144.26 629.865Z" fill="#E5E5E5"/>
<path fill-rule="evenodd" clip-rule="evenodd" d="M1220.66 553.682C1220.66 553.682 1219.89 560.423 1223.99 561.242C1228.09 562.06 1249.81 565.73 1249.81 565.73L1270.99 558.141L1220.66 553.682Z" fill="#CDCBCB"/>
<path fill-rule="evenodd" clip-rule="evenodd" d="M1221.92 553.698C1221.92 553.698 1220.89 559.422 1224.99 560.241C1229.09 561.059 1250.81 564.729 1250.81 564.729L1272.68 557.5H1245.75C1245.75 557.5 1243.96 556.242 1243.96 553.698C1243.96 551.154 1243.96 548.932 1243.96 548.932L1221.92 553.698Z" fill="#D8D8D8"/>
<path fill-rule="evenodd" clip-rule="evenodd" d="M1199.99 497.227C1199.82 495.554 1201.06 494.069 1202.74 493.938L1251.44 490.107C1253.09 489.977 1254.54 491.208 1254.67 492.858L1258.64 542.335C1258.75 543.745 1257.87 545.043 1256.51 545.449L1209.81 559.427C1208 559.967 1206.15 558.727 1205.96 556.852L1199.99 497.227Z" fill="#F1F1F1"/>
<path fill-rule="evenodd" clip-rule="evenodd" d="M1180.33 752.359L1191.83 747.12V596.535L1180.33 599.588V752.359Z" fill="#F5F5F5"/>
<path fill-rule="evenodd" clip-rule="evenodd" d="M993.383 700.715V574.966L985.447 573.795V698.777L993.383 700.715Z" fill="#F5F5F5"/>
<path fill-rule="evenodd" clip-rule="evenodd" d="M1166.75 732.824V726.064L993.346 697.283L985.449 698.777L1166.75 732.824Z" fill="#F3F2F2"/>
<path fill-rule="evenodd" clip-rule="evenodd" d="M1180.82 752.412L1166.33 748.739L972.729 710.445V571.986L985.593 573.779V698.791L1166.37 732.552L1166.72 587.751L1180.32 589.607L1180.82 752.412Z" fill="#E5E5E5"/>
<path fill-rule="evenodd" clip-rule="evenodd" d="M1199.99 497.227C1199.82 495.554 1201.06 494.069 1202.74 493.938L1251.44 490.107C1253.09 489.977 1254.54 491.208 1254.67 492.858L1257.99 534.21L1204.9 546.227L1199.99 497.227Z" fill="#D8D8D8"/>
<path d="M464 445.859L1331.67 468.73" stroke="#F7F7F7" stroke-width="7"/>
<path fill-rule="evenodd" clip-rule="evenodd" d="M1233.3 734.387L1270.77 714.82V593.822L1234.68 604.103L1233.3 734.387Z" fill="#F5F5F5"/>
<path d="M513.505 -79L1379.07 265.312V618.101L1308.02 631.034V405.877L0 99.8486V-79H513.505Z" fill="#F7F7F7"/>
<path d="M948.867 233.422V592.055" stroke="#F4F4F4"/>
<path d="M1258.87 306.422V551.055" stroke="#F4F4F4"/>
<path d="M1128.87 275.422V561.055" stroke="#F4F4F4"/>
<path fill-rule="evenodd" clip-rule="evenodd" d="M1023.47 848.344L1036.8 842.282V656.475L1023.47 660.007V848.344Z" fill="#F5F5F5"/>
<path fill-rule="evenodd" clip-rule="evenodd" d="M806.784 777.019V631.52L797.586 630.164V774.777L806.784 777.019Z" fill="#F5F5F5"/>
<path fill-rule="evenodd" clip-rule="evenodd" d="M1007.73 825.743V817.921L806.739 773.049L797.586 774.777L1007.73 825.743Z" fill="#F3F2F2"/>
<path fill-rule="evenodd" clip-rule="evenodd" d="M1024.05 848.405L1007.25 844.156L782.844 788.277V628.07L797.755 630.145V774.792L1007.29 825.427L1007.7 657.882L1023.47 660.029L1024.05 848.405Z" fill="#E5E5E5"/>
<path fill-rule="evenodd" clip-rule="evenodd" d="M1022.35 660.33L1356.91 570.754V562.234L759.66 615.542L759.66 624.975L1022.35 660.33Z" fill="#E2E2E2"/>
<path fill-rule="evenodd" clip-rule="evenodd" d="M889.76 596.218C889.76 596.218 884.612 528.337 896.359 506.06C896.359 506.06 938.624 499.71 963.486 503.725C963.486 503.725 973.357 549.893 970.42 583.974L889.76 596.218Z" fill="#C2C3C9"/>
<path fill-rule="evenodd" clip-rule="evenodd" d="M889.76 596.218C889.76 596.218 884.612 528.337 896.359 506.061C896.359 506.061 898.182 506.801 898.182 509.949C898.182 519.052 892.521 532.212 891.995 546.846C891.507 560.443 893.742 595.602 893.742 595.602L889.76 596.218Z" fill="#B1B3BA"/>
<path fill-rule="evenodd" clip-rule="evenodd" d="M1022.35 651.33L1356.91 561.754L1190.76 550.869L759.66 615.975L1022.35 651.33Z" fill="#F4F4F4"/>
<path fill-rule="evenodd" clip-rule="evenodd" d="M954.815 505.198C952.623 505.307 950.928 507.161 951.017 509.354L954.081 585.233C954.177 587.627 956.343 589.4 958.709 589.022L1003.85 581.807L1002.9 502.809L954.815 505.198Z" fill="#D8D8D8"/>
<path fill-rule="evenodd" clip-rule="evenodd" d="M956.81 505.194C954.621 505.305 952.929 507.159 953.017 509.35L956.081 585.234C956.178 587.628 958.343 589.4 960.709 589.022L1034.47 577.234L1038.48 501.039L956.81 505.194Z" fill="#E6E6E6"/>
<path fill-rule="evenodd" clip-rule="evenodd" d="M990.385 603.17L1013 597.012L1019.15 598.141C1019.15 598.141 1019.47 601.409 1017.17 603.259C1014.88 605.11 1009.75 605.141 1009.75 605.141L990.385 603.17Z" fill="#EEEEEE"/>
<path d="M1022.84 540.748C1022.84 540.748 1025.45 541.548 1026.87 544.967C1028 547.699 1033.31 581.649 1035.41 595.232C1035.89 598.37 1033.84 601.314 1030.73 601.978L1029.3 602.283C1029.26 602.292 1019.75 604.478 1017.38 605.365C1015.02 606.254 1011.91 606.005 1011.91 606.005L990.387 604.513L990.371 603.161C990.387 603.162 1010.3 604.476 1011.91 604.477C1014.35 604.477 1016.53 604.336 1017.38 600.796C1018.24 597.256 1008.95 546.001 1008.67 544.546C1008.39 543.114 1007.24 543.144 1007.22 543.145V541.553L1022.84 540.748ZM1022.21 563.764C1018.08 563.764 1018.45 569.27 1018.68 570.77C1018.92 572.269 1019.75 576.81 1024.17 576.387C1028.59 575.963 1027.38 569.761 1027.22 569.015C1027.06 568.268 1026.33 563.764 1022.21 563.764Z" fill="#DCDCDC"/>
<path d="M1023.21 563.764C1027.33 563.764 1028.06 568.268 1028.22 569.015C1028.38 569.761 1029.59 575.962 1025.17 576.387C1024.8 576.423 1024.45 576.42 1024.12 576.39C1024.14 576.388 1024.16 576.388 1024.17 576.387C1028.59 575.962 1027.38 569.761 1027.22 569.015C1027.07 568.301 1026.4 564.15 1022.73 563.791C1022.88 563.773 1023.04 563.764 1023.21 563.764Z" fill="#CDCDCD"/>
<path fill-rule="evenodd" clip-rule="evenodd" d="M1007.71 544.476C1007.99 545.922 1017.29 597.187 1016.43 600.727C1015.57 604.267 1013.39 604.408 1010.95 604.408L990.371 603.173V604.513L1010.95 605.936C1010.95 605.936 1014.06 606.185 1016.43 605.297C1018.21 604.628 1018.84 601.735 1019.04 600.345C1019.11 599.847 1019.09 599.364 1018.99 598.869C1017.81 592.47 1009.21 545.768 1008.87 543.795C1008.51 541.677 1006.75 541.459 1006.75 541.459L1006.26 541.484V543.075C1006.26 543.075 1007.43 543.031 1007.71 544.476Z" fill="#CECECE"/>
<path fill-rule="evenodd" clip-rule="evenodd" d="M1036.75 598.472C1034.21 598.99 1031.86 596.994 1031.96 594.404L1035.38 502.729C1035.45 500.674 1037.08 499.012 1039.13 498.886L1125.54 493.568C1127.9 493.423 1129.87 495.348 1129.78 497.713L1126.76 576.991C1126.69 578.833 1125.37 580.389 1123.56 580.758L1036.75 598.472Z" fill="#D8D8D8"/>
<path fill-rule="evenodd" clip-rule="evenodd" d="M1038.71 598.086C1036.18 598.592 1033.84 596.596 1033.93 594.012L1037.38 502.728C1037.45 500.673 1039.07 499.012 1041.13 498.886L1127.54 493.568C1129.9 493.423 1131.87 495.348 1131.78 497.713L1128.76 576.977C1128.69 578.826 1127.36 580.385 1125.55 580.748L1038.71 598.086Z" fill="#E7E7E7"/>
<path fill-rule="evenodd" clip-rule="evenodd" d="M1034.23 586.181L1037.38 502.728C1037.45 500.673 1039.07 499.012 1041.13 498.886L1127.54 493.568C1129.9 493.423 1131.87 495.348 1131.78 497.713L1129.06 569.288L1034.23 586.181Z" fill="#23BB4E" fill-opacity="0.44"/>
<path fill-rule="evenodd" clip-rule="evenodd" d="M1049.65 595.893C1049.65 595.893 1048.89 602.424 1052.99 603.242C1057.09 604.061 1079.91 607.572 1079.91 607.572L1101.51 600.295V599.529C1101.51 599.529 1076.07 601.343 1066.25 600.614C1060.36 600.177 1050.95 595.648 1050.95 595.648L1049.65 595.893Z" fill="#CACACA"/>
<path fill-rule="evenodd" clip-rule="evenodd" d="M1050.92 595.649C1050.92 595.649 1049.89 601.423 1053.99 602.241C1058.09 603.06 1079.81 606.73 1079.81 606.73L1101.68 599.501L1074.88 598.42C1074.88 598.42 1072.96 598.243 1072.96 595.699C1072.96 593.155 1072.96 591.232 1072.96 591.232L1050.92 595.649Z" fill="#E0E0E0"/>
<path fill-rule="evenodd" clip-rule="evenodd" d="M1084.11 607.045C1083.58 607.045 1082.52 606.848 1082.01 606.126C1081.38 605.236 1081.5 603.761 1083.44 603.435C1086.95 602.845 1119.09 595.811 1119.09 595.811L1137.86 599.941L1137.88 600.197L1102.94 608.937L1086.17 606.126C1086.17 606.126 1085.29 607.045 1084.11 607.045Z" fill="#E1E1E1"/>
<path fill-rule="evenodd" clip-rule="evenodd" d="M1084.11 607.044C1083.58 607.044 1082.52 606.848 1082.01 606.126C1081.38 605.236 1081.5 603.761 1083.44 603.435C1084.28 603.293 1086.77 603.957 1088.43 604.462C1090.5 605.092 1102.94 608.578 1102.94 608.578L1137.88 599.945V600.195L1102.94 608.937L1086.17 606.126C1086.17 606.126 1085.29 607.044 1084.11 607.044Z" fill="#CACACA"/>
<path fill-rule="evenodd" clip-rule="evenodd" d="M1241.89 573.217C1241.4 573.217 1240.41 573.034 1239.94 572.364C1239.36 571.538 1239.47 570.168 1241.27 569.865C1244.53 569.317 1274.41 562.785 1274.41 562.785L1291.87 566.621L1291.89 566.858L1259.4 574.974L1243.8 572.364C1243.8 572.364 1242.99 573.217 1241.89 573.217Z" fill="#E1E1E1"/>
<path fill-rule="evenodd" clip-rule="evenodd" d="M1241.89 573.217C1241.4 573.217 1240.41 573.034 1239.94 572.364C1239.36 571.538 1239.47 570.168 1241.27 569.865C1242.05 569.734 1244.37 570.35 1245.91 570.819C1247.84 571.404 1259.4 574.641 1259.4 574.641L1291.89 566.625V566.857L1259.4 574.974L1243.8 572.364C1243.8 572.364 1242.99 573.217 1241.89 573.217Z" fill="#CACACA"/>
<path fill-rule="evenodd" clip-rule="evenodd" d="M1191.19 644.842C1191.19 644.842 1178.03 644.842 1174.87 644.842C1172.15 644.842 1124.25 659.593 1111.22 663.619C1109.19 664.247 1107.66 665.895 1107.49 668.015C1107.19 671.952 1107.58 678.148 1112.68 680.026C1112.68 680.026 1156.38 683.666 1168.55 686.33C1180.72 688.994 1200.3 685.033 1200.3 685.033L1207.17 660.877L1191.19 644.842Z" fill="#23BB4E"/>
<path fill-rule="evenodd" clip-rule="evenodd" d="M1192.95 613.4C1192.95 613.4 1189.23 611.405 1190.33 608.192C1191.44 604.98 1195.25 605.188 1195.25 605.188L1192.95 613.4Z" fill="#B1B3BA"/>
<path fill-rule="evenodd" clip-rule="evenodd" d="M1113.47 665.385C1110.36 664.982 1107.39 666.998 1107.42 670.13C1107.45 673.888 1108.43 678.458 1112.68 680.025C1112.68 680.025 1156.38 683.665 1168.55 686.329C1180.73 688.993 1200.3 685.032 1200.3 685.032L1204.6 669.924C1204.6 669.924 1187.77 668.582 1178.5 668.074C1169.23 667.565 1160.95 668.963 1142.78 668.074C1130.99 667.497 1119.84 666.214 1113.47 665.385Z" fill="#68D585"/>
<path fill-rule="evenodd" clip-rule="evenodd" d="M1138.39 659.895H1145.24C1145.24 659.895 1145.57 669.211 1146.39 670.404C1147.21 671.597 1146.39 682.949 1146.39 684.224C1146.39 685.499 1145.06 685.621 1143.82 685.56C1142.57 685.499 1136.31 685.697 1136.31 683.564C1136.31 681.432 1136.33 673.119 1137.63 669.684C1138.94 666.249 1138.39 659.895 1138.39 659.895Z" fill="#D8D8D8"/>
<path fill-rule="evenodd" clip-rule="evenodd" d="M1210.6 507.945C1210.6 507.945 1212.75 506.749 1222.56 505.361C1229.93 504.316 1242.59 504.058 1248.4 503.994C1250.22 503.974 1251.8 505.188 1252.19 506.965C1253.84 514.481 1257.66 534.957 1255.25 554.591C1252.21 579.237 1242.98 593.86 1242.98 610.385C1242.98 624.836 1250.21 653.126 1252.02 659.997C1252.27 660.956 1252.05 661.976 1251.4 662.73C1249.37 665.101 1244.74 670.502 1241.14 674.601C1236.38 680.006 1227.09 685.602 1215.81 684.343C1208.81 683.563 1203.67 684.234 1200.77 684.857C1199.42 685.146 1198 684.17 1197.92 682.796C1197.64 677.897 1196.88 667.883 1195.18 663.426C1192.89 657.407 1185.67 630.032 1196.82 600.997C1207.96 571.962 1210.64 544.734 1207.65 510.739L1210.6 507.945Z" fill="#23BB4E"/>
<path fill-rule="evenodd" clip-rule="evenodd" d="M1210.6 507.945C1210.6 507.945 1212.08 529.903 1212.08 540.982C1212.08 582.77 1192.67 606.878 1193.5 630.866C1194.6 662.721 1206.65 683.65 1203.56 683.914C1202.84 683.975 1201.76 684.281 1200.75 684.616C1199.43 685.052 1198 684.137 1197.92 682.749C1197.64 677.833 1196.88 667.869 1195.18 663.427C1192.89 657.408 1185.67 630.033 1196.82 600.998C1207.96 571.962 1210.64 544.734 1207.65 510.739L1210.6 507.945Z" fill="#68D585"/>
<path fill-rule="evenodd" clip-rule="evenodd" d="M1138.47 659.938H1137.28V630.868C1137.28 630.868 1145.05 629.526 1151.01 631.835L1147.3 658.787L1145.22 659.938H1138.47Z" fill="#23BB4E"/>
<path fill-rule="evenodd" clip-rule="evenodd" d="M1127.57 632.805C1127.57 632.805 1145.82 627.626 1159.58 635.176C1159.58 635.176 1171.79 637.01 1173.56 632.937C1175.33 628.864 1167.65 625.873 1165.79 625.333C1163.94 624.793 1150.02 619.5 1130.69 622.128C1124.4 622.984 1121.2 625.333 1121.2 629.534C1121.2 632.937 1127.57 632.805 1127.57 632.805Z" fill="#23BB4E" fill-opacity="0.44"/>
<path fill-rule="evenodd" clip-rule="evenodd" d="M1127.57 632.806C1127.57 632.806 1138.68 630.186 1145.59 630.886C1150.53 631.387 1155.57 634.026 1159.58 635.178C1163.6 636.329 1171.79 637.012 1173.56 632.938C1173.89 632.169 1173.88 631.419 1173.62 630.709C1173.62 630.709 1172.52 631.949 1162.95 630.709C1159.36 630.244 1152.92 628.464 1146.13 627.405C1142.79 626.883 1129.67 626.483 1125.22 627.405C1120.77 628.326 1121.19 629.444 1121.19 629.535C1121.19 632.938 1127.57 632.806 1127.57 632.806Z" fill="#23BB4E"/>
<path fill-rule="evenodd" clip-rule="evenodd" d="M1167.16 686.238L1165.82 696.835C1165.82 696.835 1171.78 699.77 1176.89 698.851L1179.09 687.53L1167.16 686.238Z" fill="#23BB4E"/>
<path fill-rule="evenodd" clip-rule="evenodd" d="M1125.46 765.177C1125.46 765.177 1123.58 761.18 1119.39 761.687C1115.2 762.194 1114.04 767.366 1114.04 767.366C1114.04 767.366 1110.51 764.004 1111.36 760.344C1111.36 760.344 1107.83 754.012 1113.07 751.626C1118.31 749.241 1166.82 739.104 1166.82 739.104C1166.82 739.104 1163.2 733.695 1166.12 729.536C1169.05 725.377 1175.44 730.574 1175.44 730.574L1179.96 735.281L1196.91 736.071C1196.91 736.071 1226.23 729.885 1247.51 733.666C1247.51 733.666 1251.02 736.747 1248.7 742.504C1248.7 742.504 1251.04 742.464 1252.22 743.114C1253.54 743.841 1254.78 744.894 1255.81 747.074L1254.78 747.433C1254.78 747.433 1252.06 744.123 1249.86 744.123C1246.03 744.123 1244.64 748.093 1244.64 748.093C1244.64 748.093 1240.76 745.903 1243.12 742.504C1243.12 742.504 1232.39 739.984 1214.65 744.123C1214.65 744.123 1233.42 752.041 1239.6 755.023C1246.43 758.326 1250.81 760.817 1252.22 762.536C1254.38 765.177 1252.22 770.369 1252.22 770.369C1252.22 770.369 1255.49 770.522 1257.38 771.707C1259.27 772.892 1260.61 774.394 1260.9 776.954H1259.77C1259.77 776.954 1258.31 771.707 1253.12 772.269C1248.84 772.731 1247.51 777.871 1247.51 777.871C1247.51 777.871 1243.98 774.723 1246.34 770.369C1246.34 770.369 1228.9 761.808 1221.76 759.593C1205.94 754.689 1195.88 755.001 1193.47 755.686C1193.47 755.686 1192.97 758.871 1189.53 758.871C1186.1 758.871 1183.82 758.871 1183.82 758.871C1183.82 758.871 1167.6 777.93 1167.6 779.325C1167.6 780.72 1168.11 782.565 1169.44 783.466C1170.77 784.368 1173.74 786.895 1173.74 788.469L1172.88 789.326C1172.88 789.326 1171.57 784.637 1166.82 786.055C1162.07 787.472 1160.7 792.733 1160.7 792.733C1160.7 792.733 1156.34 790.362 1157.82 786.055C1157.82 786.055 1155.17 781.099 1157.82 775.734C1160.47 770.369 1171.5 752.467 1171.5 752.467C1171.5 752.467 1156.5 752.347 1141.61 753.685C1126.71 755.023 1119.39 759.593 1119.39 759.593C1119.39 759.593 1125.07 761.235 1126.1 764.658L1125.46 765.177Z" fill="#23BB4E" fill-opacity="0.44"/>
<path fill-rule="evenodd" clip-rule="evenodd" d="M1181.87 697.923L1181.69 720.099L1180.42 720.528V737.63C1180.42 737.63 1185.86 742.879 1197.08 738.536L1196.7 721.13L1195.49 720.528L1194.27 696.699C1194.27 696.699 1191.45 694.955 1186.71 695.629C1181.98 696.303 1181.87 697.923 1181.87 697.923Z" fill="#23BB4E"/>
<path fill-rule="evenodd" clip-rule="evenodd" d="M1184.06 687.971V696.635C1184.06 696.635 1188.16 698.528 1190.82 696.635V686.514L1184.06 687.971Z" fill="#D8D8D8"/>
<path fill-rule="evenodd" clip-rule="evenodd" d="M1188.77 746.917C1191.8 748.478 1192.69 753.625 1191.3 756.972C1190.76 758.26 1190.49 758.872 1189.53 758.872C1186.1 758.872 1183.82 758.872 1183.82 758.872C1183.82 758.872 1167.6 777.931 1167.6 779.326C1167.6 780.721 1166.82 780.059 1166.82 779.326C1166.82 778.594 1173.85 765.026 1178.89 757.71C1183.93 750.395 1187.05 746.028 1188.77 746.917Z" fill="#26D558"/>
<path fill-rule="evenodd" clip-rule="evenodd" d="M1111.36 760.345C1111.36 760.345 1110.13 756.071 1115.37 753.686C1120.6 751.3 1175.38 744.785 1175.38 744.785L1171.5 752.468C1171.5 752.468 1156.5 752.347 1141.61 753.686C1126.71 755.024 1119.39 759.594 1119.39 759.594C1119.39 759.594 1117.49 758.855 1111.36 760.345Z" fill="#26D558"/>
<path fill-rule="evenodd" clip-rule="evenodd" d="M1193.47 742.723C1201.19 743.558 1207.43 745.585 1213.35 747.214C1219.28 748.843 1231.52 754.979 1237.69 757.962C1244.53 761.264 1248.31 763.221 1249.72 764.94C1251.88 767.582 1252.22 770.368 1252.22 770.368C1252.22 770.368 1252.22 770.368 1246.34 770.368C1246.34 770.368 1228.9 761.807 1221.76 759.592C1205.94 754.689 1195.88 755 1193.47 755.685V742.723Z" fill="#26D558"/>
<path fill-rule="evenodd" clip-rule="evenodd" d="M1204.51 739.105C1204.51 739.105 1224.32 734.483 1245.6 738.264C1245.6 738.264 1249.86 739.105 1248.7 742.504C1248.7 742.504 1245.6 742.504 1243.12 742.504C1243.12 742.504 1232.39 739.984 1214.65 744.123L1204.51 739.105Z" fill="#26D558"/>
<path fill-rule="evenodd" clip-rule="evenodd" d="M1169.95 796.958C1168.89 797.696 1164.65 799.608 1162.25 796.627C1159.85 793.646 1161.27 789.733 1164.09 787.644C1166.91 785.556 1172.2 784.862 1172.83 789.572C1173.47 794.282 1171 796.22 1169.95 796.958Z" fill="#23BB4E"/>
<path fill-rule="evenodd" clip-rule="evenodd" d="M1254.06 784.316C1255.99 784.316 1259.2 782.614 1259.2 777.924C1259.2 773.234 1255.69 772.441 1253.71 772.441C1251.73 772.441 1248.13 773.739 1247.69 778.617C1247.26 783.495 1252.12 784.316 1254.06 784.316Z" fill="#23BB4E"/>
<path fill-rule="evenodd" clip-rule="evenodd" d="M1244.92 749.089C1244.92 750.949 1246.01 754.374 1249.49 754.374C1252.97 754.374 1254.35 750.949 1254.35 749.089C1254.35 747.229 1253.31 744.23 1249.49 744.23C1245.68 744.23 1244.92 747.229 1244.92 749.089Z" fill="#23BB4E"/>
<path fill-rule="evenodd" clip-rule="evenodd" d="M1114.55 767.921C1114.55 767.921 1115.39 773.469 1120.01 773.469C1124.63 773.469 1125.57 768.638 1125.57 766.84C1125.57 765.042 1124.81 761.607 1120.01 761.607C1115.21 761.607 1114.55 767.921 1114.55 767.921Z" fill="#23BB4E"/>
<path fill-rule="evenodd" clip-rule="evenodd" d="M1129.14 595.521C1130.37 594.605 1150.76 594.746 1152.83 595.895C1153.43 596.231 1153.79 596.57 1153.94 596.904C1154.68 598.448 1151.29 599.883 1149.73 600.441C1147.84 601.12 1144.91 602.209 1140.2 599.84C1138.31 598.89 1131.45 598.677 1129.14 597.786C1128.34 597.479 1128.04 597.127 1128.1 596.731C1128.16 596.365 1128.54 595.961 1129.14 595.521Z" fill="#D8D8D8"/>
<path fill-rule="evenodd" clip-rule="evenodd" d="M1129.15 595.012C1130.39 594.096 1133.2 593.223 1135.08 593.048C1136.78 592.888 1139.87 592.252 1144.28 592.78C1147.53 593.168 1150.78 594.237 1152.84 595.386C1156.25 597.277 1151.64 599.253 1149.75 599.932C1147.85 600.611 1144.93 601.701 1140.21 599.331C1138.32 598.381 1131.47 598.168 1129.15 597.277C1127.62 596.686 1127.92 595.928 1129.15 595.012Z" fill="#E4E4E4"/>
<path fill-rule="evenodd" clip-rule="evenodd" d="M880.897 619.429C880.897 619.429 877.777 622.682 877.777 625.032C877.777 627.382 892.822 628.334 902.201 627.486C911.581 626.638 916.038 624.981 917.238 623.458C918.438 621.935 915.328 617.393 915.328 617.393L880.897 619.429Z" fill="#08A835" fill-opacity="0.6"/>
<path fill-rule="evenodd" clip-rule="evenodd" d="M880.97 619.706C879.422 618.452 889.225 615.904 901.374 615.573C905.986 615.448 914.239 615.826 915.049 617.199C916.088 618.96 911.699 619.659 899.817 620.361C889.679 620.959 882.517 620.959 880.97 619.706Z" fill="#23BB4E" fill-opacity="0.44"/>
<path d="M890.192 613.344L856.742 552.549L913.169 531.33L917.487 533.199L914.492 537.089L861.76 556.562L892.856 610.515" stroke="#23BB4E" stroke-width="3" stroke-linecap="round" stroke-linejoin="round"/>
<path fill-rule="evenodd" clip-rule="evenodd" d="M943.833 540.341C943.833 540.341 940.008 524.824 953.745 520.074C967.482 515.324 974.602 529.406 974.602 534.185C974.602 534.185 968.517 537.42 960.538 539.358C952.56 541.296 943.833 540.341 943.833 540.341Z" fill="#23BB4E"/>
<path fill-rule="evenodd" clip-rule="evenodd" d="M943.266 532.227C943.266 532.227 946.604 530.931 944.935 527.673L932.106 526.635L931.013 528.433H925.782C925.782 528.433 925.042 530.266 925.782 531.246C926.521 532.227 931.013 532.227 931.013 532.227L932.106 532.981L943.266 532.227Z" fill="#23BB4E" fill-opacity="0.8"/>
<path fill-rule="evenodd" clip-rule="evenodd" d="M915.733 535.004L927.503 532.886L928.709 532.669V528.162L914.742 531.583L915.733 535.004Z" fill="#23BB4E" fill-opacity="0.8"/>
<path d="M891.348 616.955H884.07L885.581 605.742L891.348 616.955ZM886.357 614.954H888.069L886.713 612.316L886.357 614.954Z" fill="#23BB4E" fill-opacity="0.44"/>
<path d="M885.797 616.227H888.797V618.785H885.797V616.227Z" fill="#ABAAAA"/>
<path fill-rule="evenodd" clip-rule="evenodd" d="M1132.19 578.616C1132.19 578.616 1129.93 581.553 1133.33 582.547C1136.74 583.541 1141.94 583.927 1146.12 583.954C1151.66 583.99 1154.91 583.185 1157.49 582.547C1161.16 581.64 1158.54 578.404 1158.54 578.404C1158.54 578.404 1154.72 580.176 1149.36 580.176C1144 580.176 1132.19 578.616 1132.19 578.616Z" fill="#CDCDCD"/>
<path fill-rule="evenodd" clip-rule="evenodd" d="M1132.4 578.972C1131.42 578.476 1133.13 576.891 1146.06 576.891C1158.98 576.891 1158.43 578.647 1158.43 578.647C1158.43 578.647 1156 580.404 1146.06 580.404C1136.11 580.404 1133.38 579.469 1132.4 578.972Z" fill="#D8D8D8"/>
<path fill-rule="evenodd" clip-rule="evenodd" d="M1337.58 575.911V674.654L1341.57 675.329V574.859L1337.58 575.911Z" fill="#D8D8D8"/>
<path fill-rule="evenodd" clip-rule="evenodd" d="M1341.58 574.859V675.328L1344.33 673.976V574.129L1341.58 574.859Z" fill="#F5F5F5"/>
<path fill-rule="evenodd" clip-rule="evenodd" d="M1337.53 666.436L1270.68 658.025V662.216L1337.53 672.834V666.436Z" fill="#D8D8D8"/>
<path fill-rule="evenodd" clip-rule="evenodd" d="M1337.53 664.651L1275.02 657.557L1270.68 658.277L1337.53 666.432V664.651Z" fill="#F5F5F5"/>
<path d="M1142.54 525.465C1144.61 525.465 1145.42 527.275 1145.33 530.317C1145.27 531.952 1145.27 546.014 1145.33 572.379C1145.33 572.931 1144.88 573.38 1144.33 573.381C1143.78 573.382 1143.33 572.935 1143.33 572.383C1143.27 545.93 1143.27 531.927 1143.33 530.253C1143.39 528.197 1143.06 527.465 1142.54 527.465C1142.38 527.465 1142.1 528.059 1141.79 529.557C1141.76 529.708 1141.64 530.308 1141.65 530.239C1141.63 530.358 1141.63 530.361 1141.6 530.485C1140.87 534.05 1140.18 548.092 1139.55 572.406C1139.54 572.958 1139.08 573.394 1138.53 573.38C1137.98 573.366 1137.54 572.907 1137.55 572.354C1138.19 547.847 1138.88 533.826 1139.65 530.085C1139.67 529.967 1139.67 529.964 1139.69 529.849C1139.7 529.79 1139.8 529.297 1139.83 529.157C1140.34 526.637 1140.92 525.465 1142.54 525.465Z" fill="#979797"/>
<path d="M1144.38 526.922L1141.09 526.155L1149.21 498.059C1149.44 497.237 1150.31 496.777 1151.13 497.045C1151.89 497.297 1152.32 498.103 1152.11 498.877L1144.38 526.922Z" fill="#979797"/>
<path fill-rule="evenodd" clip-rule="evenodd" d="M1339.79 603.523C1339.79 603.523 1329.19 603.523 1326.65 603.523C1324.46 603.523 1285.89 615.425 1275.4 618.673C1273.76 619.179 1272.53 620.507 1272.4 622.213C1272.15 625.389 1272.47 630.393 1276.57 631.91C1276.57 631.91 1311.76 634.846 1321.56 636.995C1331.36 639.145 1347.13 635.949 1347.13 635.949L1352.66 616.46L1339.79 603.523Z" fill="#C2C3C9"/>
<path fill-rule="evenodd" clip-rule="evenodd" d="M1341.21 578.156C1341.21 578.156 1338.21 576.547 1339.1 573.955C1339.99 571.364 1343.06 571.532 1343.06 571.532L1341.21 578.156Z" fill="#B1B3BA"/>
<path fill-rule="evenodd" clip-rule="evenodd" d="M1277.21 620.098C1274.71 619.772 1272.31 621.397 1272.33 623.92C1272.36 626.953 1273.15 630.643 1276.57 631.908C1276.57 631.908 1311.76 634.844 1321.56 636.994C1331.36 639.143 1347.13 635.947 1347.13 635.947L1350.58 623.758C1350.58 623.758 1337.03 622.676 1329.57 622.266C1322.11 621.856 1315.44 622.983 1300.81 622.266C1291.32 621.8 1282.34 620.766 1277.21 620.098Z" fill="#B1B3BA"/>
<path fill-rule="evenodd" clip-rule="evenodd" d="M1297.28 615.668H1302.79C1302.79 615.668 1303.06 623.184 1303.72 624.147C1304.38 625.109 1303.72 634.268 1303.72 635.297C1303.72 636.325 1302.65 636.424 1301.65 636.374C1300.65 636.325 1295.6 636.485 1295.6 634.764C1295.6 633.044 1295.61 626.337 1296.67 623.566C1297.72 620.794 1297.28 615.668 1297.28 615.668Z" fill="#D8D8D8"/>
<path fill-rule="evenodd" clip-rule="evenodd" d="M1355.42 493.078C1355.42 493.078 1357.15 492.113 1365.05 490.993C1370.99 490.15 1381.17 489.942 1385.86 489.89C1387.32 489.874 1388.59 490.852 1388.91 492.284C1390.24 498.345 1393.31 514.868 1391.37 530.711C1388.93 550.595 1381.49 562.393 1381.49 575.724C1381.49 587.386 1387.31 610.218 1388.77 615.755C1388.97 616.526 1388.79 617.346 1388.27 617.953C1386.64 619.863 1382.91 624.224 1380.01 627.533C1376.18 631.893 1368.69 636.408 1359.61 635.392C1353.98 634.763 1349.84 635.304 1347.5 635.806C1346.42 636.04 1345.27 635.254 1345.21 634.146C1344.99 630.195 1344.38 622.113 1343.01 618.517C1341.16 613.661 1335.35 591.575 1344.32 568.15C1353.29 544.725 1355.45 522.758 1353.04 495.332L1355.42 493.078Z" fill="#C2C3C9"/>
<path fill-rule="evenodd" clip-rule="evenodd" d="M1355.42 493.078C1355.42 493.078 1356.61 510.793 1356.61 519.731C1356.61 553.446 1340.98 572.895 1341.65 592.248C1342.53 617.948 1352.24 634.833 1349.75 635.046C1349.17 635.095 1348.3 635.342 1347.49 635.612C1346.42 635.964 1345.27 635.227 1345.21 634.109C1344.98 630.144 1344.37 622.102 1343.01 618.517C1341.16 613.661 1335.35 591.576 1344.32 568.151C1353.29 544.726 1355.45 522.759 1353.04 495.332L1355.42 493.078Z" fill="#B1B3BA"/>
<path fill-rule="evenodd" clip-rule="evenodd" d="M1297.34 615.703H1296.38V592.25C1296.38 592.25 1302.63 591.167 1307.44 593.029L1304.45 614.774L1302.77 615.703H1297.34Z" fill="#9B9B9B"/>
<path fill-rule="evenodd" clip-rule="evenodd" d="M1288.57 593.812C1288.57 593.812 1303.26 589.634 1314.34 595.725C1314.34 595.725 1324.17 597.205 1325.59 593.919C1327.02 590.633 1320.83 588.22 1319.34 587.784C1317.85 587.349 1306.64 583.078 1291.07 585.199C1286.01 585.889 1283.43 587.784 1283.43 591.173C1283.43 593.919 1288.57 593.812 1288.57 593.812Z" fill="#C2C3C9"/>
<path fill-rule="evenodd" clip-rule="evenodd" d="M1288.57 593.812C1288.57 593.812 1297.51 591.698 1303.07 592.263C1307.05 592.667 1311.11 594.797 1314.34 595.725C1317.57 596.654 1324.17 597.205 1325.59 593.919C1325.86 593.298 1325.85 592.693 1325.65 592.12C1325.65 592.12 1324.76 593.12 1317.05 592.12C1314.16 591.745 1308.97 590.309 1303.51 589.455C1300.82 589.033 1290.25 588.711 1286.67 589.455C1283.09 590.198 1283.43 591.099 1283.43 591.173C1283.43 593.919 1288.57 593.812 1288.57 593.812Z" fill="#B1B3BA"/>
<path fill-rule="evenodd" clip-rule="evenodd" d="M1320.44 636.922L1319.36 645.471C1319.36 645.471 1324.16 647.839 1328.28 647.098L1330.04 637.964L1320.44 636.922Z" fill="#9B9B9B"/>
<path fill-rule="evenodd" clip-rule="evenodd" d="M1286.87 700.607C1286.87 700.607 1285.35 697.383 1281.98 697.791C1278.6 698.2 1277.67 702.373 1277.67 702.373C1277.67 702.373 1274.83 699.661 1275.51 696.708C1275.51 696.708 1272.67 691.599 1276.89 689.675C1281.1 687.75 1320.16 679.572 1320.16 679.572C1320.16 679.572 1317.25 675.208 1319.61 671.853C1321.96 668.498 1327.11 672.69 1327.11 672.69L1330.75 676.487L1344.39 677.125C1344.39 677.125 1368 672.134 1385.14 675.185C1385.14 675.185 1387.96 677.67 1386.1 682.315C1386.1 682.315 1387.98 682.283 1388.93 682.808C1389.99 683.393 1390.99 684.243 1391.82 686.002L1390.99 686.291C1390.99 686.291 1388.8 683.621 1387.03 683.621C1383.94 683.621 1382.83 686.824 1382.83 686.824C1382.83 686.824 1379.7 685.057 1381.6 682.315C1381.6 682.315 1372.96 680.282 1358.68 683.621C1358.68 683.621 1373.8 690.009 1378.77 692.415C1384.27 695.08 1387.8 697.089 1388.93 698.476C1390.67 700.607 1388.93 704.796 1388.93 704.796C1388.93 704.796 1391.57 704.919 1393.09 705.875C1394.61 706.831 1395.68 708.043 1395.92 710.108H1395.01C1395.01 710.108 1393.84 705.875 1389.65 706.328C1386.2 706.702 1385.14 710.849 1385.14 710.849C1385.14 710.849 1382.29 708.308 1384.2 704.796C1384.2 704.796 1370.15 697.889 1364.4 696.102C1351.67 692.146 1343.57 692.397 1341.63 692.95C1341.63 692.95 1341.22 695.519 1338.46 695.519C1335.69 695.519 1333.86 695.519 1333.86 695.519C1333.86 695.519 1320.8 710.896 1320.8 712.022C1320.8 713.147 1321.2 714.635 1322.28 715.363C1323.35 716.09 1325.74 718.129 1325.74 719.398L1325.04 720.09C1325.04 720.09 1323.99 716.307 1320.16 717.451C1316.34 718.594 1315.23 722.839 1315.23 722.839C1315.23 722.839 1311.73 720.926 1312.92 717.451C1312.92 717.451 1310.79 713.452 1312.92 709.124C1315.06 704.796 1323.94 690.353 1323.94 690.353C1323.94 690.353 1311.85 690.256 1299.86 691.336C1287.87 692.415 1281.98 696.102 1281.98 696.102C1281.98 696.102 1286.55 697.426 1287.37 700.189L1286.87 700.607Z" fill="#D8D8D8"/>
<path fill-rule="evenodd" clip-rule="evenodd" d="M1332.28 646.348L1332.14 664.239L1331.12 664.585V678.382C1331.12 678.382 1335.5 682.618 1344.54 679.114L1344.23 665.07L1343.25 664.585L1342.27 645.36C1342.27 645.36 1340 643.954 1336.19 644.497C1332.38 645.041 1332.28 646.348 1332.28 646.348Z" fill="#9B9B9B"/>
<path fill-rule="evenodd" clip-rule="evenodd" d="M1334.05 638.318V645.308C1334.05 645.308 1337.35 646.835 1339.49 645.308V637.143L1334.05 638.318Z" fill="#D8D8D8"/>
<path fill-rule="evenodd" clip-rule="evenodd" d="M1337.84 685.875C1340.28 687.135 1341 691.288 1339.88 693.988C1339.45 695.027 1339.22 695.52 1338.46 695.52C1335.69 695.52 1333.86 695.52 1333.86 695.52C1333.86 695.52 1320.8 710.897 1320.8 712.022C1320.8 713.148 1320.17 712.613 1320.17 712.022C1320.17 711.432 1325.82 700.486 1329.89 694.583C1333.95 688.681 1336.45 685.158 1337.84 685.875Z" fill="#C9C9C9"/>
<path fill-rule="evenodd" clip-rule="evenodd" d="M1275.51 696.707C1275.51 696.707 1274.52 693.259 1278.74 691.335C1282.95 689.411 1327.06 684.154 1327.06 684.154L1323.94 690.352C1323.94 690.352 1311.86 690.255 1299.87 691.335C1287.87 692.415 1281.98 696.102 1281.98 696.102C1281.98 696.102 1280.45 695.506 1275.51 696.707Z" fill="#C9C9C9"/>
<path fill-rule="evenodd" clip-rule="evenodd" d="M1341.63 682.492C1347.84 683.166 1352.86 684.802 1357.63 686.116C1362.41 687.43 1372.26 692.381 1377.23 694.787C1382.74 697.451 1385.78 699.03 1386.91 700.417C1388.65 702.548 1388.93 704.796 1388.93 704.796C1388.93 704.796 1388.93 704.796 1384.2 704.796C1384.2 704.796 1370.15 697.889 1364.4 696.102C1351.67 692.146 1343.57 692.397 1341.63 692.95V682.492Z" fill="#C9C9C9"/>
<path fill-rule="evenodd" clip-rule="evenodd" d="M1350.52 679.572C1350.52 679.572 1366.46 675.844 1383.6 678.894C1383.6 678.894 1387.03 679.572 1386.1 682.315C1386.1 682.315 1383.6 682.315 1381.61 682.315C1381.61 682.315 1372.96 680.282 1358.68 683.621L1350.52 679.572Z" fill="#C9C9C9"/>
<path fill-rule="evenodd" clip-rule="evenodd" d="M1322.68 726.248C1321.83 726.844 1318.42 728.387 1316.49 725.981C1314.56 723.576 1315.69 720.419 1317.96 718.734C1320.24 717.049 1324.5 716.489 1325.01 720.289C1325.52 724.089 1323.53 725.653 1322.68 726.248Z" fill="#B9B9B9"/>
<path fill-rule="evenodd" clip-rule="evenodd" d="M1390.41 716.049C1391.96 716.049 1394.55 714.675 1394.55 710.892C1394.55 707.108 1391.72 706.469 1390.13 706.469C1388.53 706.469 1385.63 707.515 1385.29 711.451C1384.94 715.386 1388.85 716.049 1390.41 716.049Z" fill="#B9B9B9"/>
<path fill-rule="evenodd" clip-rule="evenodd" d="M1383.05 687.627C1383.05 689.128 1383.93 691.89 1386.73 691.89C1389.53 691.89 1390.65 689.128 1390.65 687.627C1390.65 686.126 1389.81 683.707 1386.73 683.707C1383.66 683.707 1383.05 686.126 1383.05 687.627Z" fill="#B9B9B9"/>
<path fill-rule="evenodd" clip-rule="evenodd" d="M1278.08 702.822C1278.08 702.822 1278.75 707.298 1282.47 707.298C1286.2 707.298 1286.95 703.401 1286.95 701.95C1286.95 700.499 1286.34 697.729 1282.47 697.729C1278.61 697.729 1278.08 702.822 1278.08 702.822Z" fill="#B9B9B9"/>
<path fill-rule="evenodd" clip-rule="evenodd" d="M1154.76 513.95C1154.76 513.95 1155 501.189 1164.87 499.586C1174.73 497.984 1178.41 508.505 1177.91 512.961C1177.91 512.961 1173.34 514.621 1167.03 515.19C1160.72 515.759 1154.76 513.95 1154.76 513.95Z" fill="#989898"/>
<path fill-rule="evenodd" clip-rule="evenodd" d="M1132.75 495.915C1132.75 494.321 1134 493.006 1135.59 492.919L1196.89 489.569C1198.53 489.48 1199.93 490.717 1200.05 492.35L1203.89 545.753C1204 547.336 1202.86 548.734 1201.29 548.942L1136.15 557.575C1134.35 557.813 1132.75 556.414 1132.75 554.601V495.915Z" fill="#EDEDED"/>
<path d="M1177.47 521.809C1177.47 521.809 1179.83 521.998 1181.58 527.263C1183.33 532.527 1191.97 563.769 1191.97 563.769C1191.97 563.769 1191.47 567.318 1188.96 567.318C1186.45 567.318 1175.81 569.955 1175.81 569.955C1175.81 569.955 1177.47 568.487 1177.47 563.769C1177.47 560.797 1176.06 547.444 1170.87 525.124C1170.56 523.816 1168.74 521.809 1168.74 521.809H1177.47ZM1180.86 540.457C1177.63 540.457 1177.92 544.809 1178.1 545.995C1178.28 547.181 1178.93 550.77 1182.4 550.435C1185.86 550.099 1184.91 545.197 1184.79 544.607C1184.66 544.016 1184.09 540.457 1180.86 540.457Z" fill="#DCDCDC"/>
<path d="M1180.86 540.457C1184.09 540.457 1184.66 544.016 1184.79 544.607C1184.91 545.197 1185.86 550.099 1182.4 550.435C1182.06 550.467 1181.75 550.461 1181.46 550.425C1184.85 550.036 1183.91 545.194 1183.79 544.607C1183.67 544.051 1183.16 540.859 1180.39 540.492C1180.54 540.471 1180.7 540.457 1180.86 540.457Z" fill="#CDCDCD"/>
<path fill-rule="evenodd" clip-rule="evenodd" d="M1318.98 172.552C1318.98 172.552 1324.65 165.1 1329.31 167.584L1328.26 178.542H1320.57L1318.98 172.552Z" fill="#EDEDED"/>
<ellipse cx="1324.41" cy="178.459" rx="3.90186" ry="1" fill="#C6C6C6"/>
<path d="M1324.5 178.447L1323.5 273.447" stroke="#C0C0C0" stroke-linecap="round"/>
<path fill-rule="evenodd" clip-rule="evenodd" d="M1318 283.459C1318 283.459 1316.83 284.626 1315.39 288.054C1313.95 291.481 1306.23 292.094 1299.47 309.996H1345.73C1345.73 309.996 1343 300.672 1339.99 296.58C1337.13 292.683 1334.35 291.118 1331.5 288.927C1330.63 288.262 1330.48 287.121 1330.11 285.827C1329.74 284.533 1328.73 283.459 1328.73 283.459H1318Z" fill="#EBEBEB"/>
<path fill-rule="evenodd" clip-rule="evenodd" d="M1318.09 283.459C1318.09 283.459 1319.25 274.334 1321.44 273.459C1322.3 273.113 1322.8 273.113 1323.35 273.113C1324.44 273.113 1325.14 273.113 1325.81 273.459C1326.57 273.855 1328.62 277.798 1328.62 283.459C1328.62 283.459 1326.48 284.104 1323.5 284.104C1320.52 284.104 1318.09 283.459 1318.09 283.459Z" fill="#D8D8D8"/>
<ellipse cx="1322.61" cy="309.853" rx="23.2552" ry="2.30261" fill="#D8D8D8"/>
<path fill-rule="evenodd" clip-rule="evenodd" d="M1134.13 223.773C1134.13 223.773 1132.12 225.229 1130.34 230.473C1128.57 235.717 1112.53 237.98 1104.92 263.114L1175.68 267.284C1175.68 267.284 1171.95 250.79 1166 242.904C1161.73 237.255 1157.82 234.941 1153.69 231.746C1152.43 230.777 1152.21 229.113 1151.68 227.226C1151.14 225.339 1149.47 223.773 1149.47 223.773H1134.13Z" fill="#EBEBEB"/>
<ellipse cx="1140.37" cy="265.424" rx="35.7926" ry="6" transform="rotate(3 1140.37 265.424)" fill="#D8D8D8"/>
<path fill-rule="evenodd" clip-rule="evenodd" d="M1134.15 224.452C1134.15 224.452 1136.04 211.095 1138.83 210.34C1139.77 210.086 1140.49 209.881 1142.14 209.881C1144.54 209.881 1145.35 210.204 1146.1 210.34C1147.29 210.554 1149.47 216.464 1149.47 224.452C1149.47 224.452 1148.14 225.281 1141.63 225.281C1136.23 225.281 1134.15 224.452 1134.15 224.452Z" fill="#D8D8D8"/>
<path d="M1143.36 61.752L1142.31 210.456" stroke="#C0C0C0" stroke-linecap="round"/>
<path fill-rule="evenodd" clip-rule="evenodd" d="M1136.87 578.056C1136.87 578.056 1136.61 572.146 1141.29 572.146C1145.97 572.146 1146.34 575.184 1146.16 578.056H1136.87Z" fill="#C6C6C6"/>
<path fill-rule="evenodd" clip-rule="evenodd" d="M1146.98 498.418C1146.87 497.524 1147.18 496.608 1147.95 496.148C1148.7 495.706 1149.71 495.306 1150.7 495.564C1152.61 496.059 1164.96 499.889 1166 500.242C1167.61 500.786 1167.35 502.015 1166.73 502.528C1166.32 502.863 1165.16 502.79 1163.75 502.528C1160.91 502.001 1152.09 500.635 1148.59 500.097C1147.74 499.965 1147.08 499.279 1146.98 498.418Z" fill="#9A9A9A"/>
<ellipse cx="1142.23" cy="527.457" rx="1.76987" ry="5" fill="#B6B5B5"/>
<ellipse cx="1140.5" cy="527.457" rx="2.5" ry="5" fill="#D8D8D8"/>
</svg>
