<svg width="48" height="48" viewBox="0 0 48 48" fill="none" xmlns="http://www.w3.org/2000/svg">
<path d="M44 24C44 12.9543 35.0456 4 24 4C12.9543 4 4 12.9543 4 24C4 35.0456 12.9543 44 24 44" stroke="#23BB4E" stroke-width="2" stroke-linecap="round"/>
<path d="M40 11.398C38.1306 11.5327 35.7362 12.2565 34.0758 14.4055C31.077 18.2872 28.078 18.6111 26.0788 17.3172C23.0798 15.3764 25.6 12.2327 22.0802 10.5243C19.7863 9.41084 19.4664 6.3809 20.7432 4" stroke="#23BB4E" stroke-width="2" stroke-linejoin="round"/>
<path d="M4 22C5.525 23.3242 7.66092 24.5364 10.1775 24.5364C15.3769 24.5364 16.4167 25.5298 16.4167 29.5036C16.4167 33.4774 16.4167 33.4774 17.4566 36.4576C18.133 38.3962 18.3694 40.3348 17.0212 42" stroke="#23BB4E" stroke-width="2" stroke-linejoin="round"/>
<path d="M39.7976 39.8576L44 44M42.2166 34.0918C42.2166 38.561 38.5864 42.1838 34.1082 42.1838C29.6302 42.1838 26 38.561 26 34.0918C26 29.6228 29.6302 26 34.1082 26C38.5864 26 42.2166 29.6228 42.2166 34.0918Z" stroke="#23BB4E" stroke-width="2" stroke-linecap="round"/>
</svg>
