<svg width="710" height="543" viewBox="0 0 710 543" fill="none" xmlns="http://www.w3.org/2000/svg">
<mask id="mask0_4971_15367" style="mask-type:luminance" maskUnits="userSpaceOnUse" x="0" y="0" width="710" height="543">
<path d="M710 0H0V543H710V0Z" fill="white"/>
</mask>
<g mask="url(#mask0_4971_15367)">
<path d="M350.499 297.115C350.499 241 350.275 174.91 350.275 115.087C431.514 115.087 508.819 114.363 579.275 114.363C578.67 174.045 578.05 234.242 578.05 296.603C530.919 296.603 473.068 296.855 418.126 297.004C413.541 297.018 383.035 347.363 383.035 347.363C383.035 347.363 393.991 297.064 388.835 297.076C375.669 297.1 362.821 297.115 350.506 297.115" fill="white"/>
<path d="M383.006 348.363C383.162 348.363 383.316 348.32 383.454 348.237C383.592 348.155 383.711 348.035 383.799 347.889C398.442 323.746 415.291 298.499 418.129 298.044C434.541 298.003 451.232 297.947 467.818 297.894C507.527 297.765 545.034 297.645 578.084 297.645C578.34 297.645 578.586 297.529 578.767 297.323C578.948 297.117 579.049 296.838 579.05 296.547C579.05 234.795 579.664 174.433 580.258 116.056L580.275 114.474C580.277 114.329 580.253 114.185 580.205 114.05C580.157 113.915 580.086 113.793 579.997 113.689C579.907 113.586 579.8 113.504 579.682 113.448C579.564 113.392 579.438 113.363 579.31 113.363C545.326 113.363 510.145 113.53 472.898 113.707C433.282 113.894 392.313 114.086 350.241 114.086C349.985 114.087 349.739 114.202 349.558 114.408C349.377 114.614 349.276 114.894 349.275 115.185C349.275 145.551 349.334 177.808 349.391 209.003C349.447 240.103 349.484 269.455 349.5 297.06C349.5 297.205 349.525 297.348 349.573 297.481C349.622 297.614 349.693 297.735 349.783 297.837C349.872 297.939 349.979 298.02 350.096 298.075C350.213 298.131 350.339 298.159 350.465 298.159C362.766 298.159 375.595 298.141 388.747 298.117C389.037 298.49 390.383 301.486 386.647 323.38C384.621 335.274 382.096 346.887 382.07 347.002C382.016 347.251 382.04 347.514 382.138 347.745C382.237 347.976 382.404 348.161 382.61 348.266C382.734 348.33 382.869 348.364 383.006 348.363ZM577.119 295.45C544.301 295.45 507.137 295.571 467.813 295.7C451.228 295.754 434.537 295.805 418.106 295.851C417.102 295.851 414.755 295.863 398.063 321.458C393.002 329.213 388.121 337.039 385.144 341.861C387.878 328.657 393.15 300.957 390.26 296.757C390.091 296.499 389.871 296.289 389.619 296.144C389.367 295.999 389.088 295.922 388.805 295.919C375.974 295.943 363.454 295.959 351.43 295.959C351.43 268.692 351.395 239.704 351.324 208.995C351.267 178.177 351.209 146.324 351.209 116.279C392.948 116.279 433.592 116.084 472.909 115.897C509.795 115.724 544.653 115.558 578.337 115.556V116.028C577.745 174.065 577.134 234.065 577.127 295.446" fill="black"/>
<path d="M391.737 103.238C424.749 103.098 457.759 102.83 490.767 102.436C518.701 102.153 551.066 102.818 578.997 102.418C579.368 109.393 579.368 116.388 578.997 123.363C507.193 123.363 422.763 122.197 350.492 123.363C350.085 117.928 350.377 110.224 350.377 103.487C362.53 103.478 379.595 103.289 391.737 103.238Z" fill="#23BB4E"/>
<path d="M350.453 124.363H350.466C399.124 123.586 453.161 123.854 505.417 124.115C531.2 124.243 555.553 124.363 579.031 124.363C579.273 124.363 579.507 124.26 579.685 124.074C579.864 123.888 579.973 123.632 579.992 123.359C580.369 116.399 580.37 109.42 579.996 102.46C579.985 102.177 579.877 101.91 579.695 101.716C579.512 101.522 579.27 101.415 579.02 101.419C564.216 101.627 547.933 101.54 532.184 101.457C518.278 101.38 503.905 101.303 490.768 101.435C460.192 101.741 425.527 102.087 391.711 102.23C386.76 102.252 380.988 102.296 375.066 102.34C366.447 102.404 357.537 102.472 350.34 102.477C350.214 102.477 350.088 102.505 349.971 102.56C349.854 102.615 349.748 102.695 349.659 102.797C349.569 102.898 349.498 103.018 349.45 103.15C349.402 103.283 349.377 103.424 349.377 103.567C349.377 105.532 349.351 107.578 349.326 109.628C349.266 114.485 349.204 119.515 349.494 123.365C349.514 123.637 349.625 123.891 349.802 124.075C349.98 124.26 350.213 124.363 350.455 124.363M578.109 103.615C578.411 109.8 578.419 115.999 578.132 122.185C554.936 122.185 530.878 122.061 505.425 121.934C453.482 121.676 399.789 121.414 351.346 122.169C351.142 118.565 351.196 114.045 351.254 109.662C351.275 107.979 351.297 106.296 351.303 104.659C358.328 104.651 366.837 104.586 375.079 104.523C380.999 104.479 386.768 104.434 391.72 104.419C425.54 104.275 460.203 103.927 490.784 103.624C503.909 103.491 518.278 103.568 532.177 103.643C547.602 103.727 563.543 103.813 578.112 103.619" fill="black"/>
<path d="M368.416 110.395C368.73 110.315 369.051 110.388 369.341 110.607C369.63 110.825 369.876 111.179 370.047 111.626C370.183 111.984 370.261 112.395 370.274 112.818C370.286 113.241 370.233 113.663 370.12 114.042C369.989 114.432 369.8 114.758 369.571 114.989C369.342 115.221 369.081 115.35 368.813 115.363C368.428 115.371 368.056 115.136 367.771 114.704C367.485 114.273 367.308 113.677 367.275 113.036C367.278 112.453 367.389 111.885 367.594 111.411C367.798 110.938 368.086 110.583 368.417 110.395" fill="black"/>
<path d="M386.796 110.395C387.215 110.315 387.643 110.388 388.029 110.607C388.415 110.825 388.742 111.179 388.971 111.626C389.152 111.984 389.256 112.395 389.273 112.818C389.29 113.241 389.219 113.663 389.068 114.042C388.893 114.432 388.641 114.759 388.336 114.99C388.031 115.222 387.683 115.35 387.326 115.363C386.813 115.371 386.316 115.136 385.936 114.704C385.555 114.273 385.319 113.677 385.275 113.036C385.278 112.453 385.426 111.885 385.698 111.411C385.971 110.938 386.354 110.583 386.796 110.395Z" fill="black"/>
<path d="M405.796 110.395C406.215 110.315 406.643 110.388 407.029 110.607C407.415 110.825 407.742 111.179 407.971 111.626C408.152 111.984 408.256 112.395 408.273 112.818C408.29 113.241 408.219 113.663 408.068 114.042C407.893 114.432 407.641 114.758 407.336 114.99C407.031 115.221 406.683 115.35 406.326 115.363C405.813 115.371 405.316 115.136 404.936 114.704C404.555 114.273 404.319 113.677 404.275 113.036C404.279 112.453 404.427 111.885 404.7 111.411C404.972 110.938 405.356 110.583 405.798 110.395" fill="black"/>
<path d="M467.245 184.362H547.308C547.435 184.362 547.561 184.334 547.678 184.279C547.796 184.224 547.902 184.143 547.992 184.042C548.082 183.94 548.153 183.819 548.202 183.686C548.251 183.553 548.276 183.41 548.275 183.266V148.461C548.276 148.317 548.251 148.174 548.202 148.041C548.153 147.908 548.082 147.787 547.992 147.685C547.902 147.583 547.796 147.502 547.678 147.447C547.561 147.392 547.435 147.363 547.308 147.363H467.245C467.118 147.363 466.991 147.391 466.874 147.447C466.756 147.502 466.649 147.583 466.559 147.685C466.469 147.787 466.398 147.908 466.349 148.041C466.3 148.174 466.275 148.317 466.275 148.461V183.268C466.275 183.412 466.3 183.554 466.349 183.687C466.398 183.82 466.469 183.941 466.559 184.043C466.65 184.145 466.756 184.226 466.874 184.28C466.992 184.335 467.118 184.363 467.245 184.362ZM546.335 182.17H468.214V149.554H546.335V182.17Z" fill="black"/>
<path d="M506.236 234.363H547.317C547.443 234.363 547.567 234.336 547.684 234.282C547.8 234.228 547.906 234.15 547.995 234.051C548.084 233.952 548.155 233.835 548.203 233.706C548.251 233.577 548.276 233.439 548.275 233.299V207.427C548.276 207.288 548.251 207.149 548.203 207.02C548.155 206.891 548.084 206.774 547.995 206.675C547.906 206.576 547.8 206.498 547.684 206.445C547.567 206.391 547.443 206.363 547.317 206.363H506.236C505.981 206.364 505.737 206.476 505.557 206.675C505.377 206.875 505.276 207.145 505.275 207.427V233.299C505.276 233.582 505.377 233.852 505.557 234.051C505.737 234.251 505.981 234.363 506.236 234.363ZM546.356 232.232H507.196V208.479H546.356V232.232Z" fill="black"/>
<path d="M440.236 234.363H481.315C481.57 234.363 481.814 234.251 481.994 234.051C482.174 233.852 482.275 233.582 482.275 233.299V207.427C482.275 207.145 482.174 206.875 481.994 206.675C481.814 206.476 481.57 206.364 481.315 206.363H440.236C440.11 206.363 439.985 206.391 439.868 206.444C439.752 206.497 439.646 206.576 439.556 206.675C439.467 206.773 439.396 206.891 439.348 207.02C439.3 207.149 439.275 207.287 439.275 207.427V233.299C439.275 233.439 439.3 233.578 439.348 233.707C439.396 233.836 439.467 233.953 439.556 234.052C439.646 234.151 439.752 234.229 439.868 234.283C439.985 234.336 440.11 234.363 440.236 234.363ZM480.354 232.232H441.194V208.479H480.353L480.354 232.232Z" fill="black"/>
<path d="M375.234 234.363H416.315C416.57 234.363 416.814 234.251 416.994 234.051C417.174 233.852 417.275 233.582 417.275 233.299V207.427C417.275 207.145 417.174 206.875 416.994 206.675C416.814 206.476 416.57 206.364 416.315 206.363H375.234C375.108 206.363 374.983 206.391 374.867 206.445C374.751 206.498 374.645 206.576 374.556 206.675C374.467 206.774 374.396 206.891 374.348 207.02C374.3 207.149 374.275 207.288 374.275 207.427V233.299C374.275 233.439 374.3 233.577 374.348 233.706C374.396 233.835 374.467 233.952 374.556 234.051C374.645 234.15 374.751 234.228 374.867 234.282C374.983 234.336 375.108 234.363 375.234 234.363ZM415.351 232.232H376.194V208.479H415.35L415.351 232.232Z" fill="black"/>
<path d="M395.599 155.361L442.96 155.033C443.001 155.033 443.043 155.025 443.081 155.008C443.12 154.991 443.155 154.966 443.184 154.935C443.213 154.903 443.237 154.866 443.252 154.826C443.268 154.785 443.276 154.741 443.275 154.697C443.277 154.653 443.269 154.608 443.254 154.567C443.238 154.526 443.214 154.488 443.184 154.457C443.154 154.425 443.118 154.401 443.078 154.385C443.039 154.369 442.997 154.362 442.954 154.364L395.595 154.69C395.511 154.69 395.429 154.725 395.369 154.788C395.309 154.852 395.275 154.937 395.275 155.027C395.275 155.116 395.309 155.201 395.369 155.265C395.429 155.328 395.511 155.363 395.595 155.363" fill="black"/>
<path d="M404.589 166.363L442.953 165.704C443.039 165.704 443.121 165.634 443.181 165.508C443.241 165.382 443.275 165.212 443.275 165.034C443.275 164.856 443.241 164.685 443.181 164.56C443.121 164.434 443.039 164.363 442.953 164.363L404.598 165.013C404.512 165.013 404.43 165.083 404.37 165.209C404.309 165.335 404.275 165.505 404.275 165.683C404.275 165.861 404.309 166.032 404.37 166.157C404.43 166.283 404.512 166.354 404.598 166.354" fill="black"/>
<path d="M395.599 176.361L442.96 176.035C443.001 176.035 443.043 176.026 443.081 176.009C443.12 175.991 443.155 175.966 443.184 175.935C443.213 175.904 443.236 175.867 443.252 175.826C443.268 175.785 443.276 175.742 443.275 175.698C443.277 175.653 443.27 175.608 443.254 175.567C443.239 175.525 443.215 175.488 443.185 175.456C443.154 175.425 443.118 175.4 443.079 175.384C443.039 175.368 442.997 175.361 442.954 175.364L395.595 175.69C395.511 175.69 395.429 175.725 395.369 175.788C395.309 175.852 395.275 175.937 395.275 176.027C395.275 176.116 395.309 176.202 395.369 176.265C395.429 176.328 395.511 176.363 395.595 176.363" fill="black"/>
<path d="M510.588 251.363L542.963 251.037C543.046 251.037 543.125 251.002 543.184 250.938C543.243 250.875 543.275 250.789 543.275 250.7C543.275 250.611 543.243 250.525 543.184 250.462C543.125 250.399 543.046 250.363 542.963 250.363L510.588 250.69C510.505 250.69 510.425 250.725 510.367 250.788C510.308 250.851 510.275 250.937 510.275 251.026C510.275 251.116 510.308 251.201 510.367 251.265C510.425 251.328 510.505 251.363 510.588 251.363Z" fill="black"/>
<path d="M512.603 262.363L539.948 261.711C540.035 261.711 540.118 261.64 540.179 261.513C540.241 261.387 540.275 261.216 540.275 261.037C540.275 260.858 540.241 260.687 540.179 260.561C540.118 260.434 540.035 260.363 539.948 260.363L512.603 261.016C512.516 261.016 512.433 261.087 512.371 261.213C512.31 261.34 512.275 261.511 512.275 261.69C512.275 261.868 512.31 262.04 512.371 262.166C512.433 262.292 512.516 262.363 512.603 262.363Z" fill="black"/>
<path d="M444.588 251.363L476.963 251.037C477.046 251.037 477.125 251.002 477.184 250.938C477.243 250.875 477.275 250.789 477.275 250.7C477.275 250.611 477.243 250.525 477.184 250.462C477.125 250.399 477.046 250.363 476.963 250.363L444.588 250.69C444.505 250.69 444.425 250.725 444.367 250.788C444.308 250.851 444.275 250.937 444.275 251.026C444.275 251.116 444.308 251.201 444.367 251.265C444.425 251.328 444.505 251.363 444.588 251.363Z" fill="black"/>
<path d="M447.603 262.363L474.948 261.711C475.035 261.711 475.118 261.64 475.179 261.513C475.241 261.387 475.275 261.216 475.275 261.037C475.275 260.858 475.241 260.687 475.179 260.561C475.118 260.434 475.035 260.363 474.948 260.363L447.603 261.016C447.516 261.016 447.433 261.087 447.371 261.213C447.31 261.34 447.275 261.511 447.275 261.69C447.275 261.868 447.31 262.04 447.371 262.166C447.433 262.292 447.516 262.363 447.603 262.363Z" fill="black"/>
<path d="M379.588 251.363L411.963 251.037C412.046 251.037 412.125 251.002 412.184 250.938C412.243 250.875 412.275 250.789 412.275 250.7C412.275 250.611 412.243 250.525 412.184 250.462C412.125 250.399 412.046 250.363 411.963 250.363L379.588 250.69C379.505 250.69 379.425 250.725 379.367 250.788C379.308 250.851 379.275 250.937 379.275 251.026C379.275 251.116 379.308 251.201 379.367 251.265C379.425 251.328 379.505 251.363 379.588 251.363Z" fill="black"/>
<path d="M381.603 262.363L408.948 261.711C409.035 261.711 409.118 261.64 409.179 261.513C409.241 261.387 409.275 261.216 409.275 261.037C409.275 260.858 409.241 260.687 409.179 260.561C409.118 260.434 409.035 260.363 408.948 260.363L381.603 261.016C381.516 261.016 381.433 261.087 381.371 261.213C381.31 261.34 381.275 261.511 381.275 261.69C381.275 261.868 381.31 262.04 381.371 262.166C381.433 262.292 381.516 262.363 381.603 262.363Z" fill="black"/>
<path d="M235.424 40.1432C251.595 36.3914 292.251 25.7589 301.002 48.0249C325.202 109.618 108.224 198.612 79.6778 168.404C53.1245 140.307 141.971 80.7959 150.299 76.0403C177.551 60.4809 206.209 46.9191 235.423 40.1432" fill="white"/>
<path d="M101.472 175.953C116.654 175.953 137.746 171.724 162.721 163.406C204.355 149.531 246.541 127.482 272.819 105.846C298.681 84.5526 308.834 64.3437 302.184 47.4195C293.382 25.019 255.542 33.9073 237.359 38.1801L235.165 38.6926C209.491 44.6474 182.339 56.0912 149.722 74.7186C149.012 75.1235 77.7648 120.067 73.6309 153.218C73.2031 156.209 73.4534 159.277 74.3578 162.126C75.2622 164.975 76.7905 167.51 78.7964 169.49C82.8857 173.813 90.6882 175.947 101.472 175.947M272.944 35.8497C285.017 35.8497 295.951 38.8016 299.819 48.6427C307.505 68.2017 288.556 89.236 271.305 103.443C245.252 124.9 203.367 146.787 161.995 160.563C120.794 174.296 89.5874 176.877 80.5553 167.326C78.8546 165.675 77.5584 163.546 76.7942 161.148C76.03 158.751 75.8239 156.166 76.1963 153.65C79.8119 124.626 142.131 82.3709 150.879 77.3774C183.286 58.8732 210.234 47.5044 235.68 41.6063L237.88 41.0881C246.177 39.1428 260.194 35.8497 272.944 35.8497Z" fill="black"/>
<path d="M127.41 158.696C127.905 183.179 114.81 208.178 94.6058 216.239C83.6045 220.628 71.5456 220.009 60.2734 223.378C49.0012 226.746 37.5138 236.458 37.4384 249.793C37.3889 258.652 41.7788 278.742 18.6085 290.512C-0.507044 300.222 4.05973 352.75 63.2619 374.839C81.3978 381.605 69.7075 364.582 88.5609 361.262C107.178 357.983 124.061 345.93 136.91 330.163C149.759 314.395 158.842 295.06 165.921 275.089C174.076 252.084 179.775 226.669 174.739 202.525C169.704 178.38 151.095 156.556 127.41 158.696Z" fill="black"/>
<path d="M69.9914 377.88C74.0238 377.88 75.5292 375.384 77.0419 371.934C78.6364 368.302 80.4423 364.187 88.7557 362.731C106.371 359.629 123.808 348.422 137.853 331.176C149.269 317.16 158.843 298.994 167.119 275.642C177.516 246.313 180.336 222.967 175.994 202.179C171.091 178.694 152.344 154.954 127.31 157.225C126.98 157.254 126.672 157.427 126.45 157.708C126.228 157.989 126.108 158.357 126.116 158.736C126.611 183.665 113.185 207.265 94.1797 214.846C88.1842 217.24 81.6866 218.136 75.3993 219.003C70.1965 219.585 65.0342 220.569 59.9475 221.949C48.5381 225.36 36.2244 235.526 36.144 249.792C36.144 250.946 36.2046 252.285 36.2751 253.699C36.7773 263.893 37.5367 279.282 18.0847 289.165C10.9105 292.809 6.77175 302.156 7.2826 313.554C8.16701 333.242 23.2502 361.477 62.858 376.254C65.1502 377.212 67.5573 377.761 69.9951 377.883M130.614 160.036C152.669 160.036 169.022 181.555 173.47 202.864C177.675 223.024 174.899 245.795 164.715 274.527C156.559 297.532 147.15 315.402 135.955 329.15C122.304 345.911 105.402 356.795 88.3574 359.798C78.7254 361.497 76.4136 366.759 74.7252 370.607C73.0368 374.455 72.1041 376.583 63.6559 373.43C25.2998 359.118 10.7151 332.148 9.86902 313.401C9.41382 303.257 12.9614 295.008 19.1349 291.873C40.2246 281.16 39.3699 263.866 38.8603 253.534C38.7898 252.104 38.7292 250.872 38.7366 249.809C38.8071 237.109 50.1164 227.951 60.6031 224.816C65.577 223.474 70.6238 222.515 75.7098 221.945C82.1319 221.061 88.7743 220.144 95.0344 217.648C114.702 209.796 128.717 185.742 128.722 160.094C129.358 160.058 129.993 160.04 130.617 160.04" fill="black"/>
<path d="M243.13 102.777C236.893 137.569 230.87 175.009 243.318 207.545C247.363 218.121 253.246 227.745 256.568 238.641C260.519 251.596 260.65 265.683 259.563 279.345C257.518 305.176 250.742 331.677 234.871 350.194C219 368.711 192.444 376.778 172.871 363.717C155.694 352.258 147.849 327.63 148.93 304.907C150.011 282.184 158.482 260.852 167.422 240.523C188.899 191.678 213.931 144.895 243.123 102.78" fill="black"/>
<path d="M194.498 371.535C210.068 371.278 224.917 363.975 235.797 351.223C249.963 334.694 258.394 310.552 260.854 279.47C262.195 262.52 261.225 249.389 257.792 238.146C255.692 231.809 253.151 225.675 250.193 219.803C248.214 215.632 246.179 211.323 244.503 206.941C232.712 176.129 237.479 141.673 244.396 103.069C244.449 102.746 244.406 102.411 244.275 102.118C244.143 101.825 243.93 101.591 243.669 101.452C243.409 101.312 243.115 101.276 242.834 101.349C242.554 101.422 242.302 101.6 242.12 101.855C214.6 141.56 189.081 187.988 166.272 239.855C157.454 259.902 148.755 281.434 147.642 304.824C146.416 330.591 156.066 354.215 172.226 364.994C179.014 369.396 186.702 371.655 194.503 371.542M240.776 108.599C234.394 145.24 230.671 178.179 242.13 208.129C243.85 212.621 245.916 216.99 247.916 221.212C250.804 226.946 253.289 232.935 255.346 239.12C258.65 249.951 259.58 262.686 258.273 279.201C255.87 309.585 247.685 333.114 233.947 349.141C217.286 368.581 191.311 374.289 173.523 362.425C158.196 352.197 149.049 329.647 150.222 304.975C151.305 282.156 159.886 260.944 168.578 241.179C190.376 191.617 214.649 147.043 240.775 108.597" fill="black"/>
<path d="M199.175 272.462C198.617 253.916 200.615 243.529 201.266 229.66C194.706 225.905 187.686 223.313 180.445 221.971C177.198 221.372 173.541 221.142 171.044 223.387C169.479 224.793 162.069 217.309 161.302 219.369C156.024 233.527 155.577 253.712 150.301 267.868C149.895 268.958 131.411 266.996 131.005 268.093C129.287 272.706 130.728 311.086 132.008 312.06C199.637 363.528 232.212 289.92 232.212 289.92C232.212 289.92 219.947 281.311 199.176 272.468" fill="white"/>
<path d="M177.533 331.818C182.384 331.826 187.216 331.115 191.908 329.703C219.461 321.393 232.816 291.839 233.372 290.583C233.518 290.251 233.551 289.868 233.462 289.51C233.373 289.152 233.17 288.845 232.893 288.651C222.525 281.862 211.67 276.099 200.446 271.422C200.248 261.938 200.633 252.45 201.597 243.029C201.968 238.8 202.339 234.425 202.563 229.741C202.578 229.453 202.518 229.166 202.391 228.916C202.264 228.667 202.077 228.465 201.851 228.336C195.173 224.509 188.025 221.871 180.652 220.512C177.436 219.916 173.374 219.562 170.413 222.069C169.074 221.522 167.797 220.794 166.609 219.9C163.986 218.142 162.438 217.171 161.2 217.635C160.957 217.725 160.734 217.874 160.546 218.072C160.358 218.269 160.21 218.511 160.111 218.78C157.419 226.008 155.951 234.816 154.531 243.336C153.178 251.454 151.779 259.838 149.336 266.662C147.924 266.821 143.814 266.632 140.724 266.491C131.242 266.053 130.319 266.137 129.812 267.503C128.61 270.727 128.903 285.342 129.087 291.482C129.697 312.076 130.773 312.893 131.289 313.285C147.493 325.614 162.984 331.811 177.528 331.814M230.469 290.459C227.634 296.122 214.546 319.818 191.221 326.836C173.49 332.173 153.907 326.851 132.998 311.026C131.896 306.947 130.836 275.242 132.035 269.273C133.5 269.131 137.561 269.313 140.619 269.453C150.068 269.877 150.984 269.801 151.492 268.443C154.186 261.216 155.651 252.408 157.074 243.891C158.425 235.788 159.82 227.415 162.253 220.597C163.302 221.139 164.32 221.76 165.298 222.454C168.136 224.357 170.377 225.862 171.847 224.543C174.027 222.583 177.478 222.919 180.24 223.428C187.069 224.692 193.7 227.093 199.921 230.556C199.701 234.787 199.363 238.655 199.01 242.731C197.996 252.612 197.616 262.565 197.873 272.509C197.882 272.803 197.967 273.087 198.117 273.326C198.267 273.564 198.476 273.746 198.717 273.849C209.67 278.414 220.29 283.969 230.474 290.463" fill="black"/>
<path d="M250.128 111.313C248.137 128.487 245.106 146.504 248.986 163.605C251.103 172.931 250.904 220.338 217.67 233.839C208.552 237.538 198.824 238.84 189.206 237.65C179.588 236.46 170.328 232.808 162.111 226.964C149.886 218.478 135.047 192.116 137.998 165.944C127.884 169.157 117.886 161.347 117.768 150.937C117.7 144.934 123.48 137.413 129.592 137.757C134.321 138.021 134.884 138.075 138.483 141.222C141.129 128.483 142.387 115.418 142.23 102.325C153.726 87.8299 172.155 80.4253 190.594 77.2653C196.712 76.0324 202.948 75.7613 209.131 76.4597C226.819 78.9883 252.176 93.6756 250.131 111.315" fill="white"/>
<path d="M196.133 239.617C203.622 239.602 211.053 238.117 218.104 235.228C251.392 221.704 252.836 174.652 250.242 163.223C246.896 148.489 248.808 132.889 250.653 117.801C250.913 115.692 251.169 113.585 251.413 111.5C251.989 106.529 250.632 101.565 247.383 96.7502C239.466 85.0148 221.847 76.775 209.285 74.977C202.985 74.2744 196.631 74.5487 190.395 75.7924C175.144 78.4088 154.244 84.9625 141.265 101.322C141.044 101.601 140.924 101.967 140.93 102.344C141.086 114.561 139.983 126.757 137.644 138.679C135.102 136.658 133.872 136.503 129.651 136.272C127.998 136.259 126.359 136.629 124.834 137.361C123.309 138.093 121.93 139.171 120.779 140.53C118.198 143.219 116.649 146.965 116.467 150.953C116.531 153.535 117.115 156.065 118.174 158.346C119.232 160.627 120.737 162.597 122.57 164.103C124.552 165.771 126.809 166.963 129.205 167.605C131.601 168.247 134.085 168.327 136.509 167.839C134.406 194.507 149.395 219.868 161.433 228.225C171.863 235.604 183.868 239.546 196.129 239.618M248.843 111.109C248.602 113.195 248.349 115.287 248.086 117.389C246.204 132.762 244.258 148.663 247.733 163.969C249.186 170.369 251.015 218.713 217.236 232.434C208.304 236.09 198.764 237.382 189.332 236.214C179.901 235.045 170.824 231.447 162.781 225.688C151.327 217.734 136.369 191.954 139.28 166.129C139.307 165.887 139.281 165.64 139.205 165.412C139.129 165.183 139.004 164.98 138.843 164.82C138.681 164.659 138.488 164.547 138.279 164.494C138.071 164.44 137.854 164.446 137.648 164.511C135.358 165.253 132.95 165.388 130.607 164.906C128.265 164.423 126.049 163.337 124.128 161.728C122.613 160.493 121.367 158.875 120.487 156.999C119.607 155.123 119.118 153.04 119.057 150.912C119.24 147.742 120.503 144.78 122.576 142.665C123.473 141.589 124.55 140.73 125.744 140.14C126.937 139.551 128.222 139.242 129.521 139.234C134.108 139.488 134.384 139.507 137.685 142.392C137.858 142.542 138.06 142.641 138.274 142.678C138.488 142.716 138.707 142.691 138.911 142.606C139.115 142.522 139.297 142.38 139.44 142.194C139.584 142.009 139.684 141.784 139.732 141.543C142.365 128.88 143.638 115.897 143.521 102.882C156.014 87.4783 176.075 81.2404 190.772 78.7203C196.774 77.5212 202.89 77.2521 208.955 77.9204C220.995 79.6377 237.832 87.4585 245.321 98.561C248.132 102.726 249.316 106.952 248.835 111.105" fill="black"/>
<path d="M177.517 180.856C188.34 180.856 197.92 170.636 199.48 156.801C200.331 149.791 198.876 142.668 195.398 136.816C193.795 134.036 191.686 131.684 189.217 129.921C186.748 128.157 183.975 127.024 181.089 126.597C178.202 126.171 175.269 126.461 172.489 127.449C169.71 128.437 167.149 130.098 164.981 132.321C160.318 136.97 157.329 143.435 156.594 150.463C154.913 165.368 163.166 178.92 174.989 180.667C175.827 180.792 176.672 180.855 177.517 180.856ZM178.53 129.372C179.275 129.371 180.018 129.426 180.757 129.536C183.278 129.932 185.697 130.936 187.854 132.483C190.011 134.029 191.856 136.082 193.268 138.505C196.382 143.753 197.681 150.137 196.912 156.419C195.414 169.706 185.725 179.263 175.32 177.725C164.915 176.188 157.663 164.127 159.161 150.842C159.815 144.543 162.489 138.745 166.664 134.574C169.945 131.262 174.159 129.416 178.533 129.372" fill="black"/>
<path d="M237.63 184.008C242.619 183.965 247.427 181.865 251.173 178.093C255.79 173.403 258.769 166.96 259.559 159.952C260.35 152.945 258.898 145.847 255.472 139.969C253.869 137.188 251.76 134.837 249.291 133.073C246.822 131.31 244.049 130.176 241.163 129.749C238.276 129.323 235.343 129.613 232.564 130.601C229.784 131.589 227.223 133.251 225.055 135.474C220.392 140.122 217.403 146.587 216.669 153.615C214.988 168.521 223.24 182.073 235.063 183.82C235.914 183.945 236.772 184.008 237.63 184.008ZM238.608 132.524C239.353 132.524 240.096 132.579 240.835 132.689C243.356 133.084 245.775 134.088 247.932 135.634C250.089 137.18 251.935 139.234 253.346 141.658C256.406 146.932 257.701 153.293 256.993 159.573C256.284 165.852 253.62 171.629 249.489 175.84C247.586 177.773 245.345 179.221 242.916 180.09C240.487 180.958 237.925 181.227 235.398 180.878C224.987 179.344 217.736 167.28 219.238 153.992C219.889 147.691 222.563 141.892 226.741 137.72C230.022 134.409 234.235 132.562 238.609 132.519" fill="black"/>
<path d="M139.824 142.998C149.548 125.759 155.501 113.346 158.708 92.3687C194.566 116.624 228.626 112.456 262.973 110.927C263.58 104.121 262.574 97.2542 260.06 91.0478C254.123 75.5337 246.701 62.1022 225.972 51.5249C211.444 44.1104 191.885 39.1906 176.157 41.7942C160.524 44.3837 147.08 54.0535 136.136 65.6657C127.428 74.9051 120.055 90.0497 117.458 105.016C115.231 117.833 117.971 127.282 122.987 140.333C125.807 138.594 128.459 136.836 131.726 137.552C134.993 138.268 137.095 140.168 139.818 143" fill="black"/>
<path d="M139.826 144.487C139.882 144.488 139.938 144.484 139.993 144.476C140.179 144.448 140.358 144.374 140.517 144.26C140.675 144.145 140.81 143.991 140.912 143.811C149.66 128.302 156.176 115.581 159.65 94.7184C192.222 116.016 223.753 114.406 254.265 112.84C257.184 112.69 260.103 112.54 263.025 112.416C263.332 112.402 263.625 112.264 263.851 112.026C264.078 111.788 264.223 111.466 264.262 111.117C264.894 104.046 263.854 96.9106 261.248 90.4583C255.813 76.2722 248.655 61.4773 226.5 50.1737C213.475 43.5294 193.363 37.4501 175.973 40.3326C161.932 42.6545 148.231 50.8094 135.255 64.5849C126.113 74.2859 118.804 89.6669 116.193 104.732C113.803 118.508 117.164 128.85 121.806 140.935C121.878 141.123 121.983 141.291 122.115 141.43C122.246 141.568 122.402 141.674 122.571 141.741C122.74 141.806 122.92 141.831 123.098 141.814C123.276 141.797 123.45 141.738 123.607 141.642L123.959 141.426C126.556 139.814 128.81 138.424 131.488 139.02C134.522 139.685 136.496 141.548 138.955 144.105C139.191 144.353 139.5 144.491 139.821 144.492M158.703 90.8986C158.398 90.8997 158.103 91.0233 157.87 91.248C157.637 91.4726 157.48 91.784 157.428 92.1275C154.234 113.02 148.002 125.682 139.551 140.748C137.455 138.416 134.827 136.807 131.969 136.106C128.762 135.398 126.126 136.75 123.612 138.272C118.693 125.247 116.742 116.752 118.729 105.311C121.203 91.0501 128.377 75.9197 137.011 66.7624C149.594 53.4116 162.826 45.5073 176.335 43.2718C193.177 40.4855 212.743 46.412 225.442 52.8878C246.75 63.7595 253.644 77.9995 258.872 91.6532C261.116 97.2384 262.122 103.371 261.799 109.508C259.246 109.625 256.696 109.757 254.146 109.886C223.511 111.453 191.839 113.068 159.363 91.1053C159.164 90.9702 158.935 90.8988 158.703 90.8986Z" fill="black"/>
<path d="M191.766 208.758C194.263 208.809 196.695 207.846 198.631 206.04C198.891 205.787 199.054 205.427 199.083 205.038C199.113 204.648 199.007 204.261 198.788 203.961C198.57 203.661 198.257 203.471 197.917 203.434C197.577 203.397 197.238 203.515 196.973 203.762C194.53 206.091 190.875 206.438 187.202 204.679C182.981 202.596 179.591 198.786 177.695 193.993C177.623 193.817 177.521 193.658 177.395 193.526C177.27 193.395 177.123 193.293 176.962 193.226C176.802 193.159 176.632 193.13 176.462 193.138C176.292 193.147 176.125 193.194 175.971 193.276C175.817 193.359 175.678 193.475 175.563 193.619C175.448 193.763 175.359 193.931 175.301 194.114C175.242 194.297 175.216 194.492 175.224 194.686C175.231 194.881 175.272 195.072 175.344 195.249C177.512 200.713 181.383 205.055 186.2 207.425C187.96 208.287 189.852 208.742 191.766 208.764" fill="black"/>
<path d="M111.504 101.254C100.016 64.3292 104.454 24.802 142.351 9.04582C180.895 -6.98223 204.254 1.79419 231.307 41.0934C190.601 52.5528 142.794 75.3298 111.504 101.254Z" fill="white"/>
<path d="M111.507 102.737C111.78 102.737 112.046 102.638 112.266 102.454C141.5 78.2342 188.349 54.7124 231.613 42.5311C231.823 42.4715 232.017 42.3527 232.177 42.1853C232.336 42.018 232.457 41.8076 232.527 41.5733C232.597 41.339 232.615 41.0882 232.579 40.844C232.542 40.5998 232.453 40.3698 232.319 40.1752C218.272 19.7568 205.306 7.91663 191.53 2.90902C177.617 -2.14674 161.85 -0.641762 141.908 7.6533C123.796 15.1838 112.108 28.3478 107.17 46.7784C102.936 62.5856 104.012 81.5967 110.284 101.753C110.374 102.042 110.539 102.291 110.757 102.469C110.975 102.646 111.236 102.742 111.503 102.744M229.04 40.2078C186.712 52.4217 141.272 75.2356 112.159 98.889C99.6323 56.6421 111.012 23.6544 142.794 10.4396C179.953 -5.01369 202.72 2.75045 229.04 40.2078Z" fill="black"/>
<path d="M179.047 154.803C179.102 153.977 179.371 153.188 179.822 152.539C180.272 151.89 180.882 151.411 181.573 151.163C182.264 150.915 183.004 150.909 183.697 151.148C184.39 151.386 185.006 151.857 185.463 152.5C185.92 153.142 186.198 153.927 186.262 154.753C186.325 155.578 186.17 156.407 185.818 157.131C185.466 157.855 184.932 158.441 184.285 158.814C183.639 159.187 182.909 159.33 182.191 159.224C181.263 159.113 180.411 158.586 179.821 157.757C179.232 156.929 178.953 155.867 179.047 154.803Z" fill="black"/>
<path d="M232.551 158.022C232.605 157.196 232.875 156.407 233.325 155.758C233.776 155.109 234.386 154.629 235.077 154.381C235.767 154.133 236.507 154.128 237.201 154.366C237.894 154.605 238.509 155.076 238.967 155.718C239.424 156.361 239.702 157.146 239.765 157.971C239.829 158.797 239.674 159.625 239.322 160.349C238.97 161.073 238.436 161.66 237.789 162.033C237.143 162.406 236.413 162.549 235.695 162.442C234.767 162.332 233.915 161.804 233.325 160.976C232.736 160.147 232.458 159.085 232.551 158.022Z" fill="black"/>
<path d="M212.472 183.081C212.63 183.081 212.786 183.048 212.933 182.984L217.813 180.861C218.347 180.752 218.842 180.471 219.241 180.05C219.639 179.629 219.924 179.086 220.061 178.486C220.199 177.886 220.183 177.253 220.016 176.663C219.849 176.073 219.538 175.549 219.119 175.155C217.312 172.396 216.078 169.201 215.511 165.814C214.944 162.427 215.058 158.936 215.846 155.607C215.929 155.233 215.881 154.836 215.712 154.502C215.543 154.167 215.267 153.922 214.942 153.817C214.617 153.713 214.269 153.757 213.973 153.942C213.676 154.126 213.454 154.436 213.354 154.805C212.46 158.571 212.327 162.521 212.966 166.354C213.605 170.188 214.999 173.804 217.043 176.929C217.225 177.193 217.383 177.477 217.514 177.778C217.313 177.895 217.107 177.998 216.895 178.087L212.016 180.211C211.732 180.334 211.495 180.567 211.347 180.869C211.198 181.171 211.146 181.524 211.201 181.865C211.256 182.207 211.414 182.515 211.647 182.737C211.88 182.959 212.174 183.08 212.477 183.079" fill="black"/>
<path d="M218.826 149.768C219.165 149.767 219.491 149.615 219.733 149.343C219.975 149.071 220.114 148.702 220.121 148.314C220.176 144.466 216.914 141.784 213.655 140.831C211.002 140.078 208.231 140.052 205.567 140.754C202.904 141.456 200.423 142.868 198.325 144.873C198.197 145.001 198.092 145.157 198.016 145.331C197.941 145.506 197.896 145.695 197.884 145.89C197.872 146.084 197.894 146.279 197.948 146.463C198.002 146.648 198.088 146.818 198.2 146.965C198.311 147.112 198.447 147.232 198.6 147.319C198.752 147.406 198.918 147.457 199.087 147.47C199.257 147.484 199.427 147.459 199.589 147.397C199.75 147.335 199.899 147.237 200.027 147.109C201.806 145.414 203.91 144.223 206.166 143.633C208.423 143.043 210.769 143.069 213.015 143.711C215.285 144.374 217.563 146.15 217.531 148.268C217.526 148.662 217.657 149.042 217.896 149.324C218.135 149.607 218.463 149.77 218.806 149.776L218.826 149.768Z" fill="black"/>
<path d="M159.153 143.265C159.497 143.265 159.827 143.108 160.071 142.829C160.315 142.551 160.451 142.173 160.451 141.778C160.451 141.384 160.315 141.006 160.071 140.727C159.827 140.448 159.497 140.292 159.153 140.292L141.448 140.235C141.275 140.229 141.102 140.263 140.941 140.334C140.779 140.406 140.631 140.514 140.507 140.652C140.382 140.791 140.283 140.956 140.216 141.139C140.148 141.322 140.113 141.518 140.113 141.717C140.113 141.915 140.148 142.112 140.216 142.295C140.283 142.477 140.382 142.643 140.507 142.781C140.631 142.919 140.779 143.027 140.941 143.099C141.102 143.171 141.275 143.204 141.448 143.198L159.153 143.258V143.265Z" fill="black"/>
<path d="M138.222 157.273H138.236C138.406 157.271 138.574 157.231 138.731 157.155C138.888 157.079 139.03 156.968 139.15 156.829C139.269 156.69 139.363 156.525 139.427 156.344C139.491 156.163 139.522 155.97 139.521 155.775C139.481 150.798 140.333 145.865 142.023 141.28C142.091 141.1 142.126 140.907 142.129 140.712C142.131 140.517 142.099 140.323 142.036 140.141C141.972 139.96 141.878 139.795 141.758 139.655C141.639 139.516 141.496 139.405 141.339 139.328C141.182 139.252 141.013 139.212 140.842 139.211C140.671 139.21 140.502 139.247 140.344 139.321C140.186 139.395 140.042 139.504 139.921 139.641C139.8 139.779 139.704 139.943 139.638 140.123C137.807 145.083 136.883 150.42 136.923 155.804C136.927 156.195 137.065 156.569 137.308 156.844C137.55 157.118 137.878 157.273 138.219 157.273" fill="black"/>
<path d="M8.5319 430.81C24.1828 381.838 32.8253 333.519 69.7515 298.239C87.4767 281.305 108.856 269.294 133.487 267.484C134.995 294.781 162.7 312.767 177.548 314.796C185.63 315.901 215.645 320.474 215.645 279.967C225.437 284.433 258.03 289.014 271.097 334.977C276.443 353.773 286.016 425.721 317.577 467.419C325.031 477.266 331.92 411.733 342.646 416.095C353.171 420.377 365.293 427.543 366.084 440.296C366.702 450.233 359.546 458.891 351.547 462.822C334.365 471.273 327.922 512.223 309.409 515.206C290.155 518.314 259.404 526.438 236.133 443.154C224.238 456.771 216.562 471.395 203.22 479.628C164.769 503.353 36.8231 529.997 15.977 534.232C14.2453 534.583 10.3168 532.957 9.62534 531.108C5.24536 519.379 -6.2173 476.952 8.53066 430.809" fill="white"/>
<path d="M15.4919 535.76C15.7313 535.764 15.9706 535.743 16.2068 535.698C40.8218 530.699 165.543 504.571 203.839 480.943C213.096 475.231 219.663 466.544 226.614 457.35C229.447 453.601 232.363 449.742 235.563 445.95C245.47 480.487 257.509 502.117 272.333 512.036C285.32 520.729 278.295 531.138 288.238 529.48C288.238 529.48 288.174 533.113 286.894 529.859C285.613 526.606 287.313 510.545 287.313 510.545C289.433 510.203 290.262 506.326 292.283 501.731C294.684 496.281 298.236 488.885 301.143 481.331C304.406 473.068 308.124 465.051 312.276 457.327C287.155 424.139 282.195 379.979 276.157 351.351C274.617 344.057 273.402 338.294 272.333 334.527C260.87 294.21 234.15 284.975 221.308 280.532C219.228 279.813 217.436 279.193 216.126 278.597C215.93 278.507 215.717 278.473 215.506 278.5C215.296 278.526 215.094 278.611 214.919 278.747C214.744 278.883 214.601 279.066 214.502 279.28C214.403 279.494 214.351 279.733 214.351 279.976C214.351 292.211 211.531 301.279 205.971 306.928C197.045 315.989 183.193 314.09 177.976 313.371L177.703 313.331C163.502 311.389 136.245 293.904 134.782 267.398C134.771 267.203 134.727 267.013 134.652 266.838C134.577 266.663 134.473 266.507 134.345 266.378C134.087 266.12 133.75 265.988 133.408 266.01C110.451 267.698 88.7543 278.159 68.9225 297.109C38.1773 326.482 26.9509 364.5 15.0676 404.762C12.6012 413.116 10.0482 421.752 7.31577 430.306C-6.06044 472.163 1.72852 513.734 8.43889 531.698C9.31835 534.057 13.1702 535.759 15.4894 535.759M236.134 441.68C235.963 441.68 235.795 441.718 235.638 441.793C235.48 441.868 235.337 441.977 235.217 442.115C231.355 446.535 227.946 451.041 224.65 455.405C217.858 464.389 211.444 472.876 202.608 478.329C164.66 501.742 40.2961 527.789 15.7516 532.776C14.4343 533.039 11.2096 531.574 10.8163 530.532C10.0964 528.602 -6.65665 482.653 9.74756 431.324C12.4911 422.739 15.0466 414.081 17.518 405.708C29.2837 365.861 40.4013 328.222 70.5825 299.383C89.6164 281.194 110.378 271.009 132.303 269.07C133.649 284.195 142.446 295.165 149.712 301.774C158.123 309.431 168.992 315.118 177.395 316.269L177.67 316.304C183.199 317.066 197.893 319.082 207.689 309.136C213.503 303.238 216.595 294.138 216.915 282.064C217.992 282.474 219.22 282.901 220.559 283.362C233.933 287.986 258.826 296.593 269.87 335.436C270.909 339.091 272.114 344.807 273.64 352.04C279.732 380.911 285.391 425.438 310.917 459.171C311.484 459.918 305.962 469.789 301.146 482.264C295.553 494.456 292.091 509.764 287.316 510.535C286.674 510.637 288.909 513.629 288.241 513.741C269.233 516.911 259.544 522.023 237.372 442.704C237.304 442.462 237.184 442.243 237.022 442.07C236.859 441.896 236.661 441.773 236.445 441.713C236.345 441.685 236.242 441.671 236.139 441.67" fill="black"/>
<path d="M286.914 529.959L199.474 532.109L199.361 515.108L296.683 512.387L286.914 529.959Z" fill="white"/>
<path d="M199.348 533.584H199.372L279.205 531.445C279.405 531.435 279.599 531.367 279.769 531.247C279.939 531.126 280.08 530.958 280.177 530.758L288.629 512.617C288.741 512.35 288.799 512.057 288.799 511.761C288.799 511.465 288.741 511.172 288.629 510.905C288.414 510.428 288.505 510.881 288.07 510.905L199.216 513.626C198.891 513.654 198.589 513.826 198.374 514.106C198.158 514.385 198.047 514.749 198.062 515.121L198.165 532.122C198.165 532.512 198.293 532.887 198.523 533.174C198.629 533.304 198.756 533.408 198.898 533.48C199.04 533.551 199.193 533.589 199.348 533.59M278.522 528.493L200.522 530.591L200.436 516.555L285.908 513.936L278.522 528.493Z" fill="black"/>
<path d="M54.4467 478.047C89.567 475.809 124.899 473.037 160.236 470.26C163.401 469.664 179.117 467.09 182.995 466.438C186.272 465.784 189.451 464.595 192.433 462.908C202.947 457.356 225.492 446.457 230.522 449.678C242.114 453.58 252.622 463.16 260.827 475.288C265.437 482.093 269.216 493.37 267.307 495.306C266.748 495.976 265.996 496.392 265.189 496.478C264.383 496.563 263.577 496.312 262.92 495.77C257.355 482.259 247.807 471.427 235.954 465.176C241.43 468.716 246.514 472.998 251.096 477.93C255.733 482.919 259.994 488.94 261.037 496.125C261.167 496.677 261.124 497.264 260.913 497.782C260.282 498.974 258.677 498.279 257.719 497.422C255.842 495.742 231.682 473.28 227.167 473.873C233.17 476.469 254.574 496.346 254.661 498.464C254.744 499.48 254.502 500.495 253.98 501.323C253.568 501.832 253.047 502.21 252.469 502.42C251.891 502.63 251.275 502.664 250.681 502.519C249.499 502.215 248.379 501.656 247.38 500.871C240.473 496.07 234.145 490.047 226.684 486.492C222.958 484.715 218.405 483.693 215.091 486.334C221.771 489.172 227.918 493.442 233.201 498.914C234.033 499.795 234.736 500.821 235.285 501.955C236.108 503.636 237.032 506.07 235.893 507.457C234.028 509.722 232.455 508.59 230.856 507.517C224.633 502.772 218.001 498.77 211.065 495.575C208.939 494.606 206.404 493.758 204.481 495.17C202.813 496.389 194.752 502.118 178.181 503.098C172.526 503.434 167.075 505.121 160.005 507.345C66.8878 536.723 39.0729 548.443 16.5174 537.346C12.1003 535.172 10.611 532.518 12.0818 523.842C16.0115 500.671 19.8546 487.505 54.4455 478.053" fill="white"/>
<path d="M35.4133 543.001C53.2536 543.001 78.6676 534.865 126.461 519.57C136.531 516.349 147.943 512.695 160.353 508.779C166.928 506.705 172.607 504.917 178.251 504.581C193.758 503.661 202.247 498.564 205.184 496.415C206.621 495.358 208.828 496.145 210.588 496.952C217.445 500.104 224 504.058 230.147 508.752L230.321 508.87C231.913 509.936 234.316 511.548 236.839 508.468C238.795 506.088 237.01 502.429 236.42 501.227C235.804 499.955 235.015 498.804 234.082 497.817C229.489 493.03 224.234 489.148 218.53 486.331C221.157 486.048 223.802 486.574 226.191 487.855C231.01 490.382 235.597 493.454 239.883 497.025C242.096 498.743 244.385 500.517 246.714 502.135C247.853 503.02 249.13 503.645 250.476 503.975C251.295 504.169 252.144 504.111 252.937 503.808C253.731 503.505 254.44 502.967 254.993 502.25C255.719 501.142 256.064 499.767 255.961 498.387C255.905 498.007 255.77 497.648 255.565 497.341C255.741 497.5 255.917 497.661 256.091 497.824L256.926 498.583C257.399 499.043 257.948 499.392 258.54 499.608C259.132 499.824 259.755 499.903 260.374 499.841C260.715 499.773 261.038 499.623 261.323 499.399C261.608 499.176 261.848 498.886 262.027 498.547C262.247 498.127 262.375 497.652 262.398 497.163C263.294 497.804 264.353 498.079 265.402 497.942C266.452 497.805 267.43 497.264 268.176 496.408C271.289 493.247 265.777 480.161 261.859 474.37C252.886 461.118 242.222 452.104 231.015 448.29C224.942 444.823 201.676 456.387 191.894 461.553C189.021 463.174 185.962 464.323 182.809 464.966L177.46 465.853C171.132 466.899 162.485 468.332 160.086 468.781C125.613 471.493 89.9695 474.295 54.3767 476.567C54.299 476.571 54.2219 476.585 54.1466 476.607C18.7802 486.268 14.801 500.041 10.8106 523.553C9.33869 532.243 10.6486 536.067 16.0058 538.702C22.1395 541.68 28.7528 543.145 35.4145 543.001M206.882 492.939C205.79 492.915 204.716 493.255 203.79 493.916C201.033 495.939 193.011 500.736 178.121 501.621C172.193 501.972 166.388 503.803 159.668 505.921C147.256 509.837 135.84 513.491 125.769 516.715C58.7418 538.168 36.1604 545.393 17.0324 535.981C13.4663 534.225 11.94 532.481 13.3587 524.119C17.2489 501.183 20.8545 488.773 54.6389 479.522C90.2329 477.257 125.865 474.449 160.327 471.735C160.369 471.735 160.411 471.73 160.451 471.72C162.737 471.295 171.825 469.784 177.835 468.789L183.192 467.901C186.591 467.219 189.889 465.989 192.986 464.249C211.884 454.263 226.719 448.927 229.896 450.967C229.982 451.02 230.071 451.063 230.164 451.096C240.738 454.655 251.271 463.565 259.817 476.188C264.529 483.146 267.21 492.808 266.428 494.236C266.113 494.601 265.709 494.849 265.269 494.946C264.829 495.044 264.373 494.988 263.962 494.784C258.224 481.13 248.516 470.184 236.502 463.822C236.199 463.667 235.855 463.652 235.542 463.778C235.229 463.905 234.97 464.164 234.82 464.502C234.669 464.841 234.637 465.233 234.732 465.597C234.826 465.961 235.039 466.27 235.326 466.46C240.711 469.943 245.71 474.155 250.215 479.004C255.905 485.123 258.937 490.637 259.766 496.364C259.798 496.551 259.814 496.74 259.815 496.931C259.341 496.834 258.897 496.598 258.525 496.247C258.382 496.115 258.101 495.863 257.709 495.503C231.726 471.775 228.309 472.222 227.033 472.396C226.744 472.434 226.474 472.581 226.268 472.815C226.061 473.049 225.929 473.356 225.893 473.686C225.858 474.016 225.92 474.351 226.071 474.635C226.221 474.92 226.451 475.138 226.724 475.255C232.29 477.662 251.71 495.642 253.384 498.746C253.428 499.109 253.389 499.479 253.271 499.82C253.154 500.161 252.962 500.462 252.713 500.693C252.465 500.925 252.168 501.079 251.853 501.142C251.537 501.204 251.213 501.173 250.911 501.05C249.892 500.771 248.927 500.278 248.066 499.596C245.793 498.018 243.531 496.264 241.348 494.568C236.918 490.882 232.177 487.716 227.194 485.116C223.529 483.372 218.329 481.952 214.365 485.107C214.172 485.261 214.018 485.473 213.922 485.719C213.826 485.966 213.79 486.238 213.819 486.506C213.847 486.774 213.94 487.028 214.085 487.24C214.231 487.452 214.424 487.615 214.645 487.711C221.173 490.474 227.178 494.645 232.333 499.997C233.064 500.77 233.682 501.673 234.163 502.67C235.508 505.421 235.11 506.248 234.955 506.433C233.895 507.727 233.314 507.424 231.633 506.304L231.518 506.227C225.241 501.441 218.55 497.409 211.551 494.192C210.076 493.448 208.494 493.022 206.883 492.937" fill="black"/>
<path d="M415.149 437.493C420.545 436.887 426.441 438.539 428.64 444.212C429.633 447.111 429.83 450.287 429.206 453.318C428.582 456.349 427.166 459.09 425.147 461.176C423.079 463.197 420.622 464.628 417.978 465.353C415.333 466.077 412.576 466.074 409.933 465.344C407.016 464.759 404.399 462.94 402.599 460.247C401.497 458.275 400.927 455.975 400.96 453.634C400.916 445.989 403.959 438.747 415.148 437.494" fill="white"/>
<path d="M413.98 467.343C418.403 467.416 422.694 465.61 426.024 462.276C428.242 459.978 429.794 456.959 430.473 453.625C431.152 450.29 430.926 446.797 429.825 443.613C427.672 438.063 422.141 435.226 415.025 436.023C402.253 437.456 399.625 446.401 399.67 453.649C399.632 456.284 400.278 458.873 401.525 461.088C403.51 464.089 406.408 466.126 409.644 466.796C411.065 467.162 412.517 467.346 413.973 467.344M417.178 438.87C420.313 438.87 425.466 439.7 427.452 444.816C428.342 447.43 428.514 450.291 427.946 453.019C427.377 455.747 426.095 458.212 424.271 460.084C422.359 461.948 420.088 463.266 417.644 463.931C415.201 464.595 412.655 464.587 410.214 463.907C407.619 463.403 405.283 461.804 403.669 459.424C402.715 457.693 402.223 455.682 402.252 453.635C402.2 444.763 406.458 439.967 415.27 438.979C415.72 438.928 416.383 438.874 417.178 438.874" fill="black"/>
<path d="M75.4004 478.14C75.6728 478.139 75.9382 478.041 76.159 477.859C76.3799 477.676 76.5451 477.419 76.6312 477.123C89.8664 431.27 97.3461 402.265 97.3461 339.389C97.3461 338.995 97.2093 338.617 96.9657 338.338C96.7222 338.059 96.3918 337.902 96.0473 337.902C95.7029 337.902 95.3725 338.059 95.129 338.338C94.8854 338.617 94.7486 338.995 94.7486 339.389C94.7486 401.811 87.3109 430.629 74.1647 476.192C74.1006 476.414 74.0835 476.651 74.1149 476.883C74.1463 477.115 74.2254 477.335 74.3455 477.525C74.4656 477.715 74.6234 477.87 74.8059 477.977C74.9885 478.084 75.1905 478.14 75.3955 478.14" fill="black"/>
<path d="M236.129 444.637C236.338 444.638 236.544 444.58 236.73 444.469C236.915 444.359 237.074 444.198 237.194 444.001C254.263 415.89 249.648 395.299 245.184 375.393C242.958 365.45 240.647 355.168 241.011 343.927C241.023 343.534 240.899 343.152 240.665 342.864C240.431 342.576 240.107 342.406 239.763 342.392C239.42 342.377 239.086 342.52 238.834 342.788C238.583 343.055 238.434 343.426 238.422 343.819C238.051 355.488 240.401 365.983 242.673 376.13C247.192 396.28 251.463 415.315 235.065 442.31C234.93 442.532 234.851 442.792 234.837 443.062C234.822 443.332 234.872 443.602 234.981 443.842C235.091 444.081 235.255 444.282 235.457 444.423C235.659 444.563 235.891 444.638 236.127 444.639" fill="black"/>
<path d="M137.797 132.679C137.871 132.68 137.944 132.659 138.009 132.619C138.074 132.579 138.128 132.52 138.168 132.448C141.767 125.882 144.828 118.949 147.313 111.738C147.355 111.616 147.352 111.48 147.307 111.36C147.261 111.24 147.176 111.145 147.069 111.097C146.962 111.049 146.843 111.051 146.738 111.104C146.633 111.156 146.551 111.254 146.509 111.376C144.045 118.53 141.007 125.408 137.434 131.922C137.393 131.997 137.37 132.084 137.367 132.173C137.365 132.262 137.384 132.35 137.422 132.428C137.46 132.506 137.516 132.57 137.583 132.615C137.651 132.659 137.728 132.682 137.806 132.68" fill="black"/>
<path d="M131.054 131.164C131.133 131.164 131.21 131.14 131.277 131.093C131.345 131.047 131.4 130.98 131.436 130.901L135.039 123.061C135.093 122.945 135.104 122.81 135.07 122.684C135.036 122.559 134.96 122.454 134.859 122.393C134.757 122.332 134.639 122.319 134.529 122.358C134.42 122.397 134.328 122.484 134.275 122.6L130.673 130.439C130.638 130.514 130.621 130.599 130.623 130.684C130.625 130.769 130.647 130.852 130.685 130.925C130.724 130.998 130.778 131.058 130.843 131.1C130.908 131.142 130.981 131.164 131.055 131.164" fill="black"/>
<path d="M180.561 375.534C197.837 375.749 215.072 373.534 231.876 368.938C231.987 368.906 232.083 368.825 232.141 368.712C232.2 368.599 232.217 368.465 232.189 368.338C232.161 368.211 232.09 368.101 231.992 368.034C231.893 367.967 231.776 367.947 231.665 367.979C189.114 380.185 143.214 372.828 102.713 366.337C102.6 366.318 102.484 366.352 102.392 366.431C102.3 366.509 102.24 366.626 102.223 366.756C102.207 366.886 102.236 367.018 102.305 367.123C102.373 367.228 102.476 367.298 102.589 367.317C127.229 371.267 153.871 375.528 180.557 375.528" fill="black"/>
<path d="M165.004 413.505C190.368 413.521 215.643 410.059 240.289 403.194C240.346 403.18 240.4 403.154 240.448 403.117C240.496 403.079 240.537 403.03 240.569 402.974C240.6 402.918 240.621 402.855 240.63 402.789C240.64 402.723 240.637 402.655 240.623 402.591C240.609 402.526 240.584 402.465 240.549 402.412C240.514 402.358 240.47 402.314 240.419 402.28C240.369 402.247 240.313 402.226 240.255 402.218C240.197 402.21 240.138 402.216 240.082 402.235C194.733 414.843 147.514 415.869 101.779 405.239C101.724 405.225 101.666 405.224 101.61 405.236C101.554 405.248 101.501 405.273 101.453 405.308C101.406 405.344 101.365 405.39 101.333 405.444C101.301 405.498 101.279 405.559 101.268 405.623C101.246 405.751 101.268 405.885 101.331 405.994C101.394 406.104 101.492 406.18 101.604 406.208C122.468 411.072 143.708 413.516 165.001 413.505" fill="black"/>
<path d="M5.62939 490.603C5.69215 490.603 5.75414 490.587 5.81115 490.557C5.86815 490.527 5.91882 490.483 5.95965 490.428C14.0191 479.783 24.3197 471.668 35.8857 466.854C47.4517 462.04 59.9001 460.685 72.0515 462.918C72.1628 462.936 72.2757 462.904 72.3663 462.827C72.4569 462.751 72.518 462.638 72.5367 462.511C72.5553 462.384 72.5301 462.254 72.4663 462.148C72.4025 462.043 72.3052 461.969 72.195 461.944C59.896 459.686 47.2969 461.058 35.5905 465.93C23.8842 470.802 13.458 479.014 5.29911 489.787C5.24529 489.859 5.21066 489.947 5.19936 490.041C5.18805 490.135 5.20055 490.23 5.23535 490.316C5.27015 490.402 5.32579 490.475 5.39565 490.526C5.46551 490.576 5.54664 490.603 5.62939 490.603Z" fill="black"/>
<path d="M8.52671 470.808C8.58217 470.808 8.63713 470.796 8.68876 470.773C11.1832 469.426 13.4545 467.594 15.4016 465.358C16.1079 464.633 16.8389 463.884 17.5774 463.194C22.0915 458.96 27.5251 456.207 33.2988 455.229C33.4077 455.205 33.5043 455.134 33.5685 455.03C33.6328 454.927 33.6598 454.799 33.6438 454.673C33.6279 454.548 33.5704 454.434 33.4831 454.355C33.3958 454.277 33.2855 454.24 33.1751 454.252C27.2475 455.256 21.6691 458.083 17.0344 462.43C16.2823 463.138 15.55 463.89 14.8301 464.62C12.9556 466.778 10.7707 468.55 8.37088 469.858C8.27782 469.901 8.20063 469.979 8.15255 470.08C8.10446 470.181 8.08845 470.297 8.10732 470.41C8.12619 470.523 8.17874 470.625 8.25594 470.698C8.33314 470.771 8.4302 470.811 8.53044 470.811" fill="black"/>
<path d="M300.381 46.617C291.376 26.4407 243.181 27.1783 219.812 27.3963C184.66 30.0538 125.818 62.628 107.745 86.1201C87.2581 112.758 67.0021 145.22 75.3934 161.343C76.1764 137.381 121.933 93.2825 167.206 71.1043C219.961 45.2578 286.677 28.1821 300.376 46.6113" fill="white"/>
<path d="M75.4026 162.824C75.5095 162.824 75.616 162.807 75.7192 162.776C75.9904 162.697 76.232 162.52 76.4076 162.271C76.5832 162.022 76.6832 161.714 76.6927 161.394C77.4348 138.658 122.524 94.6072 167.72 72.4643C220.885 46.414 286.479 30.2047 299.394 47.5763C299.6 47.8529 299.887 48.0333 300.202 48.0833C300.516 48.1332 300.836 48.0492 301.1 47.8473C301.363 47.6453 301.553 47.3395 301.633 46.9878C301.713 46.6361 301.677 46.2631 301.533 45.9397C292.292 25.224 245.767 25.6686 220.768 25.905L219.797 25.9135C183.544 28.653 124.463 62.1405 106.772 85.1398C78.0645 122.47 67.1312 148.364 74.2844 162.097C74.3989 162.319 74.5618 162.502 74.7571 162.629C74.9523 162.756 75.173 162.823 75.3976 162.822M276.573 37.3841C267.049 37.5776 257.557 38.7145 248.205 40.782C223.44 45.9298 193.729 56.4816 166.691 69.7234C123.311 90.9785 81.4784 130.751 74.9647 155.661C72.9411 142.098 84.4681 118.61 108.712 87.0851C126.108 64.4935 184.254 31.5709 219.902 28.8739H220.796C239.9 28.6969 276.373 28.3458 292.522 39.6168C287.33 38.001 281.961 37.2532 276.582 37.3969" fill="black"/>
<path d="M111.959 71.9746C112.017 71.9747 112.075 71.9613 112.129 71.935C112.183 71.9087 112.232 71.8702 112.273 71.8217C121.607 60.5238 133.647 52.8233 145.183 45.9002C164.432 34.3502 185.3 23.2958 207.487 20.6228C207.544 20.6168 207.599 20.5978 207.65 20.5671C207.7 20.5364 207.745 20.4945 207.781 20.4438C207.817 20.3932 207.845 20.3348 207.861 20.2721C207.877 20.2093 207.882 20.1435 207.876 20.0784C207.87 20.0133 207.853 19.9503 207.826 19.8929C207.798 19.8355 207.761 19.785 207.716 19.7442C207.671 19.7035 207.62 19.6733 207.565 19.6554C207.51 19.6376 207.452 19.6324 207.396 19.6403C185.065 22.3303 164.103 33.4314 144.783 45.0252C133.188 51.9824 121.066 59.7338 111.644 71.1421C111.587 71.2123 111.548 71.3004 111.534 71.3953C111.519 71.4902 111.529 71.588 111.563 71.6764C111.596 71.7649 111.651 71.8403 111.722 71.8933C111.792 71.9462 111.874 71.9745 111.959 71.9746Z" fill="black"/>
<path d="M111.86 61.0438C111.935 61.0438 112.008 61.0221 112.073 60.9807C112.138 60.9394 112.192 60.8797 112.232 60.8074C113.693 58.0742 115.537 55.6348 117.69 53.5869C117.734 53.5454 117.77 53.4944 117.796 53.4368C117.823 53.3793 117.839 53.3164 117.844 53.2516C117.85 53.1869 117.844 53.1216 117.827 53.0595C117.81 52.9974 117.783 52.9397 117.746 52.8897C117.71 52.8396 117.666 52.7983 117.615 52.768C117.565 52.7377 117.51 52.719 117.453 52.713C117.397 52.7071 117.34 52.7139 117.286 52.7331C117.231 52.7524 117.181 52.7837 117.137 52.8252C114.911 54.9424 113.004 57.4646 111.493 60.2906C111.453 60.3658 111.431 60.4518 111.43 60.5398C111.428 60.6279 111.448 60.7147 111.486 60.7914C111.523 60.868 111.578 60.9317 111.645 60.9759C111.712 61.02 111.787 61.043 111.864 61.0424" fill="black"/>
<path d="M254.315 100.538C254.364 100.538 254.412 100.528 254.458 100.511C254.512 100.489 254.561 100.456 254.604 100.412C254.646 100.368 254.68 100.316 254.704 100.257C254.729 100.198 254.743 100.134 254.746 100.069C254.748 100.004 254.74 99.9393 254.721 99.878C251.08 88.0995 244.772 77.6389 236.441 69.5662C236.354 69.4815 236.241 69.44 236.126 69.4509C236.012 69.4618 235.907 69.5241 235.833 69.6242C235.759 69.7243 235.722 69.8539 235.732 69.9845C235.741 70.1151 235.796 70.2361 235.883 70.3208C244.098 78.2804 250.318 88.5936 253.909 100.206C253.938 100.303 253.993 100.387 254.066 100.446C254.138 100.505 254.226 100.538 254.315 100.538Z" fill="black"/>
<path d="M245.475 100.866C245.526 100.867 245.577 100.856 245.625 100.836C245.732 100.79 245.819 100.698 245.867 100.579C245.915 100.46 245.92 100.324 245.881 100.201C244.825 96.932 243.179 93.9553 241.048 91.4653C241.009 91.4188 240.961 91.3818 240.909 91.3562C240.857 91.3307 240.801 91.3172 240.744 91.3164C240.687 91.3157 240.631 91.3278 240.578 91.352C240.525 91.3762 240.477 91.4121 240.437 91.4575C240.396 91.503 240.364 91.5572 240.341 91.6169C240.319 91.6767 240.307 91.741 240.307 91.806C240.306 91.871 240.317 91.9355 240.338 91.9958C240.359 92.0562 240.39 92.1112 240.43 92.1576C242.475 94.5469 244.055 97.4042 245.067 100.542C245.098 100.637 245.153 100.719 245.226 100.777C245.298 100.835 245.384 100.866 245.473 100.866" fill="black"/>
<path d="M24.9528 333.254C25.0351 333.254 25.1157 333.227 25.1851 333.176C25.2545 333.126 25.3098 333.053 25.3445 332.968C25.3792 332.883 25.3919 332.788 25.381 332.694C25.3701 332.601 25.3361 332.513 25.2831 332.441C22.4581 328.532 20.5462 323.867 19.7264 318.881C18.9067 313.896 19.206 308.754 20.5963 303.937C20.6147 303.875 20.6223 303.81 20.6187 303.745C20.615 303.68 20.6002 303.617 20.5751 303.558C20.55 303.5 20.5151 303.448 20.4724 303.405C20.4297 303.362 20.38 303.329 20.3261 303.308C20.2723 303.287 20.2153 303.278 20.1585 303.282C20.1018 303.286 20.0463 303.303 19.9952 303.332C19.9442 303.361 19.8985 303.401 19.861 303.45C19.8234 303.499 19.7946 303.555 19.7763 303.617C18.3405 308.596 18.032 313.91 18.8796 319.063C19.7272 324.216 21.7032 329.038 24.6226 333.078C24.6629 333.134 24.7134 333.178 24.7705 333.209C24.8275 333.239 24.8898 333.254 24.9528 333.254Z" fill="black"/>
<path d="M27.5299 309.558C27.5868 309.558 27.643 309.544 27.6953 309.519C27.7477 309.493 27.7951 309.456 27.835 309.41C27.8748 309.364 27.9063 309.309 27.9276 309.248C27.9489 309.188 27.9596 309.123 27.9591 309.058C27.9494 305.056 29.0457 301.152 31.0911 297.905C31.1246 297.852 31.1488 297.793 31.1621 297.729C31.1754 297.666 31.1777 297.6 31.1687 297.536C31.1597 297.471 31.1397 297.41 31.1098 297.354C31.08 297.299 31.0408 297.251 30.9946 297.213C30.9015 297.137 30.7863 297.107 30.6737 297.127C30.5612 297.148 30.4601 297.218 30.3922 297.323C28.2397 300.741 27.0859 304.851 27.0958 309.064C27.0956 309.129 27.1067 309.193 27.1283 309.253C27.1499 309.313 27.1817 309.368 27.2218 309.414C27.262 309.46 27.3096 309.496 27.3621 309.521C27.4145 309.546 27.4707 309.558 27.5275 309.558" fill="black"/>
<path d="M648.818 375.761C661.522 375.761 674.78 375.036 688.962 373.574C693.224 373.136 697.049 372.618 700.671 370.705C702.746 369.662 704.604 368.125 706.121 366.196C707.637 364.268 708.778 361.992 709.468 359.521C710.06 357.369 710.148 355.077 709.724 352.873C708.402 346.757 702.945 344.591 698.962 343.494C681.398 338.663 663.471 334.56 645.696 331.3C645.528 331.269 645.357 331.277 645.191 331.322C645.025 331.367 644.869 331.449 644.731 331.564C644.594 331.678 644.477 331.822 644.388 331.989C644.299 332.155 644.239 332.339 644.212 332.531C644.185 332.724 644.192 332.92 644.231 333.11C644.271 333.3 644.343 333.478 644.443 333.636C644.543 333.794 644.669 333.927 644.814 334.029C644.959 334.131 645.12 334.2 645.288 334.23C662.995 337.475 680.85 341.563 698.353 346.379C701.966 347.37 706.238 349.088 707.21 353.583C707.523 355.275 707.445 357.032 706.983 358.68C706.399 360.748 705.438 362.651 704.163 364.262C702.888 365.873 701.328 367.156 699.587 368.024C696.122 369.586 692.451 370.467 688.729 370.63C670.268 372.644 651.709 373.239 633.177 372.41C630.441 372.268 627.735 371.817 626.465 369.38C625.503 367.539 625.527 364.915 625.64 362.16C625.781 358.794 625.954 354.605 627.598 351.728C630.027 347.481 634.805 347.198 639.094 347.292C648.247 347.461 680.531 351.589 686.416 353.343C686.745 353.432 687.092 353.37 687.382 353.17C687.671 352.97 687.881 352.648 687.966 352.274C688.051 351.899 688.005 351.501 687.837 351.165C687.669 350.829 687.393 350.581 687.068 350.475C680.918 348.635 648.665 344.503 639.136 344.326C633.792 344.23 628.43 344.86 625.429 350.107C623.397 353.658 623.203 358.294 623.052 362.022C622.918 365.247 622.911 368.354 624.238 370.902C626.4 375.046 630.901 375.268 633.064 375.376C638.234 375.631 643.476 375.76 648.817 375.76" fill="white"/>
<path d="M279.777 531.439L468.082 530.896C468.322 530.896 468.558 530.819 468.762 530.674C468.967 530.529 469.132 530.321 469.24 530.075L536.539 375.404C536.637 375.178 536.684 374.927 536.674 374.674C536.664 374.421 536.597 374.176 536.481 373.961C536.365 373.746 536.203 373.568 536.01 373.445C535.817 373.322 535.599 373.258 535.379 373.258L345.289 374.45C345.047 374.451 344.811 374.53 344.606 374.677C344.402 374.824 344.237 375.034 344.131 375.282L278.615 529.308C278.52 529.533 278.476 529.783 278.488 530.033C278.5 530.283 278.568 530.525 278.684 530.737C278.8 530.949 278.961 531.124 279.152 531.246C279.344 531.367 279.559 531.431 279.777 531.432M467.28 527.926L281.853 528.463L346.107 377.399L533.286 376.224L467.28 527.926Z" fill="white"/>
</g>
</svg>
