<svg width="23" height="19" viewBox="0 0 23 19" fill="green" xmlns="http://www.w3.org/2000/svg">
<path d="M8.33 8.66524H10.5C11.0909 8.66524 11.6761 8.78164 12.2221 9.00778C12.768 9.23393 13.2641 9.5654 13.682 9.98326C14.0998 10.4011 14.4313 10.8972 14.6575 11.4432C14.8836 11.9891 15 12.5743 15 13.1652H7.999L8 14.1652H16V13.1652C15.9968 12.1012 15.6894 11.0603 15.114 10.1652H18C18.9453 10.165 19.8712 10.4327 20.6705 10.9373C21.4698 11.4419 22.1097 12.1627 22.516 13.0162C20.151 16.1372 16.322 18.1652 12 18.1652C9.239 18.1652 6.9 17.5752 5 16.5402V7.23624C6.21664 7.41042 7.36552 7.90344 8.33 8.66524ZM3 6.16524C3.24493 6.16527 3.48134 6.25519 3.66437 6.41795C3.84741 6.58071 3.96434 6.80499 3.993 7.04824L4 7.16524V16.1652C4 16.4305 3.89464 16.6848 3.70711 16.8723C3.51957 17.0599 3.26522 17.1652 3 17.1652H1C0.734784 17.1652 0.48043 17.0599 0.292893 16.8723C0.105357 16.6848 0 16.4305 0 16.1652V7.16524C0 6.90002 0.105357 6.64567 0.292893 6.45813C0.48043 6.2706 0.734784 6.16524 1 6.16524H3ZM12.646 0.740239L13 1.09524L13.354 0.741239C13.5858 0.507458 13.8615 0.321764 14.1653 0.19482C14.469 0.067876 14.7949 0.00218138 15.1241 0.00150739C15.4533 0.000833406 15.7795 0.0651936 16.0837 0.190893C16.388 0.316592 16.6645 0.501155 16.8973 0.733985C17.13 0.966816 17.3145 1.24333 17.4401 1.54765C17.5657 1.85197 17.63 2.1781 17.6292 2.50733C17.6285 2.83655 17.5627 3.16238 17.4356 3.46611C17.3086 3.76985 17.1228 4.0455 16.889 4.27724L13 8.16524L9.11 4.27524C8.87622 4.04343 8.69053 3.76773 8.56358 3.46396C8.43664 3.16019 8.37094 2.83434 8.37027 2.50512C8.36959 2.17589 8.43396 1.84978 8.55965 1.54549C8.68535 1.24121 8.86992 0.964747 9.10275 0.731983C9.33558 0.499218 9.61209 0.314734 9.91641 0.189121C10.2207 0.0635077 10.5469 -0.00076032 10.8761 6.78693e-06C11.2053 0.000773894 11.5311 0.0665608 11.8349 0.193591C12.1386 0.320621 12.4143 0.506392 12.646 0.740239Z" fill="url(#paint0_linear_4800_24758)" fill-opacity="0.24"/>
<defs>
<linearGradient id="paint0_linear_4800_24758" x1="11.258" y1="0.000238989" x2="11.258" y2="18.1652" gradientUnits="userSpaceOnUse">
<stop stop-color="white"/>
<stop offset="1" stop-color="white" stop-opacity="0"/>
</linearGradient>
</defs>
</svg>
