<svg width="50" height="50" viewBox="0 0 50 50" fill="none" xmlns="http://www.w3.org/2000/svg">
<g clip-path="url(#clip0_6047_5158)">
<path d="M37.7284 16.4889L37.8715 16.9739L38.3453 17.1505L45.7797 19.8901C47.3592 20.4752 47.2807 22.7225 45.6642 23.196L38.0569 25.4104L37.5719 25.5535L37.3953 26.0273L34.6557 33.4616C34.0706 35.0412 31.8233 34.9627 31.3498 33.3462L29.1354 25.7388L28.9923 25.2538L28.5185 25.0773L21.0842 22.3377C19.5046 21.7525 19.5831 19.5053 21.1996 19.0317L28.8069 16.8174L29.2919 16.6743L29.4685 16.2005L32.2081 8.76614C32.7933 7.18658 35.0505 7.2654 35.5141 8.88159L37.7284 16.4889Z" stroke="white" stroke-width="1.99878"/>
<path d="M19.6612 25.8575C18.9827 23.5238 15.7167 23.4098 14.877 25.6904L12.8657 31.1702L7.25894 32.7944C4.92525 33.4729 4.8112 36.7389 7.09187 37.5786L12.5716 39.5899L14.1958 45.1967C14.8744 47.5304 18.1404 47.6444 18.98 45.3637L20.9914 39.884L26.5981 38.2598C28.9318 37.5813 29.0458 34.3152 26.7652 33.4756L21.2854 31.4642L19.6612 25.8575Z" fill="#222222"/>
<path d="M16.3467 3.67174C15.695 1.42898 12.5688 1.31981 11.7623 3.51165L9.97264 8.36915L5.00212 9.81558C2.75937 10.4673 2.64985 13.6034 4.84203 14.4L9.69954 16.1896L11.146 21.1601C11.7976 23.4029 14.9238 23.5121 15.7304 21.3202L17.52 16.4627L22.4905 15.0163C24.7333 14.3646 24.8428 11.2284 22.6506 10.4319L17.7931 8.64225L16.3467 3.67174Z" fill="#222222"/>
</g>
<defs>
<clipPath id="clip0_6047_5158">
<rect width="47.9708" height="47.9708" fill="white" transform="translate(1.67416) rotate(2)"/>
</clipPath>
</defs>
</svg>
