<svg width="50" height="50" viewBox="0 0 50 50" fill="none" xmlns="http://www.w3.org/2000/svg">
<path opacity="0.15" d="M3.7577 45.2493C3.74922 45.4921 4.26662 45.7508 5.28034 46.0108C6.29407 46.2708 7.78427 46.5269 9.66587 46.7645C11.5475 47.0021 13.7836 47.2166 16.2466 47.3956C18.7096 47.5746 21.3513 47.7148 24.0207 47.808C26.6902 47.9012 29.3352 47.9457 31.8047 47.9389C34.2742 47.9321 36.5199 47.8742 38.4134 47.7684C40.307 47.6626 41.8115 47.5111 42.8409 47.3225C43.8703 47.1338 44.4044 46.9118 44.4129 46.669C44.43 46.1786 42.3048 45.6336 38.5048 45.1537C34.7047 44.6739 29.5411 44.2985 24.1499 44.1102C18.7587 43.922 13.5814 43.9362 9.75717 44.1498C5.9329 44.3634 3.77482 44.7589 3.7577 45.2493Z" fill="white"/>
<path d="M7.22551 34.2148L41.7245 35.4195C42.0505 35.4309 42.3586 35.5714 42.5811 35.8099C42.8036 36.0485 42.9222 36.3657 42.9108 36.6917L42.6096 45.3165C42.6039 45.4808 42.5331 45.6361 42.4128 45.7483C42.2926 45.8604 42.1327 45.9202 41.9684 45.9144L6.25013 44.6671C6.16876 44.6643 6.08875 44.6455 6.01466 44.6117C5.94057 44.5779 5.87386 44.5299 5.81833 44.4703C5.7628 44.4108 5.71955 44.3409 5.69103 44.2646C5.66252 44.1884 5.64931 44.1072 5.65215 44.0259L5.95263 35.4211C5.95568 35.2579 5.99117 35.097 6.05704 34.9476C6.12292 34.7983 6.21786 34.6636 6.33633 34.5513C6.4548 34.439 6.59444 34.3514 6.7471 34.2937C6.89976 34.2359 7.06238 34.2091 7.22551 34.2148Z" stroke="white" stroke-linecap="round" stroke-linejoin="round"/>
<path d="M8.83398 5.92383L42.0937 7.08528L41.1043 35.418L7.84458 34.2566L8.83398 5.92383Z" stroke="white" stroke-linecap="round" stroke-linejoin="round"/>
<path d="M7.71094 2.80273L43.4392 4.05039L43.3317 7.12852L7.60345 5.88086L7.71094 2.80273Z" stroke="white" stroke-linecap="round" stroke-linejoin="round"/>
<path d="M19.4609 37.1328L29.3149 37.4769L29.0354 45.482L19.1814 45.1379L19.4609 37.1328Z" fill="#23BB4E"/>
<path d="M21.1091 45.2063L25.8462 45.3717L29.3138 37.4779L24.5767 37.3125L21.1091 45.2063Z" fill="#23BB4E" fill-opacity="0.25"/>
<path d="M19.4609 37.1328L29.3149 37.4769L29.0354 45.482L19.1814 45.1379L19.4609 37.1328Z" stroke="white" stroke-linecap="round" stroke-linejoin="round"/>
<path d="M10.8145 37.4414L14.5122 37.5705L14.3618 41.8779L10.664 41.7488L10.8145 37.4414Z" fill="#23BB4E"/>
<path d="M11.9527 41.8037L14.3613 41.8878L14.512 37.5704L13.8225 37.5464L11.9527 41.8037Z" fill="#23BB4E" fill-opacity="0.25"/>
<path d="M11.7988 27L15.4966 27.1291L15.3462 31.4365L11.6484 31.3074L11.7988 27Z" fill="#23BB4E"/>
<path d="M12.9277 31.3523L15.3362 31.4364L15.4867 27.129L14.7971 27.1049L12.9277 31.3523Z" fill="#23BB4E" fill-opacity="0.25"/>
<path d="M33.9766 27.7734L37.6743 27.9026L37.5239 32.2099L33.8261 32.0808L33.9766 27.7734Z" fill="#23BB4E"/>
<path d="M35.1054 32.1257L37.514 32.2098L37.6644 27.9025L36.9748 27.8784L35.1054 32.1257Z" fill="#23BB4E" fill-opacity="0.25"/>
<path d="M26.5801 27.5156L30.2778 27.6448L30.1274 31.9521L26.4297 31.823L26.5801 27.5156Z" fill="#23BB4E"/>
<path d="M27.7187 31.8679L30.1273 31.952L30.2777 27.6447L29.5781 27.6202L27.7187 31.8679Z" fill="#23BB4E" fill-opacity="0.25"/>
<path d="M19.1855 27.2578L22.8833 27.3869L22.7329 31.6943L19.0351 31.5652L19.1855 27.2578Z" fill="#23BB4E"/>
<path d="M20.3242 31.6101L22.7327 31.6942L22.8831 27.3868L22.1936 27.3628L20.3242 31.6101Z" fill="#23BB4E" fill-opacity="0.25"/>
<path d="M12.1016 18.375L15.7993 18.5041L15.6489 22.8115L11.9511 22.6824L12.1016 18.375Z" fill="#23BB4E"/>
<path d="M13.2304 22.7273L15.639 22.8114L15.7894 18.504L15.0998 18.4799L13.2304 22.7273Z" fill="#23BB4E" fill-opacity="0.25"/>
<path d="M34.2773 19.1504L37.9751 19.2795L37.8247 23.5869L34.1269 23.4578L34.2773 19.1504Z" fill="#23BB4E"/>
<path d="M35.4062 23.5007L37.8148 23.5848L37.9652 19.2775L37.2756 19.2534L35.4062 23.5007Z" fill="#23BB4E" fill-opacity="0.25"/>
<path d="M26.8828 18.8906L30.5806 19.0198L30.4301 23.3271L26.7324 23.198L26.8828 18.8906Z" fill="#23BB4E"/>
<path d="M28.0215 23.2429L30.43 23.327L30.5804 19.0197L29.8808 18.9952L28.0215 23.2429Z" fill="#23BB4E" fill-opacity="0.25"/>
<path d="M19.4863 18.6328L23.1841 18.7619L23.0337 23.0693L19.3359 22.9402L19.4863 18.6328Z" fill="#23BB4E"/>
<path d="M20.625 22.9851L23.0335 23.0692L23.1839 18.7618L22.4943 18.7378L20.625 22.9851Z" fill="#23BB4E" fill-opacity="0.25"/>
<path d="M12.4023 9.75L16.1001 9.87913L15.9497 14.1865L12.2519 14.0574L12.4023 9.75Z" fill="#23BB4E"/>
<path d="M13.5312 14.1023L15.9398 14.1864L16.0902 9.87903L15.4006 9.85495L13.5312 14.1023Z" fill="#23BB4E" fill-opacity="0.25"/>
<path d="M34.5781 10.5254L38.2759 10.6545L38.1255 14.9619L34.4277 14.8328L34.5781 10.5254Z" fill="#23BB4E"/>
<path d="M35.707 14.8777L38.1155 14.9618L38.266 10.6544L37.5764 10.6303L35.707 14.8777Z" fill="#23BB4E" fill-opacity="0.25"/>
<path d="M27.1836 10.2656L30.8813 10.3948L30.7309 14.7021L27.0332 14.573L27.1836 10.2656Z" fill="#23BB4E"/>
<path d="M28.3222 14.6179L30.7308 14.702L30.8812 10.3947L30.1816 10.3702L28.3222 14.6179Z" fill="#23BB4E" fill-opacity="0.25"/>
<path d="M19.7871 10.0078L23.4849 10.1369L23.3344 14.4443L19.6367 14.3152L19.7871 10.0078Z" fill="#23BB4E"/>
<path d="M20.9258 14.3601L23.3343 14.4442L23.4847 10.1368L22.7951 10.1128L20.9258 14.3601Z" fill="#23BB4E" fill-opacity="0.25"/>
<path d="M11.8 26.9995L15.4977 27.1286L15.3473 31.436L11.6496 31.3069L11.8 26.9995ZM33.9765 27.7739L37.6742 27.903L37.5238 32.2104L33.826 32.0813L33.9765 27.7739ZM26.581 27.5156L30.2787 27.6448L30.1283 31.9522L26.4306 31.823L26.581 27.5156ZM19.1855 27.2574L22.8832 27.3865L22.7328 31.6939L19.0351 31.5648L19.1855 27.2574ZM12.1012 18.3747L15.7989 18.5039L15.6485 22.8112L11.9507 22.6821L12.1012 18.3747ZM34.2776 19.1492L37.9754 19.2783L37.825 23.5857L34.1272 23.4565L34.2776 19.1492ZM26.8822 18.8909L30.5799 19.02L30.4295 23.3274L26.7317 23.1983L26.8822 18.8909ZM19.4867 18.6327L23.1844 18.7618L23.034 23.0692L19.3362 22.94L19.4867 18.6327ZM12.4023 9.75L16.1001 9.87913L15.9497 14.1865L12.2519 14.0574L12.4023 9.75ZM34.5788 10.5244L38.2766 10.6535L38.1262 14.9609L34.4284 14.8318L34.5788 10.5244ZM27.1833 10.2662L30.8811 10.3953L30.7307 14.7027L27.0329 14.5735L27.1833 10.2662ZM19.7878 10.0079L23.4856 10.137L23.3352 14.4444L19.6374 14.3153L19.7878 10.0079Z" stroke="white" stroke-linecap="round" stroke-linejoin="round"/>
<path d="M34.2207 38.2598L37.9184 38.3889L37.768 42.6963L34.0703 42.5671L34.2207 38.2598Z" fill="#23BB4E"/>
<path d="M35.3785 42.6221L37.7971 42.7065L37.9478 38.3891L37.2483 38.3647L35.3785 42.6221Z" fill="#23BB4E" fill-opacity="0.25"/>
<path d="M24.3877 37.3053L24.1081 45.3104M10.8146 37.4417L14.5124 37.5708L14.362 41.8782L10.6642 41.749L10.8146 37.4417ZM34.2204 38.259L37.9181 38.3881L37.7677 42.6955L34.07 42.5664L34.2204 38.259Z" stroke="white" stroke-linecap="round" stroke-linejoin="round"/>
<path d="M18.1094 34.0039L30.8916 34.4503L30.7841 37.5284L18.0019 37.082L18.1094 34.0039Z" stroke="white" stroke-linecap="round" stroke-linejoin="round"/>
</svg>
