<svg width="1440" height="156" viewBox="0 0 1440 156" fill="none" xmlns="http://www.w3.org/2000/svg">
<path d="M1424.84 4.29686L1413.51 0.505859M1424.84 4.29686H1391.27M1424.84 4.29686L1436.54 8.21386M1424.84 4.29686H1448.61M1413.51 0.505859L1417.63 0.506859L1421.71 0.514862L1425.71 0.53886L1429.57 0.583858L1433.27 0.65786L1436.77 0.76786L1440.01 0.922859L1443.02 1.11986L1445.61 1.39186L1447.96 1.70686L1448.61 1.81686V4.29686M1413.51 0.505859H1380.49M1391.27 4.29686L1380.49 0.505859M1391.27 4.29686H1357.71M1391.27 4.29686L1394.03 5.26386L1402.42 8.21486M1436.54 8.21386L1402.42 8.21486M1436.54 8.21386L1448.61 12.2539M1436.54 8.21386H1448.61M1448.61 4.29686V8.21386M1380.49 0.505859H1347.46M1347.46 0.505859H1314.44M1347.46 0.505859L1357.71 4.29686M1314.44 0.505859H1281.41M1314.44 0.505859L1324.15 4.29686M1357.71 4.29686H1324.15M1357.71 4.29686L1368.3 8.21486M1281.41 0.505859H1248.39M1281.41 0.505859L1290.58 4.29686M1324.15 4.29686H1290.58M1324.15 4.29686L1334.18 8.21386M1248.39 0.505859H1215.37M1248.39 0.505859L1257.02 4.29686M1290.58 4.29686H1257.02M1290.58 4.29686L1300.06 8.21386M1215.37 0.505859H1182.34M1215.37 0.505859L1223.46 4.29686M1257.02 4.29686H1223.46M1257.02 4.29686L1259.22 5.26486L1260.33 5.75086L1265.94 8.21486M1182.34 0.505859H1149.32M1182.34 0.505859L1189.89 4.29686M1223.46 4.29686H1189.89M1223.46 4.29686L1225.52 5.26486L1231.81 8.21486H1265.94M1149.32 0.505859H1116.29M1149.32 0.505859L1156.33 4.29686M1189.89 4.29686H1156.33M1189.89 4.29686L1197.69 8.21386M1116.29 0.505859H1083.27M1116.29 0.505859L1122.76 4.29686M1156.33 4.29686H1122.76M1156.33 4.29686L1158.12 5.26386L1159.02 5.74986L1163.57 8.21386M1083.27 0.505859H1050.24M1083.27 0.505859L1089.2 4.29686M1122.76 4.29686H1089.2M1122.76 4.29686L1129.45 8.21386M1050.24 0.505859H1017.22M1050.24 0.505859L1055.64 4.29686M1089.2 4.29686H1055.64M1089.2 4.29686L1090.71 5.26486L1091.48 5.75086L1095.33 8.21486M1017.22 0.505859H984.195M1017.22 0.505859L1018.42 1.44286L1020.23 2.85986L1022.07 4.29686M1055.64 4.29686H1022.07M1055.64 4.29686L1056.32 4.77886L1057.01 5.26386L1061.21 8.21386M984.195 0.505859H951.171M984.195 0.505859L985.26 1.44286L988.509 4.29686M1022.07 4.29686H988.509M1022.07 4.29686L1023.31 5.26386L1023.93 5.74986L1027.09 8.21386M951.171 0.505859H918.146M951.171 0.505859L954.946 4.29686M988.509 4.29686H954.946M988.509 4.29686L992.967 8.21386M918.146 0.505859H885.122M918.146 0.505859L919.347 1.91286L920.564 3.33686L920.972 3.81686L921.383 4.29686M954.946 4.29686H921.383M954.946 4.29686L955.427 4.77986L955.909 5.26486L956.394 5.75086L958.847 8.21486M885.122 0.505859H852.097M885.122 0.505859L886.123 1.91286L886.459 2.38586L886.797 2.85986L887.819 4.29686M921.383 4.29686H887.819M921.383 4.29686L922.208 5.26386L922.623 5.74986L923.04 6.23986L924.726 8.21386M852.097 0.505859H819.073M852.097 0.505859L854.255 4.29686M887.819 4.29686H854.255M887.819 4.29686L888.506 5.26386L889.9 7.22186L890.251 7.71686L890.605 8.21386M819.073 0.505859L819.273 0.972858L819.472 1.44286L820.486 3.81686L820.691 4.29686M819.073 0.505859H786.049M854.255 4.29686H820.691M854.255 4.29686L854.53 4.77986L854.805 5.26486L855.082 5.75086L856.483 8.21486M820.691 4.29686H787.128M820.691 4.29686L822.362 8.21486M786.049 0.505859H753.024M786.049 0.505859L787.128 4.29686M753.024 0.505859H720M753.024 0.505859L753.225 1.91286L753.564 4.29686M787.128 4.29686H753.564M787.128 4.29686L787.265 4.77886L787.402 5.26386L787.541 5.74986L788.242 8.21386M720 0.505859H686.976M720 0.505859V4.29686M753.564 4.29686H720M753.564 4.29686L754.121 8.21386M686.976 0.505859H653.951M686.976 0.505859L686.776 1.91286L686.436 4.29686M720 4.29686H686.436M720 4.29686V8.21486M653.951 0.505859H620.927M653.951 0.505859L652.873 4.29686M686.436 4.29686H652.873M686.436 4.29686L685.879 8.21386M620.927 0.505859L620.727 0.972858L620.528 1.44286L619.514 3.81686L619.309 4.29686M620.927 0.505859H587.903M652.873 4.29686H619.309M652.873 4.29686L652.735 4.77886L652.598 5.26386L652.459 5.74986L652.04 7.22186L651.758 8.21386M619.309 4.29686H585.745M619.309 4.29686L617.638 8.21386M587.903 0.505859H554.878M587.903 0.505859L586.019 3.81586L585.745 4.29686M554.878 0.505859H521.854M554.878 0.505859L553.877 1.91286L553.541 2.38586L552.864 3.33686L552.523 3.81686L552.181 4.29686M585.745 4.29686H552.181M585.745 4.29686L585.47 4.77986L585.195 5.26486L584.918 5.75086L583.516 8.21386M521.854 0.505859H488.829M521.854 0.505859L520.653 1.91286L519.436 3.33686L519.028 3.81686L518.617 4.29686M552.181 4.29686H518.617M552.181 4.29686L551.494 5.26486L550.1 7.22286L549.395 8.21486M488.829 0.505859H455.805M488.829 0.505859L485.054 4.29686M518.617 4.29686H485.054M518.617 4.29686L517.792 5.26386L517.377 5.74986L516.96 6.23986L515.274 8.21386M455.805 0.505859H422.78M455.805 0.505859L454.74 1.44286L451.491 4.29686M485.054 4.29686L484.573 4.77886L481.153 8.21386M485.054 4.29686H451.491M422.78 0.505859H389.756M422.78 0.505859L417.927 4.29686M451.491 4.29686H417.927M451.491 4.29686L450.941 4.77986L447.033 8.21386M389.756 0.505859H356.732M389.756 0.505859L384.363 4.29686M417.927 4.29686H384.363M417.927 4.29686L416.688 5.26486L416.065 5.75086L412.912 8.21386M356.732 0.505859H323.707M356.732 0.505859L350.799 4.29686M384.363 4.29686H350.799M384.363 4.29686L383.676 4.77886L382.987 5.26386L378.791 8.21386M323.707 0.505859H290.683M323.707 0.505859L317.236 4.29686M350.799 4.29686H317.236M350.799 4.29686L349.286 5.26386L348.524 5.74986L344.669 8.21386M290.683 0.505859H257.659M290.683 0.505859L283.672 4.29686M317.236 4.29686H283.672M317.236 4.29686L316.411 4.77986L310.548 8.21386M257.659 0.505859H224.635M257.659 0.505859L250.108 4.29686M283.672 4.29686H250.108M283.672 4.29686L281.883 5.26486L280.983 5.75086L276.427 8.21486M224.635 0.505859H191.61M224.635 0.505859L216.544 4.29686M250.108 4.29686H216.544M250.108 4.29686L242.307 8.21386M191.61 0.505859H158.586M191.61 0.505859L182.981 4.29686M216.544 4.29686H182.981M216.544 4.29686L214.481 5.26386L208.186 8.21386M158.586 0.505859H125.562M158.586 0.505859L149.417 4.29686M182.981 4.29686H149.417M182.981 4.29686L180.78 5.26486L179.671 5.75086L174.065 8.21486M125.562 0.505859H92.537M125.562 0.505859L115.853 4.29686M149.417 4.29686H115.853M149.417 4.29686L139.944 8.21486M92.537 0.505859H59.513M92.537 0.505859L82.29 4.29686M115.853 4.29686H82.29M115.853 4.29686L105.823 8.21386M59.513 0.505859H26.488M59.513 0.505859L48.726 4.29686M82.29 4.29686H48.726M82.29 4.29686L71.702 8.21386M26.488 0.505859L22.368 0.506859L18.288 0.514862L14.295 0.53886L10.427 0.583858L6.726 0.65786L3.232 0.76786L-0.0120001 0.922859L-3.024 1.11986L-5.608 1.39186L-7.961 1.70686L-8.608 1.81686V4.29686M26.488 0.505859L15.162 4.29686M48.726 4.29686H15.162M48.726 4.29686L45.974 5.26386L37.58 8.21386M-8.608 4.29686H15.162M-8.608 4.29686V8.21386M71.702 8.21386H105.823M71.702 8.21386H37.58M105.823 8.21386L95.453 12.2629M105.823 8.21386L139.944 8.21486M208.186 8.21386H242.307M208.186 8.21386L174.065 8.21486M242.307 8.21386L276.427 8.21486M344.669 8.21386L338.333 12.2629M344.669 8.21386H378.791M344.669 8.21386H310.548M378.791 8.21386L375.213 10.7289L373.029 12.2629M378.791 8.21386H412.912M481.153 8.21386L477.121 12.2629M481.153 8.21386H515.274M481.153 8.21386H447.033M515.274 8.21386L513.128 10.7289L511.818 12.2629M515.274 8.21386L549.395 8.21486M617.638 8.21386L617.21 9.21286L616.564 10.7289L616.128 11.7489L615.909 12.2629M617.638 8.21386H651.758M617.638 8.21386H583.516M651.758 8.21386L651.33 9.71586L650.752 11.7489L650.606 12.2629M651.758 8.21386H685.879M754.121 8.21386L754.192 8.71286L754.263 9.21286L754.335 9.71586L754.406 10.2209L754.479 10.7289L754.697 12.2629M754.121 8.21386H788.242M754.121 8.21386L720 8.21486M788.242 8.21386L788.67 9.71586L789.248 11.7489L789.394 12.2629M788.242 8.21386L822.362 8.21486M890.605 8.21386L891.316 9.21286L893.485 12.2629M890.605 8.21386H924.726M890.605 8.21386L856.483 8.21486M924.726 8.21386L926.872 10.7289L928.182 12.2629M924.726 8.21386L958.847 8.21486M1027.09 8.21386L1031.62 11.7489L1032.27 12.2629M1027.09 8.21386H1061.21M1027.09 8.21386H992.967M1061.21 8.21386L1064.79 10.7289L1066.97 12.2629M1061.21 8.21386L1095.33 8.21486M1163.57 8.21386L1171.06 12.2629M1163.57 8.21386H1197.69M1163.57 8.21386H1129.45M1197.69 8.21386L1205.76 12.2629M1197.69 8.21386L1231.81 8.21286L1240.45 12.2629M1300.06 8.21386L1309.85 12.2629M1300.06 8.21386L1265.94 8.21486M1300.06 8.21386H1334.18M1334.18 8.21386L1344.55 12.2629M1334.18 8.21386L1368.3 8.21486M-8.725 39.7519H-8.608M-8.608 39.7519H25.057M-8.608 39.7519V44.9479M-8.608 39.7519V37.9229M25.057 39.7519L37.871 34.7489M25.057 39.7519L11.752 44.9479M25.057 39.7519H63.665M37.871 34.7489L50.221 29.9259M37.871 34.7489H75.766M11.752 44.9479L-2.073 50.3459M11.752 44.9479H51.099M11.752 44.9479H-8.608M63.665 39.7519L75.767 34.7499M63.665 39.7519L51.099 44.9479M63.665 39.7519H102.273M37.872 34.7489H-0.0249996M-0.0249996 34.7489L13.011 29.9259M-0.0249996 34.7489H-8.608M-0.0249996 34.7489L-8.608 37.9229M-8.608 34.7489V37.9229M-8.608 34.7489V29.9269M37.718 20.7839H73.628M37.718 20.7839L49.435 16.4499M37.718 20.7839H1.81M73.628 20.7839L84.729 16.4499M73.628 20.7839L62.134 25.2739M73.628 20.7839H109.539M49.435 16.4499H84.729M49.435 16.4499L60.758 12.2619M49.435 16.4499H14.142M1.81 20.7839L14.143 16.4509M1.81 20.7839H-8.608M1.81 20.7839L-8.608 24.4449M37.72 20.7839L25.586 25.2739H62.133M84.729 16.4499H120.021M84.729 16.4499L95.454 12.2619M60.758 12.2619L95.453 12.2629M60.758 12.2619L71.702 8.21186M14.142 16.4499L26.06 12.2619M14.142 16.4499H-8.608M120.021 16.4499L109.538 20.7849M120.021 16.4499L155.314 16.4509M120.021 16.4499L130.15 12.2629M-8.977 118.732H-8.607M-8.607 118.732H22.175M-8.607 118.732L-8.608 110.437M-8.607 118.732L-8.608 127.441M22.175 118.732L38.699 110.437M22.175 118.732L4.83 127.441M22.175 118.732H72.02M38.699 110.437L54.46 102.524M38.699 110.437H87.364M38.699 110.437H-8.608M4.83 127.441H55.914M4.83 127.441H-8.608M4.83 127.441L-8.608 134.187M72.02 118.732L87.364 110.437M72.02 118.732L55.914 127.441M72.02 118.732H121.865M54.46 102.524H6.921M54.46 102.524L69.506 94.9699M54.46 102.524H101.998M87.364 110.437L101.998 102.524M87.364 110.437H136.029M-8.608 110.437V109.801M6.921 102.524L23.043 94.9699M6.921 102.524H-8.608M6.921 102.524L-8.608 109.801M23.043 94.9699L38.452 87.7489M23.043 94.9699H69.506M23.043 94.9699H-8.607M-8.608 102.524V109.801M-8.608 102.524L-8.607 94.9699M38.452 87.7489H83.888M38.452 87.7489L53.193 80.8409M38.452 87.7489H-6.985M83.888 87.7489L97.648 80.8409M83.888 87.7489L69.506 94.9699M83.888 87.7489H129.325M53.193 80.8409H97.648M53.193 80.8409H8.74M53.193 80.8409L67.312 74.2259M-6.985 87.7489L8.74 80.8409M-6.985 87.7489H-8.608M-6.985 87.7489L-8.608 88.4619M97.648 80.8409L110.824 74.2259M97.648 80.8409H142.1M69.506 94.9699H115.97M129.325 87.7489L142.1 80.8409M129.325 87.7489L115.97 94.9699M129.325 87.7489H174.761M8.74 80.8409L23.799 74.2259M8.74 80.8409H-8.608M67.312 74.2259H110.824M67.312 74.2259H23.799M67.312 74.2259L80.844 67.8849M110.824 74.2259L123.455 67.8849M110.824 74.2259H154.337M142.1 80.8409L154.337 74.2259M142.1 80.8409H186.555M93.826 61.8009H135.571M93.826 61.8009L106.292 55.9599M93.826 61.8009H52.082M106.292 55.9599H147.207M106.292 55.9599H65.379M106.292 55.9599L118.273 50.3459M52.082 61.8009H10.339M52.082 61.8009L65.379 55.9599M52.082 61.8009L38.235 67.8849M93.827 61.8009L80.844 67.8849M80.844 67.8849H123.455M80.844 67.8849H38.235M135.572 61.8009L147.207 55.9599M135.572 61.8009L123.455 67.8849M135.572 61.8009H177.317M147.207 55.9599L158.388 50.3459M147.207 55.9599H188.121M123.455 67.8849H166.065M177.317 61.8009L188.121 55.9599M177.317 61.8009L166.065 67.8849M177.317 61.8009H219.062M65.379 55.9599H24.467M65.379 55.9599L78.157 50.3459M118.273 50.3459H158.388M118.273 50.3459H78.157M118.273 50.3459L129.793 44.9479M158.388 50.3459L169.14 44.9479M158.388 50.3459H198.503M188.121 55.9599L198.503 50.3459M188.121 55.9599H229.035M140.881 39.7519H179.489M140.881 39.7519L151.559 34.7489M140.881 39.7519H102.273M140.881 39.7519L129.793 44.9479M179.489 39.7519L189.455 34.7489M179.489 39.7519L169.14 44.9479M179.489 39.7519H218.096M151.559 34.7489H189.455M151.559 34.7489H113.663M151.559 34.7489L161.852 29.9259M102.273 39.7519L113.663 34.7489M102.273 39.7519L90.446 44.9469L129.793 44.9479M129.793 44.9479H169.14M189.455 34.7489L199.061 29.9259M189.455 34.7489H227.351M169.14 44.9479H208.487M218.096 39.7519L227.351 34.7489M218.096 39.7519L208.487 44.9479M218.096 39.7519H256.704M113.663 34.7489L75.767 34.7499M113.663 34.7489L124.642 29.9259M161.852 29.9259H199.061M161.852 29.9259H124.642M161.852 29.9259L171.777 25.2749M199.061 29.9259H236.27M227.351 34.7489L236.27 29.9259M227.351 34.7489H265.248M217.266 20.7859H181.356L190.607 16.4509M190.607 16.4509H225.899M190.607 16.4509L199.545 12.2629M190.607 16.4509H155.314M171.777 25.2749L181.356 20.7849H145.447H109.538M171.777 25.2749L135.229 25.2739M217.266 20.7849L225.899 16.4509M217.266 20.7849L208.325 25.2749M217.266 20.7849H253.176M225.899 16.4509H261.193M225.899 16.4509L234.242 12.2629M199.545 12.2629H234.241M199.545 12.2629L208.185 8.21286M199.545 12.2629H164.846M155.314 16.4509L145.446 20.7849L135.228 25.2739M155.314 16.4509L164.846 12.2629M16.929 262.56L40.186 246.213M16.929 262.56L-7.975 280.065M16.929 262.56H87.236M16.929 262.56H-8.608M40.186 246.213L61.953 230.914M40.186 246.213H108.167M40.186 246.213H-8.608M-7.975 280.065H64.822M-7.975 280.065H-8.608M-7.975 280.065L-8.608 280.509M87.236 262.56L108.167 246.213M87.236 262.56L64.822 280.065M87.236 262.56H157.543M-8.608 262.56V280.065M-8.608 262.56V246.213M61.953 230.914L82.37 216.563M61.953 230.914H127.758M61.953 230.914H-3.852L18.607 216.563M108.167 246.213L127.758 230.914M108.167 246.213H176.148M-8.608 246.213V233.953M39.714 203.076H101.558M39.714 203.076L59.587 190.377M39.714 203.076L18.607 216.563M39.714 203.076H-8.608M101.558 203.076L119.624 190.377M101.558 203.076L82.37 216.563M101.558 203.076H163.402M59.587 190.377H119.624M59.587 190.377H-0.45M59.587 190.377L78.333 178.399M18.607 216.563H82.37M18.607 216.563H-8.608M-8.608 203.076V216.563M-8.608 203.076V195.155M119.624 190.377L136.666 178.399M119.624 190.377H179.662M82.37 216.563H146.133M163.402 203.076L179.662 190.377M163.402 203.076L146.133 216.563M163.402 203.076H225.247M-0.45 190.377L19.999 178.399M-0.45 190.377H-8.608M-0.45 190.377L-8.608 195.155M78.333 178.399H136.666M78.333 178.399H19.999M78.333 178.399L96.043 167.083M136.666 178.399L152.766 167.083M136.666 178.399H195M179.662 190.377L195 178.399M179.662 190.377H239.7M112.802 156.373H168.002M112.802 156.373L128.685 146.225M112.802 156.373H57.602M112.802 156.373L96.043 167.083M168.002 156.373L182.441 146.225M168.002 156.373L152.766 167.083M168.002 156.373H223.202M128.685 146.225H182.441M128.685 146.225H74.929M128.685 146.225L143.757 136.593M57.602 156.373H2.403M57.602 156.373L74.929 146.225M57.602 156.373L39.32 167.083M96.043 167.083H152.766M96.043 167.083H39.32M182.441 146.225L196.143 136.593M182.441 146.225H236.196M152.766 167.083H209.49M223.202 156.373L236.196 146.225M223.202 156.373L209.49 167.083M223.202 156.373H278.402M74.929 146.225H21.172M74.929 146.225L91.372 136.593M143.757 136.593H196.143M143.757 136.593H91.372M143.757 136.593L158.081 127.441M196.143 136.593L209.164 127.441M196.143 136.593H248.529M236.196 146.225L248.529 136.593M236.196 146.225H289.952M171.709 118.732H221.554M171.709 118.732L184.693 110.437M171.709 118.732H121.865M171.709 118.732L158.081 127.441M221.554 118.732L233.357 110.437M221.554 118.732L209.164 127.441M221.554 118.732H271.399M184.693 110.437H233.357M184.693 110.437H136.029M184.693 110.437L197.075 102.524M121.865 118.732L136.029 110.437M121.865 118.732L106.997 127.441M158.081 127.441H209.164M158.081 127.441H106.997M233.357 110.437L244.614 102.524M233.357 110.437H282.021M209.164 127.441H260.248M271.399 118.732L282.021 110.437M271.399 118.732L260.248 127.441M271.399 118.732H321.243M136.029 110.437L149.537 102.524M197.075 102.524H244.614M197.075 102.524H149.537M197.075 102.524L208.898 94.9699M244.614 102.524L255.362 94.9699M244.614 102.524H292.153M282.021 110.437L292.153 102.524M282.021 110.437H330.685M220.198 87.7489H265.634M220.198 87.7489L231.009 80.8409M220.198 87.7489H174.761M220.198 87.7489L208.898 94.9699M265.634 87.7489L275.463 80.8409M265.634 87.7489L255.362 94.9699M265.634 87.7489H311.07M231.009 80.8409H275.463M231.009 80.8409H186.555M231.009 80.8409L241.362 74.2259M174.761 87.7489L186.555 80.8409M174.761 87.7489L162.434 94.9699M208.898 94.9699H255.362M208.898 94.9699H162.434M275.463 80.8409L284.875 74.2259M275.463 80.8409H319.916M255.362 94.9699H301.826M311.07 87.7489L319.916 80.8409M311.07 87.7489L301.826 94.9699M311.07 87.7489H356.508M186.555 80.8409L197.849 74.2259M241.362 74.2259H284.875M241.362 74.2259H197.849M241.362 74.2259L251.286 67.8849M284.875 74.2259L293.897 67.8849M284.875 74.2259H328.387M319.916 80.8409L328.387 74.2259M319.916 80.8409H364.37M260.806 61.8009H302.551M260.806 61.8009L269.948 55.9599M260.806 61.8009H219.062M260.806 61.8009L251.286 67.8849M302.551 61.8009L303.609 61.0579L310.862 55.9599M302.551 61.8009L293.897 67.8849M302.551 61.8009H344.297M269.948 55.9599H310.862M269.948 55.9599H229.035M269.948 55.9599L278.733 50.3459M219.062 61.8009L229.035 55.9599M219.062 61.8009L208.675 67.8849M251.286 67.8849H293.897M251.286 67.8849H208.675M310.862 55.9599L318.848 50.3459M310.862 55.9599H351.776M293.897 67.8849H336.506M344.297 61.8009L351.776 55.9599M344.297 61.8009L336.506 67.8849M344.297 61.8009H386.041M229.035 55.9599L238.618 50.3459M278.733 50.3459H318.848M278.733 50.3459H238.618M278.733 50.3459L287.181 44.9479M318.848 50.3459L325.585 45.6109L326.528 44.9479M318.848 50.3459H358.964M351.776 55.9599L358.964 50.3459M351.776 55.9599H392.69M295.312 39.7519H333.921M295.312 39.7519L303.144 34.7489M295.312 39.7519H256.704M295.312 39.7519L287.181 44.9479M333.921 39.7519L341.04 34.7489M333.921 39.7519L331.182 41.6779L326.528 44.9479M333.921 39.7519H372.529M303.144 34.7489H341.04M303.144 34.7489H265.248M303.144 34.7489L310.691 29.9259M256.704 39.7519L264.197 35.3629L265.248 34.7489M256.704 39.7519L247.834 44.9469M287.181 44.9479H326.528M287.181 44.9479L247.834 44.9469M341.04 34.7489L347.901 29.9259M341.04 34.7489H378.936M326.528 44.9479H365.875M372.529 39.7519L378.936 34.7489M372.529 39.7519L370.888 41.0319L365.875 44.9479M372.529 39.7519H411.136M265.248 34.7489L273.481 29.9259M310.691 29.9259H347.901M310.691 29.9259H273.481M310.691 29.9259L317.97 25.2749M347.901 29.9259L354.518 25.2749M347.901 29.9259H385.111M378.936 34.7489L385.111 29.9259M378.936 34.7489H416.832M360.904 20.7859H324.994L331.778 16.4509M331.778 16.4509H367.072M331.778 16.4509L338.333 12.2629M331.778 16.4509H296.485M289.086 20.7849H324.994L317.97 25.2749M317.97 25.2749H354.518M317.97 25.2749L281.422 25.2739L273.481 29.9259M360.904 20.7849L365.55 17.5209L366.312 16.9839L367.072 16.4509M360.904 20.7849L354.518 25.2749M360.904 20.7849H396.814M367.072 16.4509H402.364M367.072 16.4509L373.029 12.2629M354.518 25.2749L391.066 25.2739M396.814 20.7849L402.364 16.4509M396.814 20.7849L391.066 25.2739M396.814 20.7849H432.724M338.333 12.2629H373.029M338.333 12.2629H303.635M296.485 16.4509H261.192M296.485 16.4509L289.085 20.7849M296.485 16.4509L303.635 12.2629M402.364 16.4509H437.657M402.364 16.4509L407.727 12.2629M373.029 12.2629H407.727M42.403 448.771H139.203M42.403 448.771L72.883 418.166M42.403 448.771L8.909 482.403M42.403 448.771L-8.607 448.772M139.203 448.771L165.328 418.166M139.203 448.771L110.494 482.403M139.203 448.771H236.002M72.883 418.166H165.328M72.883 418.166L100.739 390.195M72.883 418.166H-8.607M8.909 482.403H110.494M8.909 482.403L-8.607 499.993M8.909 482.403H-8.608M-8.607 448.772L-8.608 482.403M-8.607 448.772V418.166M165.328 418.166L189.205 390.195M165.328 418.166H257.774M110.494 482.403L78.799 519.532M110.494 482.403H212.079M236.002 448.771L257.774 418.166M236.002 448.771L212.079 482.403M236.002 448.771H332.802M100.739 390.195H189.205M100.739 390.195H12.273M100.739 390.195L126.296 364.533M-8.607 418.166V408.541M189.205 390.195L211.111 364.533M189.205 390.195H277.671M257.774 418.166L277.671 390.195M257.774 418.166H350.219M149.827 340.905H231.28M149.827 340.905L171.563 319.079M149.827 340.905H68.374M149.827 340.905L126.296 364.533M231.28 340.905L249.911 319.079M231.28 340.905L211.111 364.533M231.28 340.905H312.733M171.563 319.079H249.911M171.563 319.079H93.215M171.563 319.079L191.704 298.856M68.374 340.905L93.215 319.079M68.374 340.905L41.481 364.533M68.374 340.905H-8.608M126.296 364.533H211.111M126.296 364.533H41.481M249.911 319.079L267.175 298.856M249.911 319.079H328.26M211.111 364.533H295.925M312.733 340.905L328.26 319.079M312.733 340.905L295.925 364.533M312.733 340.905H394.186M93.215 319.079H14.867M93.215 319.079L116.233 298.856M191.704 298.856H267.175M191.704 298.856H116.233M191.704 298.856L210.417 280.065M267.175 298.856L283.215 280.065M267.175 298.856H342.646M328.26 319.079L342.646 298.856M328.26 319.079H406.608M227.851 262.56H298.157M227.851 262.56L244.13 246.213M227.851 262.56H157.543M227.851 262.56L210.417 280.065M298.157 262.56L312.112 246.213M298.157 262.56L283.215 280.065M298.157 262.56H368.464M244.13 246.213H312.112M244.13 246.213H176.148M244.13 246.213L259.367 230.914M157.543 262.56L176.148 246.213M157.543 262.56L137.619 280.065M210.417 280.065H283.215M210.417 280.065H137.619M312.112 246.213L325.172 230.914M312.112 246.213H380.093M283.215 280.065H356.013M368.464 262.56L380.093 246.213M368.464 262.56L356.013 280.065M368.464 262.56H438.772M176.148 246.213L193.563 230.914M259.367 230.914H325.172M259.367 230.914H193.563M259.367 230.914L273.659 216.563M325.172 230.914L337.422 216.563M325.172 230.914H390.977M380.093 246.213L390.977 230.914M380.093 246.213H448.075M287.09 203.076H348.935M287.09 203.076L299.738 190.377M287.09 203.076H225.247M287.09 203.076L273.659 216.563M348.935 203.076L359.775 190.377M348.935 203.076L337.422 216.563M348.935 203.076H410.779M299.738 190.377H359.775M299.738 190.377H239.7M299.738 190.377L311.666 178.399M225.247 203.076L239.7 190.377M225.247 203.076L209.896 216.563M273.659 216.563H337.422M273.659 216.563H209.896M359.775 190.377L370 178.399M359.775 190.377H419.812M337.422 216.563H401.185M410.779 203.076L419.812 190.377M410.779 203.076L401.185 216.563M410.779 203.076H472.623M239.7 190.377L253.333 178.399M311.666 178.399H370M311.666 178.399H253.333M311.666 178.399L322.936 167.083M370 178.399L379.66 167.083M370 178.399H428.333M419.812 190.377L428.333 178.399M419.812 190.377H479.85M333.601 156.373H388.802M333.601 156.373L343.708 146.225M333.601 156.373H278.402M333.601 156.373L322.936 167.083M388.802 156.373L397.464 146.225M388.802 156.373L379.66 167.083M388.802 156.373H444.001M343.708 146.225H397.464M343.708 146.225H289.952M343.708 146.225L353.3 136.593M278.402 156.373L289.952 146.225M278.402 156.373L266.213 167.083M322.936 167.083H379.66M322.936 167.083H266.213M397.464 146.225L405.686 136.593M397.464 146.225H451.22M379.66 167.083H436.383M444.001 156.373L451.22 146.225M444.001 156.373L436.383 167.083M444.001 156.373H499.201M289.952 146.225L300.915 136.593M353.3 136.593H405.686M353.3 136.593H300.915M353.3 136.593L362.415 127.441M405.686 136.593L413.498 127.441M405.686 136.593H458.072M451.22 146.225L458.072 136.593M451.22 146.225H504.977M371.088 118.732H420.932M371.088 118.732L379.35 110.437M371.088 118.732H321.243M371.088 118.732L362.415 127.441M420.932 118.732L428.014 110.437M420.932 118.732L413.498 127.441M420.932 118.732H470.777M379.35 110.437H428.014M379.35 110.437H330.685M379.35 110.437L387.23 102.524M321.243 118.732L330.685 110.437M321.243 118.732L311.332 127.441M362.415 127.441H413.498M362.415 127.441H311.332M428.014 110.437L434.768 102.524M428.014 110.437H476.678M413.498 127.441H464.582M470.777 118.732L476.678 110.437M470.777 118.732L464.582 127.441M470.777 118.732H520.622M330.685 110.437L339.691 102.524M387.23 102.524H434.768M387.23 102.524H339.691M387.23 102.524L394.753 94.9699M434.768 102.524L441.217 94.9699M434.768 102.524H482.307M476.678 110.437L480.227 105.448L482.307 102.524M476.678 110.437H525.343M401.944 87.7489H447.381M401.944 87.7489L408.824 80.8409M401.944 87.7489H356.508M401.944 87.7489L394.753 94.9699M447.381 87.7489L453.277 80.8409M447.381 87.7489L441.217 94.9699M447.381 87.7489H492.817M408.824 80.8409H453.277M408.824 80.8409H364.37M408.824 80.8409L415.412 74.2259M356.508 87.7489L364.37 80.8409M356.508 87.7489L348.289 94.9699M394.753 94.9699H441.217M394.753 94.9699H348.289M453.277 80.8409L458.925 74.2259M453.277 80.8409H497.731M441.217 94.9699H487.681M492.817 87.7489L497.731 80.8409M492.817 87.7489L491.554 89.5239L487.681 94.9699M492.817 87.7489H538.253M364.37 80.8409L371.899 74.2259M415.412 74.2259H458.925M415.412 74.2259H371.899M415.412 74.2259L421.727 67.8849M458.925 74.2259L461.659 71.0219L464.338 67.8849M458.925 74.2259H502.437M497.731 80.8409L502.437 74.2259M497.731 80.8409H542.185M427.786 61.8009H469.531M427.786 61.8009L433.603 55.9599M427.786 61.8009H386.041M427.786 61.8009L421.727 67.8849M469.531 61.8009L468.893 62.5479L464.338 67.8849M469.531 61.8009L474.517 55.9599M469.531 61.8009H511.276M433.603 55.9599H474.517M433.603 55.9599H392.69M433.603 55.9599L439.194 50.3459M386.041 61.8009L392.69 55.9599M386.041 61.8009L379.117 67.8849M421.727 67.8849H464.338M421.727 67.8849H379.117M464.338 67.8849H506.948M474.517 55.9599L479.309 50.3459M474.517 55.9599H515.431M511.276 61.8009L515.431 55.9599M511.276 61.8009L506.948 67.8849M511.276 61.8009H553.021M392.69 55.9599L399.079 50.3459M439.194 50.3459H479.309M439.194 50.3459H399.079M439.194 50.3459L444.57 44.9479M479.309 50.3459L483.918 44.9469M479.309 50.3459H519.424M515.431 55.9599L519.424 50.3459M515.431 55.9599H556.345M449.744 39.7519H488.352M449.744 39.7519L454.728 34.7489M449.744 39.7519H411.136M449.744 39.7519L444.57 44.9479M488.352 39.7519L492.624 34.7489M488.352 39.7519L486.709 41.6779L485.6 42.9769L483.918 44.9469M488.352 39.7519H526.96M454.728 34.7489H492.624M454.728 34.7489H416.832M454.728 34.7489L459.53 29.9259M411.136 39.7519L416.832 34.7489M411.136 39.7519L405.223 44.9469M444.57 44.9479L483.918 44.9469M444.57 44.9479L405.223 44.9469M492.624 34.7489L494.186 32.9189L495.215 31.7129L496.741 29.9259M492.624 34.7489H530.52M483.918 44.9469L523.265 44.9479M526.96 39.7519L527.862 38.4829L530.52 34.7489M526.96 39.7519L526.506 40.3909L526.049 41.0319L524.667 42.9769L524.201 43.6299L523.265 44.9479M526.96 39.7519H565.568M416.832 34.7489L422.321 29.9259M459.53 29.9259H496.741M459.53 29.9259H422.321M459.53 29.9259L463.02 26.4209L464.163 25.2749M496.741 29.9259L498.744 27.5789L500.711 25.2739M496.741 29.9259H533.951M530.52 34.7489L530.956 34.1359L531.389 33.5259L533.105 31.1139L533.951 29.9259M530.52 34.7489H568.416M504.542 20.7859H468.633L471.885 17.5209L472.95 16.4509M472.95 16.4509H508.243M472.95 16.4509L477.121 12.2629M472.95 16.4509H437.657M432.724 20.7849H468.633L464.73 24.7049L464.163 25.2749M432.724 20.7849L437.657 16.4509M432.724 20.7849L427.614 25.2739M464.163 25.2749L500.711 25.2739M464.163 25.2749L427.614 25.2739M504.542 20.7849L507.33 17.5209L507.787 16.9839L508.243 16.4509M504.542 20.7849L502.643 23.0099L500.711 25.2739M504.542 20.7849H540.452M508.243 16.4509H543.536M508.243 16.4509L511.818 12.2629M500.711 25.2739H537.259M540.452 20.7849L543.536 16.4509M540.452 20.7849L537.259 25.2739M540.452 20.7849H576.362M477.121 12.2629H511.818M477.121 12.2629H442.424M437.657 16.4509L441.248 13.2969L442.424 12.2629M543.536 16.4509H578.828M543.536 16.4509L545.779 13.2969L546.515 12.2629M511.818 12.2629H546.515M429.601 448.771H526.401M429.601 448.771L442.664 418.166M429.601 448.771H332.802M429.601 448.771L415.247 482.403M526.401 448.771L535.11 418.166M526.401 448.771L516.832 482.403M526.401 448.771H623.201M442.664 418.166H535.11M442.664 418.166H350.219M442.664 418.166L454.602 390.195M332.802 448.771L350.219 418.166M332.802 448.771L313.662 482.403M415.247 482.403H516.832M415.247 482.403L399.4 519.532M415.247 482.403H313.662M535.11 418.166L543.068 390.195M535.11 418.166H627.555M516.832 482.403L506.267 519.532M516.832 482.403H618.415M623.201 448.771L627.555 418.166M623.201 448.771L618.415 482.403M623.201 448.771H720M350.219 418.166L366.137 390.195M454.602 390.195H543.068M454.602 390.195H366.137M454.602 390.195L465.555 364.533M543.068 390.195L550.37 364.533M543.068 390.195H631.534M627.555 418.166L631.534 390.195M627.555 418.166H720M475.64 340.905H557.093M475.64 340.905L484.956 319.079M475.64 340.905H394.186M475.64 340.905L465.555 364.533M557.093 340.905L563.304 319.079M557.093 340.905L550.37 364.533M557.093 340.905H638.547M484.956 319.079H563.304M484.956 319.079H406.608M484.956 319.079L493.587 298.856M394.186 340.905L406.608 319.079M394.186 340.905L380.741 364.533M465.555 364.533H550.37M465.555 364.533H380.741M563.304 319.079L569.058 298.856M563.304 319.079H641.652M550.37 364.533H635.185M638.547 340.905L641.652 319.079M638.547 340.905L635.185 364.533M638.547 340.905H720M406.608 319.079L418.117 298.856M493.587 298.856H569.058M493.587 298.856H418.117M493.587 298.856L501.607 280.065M569.058 298.856L574.405 280.065M569.058 298.856H644.529M641.652 319.079L644.529 298.856M641.652 319.079H720M509.079 262.56H579.386M509.079 262.56L516.056 246.213M509.079 262.56H438.772M509.079 262.56L501.607 280.065M579.386 262.56L584.037 246.213M579.386 262.56L574.405 280.065M579.386 262.56H649.693M516.056 246.213H584.037M516.056 246.213H448.075M516.056 246.213L522.586 230.914M438.772 262.56L448.075 246.213M438.772 262.56L428.81 280.065M501.607 280.065H574.405M501.607 280.065H428.81M584.037 246.213L588.391 230.914M584.037 246.213H652.019M574.405 280.065H647.202M649.693 262.56L652.019 246.213M649.693 262.56L647.202 280.065M649.693 262.56H720M448.075 246.213L456.781 230.914M522.586 230.914H588.391M522.586 230.914H456.781M522.586 230.914L528.711 216.563M588.391 230.914L592.474 216.563M588.391 230.914H654.195M652.019 246.213L654.195 230.914M652.019 246.213H720M534.468 203.076H596.311M534.468 203.076L539.887 190.377M534.468 203.076H472.623M534.468 203.076L528.711 216.563M596.311 203.076L599.925 190.377M596.311 203.076L592.474 216.563M596.311 203.076H658.156M539.887 190.377H599.925M539.887 190.377H479.85M539.887 190.377L545 178.399M472.623 203.076L479.85 190.377M472.623 203.076L464.948 216.563M528.711 216.563H592.474M528.711 216.563H464.948M599.925 190.377L603.333 178.399M599.925 190.377H659.963M592.474 216.563H656.237M658.156 203.076L659.963 190.377M658.156 203.076L656.237 216.563M658.156 203.076H720M479.85 190.377L486.666 178.399M545 178.399H603.333M545 178.399H486.666M545 178.399L549.83 167.083M603.333 178.399L606.554 167.083M603.333 178.399H661.667M659.963 190.377L661.667 178.399M659.963 190.377H720M554.4 156.373H609.601M554.4 156.373L558.732 146.225M554.4 156.373H499.201M554.4 156.373L549.83 167.083M609.601 156.373L612.488 146.225M609.601 156.373L606.554 167.083M609.601 156.373H664.8M558.732 146.225H612.488M558.732 146.225H504.977M558.732 146.225L562.843 136.593M499.201 156.373L504.977 146.225M499.201 156.373L493.106 167.083M549.83 167.083H606.554M549.83 167.083H493.106M612.488 146.225L615.229 136.593M612.488 146.225H666.244M606.554 167.083H663.276M664.8 156.373L666.244 146.225M664.8 156.373L663.276 167.083M664.8 156.373H720M504.977 146.225L510.457 136.593M562.843 136.593H615.229M562.843 136.593H510.457M562.843 136.593L566.75 127.441M615.229 136.593L617.833 127.441M615.229 136.593H667.615M666.244 146.225L667.615 136.593M666.244 146.225H720M570.466 118.732H620.311M570.466 118.732L574.007 110.437M570.466 118.732H520.622M570.466 118.732L566.75 127.441M620.311 118.732L622.672 110.437M620.311 118.732L617.833 127.441M620.311 118.732H670.156M574.007 110.437H622.672M574.007 110.437H525.343M574.007 110.437L575.292 107.426L577.384 102.524M520.622 118.732L525.343 110.437M520.622 118.732L515.666 127.441M566.75 127.441H617.833M566.75 127.441H515.666M622.672 110.437L624.923 102.524M622.672 110.437H671.336M617.833 127.441H668.916M670.156 118.732L671.336 110.437M670.156 118.732L668.916 127.441M670.156 118.732H720M525.343 110.437L529.846 102.524M577.384 102.524H624.923M577.384 102.524H529.846M577.384 102.524L580.608 94.9699M624.923 102.524L627.072 94.9699M624.923 102.524H672.461M671.336 110.437L672.461 102.524M671.336 110.437H720M583.69 87.7489H629.127M583.69 87.7489L586.639 80.8409M583.69 87.7489H538.253M583.69 87.7489L581.392 93.1349L580.608 94.9699M629.127 87.7489L629.874 85.1229L631.092 80.8409M629.127 87.7489L627.072 94.9699M629.127 87.7489H674.564M586.639 80.8409L586.998 79.9989L589.462 74.2259M586.639 80.8409H631.092M586.639 80.8409H542.185M538.253 87.7489L542.185 80.8409M538.253 87.7489L537.75 88.6339L536.222 91.3189L534.144 94.9699M580.608 94.9699H627.072M580.608 94.9699H534.144M631.092 80.8409L631.808 78.3269L632.043 77.4979L632.279 76.6739L632.975 74.2259M631.092 80.8409H675.547M627.072 94.9699H673.536M674.564 87.7489L675.547 80.8409M674.564 87.7489L673.536 94.9699M674.564 87.7489H720M589.462 74.2259H632.975M589.462 74.2259H545.95M589.462 74.2259L592.169 67.8849M542.185 80.8409L545.95 74.2259M632.975 74.2259L633.661 71.8169L633.886 71.0219L634.78 67.8849M632.975 74.2259H676.488M675.547 80.8409L675.666 79.9989L676.488 74.2259M675.547 80.8409H720M594.765 61.8009H636.51M594.765 61.8009L596.024 58.8509L596.336 58.1229L596.644 57.3979L596.953 56.6779L597.258 55.9599M594.765 61.8009H553.021M594.765 61.8009L592.169 67.8849M636.51 61.8009L637.763 57.3979L637.969 56.6779L638.172 55.9599M636.51 61.8009L634.78 67.8849M636.51 61.8009H678.255M597.258 55.9599H638.172M597.258 55.9599H556.345M597.258 55.9599L598.767 52.4249L599.064 51.7289L599.655 50.3459M553.021 61.8009L555.526 57.3979L556.345 55.9599M553.021 61.8009L551.739 64.0529L550.437 66.3399L549.558 67.8849M592.169 67.8849H634.78M592.169 67.8849H549.558M638.172 55.9599L639.178 52.4249L639.377 51.7289L639.573 51.0359L639.77 50.3459M638.172 55.9599H679.086M634.78 67.8849H677.389M678.255 61.8009L679.086 55.9599M678.255 61.8009L677.935 64.0529L677.609 66.3399L677.389 67.8849M678.255 61.8009H720M556.345 55.9599L559.539 50.3459M599.655 50.3459H639.77M599.655 50.3459H559.539M599.655 50.3459L601.959 44.9469M639.77 50.3459L641.306 44.9469M639.77 50.3459H679.885M679.086 55.9599L679.885 50.3459M679.086 55.9599H720M604.176 39.7519H642.784M604.176 39.7519L606.312 34.7489M604.176 39.7519H565.568M604.176 39.7519L603.629 41.0319L602.8 42.9769L601.959 44.9469M642.784 39.7519L642.602 40.3909L641.493 44.2869L641.306 44.9469M642.784 39.7519L644.208 34.7489M642.784 39.7519H681.392M606.312 34.7489H644.208M606.312 34.7489H568.416M606.312 34.7489L608.371 29.9259M565.568 39.7519L568.066 35.3629L568.416 34.7489M565.568 39.7519L565.205 40.3909L564.839 41.0319L564.473 41.6779L562.612 44.9469M601.959 44.9469H641.306M601.959 44.9469H562.612M641.306 44.9469L680.653 44.9479M644.208 34.7489L644.729 32.9189L644.9 32.3149L645.072 31.7129L645.58 29.9259M644.208 34.7489H682.104M681.392 39.7519L681.929 35.9819L682.016 35.3629L682.104 34.7489M681.392 39.7519L680.653 44.9479M681.392 39.7519H720M568.416 34.7489L571.161 29.9259M608.371 29.9259H645.58M608.371 29.9259H571.161M608.371 29.9259L608.873 28.7459L609.123 28.1619L609.372 27.5789L609.62 26.9989L609.866 26.4209L610.112 25.8469L610.355 25.2739M645.58 29.9259L645.748 29.3349L645.916 28.7469L646.248 27.5789L646.413 26.9989L646.578 26.4209L646.741 25.8469L646.904 25.2739M645.58 29.9259H682.79M682.104 34.7489L682.79 29.9259M682.104 34.7489H720M648.181 20.7859H612.272L613.665 17.5209L614.121 16.4509M614.121 16.4509H649.414M614.121 16.4509L615.688 12.7789L615.909 12.2629M614.121 16.4509H578.828M576.362 20.7849H612.272L611.56 22.4499L611.322 23.0099L611.082 23.5719L610.355 25.2739M576.362 20.7849L578.828 16.4509M576.362 20.7849L573.807 25.2739M610.355 25.2739H646.904M610.355 25.2739H573.807M648.181 20.7849L648.338 20.2349L648.648 19.1419L648.957 18.0589L649.414 16.4509M648.181 20.7849L647.548 23.0099L647.388 23.5719L647.066 24.7039L646.904 25.2739M648.181 20.7849H684.09M649.414 16.4509L649.566 15.9199L649.716 15.3899L649.866 14.8639L650.015 14.3389L650.459 12.7789L650.606 12.2629M649.414 16.4509H684.707M646.904 25.2739L683.452 25.2749M684.09 20.7849L684.707 16.4509M684.09 20.7849L683.452 25.2749M684.09 20.7849H720M615.909 12.2629H650.606M615.909 12.2629H581.212M578.828 16.4509L580.031 14.3389L580.919 12.7789L581.212 12.2629M650.606 12.2629H685.303M684.707 16.4509L684.782 15.9199L684.858 15.3899L684.933 14.8639L685.303 12.2629M684.707 16.4509H720M816.799 448.771H913.599M816.799 448.771L812.445 418.166M816.799 448.771H720M816.799 448.771L821.585 482.403M913.599 448.771L904.891 418.166M913.599 448.771L923.168 482.403M913.599 448.771H1010.4M812.445 418.166H904.891M812.445 418.166H720M812.445 418.166L808.466 390.195M720 448.771V418.166M720 448.771V482.403M821.585 482.403H923.168M821.585 482.403L826.867 519.532M821.585 482.403H720M904.891 418.166L896.932 390.195M904.891 418.166H997.336M923.168 482.403L933.733 519.532M923.168 482.403H1024.75M1010.4 448.771L997.336 418.166M1010.4 448.771L1024.75 482.403M1010.4 448.771H1107.2M720 418.166V390.195M808.466 390.195H896.932M808.466 390.195H720M808.466 390.195L804.815 364.533M896.932 390.195L889.63 364.533M896.932 390.195H985.398M997.336 418.166L985.398 390.195M997.336 418.166H1089.78M801.453 340.905H882.907M801.453 340.905L798.348 319.079M801.453 340.905H720M801.453 340.905L804.815 364.533M882.907 340.905L876.696 319.079M882.907 340.905L889.63 364.533M882.907 340.905H964.36M798.348 319.079H876.696M798.348 319.079H720M798.348 319.079L795.471 298.856M720 340.905V319.079M720 340.905V364.533M804.815 364.533H889.63M804.815 364.533H720M876.696 319.079L870.942 298.856M876.696 319.079H955.044M889.63 364.533H974.445M964.36 340.905L955.044 319.079M964.36 340.905L974.445 364.533M964.36 340.905H1045.81M720 319.079V298.856M795.471 298.856H870.942M795.471 298.856H720M795.471 298.856L792.798 280.065M870.942 298.856L865.595 280.065M870.942 298.856H946.413M955.044 319.079L946.413 298.856M955.044 319.079H1033.39M790.307 262.56H860.614M790.307 262.56L787.981 246.213M790.307 262.56H720M790.307 262.56L792.798 280.065M860.614 262.56L855.963 246.213M860.614 262.56L865.595 280.065M860.614 262.56H930.921M787.981 246.213H855.963M787.981 246.213H720M787.981 246.213L785.805 230.914M720 262.56V246.213M720 262.56V280.065M792.798 280.065H865.595M792.798 280.065H720M855.963 246.213L851.609 230.914M855.963 246.213H923.944M865.595 280.065H938.393M930.921 262.56L923.944 246.213M930.921 262.56L938.393 280.065M930.921 262.56H1001.23M720 246.213V230.914M785.805 230.914H851.609M785.805 230.914H720M785.805 230.914L783.763 216.563M851.609 230.914L847.526 216.563M851.609 230.914H917.414M923.944 246.213L917.414 230.914M923.944 246.213H991.925M781.844 203.076H843.689M781.844 203.076L780.037 190.377M781.844 203.076H720M781.844 203.076L783.763 216.563M843.689 203.076L840.075 190.377M843.689 203.076L847.526 216.563M843.689 203.076H905.532M780.037 190.377H840.075M780.037 190.377H720M780.037 190.377L778.333 178.399M720 203.076V190.377M720 203.076V216.563M783.763 216.563H847.526M783.763 216.563H720M840.075 190.377L836.667 178.399M840.075 190.377H900.113M847.526 216.563H911.289M905.532 203.076L900.113 190.377M905.532 203.076L911.289 216.563M905.532 203.076H967.377M720 190.377V178.399M778.333 178.399H836.667M778.333 178.399H720M778.333 178.399L776.724 167.083M836.667 178.399L833.446 167.083M836.667 178.399H895M900.113 190.377L895 178.399M900.113 190.377H960.15M775.2 156.373H830.399M775.2 156.373L773.756 146.225M775.2 156.373H720M775.2 156.373L776.724 167.083M830.399 156.373L827.512 146.225M830.399 156.373L833.446 167.083M830.399 156.373H885.6M773.756 146.225H827.512M773.756 146.225H720M773.756 146.225L772.385 136.593M720 156.373V146.225M720 156.373V167.083M776.724 167.083H833.446M776.724 167.083H720M827.512 146.225L824.772 136.593M827.512 146.225H881.268M833.446 167.083H890.17M885.6 156.373L881.268 146.225M885.6 156.373L890.17 167.083M885.6 156.373H940.799M720 146.225V136.593M772.385 136.593H824.772M772.385 136.593H720M772.385 136.593L771.242 128.56L771.084 127.441M824.772 136.593L822.167 127.441M824.772 136.593H877.157M881.268 146.225L877.157 136.593M881.268 146.225H935.023M769.844 118.732H819.689M769.844 118.732L768.664 110.437M769.844 118.732H720M769.844 118.732L771.084 127.441M819.689 118.732L817.328 110.437M819.689 118.732L822.167 127.441M819.689 118.732H869.534M768.664 110.437H817.328M768.664 110.437H720M768.664 110.437L767.539 102.524M720 118.732V110.437M720 118.732V127.441M771.084 127.441H822.167M771.084 127.441H720M817.328 110.437L815.077 102.524M817.328 110.437H865.993M822.167 127.441H873.25M869.534 118.732L865.993 110.437M869.534 118.732L873.25 127.441M869.534 118.732H919.378M720 110.437V102.524M767.539 102.524H815.077M767.539 102.524H720M767.539 102.524L766.464 94.9699M815.077 102.524L812.928 94.9699M815.077 102.524H862.616M865.993 110.437L865.133 108.424L862.616 102.524M865.993 110.437H914.657M765.436 87.7489H810.873M765.436 87.7489L764.453 80.8409M765.436 87.7489H720M765.436 87.7489L766.464 94.9699M810.873 87.7489L809.148 81.6889L808.908 80.8409M810.873 87.7489L812.928 94.9699M810.873 87.7489H856.31M764.453 80.8409L764.334 79.9989L763.512 74.2259M764.453 80.8409H808.908M764.453 80.8409H720M720 87.7489V80.8409M720 87.7489V94.9699M766.464 94.9699H812.928M766.464 94.9699H720M808.908 80.8409L808.192 78.3269L807.957 77.4979L807.721 76.6739L807.025 74.2259M808.908 80.8409H853.361M812.928 94.9699H859.392M856.31 87.7489L853.361 80.8409M856.31 87.7489L858.608 93.1349L859.392 94.9699M856.31 87.7489H901.747M763.512 74.2259H807.025M763.512 74.2259H720M763.512 74.2259L763.283 72.6159L762.832 69.4449L762.611 67.8849M720 80.8409V74.2259M807.025 74.2259L806.339 71.8169L806.114 71.0219L805.221 67.8849M807.025 74.2259H850.538M853.361 80.8409L850.538 74.2259M853.361 80.8409H897.815M761.745 61.8009H803.49M761.745 61.8009L760.914 55.9599M761.745 61.8009H720M761.745 61.8009L762.065 64.0529L762.174 64.8109L762.281 65.5739L762.5 67.1099L762.611 67.8849M803.49 61.8009L802.237 57.3979L801.827 55.9599M803.49 61.8009L805.221 67.8849M803.49 61.8009H845.235M760.914 55.9599H801.827M760.914 55.9599H720M760.914 55.9599L760.115 50.3459M720 61.8009V55.9599M720 61.8009V67.8849M762.611 67.8849H805.221M762.611 67.8849H720M801.827 55.9599L800.822 52.4249L800.623 51.7289L800.427 51.0359L800.23 50.3459M801.827 55.9599H842.742M805.221 67.8849H847.831M845.235 61.8009L843.664 58.1229L843.356 57.3969L843.047 56.6769L842.742 55.9599M845.235 61.8009L847.501 67.1099L847.831 67.8849M845.235 61.8009H886.979M720 55.9599V50.3459M760.115 50.3459H800.23M760.115 50.3459H720M760.115 50.3459L759.347 44.9479M800.23 50.3459L798.694 44.9469M800.23 50.3459H840.345M842.742 55.9599L841.532 53.1249L841.233 52.4249L840.936 51.7289L840.345 50.3459M842.742 55.9599H883.655M758.608 39.7519H797.216M758.608 39.7519L757.896 34.7489M758.608 39.7519H720M758.608 39.7519L759.347 44.9479M797.216 39.7519L797.398 40.3909L798.507 44.2869L798.694 44.9469M797.216 39.7519L795.792 34.7489M797.216 39.7519H835.824M757.896 34.7489H795.792M757.896 34.7489H720M757.896 34.7489L757.21 29.9259M720 39.7519V34.7489M720 39.7519V44.9469M759.347 44.9479L798.694 44.9469M759.347 44.9479L720 44.9469M798.694 44.9469H838.041M795.792 34.7489L795.271 32.9189L795.1 32.3149L794.928 31.7129L794.42 29.9259M795.792 34.7489H833.688M835.824 39.7519L833.688 34.7489M835.824 39.7519L836.371 41.0319L837.2 42.9769L838.041 44.9469M835.824 39.7519H874.432M720 34.7489V29.9269M757.21 29.9259H794.42M757.21 29.9259L720 29.9269M757.21 29.9259L756.548 25.2749M794.42 29.9259L794.252 29.3349L793.752 27.5789L793.587 26.9989L793.422 26.4209L793.259 25.8469L793.096 25.2739M794.42 29.9259H831.63M833.688 34.7489L831.63 29.9259M833.688 34.7489H871.584M791.819 20.7859H755.91L755.293 16.4509M755.293 16.4509L755.218 15.9199L755.142 15.3899L755.067 14.8639L754.697 12.2629M755.293 16.4509H790.585M755.293 16.4509H720M720 20.7849H755.91L756.548 25.2749M720 20.7849V16.4509M720 20.7849V25.2739M756.548 25.2749L793.096 25.2739M756.548 25.2749L720 25.2739M791.819 20.7849L791.662 20.2349L791.351 19.1419L791.197 18.5989L790.89 17.5209L790.738 16.9839L790.585 16.4509M791.819 20.7849L792.452 23.0099L792.612 23.5719L792.934 24.7039L793.096 25.2739M791.819 20.7849H827.728M790.585 16.4509H825.879M790.585 16.4509L790.284 15.3909L790.134 14.8639L789.985 14.3389L789.541 12.7789L789.394 12.2629M793.096 25.2739L829.645 25.2749M827.728 20.7849L826.335 17.5209L825.879 16.4509M827.728 20.7849L828.918 23.5719L829.645 25.2749M827.728 20.7849H863.638M754.697 12.2629H789.394M754.697 12.2629H720M720 16.4509V12.2629M825.879 16.4509H861.172M825.879 16.4509L824.532 13.2969L824.091 12.2629M789.394 12.2629H824.091M1204 448.771H1300.8M1204 448.771L1182.23 418.166M1204 448.771H1107.2M1204 448.771L1227.92 482.403M1300.8 448.771L1274.67 418.166M1300.8 448.771L1329.51 482.403M1300.8 448.771H1397.6M1182.23 418.166H1274.67M1182.23 418.166H1089.78M1182.23 418.166L1162.33 390.195M1107.2 448.771L1089.78 418.166M1107.2 448.771L1126.34 482.403M1227.92 482.403H1329.51M1227.92 482.403L1254.33 519.532M1227.92 482.403H1126.34M1274.67 418.166L1250.8 390.195M1274.67 418.166H1367.12M1329.51 482.403L1361.2 519.532M1329.51 482.403H1431.09M1397.6 448.771L1367.12 418.166M1397.6 448.771L1431.09 482.403M1397.6 448.771H1448.61M1089.78 418.166L1073.86 390.195M1162.33 390.195H1250.8M1162.33 390.195H1073.86M1162.33 390.195L1144.07 364.533M1250.8 390.195L1228.89 364.533M1250.8 390.195H1339.26M1367.12 418.166L1339.26 390.195M1367.12 418.166H1448.61M1127.27 340.905H1208.72M1127.27 340.905L1111.74 319.079M1127.27 340.905H1045.81M1127.27 340.905L1144.07 364.533M1208.72 340.905L1190.09 319.079M1208.72 340.905L1228.89 364.533M1208.72 340.905H1290.17M1111.74 319.079H1190.09M1111.74 319.079H1033.39M1111.74 319.079L1097.35 298.856M1045.81 340.905L1033.39 319.079M1045.81 340.905L1059.26 364.533M1144.07 364.533H1228.89M1144.07 364.533H1059.26M1190.09 319.079L1172.83 298.856M1190.09 319.079H1268.44M1228.89 364.533H1313.7M1290.17 340.905L1268.44 319.079M1290.17 340.905L1313.7 364.533M1290.17 340.905H1371.63M1033.39 319.079L1021.88 298.856M1097.35 298.856H1172.83M1097.35 298.856H1021.88M1097.35 298.856L1083.99 280.065M1172.83 298.856L1156.79 280.065M1172.83 298.856H1248.3M1268.44 319.079L1248.3 298.856M1268.44 319.079H1346.78M1071.54 262.56H1141.84M1071.54 262.56L1059.91 246.213M1071.54 262.56H1001.23M1071.54 262.56L1083.99 280.065M1141.84 262.56L1127.89 246.213M1141.84 262.56L1156.79 280.065M1141.84 262.56H1212.15M1059.91 246.213H1127.89M1059.91 246.213H991.925M1059.91 246.213L1049.02 230.914M1001.23 262.56L991.925 246.213M1001.23 262.56L1011.19 280.065M1083.99 280.065H1156.79M1083.99 280.065H1011.19M1127.89 246.213L1114.83 230.914M1127.89 246.213H1195.87M1156.79 280.065H1229.58M1212.15 262.56L1195.87 246.213M1212.15 262.56L1229.58 280.065M1212.15 262.56H1282.46M991.925 246.213L983.219 230.914M1049.02 230.914H1114.83M1049.02 230.914H983.219M1049.02 230.914L1038.82 216.563M1114.83 230.914L1102.58 216.563M1114.83 230.914H1180.63M1195.87 246.213L1180.63 230.914M1195.87 246.213H1263.85M1029.22 203.076H1091.07M1029.22 203.076L1020.19 190.377M1029.22 203.076H967.377M1029.22 203.076L1038.82 216.563M1091.07 203.076L1080.23 190.377M1091.07 203.076L1102.58 216.563M1091.07 203.076H1152.91M1020.19 190.377H1080.23M1020.19 190.377H960.15M1020.19 190.377L1011.67 178.399M967.377 203.076L960.15 190.377M967.377 203.076L975.052 216.563M1038.82 216.563H1102.58M1038.82 216.563H975.052M1080.23 190.377L1070 178.399M1080.23 190.377H1140.26M1102.58 216.563H1166.34M1152.91 203.076L1140.26 190.377M1152.91 203.076L1166.34 216.563M1152.91 203.076H1214.75M960.15 190.377L953.334 178.399M1011.67 178.399H1070M1011.67 178.399H953.334M1011.67 178.399L1003.62 167.083M1070 178.399L1060.34 167.083M1070 178.399H1128.33M1140.26 190.377L1128.33 178.399M1140.26 190.377H1200.3M995.999 156.373H1051.2M995.999 156.373L988.78 146.225M995.999 156.373H940.799M995.999 156.373L1003.62 167.083M1051.2 156.373L1042.54 146.225M1051.2 156.373L1060.34 167.083M1051.2 156.373H1106.4M988.78 146.225H1042.54M988.78 146.225H935.023M988.78 146.225L981.928 136.593M940.799 156.373L939.326 153.786L935.023 146.225M940.799 156.373L946.894 167.083M1003.62 167.083H1060.34M1003.62 167.083H946.894M1042.54 146.225L1034.31 136.593M1042.54 146.225H1096.29M1060.34 167.083H1117.06M1106.4 156.373L1096.29 146.225M1106.4 156.373L1117.06 167.083M1106.4 156.373H1161.6M935.023 146.225L929.543 136.593M981.928 136.593H1034.31M981.928 136.593H929.543M981.928 136.593L975.418 127.441M1034.31 136.593L1026.5 127.441M1034.31 136.593H1086.7M1096.29 146.225L1086.7 136.593M1096.29 146.225H1150.05M969.223 118.732H1019.07M969.223 118.732L963.321 110.437M969.223 118.732H919.378M969.223 118.732L975.418 127.441M1019.07 118.732L1011.99 110.437M1019.07 118.732L1026.5 127.441M1019.07 118.732H1068.91M963.321 110.437H1011.99M963.321 110.437H914.657M963.321 110.437L957.693 102.524M919.378 118.732L914.657 110.437M919.378 118.732L924.334 127.441M975.418 127.441H1026.5M975.418 127.441H924.334M1011.99 110.437L1005.23 102.524M1011.99 110.437H1060.65M1026.5 127.441H1077.58M1068.91 118.732L1060.65 110.437M1068.91 118.732L1077.58 127.441M1068.91 118.732H1118.76M914.657 110.437L910.154 102.524M957.693 102.524H1005.23M957.693 102.524H910.154M957.693 102.524L952.319 94.9699M1005.23 102.524L998.783 94.9699M1005.23 102.524H1052.77M1060.65 110.437L1052.77 102.524M1060.65 110.437H1109.31M947.183 87.7489L947.812 88.6339L948.446 89.5239L952.319 94.9699M947.183 87.7489H992.619M947.183 87.7489L942.269 80.8409M947.183 87.7489H901.747M952.319 94.9699H998.783M952.319 94.9699H905.856M992.619 87.7489L986.723 80.8409M992.619 87.7489L998.783 94.9699M992.619 87.7489H1038.06M942.269 80.8409H986.723M942.269 80.8409H897.815M942.269 80.8409L937.563 74.2259M901.747 87.7489L897.815 80.8409M901.747 87.7489L903.778 91.3189L905.856 94.9699M986.723 80.8409L981.075 74.2259M986.723 80.8409H1031.18M998.783 94.9699H1045.25M1038.06 87.7489L1031.18 80.8409M1038.06 87.7489L1045.25 94.9699M1038.06 87.7489H1083.49M897.815 80.8409L894.05 74.2259M937.563 74.2259H981.075M937.563 74.2259H894.05M937.563 74.2259L936.417 72.6159L933.052 67.8849M981.075 74.2259L979.018 71.8169L978.341 71.0219L975.662 67.8849M981.075 74.2259H1024.59M1031.18 80.8409L1024.59 74.2259M1031.18 80.8409H1075.63M928.724 61.8009H970.47M928.724 61.8009L924.569 55.9599M928.724 61.8009H886.979M928.724 61.8009L933.052 67.8849M970.47 61.8009L967.329 58.1229L965.483 55.9599M970.47 61.8009L975.662 67.8849M970.47 61.8009H1012.21M924.569 55.9599H965.483M924.569 55.9599H883.655M924.569 55.9599L921.067 51.0359L920.576 50.3459M886.979 61.8009L884.474 57.3979L883.655 55.9599M886.979 61.8009L888.261 64.0529L890.442 67.8849M933.052 67.8849H975.662M933.052 67.8849H890.442M965.483 55.9599L960.691 50.3459M965.483 55.9599H1006.4M975.662 67.8849H1018.27M1012.21 61.8009L1006.4 55.9599M1012.21 61.8009L1018.27 67.8849M1012.21 61.8009H1053.96M883.655 55.9599L880.461 50.3459M920.576 50.3459H960.691M920.576 50.3459H880.461M920.576 50.3459L916.735 44.9479M960.691 50.3459L956.082 44.9469M960.691 50.3459H1000.81M1006.4 55.9599L1002.88 52.4249L1002.18 51.7289L1000.81 50.3459M1006.4 55.9599H1047.31M913.04 39.7519H951.648M913.04 39.7519L912.138 38.4829L909.48 34.7489M913.04 39.7519H874.432M913.04 39.7519L913.951 41.0319L915.799 43.6299L916.735 44.9479M951.648 39.7519L947.376 34.7489M951.648 39.7519L953.291 41.6779L954.4 42.9769L956.082 44.9469M951.648 39.7519H990.256M909.48 34.7489H947.376M909.48 34.7489H871.584M909.48 34.7489L906.895 31.1139L906.049 29.9259M874.432 39.7519L871.934 35.3629L871.584 34.7489M874.432 39.7519L874.795 40.3909L875.161 41.0319L875.527 41.6779L877.388 44.9469M916.735 44.9479L956.082 44.9469M916.735 44.9479L877.388 44.9469M947.376 34.7489L945.814 32.9189L944.785 31.7129L943.259 29.9259M947.376 34.7489H985.272M956.082 44.9469L995.43 44.9479M990.256 39.7519L985.272 34.7489M990.256 39.7519L993.466 42.9769L994.118 43.6299L995.43 44.9479M990.256 39.7519H1028.86M871.584 34.7489L868.839 29.9259M906.049 29.9259H943.259M906.049 29.9259H868.839M906.049 29.9259L902.741 25.2749M943.259 29.9259L941.256 27.5789L940.761 26.9989L939.289 25.2739M943.259 29.9259H980.47M985.272 34.7489L980.47 29.9259M985.272 34.7489H1023.17M935.458 20.7859H899.548L897.608 18.0589L896.464 16.4509M896.464 16.4509H931.757M896.464 16.4509L894.962 14.3389L894.221 13.2969L893.852 12.7789L893.485 12.2629M896.464 16.4509H861.172M863.638 20.7849H899.548L902.741 25.2749M863.638 20.7849L861.78 17.5209L861.172 16.4509M863.638 20.7849L866.193 25.2739M902.741 25.2749L939.289 25.2739M902.741 25.2749L866.193 25.2739M935.458 20.7849L932.67 17.5209L932.213 16.9839L931.757 16.4509M935.458 20.7849L937.357 23.0099L939.289 25.2739M935.458 20.7849H971.367M931.757 16.4509H967.05M931.757 16.4509L928.182 12.2629M939.289 25.2739H975.837M971.367 20.7849L968.115 17.5209L967.05 16.4509M971.367 20.7849L975.27 24.7049L975.837 25.2739M971.367 20.7849H1007.28M893.485 12.2629H928.182M893.485 12.2629H858.788M861.172 16.4509L859.969 14.3389L859.081 12.7789L858.788 12.2629M967.05 16.4509H1002.34M967.05 16.4509L962.879 12.2629M928.182 12.2629H962.879M1425.13 319.079H1346.78M1425.13 319.079L1399.24 298.856M1425.13 319.079H1448.61M1425.13 319.079L1448.61 337.412M1346.78 319.079L1323.77 298.856M1346.78 319.079L1371.63 340.905M1399.24 298.856L1375.18 280.065M1399.24 298.856H1323.77M1399.24 298.856H1448.61M1448.61 319.079V298.856M1448.61 319.079V337.412M1448.61 337.412V340.905M1352.76 262.56H1423.07M1352.76 262.56L1331.83 246.213M1352.76 262.56H1282.46M1352.76 262.56L1375.18 280.065M1423.07 262.56L1399.81 246.213M1423.07 262.56L1447.98 280.065M1423.07 262.56H1448.61M1331.83 246.213H1399.81M1331.83 246.213H1263.85M1331.83 246.213L1312.24 230.914M1282.46 262.56L1263.85 246.213M1282.46 262.56L1302.38 280.065M1375.18 280.065H1447.98M1375.18 280.065H1302.38M1399.81 246.213L1378.05 230.914M1399.81 246.213H1448.61M1447.98 280.065H1448.61M1447.98 280.065L1448.61 280.509M1448.61 262.56V246.213M1448.61 262.56V280.065M1263.85 246.213L1246.44 230.914M1312.24 230.914H1378.05M1312.24 230.914H1246.44M1312.24 230.914L1293.87 216.563M1378.05 230.914L1357.63 216.563M1378.05 230.914H1443.85M1448.61 246.213V233.953M1276.6 203.076H1338.44M1276.6 203.076L1260.34 190.377M1276.6 203.076H1214.75M1276.6 203.076L1293.87 216.563M1338.44 203.076L1320.38 190.377M1338.44 203.076L1357.63 216.563M1338.44 203.076H1400.29M1260.34 190.377H1320.38M1260.34 190.377H1200.3M1260.34 190.377L1245 178.399M1214.75 203.076L1200.3 190.377M1214.75 203.076L1230.1 216.563M1293.87 216.563H1357.63M1293.87 216.563H1230.1M1320.38 190.377L1303.33 178.399M1320.38 190.377H1380.41M1357.63 216.563H1421.39M1400.29 203.076L1380.41 190.377M1400.29 203.076L1421.39 216.563M1400.29 203.076H1448.61M1200.3 190.377L1186.67 178.399M1245 178.399H1303.33M1245 178.399H1186.67M1245 178.399L1230.51 167.083M1303.33 178.399L1287.23 167.083M1303.33 178.399H1361.67M1380.41 190.377L1361.67 178.399M1380.41 190.377H1440.45M1216.8 156.373H1272M1216.8 156.373L1203.8 146.225M1216.8 156.373H1161.6M1216.8 156.373L1230.51 167.083M1272 156.373L1257.56 146.225M1272 156.373L1287.23 167.083M1272 156.373H1327.2M1203.8 146.225H1257.56M1203.8 146.225H1150.05M1203.8 146.225L1191.47 136.593M1161.6 156.373L1150.05 146.225M1161.6 156.373L1173.79 167.083M1230.51 167.083H1287.23M1230.51 167.083H1173.79M1257.56 146.225L1243.86 136.593M1257.56 146.225H1311.32M1287.23 167.083H1343.96M1327.2 156.373L1311.32 146.225M1327.2 156.373L1343.96 167.083M1327.2 156.373H1382.4M1150.05 146.225L1139.09 136.593M1191.47 136.593H1243.86M1191.47 136.593H1139.09M1191.47 136.593L1179.75 127.441M1243.86 136.593L1230.84 127.441M1243.86 136.593H1296.24M1311.32 146.225L1296.24 136.593M1311.32 146.225H1365.07M1168.6 118.732H1218.45M1168.6 118.732L1157.98 110.437M1168.6 118.732H1118.76M1168.6 118.732L1179.75 127.441M1218.45 118.732L1206.64 110.437M1218.45 118.732L1230.84 127.441M1218.45 118.732H1268.29M1157.98 110.437H1206.64M1157.98 110.437H1109.31M1157.98 110.437L1147.85 102.524M1118.76 118.732L1109.31 110.437M1118.76 118.732L1128.67 127.441M1179.75 127.441H1230.84M1179.75 127.441H1128.67M1206.64 110.437L1195.39 102.524M1206.64 110.437H1255.31M1230.84 127.441H1281.92M1268.29 118.732L1255.31 110.437M1268.29 118.732L1281.92 127.441M1268.29 118.732H1318.14M1109.31 110.437L1100.31 102.524M1147.85 102.524H1195.39M1147.85 102.524H1100.31M1147.85 102.524L1138.17 94.9699M1195.39 102.524L1184.64 94.9699M1195.39 102.524H1242.92M1255.31 110.437L1242.92 102.524M1255.31 110.437H1303.97M1128.93 87.7489H1174.37M1128.93 87.7489L1120.08 80.8409M1128.93 87.7489H1083.49M1128.93 87.7489L1138.17 94.9699M1174.37 87.7489L1164.54 80.8409M1174.37 87.7489L1184.64 94.9699M1174.37 87.7489H1219.8M1120.08 80.8409H1164.54M1120.08 80.8409H1075.63M1120.08 80.8409L1111.61 74.2259M1083.49 87.7489L1075.63 80.8409M1083.49 87.7489L1091.71 94.9699M1138.17 94.9699H1184.64M1138.17 94.9699H1091.71M1164.54 80.8409L1155.13 74.2259M1164.54 80.8409H1208.99M1184.64 94.9699H1231.1M1219.8 87.7489L1208.99 80.8409M1219.8 87.7489L1231.1 94.9699M1219.8 87.7489H1265.24M1075.63 80.8409L1068.1 74.2259M1111.61 74.2259H1155.13M1111.61 74.2259H1068.1M1111.61 74.2259L1103.49 67.8849M1155.13 74.2259L1146.1 67.8849M1155.13 74.2259H1198.64M1208.99 80.8409L1198.64 74.2259M1208.99 80.8409H1253.44M1095.7 61.8009H1137.45M1095.7 61.8009L1088.22 55.9599M1095.7 61.8009H1053.96M1095.7 61.8009L1103.49 67.8849M1137.45 61.8009L1129.14 55.9599M1137.45 61.8009L1146.1 67.8849M1137.45 61.8009H1179.19M1088.22 55.9599H1129.14M1088.22 55.9599H1047.31M1088.22 55.9599L1081.04 50.3459M1053.96 61.8009L1047.31 55.9599M1053.96 61.8009L1060.88 67.8849M1103.49 67.8849H1146.1M1103.49 67.8849H1060.88M1129.14 55.9599L1121.15 50.3459M1129.14 55.9599H1170.05M1146.1 67.8849H1188.71M1179.19 61.8009L1170.05 55.9599M1179.19 61.8009L1188.71 67.8849M1179.19 61.8009H1220.94M1047.31 55.9599L1040.92 50.3459M1081.04 50.3459H1121.15M1081.04 50.3459H1040.92M1081.04 50.3459L1074.12 44.9479M1121.15 50.3459L1114.41 45.6109L1113.47 44.9479M1121.15 50.3459H1161.27M1170.05 55.9599L1161.27 50.3459M1170.05 55.9599H1210.97M1067.47 39.7519H1106.08M1067.47 39.7519L1061.06 34.7489M1067.47 39.7519H1028.86M1067.47 39.7519L1069.11 41.0319L1069.94 41.6779L1074.12 44.9479M1106.08 39.7519L1098.96 34.7489M1106.08 39.7519L1113.47 44.9479M1106.08 39.7519H1144.69M1061.06 34.7489H1098.96M1061.06 34.7489H1023.17M1061.06 34.7489L1054.89 29.9259M1028.86 39.7519L1023.17 34.7489M1028.86 39.7519L1034.78 44.9469M1074.12 44.9479H1113.47M1074.12 44.9479L1034.78 44.9469M1098.96 34.7489L1092.1 29.9259M1098.96 34.7489H1136.86M1113.47 44.9479H1152.82M1144.69 39.7519L1136.86 34.7489M1144.69 39.7519L1152.82 44.9479M1144.69 39.7519H1183.3M1023.17 34.7489L1017.68 29.9259M1054.89 29.9259H1092.1M1054.89 29.9259H1017.68M1054.89 29.9259L1048.93 25.2749M1092.1 29.9259L1085.48 25.2749M1092.1 29.9259H1129.31M1136.86 34.7489L1129.31 29.9259M1136.86 34.7489H1174.75M1079.1 20.7859H1043.19L1037.64 16.4509M1037.64 16.4509H1072.93M1037.64 16.4509L1032.93 12.7789L1032.27 12.2629M1037.64 16.4509H1002.34M1007.28 20.7849H1043.19L1048.93 25.2749M1007.28 20.7849L1002.34 16.4509M1007.28 20.7849L1012.38 25.2739M1048.93 25.2749H1085.48M1048.93 25.2749L1012.38 25.2739M1079.1 20.7849L1074.45 17.5209L1073.69 16.9839L1072.93 16.4509M1079.1 20.7849L1085.48 25.2749M1079.1 20.7849H1115M1072.93 16.4509H1108.22M1072.93 16.4509L1066.97 12.2629M1085.48 25.2749L1122.03 25.2739M1115 20.7849L1108.22 16.4509M1115 20.7849L1122.03 25.2739M1115 20.7849H1150.91M1032.27 12.2629H1066.97M1032.27 12.2629H997.576M1002.34 16.4509L998.752 13.2969L997.576 12.2629M1108.22 16.4509H1143.51M1108.22 16.4509L1101.67 12.2629M1066.97 12.2629H1101.67M1437.6 156.373L1418.83 146.225M1437.6 156.373H1382.4M1437.6 156.373L1448.61 162.326M1437.6 156.373H1448.61M1418.83 146.225H1365.07M1418.83 146.225L1401.01 136.593M1418.83 146.225H1448.61M1382.4 156.373L1365.07 146.225M1382.4 156.373L1400.68 167.083M1448.61 162.326V156.373M1448.61 162.326V167.083M1448.61 156.373V146.225M1365.07 146.225L1348.63 136.593M1401.01 136.593L1384.09 127.441M1401.01 136.593H1348.63M1401.01 136.593H1448.61M1448.61 146.225V136.593M1367.98 118.732H1417.82M1367.98 118.732L1352.64 110.437M1367.98 118.732H1318.14M1367.98 118.732L1384.09 127.441M1417.82 118.732L1401.3 110.437M1417.82 118.732L1435.17 127.441M1417.82 118.732H1448.61M1352.64 110.437H1401.3M1352.64 110.437H1303.97M1352.64 110.437L1338 102.524M1318.14 118.732L1303.97 110.437M1318.14 118.732L1333 127.441M1384.09 127.441H1435.17M1384.09 127.441H1333M1401.3 110.437L1385.54 102.524M1401.3 110.437H1448.61M1435.17 127.441L1448.61 134.187M1435.17 127.441H1448.61M1448.61 118.732H1448.98M1448.61 118.732V110.437M1448.61 118.732V127.441M1303.97 110.437L1290.46 102.524M1338 102.524H1385.54M1338 102.524H1290.46M1338 102.524L1324.03 94.9699M1385.54 102.524L1370.49 94.9699M1385.54 102.524H1433.08M1448.61 110.437V109.801M1310.68 87.7489H1356.11M1310.68 87.7489L1297.9 80.8409M1310.68 87.7489H1265.24M1310.68 87.7489L1324.03 94.9699M1356.11 87.7489L1342.35 80.8409M1356.11 87.7489L1370.49 94.9699M1356.11 87.7489H1401.55M1297.9 80.8409H1342.35M1297.9 80.8409H1253.44M1297.9 80.8409L1285.66 74.2259M1265.24 87.7489L1253.44 80.8409M1265.24 87.7489L1277.57 94.9699M1324.03 94.9699H1370.49M1324.03 94.9699H1277.57M1342.35 80.8409L1329.18 74.2259M1342.35 80.8409H1386.81M1370.49 94.9699H1416.96M1401.55 87.7489L1386.81 80.8409M1401.55 87.7489L1416.96 94.9699M1401.55 87.7489H1446.98M1253.44 80.8409L1242.15 74.2259M1285.66 74.2259H1329.18M1285.66 74.2259H1242.15M1285.66 74.2259L1273.93 67.8849M1329.18 74.2259L1316.55 67.8849M1329.18 74.2259H1372.69M1386.81 80.8409L1372.69 74.2259M1386.81 80.8409H1431.26M1262.68 61.8009H1304.43M1262.68 61.8009L1251.88 55.9599M1262.68 61.8009H1220.94M1262.68 61.8009L1273.93 67.8849M1304.43 61.8009L1292.79 55.9599M1304.43 61.8009L1316.55 67.8849M1304.43 61.8009H1346.17M1251.88 55.9599H1292.79M1251.88 55.9599H1210.97M1251.88 55.9599L1241.5 50.3459M1220.94 61.8009L1210.97 55.9599M1220.94 61.8009L1231.32 67.8849M1273.93 67.8849H1316.55M1273.93 67.8849H1231.32M1292.79 55.9599L1281.61 50.3459M1292.79 55.9599H1333.71M1316.55 67.8849H1359.16M1346.17 61.8009L1333.71 55.9599M1346.17 61.8009L1359.16 67.8849M1346.17 61.8009H1387.92M1210.97 55.9599L1201.38 50.3459M1241.5 50.3459H1281.61M1241.5 50.3459H1201.38M1241.5 50.3459L1231.51 44.9479M1281.61 50.3459L1270.86 44.9479M1281.61 50.3459H1321.73M1333.71 55.9599L1321.73 50.3459M1333.71 55.9599H1374.62M1221.9 39.7519H1260.51M1221.9 39.7519L1212.65 34.7489M1221.9 39.7519H1183.3M1221.9 39.7519L1231.51 44.9479M1260.51 39.7519L1250.54 34.7489M1260.51 39.7519L1270.86 44.9479M1260.51 39.7519H1299.12M1212.65 34.7489H1250.54M1212.65 34.7489H1174.75M1212.65 34.7489L1203.73 29.9259M1183.3 39.7519L1175.8 35.3629L1174.75 34.7489M1183.3 39.7519L1192.17 44.9469M1231.51 44.9479H1270.86M1231.51 44.9479L1192.17 44.9469M1250.54 34.7489L1240.94 29.9259M1250.54 34.7489H1288.44M1270.86 44.9479H1310.21M1299.12 39.7519L1288.44 34.7489M1299.12 39.7519L1310.21 44.9479M1299.12 39.7519H1337.73M1174.75 34.7489L1166.52 29.9259M1203.73 29.9259H1240.94M1203.73 29.9259H1166.52M1203.73 29.9259L1195.13 25.2749M1240.94 29.9259L1231.67 25.2749M1240.94 29.9259H1278.15M1288.44 34.7489L1278.15 29.9259M1288.44 34.7489H1326.34M1222.73 20.7859H1186.82L1178.81 16.4509M1178.81 16.4509H1214.1M1178.81 16.4509L1171.06 12.2629M1178.81 16.4509H1143.51M1150.91 20.7849H1186.82L1195.13 25.2749M1150.91 20.7849L1143.51 16.4509M1150.91 20.7849L1158.58 25.2739M1195.13 25.2749H1231.67M1195.13 25.2749L1158.58 25.2739M1222.73 20.7849L1214.1 16.4509M1222.73 20.7849L1231.67 25.2749M1222.73 20.7849H1258.64M1214.1 16.4509H1249.39M1214.1 16.4509L1205.76 12.2629M1231.67 25.2749L1268.22 25.2739M1258.64 20.7849L1249.39 16.4509M1258.64 20.7849L1268.22 25.2739M1258.64 20.7849H1294.55M1171.06 12.2629H1205.76M1171.06 12.2629H1136.36M1143.51 16.4509L1136.36 12.2629M1249.39 16.4509H1284.69M1249.39 16.4509L1240.45 12.2629M1205.76 12.2629H1240.45M1429.66 61.8009L1415.53 55.9599M1429.66 61.8009H1387.92M1429.66 61.8009L1444.38 67.8849M1429.66 61.8009H1448.61M1415.53 55.9599H1374.62M1415.53 55.9599L1401.96 50.3459M1415.53 55.9599H1448.61M1387.92 61.8009L1374.62 55.9599M1387.92 61.8009L1401.77 67.8849M1444.38 67.8849H1401.77M1444.38 67.8849H1448.61M1444.38 67.8849L1448.61 69.6339M1448.61 61.8009V55.9599M1448.61 61.8009V67.8849M1374.62 55.9599L1361.84 50.3459M1401.96 50.3459H1442.07M1401.96 50.3459H1361.84M1401.96 50.3459L1388.9 44.9479M1448.61 55.9599V52.8979M1376.34 39.7519H1414.94M1376.34 39.7519L1364.23 34.7489M1376.34 39.7519H1337.73M1376.34 39.7519L1388.9 44.9479M1414.94 39.7519L1402.13 34.7489M1414.94 39.7519L1428.25 44.9479M1414.94 39.7519H1448.61M1364.23 34.7489H1402.13M1364.23 34.7489H1326.34M1364.23 34.7489L1352.57 29.9259M1337.73 39.7519L1326.34 34.7489M1337.73 39.7519L1349.55 44.9479M1388.9 44.9479H1428.25M1388.9 44.9479H1349.55M1402.13 34.7489L1389.78 29.9259M1402.13 34.7489H1440.02M1428.25 44.9479L1442.07 50.3459M1428.25 44.9479H1448.61M1448.61 39.7519H1448.73M1448.61 39.7519V37.9229M1448.61 39.7519V44.9479M1326.34 34.7489L1315.36 29.9259M1352.57 29.9259H1389.78M1352.57 29.9259H1315.36M1352.57 29.9259L1341.32 25.2749M1389.78 29.9259L1377.87 25.2749M1389.78 29.9259H1426.99M1440.02 34.7489L1426.99 29.9259M1440.02 34.7489L1448.61 37.9229M1440.02 34.7489H1448.61M1366.37 20.7859H1330.46L1319.98 16.4509M1319.98 16.4509H1355.27M1319.98 16.4509L1309.85 12.2629M1319.98 16.4509H1284.69M1294.55 20.7849H1330.46L1341.32 25.2749M1294.55 20.7849L1284.69 16.4509M1294.55 20.7849L1304.77 25.2739M1341.32 25.2749H1377.87M1341.32 25.2749L1304.77 25.2739M1366.37 20.7849L1355.27 16.4509M1366.37 20.7849L1377.87 25.2749M1366.37 20.7849H1402.28M1355.27 16.4509H1390.56M1355.27 16.4509L1344.55 12.2629M1377.87 25.2749L1414.42 25.2739M1402.28 20.7849L1390.56 16.4509M1402.28 20.7849L1414.42 25.2739M1402.28 20.7849H1438.19M1309.85 12.2629H1344.55M1309.85 12.2629H1275.15M1284.69 16.4509L1275.15 12.2629M1390.56 16.4509H1425.86M1390.56 16.4509L1379.24 12.2629M1344.55 12.2629H1379.24M1414.42 25.2739L1426.99 29.9259M1414.42 25.2739H1448.61M1438.19 20.7849L1425.86 16.4509M1438.19 20.7849L1448.61 24.4459M1425.86 16.4509L1413.94 12.2629M1425.86 16.4509H1448.61M1379.24 12.2629H1413.94M1379.24 12.2629L1368.3 8.21286M1426.99 29.9259H1448.61M1448.61 25.2739V24.4459M1448.61 25.2739V29.9259M1448.61 24.4459V20.7849V16.4509M1438.19 20.7859H1448.61M1413.94 12.2629L1402.42 8.21286M1413.94 12.2629H1448.61M1448.61 16.4509V12.2629M1448.61 12.2629H1448.64L1448.61 12.2539M1448.61 12.2629V12.2539M1448.61 37.9229V34.7489M1448.61 34.7489V29.9259M1315.36 29.9259L1304.77 25.2739M1315.36 29.9259H1278.15M1304.77 25.2739H1268.22M1442.07 50.3459L1448.61 52.8979M1442.07 50.3459H1448.61M1448.61 44.9479V50.3459M1448.61 52.8979V50.3459M1361.84 50.3459L1349.55 44.9479M1361.84 50.3459H1321.73M1349.55 44.9479H1310.21M1268.22 25.2739L1278.15 29.9259M1240.45 12.2629H1275.15M1275.15 12.2629L1265.94 8.21286M1166.52 29.9259L1158.58 25.2739M1166.52 29.9259H1129.31M1158.58 25.2739H1122.03M1310.21 44.9479L1321.73 50.3459M1201.38 50.3459L1192.17 44.9469M1201.38 50.3459H1161.27M1192.17 44.9469L1152.82 44.9479M1359.16 67.8849L1372.69 74.2259M1359.16 67.8849H1401.77M1401.77 67.8849L1416.2 74.2259M1372.69 74.2259H1416.2M1416.2 74.2259L1431.26 80.8409M1416.2 74.2259H1448.61M1448.61 67.8849V69.6339M1448.61 69.6339V74.2259M1431.26 80.8409L1446.98 87.7489M1431.26 80.8409H1448.61M1242.15 74.2259L1231.32 67.8849M1242.15 74.2259H1198.64M1448.61 74.2259H1448.84M1448.61 74.2259V80.8409M1231.32 67.8849H1188.71M1416.96 94.9699L1433.08 102.524M1416.96 94.9699H1448.61M1446.98 87.7489L1448.61 88.4619M1446.98 87.7489H1448.61M1448.61 80.8409V87.7489M1448.61 88.4619L1449 88.6339M1448.61 88.4619V87.7489M1448.61 88.4619V94.9699M1433.08 102.524H1448.61M1433.08 102.524L1448.61 109.801M1448.61 94.9699V102.524M1448.61 102.524V109.801M1290.46 102.524L1277.57 94.9699M1290.46 102.524H1242.92M1277.57 94.9699H1231.1M1448.61 134.187L1448.76 134.262M1448.61 134.187V127.441M1448.61 134.187V136.593M1333 127.441H1281.92M1333 127.441L1348.63 136.593M1122.03 25.2739L1129.31 29.9259M1101.67 12.2629H1136.36M1101.67 12.2629L1095.33 8.21286M1136.36 12.2629L1135.49 11.7489L1133.74 10.7289L1129.45 8.21386M1129.45 8.21386L1095.33 8.21486M1017.68 29.9259L1012.38 25.2739M1017.68 29.9259H980.47M1012.38 25.2739H975.837M1152.82 44.9479L1161.27 50.3459M1040.92 50.3459L1034.78 44.9469M1040.92 50.3459H1000.81M1034.78 44.9469L995.43 44.9479M1188.71 67.8849L1198.64 74.2259M1068.1 74.2259L1060.88 67.8849M1068.1 74.2259H1024.59M1060.88 67.8849H1018.27M1231.1 94.9699L1242.92 102.524M1100.31 102.524L1091.71 94.9699M1100.31 102.524H1052.77M1091.71 94.9699H1045.25M1281.92 127.441L1296.24 136.593M1296.24 136.593H1348.63M1139.09 136.593L1128.67 127.441M1139.09 136.593H1086.7M1128.67 127.441H1077.58M1343.96 167.083L1361.67 178.399M1343.96 167.083H1400.68M1400.68 167.083L1420 178.399M1400.68 167.083H1448.61M1361.67 178.399H1420M1420 178.399L1440.45 190.377M1420 178.399H1448.61M1448.61 167.083V178.399M1440.45 190.377H1448.61M1440.45 190.377L1448.61 195.155M1186.67 178.399L1173.79 167.083M1186.67 178.399H1128.33M1448.61 178.399V190.377M1173.79 167.083H1117.06M1421.39 216.563L1443.85 230.914M1421.39 216.563H1448.61M1448.61 203.076V195.155M1448.61 203.076V216.563M1448.61 190.377V195.155M1443.85 230.914L1448.61 233.953M1443.85 230.914H1448.61M1448.61 216.563V230.914M1448.61 233.953V230.914M1246.44 230.914L1230.1 216.563M1246.44 230.914H1180.63M1230.1 216.563H1166.34M1448.61 280.065V280.509M1448.61 280.509V298.856M1302.38 280.065H1229.58M1302.38 280.065L1323.77 298.856M975.837 25.2739L976.98 26.4209L980.47 29.9259M962.879 12.2629H997.576M962.879 12.2629L958.847 8.21286M997.576 12.2629L995.83 10.7289L992.967 8.21386M992.967 8.21386L958.847 8.21486M868.839 29.9259L868.169 28.7469L866.193 25.2739M868.839 29.9259H831.63M866.193 25.2739L829.645 25.2749M995.43 44.9479L1000.81 50.3459M880.461 50.3459L880.071 49.6599L879.681 48.9769L877.388 44.9469M880.461 50.3459H840.345M877.388 44.9469H838.041M1018.27 67.8849L1024.59 74.2259M894.05 74.2259L890.442 67.8849M894.05 74.2259H850.538M890.442 67.8849H847.831M1045.25 94.9699L1052.77 102.524M910.154 102.524L905.856 94.9699M910.154 102.524H862.616M905.856 94.9699H859.392M1077.58 127.441L1086.7 136.593M929.543 136.593L924.334 127.441M929.543 136.593H877.157M924.334 127.441H873.25M1117.06 167.083L1128.33 178.399M953.334 178.399L946.894 167.083M953.334 178.399H895M946.894 167.083H890.17M1166.34 216.563L1180.63 230.914M983.219 230.914L975.052 216.563M983.219 230.914H917.414M975.052 216.563H911.289M1229.58 280.065L1248.3 298.856M1248.3 298.856H1323.77M1021.88 298.856L1011.19 280.065M1021.88 298.856H946.413M1011.19 280.065H938.393M1313.7 364.533L1339.26 390.195M1313.7 364.533H1398.52M1371.63 340.905L1398.52 364.533M1371.63 340.905H1448.61M1398.52 364.533L1427.73 390.195M1398.52 364.533H1448.61M1448.61 340.905V364.533M1339.26 390.195H1427.73M1427.73 390.195H1448.61M1427.73 390.195L1448.61 408.541M1448.61 364.533V390.195M1448.61 418.166V408.541M1448.61 418.166V448.771M1073.86 390.195L1059.26 364.533M1073.86 390.195H985.398M1448.61 390.195V408.541M1059.26 364.533H974.445M1431.09 482.403L1448.61 499.993M1431.09 482.403H1448.61M1448.61 448.771V482.403M1361.2 519.532H1254.33M1361.2 519.532H1448.61M1448.61 499.993V482.403M1448.61 499.993V519.532M1254.33 519.532H1147.47M1448.61 519.532V519.664H-8.608V519.532M1147.47 519.532L1126.34 482.403M1147.47 519.532H1040.6M1126.34 482.403H1024.75M829.645 25.2749L829.888 25.8469L830.134 26.4209L830.38 26.9989L830.628 27.5789L831.63 29.9259M824.091 12.2629L823.872 11.7489L823.436 10.7289L823.004 9.71586L822.79 9.21286L822.362 8.21286M824.091 12.2629H858.788M858.788 12.2629L856.768 8.71286L856.483 8.21286M720 29.9269V25.2739M720 29.9269L682.79 29.9259M720 25.2739L683.452 25.2749M838.041 44.9469L840.345 50.3459M720 50.3459V44.9469M720 50.3459H679.885M720 44.9469L680.653 44.9479M847.831 67.8849L850.538 74.2259M720 74.2259V67.8849M720 74.2259H676.488M720 67.8849H677.389M859.392 94.9699L862.616 102.524M720 102.524V94.9699M720 102.524H672.461M720 94.9699H673.536M873.25 127.441L877.157 136.593M720 136.593V127.441M720 136.593H667.615M720 127.441H668.916M890.17 167.083L895 178.399M720 178.399V167.083M720 178.399H661.667M720 167.083H663.276M911.289 216.563L917.414 230.914M720 230.914V216.563M720 230.914H654.195M720 216.563H656.237M938.393 280.065L946.413 298.856M720 298.856V280.065M720 298.856H644.529M720 280.065H647.202M974.445 364.533L985.398 390.195M720 390.195V364.533M720 390.195H631.534M720 364.533H635.185M1024.75 482.403L1040.6 519.532M933.733 519.532H1040.6M933.733 519.532H826.867M826.867 519.532H720M720 519.532V482.403M720 519.532H613.133M720 482.403H618.415M683.452 25.2749L683.37 25.8469L683.289 26.4209L683.206 26.9989L682.79 29.9259M685.303 12.2629H720M685.303 12.2629L685.521 10.7289L685.594 10.2209L685.879 8.21386M720 12.2629V8.21286M685.879 8.21386L720 8.21486M571.161 29.9259L571.831 28.7469L573.807 25.2739M571.161 29.9259H533.951M573.807 25.2739H537.259M680.653 44.9479L679.885 50.3459M559.539 50.3459L562.612 44.9469M559.539 50.3459H519.424M562.612 44.9469L523.265 44.9479M677.389 67.8849L677.168 69.4449L676.717 72.6159L676.488 74.2259M545.95 74.2259L549.558 67.8849M545.95 74.2259H502.437M549.558 67.8849H506.948M673.536 94.9699L672.461 102.524M529.846 102.524L534.144 94.9699M529.846 102.524H482.307M534.144 94.9699H487.681M668.916 127.441L667.615 136.593M510.457 136.593L515.666 127.441M510.457 136.593H458.072M515.666 127.441H464.582M663.276 167.083L661.667 178.399M486.666 178.399L493.106 167.083M486.666 178.399H428.333M493.106 167.083H436.383M656.237 216.563L654.195 230.914M456.781 230.914L464.948 216.563M456.781 230.914H390.977M464.948 216.563H401.185M647.202 280.065L644.529 298.856M418.117 298.856L428.81 280.065M418.117 298.856H342.646M428.81 280.065H356.013M635.185 364.533L631.534 390.195M366.137 390.195L380.741 364.533M366.137 390.195H277.671M380.741 364.533H295.925M618.415 482.403L613.133 519.532M506.267 519.532H613.133M506.267 519.532H399.4M399.4 519.532H292.533M292.533 519.532L313.662 482.403M292.533 519.532H185.667M313.662 482.403H212.079M537.259 25.2739L533.951 29.9259M546.515 12.2629H581.212M546.515 12.2629L548.684 9.21286L549.395 8.21286M581.212 12.2629L581.504 11.7489L582.085 10.7289L583.516 8.21386M583.516 8.21386L549.395 8.21486M422.321 29.9259L427.614 25.2739M422.321 29.9259H385.111M427.614 25.2739H391.066M523.265 44.9479L519.424 50.3459M399.079 50.3459L404.468 45.6109L405.223 44.9469M399.079 50.3459H358.964M405.223 44.9469L365.875 44.9479M506.948 67.8849L502.437 74.2259M371.899 74.2259L379.117 67.8849M371.899 74.2259H328.387M379.117 67.8849H336.506M487.681 94.9699L482.307 102.524M339.691 102.524L348.289 94.9699M339.691 102.524H292.153M348.289 94.9699H301.826M464.582 127.441L458.072 136.593M300.915 136.593L311.332 127.441M300.915 136.593H248.529M311.332 127.441H260.248M436.383 167.083L428.333 178.399M253.333 178.399L266.213 167.083M253.333 178.399H195M266.213 167.083H209.49M401.185 216.563L390.977 230.914M193.563 230.914L209.896 216.563M209.896 216.563H146.133M356.013 280.065L342.646 298.856M116.233 298.856L137.619 280.065M116.233 298.856H40.762M137.619 280.065H64.822M295.925 364.533L277.671 390.195M12.273 390.195L41.481 364.533M12.273 390.195H-8.607M12.273 390.195L-8.607 408.541M41.481 364.533H-8.608M212.079 482.403L185.667 519.532M78.799 519.532H185.667M78.799 519.532H-8.608M-8.608 519.532L-8.607 499.993M-8.607 499.993L-8.608 482.403M391.066 25.2739L385.111 29.9259M407.727 12.2629L408.384 11.7489L412.912 8.21386M407.727 12.2629H442.424M442.424 12.2629L444.17 10.7289L447.033 8.21386M412.912 8.21386H447.033M273.481 29.9259H236.27M365.875 44.9479L358.964 50.3459M238.618 50.3459L247.834 44.9469M238.618 50.3459H198.503M247.834 44.9469L208.487 44.9479M336.506 67.8849L328.387 74.2259M197.849 74.2259L208.675 67.8849M197.849 74.2259H154.337M208.675 67.8849H166.065M301.826 94.9699L292.153 102.524M149.537 102.524L162.434 94.9699M149.537 102.524H101.998M162.434 94.9699H115.97M260.248 127.441L248.529 136.593M91.372 136.593L106.997 127.441M91.372 136.593H38.986M106.997 127.441H55.914M209.49 167.083L195 178.399M19.999 178.399L39.32 167.083M19.999 178.399H-8.608M39.32 167.083H-8.608M146.133 216.563L127.758 230.914M127.758 230.914H193.562M-8.608 230.914H-3.851L-8.608 233.953M-8.608 230.914V233.953M-8.608 230.914V216.563M64.822 280.065L40.762 298.856M-8.608 280.065V280.509M-8.608 280.509V298.856M40.762 298.856L14.867 319.079M40.762 298.856H-8.608M14.867 319.079H-8.608M14.867 319.079L-8.608 337.412M-8.608 319.079V337.412M-8.608 319.079V298.856M-8.608 337.412V340.905M-8.608 340.905V364.533M-8.608 364.533L-8.607 390.195M-8.607 390.195V408.541M208.324 25.2739L199.06 29.9259M208.324 25.2739H244.873M208.324 25.2739H171.776M244.873 25.2739L253.175 20.7849M244.873 25.2739L236.27 29.9259M244.873 25.2739H281.421L289.085 20.7849M253.175 20.7849L261.192 16.4509M253.175 20.7849H289.085M261.192 16.4509L268.938 12.2629M268.938 12.2629H234.241M268.938 12.2629L269.887 11.7489L276.426 8.21386M268.938 12.2629H303.635M234.241 12.2629L242.306 8.21286M303.635 12.2629L304.512 11.7489L310.548 8.21386M310.548 8.21386L276.427 8.21486M124.642 29.9259L87.432 29.9269M208.487 44.9479L198.503 50.3459M78.157 50.3459L90.447 44.9479H51.099M78.157 50.3459H38.042M166.065 67.8849L154.337 74.2259M23.799 74.2259L38.235 67.8849M23.799 74.2259H-8.608M38.235 67.8849H-4.375M115.97 94.9699L101.998 102.524M-8.607 94.9699L-8.608 88.4619M55.914 127.441L38.986 136.593M-8.608 127.441V134.187M-8.608 134.187L-8.756 134.262M-8.608 134.187V136.593M38.986 136.593L21.172 146.225M38.986 136.593H-8.608M21.172 146.225L2.403 156.373M21.172 146.225H-8.607M2.403 156.373H-8.608M2.403 156.373L-8.608 162.326M-8.607 146.225L-8.608 156.373M-8.607 146.225L-8.608 136.593M-8.608 156.373V162.326M-8.608 162.326V167.083M-8.608 167.083V178.399M-8.608 190.377V195.155M-8.608 190.377V178.399M62.133 25.2739L50.223 29.9259M62.133 25.2739H98.681M98.681 25.2739L109.538 20.7849M98.681 25.2739L87.431 29.9259M98.681 25.2739H135.228M130.15 12.2629H95.453M130.15 12.2629H164.846M130.15 12.2629L139.943 8.21286M135.228 25.2739L124.641 29.9259M164.846 12.2629L174.064 8.21286M87.432 29.9269H50.222H13.012M87.432 29.9269L75.767 34.7499M13.012 29.9269L25.585 25.2749L-8.608 25.2739M13.012 29.9269H-8.608M-8.608 29.9269V25.2739M-8.608 25.2739V24.4459V20.7859V16.4499M51.099 44.9479L38.042 50.3459M-2.073 50.3459H38.042M-2.073 50.3459L-8.608 52.8979M-2.073 50.3459H-8.608M-8.608 44.9479V50.3459M38.042 50.3459L24.467 55.9599M24.467 55.9599L10.339 61.8009M24.467 55.9599H-8.608M10.339 61.8009L-4.375 67.8849M10.339 61.8009H-8.608M-8.608 55.9599V61.8009M-8.608 55.9599V52.8979M-8.608 52.8979V50.3459M-4.375 67.8849L-8.608 69.6339M-4.375 67.8849H-8.608M-8.608 61.8009V67.8849M-8.608 69.6339V74.2259M-8.608 69.6339V67.8849M-8.608 80.8409V87.7489M-8.608 80.8409V74.2259M-8.608 74.2259H-8.835M-8.608 87.7489V88.4619M-8.608 88.4619L-9 88.6339M-8.608 16.4499V12.2639M60.757 12.2639H26.06M26.06 12.2639L37.58 8.21386M26.06 12.2639H-8.608M37.58 8.21386H3.46M-8.608 12.2639L-8.638 12.2629L-8.608 12.2539M-8.608 12.2639V12.2539M1368.3 8.21486H1402.42M856.483 8.21486H822.362M174.065 8.21486H139.944M15.161 4.29786L3.46 8.21386M3.46 8.21386L-8.608 12.2539M3.46 8.21386H-8.608M-8.608 12.2539V8.21386M1448.61 12.2539V8.21386" stroke="url(#paint0_linear_4409_27940)" stroke-width="1.012" stroke-miterlimit="10" stroke-linecap="round" stroke-linejoin="round"/>
<defs>
<linearGradient id="paint0_linear_4409_27940" x1="720" y1="0.505859" x2="720" y2="364.5" gradientUnits="userSpaceOnUse">
<stop stop-color="#68D585" stop-opacity="0"/>
<stop offset="1" stop-color="#A7F4BC"/>
</linearGradient>
</defs>
</svg>
