<svg width="48" height="48" viewBox="0 0 48 48" fill="none" xmlns="http://www.w3.org/2000/svg">
<path d="M38.112 13.4074C37.4174 9.96897 34.3798 7.37891 30.7368 7.37891H13.525C9.36844 7.37891 6 10.7473 6 14.9039V25.0929C6 29.2493 9.36844 32.6179 13.525 32.6179H21.2096" stroke="#23BB4E" stroke-width="2" stroke-linecap="round" stroke-linejoin="round"/>
<path d="M12.832 39.9219H22.5384" stroke="#23BB4E" stroke-width="2" stroke-linecap="round" stroke-linejoin="round"/>
<path d="M18.1167 32.6055L16.9258 39.9203" stroke="#23BB4E" stroke-width="2" stroke-linecap="round" stroke-linejoin="round"/>
<path d="M37.651 18.9961C40.0502 18.9961 41.9962 20.9421 41.9982 23.3433V29.8097V36.2761C41.9982 38.6775 40.0522 40.6235 37.651 40.6235H31.025C28.6236 40.6235 26.6778 38.6775 26.6778 36.2761L26.6758 23.3433C26.6758 20.9441 28.6236 18.9961 31.023 18.9961H37.651Z" stroke="#23BB4E" stroke-width="2" stroke-linecap="round" stroke-linejoin="round"/>
<path d="M34.3398 35.3477V35.3677" stroke="#23BB4E" stroke-width="2.1" stroke-linecap="round" stroke-linejoin="round"/>
</svg>
