<svg width="434" height="432" viewBox="0 0 434 432" fill="none" xmlns="http://www.w3.org/2000/svg">
<g opacity="0.95">
<mask id="path-2-outside-1_4409_27808" maskUnits="userSpaceOnUse" x="88.9551" y="109.691" width="141" height="169" fill="black">
<rect fill="#F6F7F9" x="88.9551" y="109.691" width="141" height="169"/>
<path d="M223.375 157.15C223.375 160.03 220.225 161.949 217.379 161.512C216.426 161.365 215.449 161.289 214.455 161.289C203.899 161.289 195.342 169.847 195.342 180.402C195.342 190.958 203.899 199.515 214.455 199.515C215.449 199.515 216.426 199.439 217.379 199.292C220.225 198.854 223.375 200.773 223.375 203.653V240.289C223.375 242.4 221.664 244.111 219.552 244.111H182.917C180.038 244.111 178.118 247.261 178.556 250.107C178.702 251.061 178.778 252.037 178.778 253.031C178.778 263.587 170.222 272.144 159.666 272.145C149.11 272.145 140.553 263.587 140.553 253.031C140.553 252.037 140.629 251.061 140.775 250.107C141.213 247.261 139.293 244.111 136.414 244.111H99.7777C97.6665 244.111 95.9551 242.4 95.9551 240.289V120.514C95.9551 118.403 97.6665 116.691 99.7777 116.691H219.552C221.664 116.691 223.375 118.403 223.375 120.514V157.15Z"/>
</mask>
<path d="M223.375 157.15C223.375 160.03 220.225 161.949 217.379 161.512C216.426 161.365 215.449 161.289 214.455 161.289C203.899 161.289 195.342 169.847 195.342 180.402C195.342 190.958 203.899 199.515 214.455 199.515C215.449 199.515 216.426 199.439 217.379 199.292C220.225 198.854 223.375 200.773 223.375 203.653V240.289C223.375 242.4 221.664 244.111 219.552 244.111H182.917C180.038 244.111 178.118 247.261 178.556 250.107C178.702 251.061 178.778 252.037 178.778 253.031C178.778 263.587 170.222 272.144 159.666 272.145C149.11 272.145 140.553 263.587 140.553 253.031C140.553 252.037 140.629 251.061 140.775 250.107C141.213 247.261 139.293 244.111 136.414 244.111H99.7777C97.6665 244.111 95.9551 242.4 95.9551 240.289V120.514C95.9551 118.403 97.6665 116.691 99.7777 116.691H219.552C221.664 116.691 223.375 118.403 223.375 120.514V157.15Z" fill="#F6F7F9"/>
<path d="M214.455 161.289L214.455 154.801H214.455V161.289ZM195.342 180.402H188.853V180.402L195.342 180.402ZM214.455 199.515V206.003H214.455L214.455 199.515ZM178.778 253.031H185.267V253.031L178.778 253.031ZM159.666 272.145L159.666 278.633H159.666L159.666 272.145ZM140.553 253.031L134.064 253.031V253.031H140.553ZM178.556 250.107L172.143 251.093L178.556 250.107ZM217.379 199.292L216.393 192.879L217.379 199.292ZM140.775 250.107L134.362 249.122L140.775 250.107ZM217.379 161.512L218.365 155.099C217.086 154.902 215.781 154.801 214.455 154.801L214.455 161.289L214.455 167.777C215.118 167.777 215.765 167.828 216.394 167.925L217.379 161.512ZM214.455 161.289V154.801C200.316 154.801 188.853 166.263 188.853 180.402H195.342H201.83C201.83 173.43 207.483 167.777 214.455 167.777V161.289ZM195.342 180.402L188.853 180.402C188.854 194.542 200.316 206.003 214.455 206.003V199.515V193.026C207.482 193.026 201.83 187.374 201.83 180.402L195.342 180.402ZM214.455 199.515L214.455 206.003C215.781 206.003 217.087 205.901 218.365 205.705L217.379 199.292L216.393 192.879C215.765 192.976 215.118 193.026 214.455 193.026L214.455 199.515ZM223.375 203.653H216.887V240.289H223.375H229.863V203.653H223.375ZM219.552 244.111V237.623H182.917V244.111V250.6H219.552V244.111ZM178.556 250.107L172.143 251.093C172.239 251.721 172.29 252.368 172.29 253.031L178.778 253.031L185.267 253.031C185.267 251.706 185.165 250.4 184.969 249.122L178.556 250.107ZM178.778 253.031H172.29C172.29 260.004 166.638 265.656 159.666 265.656L159.666 272.145L159.666 278.633C173.805 278.633 185.267 267.17 185.267 253.031H178.778ZM159.666 272.145L159.666 265.656C152.694 265.656 147.041 260.004 147.041 253.031H140.553H134.064C134.064 267.17 145.527 278.633 159.666 278.633L159.666 272.145ZM140.553 253.031L147.041 253.031C147.041 252.368 147.092 251.721 147.188 251.093L140.775 250.107L134.362 249.122C134.166 250.4 134.064 251.706 134.064 253.031L140.553 253.031ZM136.414 244.111V237.623H99.7777V244.111V250.6H136.414V244.111ZM95.9551 240.289H102.443V120.514H95.9551H89.4667V240.289H95.9551ZM99.7777 116.691V123.18H219.552V116.691V110.203H99.7777V116.691ZM223.375 120.514H216.887V157.15H223.375H229.863V120.514H223.375ZM219.552 116.691V123.18C218.08 123.18 216.887 121.986 216.887 120.514H223.375H229.863C229.863 114.819 225.247 110.203 219.552 110.203V116.691ZM95.9551 120.514H102.443C102.443 121.986 101.25 123.18 99.7777 123.18V116.691V110.203C94.0831 110.203 89.4667 114.819 89.4667 120.514H95.9551ZM182.917 244.111V237.623C178.902 237.623 175.869 239.858 174.144 242.369C172.457 244.826 171.665 247.982 172.143 251.093L178.556 250.107L184.969 249.122C185.009 249.386 184.958 249.545 184.841 249.715C184.761 249.831 184.583 250.044 184.247 250.242C183.887 250.453 183.42 250.6 182.917 250.6V244.111ZM217.379 199.292L218.365 205.705C218.101 205.746 217.942 205.694 217.772 205.577C217.655 205.497 217.442 205.319 217.245 204.983C217.033 204.623 216.887 204.155 216.887 203.653H223.375H229.863C229.863 199.638 227.628 196.604 225.117 194.88C222.66 193.192 219.503 192.401 216.393 192.879L217.379 199.292ZM140.775 250.107L147.188 251.093C147.666 247.982 146.874 244.826 145.187 242.369C143.463 239.858 140.429 237.623 136.414 237.623V244.111V250.6C135.911 250.6 135.444 250.453 135.084 250.242C134.748 250.044 134.57 249.831 134.49 249.715C134.373 249.545 134.322 249.386 134.362 249.122L140.775 250.107ZM223.375 240.289H216.887C216.887 238.816 218.08 237.623 219.552 237.623V244.111V250.6C225.247 250.6 229.863 245.983 229.863 240.289H223.375ZM99.7777 244.111V237.623C101.25 237.623 102.443 238.816 102.443 240.289H95.9551H89.4667C89.4667 245.983 94.0831 250.6 99.7777 250.6V244.111ZM217.379 161.512L216.394 167.925C219.504 168.403 222.661 167.611 225.117 165.923C227.629 164.199 229.863 161.165 229.863 157.15H223.375H216.887C216.887 156.648 217.033 156.18 217.245 155.82C217.442 155.485 217.655 155.306 217.771 155.226C217.942 155.109 218.1 155.058 218.365 155.099L217.379 161.512Z" fill="#EAEFF4" mask="url(#path-2-outside-1_4409_27808)"/>
</g>
<g opacity="0.95">
<mask id="path-5-outside-2_4409_27808" maskUnits="userSpaceOnUse" x="88.9551" y="237.111" width="169" height="141" fill="black">
<rect fill="#F6F7F9" x="88.9551" y="237.111" width="169" height="141"/>
<path d="M223.375 284.569C223.375 287.449 226.525 289.368 229.371 288.931C230.324 288.784 231.301 288.708 232.295 288.708C242.851 288.708 251.408 297.265 251.408 307.82C251.408 318.376 242.851 326.934 232.295 326.934C231.301 326.934 230.324 326.857 229.371 326.711C226.525 326.273 223.375 328.192 223.375 331.072V367.709C223.375 369.82 221.664 371.531 219.552 371.531H99.7777C97.6665 371.531 95.9551 369.82 95.9551 367.709V247.934C95.9551 245.823 97.6665 244.111 99.7777 244.111H136.216C139.078 244.111 140.993 247.223 140.577 250.054C140.443 250.969 140.373 251.904 140.373 252.855C140.373 263.411 148.931 271.969 159.486 271.969C170.042 271.969 178.599 263.411 178.599 252.855C178.599 251.904 178.529 250.969 178.395 250.054C177.979 247.223 179.894 244.111 182.756 244.111H219.552C221.664 244.111 223.375 245.823 223.375 247.934V284.569Z"/>
</mask>
<path d="M223.375 284.569C223.375 287.449 226.525 289.368 229.371 288.931C230.324 288.784 231.301 288.708 232.295 288.708C242.851 288.708 251.408 297.265 251.408 307.82C251.408 318.376 242.851 326.934 232.295 326.934C231.301 326.934 230.324 326.857 229.371 326.711C226.525 326.273 223.375 328.192 223.375 331.072V367.709C223.375 369.82 221.664 371.531 219.552 371.531H99.7777C97.6665 371.531 95.9551 369.82 95.9551 367.709V247.934C95.9551 245.823 97.6665 244.111 99.7777 244.111H136.216C139.078 244.111 140.993 247.223 140.577 250.054C140.443 250.969 140.373 251.904 140.373 252.855C140.373 263.411 148.931 271.969 159.486 271.969C170.042 271.969 178.599 263.411 178.599 252.855C178.599 251.904 178.529 250.969 178.395 250.054C177.979 247.223 179.894 244.111 182.756 244.111H219.552C221.664 244.111 223.375 245.823 223.375 247.934V284.569Z" fill="#F6F7F9"/>
<path d="M232.295 288.708V282.22H232.295L232.295 288.708ZM251.408 307.82H257.897V307.82L251.408 307.82ZM232.295 326.934L232.295 333.422H232.295V326.934ZM140.373 252.855L133.885 252.855V252.855H140.373ZM159.486 271.969V278.457H159.486L159.486 271.969ZM178.599 252.855H185.087V252.855L178.599 252.855ZM178.395 250.054L171.975 250.997L178.395 250.054ZM140.577 250.054L134.157 249.111L140.577 250.054ZM229.371 326.711L230.357 320.298L229.371 326.711ZM229.371 288.931L230.356 295.344L229.371 288.931ZM229.371 288.931L230.356 295.344C230.985 295.247 231.632 295.196 232.295 295.196L232.295 288.708L232.295 282.22C230.969 282.22 229.664 282.321 228.386 282.517L229.371 288.931ZM232.295 288.708V295.196C239.268 295.196 244.92 300.848 244.92 307.82L251.408 307.82L257.897 307.82C257.896 293.681 246.434 282.22 232.295 282.22V288.708ZM251.408 307.82H244.92C244.92 314.793 239.267 320.445 232.295 320.445V326.934V333.422C246.434 333.422 257.897 321.96 257.897 307.82H251.408ZM232.295 326.934L232.295 320.445C231.632 320.445 230.985 320.395 230.357 320.298L229.371 326.711L228.385 333.124C229.663 333.32 230.969 333.422 232.295 333.422L232.295 326.934ZM223.375 331.072H216.887V367.709H223.375H229.863V331.072H223.375ZM219.552 371.531V365.043H99.7777V371.531V378.02H219.552V371.531ZM95.9551 367.709H102.443V247.934H95.9551H89.4667V367.709H95.9551ZM99.7777 244.111V250.6H136.216V244.111V237.623H99.7777V244.111ZM140.577 250.054L134.157 249.111C133.977 250.337 133.885 251.587 133.885 252.855L140.373 252.855L146.861 252.856C146.861 252.221 146.908 251.6 146.996 250.997L140.577 250.054ZM140.373 252.855H133.885C133.885 266.995 145.347 278.457 159.486 278.457V271.969V265.48C152.514 265.48 146.861 259.828 146.861 252.855H140.373ZM159.486 271.969L159.486 278.457C173.626 278.457 185.087 266.994 185.087 252.855H178.599H172.11C172.11 259.828 166.458 265.48 159.486 265.48L159.486 271.969ZM178.599 252.855L185.087 252.855C185.087 251.587 184.994 250.337 184.814 249.112L178.395 250.054L171.975 250.997C172.064 251.6 172.11 252.221 172.11 252.856L178.599 252.855ZM182.756 244.111V250.6H219.552V244.111V237.623H182.756V244.111ZM223.375 247.934H216.887V284.569H223.375H229.863V247.934H223.375ZM219.552 244.111V250.6C218.08 250.6 216.887 249.406 216.887 247.934H223.375H229.863C229.863 242.239 225.247 237.623 219.552 237.623V244.111ZM178.395 250.054L184.814 249.112C184.853 249.376 184.801 249.54 184.679 249.717C184.596 249.836 184.415 250.049 184.079 250.245C183.72 250.455 183.255 250.6 182.756 250.6V244.111V237.623C178.768 237.623 175.743 239.829 174.014 242.325C172.322 244.765 171.521 247.901 171.975 250.997L178.395 250.054ZM136.216 244.111V250.6C135.717 250.6 135.252 250.455 134.892 250.245C134.556 250.049 134.376 249.836 134.293 249.717C134.17 249.54 134.119 249.376 134.157 249.111L140.577 250.054L146.996 250.997C147.451 247.901 146.65 244.765 144.958 242.324C143.228 239.829 140.204 237.623 136.216 237.623V244.111ZM95.9551 247.934H102.443C102.443 249.406 101.25 250.6 99.7777 250.6V244.111V237.623C94.0831 237.623 89.4667 242.239 89.4667 247.934H95.9551ZM99.7777 371.531V365.043C101.25 365.043 102.443 366.236 102.443 367.709H95.9551H89.4667C89.4667 373.403 94.0831 378.02 99.7777 378.02V371.531ZM229.371 326.711L230.357 320.298C227.247 319.82 224.09 320.611 221.633 322.298C219.121 324.023 216.887 327.056 216.887 331.072H223.375H229.863C229.863 331.574 229.717 332.042 229.505 332.402C229.308 332.738 229.095 332.916 228.978 332.996C228.808 333.113 228.649 333.164 228.385 333.124L229.371 326.711ZM223.375 367.709H216.887C216.887 366.236 218.08 365.043 219.552 365.043V371.531V378.02C225.247 378.02 229.863 373.403 229.863 367.709H223.375ZM229.371 288.931L228.386 282.517C228.65 282.477 228.808 282.528 228.979 282.645C229.095 282.725 229.308 282.903 229.505 283.239C229.717 283.599 229.863 284.067 229.863 284.569H223.375H216.887C216.887 288.584 219.122 291.618 221.633 293.342C224.089 295.029 227.246 295.822 230.356 295.344L229.371 288.931Z" fill="#EAEFF4" mask="url(#path-5-outside-2_4409_27808)"/>
</g>
<g opacity="0.95">
<mask id="path-8-outside-3_4409_27808" maskUnits="userSpaceOnUse" x="216.377" y="209.078" width="141" height="169" fill="black">
<rect fill="#F6F7F9" x="216.377" y="209.078" width="141" height="169"/>
<path d="M287.086 216.078C297.642 216.078 306.199 224.636 306.199 235.191C306.199 236.186 306.123 237.162 305.977 238.115C305.539 240.962 307.458 244.111 310.338 244.111H346.974C349.085 244.111 350.797 245.823 350.797 247.934V367.709C350.797 369.82 349.085 371.531 346.974 371.531H227.2C225.088 371.531 223.377 369.82 223.377 367.709V331.072C223.377 328.192 226.526 326.274 229.372 326.711C230.325 326.858 231.301 326.934 232.295 326.934C242.851 326.934 251.408 318.376 251.408 307.82C251.408 297.265 242.851 288.708 232.295 288.708C231.301 288.708 230.325 288.784 229.372 288.93C226.526 289.367 223.377 287.448 223.377 284.569V247.934C223.377 245.823 225.088 244.111 227.2 244.111H263.835C266.714 244.111 268.633 240.962 268.196 238.115C268.05 237.162 267.974 236.186 267.974 235.191C267.974 224.636 276.53 216.078 287.086 216.078Z"/>
</mask>
<path d="M287.086 216.078C297.642 216.078 306.199 224.636 306.199 235.191C306.199 236.186 306.123 237.162 305.977 238.115C305.539 240.962 307.458 244.111 310.338 244.111H346.974C349.085 244.111 350.797 245.823 350.797 247.934V367.709C350.797 369.82 349.085 371.531 346.974 371.531H227.2C225.088 371.531 223.377 369.82 223.377 367.709V331.072C223.377 328.192 226.526 326.274 229.372 326.711C230.325 326.858 231.301 326.934 232.295 326.934C242.851 326.934 251.408 318.376 251.408 307.82C251.408 297.265 242.851 288.708 232.295 288.708C231.301 288.708 230.325 288.784 229.372 288.93C226.526 289.367 223.377 287.448 223.377 284.569V247.934C223.377 245.823 225.088 244.111 227.2 244.111H263.835C266.714 244.111 268.633 240.962 268.196 238.115C268.05 237.162 267.974 236.186 267.974 235.191C267.974 224.636 276.53 216.078 287.086 216.078Z" fill="#F6F7F9"/>
<path d="M287.086 216.078V209.59H287.086L287.086 216.078ZM306.199 235.191L312.688 235.191V235.191L306.199 235.191ZM232.295 326.934L232.295 333.422H232.295V326.934ZM251.408 307.82H257.897V307.82L251.408 307.82ZM232.295 288.708V282.22H232.295L232.295 288.708ZM267.974 235.191L261.485 235.191V235.191L267.974 235.191ZM229.372 288.93L228.387 282.517L229.372 288.93ZM229.372 326.711L230.358 320.298L229.372 326.711ZM305.977 238.115L299.564 237.13L305.977 238.115ZM287.086 216.078V222.566C294.058 222.566 299.711 228.219 299.711 235.191L306.199 235.191L312.688 235.191C312.688 221.052 301.225 209.59 287.086 209.59V216.078ZM306.199 235.191L299.711 235.191C299.711 235.854 299.66 236.501 299.564 237.13L305.977 238.115L312.39 239.101C312.586 237.823 312.688 236.517 312.688 235.191L306.199 235.191ZM310.338 244.111V250.6H346.974V244.111V237.623H310.338V244.111ZM350.797 247.934H344.309V367.709H350.797H357.285V247.934H350.797ZM346.974 371.531V365.043H227.2V371.531V378.02H346.974V371.531ZM223.377 367.709H229.865V331.072H223.377H216.889V367.709H223.377ZM229.372 326.711L228.386 333.124C229.664 333.32 230.97 333.422 232.295 333.422L232.295 326.934L232.295 320.445C231.633 320.445 230.986 320.395 230.358 320.298L229.372 326.711ZM232.295 326.934V333.422C246.434 333.422 257.897 321.96 257.897 307.82H251.408H244.92C244.92 314.793 239.267 320.445 232.295 320.445V326.934ZM251.408 307.82L257.897 307.82C257.896 293.681 246.434 282.22 232.295 282.22V288.708V295.196C239.268 295.196 244.92 300.848 244.92 307.82L251.408 307.82ZM232.295 288.708L232.295 282.22C230.97 282.22 229.665 282.321 228.387 282.517L229.372 288.93L230.357 295.343C230.985 295.247 231.632 295.196 232.295 295.196L232.295 288.708ZM223.377 284.569H229.865V247.934H223.377H216.889V284.569H223.377ZM227.2 244.111V250.6H263.835V244.111V237.623H227.2V244.111ZM268.196 238.115L274.609 237.13C274.513 236.502 274.462 235.854 274.462 235.191L267.974 235.191L261.485 235.191C261.485 236.517 261.587 237.823 261.783 239.101L268.196 238.115ZM267.974 235.191L274.462 235.191C274.462 228.219 280.114 222.567 287.086 222.566L287.086 216.078L287.086 209.59C272.946 209.59 261.485 221.053 261.485 235.191L267.974 235.191ZM263.835 244.111V250.6C267.85 250.6 270.883 248.365 272.608 245.854C274.295 243.397 275.087 240.24 274.609 237.13L268.196 238.115L261.783 239.101C261.742 238.836 261.794 238.678 261.911 238.508C261.991 238.391 262.169 238.178 262.505 237.981C262.865 237.77 263.332 237.623 263.835 237.623V244.111ZM223.377 247.934H229.865C229.865 249.406 228.672 250.6 227.2 250.6V244.111V237.623C221.505 237.623 216.889 242.239 216.889 247.934H223.377ZM229.372 288.93L228.387 282.517C228.652 282.477 228.81 282.528 228.981 282.645C229.097 282.725 229.31 282.903 229.507 283.239C229.719 283.599 229.865 284.066 229.865 284.569H223.377H216.889C216.889 288.584 219.123 291.617 221.634 293.342C224.091 295.029 227.247 295.821 230.357 295.343L229.372 288.93ZM223.377 331.072H229.865C229.865 331.574 229.719 332.042 229.507 332.402C229.31 332.738 229.097 332.916 228.98 332.996C228.809 333.114 228.651 333.165 228.386 333.124L229.372 326.711L230.358 320.298C227.248 319.82 224.091 320.612 221.634 322.299C219.123 324.023 216.889 327.057 216.889 331.072H223.377ZM227.2 371.531V365.043C228.672 365.043 229.865 366.236 229.865 367.709H223.377H216.889C216.889 373.403 221.505 378.02 227.2 378.02V371.531ZM350.797 367.709H344.309C344.309 366.236 345.502 365.043 346.974 365.043V371.531V378.02C352.669 378.02 357.285 373.403 357.285 367.709H350.797ZM346.974 244.111V250.6C345.502 250.6 344.309 249.406 344.309 247.934H350.797H357.285C357.285 242.239 352.669 237.623 346.974 237.623V244.111ZM305.977 238.115L299.564 237.13C299.086 240.24 299.878 243.397 301.565 245.854C303.289 248.365 306.323 250.6 310.338 250.6V244.111V237.623C310.841 237.623 311.308 237.77 311.668 237.981C312.004 238.178 312.182 238.391 312.262 238.508C312.379 238.678 312.43 238.837 312.39 239.101L305.977 238.115Z" fill="#EAEFF4" mask="url(#path-8-outside-3_4409_27808)"/>
</g>
<mask id="path-11-outside-4_4409_27808" maskUnits="userSpaceOnUse" x="206.151" y="17.5693" width="220.056" height="217.243" fill="black">
<rect fill="#F6F7F9" x="206.151" y="17.5693" width="220.056" height="217.243"/>
<path d="M414.446 120.531C415.829 122.126 415.657 124.54 414.062 125.923L386.381 149.924C384.205 151.81 380.692 150.688 379.158 148.251C378.644 147.435 378.062 146.647 377.411 145.896C370.496 137.921 358.425 137.061 350.449 143.976C342.474 150.891 341.615 162.962 348.53 170.937C349.181 171.688 349.878 172.376 350.613 173C352.808 174.864 353.421 178.501 351.246 180.387L323.565 204.386C321.97 205.769 319.556 205.598 318.173 204.002L294.173 176.322C292.287 174.146 288.65 174.76 286.786 176.955C286.162 177.69 285.474 178.387 284.723 179.039C276.748 185.954 264.676 185.094 257.761 177.119C250.846 169.143 251.706 157.072 259.681 150.157C260.432 149.505 261.22 148.923 262.036 148.409C264.473 146.875 265.596 143.362 263.709 141.186L239.71 113.506C238.327 111.911 238.499 109.497 240.094 108.114L330.591 29.6504C332.186 28.2674 334.6 28.4394 335.983 30.0345L414.446 120.531Z"/>
</mask>
<path d="M414.446 120.531C415.829 122.126 415.657 124.54 414.062 125.923L386.381 149.924C384.205 151.81 380.692 150.688 379.158 148.251C378.644 147.435 378.062 146.647 377.411 145.896C370.496 137.921 358.425 137.061 350.449 143.976C342.474 150.891 341.615 162.962 348.53 170.937C349.181 171.688 349.878 172.376 350.613 173C352.808 174.864 353.421 178.501 351.246 180.387L323.565 204.386C321.97 205.769 319.556 205.598 318.173 204.002L294.173 176.322C292.287 174.146 288.65 174.76 286.786 176.955C286.162 177.69 285.474 178.387 284.723 179.039C276.748 185.954 264.676 185.094 257.761 177.119C250.846 169.143 251.706 157.072 259.681 150.157C260.432 149.505 261.22 148.923 262.036 148.409C264.473 146.875 265.596 143.362 263.709 141.186L239.71 113.506C238.327 111.911 238.499 109.497 240.094 108.114L330.591 29.6504C332.186 28.2674 334.6 28.4394 335.983 30.0345L414.446 120.531Z" fill="#23BB4E"/>
<path d="M377.411 145.896L382.313 141.646L382.313 141.646L377.411 145.896ZM350.449 143.976L346.199 139.074L346.199 139.074L350.449 143.976ZM348.53 170.937L343.627 175.188L343.627 175.188L348.53 170.937ZM284.723 179.039L288.973 183.941L288.974 183.941L284.723 179.039ZM257.761 177.119L252.859 181.369L252.859 181.369L257.761 177.119ZM259.681 150.157L255.431 145.254L255.431 145.254L259.681 150.157ZM294.173 176.322L289.271 180.572L294.173 176.322ZM286.786 176.955L291.733 181.154L286.786 176.955ZM323.565 204.386L327.816 209.289L323.565 204.386ZM318.173 204.002L313.271 208.253L318.173 204.002ZM386.381 149.924L382.13 145.021L386.381 149.924ZM379.158 148.251L373.667 151.707L379.158 148.251ZM350.613 173L354.813 168.054L350.613 173ZM351.246 180.387L355.496 185.289L351.246 180.387ZM262.036 148.409L265.493 153.9L262.036 148.409ZM414.062 125.923L409.812 121.021L414.062 125.923ZM414.062 125.923L409.812 121.021L382.13 145.021L386.381 149.924L390.631 154.826L418.313 130.825L414.062 125.923ZM379.158 148.251L384.649 144.794C383.96 143.7 383.182 142.647 382.313 141.646L377.411 145.896L372.509 150.146C372.943 150.647 373.328 151.169 373.667 151.707L379.158 148.251ZM377.411 145.896L382.313 141.646C373.051 130.963 356.882 129.811 346.199 139.074L350.449 143.976L354.7 148.878C359.968 144.311 367.941 144.878 372.509 150.146L377.411 145.896ZM350.449 143.976L346.199 139.074C335.516 148.336 334.365 164.505 343.627 175.188L348.53 170.937L353.432 166.687C348.864 161.419 349.432 153.445 354.7 148.878L350.449 143.976ZM348.53 170.937L343.627 175.188C344.496 176.189 345.428 177.109 346.413 177.946L350.613 173L354.813 168.054C354.328 167.643 353.866 167.187 353.432 166.687L348.53 170.937ZM351.246 180.387L346.995 175.485L319.315 199.484L323.565 204.386L327.816 209.289L355.496 185.289L351.246 180.387ZM318.173 204.002L323.075 199.752L299.076 172.072L294.173 176.322L289.271 180.572L313.271 208.253L318.173 204.002ZM286.786 176.955L281.84 172.756C281.429 173.24 280.973 173.702 280.472 174.137L284.723 179.039L288.974 183.941C289.975 183.073 290.896 182.14 291.733 181.154L286.786 176.955ZM284.723 179.039L280.473 174.137C275.205 178.704 267.231 178.136 262.663 172.868L257.761 177.119L252.859 181.369C262.121 192.052 278.291 193.204 288.973 183.941L284.723 179.039ZM257.761 177.119L262.663 172.868C258.096 167.6 258.664 159.626 263.932 155.059L259.681 150.157L255.431 145.254C244.748 154.517 243.596 170.686 252.859 181.369L257.761 177.119ZM259.681 150.157L263.932 155.059C264.433 154.625 264.955 154.239 265.493 153.9L262.036 148.409L258.58 142.918C257.485 143.607 256.432 144.386 255.431 145.254L259.681 150.157ZM263.709 141.186L268.612 136.936L244.612 109.256L239.71 113.506L234.808 117.757L258.807 145.437L263.709 141.186ZM240.094 108.114L244.345 113.016L334.841 34.5527L330.591 29.6504L326.341 24.7481L235.844 103.212L240.094 108.114ZM335.983 30.0345L331.081 34.2849L409.544 124.781L414.446 120.531L419.349 116.28L340.886 25.784L335.983 30.0345ZM330.591 29.6504L334.841 34.5527C333.729 35.5171 332.045 35.3972 331.081 34.2849L335.983 30.0345L340.886 25.784C337.155 21.4815 330.643 21.0177 326.341 24.7481L330.591 29.6504ZM294.173 176.322L299.076 172.072C296.445 169.038 292.769 168.21 289.742 168.552C286.781 168.887 283.877 170.357 281.84 172.756L286.786 176.955L291.733 181.154C291.56 181.358 291.406 181.423 291.2 181.447C291.06 181.462 290.782 181.467 290.413 181.343C290.017 181.209 289.6 180.952 289.271 180.572L294.173 176.322ZM323.565 204.386L319.315 199.484C320.427 198.52 322.111 198.64 323.075 199.752L318.173 204.002L313.271 208.253C317.001 212.555 323.513 213.019 327.816 209.289L323.565 204.386ZM239.71 113.506L244.612 109.256C245.577 110.368 245.457 112.052 244.345 113.016L240.094 108.114L235.844 103.212C231.541 106.942 231.077 113.454 234.808 117.757L239.71 113.506ZM386.381 149.924L382.13 145.021C382.51 144.692 382.959 144.497 383.37 144.421C383.753 144.35 384.027 144.394 384.164 144.429C384.364 144.482 384.507 144.568 384.649 144.794L379.158 148.251L373.667 151.707C375.343 154.37 378.009 156.236 380.894 156.987C383.842 157.755 387.598 157.456 390.631 154.826L386.381 149.924ZM350.613 173L346.413 177.946C346.209 177.773 346.144 177.62 346.121 177.414C346.105 177.274 346.1 176.996 346.225 176.626C346.358 176.231 346.616 175.814 346.995 175.485L351.246 180.387L355.496 185.289C358.53 182.659 359.358 178.983 359.015 175.956C358.681 172.995 357.211 170.091 354.813 168.054L350.613 173ZM262.036 148.409L265.493 153.9C268.156 152.224 270.022 149.558 270.773 146.673C271.541 143.725 271.242 139.969 268.612 136.936L263.709 141.186L258.807 145.437C258.478 145.057 258.282 144.608 258.206 144.197C258.136 143.814 258.18 143.54 258.215 143.403C258.267 143.203 258.353 143.061 258.58 142.918L262.036 148.409ZM414.062 125.923L418.313 130.825C422.615 127.095 423.079 120.583 419.349 116.28L414.446 120.531L409.544 124.781C408.58 123.669 408.699 121.985 409.812 121.021L414.062 125.923Z" fill="#EAEFF4" mask="url(#path-11-outside-4_4409_27808)"/>
<g opacity="0.5" filter="url(#filter0_f_4409_27808)">
<circle cx="216" cy="216" r="72" fill="#23BB4E"/>
</g>
<defs>
<filter id="filter0_f_4409_27808" x="0" y="0" width="432" height="432" filterUnits="userSpaceOnUse" color-interpolation-filters="sRGB">
<feFlood flood-opacity="0" result="BackgroundImageFix"/>
<feBlend mode="normal" in="SourceGraphic" in2="BackgroundImageFix" result="shape"/>
<feGaussianBlur stdDeviation="72" result="effect1_foregroundBlur_4409_27808"/>
</filter>
</defs>
</svg>
