<svg width="721" height="701" viewBox="0 0 721 701" fill="none" xmlns="http://www.w3.org/2000/svg">
<path fill-rule="evenodd" clip-rule="evenodd" d="M720.789 1.38042C720.791 1.37679 720.792 1.37408 720.017 0.906746C719.241 0.439413 719.24 0.440316 719.238 0.443939L719.229 0.458436L719.194 0.517308C719.161 0.570743 719.113 0.65043 719.049 0.755489C718.919 0.967424 718.726 1.28261 718.467 1.70013C717.95 2.53517 717.175 3.77505 716.144 5.39441C714.082 8.63133 710.998 13.3816 706.91 19.4298C698.735 31.5252 686.549 48.8093 670.508 69.5531C638.427 111.041 590.936 166.357 529.301 221.673C406.021 332.311 226.228 442.881 0.019043 442.881V444.692C226.843 444.692 407.049 333.822 530.51 223.021C592.245 167.616 639.81 112.214 671.941 70.6608C688.008 49.8843 700.217 32.5686 708.411 20.4442C712.508 14.3815 715.602 9.6176 717.672 6.36713C718.707 4.74233 719.486 3.49519 720.007 2.65381C720.267 2.23357 720.463 1.91478 720.594 1.70013C720.66 1.59236 720.709 1.51174 720.742 1.4574L720.779 1.39581L720.789 1.38042ZM720.703 134.634C720.705 134.631 720.706 134.63 720.017 134.042C719.327 133.456 719.327 133.456 719.325 133.458L719.316 133.468L719.28 133.51L719.218 133.583L719.136 133.677C719.081 133.742 719.014 133.819 718.935 133.909L718.81 134.054C718.733 134.142 718.649 134.239 718.556 134.345C718.039 134.935 717.265 135.811 716.235 136.956C714.175 139.245 711.092 142.605 707.006 146.882C698.834 155.437 686.65 167.664 670.613 182.338C638.539 211.687 591.053 250.824 529.42 289.962C406.153 368.237 226.32 446.504 0.019043 446.504V448.315C226.751 448.315 406.917 369.898 530.391 291.49C592.128 252.287 639.698 213.082 671.836 183.674C687.906 168.97 700.118 156.715 708.316 148.133C712.414 143.842 715.509 140.469 717.581 138.168C718.617 137.017 719.397 136.134 719.918 135.538C720.179 135.24 720.376 135.013 720.507 134.861C720.573 134.785 720.622 134.728 720.655 134.689L720.693 134.646L720.703 134.634ZM720.017 226.422C720.6 227.115 720.598 227.117 720.596 227.119L720.586 227.127L720.549 227.159L720.451 227.24L720.4 227.282C720.268 227.391 720.072 227.554 719.811 227.767C719.289 228.195 718.508 228.828 717.472 229.654C715.4 231.304 712.304 233.722 708.204 236.798C700.005 242.95 687.792 251.735 671.722 262.275C639.581 283.355 592.013 311.454 530.28 339.551C406.815 395.747 226.688 451.938 0.019043 451.938V450.126C226.384 450.126 406.255 394.012 529.53 337.903C591.168 309.849 638.655 281.795 670.728 260.76C686.764 250.243 698.947 241.48 707.117 235.35C711.202 232.284 714.284 229.877 716.344 228.236C717.374 227.417 718.147 226.788 718.663 226.366C718.774 226.276 718.873 226.194 718.96 226.123C719.075 226.027 719.17 225.95 719.243 225.888C719.307 225.835 719.355 225.795 719.387 225.768L719.423 225.739L719.431 225.731C719.431 225.731 719.432 225.73 719.45 225.751C719.459 225.761 719.471 225.776 719.489 225.797C719.523 225.837 719.577 225.901 719.663 226.003L720.017 226.422ZM720.404 327.772C720.404 327.772 720.404 327.772 720.404 327.77C720.403 327.768 720.402 327.765 720.399 327.757C720.392 327.741 720.377 327.71 720.347 327.647C720.296 327.538 720.199 327.335 720.017 326.953C719.84 326.584 719.743 326.382 719.69 326.271C719.665 326.22 719.649 326.188 719.64 326.168C719.63 326.149 719.627 326.142 719.625 326.139C719.624 326.137 719.623 326.137 719.623 326.137L719.615 326.142L719.579 326.159L719.435 326.227C719.306 326.288 719.113 326.378 718.855 326.499C718.339 326.739 717.564 327.096 716.534 327.563C714.474 328.495 711.391 329.864 707.305 331.608C699.133 335.095 686.948 340.078 670.908 346.058C638.829 358.02 591.331 373.973 529.678 389.927C406.373 421.836 226.451 453.749 0.019043 453.749V455.561C226.621 455.561 406.697 423.623 530.132 391.681C591.85 375.71 639.408 359.737 671.541 347.755C687.608 341.764 699.819 336.771 708.016 333.274C712.115 331.525 715.21 330.15 717.281 329.213C718.317 328.744 719.098 328.383 719.619 328.141C719.88 328.019 720.077 327.927 720.208 327.865L720.357 327.795L720.394 327.777L720.404 327.772ZM720.017 407.559C720.14 408.207 720.173 408.383 720.18 408.431C720.183 408.45 720.182 408.45 720.182 408.45L720.173 408.451L720.136 408.459L719.988 408.487C719.858 408.511 719.662 408.547 719.402 408.595L719.158 408.641L718.858 408.696C718.692 408.726 718.511 408.759 718.314 408.795C717.951 408.861 717.536 408.936 717.068 409.02C714.999 409.392 711.907 409.938 707.812 410.631C699.621 412.02 687.417 414.001 671.358 416.38C639.238 421.136 591.697 427.478 529.998 433.82C406.599 446.502 226.569 459.183 0.019043 459.183V457.372C226.502 457.372 406.47 444.694 529.812 432.017C591.484 425.679 638.998 419.341 671.092 414.588C687.139 412.212 699.331 410.232 707.509 408.845C711.599 408.153 714.685 407.608 716.748 407.238C717.779 407.052 718.555 406.91 719.072 406.814C719.331 406.767 719.525 406.731 719.655 406.706L719.8 406.679L719.836 406.672L719.845 406.67C719.845 406.67 719.846 406.67 719.85 406.687C719.853 406.704 719.86 406.737 719.872 406.801L719.9 406.944C719.925 407.076 719.962 407.271 720.017 407.559ZM720.007 456.466C720.009 456.466 720.01 456.466 720.017 457.372C720.024 458.278 720.022 458.278 720.02 458.278H720.011H719.996L719.975 458.279H719.947H719.914H719.874L719.828 458.279H719.776L719.719 458.28H719.655L719.585 458.281H719.508L719.426 458.282L719.338 458.283L719.244 458.284H719.144L719.037 458.285L718.925 458.286L718.806 458.287L718.682 458.288L718.551 458.288L718.415 458.29L718.272 458.291L718.123 458.292L717.969 458.293L717.808 458.295L717.641 458.296L717.469 458.297L717.29 458.298L717.106 458.299L716.915 458.301L716.718 458.303L716.515 458.304L716.307 458.306L716.092 458.307L715.872 458.309L715.645 458.311L715.412 458.313L715.174 458.315L714.929 458.317L714.679 458.318L714.422 458.32L714.16 458.322L713.892 458.324L713.617 458.326L713.337 458.328L713.051 458.33L712.759 458.333L712.461 458.335L712.157 458.337L711.847 458.339L711.531 458.342L711.21 458.345L710.882 458.346L710.548 458.349L710.209 458.352L709.864 458.355L709.512 458.357L709.155 458.36L708.792 458.363L708.423 458.365L708.048 458.368L707.668 458.371L707.281 458.374L706.889 458.377L706.49 458.38L706.086 458.383L705.676 458.386L705.26 458.389L704.838 458.393L704.411 458.395L703.977 458.399L703.538 458.403L703.092 458.405L702.641 458.409L702.185 458.413L701.722 458.416L701.253 458.42L700.779 458.423L700.299 458.426L699.813 458.431L699.321 458.434L698.824 458.438L698.32 458.442L697.811 458.445L697.296 458.45L696.775 458.453L696.248 458.457L695.716 458.461L695.178 458.465L694.634 458.47L694.084 458.473L693.529 458.478L692.967 458.482L692.4 458.486L691.827 458.49L691.249 458.495L690.665 458.5L690.075 458.504L689.479 458.509L688.877 458.513L688.27 458.518L687.657 458.522L687.038 458.527L686.414 458.531L685.783 458.536L685.147 458.541L684.506 458.546L683.858 458.551L683.205 458.556L682.546 458.56L681.882 458.566L681.212 458.571L680.536 458.576L679.854 458.581L679.167 458.586L678.474 458.591L677.775 458.596L677.071 458.602L676.361 458.607L675.645 458.613L674.924 458.618L674.197 458.624L673.464 458.629L672.725 458.634L671.981 458.64L671.232 458.646L670.476 458.652L669.715 458.657L668.949 458.663L668.177 458.669L667.399 458.675L666.615 458.681L665.826 458.687L665.031 458.692L664.231 458.699L663.425 458.705L662.613 458.711L661.796 458.717L660.973 458.723L660.145 458.73L659.311 458.736L658.471 458.742L657.626 458.749L656.775 458.755L655.919 458.761L655.057 458.768L654.19 458.775L653.316 458.781L652.438 458.788L651.554 458.795L650.664 458.801L649.768 458.808L648.868 458.815L647.961 458.822L647.049 458.828L646.132 458.836L645.209 458.843L644.28 458.849L643.346 458.856L642.406 458.864L641.461 458.871L640.51 458.878L639.554 458.885L638.592 458.893L637.625 458.9L636.652 458.907L635.674 458.914L634.69 458.922L633.701 458.929L632.706 458.937L631.706 458.944L630.7 458.951L629.689 458.96L628.673 458.967L627.65 458.975L626.622 458.982L625.59 458.99L624.551 458.999L623.507 459.006L622.457 459.014L621.403 459.022L620.343 459.03L619.277 459.038L618.205 459.047L617.128 459.055L616.046 459.063L614.959 459.071L613.866 459.079L612.768 459.087L611.664 459.095L610.554 459.104L609.44 459.113L608.32 459.121L607.194 459.129L606.063 459.138L604.927 459.146L603.785 459.155L602.639 459.163L601.486 459.172L600.328 459.181L599.165 459.19L597.996 459.199L596.823 459.208L595.644 459.217L594.459 459.226L593.269 459.234L592.073 459.243L590.873 459.252L589.666 459.261L588.455 459.271L587.238 459.28L586.016 459.289L584.788 459.298L583.556 459.307L582.318 459.317L581.074 459.326L579.825 459.335L578.571 459.345L577.312 459.354L576.047 459.364L574.777 459.374L573.502 459.383L572.221 459.393L570.935 459.403L569.644 459.412L568.347 459.422L567.046 459.432L565.739 459.442L564.426 459.452L563.109 459.462L561.786 459.472L560.458 459.482L559.124 459.492L557.785 459.502L556.441 459.512L555.092 459.523L553.738 459.533L552.378 459.543L551.013 459.554L549.642 459.564L548.268 459.574L546.887 459.585L545.501 459.595L544.11 459.605L542.713 459.616L541.312 459.626L539.905 459.637L538.493 459.648L537.076 459.659L535.654 459.67L534.226 459.68L532.794 459.69L531.355 459.701L529.912 459.712L528.464 459.723L527.01 459.735L525.551 459.746L524.088 459.757L522.619 459.767L521.144 459.778L519.665 459.79L518.181 459.801L516.691 459.813L515.196 459.824L513.696 459.835L512.191 459.846L510.68 459.858L509.165 459.869L507.644 459.881L506.119 459.892L504.588 459.903L503.053 459.915L501.511 459.927L499.965 459.939L498.414 459.95L496.857 459.962L495.296 459.974L493.729 459.986L492.158 459.997L490.581 460.009L488.999 460.021L487.412 460.034L485.82 460.046L484.223 460.057L482.621 460.069L481.014 460.082L479.402 460.094L477.784 460.106L476.161 460.118L474.534 460.131L472.902 460.142L471.263 460.155L469.621 460.168L467.973 460.18L466.32 460.192L464.663 460.205L463 460.218L461.332 460.23L459.659 460.243L457.981 460.256L456.298 460.268L454.61 460.281L452.917 460.294L451.219 460.306L449.517 460.319L447.809 460.333L446.096 460.345L444.378 460.358L442.654 460.372L440.926 460.384L439.194 460.397L437.456 460.411L435.714 460.423L433.966 460.437L432.212 460.45L430.455 460.463L428.692 460.477L426.924 460.49L425.152 460.503L423.374 460.516L421.592 460.53L419.804 460.544L418.012 460.557L416.215 460.571L414.412 460.584L412.605 460.598L410.793 460.612L408.976 460.625L407.154 460.639L405.327 460.653L403.496 460.667L401.659 460.68L399.817 460.695L397.97 460.708L396.119 460.722L394.262 460.737L392.401 460.75L390.536 460.765L388.665 460.778L386.789 460.793L384.908 460.807L383.022 460.821L381.132 460.835L379.237 460.85L377.337 460.864L375.432 460.879L373.522 460.893L371.607 460.908L369.687 460.922L367.763 460.937L365.834 460.951L363.9 460.966L361.961 460.98L360.018 460.995L358.069 461.009L356.115 461.025L354.157 461.039L352.195 461.054L350.227 461.069L348.254 461.083L346.277 461.099L344.295 461.113L342.308 461.129L340.316 461.143L338.319 461.159L336.318 461.174L334.312 461.188L332.301 461.204L330.285 461.219L328.264 461.235L326.239 461.25L324.21 461.266L322.175 461.281L320.135 461.296L318.091 461.312L316.042 461.327L313.989 461.342L311.93 461.358L309.867 461.373L307.798 461.389L305.726 461.405L303.649 461.42L301.567 461.436L299.48 461.452L297.388 461.467L295.292 461.484L293.191 461.499L291.085 461.515L288.975 461.531L286.86 461.547L284.74 461.563L282.616 461.579L280.487 461.595L278.353 461.611L276.215 461.628L274.072 461.643L271.924 461.659L269.771 461.676L267.614 461.692L265.452 461.708L263.285 461.725L261.115 461.741L258.939 461.757L256.758 461.774L254.573 461.791L252.383 461.807L250.19 461.823L247.99 461.841L245.786 461.857L243.578 461.874L241.366 461.89L239.148 461.907L236.926 461.924L234.699 461.94L232.468 461.957L230.233 461.975L227.992 461.991L225.747 462.008L223.497 462.025L221.243 462.043L218.984 462.059L216.72 462.076L214.452 462.093L212.18 462.11L209.902 462.128L207.621 462.145L205.335 462.162L203.044 462.179L200.749 462.197L198.448 462.215L196.144 462.232L193.835 462.249L191.521 462.266L189.204 462.284L186.881 462.302L184.554 462.319L182.222 462.337L179.885 462.354L177.545 462.372L175.199 462.389L172.85 462.408L170.495 462.426L168.137 462.443L165.773 462.461L163.406 462.479L161.033 462.496L158.657 462.514L156.276 462.533L153.889 462.551L151.499 462.569L149.105 462.587L146.706 462.605L144.302 462.623L141.894 462.641L139.481 462.659L137.064 462.677L134.643 462.696L132.217 462.715L129.786 462.733L127.352 462.751L124.913 462.769L122.468 462.788L120.02 462.806L117.568 462.825L115.111 462.843L112.65 462.862L110.184 462.88L107.713 462.899L105.239 462.917L102.76 462.936L100.276 462.956L97.7883 462.974L95.2969 462.993L92.8 463.012L90.2986 463.031L87.7935 463.05L85.2839 463.069L82.7698 463.088L80.2512 463.107L77.728 463.126L75.2003 463.145L72.6691 463.164L70.1332 463.183L67.5928 463.202L65.0479 463.221L62.4985 463.241L59.9454 463.26L57.3879 463.279L54.8257 463.298L52.2592 463.318L49.6888 463.337L47.1132 463.357L44.5339 463.376L41.9501 463.396L39.3626 463.415L36.7697 463.435L34.1732 463.455L31.5721 463.474L28.9674 463.493L26.3574 463.513L23.7436 463.532L21.1254 463.552L18.5026 463.572L15.8762 463.592L13.2452 463.612L10.6098 463.632L7.9707 463.652L5.32617 463.672L2.67798 463.692L0.0262451 463.712L0.0126343 461.9L2.66443 461.88L5.31262 461.861L7.95709 461.841L10.5962 461.821L13.2316 461.801L15.8626 461.781L18.489 461.761L21.1118 461.741L23.73 461.722L26.3438 461.702L28.9529 461.682L31.5585 461.662L34.1596 461.643L36.7561 461.623L39.349 461.603L41.9365 461.584L44.5203 461.564L47.0996 461.545L49.6753 461.525L52.2455 461.506L54.8121 461.487L57.3743 461.467L59.9318 461.448L62.4849 461.429L65.0344 461.409L67.5792 461.39L70.1196 461.371L72.6555 461.352L75.1868 461.333L77.7144 461.314L80.2376 461.295L82.7562 461.276L85.2704 461.257L87.7799 461.238L90.285 461.219L92.7864 461.2L95.2833 461.181L97.7748 461.162L100.263 461.144L102.746 461.125L105.226 461.106L107.7 461.088L110.17 461.069L112.636 461.051L115.097 461.032L117.554 461.014L120.007 460.995L122.455 460.977L124.899 460.958L127.338 460.939L129.773 460.921L132.203 460.903L134.63 460.884L137.05 460.866L139.468 460.848L141.88 460.83L144.288 460.812L146.692 460.794L149.091 460.776L151.486 460.757L153.876 460.739L156.262 460.721L158.643 460.703L161.02 460.685L163.392 460.668L165.76 460.65L168.124 460.632L170.482 460.614L172.837 460.596L175.186 460.578L177.531 460.561L179.872 460.543L182.208 460.526L184.539 460.507L186.867 460.49L189.19 460.473L191.508 460.455L193.822 460.438L196.13 460.42L198.435 460.403L200.734 460.385L203.03 460.368L205.321 460.351L207.607 460.334L209.889 460.316L212.167 460.299L214.439 460.282L216.707 460.265L218.97 460.248L221.229 460.231L223.484 460.214L225.733 460.197L227.978 460.18L230.218 460.163L232.454 460.146L234.686 460.13L236.913 460.113L239.134 460.095L241.352 460.079L243.565 460.063L245.773 460.046L247.976 460.029L250.175 460.012L252.37 459.996L254.559 459.979L256.745 459.963L258.925 459.947L261.101 459.93L263.272 459.913L265.438 459.897L267.6 459.881L269.757 459.864L271.91 459.848L274.057 459.832L276.201 459.816L278.339 459.8L280.473 459.784L282.602 459.767L284.727 459.752L286.846 459.736L288.962 459.719L291.072 459.704L293.178 459.688L295.279 459.672L297.374 459.656L299.466 459.641L301.553 459.624L303.635 459.609L305.713 459.594L307.785 459.577L309.853 459.562L311.917 459.546L313.975 459.531L316.028 459.516L318.078 459.5L320.122 459.485L322.161 459.47L324.196 459.454L326.226 459.439L328.251 459.423L330.271 459.408L332.287 459.393L334.298 459.377L336.304 459.363L338.306 459.347L340.303 459.332L342.294 459.317L344.281 459.302L346.263 459.287L348.241 459.272L350.213 459.258L352.181 459.242L354.144 459.228L356.102 459.213L358.055 459.198L360.004 459.183L361.948 459.169L363.887 459.154L365.82 459.14L367.749 459.125L369.674 459.111L371.594 459.096L373.508 459.082L375.418 459.067L377.323 459.053L379.223 459.038L381.119 459.024L383.009 459.01L384.894 458.996L386.775 458.981L388.651 458.968L390.522 458.953L392.388 458.939L394.249 458.925L396.105 458.911L397.957 458.897L399.803 458.884L401.645 458.869L403.481 458.855L405.313 458.842L407.14 458.827L408.962 458.814L410.779 458.8L412.591 458.787L414.399 458.773L416.201 458.759L417.998 458.746L419.79 458.732L421.578 458.719L423.36 458.705L425.138 458.692L426.91 458.679L428.678 458.665L430.441 458.652L432.199 458.639L433.952 458.625L435.7 458.612L437.442 458.599L439.18 458.586L440.913 458.573L442.641 458.56L444.364 458.547L446.082 458.534L447.795 458.521L449.503 458.508L451.206 458.495L452.904 458.482L454.596 458.47L456.285 458.457L457.967 458.444L459.646 458.432L461.318 458.419L462.986 458.406L464.649 458.394L466.307 458.381L467.959 458.369L469.607 458.356L471.25 458.344L472.887 458.332L474.52 458.319L476.147 458.307L477.77 458.295L479.388 458.282L481 458.27L482.607 458.259L484.21 458.246L485.806 458.234L487.398 458.222L488.985 458.21L490.567 458.198L492.144 458.186L493.715 458.174L495.282 458.163L496.844 458.151L498.4 458.139L499.952 458.127L501.498 458.116L503.038 458.104L504.574 458.092L506.106 458.081L507.631 458.069L509.151 458.058L510.667 458.047L512.177 458.035L513.682 458.024L515.182 458.012L516.677 458.001L518.167 457.99L519.652 457.979L521.131 457.968L522.605 457.956L524.074 457.945L525.537 457.934L526.997 457.924L528.45 457.913L529.898 457.901L531.342 457.89L532.779 457.879L534.212 457.868L535.64 457.858L537.062 457.847L538.479 457.837L539.891 457.826L541.298 457.815L542.7 457.805L544.096 457.794L545.487 457.784L546.873 457.773L548.254 457.762L549.629 457.752L550.999 457.742L552.364 457.732L553.724 457.722L555.078 457.712L556.428 457.701L557.772 457.691L559.11 457.681L560.443 457.671L561.772 457.661L563.095 457.651L564.413 457.641L565.725 457.631L567.032 457.621L568.333 457.611L569.63 457.601L570.922 457.592L572.208 457.582L573.488 457.572L574.764 457.563L576.033 457.553L577.299 457.543L578.557 457.534L579.812 457.525L581.061 457.515L582.304 457.506L583.542 457.496L584.775 457.487L586.002 457.478L587.225 457.469L588.441 457.46L589.653 457.45L590.859 457.441L592.06 457.432L593.255 457.423L594.445 457.414L595.63 457.405L596.809 457.396L597.983 457.387L599.151 457.378L600.315 457.37L601.472 457.361L602.625 457.352L603.772 457.344L604.914 457.335L606.05 457.327L607.181 457.318L608.306 457.309L609.426 457.301L610.541 457.292L611.65 457.284L612.754 457.276L613.853 457.268L614.945 457.26L616.033 457.251L617.115 457.243L618.192 457.235L619.263 457.227L620.329 457.219L621.39 457.211L622.444 457.203L623.493 457.194L624.538 457.187L625.576 457.179L626.609 457.172L627.637 457.164L628.659 457.155L629.675 457.148L630.687 457.141L631.692 457.133L632.693 457.126L633.687 457.118L634.677 457.11L635.66 457.103L636.639 457.096L637.611 457.088L638.579 457.081L639.54 457.074L640.497 457.067L641.447 457.059L642.393 457.052L643.332 457.045L644.266 457.038L645.195 457.031L646.118 457.024L647.035 457.017L647.947 457.011L648.854 457.003L649.755 456.997L650.65 456.99L651.54 456.983L652.424 456.976L653.303 456.97L654.176 456.963L655.043 456.957L655.905 456.95L656.762 456.944L657.612 456.937L658.458 456.931L659.297 456.925L660.131 456.918L660.96 456.912L661.782 456.905L662.6 456.9L663.411 456.894L664.217 456.887L665.018 456.881L665.812 456.876L666.601 456.869L667.385 456.864L668.163 456.858L668.935 456.852L669.702 456.846L670.463 456.84L671.218 456.835L671.968 456.829L672.712 456.823L673.45 456.818L674.183 456.812L674.91 456.807L675.631 456.801L676.347 456.796L677.057 456.79L677.761 456.785L678.46 456.78L679.153 456.775L679.84 456.77L680.522 456.764L681.198 456.76L681.868 456.754L682.533 456.749L683.191 456.744L683.845 456.74L684.492 456.734L685.134 456.73L685.77 456.725L686.4 456.72L687.024 456.715L687.643 456.711L688.256 456.706L688.864 456.702L689.465 456.697L690.061 456.693L690.651 456.688L691.235 456.684L691.814 456.679L692.387 456.675L692.954 456.671L693.515 456.666L694.071 456.662L694.62 456.658L695.164 456.654L695.702 456.65L696.235 456.646L696.761 456.642L697.282 456.638L697.797 456.634L698.306 456.63L698.81 456.627L699.307 456.623L699.799 456.619L700.285 456.616L700.765 456.612L701.24 456.608L701.708 456.605L702.171 456.601L702.628 456.598L703.079 456.594L703.524 456.591L703.963 456.588L704.397 456.584L704.825 456.581L705.246 456.578L705.662 456.575L706.072 456.571L706.477 456.569L706.875 456.566L707.267 456.562L707.654 456.56L708.035 456.557L708.409 456.554L708.778 456.551L709.141 456.549L709.499 456.546L709.85 456.543L710.195 456.541L710.535 456.538L710.868 456.535L711.196 456.533L711.518 456.531L711.833 456.528L712.143 456.526L712.447 456.523L712.745 456.522L713.037 456.519L713.324 456.517L713.604 456.515L713.878 456.512L714.146 456.511L714.409 456.509L714.665 456.507L714.916 456.505L715.16 456.503L715.399 456.502L715.631 456.5L715.858 456.498L716.079 456.496L716.293 456.494L716.502 456.493L716.704 456.492L716.901 456.49L717.092 456.489L717.277 456.487L717.455 456.485L717.628 456.484L717.795 456.483L717.955 456.482L718.11 456.481L718.258 456.48L718.401 456.479L718.538 456.477L718.668 456.476L718.793 456.475L718.911 456.474L719.024 456.474H719.13L719.23 456.473L719.324 456.472L719.413 456.471L719.495 456.47H719.571L719.641 456.469H719.705L719.763 456.468H719.815L719.86 456.467H719.9H719.934H719.961L719.982 456.466H719.998H720.007ZM720.017 700.095C720.6 699.403 720.598 699.402 720.596 699.4L720.586 699.392L720.549 699.36L720.54 699.352L720.46 699.286L720.4 699.236L720.289 699.144L720.163 699.039C720.063 698.957 719.945 698.861 719.811 698.751C719.289 698.323 718.508 697.69 717.472 696.865C715.4 695.214 712.304 692.797 708.204 689.72C700.005 683.568 687.792 674.782 671.722 664.243C639.581 643.163 592.013 615.064 530.28 586.966C406.815 530.77 226.688 474.58 0.019043 474.58V476.391C226.384 476.391 406.255 532.506 529.53 588.615C591.168 616.67 638.655 644.723 670.728 665.757C686.764 676.275 698.947 685.038 707.117 691.169C711.202 694.234 714.284 696.642 716.344 698.281C717.374 699.102 718.147 699.73 718.663 700.152C718.921 700.364 719.115 700.523 719.243 700.63C719.295 700.672 719.336 700.707 719.366 700.732L719.387 700.749L719.423 700.779L719.431 700.786C719.431 700.786 719.432 700.787 719.476 700.737C719.536 700.666 719.678 700.498 720.017 700.095ZM720.404 597.84C720.406 597.841 720.408 597.842 720.017 598.659C719.626 599.476 719.625 599.476 719.623 599.475L719.615 599.47L719.579 599.454L719.435 599.385C719.306 599.324 719.113 599.234 718.855 599.113C718.643 599.015 718.388 598.897 718.089 598.759C717.906 598.675 717.708 598.584 717.493 598.486C717.203 598.354 716.883 598.208 716.534 598.05C714.474 597.117 711.391 595.748 707.305 594.004C699.133 590.518 686.948 585.535 670.908 579.554C638.829 567.592 591.331 551.639 529.678 535.685C406.373 503.777 226.451 471.863 0.019043 471.863V470.052C226.621 470.052 406.697 501.989 530.132 533.931C591.85 549.902 639.408 565.875 671.541 577.857C687.608 583.848 699.819 588.841 708.016 592.339C712.115 594.087 715.21 595.462 717.281 596.4C718.317 596.868 719.098 597.229 719.619 597.471C719.766 597.54 719.892 597.599 719.998 597.649C720.081 597.687 720.151 597.721 720.208 597.748L720.357 597.817L720.394 597.836L720.404 597.84ZM720.017 517.147C720.186 516.258 720.185 516.257 720.182 516.257L720.173 516.255L720.136 516.248L719.988 516.221C719.858 516.196 719.662 516.159 719.402 516.111C718.881 516.015 718.103 515.872 717.068 515.686C714.999 515.314 711.907 514.769 707.812 514.075C699.621 512.688 687.417 510.705 671.358 508.327C639.238 503.57 591.697 497.228 529.998 490.887C406.599 478.204 226.569 465.523 0.019043 465.523V467.334C226.502 467.334 406.47 480.012 529.812 492.689C591.484 499.027 638.998 505.365 671.092 510.118C687.139 512.495 699.331 514.475 707.509 515.861C711.599 516.554 714.685 517.098 716.748 517.469C717.371 517.581 717.9 517.677 718.336 517.757C718.622 517.809 718.867 517.854 719.072 517.893C719.331 517.94 719.525 517.977 719.655 518L719.8 518.028L719.836 518.035L719.845 518.036C719.847 518.036 719.848 518.037 720.017 517.147Z" fill="url(#paint0_linear_4090_22747)"/>
<defs>
<linearGradient id="paint0_linear_4090_22747" x1="10.8859" y1="341.431" x2="706.812" y2="341.431" gradientUnits="userSpaceOnUse">
<stop offset="0.0182341" stop-color="#23BB4E" stop-opacity="0"/>
<stop offset="0.127609" stop-color="#23BB4E"/>
<stop offset="0.563305" stop-color="#23BB4E" stop-opacity="0.65"/>
<stop offset="0.943305" stop-color="#23BB4E" stop-opacity="0"/>
</linearGradient>
</defs>
</svg>
