<svg width="64" height="64" viewBox="0 0 64 64" fill="none" xmlns="http://www.w3.org/2000/svg">
<g clip-path="url(#clip0_3962_19690)">
<path d="M22.4013 0C10.089 0 0 10.0602 0 22.3373C0 27.0944 1.51936 31.5142 4.09152 35.1488L19.6672 62.0762C21.849 64.9261 23.2986 64.3853 25.1123 61.9264L31.6576 50.7872C29.0119 49.4806 26.7054 47.5779 24.9197 45.2288C22.4783 42.0312 21.1116 38.1429 21.0157 34.121C15.0528 33.447 10.496 28.48 10.496 22.3373C10.496 15.7261 15.7715 10.4666 22.4013 10.4666C26.7123 10.4666 30.4384 12.6982 32.5248 16.071C35.9669 14.5772 39.7723 14.1283 43.4675 14.7802C40.3411 6.18816 32.0576 0 22.4013 0Z" fill="#23BB4E"/>
<path d="M42.3226 17.5972C38.2125 17.0404 33.8906 18.0465 30.3418 20.7492C23.2442 26.1534 21.8637 36.3435 27.2685 43.4411C32.3277 50.0843 41.5661 51.6862 48.5485 47.4328L49.8816 49.1838C49.7519 49.4857 49.6908 49.7848 49.7025 50.0604C49.7142 50.336 49.7985 50.5815 49.9495 50.78L59.6263 63.4872C59.9029 63.8503 60.3855 64.0332 60.9678 63.9955C61.5501 63.9578 62.1845 63.7027 62.7315 63.2862C63.0025 63.08 63.2438 62.8403 63.4417 62.5808C63.6397 62.3214 63.7903 62.0473 63.885 61.7742C63.9798 61.5011 64.0167 61.2344 63.9939 60.9892C63.971 60.7441 63.8887 60.5253 63.7517 60.3454L54.0749 47.6382C53.9237 47.4399 53.7094 47.2934 53.4468 47.2089C53.1843 47.1244 52.8797 47.1038 52.5543 47.1486L51.2205 45.3969C57.1789 39.7969 58.0922 30.4657 53.0336 23.8225C50.3309 20.2731 46.4327 18.154 42.3226 17.5972ZM41.8426 21.1409C43.4827 21.3624 45.0628 21.906 46.492 22.7403C47.9213 23.5746 49.1716 24.6832 50.1709 26.0024C51.1763 27.3168 51.9122 28.8169 52.3363 30.4165C52.7604 32.0161 52.8644 33.6837 52.6423 35.3236C52.4202 36.9635 51.8764 38.5434 51.0421 39.9725C50.2077 41.4017 49.0993 42.652 47.7805 43.6516C46.4661 44.657 44.9661 45.3928 43.3665 45.8168C41.767 46.2409 40.0994 46.3448 38.4596 46.1227C36.8198 45.9006 35.24 45.3568 33.8109 44.5226C32.3818 43.6883 31.1315 42.58 30.1319 41.2612C29.1265 39.9469 28.3907 38.4469 27.9666 36.8474C27.5425 35.2478 27.4384 33.5803 27.6605 31.9405C27.8825 30.3007 28.4263 28.7208 29.2605 27.2917C30.0947 25.8626 31.2029 24.6123 32.5216 23.6126C33.8354 22.6061 35.3354 21.8695 36.9351 21.4453C38.5348 21.0211 40.2027 20.9177 41.8426 21.1409Z" fill="#23BB4E"/>
</g>
<defs>
<clipPath id="clip0_3962_19690">
<rect width="64" height="64" fill="white"/>
</clipPath>
</defs>
</svg>
