<svg width="40" height="40" viewBox="0 0 40 40" fill="none" xmlns="http://www.w3.org/2000/svg">
<path d="M20.1711 0.000864842C20.8261 0.000864842 21.4711 0.0433648 22.0711 0.143365C22.6623 0.219513 23.2454 0.348359 23.8136 0.528365C24.3803 0.698365 24.9419 0.917531 25.4986 1.18586C26.0411 1.44336 26.5986 1.75836 27.1561 2.10086C28.0986 2.70086 29.0261 3.18586 29.9711 3.57336C31.831 4.31947 33.7984 4.76259 35.7986 4.88586C36.8103 4.96086 37.8578 4.9992 38.9411 5.00086V15.0009C38.9411 16.8992 38.6986 18.7042 38.2136 20.4159C37.7476 22.1064 37.0856 23.7366 36.2411 25.2734C35.4002 26.808 34.4051 28.253 33.2711 29.5859C32.1205 30.9496 30.874 32.2296 29.5411 33.4159C28.1895 34.6042 26.7677 35.7103 25.2836 36.7284C23.7969 37.7617 22.3019 38.7142 20.7986 39.5859L20.1986 39.9434L19.5986 39.5859C18.0565 38.6933 16.5503 37.7401 15.0836 36.7284C13.5915 35.7213 12.1691 34.6146 10.8261 33.4159C9.4941 32.2295 8.24843 30.9496 7.09861 29.5859C5.96848 28.2467 4.96894 26.8027 4.11361 25.2734C3.28426 23.7294 2.62297 22.1009 2.14111 20.4159C1.65626 18.6521 1.41569 16.8301 1.42611 15.0009V5.00086C2.50944 4.9992 3.55777 4.96086 4.57111 4.88586C5.57041 4.81794 6.56321 4.67503 7.54111 4.45836C8.49861 4.24336 9.45611 3.95836 10.3986 3.57336C11.3764 3.17813 12.314 2.69007 13.1986 2.11586C14.2986 1.40086 15.4136 0.873365 16.5136 0.525865C17.6984 0.163088 18.9321 -0.0140105 20.1711 0.000864842ZM36.4261 7.45836C34.5338 7.36574 32.659 7.04938 30.8411 6.51586C29.0334 5.97524 27.3114 5.18154 25.7261 4.15836C24.9036 3.61988 24.0111 3.19677 23.0736 2.90086C22.1366 2.61826 21.1623 2.47836 20.1836 2.48586C19.1976 2.47986 18.2162 2.6197 17.2711 2.90086C16.3325 3.18795 15.4413 3.61166 14.6261 4.15836C13.0375 5.18609 11.3112 5.98321 9.49861 6.52586C7.72694 7.04086 5.86944 7.35586 3.92611 7.47086V15.0134C3.92611 16.6684 4.14111 18.2584 4.57111 19.7834C5.00955 21.2975 5.61318 22.7587 6.37111 24.1409C7.13842 25.5372 8.04288 26.8537 9.07111 28.0709C10.1136 29.2984 11.2261 30.4409 12.4261 31.5259C13.6261 32.6109 14.8836 33.6159 16.1986 34.5409C17.5269 35.4675 18.8553 36.315 20.1836 37.0834C21.5435 36.2931 22.8689 35.4448 24.1561 34.5409C25.4814 33.6184 26.7457 32.6113 27.9411 31.5259C29.1411 30.4409 30.2561 29.2984 31.2986 28.0709C32.3268 26.8537 33.2313 25.5372 33.9986 24.1409C34.7527 22.7603 35.3474 21.2984 35.7711 19.7834C36.2146 18.2325 36.4352 16.6264 36.4261 15.0134V7.45836Z" fill="#23BB4E"/>
<path fill-rule="evenodd" clip-rule="evenodd" d="M29.4911 11.7731L28.3911 10.8281L27.3761 10.9156L16.4761 23.7856L12.7636 18.4856L11.7636 18.3156L10.6061 19.1431L10.4336 20.1431L15.2061 26.9581L15.7486 27.2581L16.8911 27.3281L17.4761 27.0731L29.5636 12.7856L29.4911 11.7731Z" fill="#23BB4E"/>
</svg>
