<svg width="1336" height="859" viewBox="0 0 1336 853" fill="none" xmlns="http://www.w3.org/2000/svg">
<g opacity="0.85">
<g opacity="0.2">
<path d="M1299.55 623.541H30.7539V634.906H1299.55V623.541Z" fill="#263238"/>
<path d="M897.643 440.587V0.5" stroke="#263238" stroke-linecap="round" stroke-linejoin="round"/>
<path d="M897.643 630.242V461.979" stroke="#263238" stroke-linecap="round" stroke-linejoin="round"/>
<path d="M569.275 124.543V4.42188" stroke="#263238" stroke-linecap="round" stroke-linejoin="round"/>
<path d="M569.275 630.246V145.939" stroke="#263238" stroke-linecap="round" stroke-linejoin="round"/>
<path d="M1226.66 96.0471V0.5" stroke="#263238" stroke-linecap="round" stroke-linejoin="round"/>
<path d="M1226.66 630.235V117.398" stroke="#263238" stroke-linecap="round" stroke-linejoin="round"/>
<path d="M240.25 630.239V4.42188" stroke="#263238" stroke-linecap="round" stroke-linejoin="round"/>
<path d="M1207.9 321.105H1268.16" stroke="#263238" stroke-linecap="round" stroke-linejoin="round"/>
<path d="M396.041 321.105H1198.21" stroke="#263238" stroke-linecap="round" stroke-linejoin="round"/>
<path d="M211.59 321.105H386.346" stroke="#263238" stroke-linecap="round" stroke-linejoin="round"/>
<path d="M775.792 207.289L771.277 212.016" stroke="#263238" stroke-width="0.5" stroke-linecap="round" stroke-linejoin="round"/>
<path d="M851.666 127.062L781.83 200.885" stroke="#263238" stroke-width="0.5" stroke-linecap="round" stroke-linejoin="round"/>
<path d="M860.873 132.055L804.934 191.193" stroke="#263238" stroke-width="0.5" stroke-linecap="round" stroke-linejoin="round"/>
<path d="M885.305 106.25L868.418 124.085" stroke="#263238" stroke-width="0.5" stroke-linecap="round" stroke-linejoin="round"/>
<path d="M330.232 207.289L325.736 212.016" stroke="#263238" stroke-width="0.5" stroke-linecap="round" stroke-linejoin="round"/>
<path d="M406.114 127.062L336.277 200.885" stroke="#263238" stroke-width="0.5" stroke-linecap="round" stroke-linejoin="round"/>
<path d="M415.312 132.055L359.373 191.193" stroke="#263238" stroke-width="0.5" stroke-linecap="round" stroke-linejoin="round"/>
<path d="M439.743 106.25L422.855 124.085" stroke="#263238" stroke-width="0.5" stroke-linecap="round" stroke-linejoin="round"/>
<path d="M1041.75 207.289L1037.26 212.016" stroke="#263238" stroke-width="0.5" stroke-linecap="round" stroke-linejoin="round"/>
<path d="M1117.62 127.062L1047.78 200.885" stroke="#263238" stroke-width="0.5" stroke-linecap="round" stroke-linejoin="round"/>
<path d="M1126.83 132.055L1070.89 191.193" stroke="#263238" stroke-width="0.5" stroke-linecap="round" stroke-linejoin="round"/>
<path d="M1151.26 106.25L1134.37 124.085" stroke="#263238" stroke-width="0.5" stroke-linecap="round" stroke-linejoin="round"/>
<path d="M487.965 472.871L356.189 612.169" stroke="#263238" stroke-width="0.5" stroke-linecap="round" stroke-linejoin="round"/>
<path d="M505.335 482.291L399.77 593.897" stroke="#263238" stroke-width="0.5" stroke-linecap="round" stroke-linejoin="round"/>
<path d="M551.457 433.549L519.578 467.242" stroke="#263238" stroke-width="0.5" stroke-linecap="round" stroke-linejoin="round"/>
<path d="M820.981 612.34L812.479 621.325" stroke="#263238" stroke-width="0.5" stroke-linecap="round" stroke-linejoin="round"/>
<path d="M964.172 461.012L832.396 600.309" stroke="#263238" stroke-width="0.5" stroke-linecap="round" stroke-linejoin="round"/>
<path d="M981.55 470.387L875.984 581.992" stroke="#263238" stroke-width="0.5" stroke-linecap="round" stroke-linejoin="round"/>
<path d="M1027.65 421.68L995.77 455.373" stroke="#263238" stroke-width="0.5" stroke-linecap="round" stroke-linejoin="round"/>
</g>
<path d="M442.494 479.549V459.209H411.221V479.598C402.694 482.62 395.444 487.68 390.394 494.133C385.343 500.586 382.721 508.14 382.861 515.834C382.861 516.126 382.861 516.434 382.861 516.726H470.816C470.816 516.434 470.816 516.126 470.816 515.834C470.973 508.135 468.363 500.572 463.319 494.109C458.275 487.647 451.025 482.578 442.494 479.549Z" fill="#263238" stroke="#263238" stroke-linecap="round" stroke-linejoin="round"/>
<path d="M426.855 459.161V410.5" stroke="#263238" stroke-linecap="round" stroke-linejoin="round"/>
<path d="M1060.13 479.549V459.209H1028.86V479.598C1020.33 482.62 1013.08 487.68 1008.03 494.133C1002.98 500.586 1000.36 508.14 1000.5 515.834C1000.5 516.126 1000.5 516.434 1000.5 516.726H1088.45C1088.45 516.434 1088.45 516.126 1088.45 515.834C1088.61 508.135 1086 500.572 1080.96 494.109C1075.91 487.647 1068.66 482.578 1060.13 479.549Z" fill="#263238" stroke="#263238" stroke-linecap="round" stroke-linejoin="round"/>
<path d="M1044.49 459.161V410.5" stroke="#263238" stroke-linecap="round" stroke-linejoin="round"/>
<path d="M0.5 851.994H1325.69" stroke="#263238" stroke-linecap="round" stroke-linejoin="round"/>
<path d="M1249.8 616.381L1272.2 794.463" stroke="#263238" stroke-width="2" stroke-miterlimit="10"/>
<path d="M1268.58 760.381L1258.43 751.477" stroke="#263238" stroke-width="2" stroke-miterlimit="10"/>
<path d="M1261.51 754.153C1261.49 752.79 1261.12 751.447 1260.43 750.213C1259.73 748.979 1258.72 747.883 1257.47 747C1254.87 745.07 1241.15 740.285 1239.88 744.292C1238.43 748.655 1252.46 757.219 1261.51 754.153Z" fill="#23BB4E" stroke="#263238" stroke-miterlimit="10"/>
<path d="M1261.52 754.152L1248.46 747.389" stroke="#263238" stroke-width="0.5" stroke-miterlimit="10"/>
<path d="M1271.13 780.623L1260.97 771.734" stroke="#263238" stroke-width="2" stroke-miterlimit="10"/>
<path d="M1264.06 774.4C1264.04 773.04 1263.67 771.698 1262.97 770.467C1262.27 769.236 1261.26 768.143 1260.01 767.263C1257.41 765.333 1243.69 760.532 1242.42 764.554C1240.98 768.902 1255.03 777.433 1264.06 774.4Z" fill="#23BB4E" stroke="#263238" stroke-miterlimit="10"/>
<path d="M1264.05 774.396L1251 767.648" stroke="#263238" stroke-width="0.5" stroke-miterlimit="10"/>
<path d="M1262.36 710.96L1252.22 702.055" stroke="#263238" stroke-width="2" stroke-miterlimit="10"/>
<path d="M1255.32 704.732C1255.3 703.369 1254.93 702.025 1254.23 700.791C1253.53 699.557 1252.52 698.462 1251.27 697.578C1248.67 695.648 1234.95 690.863 1233.68 694.87C1232.21 699.233 1246.25 707.797 1255.32 704.732Z" fill="#23BB4E" stroke="#263238" stroke-miterlimit="10"/>
<path d="M1255.31 704.734L1242.25 697.986" stroke="#263238" stroke-width="0.5" stroke-miterlimit="10"/>
<path d="M1264.92 731.219L1254.76 722.314" stroke="#263238" stroke-width="2" stroke-miterlimit="10"/>
<path d="M1257.85 724.971C1257.83 723.611 1257.46 722.269 1256.76 721.038C1256.06 719.807 1255.05 718.714 1253.8 717.834C1251.2 715.904 1237.48 711.119 1236.21 715.126C1234.76 719.473 1248.82 728.037 1257.85 724.971Z" fill="#23BB4E" stroke="#263238" stroke-miterlimit="10"/>
<path d="M1257.85 724.974L1244.79 718.227" stroke="#263238" stroke-width="0.5" stroke-miterlimit="10"/>
<path d="M1258.24 678.063L1248.07 669.158" stroke="#263238" stroke-width="2" stroke-miterlimit="10"/>
<path d="M1251.17 671.835C1251.15 670.472 1250.78 669.128 1250.08 667.894C1249.38 666.661 1248.37 665.565 1247.12 664.682C1244.52 662.752 1230.8 657.967 1229.53 661.973C1228.08 666.336 1242.14 674.884 1251.17 671.835Z" fill="#23BB4E" stroke="#263238" stroke-miterlimit="10"/>
<path d="M1251.16 671.834L1238.1 665.07" stroke="#263238" stroke-width="0.5" stroke-miterlimit="10"/>
<path d="M1254.08 645.026L1243.93 636.121" stroke="#263238" stroke-width="2" stroke-miterlimit="10"/>
<path d="M1247.02 638.782C1246.99 637.422 1246.62 636.083 1245.92 634.852C1245.22 633.622 1244.22 632.528 1242.97 631.645C1240.35 629.715 1226.65 624.93 1225.38 628.936C1223.93 633.283 1237.97 641.847 1247.02 638.782Z" fill="#23BB4E" stroke="#263238" stroke-miterlimit="10"/>
<path d="M1247.02 638.781L1233.96 632.033" stroke="#263238" stroke-width="0.5" stroke-miterlimit="10"/>
<path d="M1266.88 748.397L1274.6 737.951" stroke="#263238" stroke-width="2" stroke-miterlimit="10"/>
<path d="M1272.26 741.079C1271.93 739.746 1271.96 738.371 1272.34 737.047C1272.71 735.723 1273.42 734.482 1274.43 733.407C1276.5 731.071 1288.71 724.032 1291 727.73C1293.46 731.752 1281.85 742.539 1272.26 741.079Z" fill="#23BB4E" stroke="#263238" stroke-miterlimit="10"/>
<path d="M1272.25 741.078L1284 731.768" stroke="#263238" stroke-width="0.5" stroke-miterlimit="10"/>
<path d="M1260.18 695.098L1267.9 684.652" stroke="#263238" stroke-width="2" stroke-miterlimit="10"/>
<path d="M1265.54 687.798C1265.22 686.463 1265.24 685.085 1265.62 683.759C1265.99 682.432 1266.71 681.188 1267.71 680.11C1269.78 677.774 1282 670.735 1284.28 674.433C1286.75 678.488 1275.14 689.242 1265.54 687.798Z" fill="#23BB4E" stroke="#263238" stroke-miterlimit="10"/>
<path d="M1265.56 687.797L1277.3 678.471" stroke="#263238" stroke-width="0.5" stroke-miterlimit="10"/>
<path d="M1257.24 671.674L1264.94 661.229" stroke="#263238" stroke-width="2" stroke-miterlimit="10"/>
<path d="M1262.6 664.374C1262.28 663.039 1262.31 661.661 1262.68 660.335C1263.06 659.009 1263.77 657.764 1264.77 656.686C1266.85 654.35 1279.08 647.311 1281.35 651.009C1283.81 655.032 1272.22 665.818 1262.6 664.374Z" fill="#23BB4E" stroke="#263238" stroke-miterlimit="10"/>
<path d="M1262.6 664.377L1274.36 655.051" stroke="#263238" stroke-width="0.5" stroke-miterlimit="10"/>
<path d="M1252.92 637.354L1260.64 626.908" stroke="#263238" stroke-width="2" stroke-miterlimit="10"/>
<path d="M1258.27 630.039C1257.95 628.703 1257.98 627.325 1258.36 625.999C1258.73 624.673 1259.44 623.429 1260.44 622.35C1262.52 620.014 1274.75 612.975 1277.02 616.673C1279.48 620.712 1267.89 631.45 1258.27 630.039Z" fill="#23BB4E" stroke="#263238" stroke-miterlimit="10"/>
<path d="M1258.28 630.041L1270.04 620.715" stroke="#263238" stroke-width="0.5" stroke-miterlimit="10"/>
<path d="M1249.62 615.387C1249.3 614.052 1249.32 612.674 1249.7 611.348C1250.07 610.022 1250.79 608.778 1251.79 607.699C1253.86 605.363 1266.08 598.34 1268.36 602.038C1270.83 606.061 1259.23 616.847 1249.62 615.387Z" fill="#23BB4E" stroke="#263238" stroke-miterlimit="10"/>
<path d="M1249.62 615.393L1261.37 606.066" stroke="#263238" stroke-width="0.5" stroke-miterlimit="10"/>
<path d="M1250.3 615.799C1248.67 615.923 1247.02 615.756 1245.47 615.308C1243.92 614.861 1242.5 614.143 1241.31 613.204C1238.73 611.241 1231.54 600.422 1236.25 598.93C1241.33 597.389 1253.04 608.013 1250.3 615.799Z" fill="#23BB4E" stroke="#263238" stroke-miterlimit="10"/>
<path d="M1250.31 615.797L1240.36 605.107" stroke="#263238" stroke-width="0.5" stroke-miterlimit="10"/>
<path d="M1308.85 640.908L1286.59 819.006" stroke="#263238" stroke-width="2" stroke-miterlimit="10"/>
<path d="M1291.52 785.021L1283.8 774.592" stroke="#263238" stroke-width="2" stroke-miterlimit="10"/>
<path d="M1286.16 777.725C1286.48 776.389 1286.45 775.012 1286.07 773.686C1285.7 772.36 1284.99 771.115 1283.99 770.037C1281.91 767.701 1269.68 760.678 1267.41 764.376C1264.95 768.399 1276.56 779.185 1286.16 777.725Z" fill="#23BB4E" stroke="#263238" stroke-miterlimit="10"/>
<path d="M1286.14 777.721L1275.04 768.881" stroke="#263238" stroke-width="0.5" stroke-miterlimit="10"/>
<path d="M1297.7 735.598L1289.98 725.168" stroke="#263238" stroke-width="2" stroke-miterlimit="10"/>
<path d="M1292.33 728.297C1292.65 726.962 1292.62 725.584 1292.25 724.258C1291.87 722.932 1291.16 721.688 1290.16 720.609C1288.09 718.273 1275.85 711.25 1273.59 714.948C1271.12 719.036 1282.69 729.757 1292.33 728.297Z" fill="#23BB4E" stroke="#263238" stroke-miterlimit="10"/>
<path d="M1292.32 728.299L1281.22 719.459" stroke="#263238" stroke-width="0.5" stroke-miterlimit="10"/>
<path d="M1295.18 755.856L1287.44 745.41" stroke="#263238" stroke-width="2" stroke-miterlimit="10"/>
<path d="M1289.8 748.557C1290.11 747.22 1290.08 745.843 1289.7 744.517C1289.32 743.191 1288.61 741.947 1287.61 740.869C1285.54 738.533 1273.3 731.51 1271.03 735.208C1268.57 739.231 1280.18 750.001 1289.8 748.557Z" fill="#23BB4E" stroke="#263238" stroke-miterlimit="10"/>
<path d="M1289.8 748.559L1278.69 739.719" stroke="#263238" stroke-width="0.5" stroke-miterlimit="10"/>
<path d="M1301.82 702.7L1294.08 692.254" stroke="#263238" stroke-width="2" stroke-miterlimit="10"/>
<path d="M1296.37 695.401C1296.69 694.064 1296.65 692.686 1296.28 691.361C1295.9 690.035 1295.18 688.791 1294.18 687.713C1292.11 685.377 1279.87 678.354 1277.61 682.052C1275.22 686.074 1286.83 696.845 1296.37 695.401Z" fill="#23BB4E" stroke="#263238" stroke-miterlimit="10"/>
<path d="M1296.45 695.406L1285.35 686.566" stroke="#263238" stroke-width="0.5" stroke-miterlimit="10"/>
<path d="M1305.95 669.663L1298.23 659.217" stroke="#263238" stroke-width="2" stroke-miterlimit="10"/>
<path d="M1300.58 662.348C1300.9 661.015 1300.87 659.64 1300.5 658.317C1300.13 656.993 1299.41 655.752 1298.41 654.676C1296.34 652.341 1284.1 645.301 1281.83 648.999C1279.37 653.038 1290.98 663.889 1300.58 662.348Z" fill="#23BB4E" stroke="#263238" stroke-miterlimit="10"/>
<path d="M1300.58 662.346L1289.48 653.506" stroke="#263238" stroke-width="0.5" stroke-miterlimit="10"/>
<path d="M1292.84 773.018L1302.98 764.113" stroke="#263238" stroke-width="2" stroke-miterlimit="10"/>
<path d="M1299.89 766.771C1299.91 765.409 1300.28 764.066 1300.97 762.833C1301.67 761.599 1302.67 760.503 1303.92 759.618C1306.54 757.687 1320.24 752.902 1321.51 756.909C1322.97 761.207 1308.94 769.836 1299.89 766.771Z" fill="#23BB4E" stroke="#263238" stroke-miterlimit="10"/>
<path d="M1299.89 766.773L1313.71 759.652" stroke="#263238" stroke-width="0.5" stroke-miterlimit="10"/>
<path d="M1299.5 719.715L1309.64 710.811" stroke="#263238" stroke-width="2" stroke-miterlimit="10"/>
<path d="M1306.55 713.474C1306.57 712.112 1306.94 710.77 1307.63 709.537C1308.33 708.303 1309.33 707.207 1310.58 706.321C1313.2 704.39 1326.9 699.605 1328.17 703.612C1329.59 707.975 1315.6 716.539 1306.55 713.474Z" fill="#23BB4E" stroke="#263238" stroke-miterlimit="10"/>
<path d="M1306.55 713.476L1320.37 706.355" stroke="#263238" stroke-width="0.5" stroke-miterlimit="10"/>
<path d="M1302.4 696.294L1312.55 687.389" stroke="#263238" stroke-width="2" stroke-miterlimit="10"/>
<path d="M1309.48 690.052C1309.5 688.69 1309.87 687.348 1310.56 686.114C1311.26 684.88 1312.26 683.784 1313.51 682.899C1316.13 680.969 1329.83 676.184 1331.1 680.19C1332.55 684.553 1318.51 693.085 1309.48 690.052Z" fill="#23BB4E" stroke="#263238" stroke-miterlimit="10"/>
<path d="M1309.48 690.054L1323.3 682.934" stroke="#263238" stroke-width="0.5" stroke-miterlimit="10"/>
<path d="M1306.71 661.958L1316.86 653.053" stroke="#263238" stroke-width="2" stroke-miterlimit="10"/>
<path d="M1313.76 655.777C1313.78 654.414 1314.15 653.07 1314.85 651.837C1315.55 650.603 1316.56 649.507 1317.81 648.623C1320.41 646.693 1334.13 641.908 1335.4 645.915C1336.84 650.213 1322.81 658.777 1313.76 655.777Z" fill="#23BB4E" stroke="#263238" stroke-miterlimit="10"/>
<path d="M1313.76 655.712L1327.58 648.592" stroke="#263238" stroke-width="0.5" stroke-miterlimit="10"/>
<path d="M1308.92 639.9C1308.94 638.54 1309.31 637.198 1310.01 635.967C1310.71 634.736 1311.72 633.643 1312.97 632.763C1315.57 630.833 1329.29 626.032 1330.56 630.038C1332 634.402 1317.97 642.966 1308.92 639.9Z" fill="#23BB4E" stroke="#263238" stroke-miterlimit="10"/>
<path d="M1308.92 639.899L1322.74 632.795" stroke="#263238" stroke-width="0.5" stroke-miterlimit="10"/>
<path d="M1309.48 640.421C1307.85 640.258 1306.28 639.809 1304.88 639.104C1303.48 638.4 1302.28 637.455 1301.35 636.333C1299.39 633.981 1295 622.173 1299.94 621.508C1305.3 620.794 1314.11 633.284 1309.48 640.421Z" fill="#23BB4E" stroke="#263238" stroke-miterlimit="10"/>
<path d="M1309.48 640.42L1302.4 628.271" stroke="#263238" stroke-width="0.5" stroke-miterlimit="10"/>
<path d="M1283.35 568.385V793.586" stroke="#263238" stroke-width="2" stroke-miterlimit="10"/>
<path d="M1283.57 759.736L1274.58 750.004" stroke="#263238" stroke-width="2" stroke-miterlimit="10"/>
<path d="M1277.32 752.924C1277.47 751.568 1277.26 750.2 1276.72 748.913C1276.18 747.626 1275.32 746.45 1274.19 745.463C1271.84 743.322 1258.81 737.353 1257.01 741.262C1255.05 745.463 1267.93 755.195 1277.32 752.924Z" fill="#23BB4E" stroke="#263238" stroke-miterlimit="10"/>
<path d="M1277.32 752.918L1265.18 745.084" stroke="#263238" stroke-width="0.5" stroke-miterlimit="10"/>
<path d="M1283.57 717.418L1274.58 707.686" stroke="#263238" stroke-width="2" stroke-miterlimit="10"/>
<path d="M1277.32 710.604C1277.47 709.247 1277.26 707.879 1276.72 706.592C1276.18 705.305 1275.32 704.129 1274.19 703.142C1271.84 701.001 1258.81 695.032 1257.01 698.925C1255.05 703.142 1267.93 712.874 1277.32 710.604Z" fill="#23BB4E" stroke="#263238" stroke-miterlimit="10"/>
<path d="M1277.32 710.602L1265.18 702.768" stroke="#263238" stroke-width="0.5" stroke-miterlimit="10"/>
<path d="M1283.57 667.716L1274.58 658" stroke="#263238" stroke-width="2" stroke-miterlimit="10"/>
<path d="M1277.32 660.916C1277.47 659.559 1277.26 658.191 1276.72 656.905C1276.18 655.618 1275.32 654.441 1274.19 653.455C1271.84 651.314 1258.81 645.345 1257.01 649.237C1255.05 653.455 1267.93 663.171 1277.32 660.916Z" fill="#23BB4E" stroke="#263238" stroke-miterlimit="10"/>
<path d="M1277.32 660.923L1265.18 653.072" stroke="#263238" stroke-width="0.5" stroke-miterlimit="10"/>
<path d="M1283.57 634.642L1274.58 624.91" stroke="#263238" stroke-width="2" stroke-miterlimit="10"/>
<path d="M1277.32 627.832C1277.47 626.477 1277.27 625.112 1276.73 623.827C1276.19 622.543 1275.32 621.37 1274.19 620.387C1271.84 618.229 1258.81 612.276 1257.01 616.169C1255.05 620.387 1267.93 630.102 1277.32 627.832Z" fill="#23BB4E" stroke="#263238" stroke-miterlimit="10"/>
<path d="M1277.32 627.83L1265.18 619.996" stroke="#263238" stroke-width="0.5" stroke-miterlimit="10"/>
<path d="M1283.57 601.425L1274.58 591.693" stroke="#263238" stroke-width="2" stroke-miterlimit="10"/>
<path d="M1277.32 594.614C1277.47 593.257 1277.26 591.889 1276.72 590.602C1276.18 589.316 1275.32 588.139 1274.19 587.153C1271.84 585.012 1258.81 579.043 1257.01 582.952C1255.05 587.153 1267.93 596.885 1277.32 594.614Z" fill="#23BB4E" stroke="#263238" stroke-miterlimit="10"/>
<path d="M1277.32 594.614L1265.18 586.779" stroke="#263238" stroke-width="0.5" stroke-miterlimit="10"/>
<path d="M1283.36 772.66L1292.33 762.928" stroke="#263238" stroke-width="2" stroke-miterlimit="10"/>
<path d="M1289.61 765.85C1289.46 764.493 1289.66 763.125 1290.2 761.838C1290.74 760.551 1291.6 759.375 1292.73 758.388C1295.1 756.247 1308.14 750.278 1309.93 754.171C1311.89 758.388 1298.99 768.12 1289.61 765.85Z" fill="#23BB4E" stroke="#263238" stroke-miterlimit="10"/>
<path d="M1289.61 765.85L1302.47 757.594" stroke="#263238" stroke-width="0.5" stroke-miterlimit="10"/>
<path d="M1283.36 705.349L1292.33 695.617" stroke="#263238" stroke-width="2" stroke-miterlimit="10"/>
<path d="M1289.61 698.536C1289.46 697.179 1289.66 695.811 1290.2 694.524C1290.74 693.237 1291.6 692.061 1292.73 691.074C1295.1 688.933 1308.14 682.964 1309.93 686.873C1311.89 691.074 1298.99 700.807 1289.61 698.536Z" fill="#23BB4E" stroke="#263238" stroke-miterlimit="10"/>
<path d="M1289.61 698.533L1302.47 690.277" stroke="#263238" stroke-width="0.5" stroke-miterlimit="10"/>
<path d="M1283.36 672.127L1292.33 662.395" stroke="#263238" stroke-width="2" stroke-miterlimit="10"/>
<path d="M1289.61 665.316C1289.46 663.96 1289.66 662.592 1290.2 661.305C1290.74 660.018 1291.6 658.842 1292.73 657.855C1295.1 655.714 1308.14 649.745 1309.93 653.638C1311.89 657.855 1298.99 667.587 1289.61 665.316Z" fill="#23BB4E" stroke="#263238" stroke-miterlimit="10"/>
<path d="M1289.61 665.317L1302.47 657.061" stroke="#263238" stroke-width="0.5" stroke-miterlimit="10"/>
<path d="M1283.36 628.204L1292.33 618.488" stroke="#263238" stroke-width="2" stroke-miterlimit="10"/>
<path d="M1289.61 621.406C1289.46 620.049 1289.66 618.682 1290.2 617.395C1290.74 616.108 1291.6 614.932 1292.73 613.945C1295.1 611.804 1308.14 605.835 1309.93 609.728C1311.89 613.945 1298.99 623.677 1289.61 621.406Z" fill="#23BB4E" stroke="#263238" stroke-miterlimit="10"/>
<path d="M1289.61 621.409L1302.47 613.137" stroke="#263238" stroke-width="0.5" stroke-miterlimit="10"/>
<path d="M1283.36 593.689L1292.33 583.973" stroke="#263238" stroke-width="2" stroke-miterlimit="10"/>
<path d="M1289.61 586.875C1289.46 585.52 1289.66 584.155 1290.2 582.871C1290.74 581.587 1291.6 580.413 1292.73 579.429C1295.1 577.272 1308.14 571.319 1309.93 575.212C1311.89 579.429 1298.99 589.145 1289.61 586.875Z" fill="#23BB4E" stroke="#263238" stroke-miterlimit="10"/>
<path d="M1289.61 586.873L1302.47 578.617" stroke="#263238" stroke-width="0.5" stroke-miterlimit="10"/>
<path d="M1282.82 571.562C1282.67 570.208 1282.88 568.842 1283.41 567.558C1283.95 566.274 1284.82 565.1 1285.95 564.117C1288.3 561.976 1301.33 556.007 1303.13 559.9C1305.09 564.117 1292.21 573.833 1282.82 571.562Z" fill="#23BB4E" stroke="#263238" stroke-miterlimit="10"/>
<path d="M1282.82 571.567L1295.68 563.311" stroke="#263238" stroke-width="0.5" stroke-miterlimit="10"/>
<path d="M1283.44 572.034C1281.8 572.013 1280.19 571.703 1278.71 571.125C1277.22 570.546 1275.91 569.711 1274.84 568.676C1272.52 566.503 1266.75 555.116 1271.6 554.078C1276.82 552.878 1287.16 564.524 1283.44 572.034Z" fill="#23BB4E" stroke="#263238" stroke-miterlimit="10"/>
<path d="M1283.46 572.033L1274.92 560.549" stroke="#263238" stroke-width="0.5" stroke-miterlimit="10"/>
<path d="M1294.52 852.011H1265.78L1262.19 791.77H1298.11L1294.52 852.011Z" fill="#263238" stroke="#263238" stroke-miterlimit="10"/>
<path d="M205.733 470.818H47.4141V851.993H205.733V470.818Z" fill="white" stroke="#263238" stroke-linecap="round" stroke-linejoin="round"/>
<path d="M190.092 503.26H61.0918V568.141H190.092V503.26Z" fill="white" stroke="#263238" stroke-linecap="round" stroke-linejoin="round"/>
<path d="M141.232 524.35H109.959V547.058H141.232V524.35Z" fill="#263238" stroke="#263238" stroke-linecap="round" stroke-linejoin="round"/>
<path d="M135.657 528.416H115.545V543.014H135.657V528.416Z" fill="white" stroke="#263238" stroke-linecap="round" stroke-linejoin="round"/>
<path d="M190.092 579.396H61.0918V644.277H190.092V579.396Z" fill="white" stroke="#263238" stroke-linecap="round" stroke-linejoin="round"/>
<path d="M141.232 600.482H109.959V623.191H141.232V600.482Z" fill="#263238" stroke="#263238" stroke-linecap="round" stroke-linejoin="round"/>
<path d="M135.657 604.543H115.545V619.141H135.657V604.543Z" fill="white" stroke="#263238" stroke-linecap="round" stroke-linejoin="round"/>
<path d="M190.092 655.535H61.0918V720.416H190.092V655.535Z" fill="white" stroke="#263238" stroke-linecap="round" stroke-linejoin="round"/>
<path d="M141.232 676.619H109.959V699.327H141.232V676.619Z" fill="#263238" stroke="#263238" stroke-linecap="round" stroke-linejoin="round"/>
<path d="M135.657 680.678H115.545V695.276H135.657V680.678Z" fill="white" stroke="#263238" stroke-linecap="round" stroke-linejoin="round"/>
<path d="M190.092 731.656H61.0918V796.537H190.092V731.656Z" fill="white" stroke="#263238" stroke-linecap="round" stroke-linejoin="round"/>
<path d="M141.232 752.74H109.959V775.449H141.232V752.74Z" fill="#263238" stroke="#263238" stroke-linecap="round" stroke-linejoin="round"/>
<path d="M135.657 756.801H115.545V771.399H135.657V756.801Z" fill="white" stroke="#263238" stroke-linecap="round" stroke-linejoin="round"/>
<path d="M129.818 420.504H58.2227V470.251H129.818V420.504Z" stroke="#263238" stroke-linecap="round" stroke-linejoin="round"/>
<path d="M129.837 450.203H95.6914L80.7 421.185L80.5827 420.504H58.2227V470.235H129.837V450.203Z" fill="#263238" stroke="#263238" stroke-linecap="round" stroke-linejoin="round"/>
<path d="M188.944 445.367H163.965V470.93H188.944V445.367Z" fill="#263238" stroke="#263238" stroke-linecap="round" stroke-linejoin="round"/>
<path d="M175.823 430.643C175.823 430.643 186.436 426.02 188.938 417.667C191.44 409.313 178.951 393.482 178.951 393.482C178.951 393.482 166.461 405.226 166.461 413.531C166.461 421.835 175.823 430.643 175.823 430.643Z" fill="#23BB4E" stroke="#263238" stroke-linecap="round" stroke-linejoin="round"/>
<path d="M169.389 440.795C169.389 440.795 171.344 429.441 163.956 425.337C156.568 421.233 138.977 423.261 138.977 423.261C138.977 423.261 142.299 439.838 151.466 441.216C157.419 442.018 163.501 441.874 169.389 440.795Z" fill="#23BB4E" stroke="#263238" stroke-linecap="round" stroke-linejoin="round"/>
<path d="M188.139 437.08C188.023 434.413 188.554 431.755 189.698 429.261C190.843 426.768 192.579 424.49 194.804 422.563C202.289 416.351 218.121 419.806 218.121 419.806C218.121 419.806 214.779 431.549 205.632 435.701C202.987 436.917 200.068 437.667 197.058 437.904C194.048 438.141 191.012 437.861 188.139 437.08Z" fill="#23BB4E" stroke="#263238" stroke-linecap="round" stroke-linejoin="round"/>
<path d="M173.948 446.066L162.299 434.307" stroke="#263238" stroke-linecap="round" stroke-linejoin="round"/>
<path d="M176.453 409.441V448.824L197.269 428.792" stroke="#263238" stroke-linecap="round" stroke-linejoin="round"/>
<path d="M1145.38 607.445L1136.58 607.039C1136.58 607.039 1114.11 660.971 1111.17 681.247C1108.24 701.522 1109.22 718.553 1110.69 724.23C1112.15 729.907 1119.97 740.856 1119.97 740.856L1129.74 742.883C1129.74 742.883 1119.48 720.986 1118.99 714.903C1118.5 708.821 1119.77 684.685 1120.46 681.652C1125.83 658.133 1145.38 607.445 1145.38 607.445Z" fill="white" stroke="#263238" stroke-linecap="round" stroke-linejoin="round"/>
<path d="M1066.71 814.252C1066.71 814.252 1018.33 834.527 1017.35 839.069C1016.81 842.433 1016.81 845.843 1017.35 849.206L1019.05 847.779L1023.71 838.663L1067.2 821.632L1066.71 814.252Z" fill="white" stroke="#263238" stroke-linecap="round" stroke-linejoin="round"/>
<path d="M1020.78 851.962C1023.75 851.962 1026.16 849.965 1026.16 847.502C1026.16 845.038 1023.75 843.041 1020.78 843.041C1017.81 843.041 1015.41 845.038 1015.41 847.502C1015.41 849.965 1017.81 851.962 1020.78 851.962Z" fill="#263238" stroke="#263238" stroke-linecap="round" stroke-linejoin="round"/>
<path d="M1080.88 814.252C1080.88 814.252 1129.25 834.527 1130.23 839.069C1130.78 842.433 1130.78 845.843 1130.23 849.206L1128.51 847.779L1123.88 838.663L1080.39 821.551L1080.88 814.252Z" fill="white" stroke="#263238" stroke-linecap="round" stroke-linejoin="round"/>
<path d="M1126.81 851.962C1129.78 851.962 1132.19 849.965 1132.19 847.502C1132.19 845.038 1129.78 843.041 1126.81 843.041C1123.84 843.041 1121.44 845.038 1121.44 847.502C1121.44 849.965 1123.84 851.962 1126.81 851.962Z" fill="#263238" stroke="#263238" stroke-linecap="round" stroke-linejoin="round"/>
<path d="M1076.97 748.152H1069.15V818.71H1076.97V748.152Z" fill="white" stroke="#263238" stroke-linecap="round" stroke-linejoin="round"/>
<path d="M1084.79 755.045H1061.83V768.021H1084.79V755.045Z" fill="#263238" stroke="#263238" stroke-linecap="round" stroke-linejoin="round"/>
<path d="M1127.87 741.992C1110.96 740.516 1056.43 736.591 1007.56 741.992C1007.13 742.03 1006.72 742.173 1006.39 742.402C1006.05 742.632 1005.8 742.938 1005.67 743.283C1005.54 743.628 1005.54 743.997 1005.66 744.344C1005.78 744.691 1006.02 745.001 1006.35 745.236C1011.55 749.307 1025.9 756.704 1063.29 758.731C1101.85 760.824 1121.55 751.01 1129.22 745.755C1129.64 745.504 1129.96 745.149 1130.13 744.74C1130.3 744.331 1130.31 743.889 1130.16 743.474C1130.01 743.06 1129.71 742.695 1129.3 742.429C1128.89 742.163 1128.39 742.01 1127.87 741.992Z" fill="white" stroke="#263238" stroke-linecap="round" stroke-linejoin="round"/>
<path d="M1006.32 745.17C1006.72 745.489 1007.25 745.664 1007.8 745.657H1128.99C1129.36 745.392 1129.64 745.04 1129.78 744.646C1129.92 744.252 1129.92 743.832 1129.77 743.44C1129.62 743.047 1129.34 742.699 1128.96 742.438C1128.58 742.177 1128.11 742.016 1127.62 741.975C1110.67 740.515 1056.18 736.589 1007.31 741.975C1006.91 742.047 1006.54 742.212 1006.24 742.449C1005.95 742.686 1005.74 742.987 1005.63 743.318C1005.53 743.649 1005.54 743.997 1005.66 744.324C1005.78 744.651 1006.01 744.944 1006.32 745.17Z" fill="#23BB4E" stroke="#263238" stroke-linecap="round" stroke-linejoin="round"/>
<path d="M1082.35 807.76H1064.27V823.574H1082.35V807.76Z" fill="#263238" stroke="#263238" stroke-linecap="round" stroke-linejoin="round"/>
<path d="M1074.06 815.664H1071.36V851.965H1074.06V815.664Z" fill="white" stroke="#263238" stroke-linecap="round" stroke-linejoin="round"/>
<path d="M1075.04 842.488H1070.31V851.993H1075.04V842.488Z" fill="#263238" stroke="#263238" stroke-linecap="round" stroke-linejoin="round"/>
<path d="M1091.63 745.719H1080.88L1074.04 691.381H1081.37L1091.63 745.719Z" fill="white" stroke="#263238" stroke-linecap="round" stroke-linejoin="round"/>
<path d="M1110.2 695.032H1036.42C1036.42 695.032 1041.79 686.921 1045.21 686.11C1048.63 685.299 1104.34 686.11 1104.34 686.11C1104.34 686.11 1110.2 687.732 1110.2 695.032Z" fill="#23BB4E" stroke="#263238" stroke-linecap="round" stroke-linejoin="round"/>
<path d="M1036.42 695.033H1110.2C1110.19 694.355 1110.14 693.678 1110.02 693.006H1037.86C1036.98 694.174 1036.42 695.033 1036.42 695.033Z" fill="white" stroke="#263238" stroke-linecap="round" stroke-linejoin="round"/>
<path d="M762.994 604.604H663.312C661.716 604.605 660.137 604.872 658.667 605.388C657.197 605.904 655.866 606.659 654.754 607.608C653.641 608.557 652.768 609.682 652.187 610.915C651.606 612.149 651.328 613.466 651.369 614.79L654.946 719.086L651.037 742.119H775.523L769.659 719.086L774.995 614.936C775.064 613.595 774.804 612.257 774.231 611.002C773.658 609.747 772.784 608.602 771.662 607.636C770.54 606.67 769.193 605.903 767.703 605.382C766.213 604.861 764.611 604.596 762.994 604.604Z" fill="white" stroke="#263238" stroke-linecap="round" stroke-linejoin="round"/>
<path d="M758.434 610.881H667.801C666.311 610.909 664.844 611.186 663.485 611.695C662.127 612.203 660.906 612.933 659.894 613.841C658.882 614.748 658.1 615.816 657.595 616.979C657.09 618.142 656.872 619.378 656.953 620.613L660.178 719.556L656.641 741.421H769.751L764.434 719.556L769.281 620.694C769.374 619.453 769.164 618.21 768.664 617.038C768.164 615.866 767.384 614.79 766.372 613.874C765.359 612.958 764.134 612.22 762.77 611.706C761.406 611.192 759.931 610.911 758.434 610.881Z" fill="#23BB4E" stroke="#263238" stroke-linecap="round" stroke-linejoin="round"/>
<path d="M650.387 692.486L644.035 740.336H649.41L655.762 692.486H650.387Z" fill="white" stroke="#263238" stroke-linecap="round" stroke-linejoin="round"/>
<path d="M775.477 692.486L781.829 740.336H776.454L770.102 692.486H775.477Z" fill="white" stroke="#263238" stroke-linecap="round" stroke-linejoin="round"/>
<path d="M659.511 683.486H647.138C645.908 683.486 644.91 684.314 644.91 685.335V691.418C644.91 692.439 645.908 693.267 647.138 693.267H659.511C660.741 693.267 661.739 692.439 661.739 691.418V685.335C661.739 684.314 660.741 683.486 659.511 683.486Z" fill="white" stroke="#263238" stroke-linecap="round" stroke-linejoin="round"/>
<path d="M659.511 683.486H647.119C646.827 683.486 646.538 683.534 646.269 683.627C646 683.721 645.755 683.857 645.55 684.029C645.345 684.201 645.183 684.405 645.073 684.629C644.963 684.853 644.908 685.093 644.91 685.335V690.883H661.719V685.335C661.722 685.093 661.667 684.853 661.557 684.629C661.447 684.405 661.285 684.201 661.079 684.029C660.874 683.857 660.63 683.721 660.361 683.627C660.091 683.534 659.802 683.486 659.511 683.486Z" fill="#23BB4E" stroke="#263238" stroke-linecap="round" stroke-linejoin="round"/>
<path d="M779.071 683.486H766.699C765.468 683.486 764.471 684.314 764.471 685.335V691.418C764.471 692.439 765.468 693.267 766.699 693.267H779.071C780.302 693.267 781.299 692.439 781.299 691.418V685.335C781.299 684.314 780.302 683.486 779.071 683.486Z" fill="white" stroke="#263238" stroke-linecap="round" stroke-linejoin="round"/>
<path d="M779.069 683.486H766.677C766.086 683.486 765.52 683.681 765.102 684.028C764.684 684.375 764.449 684.845 764.449 685.335V690.883H781.278V685.335C781.278 684.848 781.046 684.38 780.632 684.034C780.219 683.687 779.657 683.491 779.069 683.486Z" fill="#23BB4E" stroke="#263238" stroke-linecap="round" stroke-linejoin="round"/>
<path d="M711.074 812.109C711.074 812.109 662.699 832.385 661.722 836.845C661.174 840.209 661.174 843.619 661.722 846.983L663.422 845.572L668.074 836.44L711.563 819.408L711.074 812.109Z" fill="white" stroke="#263238" stroke-linecap="round" stroke-linejoin="round"/>
<path d="M665.143 849.823C668.111 849.823 670.518 847.826 670.518 845.363C670.518 842.899 668.111 840.902 665.143 840.902C662.174 840.902 659.768 842.899 659.768 845.363C659.768 847.826 662.174 849.823 665.143 849.823Z" fill="#263238" stroke="#263238" stroke-linecap="round" stroke-linejoin="round"/>
<path d="M725.248 812.109C725.248 812.109 773.624 832.385 774.601 836.845C775.149 840.209 775.149 843.619 774.601 846.983L772.881 845.572L768.249 836.44L724.76 819.408L725.248 812.109Z" fill="white" stroke="#263238" stroke-linecap="round" stroke-linejoin="round"/>
<path d="M771.18 849.823C774.148 849.823 776.555 847.826 776.555 845.363C776.555 842.899 774.148 840.902 771.18 840.902C768.211 840.902 765.805 842.899 765.805 845.363C765.805 847.826 768.211 849.823 771.18 849.823Z" fill="#263238" stroke="#263238" stroke-linecap="round" stroke-linejoin="round"/>
<path d="M721.344 746.01H713.525V816.568H721.344V746.01Z" fill="white" stroke="#263238" stroke-linecap="round" stroke-linejoin="round"/>
<path d="M729.161 752.908H706.195V765.884H729.161V752.908Z" fill="#263238" stroke="#263238" stroke-linecap="round" stroke-linejoin="round"/>
<path d="M781.439 739.881C762.44 738.421 699.66 734.447 643.291 739.881C642.806 739.931 642.351 740.1 641.982 740.366C641.613 740.632 641.348 740.983 641.221 741.374C641.093 741.765 641.108 742.179 641.264 742.563C641.421 742.947 641.711 743.284 642.099 743.53C648.588 747.666 665.436 754.641 706.892 756.587C751.202 758.68 773.836 748.867 782.651 743.611C783.087 743.379 783.422 743.037 783.608 742.635C783.795 742.234 783.823 741.794 783.688 741.378C783.553 740.963 783.262 740.594 782.858 740.325C782.454 740.056 781.957 739.9 781.439 739.881Z" fill="white" stroke="#263238" stroke-linecap="round" stroke-linejoin="round"/>
<path d="M642.057 743.464L642.253 743.577H782.57H782.668C783.066 743.333 783.366 742.994 783.526 742.605C783.687 742.216 783.702 741.796 783.568 741.4C783.435 741.004 783.159 740.651 782.779 740.388C782.398 740.125 781.93 739.965 781.437 739.928C762.419 738.468 699.658 734.494 643.289 739.928C642.828 739.986 642.396 740.153 642.046 740.408C641.695 740.664 641.44 740.997 641.311 741.369C641.181 741.741 641.183 742.136 641.315 742.507C641.447 742.878 641.705 743.21 642.057 743.464Z" fill="#23BB4E" stroke="#263238" stroke-linecap="round" stroke-linejoin="round"/>
<path d="M726.705 805.623H708.625V821.438H726.705V805.623Z" fill="#263238" stroke="#263238" stroke-linecap="round" stroke-linejoin="round"/>
<path d="M718.418 813.533H715.721V849.834H718.418V813.533Z" fill="white" stroke="#263238" stroke-linecap="round" stroke-linejoin="round"/>
<path d="M719.404 840.365H714.674V849.87H719.404V840.365Z" fill="#263238" stroke="#263238" stroke-linecap="round" stroke-linejoin="round"/>
<path d="M705.212 578.812C705.212 578.812 692.879 580.175 692.879 581.538C692.879 582.9 687.953 585.966 687.953 585.966L692.058 612.21L716.294 600.629L737.247 612.891L738.068 587.328L725.754 578.812H705.212Z" fill="white" stroke="#263238" stroke-linecap="round" stroke-linejoin="round"/>
<path d="M697.811 571.986L696.58 589.715L714.249 611.191L729.866 589.715L728.224 572.668L697.811 571.986Z" fill="white" stroke="#263238" stroke-linecap="round" stroke-linejoin="round"/>
<path d="M708.355 572.344C708.355 572.344 716.037 574.582 721.021 571.971" stroke="#263238" stroke-linecap="round" stroke-linejoin="round"/>
<path d="M258.006 602.72L266.801 602.314C266.801 602.314 289.279 656.247 292.211 676.522C295.142 696.797 294.165 713.828 292.699 719.506C291.233 725.183 283.415 736.131 283.415 736.131L274.131 738.499C274.131 738.499 283.904 716.197 284.392 710.114C284.881 704.031 283.611 679.896 282.926 676.863C277.551 653.408 258.006 602.72 258.006 602.72Z" fill="white" stroke="#263238" stroke-linecap="round" stroke-linejoin="round"/>
<path d="M336.684 809.527C336.684 809.527 385.059 829.803 386.036 834.263C386.585 837.627 386.585 841.037 386.036 844.401L384.336 842.973L379.684 833.858L336.195 816.826L336.684 809.527Z" fill="white" stroke="#263238" stroke-linecap="round" stroke-linejoin="round"/>
<path d="M382.613 847.243C385.582 847.243 387.988 845.246 387.988 842.783C387.988 840.319 385.582 838.322 382.613 838.322C379.645 838.322 377.238 840.319 377.238 842.783C377.238 845.246 379.645 847.243 382.613 847.243Z" fill="#263238" stroke="#263238" stroke-linecap="round" stroke-linejoin="round"/>
<path d="M322.506 809.527C322.506 809.527 274.131 829.803 273.153 834.198C272.605 837.562 272.605 840.972 273.153 844.336L274.873 842.909L279.506 833.793L322.994 816.826L322.506 809.527Z" fill="white" stroke="#263238" stroke-linecap="round" stroke-linejoin="round"/>
<path d="M276.58 847.243C279.549 847.243 281.955 845.246 281.955 842.783C281.955 840.319 279.549 838.322 276.58 838.322C273.612 838.322 271.205 840.319 271.205 842.783C271.205 845.246 273.612 847.243 276.58 847.243Z" fill="#263238" stroke="#263238" stroke-linecap="round" stroke-linejoin="round"/>
<path d="M326.426 813.975H334.244V743.417H326.426V813.975Z" fill="white" stroke="#263238" stroke-linecap="round" stroke-linejoin="round"/>
<path d="M318.602 763.287H341.568V750.311H318.602V763.287Z" fill="#263238" stroke="#263238" stroke-linecap="round" stroke-linejoin="round"/>
<path d="M275.219 737.281C291.833 735.821 347.01 731.798 396.303 737.281C396.678 737.312 397.035 737.432 397.329 737.627C397.624 737.821 397.845 738.083 397.965 738.379C398.084 738.676 398.098 738.995 398.005 739.298C397.911 739.601 397.714 739.875 397.437 740.087C392.59 744.077 378.419 751.814 340.11 753.907C301.156 756.015 281.473 745.975 273.948 740.72C273.608 740.468 273.361 740.14 273.238 739.775C273.116 739.411 273.121 739.024 273.255 738.662C273.389 738.3 273.645 737.978 273.993 737.733C274.341 737.488 274.767 737.331 275.219 737.281Z" fill="white" stroke="#263238" stroke-linecap="round" stroke-linejoin="round"/>
<path d="M396.417 740.931H274.257L273.925 740.704C273.573 740.45 273.318 740.116 273.191 739.743C273.063 739.371 273.07 738.976 273.208 738.606C273.347 738.236 273.613 737.908 273.973 737.661C274.332 737.415 274.771 737.26 275.235 737.217C291.712 735.773 346.087 731.799 395.029 737.136C395.54 737.175 396.025 737.339 396.423 737.608C396.821 737.877 397.113 738.239 397.262 738.646C397.411 739.054 397.41 739.489 397.259 739.896C397.109 740.303 396.816 740.663 396.417 740.931Z" fill="#23BB4E" stroke="#263238" stroke-linecap="round" stroke-linejoin="round"/>
<path d="M321.045 818.84H339.125V803.025H321.045V818.84Z" fill="#263238" stroke="#263238" stroke-linecap="round" stroke-linejoin="round"/>
<path d="M329.357 847.242H332.055V810.941H329.357V847.242Z" fill="white" stroke="#263238" stroke-linecap="round" stroke-linejoin="round"/>
<path d="M328.34 847.273H333.07V837.768H328.34V847.273Z" fill="#263238" stroke="#263238" stroke-linecap="round" stroke-linejoin="round"/>
<path d="M311.764 740.998H322.514L329.355 686.66H322.025L311.764 740.998Z" fill="white" stroke="#263238" stroke-linecap="round" stroke-linejoin="round"/>
<path d="M293.193 690.311H366.978C366.978 690.311 361.603 682.201 358.182 681.39C354.762 680.579 299.057 681.39 299.057 681.39C299.057 681.39 293.193 683.012 293.193 690.311Z" fill="#23BB4E" stroke="#263238" stroke-linecap="round" stroke-linejoin="round"/>
<path d="M366.978 690.309H293.193C293.198 689.63 293.256 688.953 293.369 688.281H365.531C366.411 689.449 366.978 690.309 366.978 690.309Z" fill="white" stroke="#263238" stroke-linecap="round" stroke-linejoin="round"/>
<path d="M663.763 675.355H773.688V672.16H663.763V675.355Z" fill="white" stroke="#263238" stroke-linecap="round" stroke-linejoin="round"/>
<path d="M772.414 570.428H656.353C652.305 570.428 649.023 573.151 649.023 576.51V658.195C649.023 661.555 652.305 664.278 656.353 664.278H772.414C776.462 664.278 779.744 661.555 779.744 658.195V576.51C779.744 573.151 776.462 570.428 772.414 570.428Z" fill="white" stroke="#263238" stroke-linecap="round" stroke-linejoin="round"/>
<path d="M724.92 621.686H703.83V675.293H724.92V621.686Z" fill="#263238" stroke="#263238" stroke-linecap="round" stroke-linejoin="round"/>
<path d="M1015.68 672.227H954.229V675.26H1015.68V672.227Z" fill="white" stroke="#263238" stroke-linecap="round" stroke-linejoin="round"/>
<path d="M917.198 674.59H890.401C888.128 674.589 885.942 673.866 884.291 672.569C882.641 671.271 881.652 669.499 881.527 667.616C881.487 666.789 881.606 665.962 881.879 665.167L898.668 625.086C898.84 624.68 899.198 624.346 899.666 624.159C900.133 623.972 900.671 623.947 901.161 624.089C901.65 624.231 902.052 624.528 902.278 624.916C902.503 625.304 902.534 625.75 902.363 626.157L885.593 666.156C885.467 666.575 885.414 667.006 885.436 667.437C885.506 668.492 886.059 669.484 886.982 670.211C887.905 670.938 889.128 671.344 890.401 671.346H917.198C917.716 671.346 918.213 671.517 918.58 671.821C918.946 672.126 919.152 672.538 919.152 672.968C919.152 673.399 918.946 673.811 918.58 674.115C918.213 674.42 917.716 674.59 917.198 674.59Z" fill="#263238" stroke="#263238" stroke-linecap="round" stroke-linejoin="round"/>
<path d="M910.275 570.25L939.887 664.327L936.74 666.306C936.74 666.306 899.486 642.122 899.486 621.96C899.486 601.798 905.975 570.883 905.975 570.883L910.275 570.25Z" fill="white" stroke="#263238" stroke-linecap="round" stroke-linejoin="round"/>
<path d="M910.269 570.25L905.852 570.883L936.636 666.306L939.88 664.295L910.269 570.25Z" fill="#263238" stroke="#263238" stroke-linecap="round" stroke-linejoin="round"/>
<path d="M428.033 675.275H489.484V672.242H428.033V675.275Z" fill="white" stroke="#263238" stroke-linecap="round" stroke-linejoin="round"/>
<path d="M526.533 674.59H553.33C555.604 674.593 557.793 673.871 559.444 672.573C561.095 671.275 562.083 669.501 562.203 667.616C562.243 666.789 562.124 665.962 561.851 665.167L545.062 625.086C544.891 624.68 544.532 624.346 544.065 624.159C543.597 623.972 543.06 623.947 542.57 624.089C542.08 624.231 541.678 624.528 541.453 624.916C541.227 625.304 541.197 625.75 541.368 626.157L558.138 666.156C558.264 666.575 558.316 667.006 558.294 667.437C558.224 668.492 557.671 669.484 556.748 670.211C555.825 670.938 554.602 671.344 553.33 671.346H526.533C526.014 671.346 525.517 671.517 525.151 671.821C524.784 672.126 524.578 672.538 524.578 672.968C524.578 673.399 524.784 673.811 525.151 674.115C525.517 674.42 526.014 674.59 526.533 674.59Z" fill="#263238" stroke="#263238" stroke-linecap="round" stroke-linejoin="round"/>
<path d="M533.457 570.25L503.865 664.327L507.09 666.339C507.09 666.339 544.344 642.154 544.344 621.993C544.344 601.831 537.874 570.915 537.874 570.915L533.457 570.25Z" fill="white" stroke="#263238" stroke-linecap="round" stroke-linejoin="round"/>
<path d="M533.457 570.25L537.874 570.883L507.09 666.306L503.865 664.295L533.457 570.25Z" fill="#263238" stroke="#263238" stroke-linecap="round" stroke-linejoin="round"/>
<path d="M420.738 684.081L429.064 701.924C432.035 706.968 433.188 715.549 432.387 721.128L412.842 849.609C412.789 849.957 412.826 850.31 412.95 850.646C413.074 850.981 413.283 851.291 413.561 851.554C413.84 851.818 414.183 852.029 414.568 852.175C414.953 852.321 415.37 852.397 415.793 852.399C416.492 852.398 417.169 852.195 417.707 851.825C418.246 851.455 418.613 850.941 418.744 850.371L455.92 685.801H442.238L439.834 695.257C439.733 695.594 439.504 695.895 439.181 696.116C438.858 696.337 438.458 696.466 438.04 696.485C437.622 696.503 437.208 696.409 436.859 696.217C436.509 696.026 436.244 695.746 436.101 695.419L431.586 683.352L420.738 684.081Z" fill="white" stroke="#263238" stroke-linecap="round" stroke-linejoin="round"/>
<path d="M1017.83 684.085L1009.51 701.927C1006.56 706.972 1005.4 715.552 1006.19 721.132L1025.73 849.612C1025.78 849.961 1025.74 850.315 1025.61 850.65C1025.49 850.985 1025.28 851.295 1025 851.558C1024.72 851.821 1024.37 852.033 1023.99 852.178C1023.6 852.324 1023.18 852.4 1022.76 852.402C1022.06 852.397 1021.39 852.193 1020.86 851.823C1020.32 851.453 1019.96 850.941 1019.83 850.374L982.535 685.804H996.217L998.621 695.26C998.728 695.592 998.958 695.886 999.279 696.102C999.599 696.318 999.994 696.444 1000.41 696.462C1000.82 696.48 1001.23 696.389 1001.57 696.203C1001.92 696.016 1002.19 695.743 1002.33 695.423L1006.97 683.371L1017.83 684.085Z" fill="white" stroke="#263238" stroke-linecap="round" stroke-linejoin="round"/>
<path d="M716.2 852.501C714.926 852.501 713.702 852.087 712.792 851.347C711.882 850.607 711.358 849.6 711.333 848.543L707.521 680.988H724.878L720.969 848.543C720.949 849.588 720.44 850.585 719.55 851.323C718.66 852.062 717.458 852.484 716.2 852.501Z" fill="white" stroke="#263238" stroke-linecap="round" stroke-linejoin="round"/>
<path d="M1033.49 675.195H406.078V685.738H1033.49V675.195Z" fill="white" stroke="#263238" stroke-linecap="round" stroke-linejoin="round"/>
</g>
</svg>
