<svg width="1177" height="806" viewBox="0 0 1177 856" fill="none" xmlns="http://www.w3.org/2000/svg">
<g opacity="0.85">
<g opacity="0.26">
<path d="M1147.08 625.545H29.5V636.947H1147.08V625.545Z" fill="#263238"/>
<path d="M793.066 442.002V0.5" stroke="#263238" stroke-linecap="round" stroke-linejoin="round"/>
<path d="M793.066 632.267V463.463" stroke="#263238" stroke-linecap="round" stroke-linejoin="round"/>
<path d="M503.838 124.943V4.43555" stroke="#263238" stroke-linecap="round" stroke-linejoin="round"/>
<path d="M503.838 632.27V146.406" stroke="#263238" stroke-linecap="round" stroke-linejoin="round"/>
<path d="M1082.88 96.3543V0.5" stroke="#263238" stroke-linecap="round" stroke-linejoin="round"/>
<path d="M1082.88 632.261V117.775" stroke="#263238" stroke-linecap="round" stroke-linejoin="round"/>
<path d="M214.025 632.265V4.43555" stroke="#263238" stroke-linecap="round" stroke-linejoin="round"/>
<path d="M1066.35 322.137H1119.43" stroke="#263238" stroke-linecap="round" stroke-linejoin="round"/>
<path d="M351.25 322.137H1057.81" stroke="#263238" stroke-linecap="round" stroke-linejoin="round"/>
<path d="M188.781 322.137H342.71" stroke="#263238" stroke-linecap="round" stroke-linejoin="round"/>
<path d="M685.741 207.953L681.764 212.695" stroke="#263238" stroke-width="0.5" stroke-linecap="round" stroke-linejoin="round"/>
<path d="M752.574 127.469L691.061 201.529" stroke="#263238" stroke-width="0.5" stroke-linecap="round" stroke-linejoin="round"/>
<path d="M760.683 132.479L711.41 191.807" stroke="#263238" stroke-width="0.5" stroke-linecap="round" stroke-linejoin="round"/>
<path d="M782.205 106.59L767.33 124.483" stroke="#263238" stroke-width="0.5" stroke-linecap="round" stroke-linejoin="round"/>
<path d="M293.282 207.953L289.322 212.695" stroke="#263238" stroke-width="0.5" stroke-linecap="round" stroke-linejoin="round"/>
<path d="M360.12 127.469L298.607 201.529" stroke="#263238" stroke-width="0.5" stroke-linecap="round" stroke-linejoin="round"/>
<path d="M368.226 132.479L318.953 191.807" stroke="#263238" stroke-width="0.5" stroke-linecap="round" stroke-linejoin="round"/>
<path d="M389.744 106.59L374.869 124.483" stroke="#263238" stroke-width="0.5" stroke-linecap="round" stroke-linejoin="round"/>
<path d="M920.005 207.953L916.045 212.695" stroke="#263238" stroke-width="0.5" stroke-linecap="round" stroke-linejoin="round"/>
<path d="M986.829 127.469L925.316 201.529" stroke="#263238" stroke-width="0.5" stroke-linecap="round" stroke-linejoin="round"/>
<path d="M994.936 132.479L945.664 191.807" stroke="#263238" stroke-width="0.5" stroke-linecap="round" stroke-linejoin="round"/>
<path d="M1016.46 106.59L1001.59 124.483" stroke="#263238" stroke-width="0.5" stroke-linecap="round" stroke-linejoin="round"/>
<path d="M432.219 474.391L316.148 614.136" stroke="#263238" stroke-width="0.5" stroke-linecap="round" stroke-linejoin="round"/>
<path d="M447.519 483.84L354.535 595.804" stroke="#263238" stroke-width="0.5" stroke-linecap="round" stroke-linejoin="round"/>
<path d="M488.144 434.941L460.064 468.743" stroke="#263238" stroke-width="0.5" stroke-linecap="round" stroke-linejoin="round"/>
<path d="M725.542 614.307L718.053 623.32" stroke="#263238" stroke-width="0.5" stroke-linecap="round" stroke-linejoin="round"/>
<path d="M851.666 462.492L735.596 602.238" stroke="#263238" stroke-width="0.5" stroke-linecap="round" stroke-linejoin="round"/>
<path d="M866.978 471.896L773.994 583.861" stroke="#263238" stroke-width="0.5" stroke-linecap="round" stroke-linejoin="round"/>
<path d="M907.581 423.035L879.502 456.836" stroke="#263238" stroke-width="0.5" stroke-linecap="round" stroke-linejoin="round"/>
</g>
<path d="M389.816 459.771V439.365H362.27V459.82C354.76 462.852 348.373 467.928 343.925 474.401C339.476 480.875 337.167 488.454 337.29 496.172C337.29 496.465 337.29 496.774 337.29 497.067H414.762C414.762 496.774 414.762 496.465 414.762 496.172C414.901 488.449 412.602 480.861 408.159 474.378C403.716 467.894 397.33 462.809 389.816 459.771Z" fill="#263238" stroke="#263238" stroke-linecap="round" stroke-linejoin="round"/>
<path d="M376.043 439.317V390.5" stroke="#263238" stroke-linecap="round" stroke-linejoin="round"/>
<path d="M933.843 459.771V439.365H906.298V459.82C898.787 462.852 892.401 467.928 887.952 474.401C883.504 480.875 881.194 488.454 881.317 496.172C881.317 496.465 881.317 496.774 881.317 497.067H958.789C958.789 496.774 958.789 496.465 958.789 496.172C958.928 488.449 956.629 480.861 952.186 474.378C947.743 467.894 941.357 462.809 933.843 459.771Z" fill="#263238" stroke="#263238" stroke-linecap="round" stroke-linejoin="round"/>
<path d="M920.066 439.317V390.5" stroke="#263238" stroke-linecap="round" stroke-linejoin="round"/>
<path d="M0.5 854.732H1167.75" stroke="#263238" stroke-linecap="round" stroke-linejoin="round"/>
<path d="M1100.9 618.361L1120.63 797.016" stroke="#263238" stroke-width="2" stroke-miterlimit="10"/>
<path d="M1117.45 762.826L1108.51 753.893" stroke="#263238" stroke-width="2" stroke-miterlimit="10"/>
<path d="M1111.23 756.577C1111.21 755.21 1110.88 753.861 1110.27 752.624C1109.65 751.386 1108.76 750.287 1107.66 749.401C1105.37 747.464 1093.29 742.664 1092.17 746.683C1090.89 751.061 1103.25 759.652 1111.23 756.577Z" fill="#23BB4E" stroke="#263238" stroke-miterlimit="10"/>
<path d="M1111.22 756.577L1099.72 749.791" stroke="#263238" stroke-width="0.5" stroke-miterlimit="10"/>
<path d="M1119.7 783.132L1110.74 774.215" stroke="#263238" stroke-width="2" stroke-miterlimit="10"/>
<path d="M1113.47 776.89C1113.45 775.525 1113.12 774.179 1112.51 772.944C1111.89 771.709 1111 770.613 1109.9 769.73C1107.61 767.794 1095.53 762.977 1094.41 767.013C1093.13 771.374 1105.51 779.933 1113.47 776.89Z" fill="#23BB4E" stroke="#263238" stroke-miterlimit="10"/>
<path d="M1113.46 776.885L1101.96 770.115" stroke="#263238" stroke-width="0.5" stroke-miterlimit="10"/>
<path d="M1111.97 713.244L1103.04 704.311" stroke="#263238" stroke-width="2" stroke-miterlimit="10"/>
<path d="M1105.77 706.997C1105.75 705.629 1105.42 704.281 1104.81 703.044C1104.19 701.806 1103.31 700.707 1102.2 699.821C1099.91 697.884 1087.83 693.084 1086.71 697.103C1085.42 701.48 1097.78 710.072 1105.77 706.997Z" fill="#23BB4E" stroke="#263238" stroke-miterlimit="10"/>
<path d="M1105.76 706.998L1094.26 700.229" stroke="#263238" stroke-width="0.5" stroke-miterlimit="10"/>
<path d="M1114.23 733.57L1105.28 724.637" stroke="#263238" stroke-width="2" stroke-miterlimit="10"/>
<path d="M1107.99 727.301C1107.98 725.936 1107.65 724.59 1107.03 723.355C1106.42 722.12 1105.53 721.024 1104.43 720.141C1102.14 718.205 1090.05 713.404 1088.93 717.424C1087.66 721.785 1100.04 730.376 1107.99 727.301Z" fill="#23BB4E" stroke="#263238" stroke-miterlimit="10"/>
<path d="M1108 727.304L1096.5 720.535" stroke="#263238" stroke-width="0.5" stroke-miterlimit="10"/>
<path d="M1108.34 680.242L1099.39 671.309" stroke="#263238" stroke-width="2" stroke-miterlimit="10"/>
<path d="M1102.11 673.995C1102.1 672.627 1101.77 671.279 1101.15 670.042C1100.54 668.804 1099.65 667.705 1098.55 666.819C1096.26 664.882 1084.17 660.082 1083.05 664.101C1081.78 668.479 1094.16 677.054 1102.11 673.995Z" fill="#23BB4E" stroke="#263238" stroke-miterlimit="10"/>
<path d="M1102.1 673.993L1090.6 667.207" stroke="#263238" stroke-width="0.5" stroke-miterlimit="10"/>
<path d="M1104.67 647.1L1095.74 638.166" stroke="#263238" stroke-width="2" stroke-miterlimit="10"/>
<path d="M1098.46 640.834C1098.44 639.47 1098.11 638.126 1097.49 636.892C1096.88 635.657 1095.99 634.56 1094.89 633.674C1092.59 631.738 1080.52 626.937 1079.4 630.957C1078.13 635.318 1090.49 643.91 1098.46 640.834Z" fill="#23BB4E" stroke="#263238" stroke-miterlimit="10"/>
<path d="M1098.46 640.834L1086.96 634.064" stroke="#263238" stroke-width="0.5" stroke-miterlimit="10"/>
<path d="M1115.95 750.804L1122.75 740.324" stroke="#263238" stroke-width="2" stroke-miterlimit="10"/>
<path d="M1120.69 743.461C1120.4 742.124 1120.43 740.744 1120.76 739.416C1121.09 738.089 1121.71 736.843 1122.6 735.764C1124.42 733.421 1135.18 726.359 1137.2 730.069C1139.37 734.105 1129.14 744.926 1120.69 743.461Z" fill="#23BB4E" stroke="#263238" stroke-miterlimit="10"/>
<path d="M1120.68 743.459L1131.03 734.119" stroke="#263238" stroke-width="0.5" stroke-miterlimit="10"/>
<path d="M1110.05 697.331L1116.85 686.852" stroke="#263238" stroke-width="2" stroke-miterlimit="10"/>
<path d="M1114.77 690.009C1114.49 688.669 1114.51 687.287 1114.84 685.956C1115.17 684.626 1115.8 683.377 1116.68 682.296C1118.51 679.952 1129.27 672.89 1131.28 676.6C1133.45 680.668 1123.23 691.457 1114.77 690.009Z" fill="#23BB4E" stroke="#263238" stroke-miterlimit="10"/>
<path d="M1114.78 690.007L1125.13 680.65" stroke="#263238" stroke-width="0.5" stroke-miterlimit="10"/>
<path d="M1107.46 673.833L1114.25 663.354" stroke="#263238" stroke-width="2" stroke-miterlimit="10"/>
<path d="M1112.18 666.511C1111.9 665.171 1111.92 663.789 1112.25 662.458C1112.58 661.127 1113.21 659.879 1114.09 658.798C1115.92 656.454 1126.7 649.392 1128.69 653.102C1130.86 657.138 1120.65 667.959 1112.18 666.511Z" fill="#23BB4E" stroke="#263238" stroke-miterlimit="10"/>
<path d="M1112.18 666.511L1122.54 657.154" stroke="#263238" stroke-width="0.5" stroke-miterlimit="10"/>
<path d="M1103.65 639.401L1110.45 628.922" stroke="#263238" stroke-width="2" stroke-miterlimit="10"/>
<path d="M1108.37 632.063C1108.09 630.723 1108.11 629.342 1108.44 628.011C1108.77 626.681 1109.4 625.432 1110.28 624.35C1112.11 622.007 1122.89 614.945 1124.88 618.655C1127.05 622.707 1116.84 633.479 1108.37 632.063Z" fill="#23BB4E" stroke="#263238" stroke-miterlimit="10"/>
<path d="M1108.38 632.066L1118.74 622.709" stroke="#263238" stroke-width="0.5" stroke-miterlimit="10"/>
<path d="M1100.75 617.365C1100.47 616.025 1100.49 614.644 1100.82 613.313C1101.15 611.983 1101.78 610.734 1102.66 609.652C1104.48 607.309 1115.24 600.263 1117.26 603.973C1119.43 608.009 1109.22 618.83 1100.75 617.365Z" fill="#23BB4E" stroke="#263238" stroke-miterlimit="10"/>
<path d="M1100.75 617.37L1111.09 608.014" stroke="#263238" stroke-width="0.5" stroke-miterlimit="10"/>
<path d="M1101.35 617.777C1099.91 617.902 1098.46 617.734 1097.09 617.285C1095.73 616.836 1094.48 616.116 1093.43 615.174C1091.16 613.205 1084.82 602.351 1088.97 600.854C1093.45 599.308 1103.76 609.967 1101.35 617.777Z" fill="#23BB4E" stroke="#263238" stroke-miterlimit="10"/>
<path d="M1101.35 617.776L1092.59 607.053" stroke="#263238" stroke-width="0.5" stroke-miterlimit="10"/>
<path d="M1152.92 642.967L1133.31 821.637" stroke="#263238" stroke-width="2" stroke-miterlimit="10"/>
<path d="M1137.65 787.545L1130.85 777.082" stroke="#263238" stroke-width="2" stroke-miterlimit="10"/>
<path d="M1132.93 780.223C1133.21 778.883 1133.19 777.501 1132.86 776.17C1132.53 774.84 1131.9 773.592 1131.02 772.51C1129.19 770.166 1118.42 763.12 1116.42 766.831C1114.25 770.866 1124.48 781.687 1132.93 780.223Z" fill="#23BB4E" stroke="#263238" stroke-miterlimit="10"/>
<path d="M1132.92 780.22L1123.14 771.352" stroke="#263238" stroke-width="0.5" stroke-miterlimit="10"/>
<path d="M1143.1 737.961L1136.3 727.498" stroke="#263238" stroke-width="2" stroke-miterlimit="10"/>
<path d="M1138.37 730.639C1138.65 729.299 1138.62 727.917 1138.3 726.586C1137.97 725.256 1137.34 724.008 1136.46 722.926C1134.63 720.582 1123.85 713.536 1121.86 717.247C1119.69 721.347 1129.88 732.103 1138.37 730.639Z" fill="#23BB4E" stroke="#263238" stroke-miterlimit="10"/>
<path d="M1138.36 730.638L1128.58 721.77" stroke="#263238" stroke-width="0.5" stroke-miterlimit="10"/>
<path d="M1140.87 758.284L1134.06 747.805" stroke="#263238" stroke-width="2" stroke-miterlimit="10"/>
<path d="M1136.13 750.963C1136.41 749.622 1136.38 748.24 1136.05 746.91C1135.72 745.579 1135.09 744.332 1134.21 743.25C1132.38 740.907 1121.6 733.861 1119.61 737.571C1117.44 741.606 1127.66 752.411 1136.13 750.963Z" fill="#23BB4E" stroke="#263238" stroke-miterlimit="10"/>
<path d="M1136.13 750.964L1126.36 742.096" stroke="#263238" stroke-width="0.5" stroke-miterlimit="10"/>
<path d="M1146.73 704.958L1139.91 694.479" stroke="#263238" stroke-width="2" stroke-miterlimit="10"/>
<path d="M1141.93 697.637C1142.21 696.295 1142.18 694.914 1141.85 693.583C1141.52 692.253 1140.89 691.005 1140 689.924C1138.18 687.58 1127.4 680.535 1125.4 684.245C1123.3 688.28 1133.53 699.085 1141.93 697.637Z" fill="#23BB4E" stroke="#263238" stroke-miterlimit="10"/>
<path d="M1142 697.64L1132.22 688.771" stroke="#263238" stroke-width="0.5" stroke-miterlimit="10"/>
<path d="M1150.36 671.815L1143.56 661.336" stroke="#263238" stroke-width="2" stroke-miterlimit="10"/>
<path d="M1145.63 664.477C1145.91 663.139 1145.89 661.76 1145.56 660.432C1145.23 659.104 1144.6 657.859 1143.72 656.78C1141.9 654.437 1131.12 647.375 1129.12 651.085C1126.95 655.137 1137.18 666.023 1145.63 664.477Z" fill="#23BB4E" stroke="#263238" stroke-miterlimit="10"/>
<path d="M1145.64 664.474L1135.86 655.605" stroke="#263238" stroke-width="0.5" stroke-miterlimit="10"/>
<path d="M1138.81 775.502L1147.75 766.568" stroke="#263238" stroke-width="2" stroke-miterlimit="10"/>
<path d="M1145.03 769.235C1145.04 767.869 1145.37 766.522 1145.98 765.285C1146.59 764.047 1147.48 762.947 1148.57 762.059C1150.88 760.123 1162.95 755.322 1164.07 759.342C1165.36 763.654 1153 772.311 1145.03 769.235Z" fill="#23BB4E" stroke="#263238" stroke-miterlimit="10"/>
<path d="M1145.03 769.237L1157.2 762.094" stroke="#263238" stroke-width="0.5" stroke-miterlimit="10"/>
<path d="M1144.68 722.029L1153.62 713.096" stroke="#263238" stroke-width="2" stroke-miterlimit="10"/>
<path d="M1150.9 715.766C1150.91 714.401 1151.24 713.054 1151.85 711.817C1152.46 710.579 1153.35 709.479 1154.44 708.59C1156.75 706.654 1168.82 701.853 1169.94 705.873C1171.19 710.25 1158.87 718.842 1150.9 715.766Z" fill="#23BB4E" stroke="#263238" stroke-miterlimit="10"/>
<path d="M1150.9 715.769L1163.07 708.625" stroke="#263238" stroke-width="0.5" stroke-miterlimit="10"/>
<path d="M1147.24 698.531L1156.18 689.598" stroke="#263238" stroke-width="2" stroke-miterlimit="10"/>
<path d="M1153.48 692.268C1153.49 690.902 1153.82 689.555 1154.43 688.318C1155.04 687.08 1155.93 685.98 1157.02 685.092C1159.33 683.156 1171.4 678.355 1172.52 682.375C1173.79 686.752 1161.43 695.311 1153.48 692.268Z" fill="#23BB4E" stroke="#263238" stroke-miterlimit="10"/>
<path d="M1153.48 692.271L1165.65 685.127" stroke="#263238" stroke-width="0.5" stroke-miterlimit="10"/>
<path d="M1151.04 664.086L1159.97 655.152" stroke="#263238" stroke-width="2" stroke-miterlimit="10"/>
<path d="M1157.24 657.884C1157.26 656.516 1157.59 655.169 1158.2 653.931C1158.82 652.693 1159.71 651.594 1160.81 650.707C1163.1 648.771 1175.18 643.971 1176.3 647.99C1177.58 652.302 1165.22 660.894 1157.24 657.884Z" fill="#23BB4E" stroke="#263238" stroke-miterlimit="10"/>
<path d="M1157.24 657.819L1169.42 650.676" stroke="#263238" stroke-width="0.5" stroke-miterlimit="10"/>
<path d="M1152.98 641.957C1153 640.592 1153.32 639.246 1153.94 638.011C1154.55 636.776 1155.44 635.68 1156.54 634.797C1158.83 632.86 1170.92 628.044 1172.04 632.063C1173.31 636.44 1160.95 645.032 1152.98 641.957Z" fill="#23BB4E" stroke="#263238" stroke-miterlimit="10"/>
<path d="M1152.98 641.953L1165.15 634.826" stroke="#263238" stroke-width="0.5" stroke-miterlimit="10"/>
<path d="M1153.47 642.478C1152.04 642.314 1150.66 641.864 1149.42 641.157C1148.19 640.45 1147.13 639.502 1146.31 638.377C1144.59 636.017 1140.72 624.171 1145.07 623.504C1149.79 622.788 1157.55 635.318 1153.47 642.478Z" fill="#23BB4E" stroke="#263238" stroke-miterlimit="10"/>
<path d="M1153.47 642.477L1147.24 630.289" stroke="#263238" stroke-width="0.5" stroke-miterlimit="10"/>
<path d="M1130.46 570.211V796.137" stroke="#263238" stroke-width="2" stroke-miterlimit="10"/>
<path d="M1130.65 762.177L1122.73 752.414" stroke="#263238" stroke-width="2" stroke-miterlimit="10"/>
<path d="M1125.14 755.343C1125.27 753.982 1125.1 752.61 1124.62 751.319C1124.15 750.028 1123.39 748.848 1122.39 747.858C1120.32 745.71 1108.84 739.722 1107.26 743.643C1105.53 747.858 1116.88 757.621 1125.14 755.343Z" fill="#23BB4E" stroke="#263238" stroke-miterlimit="10"/>
<path d="M1125.14 755.338L1114.45 747.479" stroke="#263238" stroke-width="0.5" stroke-miterlimit="10"/>
<path d="M1130.65 719.722L1122.73 709.959" stroke="#263238" stroke-width="2" stroke-miterlimit="10"/>
<path d="M1125.14 712.887C1125.27 711.526 1125.1 710.154 1124.62 708.863C1124.15 707.572 1123.39 706.392 1122.39 705.402C1120.32 703.254 1108.84 697.266 1107.26 701.171C1105.53 705.402 1116.88 715.166 1125.14 712.887Z" fill="#23BB4E" stroke="#263238" stroke-miterlimit="10"/>
<path d="M1125.14 712.887L1114.45 705.027" stroke="#263238" stroke-width="0.5" stroke-miterlimit="10"/>
<path d="M1130.65 669.862L1122.73 660.115" stroke="#263238" stroke-width="2" stroke-miterlimit="10"/>
<path d="M1125.14 663.04C1125.27 661.679 1125.1 660.306 1124.62 659.015C1124.15 657.724 1123.39 656.544 1122.39 655.554C1120.32 653.407 1108.84 647.418 1107.26 651.324C1105.53 655.554 1116.88 665.302 1125.14 663.04Z" fill="#23BB4E" stroke="#263238" stroke-miterlimit="10"/>
<path d="M1125.14 663.046L1114.45 655.17" stroke="#263238" stroke-width="0.5" stroke-miterlimit="10"/>
<path d="M1130.65 636.681L1122.73 626.918" stroke="#263238" stroke-width="2" stroke-miterlimit="10"/>
<path d="M1125.14 629.85C1125.28 628.491 1125.1 627.121 1124.62 625.833C1124.15 624.544 1123.39 623.367 1122.39 622.381C1120.32 620.217 1108.84 614.245 1107.26 618.15C1105.53 622.381 1116.88 632.128 1125.14 629.85Z" fill="#23BB4E" stroke="#263238" stroke-miterlimit="10"/>
<path d="M1125.14 629.846L1114.45 621.986" stroke="#263238" stroke-width="0.5" stroke-miterlimit="10"/>
<path d="M1130.65 603.357L1122.73 593.594" stroke="#263238" stroke-width="2" stroke-miterlimit="10"/>
<path d="M1125.14 596.523C1125.27 595.162 1125.1 593.789 1124.62 592.498C1124.15 591.207 1123.39 590.027 1122.39 589.037C1120.32 586.89 1108.84 580.901 1107.26 584.823C1105.53 589.037 1116.88 598.801 1125.14 596.523Z" fill="#23BB4E" stroke="#263238" stroke-miterlimit="10"/>
<path d="M1125.14 596.524L1114.45 588.664" stroke="#263238" stroke-width="0.5" stroke-miterlimit="10"/>
<path d="M1130.47 775.142L1138.37 765.379" stroke="#263238" stroke-width="2" stroke-miterlimit="10"/>
<path d="M1135.97 768.309C1135.84 766.948 1136.01 765.576 1136.49 764.285C1136.96 762.994 1137.73 761.814 1138.72 760.824C1140.81 758.676 1152.29 752.688 1153.87 756.593C1155.59 760.824 1144.23 770.587 1135.97 768.309Z" fill="#23BB4E" stroke="#263238" stroke-miterlimit="10"/>
<path d="M1135.97 768.31L1147.3 760.027" stroke="#263238" stroke-width="0.5" stroke-miterlimit="10"/>
<path d="M1130.47 707.615L1138.37 697.852" stroke="#263238" stroke-width="2" stroke-miterlimit="10"/>
<path d="M1135.97 700.781C1135.84 699.419 1136.01 698.047 1136.49 696.756C1136.96 695.465 1137.73 694.285 1138.72 693.295C1140.81 691.147 1152.29 685.159 1153.87 689.081C1155.59 693.295 1144.23 703.059 1135.97 700.781Z" fill="#23BB4E" stroke="#263238" stroke-miterlimit="10"/>
<path d="M1135.97 700.777L1147.3 692.494" stroke="#263238" stroke-width="0.5" stroke-miterlimit="10"/>
<path d="M1130.47 674.287L1138.37 664.523" stroke="#263238" stroke-width="2" stroke-miterlimit="10"/>
<path d="M1135.97 667.454C1135.84 666.093 1136.01 664.721 1136.49 663.43C1136.96 662.138 1137.73 660.958 1138.72 659.969C1140.81 657.821 1152.29 651.832 1153.87 655.738C1155.59 659.969 1144.23 669.732 1135.97 667.454Z" fill="#23BB4E" stroke="#263238" stroke-miterlimit="10"/>
<path d="M1135.97 667.455L1147.3 659.172" stroke="#263238" stroke-width="0.5" stroke-miterlimit="10"/>
<path d="M1130.47 630.224L1138.37 620.477" stroke="#263238" stroke-width="2" stroke-miterlimit="10"/>
<path d="M1135.97 623.403C1135.84 622.042 1136.01 620.67 1136.49 619.379C1136.96 618.088 1137.73 616.908 1138.72 615.918C1140.81 613.77 1152.29 607.782 1153.87 611.687C1155.59 615.918 1144.23 625.681 1135.97 623.403Z" fill="#23BB4E" stroke="#263238" stroke-miterlimit="10"/>
<path d="M1135.97 623.406L1147.3 615.107" stroke="#263238" stroke-width="0.5" stroke-miterlimit="10"/>
<path d="M1130.47 595.595L1138.37 585.848" stroke="#263238" stroke-width="2" stroke-miterlimit="10"/>
<path d="M1135.97 588.76C1135.84 587.401 1136.01 586.032 1136.49 584.743C1136.96 583.455 1137.73 582.278 1138.72 581.291C1140.81 579.127 1152.29 573.155 1153.87 577.06C1155.59 581.291 1144.23 591.038 1135.97 588.76Z" fill="#23BB4E" stroke="#263238" stroke-miterlimit="10"/>
<path d="M1135.97 588.759L1147.3 580.477" stroke="#263238" stroke-width="0.5" stroke-miterlimit="10"/>
<path d="M1129.99 573.398C1129.86 572.04 1130.04 570.67 1130.51 569.382C1130.99 568.093 1131.75 566.916 1132.75 565.929C1134.81 563.782 1146.3 557.793 1147.88 561.699C1149.6 565.929 1138.26 575.677 1129.99 573.398Z" fill="#23BB4E" stroke="#263238" stroke-miterlimit="10"/>
<path d="M1129.99 573.402L1141.32 565.119" stroke="#263238" stroke-width="0.5" stroke-miterlimit="10"/>
<path d="M1130.54 573.871C1129.1 573.851 1127.67 573.54 1126.37 572.959C1125.06 572.378 1123.9 571.541 1122.96 570.503C1120.92 568.322 1115.84 556.899 1120.11 555.858C1124.7 554.654 1133.81 566.337 1130.54 573.871Z" fill="#23BB4E" stroke="#263238" stroke-miterlimit="10"/>
<path d="M1130.55 573.87L1123.03 562.35" stroke="#263238" stroke-width="0.5" stroke-miterlimit="10"/>
<path d="M1140.29 854.75H1114.98L1111.82 794.314H1143.46L1140.29 854.75Z" fill="#263238" stroke="#263238" stroke-miterlimit="10"/>
<path d="M181.272 472.332H41.8223V854.733H181.272V472.332Z" fill="white" stroke="#263238" stroke-linecap="round" stroke-linejoin="round"/>
<path d="M167.495 504.875H53.8691V569.964H167.495V504.875Z" fill="white" stroke="#263238" stroke-linecap="round" stroke-linejoin="round"/>
<path d="M124.46 526.033H96.9141V548.815H124.46V526.033Z" fill="#263238" stroke="#263238" stroke-linecap="round" stroke-linejoin="round"/>
<path d="M119.547 530.113H101.832V544.758H119.547V530.113Z" fill="white" stroke="#263238" stroke-linecap="round" stroke-linejoin="round"/>
<path d="M167.495 581.258H53.8691V646.347H167.495V581.258Z" fill="white" stroke="#263238" stroke-linecap="round" stroke-linejoin="round"/>
<path d="M124.46 602.412H96.9141V625.193H124.46V602.412Z" fill="#263238" stroke="#263238" stroke-linecap="round" stroke-linejoin="round"/>
<path d="M119.547 606.486H101.832V621.131H119.547V606.486Z" fill="white" stroke="#263238" stroke-linecap="round" stroke-linejoin="round"/>
<path d="M167.495 657.643H53.8691V722.732H167.495V657.643Z" fill="white" stroke="#263238" stroke-linecap="round" stroke-linejoin="round"/>
<path d="M124.46 678.793H96.9141V701.574H124.46V678.793Z" fill="#263238" stroke="#263238" stroke-linecap="round" stroke-linejoin="round"/>
<path d="M119.547 682.863H101.832V697.508H119.547V682.863Z" fill="white" stroke="#263238" stroke-linecap="round" stroke-linejoin="round"/>
<path d="M167.495 734.008H53.8691V799.097H167.495V734.008Z" fill="white" stroke="#263238" stroke-linecap="round" stroke-linejoin="round"/>
<path d="M124.46 755.16H96.9141V777.941H124.46V755.16Z" fill="#263238" stroke="#263238" stroke-linecap="round" stroke-linejoin="round"/>
<path d="M119.547 759.232H101.832V773.878H119.547V759.232Z" fill="white" stroke="#263238" stroke-linecap="round" stroke-linejoin="round"/>
<path d="M114.406 421.855H51.3438V471.763H114.406V421.855Z" stroke="#263238" stroke-linecap="round" stroke-linejoin="round"/>
<path d="M114.423 451.65H84.347L71.1422 422.539L71.0389 421.855H51.3438V471.747H114.423V451.65Z" fill="#263238" stroke="#263238" stroke-linecap="round" stroke-linejoin="round"/>
<path d="M166.485 446.799H144.482V472.444H166.485V446.799Z" fill="#263238" stroke="#263238" stroke-linecap="round" stroke-linejoin="round"/>
<path d="M154.928 432.026C154.928 432.026 164.276 427.388 166.48 419.008C168.684 410.628 157.683 394.746 157.683 394.746C157.683 394.746 146.682 406.527 146.682 414.859C146.682 423.19 154.928 432.026 154.928 432.026Z" fill="#23BB4E" stroke="#263238" stroke-linecap="round" stroke-linejoin="round"/>
<path d="M149.263 442.212C149.263 442.212 150.984 430.821 144.477 426.704C137.969 422.588 122.475 424.622 122.475 424.622C122.475 424.622 125.401 441.252 133.476 442.635C138.719 443.439 144.076 443.295 149.263 442.212Z" fill="#23BB4E" stroke="#263238" stroke-linecap="round" stroke-linejoin="round"/>
<path d="M165.775 438.484C165.674 435.809 166.141 433.142 167.149 430.64C168.158 428.139 169.687 425.854 171.646 423.921C178.24 417.688 192.185 421.154 192.185 421.154C192.185 421.154 189.241 432.936 181.184 437.101C178.854 438.321 176.283 439.073 173.632 439.311C170.981 439.549 168.306 439.268 165.775 438.484Z" fill="#23BB4E" stroke="#263238" stroke-linecap="round" stroke-linejoin="round"/>
<path d="M153.276 447.499L143.016 435.701" stroke="#263238" stroke-linecap="round" stroke-linejoin="round"/>
<path d="M155.482 410.756V450.265L173.818 430.169" stroke="#263238" stroke-linecap="round" stroke-linejoin="round"/>
<path d="M990.87 544.42C990.87 544.42 1001.08 545.299 1006.66 551.433C1012.24 557.568 1014.08 573.808 1013.15 580.821C1012.82 582.866 1013.11 584.957 1013.99 586.851C1014.87 588.746 1016.3 590.367 1018.11 591.528C1023.27 595.092 1028.23 599.909 1029.3 606.336C1030.28 612.308 1028.4 623.048 1022.41 626.433C1015.52 630.387 1006.18 638.279 1010.81 641.354C1013.34 643.151 1016.45 644.081 1019.62 643.991C1019.62 643.991 1020.09 653.201 1006.18 653.201C992.264 653.201 988.959 643.551 992.247 632.144C995.535 620.737 1003.39 607.573 995.966 601.438C988.546 595.304 985.257 583.897 989.94 576.525C994.623 569.154 996.448 553.272 992.264 549.318C988.081 545.364 990.87 544.42 990.87 544.42Z" fill="#263238" stroke="#263238" stroke-linecap="round" stroke-linejoin="round"/>
<path d="M849.256 720.144L862.237 826.582L876.199 825.671L879.642 744.309L888.251 743.398L942.636 746.652C945.476 746.046 948.35 745.59 951.244 745.285C953.172 745.285 955.565 740.29 944.031 735.733C932.496 731.177 852.579 716.467 850.668 716.467C848.757 716.467 849.256 720.144 849.256 720.144Z" fill="#263238" stroke="#263238" stroke-linecap="round" stroke-linejoin="round"/>
<path d="M924.76 705.072C924.76 705.072 874.833 689.434 826.112 699.62C822.118 700.45 813.596 796.506 813.596 796.506L826.594 800.135L846.806 724.175C846.806 724.175 931.509 747.38 948.828 745.102C966.147 742.824 924.76 705.072 924.76 705.072Z" fill="#263238" stroke="#263238" stroke-linecap="round" stroke-linejoin="round"/>
<path d="M938.775 544.564C938.775 544.564 934.919 554.116 934.919 558.656C934.904 561.239 935.065 563.821 935.401 566.385C935.401 566.385 928.67 573.219 931.08 575.498L933.49 577.759C933.49 577.759 936.933 595.496 939.739 596.408C942.546 597.319 954.648 595.057 954.648 595.057L954.838 620.133L978.665 600.931L976.737 586.367C976.737 586.367 982.521 578.638 989.253 569.542C995.984 560.446 992.145 545.931 988.289 539.096C984.432 532.262 955.079 518.17 935.349 541.374L938.775 544.564Z" fill="white" stroke="#263238" stroke-linecap="round" stroke-linejoin="round"/>
<path d="M954.615 595.044L961.312 593.4L955.097 605.149L954.615 595.044Z" fill="#263238" stroke="#263238" stroke-linecap="round" stroke-linejoin="round"/>
<path d="M988.291 539.097C984.452 532.279 955.081 518.171 935.352 541.375L938.795 544.63L962.897 569.64C962.897 569.64 965.359 562.22 970.593 566.386C974.036 569.12 972.521 575.043 971.075 575.499C969.629 575.954 966.254 580.494 966.254 580.494L976.842 586.401C976.842 586.401 982.627 578.672 989.358 569.575C996.09 560.479 992.147 545.932 988.291 539.097Z" fill="#263238" stroke="#263238" stroke-linecap="round" stroke-linejoin="round"/>
<path d="M939.477 569.397C940.19 569.397 940.768 568.143 940.768 566.598C940.768 565.052 940.19 563.799 939.477 563.799C938.764 563.799 938.186 565.052 938.186 566.598C938.186 568.143 938.764 569.397 939.477 569.397Z" fill="#263238"/>
<path d="M937.809 559.598C938.781 559.318 939.817 559.301 940.8 559.549C941.782 559.796 942.672 560.298 943.369 560.997" stroke="#263238" stroke-linecap="round" stroke-linejoin="round"/>
<path d="M937.061 580.612C939.51 580.981 942.017 580.483 944.102 579.213" stroke="#263238" stroke-linecap="round" stroke-linejoin="round"/>
<path d="M939.828 660.326L888.042 664.28L871.394 662.816C871.394 662.816 848.463 670.187 852.939 671.603C856.113 672.407 859.459 672.373 862.614 671.505C866.924 673.121 871.51 673.981 876.146 674.044C879.912 674.007 883.659 673.532 887.302 672.628L945.079 680.846L939.828 660.326Z" fill="#263238" stroke="#263238" stroke-linecap="round" stroke-linejoin="round"/>
<path d="M977.7 598.235C977.7 598.235 947.865 625.524 943.061 632.407C938.258 639.29 936.313 645.132 936.313 651.055C936.313 656.978 940.651 670.159 940.651 670.159L934.866 689.686L918.115 704.217L944.576 744.247C944.576 744.247 956.628 746.525 964.805 741.969C972.983 737.412 978.268 717.869 978.268 708.317C978.268 698.766 976.34 678.295 976.34 678.295C976.34 678.295 987.41 645.539 990.784 633.269C994.159 621 994.641 610.065 991.266 604.158C987.892 598.251 982.521 595.062 977.7 598.235Z" fill="#23BB4E" stroke="#263238" stroke-linecap="round" stroke-linejoin="round"/>
<path d="M862.193 826.58L845.803 843.861C845.803 843.861 833.287 847.506 831.359 849.312C829.43 851.119 833.287 852.046 838.107 853.869C842.928 855.691 860.729 852.957 866.497 852.502C872.264 852.046 877.567 852.502 879.495 847.962C881.423 843.422 879.495 838.41 879.013 836.571L876.12 825.652L862.193 826.58Z" fill="white" stroke="#263238" stroke-linecap="round" stroke-linejoin="round"/>
<path d="M845.038 844.107C842.249 844.937 832.987 847.784 831.403 849.314C829.492 851.136 833.331 852.048 838.152 853.87C842.972 855.693 860.774 852.959 866.541 852.503C872.309 852.048 877.611 852.503 879.539 847.963C881.468 843.423 879.539 838.411 879.057 836.573C879.057 836.361 878.919 836.052 878.816 835.678C870.415 840.657 856.125 846.125 852.992 846.125C850.247 845.84 847.565 845.159 845.038 844.107Z" fill="#23BB4E" stroke="#263238" stroke-linecap="round" stroke-linejoin="round"/>
<path d="M813.594 796.559C813.594 796.559 794.829 816.085 792.419 818.852C790.008 821.618 782.795 822.48 783.277 825.67C783.759 828.859 791.455 827.948 794.829 827.492C798.203 827.037 819.379 822.025 822.254 821.114C825.129 820.202 829.003 818.852 829.485 814.751C829.967 810.65 826.593 800.187 826.593 800.187L813.594 796.559Z" fill="white" stroke="#263238" stroke-linecap="round" stroke-linejoin="round"/>
<path d="M829.485 814.753C829.777 812.198 828.572 807.17 827.642 803.736C822.908 805.917 818.346 811.873 816.004 812.93C813.112 814.297 790.972 821.066 790.972 821.066L789.974 820.529C786.944 822.157 782.915 823.214 783.277 825.623C783.759 828.796 791.454 827.901 794.829 827.445C798.203 826.99 819.379 821.978 822.254 821.066C825.129 820.155 829.002 818.853 829.485 814.753Z" fill="#23BB4E" stroke="#263238" stroke-linecap="round" stroke-linejoin="round"/>
<path d="M969.06 622.085L955.614 664.637L888.041 664.312L887.301 672.66C887.301 672.66 955.149 685.678 959.78 685.678C964.412 685.678 969.525 684.376 971.384 681.3C973.243 678.225 992.732 632.613 993.662 622.524C994.591 612.436 992.267 604.983 988.084 602.786C983.9 600.589 975.568 604.544 972.779 608.921" fill="#23BB4E"/>
<path d="M969.06 622.085L955.614 664.637L888.041 664.312L887.301 672.66C887.301 672.66 955.149 685.678 959.78 685.678C964.412 685.678 969.525 684.376 971.384 681.3C973.243 678.225 992.732 632.613 993.662 622.524C994.591 612.436 992.267 604.983 988.084 602.786C983.9 600.589 975.568 604.544 972.779 608.921" stroke="#263238" stroke-linecap="round" stroke-linejoin="round"/>
<path d="M888.044 664.284C888.044 664.284 868.917 660.297 866.128 660.362C863.339 660.427 849.17 669.052 849.188 670.37C849.205 671.688 852.941 671.606 852.941 671.606L859.414 671.037L866.3 669.572C869.184 670.396 872.149 670.941 875.149 671.2C877.472 671.05 879.777 670.707 882.036 670.174L887.201 672.697L888.044 664.284Z" fill="white" stroke="#263238" stroke-linecap="round" stroke-linejoin="round"/>
<path d="M1008.93 609.395L1001.18 608.988C1001.18 608.988 981.384 663.094 978.801 683.434C976.219 703.775 977.08 720.861 978.371 726.556C979.662 732.252 986.548 743.235 986.548 743.235L995.156 745.269C995.156 745.269 986.118 723.302 985.688 717.2C985.257 711.097 986.376 686.884 986.979 683.841C991.713 660.246 1008.93 609.395 1008.93 609.395Z" fill="white" stroke="#263238" stroke-linecap="round" stroke-linejoin="round"/>
<path d="M939.633 816.869C939.633 816.869 897.024 837.21 896.163 841.766C895.68 845.141 895.68 848.561 896.163 851.936L897.661 850.504L901.758 841.359L940.064 824.273L939.633 816.869Z" fill="white" stroke="#263238" stroke-linecap="round" stroke-linejoin="round"/>
<path d="M899.18 854.7C901.794 854.7 903.914 852.696 903.914 850.225C903.914 847.753 901.794 845.75 899.18 845.75C896.565 845.75 894.445 847.753 894.445 850.225C894.445 852.696 896.565 854.7 899.18 854.7Z" fill="#263238" stroke="#263238" stroke-linecap="round" stroke-linejoin="round"/>
<path d="M952.116 816.869C952.116 816.869 994.726 837.21 995.587 841.766C996.069 845.141 996.069 848.561 995.587 851.936L994.072 850.504L989.991 841.359L951.686 824.192L952.116 816.869Z" fill="white" stroke="#263238" stroke-linecap="round" stroke-linejoin="round"/>
<path d="M992.574 854.7C995.189 854.7 997.309 852.696 997.309 850.225C997.309 847.753 995.189 845.75 992.574 845.75C989.96 845.75 987.84 847.753 987.84 850.225C987.84 852.696 989.96 854.7 992.574 854.7Z" fill="#263238" stroke="#263238" stroke-linecap="round" stroke-linejoin="round"/>
<path d="M948.67 750.557H941.783V821.341H948.67V750.557Z" fill="white" stroke="#263238" stroke-linecap="round" stroke-linejoin="round"/>
<path d="M955.565 757.471H935.336V770.489H955.565V757.471Z" fill="#263238" stroke="#263238" stroke-linecap="round" stroke-linejoin="round"/>
<path d="M993.507 744.376C978.615 742.895 930.582 738.957 887.542 744.376C887.16 744.414 886.799 744.557 886.503 744.788C886.207 745.018 885.989 745.325 885.875 745.671C885.762 746.017 885.758 746.387 885.864 746.736C885.971 747.084 886.183 747.395 886.474 747.63C891.054 751.715 903.69 759.135 936.625 761.169C970.592 763.268 987.946 753.423 994.694 748.151C995.068 747.899 995.348 747.543 995.497 747.133C995.646 746.722 995.656 746.279 995.525 745.863C995.394 745.447 995.129 745.081 994.767 744.814C994.406 744.548 993.965 744.394 993.507 744.376Z" fill="white" stroke="#263238" stroke-linecap="round" stroke-linejoin="round"/>
<path d="M886.44 747.564C886.791 747.884 887.261 748.06 887.749 748.052H994.488C994.822 747.787 995.065 747.434 995.188 747.039C995.311 746.643 995.308 746.222 995.18 745.828C995.051 745.434 994.803 745.085 994.466 744.823C994.128 744.562 993.717 744.4 993.283 744.358C978.357 742.894 930.358 738.956 887.318 744.358C886.963 744.432 886.637 744.596 886.375 744.834C886.114 745.072 885.927 745.374 885.836 745.706C885.745 746.038 885.753 746.388 885.86 746.716C885.967 747.044 886.167 747.337 886.44 747.564Z" fill="#23BB4E" stroke="#263238" stroke-linecap="round" stroke-linejoin="round"/>
<path d="M953.417 810.355H937.492V826.221H953.417V810.355Z" fill="#263238" stroke="#263238" stroke-linecap="round" stroke-linejoin="round"/>
<path d="M946.11 818.285H943.734V854.703H946.11V818.285Z" fill="white" stroke="#263238" stroke-linecap="round" stroke-linejoin="round"/>
<path d="M946.979 845.195H942.812V854.731H946.979V845.195Z" fill="#263238" stroke="#263238" stroke-linecap="round" stroke-linejoin="round"/>
<path d="M961.588 748.116H952.119L946.094 693.604H952.55L961.588 748.116Z" fill="white" stroke="#263238" stroke-linecap="round" stroke-linejoin="round"/>
<path d="M977.944 697.265H912.953C912.953 697.265 917.688 689.128 920.7 688.315C923.713 687.501 972.779 688.315 972.779 688.315C972.779 688.315 977.944 689.942 977.944 697.265Z" fill="#23BB4E" stroke="#263238" stroke-linecap="round" stroke-linejoin="round"/>
<path d="M912.953 697.266H977.944C977.939 696.586 977.887 695.907 977.789 695.232H914.227C913.452 696.404 912.953 697.266 912.953 697.266Z" fill="white" stroke="#263238" stroke-linecap="round" stroke-linejoin="round"/>
<path d="M672.119 606.547H584.318C582.912 606.549 581.521 606.816 580.226 607.334C578.932 607.852 577.76 608.609 576.779 609.561C575.799 610.513 575.03 611.641 574.519 612.879C574.007 614.116 573.762 615.438 573.799 616.766L576.949 721.397L573.506 744.504H683.155L677.99 721.397L682.69 616.913C682.751 615.568 682.522 614.225 682.017 612.966C681.512 611.707 680.743 610.559 679.754 609.589C678.766 608.62 677.58 607.851 676.267 607.328C674.955 606.805 673.544 606.539 672.119 606.547Z" fill="white" stroke="#263238" stroke-linecap="round" stroke-linejoin="round"/>
<path d="M668.103 612.844H588.272C586.96 612.872 585.667 613.15 584.47 613.66C583.274 614.17 582.198 614.902 581.307 615.813C580.416 616.724 579.727 617.794 579.282 618.962C578.837 620.129 578.645 621.368 578.717 622.607L581.558 721.869L578.441 743.804H678.071L673.388 721.869L677.658 622.689C677.739 621.444 677.554 620.196 677.114 619.021C676.673 617.845 675.986 616.765 675.094 615.846C674.202 614.927 673.124 614.188 671.922 613.672C670.721 613.156 669.422 612.874 668.103 612.844Z" fill="#23BB4E" stroke="#263238" stroke-linecap="round" stroke-linejoin="round"/>
<path d="M572.933 694.711L567.338 742.714H572.072L577.668 694.711H572.933Z" fill="white" stroke="#263238" stroke-linecap="round" stroke-linejoin="round"/>
<path d="M683.113 694.711L688.709 742.714H683.974L678.379 694.711H683.113Z" fill="white" stroke="#263238" stroke-linecap="round" stroke-linejoin="round"/>
<path d="M580.97 685.682H570.072C568.988 685.682 568.109 686.512 568.109 687.537V693.639C568.109 694.663 568.988 695.494 570.072 695.494H580.97C582.054 695.494 582.932 694.663 582.932 693.639V687.537C582.932 686.512 582.054 685.682 580.97 685.682Z" fill="white" stroke="#263238" stroke-linecap="round" stroke-linejoin="round"/>
<path d="M580.97 685.682H570.055C569.798 685.682 569.544 685.73 569.306 685.823C569.069 685.917 568.854 686.053 568.673 686.226C568.492 686.398 568.349 686.603 568.253 686.828C568.156 687.053 568.107 687.294 568.109 687.537V693.102H582.915V687.537C582.918 687.294 582.869 687.053 582.772 686.828C582.675 686.603 582.532 686.398 582.352 686.226C582.171 686.053 581.955 685.917 581.718 685.823C581.481 685.73 581.227 685.682 580.97 685.682Z" fill="#23BB4E" stroke="#263238" stroke-linecap="round" stroke-linejoin="round"/>
<path d="M686.278 685.682H675.381C674.297 685.682 673.418 686.512 673.418 687.537V693.639C673.418 694.663 674.297 695.494 675.381 695.494H686.278C687.362 695.494 688.241 694.663 688.241 693.639V687.537C688.241 686.512 687.362 685.682 686.278 685.682Z" fill="white" stroke="#263238" stroke-linecap="round" stroke-linejoin="round"/>
<path d="M686.28 685.682H675.365C674.844 685.682 674.345 685.877 673.977 686.225C673.609 686.573 673.402 687.045 673.402 687.537V693.102H688.225V687.537C688.225 687.048 688.021 686.578 687.657 686.231C687.292 685.883 686.798 685.686 686.28 685.682Z" fill="#23BB4E" stroke="#263238" stroke-linecap="round" stroke-linejoin="round"/>
<path d="M626.387 814.719C626.387 814.719 583.778 835.059 582.917 839.534C582.434 842.909 582.434 846.33 582.917 849.704L584.415 848.289L588.512 839.127L626.818 822.041L626.387 814.719Z" fill="white" stroke="#263238" stroke-linecap="round" stroke-linejoin="round"/>
<path d="M585.93 852.553C588.544 852.553 590.664 850.55 590.664 848.078C590.664 845.607 588.544 843.604 585.93 843.604C583.315 843.604 581.195 845.607 581.195 848.078C581.195 850.55 583.315 852.553 585.93 852.553Z" fill="#263238" stroke="#263238" stroke-linecap="round" stroke-linejoin="round"/>
<path d="M638.874 814.719C638.874 814.719 681.484 835.059 682.344 839.534C682.827 842.909 682.827 846.33 682.344 849.704L680.829 848.289L676.749 839.127L638.443 822.041L638.874 814.719Z" fill="white" stroke="#263238" stroke-linecap="round" stroke-linejoin="round"/>
<path d="M679.332 852.553C681.947 852.553 684.066 850.55 684.066 848.078C684.066 845.607 681.947 843.604 679.332 843.604C676.717 843.604 674.598 845.607 674.598 848.078C674.598 850.55 676.717 852.553 679.332 852.553Z" fill="#263238" stroke="#263238" stroke-linecap="round" stroke-linejoin="round"/>
<path d="M635.429 748.408H628.543V819.193H635.429V748.408Z" fill="white" stroke="#263238" stroke-linecap="round" stroke-linejoin="round"/>
<path d="M642.319 755.326H622.09V768.344H642.319V755.326Z" fill="#263238" stroke="#263238" stroke-linecap="round" stroke-linejoin="round"/>
<path d="M688.368 742.259C671.634 740.794 616.336 736.807 566.684 742.259C566.258 742.309 565.856 742.479 565.532 742.745C565.207 743.012 564.973 743.364 564.861 743.757C564.748 744.149 564.762 744.564 564.899 744.95C565.037 745.335 565.293 745.673 565.634 745.92C571.35 750.069 586.19 757.067 622.705 759.019C661.734 761.118 681.671 751.274 689.435 746.001C689.819 745.768 690.114 745.425 690.279 745.022C690.443 744.62 690.467 744.178 690.349 743.761C690.23 743.345 689.974 742.974 689.618 742.704C689.261 742.434 688.824 742.278 688.368 742.259Z" fill="white" stroke="#263238" stroke-linecap="round" stroke-linejoin="round"/>
<path d="M565.598 745.853L565.77 745.967H689.364H689.45C689.801 745.722 690.065 745.382 690.206 744.992C690.348 744.601 690.361 744.18 690.243 743.783C690.125 743.386 689.883 743.032 689.547 742.768C689.212 742.504 688.8 742.343 688.365 742.306C671.614 740.841 616.333 736.854 566.682 742.306C566.276 742.364 565.896 742.532 565.588 742.788C565.279 743.044 565.054 743.378 564.94 743.752C564.826 744.125 564.827 744.521 564.944 744.893C565.06 745.265 565.287 745.599 565.598 745.853Z" fill="#23BB4E" stroke="#263238" stroke-linecap="round" stroke-linejoin="round"/>
<path d="M640.157 808.213H624.232V824.078H640.157V808.213Z" fill="#263238" stroke="#263238" stroke-linecap="round" stroke-linejoin="round"/>
<path d="M632.854 816.146H630.479V852.564H632.854V816.146Z" fill="white" stroke="#263238" stroke-linecap="round" stroke-linejoin="round"/>
<path d="M633.723 843.064H629.557V852.6H633.723V843.064Z" fill="#263238" stroke="#263238" stroke-linecap="round" stroke-linejoin="round"/>
<path d="M596.178 673.051L586.468 709.647C586.468 709.647 570.423 725.187 568.994 734.056C567.565 742.924 606.249 824.433 606.249 824.433L622.725 822.399L613.48 740.874L642.851 740.191L642.558 822.366L659.034 824.4L686.338 743.982C686.338 743.982 689.403 734.349 687.01 728.881C682.448 718.386 668.933 709.712 668.933 709.712L655.591 673.083L596.178 673.051Z" fill="#263238" stroke="#263238" stroke-linecap="round" stroke-linejoin="round"/>
<path d="M606.321 824.366C606.199 829.234 605.576 834.079 604.461 838.832C602.74 845.455 597.885 850.434 600.071 852.924C602.258 855.414 614.533 854.991 618.923 853.754C623.313 852.517 625.947 848.775 625.947 842.559C625.947 836.343 622.796 822.332 622.796 822.332L606.321 824.366Z" fill="white" stroke="#263238" stroke-linecap="round" stroke-linejoin="round"/>
<path d="M600.074 852.927C602.261 855.417 614.536 854.994 618.926 853.757C623.316 852.52 625.95 848.778 625.95 842.562C625.898 840.382 625.697 838.208 625.347 836.053C624.82 837.781 623.761 839.323 622.305 840.482C620.849 841.641 619.062 842.365 617.17 842.562C608.906 843.766 604.791 843.001 603.156 842.562C601.09 847.297 598.301 850.926 600.074 852.927Z" fill="#23BB4E" stroke="#263238" stroke-linecap="round" stroke-linejoin="round"/>
<path d="M659.038 824.366C659.15 829.234 659.773 834.08 660.898 838.832C662.619 845.455 667.474 850.434 665.288 852.924C663.101 855.414 650.809 854.991 646.436 853.754C642.063 852.517 639.412 848.775 639.412 842.559C639.412 836.343 642.563 822.332 642.563 822.332L659.038 824.366Z" fill="white" stroke="#263238" stroke-linecap="round" stroke-linejoin="round"/>
<path d="M665.288 852.927C663.084 855.417 650.809 854.994 646.436 853.757C642.063 852.52 639.412 848.778 639.412 842.562C639.466 840.383 639.661 838.209 639.998 836.053C640.527 837.78 641.587 839.321 643.042 840.479C644.498 841.638 646.284 842.362 648.175 842.562C656.456 843.766 660.553 843.001 662.189 842.562C664.255 847.297 667.044 850.926 665.288 852.927Z" fill="#23BB4E" stroke="#263238" stroke-linecap="round" stroke-linejoin="round"/>
<path d="M607.828 587.506C607.828 587.506 580.696 595.366 578.165 598.441C575.634 601.517 541.254 647.356 536.175 652.482C531.096 657.607 530.029 663.417 530.39 665.825C530.752 668.233 534.367 673.961 534.367 673.961H549.207L559.709 658.909L585.619 633.085L596.173 673.05H655.517L664.366 631.702C664.366 631.702 683.097 661.708 683.458 662.766C683.82 663.824 689.243 672.692 699.366 672.009C709.489 671.325 708.06 658.665 703.36 648.072C698.66 637.479 680.204 601.565 674.764 596.765C669.324 591.965 640.039 585.83 640.039 585.83L607.828 587.506Z" fill="#23BB4E" stroke="#263238" stroke-linecap="round" stroke-linejoin="round"/>
<path d="M680.775 661.138C680.775 661.138 676.041 660.569 683.96 655.963C691.879 651.358 702.898 651.489 706.341 652.221C709.784 652.953 710.456 655.085 712.435 659.836C714.415 664.588 713.503 668.916 711.368 670.934C709.233 672.952 709.543 673.814 702.381 672.089C696.109 670.364 690.115 667.841 684.563 664.588C682.957 663.83 681.636 662.626 680.775 661.138Z" fill="white" stroke="#263238" stroke-linecap="round" stroke-linejoin="round"/>
<path d="M681.522 662.133C681.522 662.133 694.486 658.033 699.358 656.894C704.23 655.755 709.412 659.188 710.635 664.656C711.857 670.123 710.015 675.314 703.748 676.616C698.278 677.658 692.594 676.784 687.754 674.159C684.311 672.157 678.303 669.131 678.303 669.131L681.522 662.133Z" fill="white" stroke="#263238" stroke-linecap="round" stroke-linejoin="round"/>
<path d="M668.128 661.497C668.128 661.497 664.323 662.929 663.566 663.368C662.808 663.807 659.141 667.534 656.869 668.396C654.596 669.259 651.222 669.275 653.822 671.651C656.421 674.026 659.606 672.22 661.121 671.211C662.459 670.268 663.955 669.542 665.546 669.063C666.927 669.183 668.301 669.373 669.66 669.633C670.263 669.779 679.714 672.09 682.142 672.66C684.569 673.229 685.947 673.668 687.634 670.788C689.321 667.908 686.721 663.872 684.742 662.652C682.762 661.432 668.128 661.497 668.128 661.497Z" fill="white" stroke="#263238" stroke-linecap="round" stroke-linejoin="round"/>
<path d="M672.599 659.315C672.599 659.315 667.537 657.948 667.537 659.656C667.537 661.365 666.091 672.674 669.345 671.633C672.599 670.591 672.599 659.315 672.599 659.315Z" fill="white" stroke="#263238" stroke-linecap="round" stroke-linejoin="round"/>
<path d="M672.598 659.316C672.598 659.316 669.706 671.293 671.875 671.634C674.044 671.976 676.575 663.417 676.937 660.683C677.298 657.949 673.648 657.884 672.598 659.316Z" fill="white" stroke="#263238" stroke-linecap="round" stroke-linejoin="round"/>
<path d="M677.184 660.767C677.184 660.767 674.274 672.727 676.461 673.069C678.647 673.411 681.161 664.933 681.522 662.134C681.884 659.335 678.268 659.4 677.184 660.767Z" fill="white" stroke="#263238" stroke-linecap="round" stroke-linejoin="round"/>
<path d="M682.088 663.584C682.088 663.584 679.127 672.892 681.347 673.153C683.568 673.413 686.168 666.774 686.512 664.642C686.857 662.51 683.19 662.527 682.088 663.584Z" fill="white" stroke="#263238" stroke-linecap="round" stroke-linejoin="round"/>
<path d="M531.475 659.187C531.962 656.198 532.877 653.286 534.195 650.53C535.916 647.715 540.892 646.771 543.853 645.648C546.814 644.526 555.508 647.748 558.487 650.791C559.82 652.153 560.768 653.811 561.244 655.611C561.719 657.412 561.706 659.296 561.207 661.091C560.208 664.134 555.009 666.949 554.32 666.949C553.632 666.949 548.863 659.691 544.404 659.22C540.099 658.954 535.781 658.943 531.475 659.187Z" fill="white" stroke="#263238" stroke-linecap="round" stroke-linejoin="round"/>
<path d="M531.481 659.189C532.411 656.7 534.167 654.563 536.488 653.096C538.81 651.629 541.571 650.912 544.359 651.052C554.775 651.052 556.496 660.669 556.496 662.768C556.496 664.868 553.535 673.313 551.332 674.013C549.128 674.712 536.577 675.347 534.408 674.094C532.239 672.841 529.243 663.647 531.481 659.189Z" fill="white" stroke="#263238" stroke-linecap="round" stroke-linejoin="round"/>
<path d="M555.749 669.49C557.942 670.999 560.498 671.966 563.186 672.305C568.351 673.249 571.605 674.421 568.144 675.56C565.356 676.367 562.402 676.523 559.536 676.015C558.094 675.755 556.681 675.362 555.318 674.844L555.749 669.49Z" fill="white" stroke="#263238" stroke-linecap="round" stroke-linejoin="round"/>
<path d="M548.07 663.398C548.07 663.398 553.768 665.986 555.748 669.484C556.949 671.661 557.625 674.061 557.728 676.514H547.398L548.07 663.398Z" fill="white" stroke="#263238" stroke-linecap="round" stroke-linejoin="round"/>
<path d="M546.088 661.14C546.088 661.14 542.869 660.213 541.87 661.84C540.872 663.467 527.994 668.87 527.753 671.213C527.512 673.556 527.512 676.827 529.991 677.299C532.47 677.771 549.308 677.543 550.048 677.071C550.788 676.599 548.068 664.427 548.068 663.483C548.068 662.54 547.569 661.14 546.088 661.14Z" fill="white" stroke="#263238" stroke-linecap="round" stroke-linejoin="round"/>
<path d="M541.877 662.93L544.115 676.517" stroke="#263238" stroke-linecap="round" stroke-linejoin="round"/>
<path d="M535.438 665.992L538.175 676.992" stroke="#263238" stroke-linecap="round" stroke-linejoin="round"/>
<path d="M530.98 668.314L533.219 676.044" stroke="#263238" stroke-linecap="round" stroke-linejoin="round"/>
<path d="M597.065 538.561C597.065 538.561 589.094 565.134 589.627 573.27C590.161 581.406 614.057 591.333 628.914 593.334C643.772 595.336 664.483 578.787 666.084 573.27C667.685 567.754 667.134 551.693 661.831 540.725C656.529 529.758 645.907 510.622 633.167 510.117C620.427 509.613 602.367 515.487 597.065 538.561Z" fill="#263238" stroke="#263238" stroke-linecap="round" stroke-linejoin="round"/>
<path d="M621.223 580.672C621.223 580.672 610.36 582.039 610.36 583.406C610.36 584.773 606.021 587.848 606.021 587.848L609.637 614.177L630.985 602.558L649.44 614.86L650.163 589.215L639.317 580.672H621.223Z" fill="white" stroke="#263238" stroke-linecap="round" stroke-linejoin="round"/>
<path d="M614.706 573.824L613.621 591.61L629.184 613.155L642.94 591.61L641.494 574.508L614.706 573.824Z" fill="white" stroke="#263238" stroke-linecap="round" stroke-linejoin="round"/>
<path d="M608.223 554.328C608.223 554.328 619.809 545.443 626.317 542.026C632.824 538.609 636.078 529.008 636.078 529.008C636.078 529.008 637.163 538.576 640.795 542.351C643.285 545.143 645.354 548.248 646.942 551.578L648.388 554.653C648.388 554.653 648.749 572.097 648.026 573.122C647.303 574.147 638.247 584.415 634.253 585.099C630.259 585.782 625.645 585.44 623.407 583.732C621.169 582.023 611.459 574.831 610.736 572.439C610.013 570.047 608.223 554.328 608.223 554.328Z" fill="white" stroke="#263238" stroke-linecap="round" stroke-linejoin="round"/>
<path d="M621.217 557.611C621.217 558.864 620.597 559.873 619.822 559.873C619.048 559.873 618.428 558.864 618.428 557.611C618.428 556.358 619.065 555.35 619.822 555.35C620.58 555.35 621.217 556.358 621.217 557.611Z" fill="#263238"/>
<path d="M637.129 559.873C637.899 559.873 638.523 558.861 638.523 557.611C638.523 556.362 637.899 555.35 637.129 555.35C636.359 555.35 635.734 556.362 635.734 557.611C635.734 558.861 636.359 559.873 637.129 559.873Z" fill="#263238"/>
<path d="M625.592 569.656C625.592 569.656 630.361 571.918 633.546 569.656" stroke="#263238" stroke-linecap="round" stroke-linejoin="round"/>
<path d="M623.994 574.183C623.994 574.183 630.76 576.428 635.15 573.809" stroke="#263238" stroke-linecap="round" stroke-linejoin="round"/>
<path d="M614.838 553.858C615.606 552.782 616.703 551.953 617.983 551.482C619.263 551.011 620.664 550.92 622 551.221" stroke="#263238" stroke-linecap="round" stroke-linejoin="round"/>
<path d="M635.15 551.597C635.15 551.597 637.939 549.709 641.52 553.484" stroke="#263238" stroke-linecap="round" stroke-linejoin="round"/>
<path d="M404.649 734.432L417.991 829.625L399.914 831.252L384.42 777.96L404.649 734.432Z" fill="#263238" stroke="#263238" stroke-linecap="round" stroke-linejoin="round"/>
<path d="M323.302 699.854C323.302 699.854 399.053 709.21 408.952 714.905C418.851 720.601 410.674 730.364 410.674 731.991C410.674 733.619 383.128 831.66 383.128 831.66L362.899 827.592L371.938 738.5L352.139 740.128C352.139 740.128 279.401 739.721 268.641 736.466C257.881 733.212 256.59 715.719 258.742 709.21C260.894 702.701 260.463 701.074 260.463 701.074L323.302 699.854Z" fill="#263238" stroke="#263238" stroke-linecap="round" stroke-linejoin="round"/>
<path d="M312.58 656.078L371.442 662.847L389.863 657.689C389.863 657.689 407.716 664.963 405.099 667.225C402.482 669.487 393.323 664.361 393.323 664.361C393.323 664.361 382.994 674.368 378.914 672.497C376.246 671.353 373.383 670.67 370.46 670.479L318.227 673.734L312.58 656.078Z" fill="#263238" stroke="#263238" stroke-linecap="round" stroke-linejoin="round"/>
<path d="M273.805 581.406C273.805 581.406 258.311 595.645 255.298 607.849C252.285 620.053 252.716 632.257 253.146 633.885C253.577 635.512 259.172 697.347 260.463 701.008C261.754 704.669 279.831 706.703 290.591 706.703C301.351 706.703 319.858 703.449 323.302 699.788C326.745 696.126 325.023 682.295 322.01 675.786C318.998 669.277 306.516 609.883 305.655 602.967C304.794 596.051 304.364 594.831 299.199 589.542C294.034 584.254 282.844 579.03 273.805 581.406Z" fill="#23BB4E" stroke="#263238" stroke-linecap="round" stroke-linejoin="round"/>
<path d="M315.126 520.45C315.126 520.45 322.873 528.179 322.873 532.247C322.873 536.315 321.151 541.197 321.582 542.418C322.012 543.638 328.038 549.74 328.038 551.774C328.038 553.808 324.164 556.656 324.164 556.656C324.164 556.656 322.012 568.453 320.29 571.301C318.569 574.149 304.796 574.962 304.796 574.962L297.049 588.794L276.389 578.217L278.972 561.944C278.972 561.944 266.49 541.197 264.338 530.62C262.186 520.043 275.098 510.28 278.111 510.28C280.045 510.242 281.95 509.827 283.706 509.059C283.706 509.059 281.554 506.212 284.137 505.805C286.719 505.398 294.466 507.432 294.466 507.432C294.466 507.432 287.58 500.923 300.492 502.55C313.404 504.177 326.746 516.317 315.126 520.45Z" fill="white" stroke="#263238" stroke-linecap="round" stroke-linejoin="round"/>
<path d="M312.842 574.196C310.983 573.693 309.073 573.377 307.144 573.252C303.997 572.715 300.948 571.756 298.088 570.404L302.116 578.313L304.785 574.961L312.842 574.196Z" fill="#263238" stroke="#263238" stroke-linecap="round" stroke-linejoin="round"/>
<path d="M315.126 520.45C326.746 516.382 313.404 504.177 300.492 502.55C287.58 500.923 294.466 507.432 294.466 507.432C294.466 507.432 286.719 505.398 284.137 505.805C281.554 506.212 283.706 509.059 283.706 509.059C281.95 509.827 280.045 510.242 278.111 510.28C275.098 510.28 262.186 520.043 264.338 530.62C266.353 540.53 277.44 559.373 278.834 561.7C281.382 560.431 283.689 558.104 282.846 555.435C281.554 551.367 285.858 543.638 285.858 543.638C286.892 545.313 288.199 546.824 289.732 548.113C291.884 549.74 293.175 548.113 293.175 548.113L292.314 541.604C294.513 538.342 297.278 535.454 300.492 533.061C305.226 529.806 294.466 529.4 293.606 526.552C292.745 523.704 315.126 520.45 315.126 520.45Z" fill="#263238" stroke="#263238" stroke-linecap="round" stroke-linejoin="round"/>
<path d="M291.452 548.863C291.452 548.863 287.148 541.947 283.705 543.574C280.262 545.201 281.553 556.592 285.857 556.999C288.047 557.34 290.294 557.056 292.313 556.185" fill="white"/>
<path d="M291.452 548.863C291.452 548.863 287.148 541.947 283.705 543.574C280.262 545.201 281.553 556.592 285.857 556.999C288.047 557.34 290.294 557.056 292.313 556.185" stroke="#263238" stroke-linecap="round" stroke-linejoin="round"/>
<path d="M316.208 544.858C317.045 544.858 317.723 543.67 317.723 542.205C317.723 540.74 317.045 539.553 316.208 539.553C315.372 539.553 314.693 540.74 314.693 542.205C314.693 543.67 315.372 544.858 316.208 544.858Z" fill="#263238"/>
<path d="M312.104 538.352C312.104 538.352 315.116 534.691 318.99 536.725" stroke="#263238" stroke-linecap="round" stroke-linejoin="round"/>
<path d="M313.832 557.467C315.6 558.993 317.894 559.86 320.288 559.908" stroke="#263238" stroke-linecap="round" stroke-linejoin="round"/>
<path d="M273.802 572.928L269.498 581.064L301.348 594.895L303.5 584.318L273.802 572.928Z" fill="#23BB4E" stroke="#263238" stroke-linecap="round" stroke-linejoin="round"/>
<path d="M383.127 831.656L390.014 845.081C390.014 845.081 406.369 850.776 405.939 853.217C405.508 855.658 385.71 854.437 385.71 854.437C385.71 854.437 357.734 849.556 357.303 845.894C356.873 842.233 362.898 827.588 362.898 827.588L383.127 831.656Z" fill="white" stroke="#263238" stroke-linecap="round" stroke-linejoin="round"/>
<path d="M417.989 829.621C417.989 829.621 431.762 835.723 433.053 836.537C434.344 837.35 449.409 841.012 450.7 841.419C451.991 841.825 452.421 844.673 452.421 844.673C452.421 844.673 427.888 849.555 426.167 849.555C424.445 849.555 412.394 848.334 409.381 848.334H398.621L399.912 831.248L417.989 829.621Z" fill="white" stroke="#263238" stroke-linecap="round" stroke-linejoin="round"/>
<path d="M268.643 618.833C268.643 618.833 281.555 684.736 285.859 686.77C290.163 688.804 372.369 674.159 372.369 674.159L371.681 664.818L304.452 661.987C304.452 661.987 298.857 602.593 292.401 595.27C285.945 587.948 272.602 588.761 270.02 594.05" fill="#23BB4E"/>
<path d="M268.643 618.833C268.643 618.833 281.555 684.736 285.859 686.77C290.163 688.804 372.369 674.159 372.369 674.159L371.681 664.818L304.452 661.987C304.452 661.987 298.857 602.593 292.401 595.27C285.945 587.948 272.602 588.761 270.02 594.05" stroke="#263238" stroke-linecap="round" stroke-linejoin="round"/>
<path d="M371.598 664.853C371.598 664.853 391.775 660.101 394.547 660.215C397.318 660.329 411.315 669.246 411.263 670.564C411.212 671.882 407.493 671.719 407.493 671.719L401.02 671.02L394.133 669.393C394.133 669.393 388.642 673.802 385.853 673.688C383.526 673.487 381.221 673.095 378.966 672.517L372.372 674.16L371.598 664.853Z" fill="white" stroke="#263238" stroke-linecap="round" stroke-linejoin="round"/>
<path d="M227.316 604.657L235.064 604.25C235.064 604.25 254.862 658.356 257.445 678.696C260.027 699.037 259.166 716.123 257.875 721.818C256.584 727.513 249.697 738.497 249.697 738.497L241.52 740.873C241.52 740.873 250.128 718.498 250.558 712.396C250.989 706.294 249.869 682.081 249.267 679.038C244.532 655.508 227.316 604.657 227.316 604.657Z" fill="white" stroke="#263238" stroke-linecap="round" stroke-linejoin="round"/>
<path d="M296.616 812.129C296.616 812.129 339.226 832.469 340.087 836.944C340.569 840.319 340.569 843.74 340.087 847.115L338.589 845.683L334.491 836.537L296.186 819.451L296.616 812.129Z" fill="white" stroke="#263238" stroke-linecap="round" stroke-linejoin="round"/>
<path d="M337.074 849.965C339.689 849.965 341.809 847.962 341.809 845.491C341.809 843.019 339.689 841.016 337.074 841.016C334.46 841.016 332.34 843.019 332.34 845.491C332.34 847.962 334.46 849.965 337.074 849.965Z" fill="#263238" stroke="#263238" stroke-linecap="round" stroke-linejoin="round"/>
<path d="M284.128 812.129C284.128 812.129 241.518 832.469 240.657 836.879C240.174 840.254 240.174 843.675 240.657 847.049L242.172 845.617L246.252 836.472L284.558 819.451L284.128 812.129Z" fill="white" stroke="#263238" stroke-linecap="round" stroke-linejoin="round"/>
<path d="M243.678 849.965C246.293 849.965 248.412 847.962 248.412 845.491C248.412 843.019 246.293 841.016 243.678 841.016C241.063 841.016 238.943 843.019 238.943 845.491C238.943 847.962 241.063 849.965 243.678 849.965Z" fill="#263238" stroke="#263238" stroke-linecap="round" stroke-linejoin="round"/>
<path d="M287.58 816.59H294.467V745.805H287.58V816.59Z" fill="white" stroke="#263238" stroke-linecap="round" stroke-linejoin="round"/>
<path d="M280.689 765.74H300.918V752.722H280.689V765.74Z" fill="#263238" stroke="#263238" stroke-linecap="round" stroke-linejoin="round"/>
<path d="M242.476 739.649C257.11 738.185 305.711 734.149 349.13 739.649C349.46 739.68 349.774 739.8 350.034 739.996C350.293 740.192 350.487 740.454 350.593 740.751C350.698 741.049 350.711 741.369 350.628 741.673C350.546 741.977 350.372 742.252 350.128 742.464C345.859 746.467 333.377 754.229 299.634 756.328C265.322 758.444 247.985 748.371 241.357 743.099C241.057 742.846 240.84 742.517 240.732 742.152C240.624 741.786 240.629 741.398 240.747 741.035C240.864 740.672 241.09 740.348 241.397 740.103C241.703 739.857 242.078 739.7 242.476 739.649Z" fill="white" stroke="#263238" stroke-linecap="round" stroke-linejoin="round"/>
<path d="M349.232 743.311H241.631L241.339 743.084C241.028 742.829 240.804 742.494 240.692 742.12C240.58 741.746 240.585 741.35 240.707 740.979C240.83 740.608 241.063 740.278 241.38 740.031C241.697 739.784 242.084 739.629 242.492 739.585C257.005 738.137 304.9 734.15 348.009 739.504C348.459 739.543 348.887 739.708 349.237 739.978C349.587 740.248 349.844 740.61 349.976 741.019C350.107 741.428 350.106 741.864 349.974 742.273C349.841 742.681 349.583 743.043 349.232 743.311Z" fill="#23BB4E" stroke="#263238" stroke-linecap="round" stroke-linejoin="round"/>
<path d="M282.841 821.471H298.766V805.605H282.841V821.471Z" fill="#263238" stroke="#263238" stroke-linecap="round" stroke-linejoin="round"/>
<path d="M290.163 849.967H292.539V813.549H290.163V849.967Z" fill="white" stroke="#263238" stroke-linecap="round" stroke-linejoin="round"/>
<path d="M289.267 849.996H293.434V840.461H289.267V849.996Z" fill="#263238" stroke="#263238" stroke-linecap="round" stroke-linejoin="round"/>
<path d="M274.664 743.38H284.133L290.159 688.867H283.702L274.664 743.38Z" fill="white" stroke="#263238" stroke-linecap="round" stroke-linejoin="round"/>
<path d="M258.311 692.528H323.301C323.301 692.528 318.567 684.392 315.554 683.578C312.541 682.765 263.475 683.578 263.475 683.578C263.475 683.578 258.311 685.206 258.311 692.528Z" fill="#23BB4E" stroke="#263238" stroke-linecap="round" stroke-linejoin="round"/>
<path d="M323.301 692.526H258.311C258.314 691.846 258.366 691.166 258.465 690.492H322.027C322.802 691.664 323.301 692.526 323.301 692.526Z" fill="white" stroke="#263238" stroke-linecap="round" stroke-linejoin="round"/>
<path d="M584.714 677.525H681.537V674.32H584.714V677.525Z" fill="white" stroke="#263238" stroke-linecap="round" stroke-linejoin="round"/>
<path d="M680.416 572.26H578.186C574.621 572.26 571.73 574.992 571.73 578.362V660.31C571.73 663.68 574.621 666.412 578.186 666.412H680.416C683.981 666.412 686.872 663.68 686.872 660.31V578.362C686.872 574.992 683.981 572.26 680.416 572.26Z" fill="white" stroke="#263238" stroke-linecap="round" stroke-linejoin="round"/>
<path d="M638.582 623.684H620.006V677.464H638.582V623.684Z" fill="#263238" stroke="#263238" stroke-linecap="round" stroke-linejoin="round"/>
<path d="M894.686 674.387H840.559V677.43H894.686V674.387Z" fill="white" stroke="#263238" stroke-linecap="round" stroke-linejoin="round"/>
<path d="M807.946 676.759H784.342C782.34 676.758 780.415 676.032 778.961 674.731C777.507 673.429 776.636 671.651 776.526 669.762C776.491 668.932 776.596 668.103 776.836 667.305L791.625 627.096C791.775 626.688 792.091 626.353 792.503 626.166C792.915 625.978 793.388 625.953 793.82 626.095C794.251 626.237 794.605 626.536 794.804 626.925C795.002 627.314 795.029 627.762 794.879 628.17L780.107 668.297C779.996 668.717 779.95 669.15 779.969 669.583C780.031 670.641 780.518 671.636 781.331 672.365C782.144 673.094 783.222 673.502 784.342 673.505H807.946C808.402 673.505 808.84 673.676 809.163 673.981C809.486 674.286 809.667 674.7 809.667 675.132C809.667 675.563 809.486 675.977 809.163 676.282C808.84 676.588 808.402 676.759 807.946 676.759Z" fill="#263238" stroke="#263238" stroke-linecap="round" stroke-linejoin="round"/>
<path d="M801.849 572.082L827.931 666.462L825.16 668.447C825.16 668.447 792.346 644.185 792.346 623.958C792.346 603.732 798.061 572.717 798.061 572.717L801.849 572.082Z" fill="white" stroke="#263238" stroke-linecap="round" stroke-linejoin="round"/>
<path d="M801.842 572.082L797.951 572.717L825.066 668.447L827.924 666.429L801.842 572.082Z" fill="#263238" stroke="#263238" stroke-linecap="round" stroke-linejoin="round"/>
<path d="M377.08 677.445H431.207V674.402H377.08V677.445Z" fill="white" stroke="#263238" stroke-linecap="round" stroke-linejoin="round"/>
<path d="M463.839 676.759H487.442C489.445 676.762 491.373 676.037 492.828 674.735C494.282 673.433 495.152 671.653 495.258 669.762C495.293 668.932 495.189 668.103 494.948 667.305L480.16 627.096C480.009 626.688 479.693 626.353 479.281 626.166C478.87 625.978 478.396 625.953 477.965 626.095C477.533 626.237 477.179 626.536 476.981 626.925C476.782 627.314 476.755 627.762 476.906 628.17L491.677 668.297C491.788 668.717 491.834 669.15 491.815 669.583C491.753 670.641 491.266 671.636 490.453 672.365C489.64 673.094 488.563 673.502 487.442 673.505H463.839C463.382 673.505 462.944 673.676 462.621 673.981C462.299 674.286 462.117 674.7 462.117 675.132C462.117 675.563 462.299 675.977 462.621 676.282C462.944 676.588 463.382 676.759 463.839 676.759Z" fill="#263238" stroke="#263238" stroke-linecap="round" stroke-linejoin="round"/>
<path d="M469.936 572.082L443.871 666.462L446.712 668.48C446.712 668.48 479.526 644.217 479.526 623.991C479.526 603.764 473.827 572.749 473.827 572.749L469.936 572.082Z" fill="white" stroke="#263238" stroke-linecap="round" stroke-linejoin="round"/>
<path d="M469.936 572.082L473.827 572.717L446.712 668.447L443.871 666.429L469.936 572.082Z" fill="#263238" stroke="#263238" stroke-linecap="round" stroke-linejoin="round"/>
<path d="M370.651 686.281L377.985 704.181C380.602 709.241 381.618 717.849 380.912 723.447L363.696 852.341C363.65 852.69 363.683 853.044 363.792 853.381C363.901 853.717 364.085 854.028 364.33 854.292C364.576 854.557 364.878 854.769 365.217 854.915C365.556 855.061 365.923 855.138 366.296 855.139C366.912 855.139 367.508 854.935 367.982 854.564C368.457 854.193 368.779 853.677 368.895 853.105L401.64 688.006H389.589L387.472 697.493C387.382 697.831 387.181 698.133 386.896 698.355C386.612 698.576 386.259 698.706 385.891 698.724C385.523 698.742 385.158 698.648 384.851 698.456C384.543 698.264 384.309 697.983 384.183 697.655L380.206 685.549L370.651 686.281Z" fill="white" stroke="#263238" stroke-linecap="round" stroke-linejoin="round"/>
<path d="M896.586 686.282L889.252 704.182C886.653 709.243 885.637 717.851 886.326 723.448L903.542 852.342C903.585 852.692 903.55 853.047 903.439 853.383C903.327 853.72 903.142 854.03 902.895 854.294C902.648 854.558 902.345 854.77 902.006 854.916C901.666 855.062 901.298 855.139 900.925 855.141C900.312 855.136 899.72 854.931 899.249 854.56C898.778 854.189 898.458 853.676 898.342 853.107L865.494 688.007H877.545L879.663 697.494C879.757 697.826 879.96 698.122 880.242 698.338C880.525 698.555 880.873 698.681 881.236 698.7C881.599 698.718 881.959 698.626 882.264 698.439C882.569 698.252 882.804 697.978 882.934 697.657L887.014 685.566L896.586 686.282Z" fill="white" stroke="#263238" stroke-linecap="round" stroke-linejoin="round"/>
<path d="M630.902 855.24C629.78 855.24 628.702 854.824 627.901 854.082C627.099 853.34 626.637 852.33 626.615 851.269L623.258 683.176H638.546L635.102 851.269C635.085 852.317 634.636 853.317 633.852 854.058C633.068 854.799 632.01 855.223 630.902 855.24Z" fill="white" stroke="#263238" stroke-linecap="round" stroke-linejoin="round"/>
<path d="M910.376 677.365H357.74V687.942H910.376V677.365Z" fill="white" stroke="#263238" stroke-linecap="round" stroke-linejoin="round"/>
</g>
</svg>
