<svg width="120" height="125" viewBox="0 0 120 125" fill="none" xmlns="http://www.w3.org/2000/svg">
<g filter="url(#filter0_d_3962_19647)">
<path fill-rule="evenodd" clip-rule="evenodd" d="M71.6621 15C70.1893 15 68.9955 16.1939 68.9955 17.6667C68.9955 19.1394 70.1893 20.3333 71.6621 20.3333H73.2845C71.972 21.5291 70.2005 23.0177 67.9235 24.6792C61.9712 29.0228 52.5492 34.5601 38.8189 39.1368C37.4217 39.6027 36.6666 41.1128 37.1324 42.5099C37.5981 43.9072 39.1083 44.6621 40.5055 44.1965C54.7752 39.44 64.6864 33.6438 71.0675 28.9874C73.5733 27.1588 75.5325 25.5077 76.9955 24.1669V25.6667C76.9955 27.1394 78.1893 28.3333 79.6621 28.3333C81.1349 28.3333 82.3288 27.1394 82.3288 25.6667V17.6667C82.3288 16.1939 81.1349 15 79.6621 15H71.6621ZM78.3333 33.6667H78.2752C77.7037 33.6666 77.1789 33.6666 76.7381 33.6967C76.2645 33.729 75.7435 33.8026 75.2141 34.0219C74.0707 34.4955 73.1621 35.404 72.6885 36.5475C72.4693 37.0768 72.3957 37.5976 72.3635 38.0715C72.3333 38.5123 72.3333 39.0371 72.3333 39.6085V39.6667V63.7248C72.3333 64.2963 72.3333 64.8211 72.3635 65.2619C72.3957 65.7357 72.4693 66.2565 72.6885 66.7859C73.1621 67.9293 74.0707 68.8379 75.2141 69.3115C75.7435 69.5307 76.2645 69.6043 76.7381 69.6365C77.1789 69.6667 77.704 69.6667 78.2752 69.6667H78.3915C78.9627 69.6667 79.4877 69.6667 79.9285 69.6365C80.4024 69.6043 80.9232 69.5307 81.4525 69.3115C82.596 68.8379 83.5045 67.9293 83.9781 66.7859C84.1973 66.2565 84.2709 65.7357 84.3032 65.2619C84.3333 64.8211 84.3333 64.2963 84.3333 63.7251V39.6085C84.3333 39.0373 84.3333 38.5123 84.3032 38.0715C84.2709 37.5976 84.1973 37.0768 83.9781 36.5475C83.5045 35.404 82.596 34.4955 81.4525 34.0219C80.9232 33.8026 80.4024 33.729 79.9285 33.6967C79.4877 33.6666 78.9629 33.6666 78.3915 33.6667H78.3333ZM59.6085 43H59.6667H59.7248C60.2963 43 60.8211 43 61.2619 43.0301C61.7357 43.0624 62.2565 43.136 62.7859 43.3552C63.9293 43.8288 64.8379 44.7373 65.3115 45.8808C65.5307 46.4101 65.6043 46.9309 65.6365 47.4048C65.6667 47.8456 65.6667 48.3704 65.6667 48.9419V63.7248C65.6667 64.2963 65.6667 64.8211 65.6365 65.2619C65.6043 65.7357 65.5307 66.2565 65.3115 66.7859C64.8379 67.9293 63.9293 68.8379 62.7859 69.3115C62.2565 69.5307 61.7357 69.6043 61.2619 69.6365C60.8211 69.6667 60.296 69.6667 59.7248 69.6667H59.6085C59.0373 69.6667 58.5123 69.6667 58.0715 69.6365C57.5979 69.6043 57.0768 69.5307 56.5475 69.3115C55.404 68.8379 54.4955 67.9293 54.0219 66.7859C53.8026 66.2565 53.729 65.7357 53.6967 65.2619C53.6666 64.8211 53.6666 64.2963 53.6667 63.7248V49V48.9419C53.6666 48.3704 53.6666 47.8456 53.6967 47.4048C53.729 46.9309 53.8026 46.4101 54.0219 45.8808C54.4955 44.7373 55.404 43.8288 56.5475 43.3552C57.0768 43.136 57.5979 43.0624 58.0715 43.0301C58.5123 43 59.0371 43 59.6085 43ZM41 49.6667H40.942C40.3706 49.6667 39.8456 49.6667 39.4048 49.6968C38.9311 49.7291 38.4102 49.8027 37.8808 50.0219C36.7374 50.4955 35.8289 51.404 35.3552 52.5475C35.136 53.0768 35.0623 53.5976 35.03 54.0715C34.9999 54.5123 35 55.0371 35 55.6085V55.6667V63.7248C35 64.2963 34.9999 64.8211 35.03 65.2619C35.0623 65.7357 35.136 66.2565 35.3552 66.7859C35.8289 67.9293 36.7374 68.8379 37.8808 69.3115C38.4102 69.5307 38.9311 69.6043 39.4048 69.6365C39.8456 69.6667 40.3705 69.6667 40.9418 69.6667H41.058C41.6294 69.6667 42.1544 69.6667 42.5952 69.6365C43.0689 69.6043 43.5898 69.5307 44.1192 69.3115C45.2627 68.8379 46.1711 67.9293 46.6448 66.7859C46.864 66.2565 46.9377 65.7357 46.97 65.2619C47.0001 64.8211 47.0001 64.296 47 63.7248V55.6085C47.0001 55.0373 47.0001 54.5123 46.97 54.0715C46.9377 53.5976 46.864 53.0768 46.6448 52.5475C46.1711 51.404 45.2627 50.4955 44.1192 50.0219C43.5898 49.8027 43.0689 49.7291 42.5952 49.6968C42.1544 49.6667 41.6295 49.6667 41.0581 49.6667H41Z" fill="#23BB4E"/>
</g>
<defs>
<filter id="filter0_d_3962_19647" x="-7.33301" y="-4.66602" width="134" height="134" filterUnits="userSpaceOnUse" color-interpolation-filters="sRGB">
<feFlood flood-opacity="0" result="BackgroundImageFix"/>
<feColorMatrix in="SourceAlpha" type="matrix" values="0 0 0 0 0 0 0 0 0 0 0 0 0 0 0 0 0 0 127 0" result="hardAlpha"/>
<feOffset dy="20"/>
<feGaussianBlur stdDeviation="17.5"/>
<feComposite in2="hardAlpha" operator="out"/>
<feColorMatrix type="matrix" values="0 0 0 0 0.2 0 0 0 0 0.517647 0 0 0 0 1 0 0 0 0.2 0"/>
<feBlend mode="normal" in2="BackgroundImageFix" result="effect1_dropShadow_3962_19647"/>
<feBlend mode="normal" in="SourceGraphic" in2="effect1_dropShadow_3962_19647" result="shape"/>
</filter>
</defs>
</svg>
