<svg width="40" height="40" viewBox="0 0 40 40" fill="none" xmlns="http://www.w3.org/2000/svg">
<path d="M31.6654 14.9991C31.6661 12.9906 31.1483 11.0159 30.1621 9.26622C29.1759 7.51653 27.7547 6.05107 26.036 5.0117C24.3173 3.97234 22.3595 3.39428 20.3519 3.33347C18.3443 3.27267 16.355 3.73118 14.5766 4.66463C12.7982 5.59807 11.2909 6.97484 10.2006 8.66164C9.11033 10.3484 8.47397 12.2882 8.35316 14.293C8.23234 16.2979 8.63116 18.3 9.51101 20.1055C10.3909 21.911 11.7219 23.4588 13.3754 24.5991L8.33203 33.3324L12.092 33.4874L14.1054 36.6658L19.882 26.6591L19.9987 26.6658C20.057 26.6691 20.0754 26.6608 20.1154 26.6591L25.892 36.6658L27.9454 33.5558L31.6654 33.3324L26.622 24.5991C28.178 23.5278 29.4502 22.0941 30.3288 20.4217C31.2074 18.7492 31.6661 16.8883 31.6654 14.9991ZM11.6654 14.9991C11.6654 13.3509 12.1541 11.7397 13.0698 10.3693C13.9855 8.99893 15.287 7.93083 16.8097 7.3001C18.3324 6.66937 20.0079 6.50434 21.6245 6.82588C23.241 7.14742 24.7258 7.9411 25.8913 9.10654C27.0567 10.272 27.8504 11.7568 28.1719 13.3733C28.4935 14.9898 28.3284 16.6654 27.6977 18.1881C27.067 19.7108 25.9989 21.0123 24.6285 21.928C23.258 22.8437 21.6469 23.3324 19.9987 23.3324C17.7886 23.3324 15.6689 22.4545 14.1061 20.8916C12.5433 19.3288 11.6654 17.2092 11.6654 14.9991Z" fill="#23BB4E"/>
<path d="M20 20C22.7614 20 25 17.7614 25 15C25 12.2386 22.7614 10 20 10C17.2386 10 15 12.2386 15 15C15 17.7614 17.2386 20 20 20Z" fill="#23BB4E"/>
</svg>
