<svg width="54" height="54" viewBox="0 0 54 54" fill="none" xmlns="http://www.w3.org/2000/svg">
<g clip-path="url(#clip0_588_3778)">
<mask id="path-1-inside-1_588_3778" fill="white">
<path d="M53.4316 0.354691C52.9585 -0.11823 52.1916 -0.11823 51.7182 0.354691L48.5822 3.49069L47.64 2.54844C47.4127 2.32126 47.1046 2.19364 46.7834 2.19364C46.4621 2.19364 46.154 2.32136 45.9268 2.54844L30.0782 18.397L29.4786 17.7975C29.0054 17.3246 28.2386 17.3246 27.7653 17.7975L26.7053 18.8575L25.2063 17.3584L25.5489 17.0158C26.0219 16.5427 26.0219 15.7757 25.5489 15.3024C25.0757 14.8295 24.3087 14.8295 23.8355 15.3024L21.4371 17.7011C20.964 18.1741 20.964 18.9412 21.4371 19.4144C21.6736 19.6509 21.9837 19.7692 22.2937 19.7692C22.6037 19.7692 22.9138 19.6509 23.1503 19.4144L23.4929 19.0719L24.9919 20.5708L19.8605 25.7022L15.2025 21.0441C14.8364 20.6782 14.2781 20.5851 13.8132 20.8127C13.3483 21.0404 13.0792 21.5384 13.144 22.052L14.3033 31.2594L13.6313 31.9313C13.1583 32.4044 13.1583 33.1714 13.6313 33.6447L14.231 34.2444L12.2993 36.1761L1.70612 33.6439C1.17888 33.5179 0.631921 33.7575 0.36709 34.2308C0.102364 34.7039 0.184418 35.2954 0.567691 35.6787L6.68202 41.7932L6.52287 41.9523C6.04984 42.4254 6.04984 43.1924 6.52287 43.6657L15.7741 52.9169C15.9731 53.1159 16.2349 53.2393 16.515 53.2661L24.0959 53.9943C24.1348 53.9981 24.1737 53.9999 24.2123 53.9999C24.6775 53.9999 25.1063 53.732 25.3076 53.3052C25.5257 52.8429 25.4299 52.2934 25.0685 51.9319L16.3739 43.2374L19.799 39.8123L20.9127 40.9259C20.9218 40.935 20.9316 40.9427 20.9409 40.9513L28.495 48.5053C28.8564 48.8666 29.4061 48.9623 29.8683 48.7444C30.3306 48.5263 30.6064 48.0417 30.5575 47.5329L29.8293 39.952C29.8024 39.6719 29.679 39.41 29.4801 39.2112L26.9104 36.6414L36.7601 26.7916C37.2331 26.3186 37.2331 25.5515 36.7601 25.0783L35.6465 23.9647L51.4948 8.11654C51.9678 7.64352 51.9678 6.87644 51.4948 6.40321L50.2956 5.20403L53.4316 2.06803C53.9046 1.595 53.9046 0.827928 53.4316 0.354691ZM18.1475 27.4154L16.4723 29.0905L15.9897 25.2575L18.1475 27.4154ZM5.31251 36.9971L10.2887 38.1866L8.39536 40.0799L5.31251 36.9971ZM13.8039 42.3806C13.5767 42.6079 13.4491 42.916 13.4491 43.2373C13.4491 43.5585 13.5768 43.8666 13.8039 44.0939L20.9702 51.26L17.1796 50.896L9.09261 42.8088L9.25176 42.6497L15.9441 35.9574L18.0855 38.0988L13.8039 42.3806ZM27.4591 40.6169L27.8232 44.4073L23.4839 40.068L25.1971 38.3548L27.4591 40.6169ZM32.2627 27.8626L30.5352 26.1351C30.0621 25.6622 29.2952 25.6622 28.8219 26.1351C28.3488 26.6081 28.3488 27.3752 28.8219 27.8484L30.5493 29.5759L28.8361 31.2891L27.1086 29.5617C26.6354 29.0888 25.8686 29.0888 25.3953 29.5617C24.9223 30.0347 24.9223 30.8018 25.3953 31.275L27.1228 33.0025L25.4095 34.7157L23.6821 32.9882C23.2088 32.5153 22.4421 32.5153 21.9687 32.9882C21.4957 33.4613 21.4957 34.2283 21.9687 34.7016L23.6962 36.429L21.7689 38.3564L16.2009 32.7884L28.6217 20.3676L34.1897 25.9356L32.2627 27.8626ZM33.9331 22.2518L31.7915 20.1102L46.7834 5.11828L48.9249 7.25982L33.9331 22.2518Z"/>
</mask>
<path d="M53.4316 0.354691C52.9585 -0.11823 52.1916 -0.11823 51.7182 0.354691L48.5822 3.49069L47.64 2.54844C47.4127 2.32126 47.1046 2.19364 46.7834 2.19364C46.4621 2.19364 46.154 2.32136 45.9268 2.54844L30.0782 18.397L29.4786 17.7975C29.0054 17.3246 28.2386 17.3246 27.7653 17.7975L26.7053 18.8575L25.2063 17.3584L25.5489 17.0158C26.0219 16.5427 26.0219 15.7757 25.5489 15.3024C25.0757 14.8295 24.3087 14.8295 23.8355 15.3024L21.4371 17.7011C20.964 18.1741 20.964 18.9412 21.4371 19.4144C21.6736 19.6509 21.9837 19.7692 22.2937 19.7692C22.6037 19.7692 22.9138 19.6509 23.1503 19.4144L23.4929 19.0719L24.9919 20.5708L19.8605 25.7022L15.2025 21.0441C14.8364 20.6782 14.2781 20.5851 13.8132 20.8127C13.3483 21.0404 13.0792 21.5384 13.144 22.052L14.3033 31.2594L13.6313 31.9313C13.1583 32.4044 13.1583 33.1714 13.6313 33.6447L14.231 34.2444L12.2993 36.1761L1.70612 33.6439C1.17888 33.5179 0.631921 33.7575 0.36709 34.2308C0.102364 34.7039 0.184418 35.2954 0.567691 35.6787L6.68202 41.7932L6.52287 41.9523C6.04984 42.4254 6.04984 43.1924 6.52287 43.6657L15.7741 52.9169C15.9731 53.1159 16.2349 53.2393 16.515 53.2661L24.0959 53.9943C24.1348 53.9981 24.1737 53.9999 24.2123 53.9999C24.6775 53.9999 25.1063 53.732 25.3076 53.3052C25.5257 52.8429 25.4299 52.2934 25.0685 51.9319L16.3739 43.2374L19.799 39.8123L20.9127 40.9259C20.9218 40.935 20.9316 40.9427 20.9409 40.9513L28.495 48.5053C28.8564 48.8666 29.4061 48.9623 29.8683 48.7444C30.3306 48.5263 30.6064 48.0417 30.5575 47.5329L29.8293 39.952C29.8024 39.6719 29.679 39.41 29.4801 39.2112L26.9104 36.6414L36.7601 26.7916C37.2331 26.3186 37.2331 25.5515 36.7601 25.0783L35.6465 23.9647L51.4948 8.11654C51.9678 7.64352 51.9678 6.87644 51.4948 6.40321L50.2956 5.20403L53.4316 2.06803C53.9046 1.595 53.9046 0.827928 53.4316 0.354691ZM18.1475 27.4154L16.4723 29.0905L15.9897 25.2575L18.1475 27.4154ZM5.31251 36.9971L10.2887 38.1866L8.39536 40.0799L5.31251 36.9971ZM13.8039 42.3806C13.5767 42.6079 13.4491 42.916 13.4491 43.2373C13.4491 43.5585 13.5768 43.8666 13.8039 44.0939L20.9702 51.26L17.1796 50.896L9.09261 42.8088L9.25176 42.6497L15.9441 35.9574L18.0855 38.0988L13.8039 42.3806ZM27.4591 40.6169L27.8232 44.4073L23.4839 40.068L25.1971 38.3548L27.4591 40.6169ZM32.2627 27.8626L30.5352 26.1351C30.0621 25.6622 29.2952 25.6622 28.8219 26.1351C28.3488 26.6081 28.3488 27.3752 28.8219 27.8484L30.5493 29.5759L28.8361 31.2891L27.1086 29.5617C26.6354 29.0888 25.8686 29.0888 25.3953 29.5617C24.9223 30.0347 24.9223 30.8018 25.3953 31.275L27.1228 33.0025L25.4095 34.7157L23.6821 32.9882C23.2088 32.5153 22.4421 32.5153 21.9687 32.9882C21.4957 33.4613 21.4957 34.2283 21.9687 34.7016L23.6962 36.429L21.7689 38.3564L16.2009 32.7884L28.6217 20.3676L34.1897 25.9356L32.2627 27.8626ZM33.9331 22.2518L31.7915 20.1102L46.7834 5.11828L48.9249 7.25982L33.9331 22.2518Z" fill="white" stroke="#58B571" mask="url(#path-1-inside-1_588_3778)"/>
</g>
<defs>
<clipPath id="clip0_588_3778">
<rect width="54" height="54" fill="white"/>
</clipPath>
</defs>
</svg>
