<svg width="46" height="24" viewBox="0 0 46 24" fill="none" xmlns="http://www.w3.org/2000/svg">
<path d="M-0.000190076 18.1355V-0.00012043H2.19069L8.98243 9.66411H7.86265L14.6057 -0.00012043H16.7966V18.1355H14.3866V3.01843L15.2386 3.28621L8.49557 12.78H8.30083L1.6308 3.28621L2.38544 3.01843V18.1355H-0.000190076ZM24.4031 18.4276C23.5429 18.4276 22.7802 18.2735 22.1148 17.9651C21.4657 17.6406 20.9544 17.2024 20.5812 16.6506C20.2079 16.0826 20.0213 15.4334 20.0213 14.7031C20.0213 14.0053 20.1674 13.3805 20.4595 12.8287C20.7678 12.2607 21.2384 11.782 21.8714 11.3925C22.5205 11.003 23.332 10.7271 24.3057 10.5648L29.1743 9.76148V11.6603L24.8169 12.3905C23.973 12.5366 23.3563 12.8044 22.9668 13.1939C22.5936 13.5834 22.4069 14.0621 22.4069 14.6301C22.4069 15.1657 22.6179 15.612 23.0398 15.969C23.478 16.326 24.0217 16.5045 24.6708 16.5045C25.4985 16.5045 26.2126 16.3341 26.813 15.9933C27.4297 15.6363 27.9085 15.1576 28.2493 14.5571C28.6063 13.9566 28.7848 13.2912 28.7848 12.5609V9.22594C28.7848 8.51187 28.5171 7.93575 27.9815 7.49757C27.4622 7.04317 26.7725 6.81596 25.9123 6.81596C25.1658 6.81596 24.5004 7.01071 23.9162 7.4002C23.3482 7.77346 22.9262 8.27655 22.6504 8.90947L20.6786 7.88706C20.922 7.2866 21.3115 6.75105 21.847 6.28041C22.3826 5.79355 23.0074 5.41217 23.7215 5.13629C24.4355 4.8604 25.182 4.72245 25.961 4.72245C26.9672 4.72245 27.8517 4.9172 28.6144 5.30669C29.3772 5.67995 29.9695 6.20738 30.3915 6.88899C30.8297 7.55437 31.0487 8.33335 31.0487 9.22594V18.1355H28.8335V15.6525L29.2473 15.7986C28.9715 16.3179 28.5982 16.7723 28.1276 17.1618C27.6569 17.5513 27.1051 17.8596 26.4722 18.0868C25.8393 18.314 25.1496 18.4276 24.4031 18.4276ZM35.2649 23.491C34.9727 23.491 34.6806 23.4667 34.3885 23.418C34.0964 23.3693 33.8205 23.2882 33.5608 23.1746V21.1541C33.7394 21.1865 33.9584 21.219 34.2181 21.2515C34.494 21.3001 34.7618 21.3245 35.0214 21.3245C35.7842 21.3245 36.3603 21.1541 36.7498 20.8133C37.1555 20.4887 37.5369 19.9207 37.8939 19.1093L38.7216 17.1375L38.6729 19.1093L33.074 5.01457H35.5326L39.8901 16.2124H39.1598L43.4928 5.01457H46.0002L40.0848 19.6935C39.8089 20.3913 39.4519 21.0243 39.0137 21.5923C38.5918 22.1765 38.0724 22.639 37.4557 22.9798C36.8391 23.3206 36.1088 23.491 35.2649 23.491Z" fill="#222222"/>
</svg>
