<svg width="54" height="54" viewBox="0 0 54 54" fill="none" xmlns="http://www.w3.org/2000/svg">
<g clip-path="url(#clip0_588_3968)">
<path d="M43.5483 0.347656L39.1935 5.7912V13.9356H18.2902H12.1935C8.83239 13.9356 6.09668 16.6713 6.09668 20.0324V31.355C6.09668 33.2763 7.6592 34.8389 9.58055 34.8389C10.2181 34.8389 10.8077 34.6542 11.3225 34.3546V54.0001H25.258V20.9034H39.1935V49.6453C39.1935 52.0466 41.147 54.0001 43.5483 54.0001C45.9495 54.0001 47.9031 52.0466 47.9031 49.6453V5.7912L43.5483 0.347656ZM19.9616 15.6776L18.2902 17.767L16.6188 15.6776H19.9616ZM11.3225 31.355C11.3225 32.3157 10.5412 33.0969 9.58055 33.0969C8.61987 33.0969 7.83862 32.3157 7.83862 31.355V22.6453H11.3225V31.355ZM17.4193 52.2582H13.0644V50.5163H17.4193V52.2582ZM23.516 52.2582H19.1612V50.5163H23.516V52.2582ZM23.516 48.7743H19.1612V33.9679H17.4193V48.7743H13.0644V35.6218C15.0494 35.2169 16.5483 33.4584 16.5483 31.355V30.484H20.0322V31.355C20.0322 33.4575 21.5311 35.2169 23.516 35.6218V48.7743ZM13.0644 33.8076V31.355V30.484H14.8064V31.355C14.8064 32.489 14.0756 33.447 13.0644 33.8076ZM23.516 33.8076C22.5048 33.447 21.7741 32.489 21.7741 31.355V30.484H23.516V33.8076ZM26.9999 19.1614H25.258H24.387H23.516V28.7421H13.0644V19.1614H11.3225V20.9034H7.83862V20.0324C7.83862 17.6311 9.7922 15.6776 12.1935 15.6776H14.3874L18.2902 20.5558L22.193 15.6776H26.9999V19.1614ZM39.1935 19.1614H28.7418V15.6776H39.1935V19.1614ZM43.5483 3.1365L45.9173 6.09691H41.1793L43.5483 3.1365ZM40.9354 7.83885H42.6773V43.5485H40.9354V7.83885ZM46.1612 49.6453C46.1612 51.0859 44.9889 52.2582 43.5483 52.2582C42.1077 52.2582 40.9354 51.0859 40.9354 49.6453V48.7743H46.1612V49.6453ZM46.1612 47.0324H40.9354V45.2905H46.1612V47.0324ZM46.1612 43.5485H44.4193V7.83885H46.1612V43.5485Z" fill="white"/>
<path d="M25.2577 6.96774C25.2577 3.1259 22.1318 0 18.29 0C14.4482 0 11.3223 3.1259 11.3223 6.96774C11.3223 10.8096 14.4482 13.9355 18.29 13.9355C22.1318 13.9355 25.2577 10.8096 25.2577 6.96774ZM18.29 12.1935C15.408 12.1935 13.0642 9.84977 13.0642 6.96774C13.0642 4.08571 15.408 1.74194 18.29 1.74194C21.172 1.74194 23.5158 4.08571 23.5158 6.96774C23.5158 9.84977 21.172 12.1935 18.29 12.1935Z" fill="white"/>
</g>
<defs>
<clipPath id="clip0_588_3968">
<rect width="54" height="54" fill="white"/>
</clipPath>
</defs>
</svg>
