<svg width="54" height="55" viewBox="0 0 54 55" fill="none" xmlns="http://www.w3.org/2000/svg">
<path d="M27.0117 33.0581C26.3082 33.0581 25.7365 33.6296 25.7363 34.3345C25.7363 35.039 26.3075 35.6099 27.0117 35.6099C27.7176 35.6097 28.2881 35.0394 28.2881 34.3345C28.2879 33.6292 27.717 33.0582 27.0117 33.0581ZM38.2617 26.3687C37.5575 26.3687 36.9863 26.9386 36.9863 27.6431C36.9864 28.3482 37.5581 28.9204 38.2617 28.9204C38.967 28.9203 39.5381 28.3484 39.5381 27.6431C39.5381 26.9383 38.9676 26.3688 38.2617 26.3687ZM15.7617 19.6187C15.0575 19.6187 14.4863 20.1886 14.4863 20.8931C14.4863 21.5389 14.9658 22.0723 15.5869 22.1577L15.7129 22.1694H15.7217C15.7321 22.1691 15.7422 22.1685 15.752 22.1685L15.791 22.1694H15.7998C16.4876 22.1491 17.0381 21.5857 17.0381 20.8931C17.0381 20.1883 16.4676 19.6188 15.7617 19.6187ZM37.252 30.7632L37.1689 30.7329C35.8975 30.2826 34.9863 29.069 34.9863 27.6431C34.9863 26.2172 35.8975 25.005 37.1689 24.5552L37.252 24.5249V16.4185C37.2521 15.8664 37.6999 15.4186 38.252 15.4185C38.8042 15.4185 39.2518 15.8663 39.252 16.4185V24.519L39.3359 24.5483C40.6182 24.9926 41.5381 26.2098 41.5381 27.6431C41.5381 29.0764 40.6181 30.2949 39.3359 30.7397L39.252 30.769V38.8081C39.252 39.3604 38.8043 39.8081 38.252 39.8081C37.6998 39.8079 37.252 39.3603 37.252 38.8081V30.7632ZM14.752 24.0132L14.6689 23.9829C13.3975 23.5326 12.4863 22.319 12.4863 20.8931C12.4863 19.4672 13.3975 18.255 14.6689 17.8052L14.752 17.7749V12.8608H7.875C7.18536 12.8608 6.62513 13.4213 6.625 14.1108V41.1108C6.625 41.8005 7.18528 42.3608 7.875 42.3608H22.4619C23.0141 42.3609 23.4618 42.8087 23.4619 43.3608C23.4619 43.9131 23.0141 44.3608 22.4619 44.3608H7.875C6.08072 44.3608 4.625 42.9051 4.625 41.1108V14.1108L4.62891 13.9438C4.716 12.2272 6.1368 10.8608 7.875 10.8608H14.752V8.51221C14.752 7.96001 15.1998 7.51237 15.752 7.51221C16.3043 7.51221 16.752 7.95992 16.752 8.51221V10.8608H27.002C27.5199 10.8608 27.9461 11.2548 27.9971 11.7593L28.002 11.8608V31.2085L28.0859 31.2378C29.368 31.6826 30.288 32.9012 30.2881 34.3345C30.2881 35.7678 29.3682 36.9848 28.0859 37.4292L28.002 37.4585V42.3608H46.125C46.8147 42.3608 47.375 41.8005 47.375 41.1108V14.1108C47.3749 13.4212 46.8146 12.8608 46.125 12.8608H31.502C30.9498 12.8607 30.502 12.413 30.502 11.8608C30.5021 11.3088 30.9499 10.861 31.502 10.8608H37.252V8.53271C37.252 7.98052 37.6998 7.53288 38.252 7.53271C38.8043 7.53271 39.252 7.98042 39.252 8.53271V10.8608H46.125C47.9192 10.8608 49.3749 12.3166 49.375 14.1108V41.1108C49.375 42.9051 47.9193 44.3608 46.125 44.3608H28.002V46.6255C28.002 47.1778 27.5543 47.6255 27.002 47.6255C26.4498 47.6253 26.002 47.1777 26.002 46.6255V37.4526L25.9189 37.4233C24.6475 36.9737 23.7363 35.7605 23.7363 34.3345C23.7364 32.9085 24.6476 31.6948 25.9189 31.2446L26.002 31.2153V12.8608H16.752V17.769L16.8359 17.7983C18.1182 18.2426 19.0381 19.4598 19.0381 20.8931C19.0381 22.3264 18.1181 23.5449 16.8359 23.9897L16.752 24.019V38.8081C16.752 39.3604 16.3043 39.8081 15.752 39.8081C15.1998 39.8079 14.752 39.3603 14.752 38.8081V24.0132Z" fill="white" stroke="#58B571" stroke-width="0.25"/>
</svg>
