<svg width="54" height="54" viewBox="0 0 54 54" fill="none" xmlns="http://www.w3.org/2000/svg">
<path d="M15.75 9V5.625" stroke="white" stroke-width="2" stroke-linecap="round"/>
<path d="M38.25 9V5.625" stroke="white" stroke-width="2" stroke-linecap="round"/>
<path d="M37.125 40.5C38.989 40.5 40.5 38.989 40.5 37.125C40.5 35.261 38.989 33.75 37.125 33.75C35.261 33.75 33.75 35.261 33.75 37.125C33.75 38.989 35.261 40.5 37.125 40.5Z" stroke="white" stroke-width="2"/>
<path d="M48.375 20.25H37.4062H24.1875M4.5 20.25H13.2188" stroke="white" stroke-width="2" stroke-linecap="round"/>
<path d="M31.5 49.5H22.5C14.0147 49.5 9.77209 49.5 7.13603 46.8639C4.5 44.228 4.5 39.9852 4.5 31.5V27C4.5 18.5147 4.5 14.2721 7.13603 11.636C9.77209 9 14.0147 9 22.5 9H31.5C39.9852 9 44.228 9 46.8639 11.636C49.5 14.2721 49.5 18.5147 49.5 27V31.5C49.5 39.9852 49.5 44.228 46.8639 46.8639C45.3942 48.3336 43.4252 48.9839 40.5 49.2716" stroke="white" stroke-width="2" stroke-linecap="round"/>
</svg>
