<svg width="54" height="55" viewBox="0 0 54 55" fill="none" xmlns="http://www.w3.org/2000/svg">
<g clip-path="url(#clip0_588_3441)">
<path d="M54 24.125C54 21.3288 51.7328 19.0625 48.9375 19.0625H34.5938L36.2812 3.875C36.4576 2.02887 35.1953 0.5 33.3298 0.5H29.954C27.8438 0.5 26.9654 1.97656 26.1562 3.875L19.4062 19.0625C17.588 23.4238 15.1875 24.125 13.5 24.125C12.6562 24.125 11.8125 24.125 11.8125 24.125V22.4375C11.8125 20.5711 10.303 19.0625 8.4375 19.0625H3.375C1.50947 19.0625 0 20.5711 0 22.4375V51.125C0 52.9897 1.50947 54.5 3.375 54.5H8.4375C10.303 54.5 11.8125 52.9897 11.8125 51.125V49.4375C12.6562 49.4375 14.877 49.4814 17.0522 51.7131C19.6796 54.4106 22.8175 54.5 24.4688 54.5H43.875C46.6703 54.5 48.9375 52.232 48.9375 49.4375C48.9375 47.977 48.3157 46.6632 47.3259 45.7393C49.2505 45.0238 50.625 43.1743 50.625 41C50.625 39.5395 50.0032 38.2257 49.0134 37.3018C50.938 36.5863 52.3125 34.7368 52.3125 32.5625C52.3125 31.102 51.6907 29.7882 50.7009 28.8643C52.6255 28.1488 54 26.2993 54 24.125ZM10.125 51.125C10.125 52.0565 9.369 52.8125 8.4375 52.8125H3.375C2.4435 52.8125 1.6875 52.0565 1.6875 51.125V22.4375C1.6875 21.5052 2.4435 20.75 3.375 20.75H8.4375C9.369 20.75 10.125 21.5052 10.125 22.4375V51.125ZM48.9375 27.5H40.5C40.0334 27.5 39.6562 27.8763 39.6562 28.3438C39.6562 28.8095 40.0334 29.1875 40.5 29.1875H47.25C49.1138 29.1875 50.625 30.6978 50.625 32.5625C50.625 34.4263 49.1138 35.9375 47.25 35.9375H38.8125C38.3459 35.9375 37.9688 36.3138 37.9688 36.7812C37.9688 37.247 38.3459 37.625 38.8125 37.625H45.5625C47.4263 37.625 48.9375 39.1353 48.9375 41C48.9375 42.8638 47.4263 44.375 45.5625 44.375H37.125C36.6584 44.375 36.2812 44.7513 36.2812 45.2188C36.2812 45.6845 36.6584 46.0625 37.125 46.0625H43.875C45.7388 46.0625 47.25 47.5728 47.25 49.4375C47.25 51.3013 45.7388 52.8125 43.875 52.8125H24.4688C23.625 52.8125 20.5073 52.8412 18.2604 50.5352C15.6364 47.842 13.5945 47.7525 11.8125 47.75V25.8125H13.5C16.875 25.8125 19.0434 24.487 21.3047 19.0625L27.8438 3.875C28.2833 2.9435 28.8107 2.1875 29.743 2.1875H32.9062C33.8377 2.1875 34.7001 2.89119 34.5938 3.875L32.9147 19.0625C32.8033 20.4741 33.6859 20.75 34.5938 20.75H48.9375C50.8013 20.75 52.3125 22.2603 52.3125 24.125C52.3125 25.9888 50.8013 27.5 48.9375 27.5Z" fill="white"/>
<path d="M5.90625 46.0625C4.50816 46.0625 3.375 47.1948 3.375 48.5938C3.375 49.991 4.50816 51.125 5.90625 51.125C7.30434 51.125 8.4375 49.991 8.4375 48.5938C8.4375 47.1948 7.30434 46.0625 5.90625 46.0625ZM5.90625 49.4375C5.43966 49.4375 5.0625 49.0587 5.0625 48.5938C5.0625 48.1272 5.43966 47.75 5.90625 47.75C6.37284 47.75 6.75 48.1272 6.75 48.5938C6.75 49.0587 6.37284 49.4375 5.90625 49.4375Z" fill="white"/>
</g>
<defs>
<clipPath id="clip0_588_3441">
<rect width="54" height="54" fill="white" transform="translate(0 0.5)"/>
</clipPath>
</defs>
</svg>
