<svg width="54" height="54" viewBox="0 0 54 54" fill="none" xmlns="http://www.w3.org/2000/svg">
<path d="M24.709 38.275C29.029 42.1198 34.321 44.755 36.8266 43.9126C41.3626 42.2278 42.1186 33.1124 42.1186 26.8052C42.1186 25.0556 42.1186 23.0686 41.881 21.103" stroke="white" stroke-width="2" stroke-linecap="round" stroke-linejoin="round"/>
<path d="M40.2393 13.5649C39.9628 12.7251 39.5174 11.9507 38.9305 11.2894C38.3437 10.6282 37.6276 10.0942 36.8267 9.72006C34.1699 8.72646 28.5323 11.8799 23.8667 16.0055H20.4105C18.119 16.0055 15.9214 16.9159 14.3011 18.5362C12.6808 20.1565 11.7705 22.354 11.7705 24.6456V28.9656C11.7698 30.6311 12.2507 32.2617 13.155 33.6603C14.0595 35.0591 15.3488 36.1666 16.8681 36.8496" stroke="white" stroke-width="2" stroke-linecap="round" stroke-linejoin="round"/>
<path d="M48.6004 5.22705L5.40039 48.427" stroke="white" stroke-width="2" stroke-linecap="round" stroke-linejoin="round"/>
</svg>
