<svg width="61" height="43" viewBox="0 0 61 43" fill="none" xmlns="http://www.w3.org/2000/svg">
<path d="M56.7711 18.2406L56.771 17.8863H56.4166H4.57696H4.22247L4.22254 18.2407L4.22559 34.3657C4.22559 34.3657 4.22559 34.3657 4.22559 34.3657C4.22562 36.5256 5.86699 38.3016 7.97065 38.5152L7.97061 38.5157L7.98859 38.5166L8.37882 38.5363L8.3788 38.5368H8.3967H52.6025C54.7624 38.5368 56.5385 36.8954 56.7521 34.7917L56.7526 34.7917L56.7535 34.7738L56.7732 34.3835L56.7736 34.3835L56.7736 34.3656L56.7711 18.2406ZM52.6204 4.22604L52.6204 4.22559H52.6025H8.3967C6.23682 4.22559 4.46075 5.86697 4.24711 7.97065L4.24666 7.97061L4.24575 7.98859L4.22604 8.37882L4.2256 8.3788L4.22559 8.39649L4.22254 13.6605L4.22233 14.0151H4.57696H56.4166H56.7709L56.7711 13.6608L56.7736 8.39687V8.3967C56.7736 6.23682 55.1322 4.46075 53.0286 4.24711L53.0286 4.24665L53.0106 4.24575L52.6204 4.22604ZM52.6025 0.354426C56.8777 0.354426 60.374 3.69052 60.6298 7.9012L60.6448 8.40202V34.3657C60.6448 38.6409 57.3087 42.1372 53.098 42.3929L52.5972 42.4079H8.3967C4.12149 42.4079 0.625197 39.0718 0.36943 34.8612L0.354426 34.3603V8.3967C0.354426 4.12149 3.69051 0.625196 7.90119 0.369429L8.402 0.354426H52.6025ZM49.592 29.298C50.661 29.298 51.5276 30.1646 51.5276 31.2336C51.5276 32.2092 50.8053 33.0168 49.8665 33.1499L49.58 33.1691H41.9586C40.8896 33.1691 40.023 32.3025 40.023 31.2336C40.023 30.2579 40.7453 29.4503 41.6841 29.3172L41.9705 29.298H49.592Z" fill="#777777" stroke="#F7F7F7" stroke-width="0.35"/>
</svg>
