<svg width="54" height="54" viewBox="0 0 54 54" fill="none" xmlns="http://www.w3.org/2000/svg">
<path d="M37.9737 33.75L47.25 38.25C47.25 38.25 48.375 33.75 48.375 27C48.375 20.25 47.25 15.75 47.25 15.75L37.9737 20.25M37.9737 33.75C38.146 31.7236 38.25 29.4138 38.25 27C38.25 24.5862 38.146 22.2764 37.9737 20.25M37.9737 33.75C37.6465 37.6 37.0733 40.4267 36.5 41C35.6249 41.875 29.5 42.75 22.5 42.75C15.5 42.75 9.37501 41.875 8.50001 41C7.625 40.1249 6.75 34 6.75 27C6.75 20 7.625 13.875 8.50001 13C9.37501 12.125 15.5 11.25 22.5 11.25C29.5 11.25 35.6249 12.125 36.5 13C37.0733 13.5733 37.6465 16.4 37.9737 20.25" stroke="white" stroke-width="2" stroke-linecap="round" stroke-linejoin="round"/>
</svg>
