<svg width="46" height="49" viewBox="0 0 46 49" fill="none" xmlns="http://www.w3.org/2000/svg">
<path d="M30.0881 14.3559C30.0319 14.1874 29.9245 14.0406 29.7807 13.9362C29.637 13.8318 29.4642 13.775 29.2865 13.7737H25.0931L23.8022 9.79123C23.7467 9.62242 23.6393 9.47544 23.4954 9.37124C23.3515 9.26704 23.1783 9.21094 23.0006 9.21094C22.8229 9.21094 22.6498 9.26704 22.5058 9.37124C22.3619 9.47544 22.2545 9.62242 22.199 9.79123L20.9081 13.7737H16.7147C16.537 13.775 16.3642 13.8318 16.2205 13.9362C16.0767 14.0406 15.9693 14.1874 15.9131 14.3559C15.857 14.5261 15.8571 14.7098 15.9133 14.8799C15.9695 15.0501 16.0789 15.1976 16.2253 15.3009L19.6087 17.7647L18.3178 21.7472C18.2621 21.9166 18.2614 22.0993 18.316 22.2691C18.3706 22.4388 18.4775 22.587 18.6215 22.6922C18.7671 22.7951 18.9411 22.8504 19.1194 22.8504C19.2977 22.8504 19.4716 22.7951 19.6172 22.6922L23.0006 20.2284L26.384 22.6922C26.5309 22.7928 26.7039 22.8485 26.8819 22.8525C27.0603 22.8511 27.234 22.7952 27.3797 22.6922C27.5237 22.587 27.6306 22.4388 27.6852 22.2691C27.7398 22.0993 27.7392 21.9166 27.6834 21.7472L26.3925 17.7647L29.7759 15.3009C29.9223 15.1976 30.0317 15.0501 30.0879 14.8799C30.1441 14.7098 30.1442 14.5261 30.0881 14.3559ZM24.9075 16.7606C24.7626 16.8652 24.6544 17.0129 24.5984 17.1825C24.5423 17.3522 24.5412 17.5353 24.5953 17.7056L25.2787 19.7981L23.4984 18.4987C23.3534 18.3945 23.1792 18.3384 23.0006 18.3384C22.822 18.3384 22.6479 18.3945 22.5028 18.4987L20.7225 19.7981L21.4059 17.7056C21.46 17.5353 21.4589 17.3522 21.4029 17.1825C21.3468 17.0129 21.2386 16.8652 21.0937 16.7606L19.3134 15.4612H21.5156C21.6938 15.4623 21.8677 15.4064 22.0119 15.3016C22.1561 15.1969 22.263 15.0488 22.3172 14.879L23.0006 12.7865L23.684 14.879C23.7382 15.0488 23.8451 15.1969 23.9893 15.3016C24.1335 15.4064 24.3074 15.4623 24.4856 15.4612H26.6878L24.9075 16.7606Z" fill="white"/>
<path d="M22.9997 5.65625C20.1192 5.65545 17.3497 6.76743 15.2696 8.75998C13.1894 10.7525 11.9594 13.4716 11.8364 16.3495C11.7133 19.2274 12.7068 22.0415 14.6093 24.2044C16.5117 26.3672 19.1762 27.7115 22.0462 27.9566C22.3669 27.9819 22.6791 27.9988 22.9997 27.9988C23.2866 27.9988 23.5819 27.9819 23.8687 27.9566H23.9531V27.9481C26.8221 27.7031 29.4855 26.3593 31.3872 24.1972C33.289 22.0352 34.282 19.2221 34.1589 16.3453C34.0359 13.4685 32.8063 10.7505 30.7269 8.75868C28.6475 6.76691 25.8791 5.65541 22.9997 5.65625ZM31.2769 21.4512C31.2746 21.4512 31.2725 21.4521 31.2709 21.4537C31.2693 21.4553 31.2684 21.4574 31.2684 21.4597C30.5137 22.8123 29.4378 23.9585 28.1356 24.7972C26.8334 25.6359 25.3449 26.1414 23.8012 26.2691L23.7928 26.2775H23.7844C23.2567 26.3295 22.7252 26.3266 22.1981 26.2691C20.1585 26.0953 18.23 25.266 16.7008 23.9052C15.1716 22.5445 14.1239 20.7253 13.7144 18.7197C13.3048 16.7141 13.5554 14.6299 14.4287 12.7785C15.3019 10.9272 16.7509 9.40817 18.5591 8.44864C20.3672 7.48911 22.4374 7.14059 24.46 7.45517C26.4827 7.76976 28.3492 8.73056 29.7805 10.1939C31.2118 11.6573 32.131 13.5446 32.4008 15.5737C32.6705 17.6029 32.2762 19.6648 31.2769 21.4512Z" fill="white"/>
<path d="M45.6798 41.4922L42.5073 36.5731C40.2376 33.0716 37.9707 29.5644 35.7067 26.0516C35.8839 25.9841 36.0864 25.9081 36.2889 25.8406C36.7461 25.749 37.1807 25.5676 37.5674 25.3069C37.9541 25.0463 38.2853 24.7114 38.5417 24.3219C38.685 23.8814 38.7402 23.4169 38.704 22.9551C38.6678 22.4933 38.541 22.0431 38.3307 21.6303C38.1324 21.1985 38.0261 20.7301 38.0185 20.255C38.2275 19.8489 38.5176 19.4899 38.8707 19.2003C39.2463 18.9159 39.5619 18.56 39.7994 18.1531C40.0369 17.7462 40.1916 17.2963 40.2545 16.8294C40.1925 16.3634 40.0382 15.9144 39.8006 15.5087C39.563 15.1031 39.2469 14.7489 38.8707 14.4669C38.5189 14.1726 38.2291 13.8112 38.0185 13.4038C38.0261 12.9286 38.1324 12.4603 38.3307 12.0284C38.5408 11.6171 38.6676 11.1684 38.7038 10.7079C38.74 10.2475 38.6849 9.78441 38.5417 9.34531C38.2845 8.95642 37.9532 8.62208 37.5666 8.36146C37.18 8.10085 36.7458 7.91908 36.2889 7.82656C35.8344 7.71161 35.4072 7.50803 35.0317 7.2275C34.8449 6.79813 34.7418 6.33707 34.7279 5.86906C34.7406 5.40406 34.6615 4.94112 34.4949 4.50676C34.3284 4.07241 34.0779 3.67517 33.7576 3.33781C32.9511 2.86305 31.9896 2.72656 31.0829 2.95813C30.6237 3.05292 30.1499 3.05292 29.6907 2.95813C29.3373 2.66207 29.0474 2.29757 28.8385 1.88656C28.6467 1.45599 28.3711 1.06789 28.0277 0.744863C27.6844 0.421835 27.2803 0.170333 26.8389 0.00500066C26.3817 -0.0342999 25.9213 0.0170199 25.4841 0.156017C25.0468 0.295015 24.6413 0.518956 24.2907 0.815001C23.9075 1.1071 23.468 1.3168 22.9998 1.43094C22.5316 1.3168 22.0921 1.1071 21.7089 0.815001C21.3596 0.519607 20.9555 0.296012 20.5197 0.15702C20.0839 0.0180272 19.625 -0.033632 19.1692 0.00500066C18.7259 0.168879 18.3199 0.419766 17.975 0.742898C17.6301 1.06603 17.3534 1.45488 17.161 1.88656C16.9518 2.29501 16.6653 2.65894 16.3173 2.95813C15.8552 3.05278 15.3787 3.05278 14.9167 2.95813C14.0127 2.72645 13.0538 2.86301 12.2504 3.33781C11.9266 3.67476 11.6732 4.07294 11.5051 4.50903C11.3371 4.94512 11.2577 5.41036 11.2717 5.8775C11.2631 6.34437 11.1567 6.80425 10.9595 7.2275C10.5916 7.5085 10.1692 7.70966 9.71916 7.81813C8.79413 8.00517 7.98097 8.55132 7.45791 9.33688C7.31454 9.77738 7.25938 10.2418 7.29557 10.7036C7.33176 11.1655 7.45861 11.6156 7.66885 12.0284C7.86718 12.4603 7.97349 12.9286 7.98104 13.4038C7.77043 13.8112 7.48073 14.1726 7.12885 14.4669C6.75271 14.7489 6.43659 15.1031 6.19899 15.5087C5.96139 15.9144 5.80708 16.3634 5.7451 16.8294C5.80801 17.2963 5.96266 17.7462 6.20015 18.1531C6.43763 18.56 6.75325 18.9159 7.12885 19.2003C7.48201 19.4899 7.77205 19.8489 7.98104 20.255C7.97349 20.7301 7.86718 21.1985 7.66885 21.6303C7.45877 22.0416 7.33198 22.4904 7.29579 22.9508C7.25959 23.4113 7.31468 23.8743 7.45791 24.3134C7.71301 24.7042 8.04377 25.0399 8.43069 25.3007C8.81761 25.5615 9.25284 25.7423 9.71073 25.8322C9.90479 25.9081 10.1073 25.9756 10.2929 26.0516C8.02323 29.5616 5.75635 33.0688 3.49229 36.5731L0.319788 41.4922C0.228278 41.63 0.180171 41.7921 0.181675 41.9575C0.183179 42.123 0.234225 42.2842 0.328226 42.4203C0.419895 42.5564 0.549547 42.6626 0.701062 42.7256C0.852577 42.7886 1.01927 42.8057 1.18041 42.7747L6.94323 41.7031L8.34385 47.4069C8.38452 47.5662 8.47088 47.7102 8.5923 47.8212C8.71372 47.9321 8.86491 48.0051 9.02729 48.0312C9.07167 48.041 9.11687 48.0467 9.16229 48.0481C9.30369 48.0491 9.44299 48.0139 9.56701 47.946C9.69103 47.8781 9.79568 47.7796 9.87104 47.66L18.9667 33.5778C19.0342 33.5947 19.0932 33.6369 19.1607 33.6537C19.299 33.6867 19.4405 33.7037 19.5826 33.7044C20.3571 33.619 21.093 33.3212 21.7089 32.8438C22.0921 32.5517 22.5316 32.342 22.9998 32.2278C23.468 32.342 23.9075 32.5517 24.2907 32.8438C24.6415 33.1421 25.0483 33.3675 25.4873 33.5066C25.9263 33.6457 26.3887 33.6957 26.8473 33.6537C26.9148 33.6369 26.9739 33.5947 27.0329 33.5778L36.1285 47.66C36.2039 47.7796 36.3085 47.8781 36.4326 47.946C36.5566 48.0139 36.6959 48.0491 36.8373 48.0481C36.8827 48.0467 36.9279 48.041 36.9723 48.0312C37.1347 48.0051 37.2859 47.9321 37.4073 47.8212C37.5287 47.7102 37.6151 47.5662 37.6557 47.4069L39.0564 41.7031L44.8192 42.7747C44.9803 42.8048 45.1467 42.7873 45.298 42.7243C45.4493 42.6614 45.5791 42.5558 45.6714 42.4203C45.7654 42.2842 45.8164 42.123 45.8179 41.9575C45.8194 41.7921 45.7713 41.63 45.6798 41.4922ZM9.51666 45.095L8.39448 40.5303C8.34406 40.3209 8.21548 40.1387 8.03508 40.0211C7.85468 39.9034 7.63611 39.8592 7.42416 39.8975L2.80041 40.7581L4.90979 37.4928C7.01916 34.2191 9.13416 30.9453 11.2548 27.6716C11.264 27.7103 11.2696 27.7499 11.2717 27.7897C11.259 28.2547 11.3381 28.7176 11.5046 29.152C11.6711 29.5863 11.9217 29.9836 12.242 30.3209C13.0486 30.7953 14.0099 30.9317 14.9167 30.7006C15.3759 30.6058 15.8496 30.6058 16.3089 30.7006C16.6643 30.9947 16.9545 31.3597 17.161 31.7722C17.3214 32.0169 17.4817 32.2616 17.6504 32.4978L9.51666 45.095ZM26.7123 31.8397C26.6441 31.9171 26.5568 31.9753 26.4592 32.0084C26.2229 32.0591 25.5985 31.6794 25.1935 31.4178C24.5591 30.9252 23.7989 30.6211 22.9998 30.5403C22.2007 30.6211 21.4404 30.9252 20.806 31.4178C20.401 31.6794 19.7767 32.0675 19.5489 32.0169C19.4454 31.9773 19.3529 31.9137 19.2789 31.8312C19.0175 31.5388 18.7884 31.2192 18.5954 30.8778C18.2463 30.1814 17.712 29.5946 17.0514 29.1819C16.6678 29.0073 16.2491 28.9235 15.8279 28.9372C15.461 28.9443 15.0948 28.9725 14.731 29.0216C14.2079 29.0806 13.4992 29.165 13.2967 29.0047C13.0942 28.8444 13.0098 28.1272 12.9507 27.6041C12.9404 26.814 12.7096 26.0424 12.2842 25.3766C12.217 25.2923 12.1406 25.2159 12.0564 25.1488C12.0242 25.1214 11.9903 25.0961 11.9551 25.0728L11.9467 25.0644H11.9382C11.4338 24.6955 10.8683 24.4184 10.2676 24.2459C9.76979 24.0688 9.09479 23.8325 8.97666 23.5794C8.85854 23.3431 9.09479 22.6766 9.26354 22.1872C9.60152 21.4696 9.7274 20.6705 9.62635 19.8838C9.37857 19.1448 8.92483 18.492 8.31854 18.0022C7.94729 17.6309 7.4326 17.1163 7.4326 16.8294C7.4326 16.5425 7.94729 16.0278 8.31854 15.6566C8.92483 15.1668 9.37857 14.514 9.62635 13.775C9.7274 12.9883 9.60152 12.1891 9.26354 11.4716C9.09479 10.9822 8.85854 10.3156 8.97666 10.0709C9.09479 9.82625 9.77823 9.59 10.276 9.41281C11.0366 9.23398 11.7304 8.84173 12.2757 8.28219C12.7074 7.62186 12.9416 6.85199 12.9507 6.06313C13.0098 5.54 13.0857 4.83125 13.2967 4.6625C13.5076 4.49375 14.2079 4.57813 14.731 4.63719C15.5042 4.8019 16.3081 4.74636 17.0514 4.47688C17.714 4.06652 18.2488 3.47911 18.5954 2.78094C18.8739 2.32531 19.262 1.70938 19.5404 1.65031C19.7767 1.59125 20.401 1.98781 20.806 2.24094C21.4404 2.73355 22.2007 3.03764 22.9998 3.11844C23.7989 3.03764 24.5591 2.73355 25.1935 2.24094C25.5985 1.98781 26.2145 1.59969 26.4592 1.65031C26.7376 1.70938 27.1257 2.32531 27.4042 2.78094C27.7507 3.47911 28.2855 4.06652 28.9482 4.47688C29.6914 4.74636 30.4953 4.8019 31.2685 4.63719C31.7917 4.57813 32.5004 4.49375 32.7029 4.65406C32.9054 4.81438 32.9898 5.53156 33.0489 6.05469C33.0591 6.84479 33.29 7.61631 33.7154 8.28219C34.2688 8.8417 34.9671 9.23611 35.732 9.42125C36.2298 9.59 36.9048 9.82625 37.0229 10.0794C37.141 10.3156 36.9048 10.9822 36.736 11.4716C36.3981 12.1891 36.2722 12.9883 36.3732 13.775C36.621 14.514 37.0747 15.1668 37.681 15.6566C38.0523 16.0278 38.567 16.5425 38.567 16.8294C38.567 17.1163 38.0523 17.6309 37.681 18.0022C37.0747 18.492 36.621 19.1448 36.3732 19.8838C36.2722 20.6705 36.3981 21.4696 36.736 22.1872C36.9048 22.6766 37.141 23.3431 37.0229 23.5878C36.9048 23.8325 36.2214 24.0772 35.732 24.2459C35.1001 24.4186 34.5073 24.7107 33.9854 25.1066C33.8919 25.1902 33.8045 25.2804 33.7239 25.3766C33.2922 26.0369 33.058 26.8068 33.0489 27.5956C32.9898 28.1187 32.9139 28.8275 32.7029 28.9962C32.492 29.165 31.7917 29.0806 31.2685 29.0216C30.4956 28.8526 29.6905 28.9082 28.9482 29.1819C28.2875 29.5946 27.7533 30.1814 27.4042 30.8778C27.2092 31.2226 26.9772 31.5451 26.7123 31.8397ZM38.5754 39.8975C38.3635 39.8592 38.1449 39.9034 37.9645 40.0211C37.7841 40.1387 37.6555 40.3209 37.6051 40.5303L36.4829 45.095L28.3492 32.4978C28.5179 32.2616 28.6782 32.0169 28.8385 31.7722C29.0453 31.3622 29.3322 30.9978 29.6823 30.7006C30.1444 30.606 30.6208 30.606 31.0829 30.7006C31.9869 30.9323 32.9458 30.7957 33.7492 30.3209C34.0723 29.9852 34.3252 29.5884 34.4933 29.1538C34.6613 28.7192 34.7411 28.2555 34.7279 27.7897C34.7294 27.7498 34.735 27.7102 34.7448 27.6716C36.8626 30.9453 38.9776 34.2191 41.0898 37.4928L43.1992 40.7581L38.5754 39.8975Z" fill="white"/>
</svg>
