<svg width="54" height="54" viewBox="0 0 54 54" fill="none" xmlns="http://www.w3.org/2000/svg">
<g clip-path="url(#clip0_588_3787)">
<path d="M48.9375 14.3438H40.5V11.1628L38.1822 10.5486C38.0152 10.0516 37.8177 9.5715 37.5933 9.11419L38.7948 7.04531L34.2976 2.54728L32.2296 3.74962C31.7706 3.52434 31.2913 3.32775 30.7952 3.15984L30.1809 0.84375H23.8191L23.2048 3.16153C22.7087 3.32859 22.2294 3.52603 21.7704 3.75131L19.7024 2.54897L15.2052 7.047L16.4067 9.11588C16.1814 9.57319 15.9848 10.0533 15.8178 10.5503L13.5 11.1628V14.3438H5.0625C2.73628 14.3438 0.84375 16.2363 0.84375 18.5625V43.875C0.84375 46.2012 2.73628 48.0938 5.0625 48.0938H16.0312V51.4688H12.6562V53.1562H41.3438V51.4688H37.9688V48.0938H48.9375C51.2637 48.0938 53.1562 46.2012 53.1562 43.875V18.5625C53.1562 16.2363 51.2637 14.3438 48.9375 14.3438ZM15.1875 12.4622L17.1568 11.9408L17.291 11.4851C17.4994 10.7789 17.7744 10.1098 18.1103 9.49725L18.3381 9.07959L17.3171 7.32206L19.9783 4.66088L21.735 5.68181L22.1527 5.45316C22.7677 5.11734 23.436 4.84228 24.1397 4.63556L24.5953 4.50141L25.1184 2.53125H28.8824L29.4047 4.50141L29.8603 4.63556C30.564 4.84228 31.2331 5.11734 31.8473 5.45316L32.265 5.68181L34.0217 4.66088L36.6829 7.32206L35.6619 9.07959L35.8897 9.49725C36.2247 10.1107 36.5006 10.7798 36.709 11.4851L36.8432 11.9408L38.8125 12.4622V16.2262L36.8432 16.7476L36.709 17.2032C36.5006 17.9094 36.2256 18.5785 35.8897 19.1911L35.6619 19.6087L36.6829 21.3663L34.5938 23.4554V20.25C34.5938 19.6214 34.5085 19.0139 34.3643 18.4292C35.057 17.1821 35.4375 15.7823 35.4375 14.3438C35.4375 9.69131 31.6524 5.90625 27 5.90625C22.3476 5.90625 18.5625 9.69131 18.5625 14.3438C18.5625 15.7815 18.943 17.1804 19.6366 18.4292C19.4915 19.0139 19.4062 19.6214 19.4062 20.25V23.4554L17.3163 21.3654L18.3372 19.6079L18.1094 19.1903C17.7744 18.5768 17.4985 17.9078 17.2901 17.2024L17.156 16.7467L15.1875 16.2253V12.4622ZM21.9375 25.0779C21.4355 24.7852 21.0938 24.2468 21.0938 23.625C21.0938 23.0032 21.4355 22.4648 21.9375 22.1721V25.0779ZM20.25 14.3438C20.25 10.622 23.2782 7.59375 27 7.59375C30.7218 7.59375 33.75 10.622 33.75 14.3438C33.75 15.0052 33.6479 15.6558 33.4614 16.2802C32.1233 14.11 29.7312 12.6562 27 12.6562C24.2688 12.6562 21.8776 14.11 20.5394 16.2802C20.3521 15.6549 20.25 15.0044 20.25 14.3438ZM31.2188 20.25H31.0736C29.7599 20.25 28.5247 19.7387 27.5965 18.8097L27 18.2123L26.4035 18.8097C25.4745 19.7387 24.2401 20.25 22.9264 20.25H22.7812C22.1636 20.25 21.5924 20.4289 21.0938 20.7191V20.25C21.0938 16.9931 23.744 14.3438 27 14.3438C30.256 14.3438 32.9062 16.9931 32.9062 20.25V20.7191C32.4076 20.4289 31.8364 20.25 31.2188 20.25ZM28.6875 30.094L27 32.3435L25.3125 30.094V30.0797C25.8415 30.2678 26.4077 30.375 27 30.375C27.5923 30.375 28.1585 30.267 28.6875 30.0797V30.094ZM24.1734 31.3875L25.8188 33.5812L24.0553 34.9034L23.0259 31.817L24.1734 31.3875ZM21.4456 32.4101L23.1947 37.6591L27 34.8047L30.8053 37.6582L32.5544 32.4093L33.7947 32.8742C34.7777 33.2429 35.4375 34.1955 35.4375 35.2451V37.9688H18.5625V35.2451C18.5625 34.1955 19.2223 33.2429 20.2053 32.8742L21.4456 32.4101ZM29.9447 34.9034L28.1813 33.5812L29.8266 31.3875L30.9741 31.8178L29.9447 34.9034ZM27 28.6875C25.1387 28.6875 23.625 27.1738 23.625 25.3125V21.8801C24.8603 21.7502 26.0255 21.2996 27 20.5335C27.9745 21.3005 29.1397 21.7502 30.375 21.8801V25.3125C30.375 27.1738 28.8613 28.6875 27 28.6875ZM32.0625 22.1721C32.5645 22.4648 32.9062 23.0032 32.9062 23.625C32.9062 24.2468 32.5645 24.7852 32.0625 25.0779V22.1721ZM5.0625 16.0312H13.5V17.5247L15.8178 18.1389C15.9848 18.6359 16.1823 19.116 16.4067 19.5733L15.2052 21.6422L19.7024 26.1402L20.2424 25.8263C20.7428 26.4035 21.427 26.8093 22.2117 26.9435C22.4944 27.7712 22.9863 28.5019 23.625 29.0756V29.7903L19.6121 31.2947C17.9753 31.9089 16.875 33.4969 16.875 35.2451V39.6562H37.125V35.2451C37.125 33.4969 36.0247 31.9089 34.3879 31.2938L30.375 29.7903V29.0756C31.0137 28.5027 31.5056 27.772 31.7883 26.9426C32.5721 26.8085 33.2564 26.4018 33.7567 25.8255L34.2967 26.1394L38.7939 21.6413L37.5924 19.5725C37.8177 19.1152 38.0143 18.6351 38.1814 18.1381L40.5 17.5247V16.0312H48.9375C50.3331 16.0312 51.4688 17.1669 51.4688 18.5625V41.3438H2.53125V18.5625C2.53125 17.1669 3.66694 16.0312 5.0625 16.0312ZM36.2812 51.4688H17.7188V48.0938H36.2812V51.4688ZM48.9375 46.4062H5.0625C3.66694 46.4062 2.53125 45.2706 2.53125 43.875V43.0312H51.4688V43.875C51.4688 45.2706 50.3331 46.4062 48.9375 46.4062Z" fill="white"/>
</g>
<defs>
<clipPath id="clip0_588_3787">
<rect width="54" height="54" fill="white"/>
</clipPath>
</defs>
</svg>
