<svg width="54" height="54" viewBox="0 0 54 54" fill="none" xmlns="http://www.w3.org/2000/svg">
<g clip-path="url(#clip0_588_3983)">
<path d="M2.30078 28.2983H51.9336C52.8584 28.2983 53.328 28.5766 53.5762 28.9526C53.8322 29.3409 53.8749 29.8636 53.875 30.4038V51.6519C53.8748 52.2419 53.3864 52.7208 52.7891 52.7007L52.668 52.6899L52.5742 52.6714C52.1136 52.558 51.7775 52.1139 51.7773 51.6167V38.6138H2.22266V51.6519C2.22255 52.242 1.73414 52.7209 1.13672 52.7007L1.01562 52.6899L0.921875 52.6724C0.461157 52.559 0.125116 52.114 0.125 51.6167V30.4038C0.125 29.4361 0.442081 28.9223 0.851562 28.6431C1.27072 28.3575 1.81311 28.2983 2.30078 28.2983ZM2.22266 36.5161H51.7773V30.396H2.22266V36.5161Z" fill="white" stroke="#58B571" stroke-width="0.25"/>
<path d="M28.1738 23.603H41.0869C41.677 23.603 42.1568 24.0916 42.1367 24.689L42.125 24.8101C42.0524 25.3182 41.5822 25.7007 41.0518 25.7007H28.209C27.7105 25.7006 27.2665 25.374 27.1533 24.9058L27.1357 24.811V24.8101L27.125 24.689C27.1049 24.0916 27.5838 23.6031 28.1738 23.603Z" fill="white" stroke="#58B571" stroke-width="0.25"/>
<path d="M18.7822 1.29834H50.4775C51.0542 1.29834 51.5273 1.77057 51.5273 2.34717V19.9556C51.5273 20.5322 51.0542 21.0054 50.4775 21.0054H18.7822C18.2056 21.0053 17.7334 20.5322 17.7334 19.9556V2.34717C17.7335 1.77061 18.2057 1.29841 18.7822 1.29834ZM19.8311 18.9067H49.4287V3.396H19.8311V18.9067Z" fill="white" stroke="#58B571" stroke-width="0.25"/>
<path d="M3.52148 2.47217H14.0869C14.6635 2.47222 15.1357 2.94443 15.1357 3.521V24.6519C15.1356 25.2283 14.6634 25.7006 14.0869 25.7007H3.52148C2.94499 25.7006 2.47283 25.2283 2.47266 24.6519V3.521C2.47272 2.94444 2.94493 2.47223 3.52148 2.47217ZM4.57031 23.603H13.0381V4.56982H4.57031V23.603Z" fill="white" stroke="#58B571" stroke-width="0.25"/>
</g>
<defs>
<clipPath id="clip0_588_3983">
<rect width="54" height="54" fill="white"/>
</clipPath>
</defs>
</svg>
