<svg width="143" height="51" viewBox="0 0 143 51" fill="none" xmlns="http://www.w3.org/2000/svg">
<path d="M113.064 4.58245L110.437 4.86102L112.59 6.39185L121.605 12.8019L123.828 22.1477L124.336 24.2805L125.614 22.4991L139.258 3.47939L140.558 1.66682L138.34 1.90206L113.064 4.58245Z" fill="#2E90FA" stroke="#F5F5F5" stroke-width="2"/>
<rect x="-0.5" y="0.5" width="111" height="38" rx="19" transform="matrix(-1 0 0 1 111 12)" fill="#2E90FA" stroke="white"/>
<path d="M27.328 38V26.08H35.088V27.52H28.896V31.296H34.768V32.736H28.896V36.56H35.088V38H27.328ZM36.3751 38V29.376H37.8311V31.056L37.5911 30.912C37.8045 30.368 38.1458 29.9467 38.6151 29.648C39.0951 29.3387 39.6551 29.184 40.2951 29.184C40.9138 29.184 41.4631 29.3227 41.9431 29.6C42.4338 29.8773 42.8178 30.2613 43.0951 30.752C43.3831 31.2427 43.5271 31.7973 43.5271 32.416V38H42.0231V32.896C42.0231 32.416 41.9378 32.0107 41.7671 31.68C41.5965 31.3493 41.3511 31.0933 41.0311 30.912C40.7218 30.72 40.3645 30.624 39.9591 30.624C39.5538 30.624 39.1911 30.72 38.8711 30.912C38.5618 31.0933 38.3165 31.3547 38.1351 31.696C37.9538 32.0267 37.8631 32.4267 37.8631 32.896V38H36.3751ZM47.7044 38.192C47.139 38.192 46.6377 38.0907 46.2004 37.888C45.7737 37.6747 45.4377 37.3867 45.1924 37.024C44.947 36.6507 44.8244 36.224 44.8244 35.744C44.8244 35.2853 44.9204 34.8747 45.1124 34.512C45.315 34.1387 45.6244 33.824 46.0404 33.568C46.467 33.312 47.0004 33.1307 47.6404 33.024L50.8404 32.496V33.744L47.9764 34.224C47.4217 34.32 47.0164 34.496 46.7604 34.752C46.515 35.008 46.3924 35.3227 46.3924 35.696C46.3924 36.048 46.531 36.3413 46.8084 36.576C47.0964 36.8107 47.4537 36.928 47.8804 36.928C48.4244 36.928 48.8937 36.816 49.2884 36.592C49.6937 36.3573 50.0084 36.0427 50.2324 35.648C50.467 35.2533 50.5844 34.816 50.5844 34.336V32.144C50.5844 31.6747 50.4084 31.296 50.0564 31.008C49.715 30.7093 49.2617 30.56 48.6964 30.56C48.2057 30.56 47.7684 30.688 47.3844 30.944C47.011 31.1893 46.7337 31.52 46.5524 31.936L45.2564 31.264C45.4164 30.8693 45.6724 30.5173 46.0244 30.208C46.3764 29.888 46.787 29.6373 47.2564 29.456C47.7257 29.2747 48.2164 29.184 48.7284 29.184C49.3897 29.184 49.971 29.312 50.4724 29.568C50.9737 29.8133 51.363 30.16 51.6404 30.608C51.9284 31.0453 52.0724 31.5573 52.0724 32.144V38H50.6164V36.368L50.8884 36.464C50.707 36.8053 50.4617 37.104 50.1524 37.36C49.843 37.616 49.4804 37.8187 49.0644 37.968C48.6484 38.1173 48.195 38.192 47.7044 38.192ZM58.3635 38.192C57.6702 38.192 57.0355 38.0373 56.4595 37.728C55.8942 37.4187 55.4568 36.9813 55.1475 36.416L55.3555 36.16V38H53.8995V25.888H55.3875V31.232L55.1635 30.864C55.4835 30.352 55.9208 29.9467 56.4755 29.648C57.0302 29.3387 57.6648 29.184 58.3795 29.184C59.1902 29.184 59.9155 29.3813 60.5555 29.776C61.2062 30.1707 61.7182 30.7093 62.0915 31.392C62.4648 32.064 62.6515 32.832 62.6515 33.696C62.6515 34.5387 62.4648 35.3013 62.0915 35.984C61.7182 36.6667 61.2062 37.2053 60.5555 37.6C59.9155 37.9947 59.1848 38.192 58.3635 38.192ZM58.2515 36.752C58.7955 36.752 59.2808 36.6187 59.7075 36.352C60.1342 36.0853 60.4648 35.7227 60.6995 35.264C60.9448 34.7947 61.0675 34.272 61.0675 33.696C61.0675 33.0987 60.9448 32.576 60.6995 32.128C60.4648 31.6693 60.1342 31.3067 59.7075 31.04C59.2808 30.7627 58.7955 30.624 58.2515 30.624C57.7075 30.624 57.2168 30.7573 56.7795 31.024C56.3528 31.2907 56.0115 31.6587 55.7555 32.128C55.5102 32.5867 55.3875 33.1093 55.3875 33.696C55.3875 34.272 55.5102 34.7947 55.7555 35.264C56.0115 35.7227 56.3528 36.0853 56.7795 36.352C57.2168 36.6187 57.7075 36.752 58.2515 36.752ZM64.1226 38V25.888H65.6106V38H64.1226ZM71.4075 38.192C70.5755 38.192 69.8342 37.9947 69.1835 37.6C68.5328 37.2053 68.0208 36.6667 67.6475 35.984C67.2742 35.2907 67.0875 34.5173 67.0875 33.664C67.0875 32.8 67.2688 32.032 67.6315 31.36C68.0048 30.688 68.5062 30.16 69.1355 29.776C69.7755 29.3813 70.4902 29.184 71.2795 29.184C71.9195 29.184 72.4848 29.3013 72.9755 29.536C73.4768 29.76 73.8982 30.0693 74.2395 30.464C74.5915 30.848 74.8582 31.2907 75.0395 31.792C75.2315 32.2827 75.3275 32.7947 75.3275 33.328C75.3275 33.4453 75.3168 33.5787 75.2955 33.728C75.2848 33.8667 75.2688 34 75.2475 34.128H68.1755V32.848H74.3835L73.6795 33.424C73.7755 32.8693 73.7222 32.3733 73.5195 31.936C73.3168 31.4987 73.0182 31.152 72.6235 30.896C72.2288 30.64 71.7808 30.512 71.2795 30.512C70.7782 30.512 70.3195 30.64 69.9035 30.896C69.4875 31.152 69.1622 31.52 68.9275 32C68.7035 32.4693 68.6128 33.0293 68.6555 33.68C68.6128 34.3093 68.7088 34.864 68.9435 35.344C69.1888 35.8133 69.5302 36.1813 69.9675 36.448C70.4155 36.704 70.9008 36.832 71.4235 36.832C71.9995 36.832 72.4848 36.6987 72.8795 36.432C73.2742 36.1653 73.5942 35.824 73.8395 35.408L75.0875 36.048C74.9168 36.4427 74.6502 36.8053 74.2875 37.136C73.9355 37.456 73.5142 37.712 73.0235 37.904C72.5435 38.096 72.0048 38.192 71.4075 38.192ZM76.7876 38V29.376H78.2436V30.96L78.0836 30.736C78.2863 30.2453 78.5956 29.8827 79.0116 29.648C79.4276 29.4027 79.9343 29.28 80.5316 29.28H81.0596V30.688H80.3076C79.6996 30.688 79.209 30.88 78.8356 31.264C78.4623 31.6373 78.2756 32.1707 78.2756 32.864V38H76.7876ZM84.9894 38.192C84.1254 38.192 83.3734 37.9787 82.7334 37.552C82.0934 37.1253 81.64 36.5493 81.3734 35.824L82.5574 35.248C82.8027 35.76 83.1387 36.1653 83.5654 36.464C83.992 36.7627 84.4667 36.912 84.9894 36.912C85.4587 36.912 85.848 36.8 86.1574 36.576C86.4667 36.352 86.6214 36.0587 86.6214 35.696C86.6214 35.44 86.5467 35.2373 86.3974 35.088C86.2587 34.928 86.088 34.8053 85.8854 34.72C85.6827 34.624 85.496 34.5547 85.3254 34.512L84.0294 34.144C83.2507 33.92 82.68 33.6 82.3174 33.184C81.9654 32.768 81.7894 32.2827 81.7894 31.728C81.7894 31.216 81.9174 30.7733 82.1734 30.4C82.44 30.016 82.7974 29.7173 83.2454 29.504C83.704 29.2907 84.216 29.184 84.7814 29.184C85.5387 29.184 86.216 29.376 86.8134 29.76C87.4214 30.144 87.8534 30.6827 88.1094 31.376L86.8934 31.936C86.7014 31.488 86.4134 31.136 86.0294 30.88C85.6454 30.6133 85.2134 30.48 84.7334 30.48C84.296 30.48 83.9494 30.592 83.6934 30.816C83.4374 31.0293 83.3094 31.3013 83.3094 31.632C83.3094 31.8773 83.3734 32.08 83.5014 32.24C83.6294 32.3893 83.784 32.5067 83.9654 32.592C84.1467 32.6667 84.3227 32.7307 84.4934 32.784L85.9014 33.2C86.6054 33.4027 87.1494 33.7173 87.5334 34.144C87.928 34.5707 88.1254 35.0827 88.1254 35.68C88.1254 36.16 87.992 36.592 87.7254 36.976C87.4587 37.36 87.0907 37.6587 86.6214 37.872C86.152 38.0853 85.608 38.192 84.9894 38.192Z" fill="white"/>
</svg>
