<svg width="162" height="72" viewBox="0 0 162 72" fill="none" xmlns="http://www.w3.org/2000/svg">
<path d="M22.1509 39.2399L23.548 41.482L23.9858 38.8768L26.4613 24.1446L36.5199 15.924L38.2174 14.5366L36.0569 14.1642L5.16985 8.8407L2.97153 8.46181L4.1513 10.355L22.1509 39.2399Z" fill="#0AAF39" stroke="#F5F5F5" stroke-width="2"/>
<rect x="42.5" y="30.5" width="118.169" height="40.5085" rx="20.2542" fill="#0AAF39" stroke="white"/>
<path d="M69.0007 58.7498C68.054 58.7498 67.1874 58.5764 66.4007 58.2298C65.614 57.8698 64.9474 57.3831 64.4007 56.7698C63.854 56.1564 63.4607 55.4698 63.2207 54.7098L64.9207 54.0098C65.2807 54.9698 65.814 55.7098 66.5207 56.2298C67.2407 56.7364 68.0807 56.9898 69.0407 56.9898C69.6274 56.9898 70.1407 56.8964 70.5807 56.7098C71.0207 56.5231 71.3607 56.2631 71.6007 55.9298C71.854 55.5831 71.9807 55.1831 71.9807 54.7298C71.9807 54.1031 71.8007 53.6098 71.4407 53.2498C71.094 52.8764 70.5807 52.5964 69.9007 52.4098L67.1607 51.5698C66.0807 51.2364 65.254 50.7098 64.6807 49.9898C64.1074 49.2698 63.8207 48.4431 63.8207 47.5098C63.8207 46.6964 64.014 45.9831 64.4007 45.3698C64.8007 44.7431 65.3474 44.2564 66.0407 43.9098C66.7474 43.5498 67.5474 43.3698 68.4407 43.3698C69.334 43.3698 70.1407 43.5298 70.8607 43.8498C71.594 44.1698 72.214 44.6031 72.7207 45.1498C73.2274 45.6831 73.6007 46.2964 73.8407 46.9898L72.1607 47.6898C71.8407 46.8498 71.3607 46.2164 70.7207 45.7898C70.0807 45.3498 69.3274 45.1298 68.4607 45.1298C67.9274 45.1298 67.454 45.2231 67.0407 45.4098C66.6407 45.5831 66.3274 45.8431 66.1007 46.1898C65.8874 46.5231 65.7807 46.9231 65.7807 47.3898C65.7807 47.9364 65.954 48.4231 66.3007 48.8498C66.6474 49.2764 67.174 49.6031 67.8807 49.8298L70.3807 50.5698C71.554 50.9298 72.4407 51.4431 73.0407 52.1098C73.6407 52.7764 73.9407 53.6031 73.9407 54.5898C73.9407 55.4031 73.7274 56.1231 73.3007 56.7498C72.8874 57.3764 72.3074 57.8698 71.5607 58.2298C70.8274 58.5764 69.974 58.7498 69.0007 58.7498ZM80.3704 58.6298C79.3171 58.6298 78.5037 58.3298 77.9304 57.7298C77.3704 57.1298 77.0904 56.2831 77.0904 55.1898V49.5098H75.1304V47.7298H75.5304C76.0104 47.7298 76.3904 47.5831 76.6704 47.2898C76.9504 46.9964 77.0904 46.6098 77.0904 46.1298V45.2498H78.9504V47.7298H81.3704V49.5098H78.9504V55.1298C78.9504 55.4898 79.0037 55.8031 79.1104 56.0698C79.2304 56.3364 79.4237 56.5498 79.6904 56.7098C79.9571 56.8564 80.3104 56.9298 80.7504 56.9298C80.8437 56.9298 80.9571 56.9231 81.0904 56.9098C81.2371 56.8964 81.3704 56.8831 81.4904 56.8698V58.5098C81.3171 58.5498 81.1237 58.5764 80.9104 58.5898C80.6971 58.6164 80.5171 58.6298 80.3704 58.6298ZM86.3434 58.7498C85.6367 58.7498 85.01 58.6231 84.4634 58.3698C83.93 58.1031 83.51 57.7431 83.2034 57.2898C82.8967 56.8231 82.7434 56.2898 82.7434 55.6898C82.7434 55.1164 82.8634 54.6031 83.1034 54.1498C83.3567 53.6831 83.7434 53.2898 84.2634 52.9698C84.7967 52.6498 85.4634 52.4231 86.2634 52.2898L90.2634 51.6298V53.1898L86.6834 53.7898C85.99 53.9098 85.4834 54.1298 85.1634 54.4498C84.8567 54.7698 84.7034 55.1631 84.7034 55.6298C84.7034 56.0698 84.8767 56.4364 85.2234 56.7298C85.5834 57.0231 86.03 57.1698 86.5634 57.1698C87.2434 57.1698 87.83 57.0298 88.3234 56.7498C88.83 56.4564 89.2234 56.0631 89.5034 55.5698C89.7967 55.0764 89.9434 54.5298 89.9434 53.9298V51.1898C89.9434 50.6031 89.7234 50.1298 89.2834 49.7698C88.8567 49.3964 88.29 49.2098 87.5834 49.2098C86.97 49.2098 86.4234 49.3698 85.9434 49.6898C85.4767 49.9964 85.13 50.4098 84.9034 50.9298L83.2834 50.0898C83.4834 49.5964 83.8034 49.1564 84.2434 48.7698C84.6834 48.3698 85.1967 48.0564 85.7834 47.8298C86.37 47.6031 86.9834 47.4898 87.6234 47.4898C88.45 47.4898 89.1767 47.6498 89.8034 47.9698C90.43 48.2764 90.9167 48.7098 91.2634 49.2698C91.6234 49.8164 91.8034 50.4564 91.8034 51.1898V58.5098H89.9834V56.4698L90.3234 56.5898C90.0967 57.0164 89.79 57.3898 89.4034 57.7098C89.0167 58.0298 88.5634 58.2831 88.0434 58.4698C87.5234 58.6564 86.9567 58.7498 86.3434 58.7498ZM94.0873 58.5098V47.7298H95.9073V49.7098L95.7073 49.4298C95.9606 48.8164 96.3473 48.3631 96.8673 48.0698C97.3873 47.7631 98.0206 47.6098 98.7673 47.6098H99.4273V49.3698H98.4873C97.7273 49.3698 97.1139 49.6098 96.6473 50.0898C96.1806 50.5564 95.9473 51.2231 95.9473 52.0898V58.5098H94.0873ZM104.957 58.6298C103.904 58.6298 103.09 58.3298 102.517 57.7298C101.957 57.1298 101.677 56.2831 101.677 55.1898V49.5098H99.7171V47.7298H100.117C100.597 47.7298 100.977 47.5831 101.257 47.2898C101.537 46.9964 101.677 46.6098 101.677 46.1298V45.2498H103.537V47.7298H105.957V49.5098H103.537V55.1298C103.537 55.4898 103.59 55.8031 103.697 56.0698C103.817 56.3364 104.01 56.5498 104.277 56.7098C104.544 56.8564 104.897 56.9298 105.337 56.9298C105.43 56.9298 105.544 56.9231 105.677 56.9098C105.824 56.8964 105.957 56.8831 106.077 56.8698V58.5098C105.904 58.5498 105.71 58.5764 105.497 58.5898C105.284 58.6164 105.104 58.6298 104.957 58.6298ZM111.727 58.7498C110.953 58.7498 110.253 58.5698 109.627 58.2098C109.013 57.8498 108.533 57.3498 108.187 56.7098C107.853 56.0564 107.687 55.3098 107.687 54.4698V47.7298H109.547V54.2698C109.547 54.8031 109.653 55.2698 109.867 55.6698C110.093 56.0698 110.4 56.3831 110.787 56.6098C111.187 56.8364 111.64 56.9498 112.147 56.9498C112.653 56.9498 113.1 56.8364 113.487 56.6098C113.887 56.3831 114.193 56.0564 114.407 55.6298C114.633 55.2031 114.747 54.6964 114.747 54.1098V47.7298H116.627V58.5098H114.807V56.4098L115.107 56.5898C114.853 57.2698 114.42 57.8031 113.807 58.1898C113.207 58.5631 112.513 58.7498 111.727 58.7498ZM118.908 62.5098V47.7298H120.728V50.0498L120.488 49.5898C120.888 48.9498 121.435 48.4431 122.128 48.0698C122.822 47.6831 123.615 47.4898 124.508 47.4898C125.522 47.4898 126.428 47.7364 127.228 48.2298C128.042 48.7231 128.682 49.3964 129.148 50.2498C129.615 51.0898 129.848 52.0498 129.848 53.1298C129.848 54.1831 129.615 55.1364 129.148 55.9898C128.682 56.8431 128.042 57.5164 127.228 58.0098C126.428 58.5031 125.515 58.7498 124.488 58.7498C123.622 58.7498 122.828 58.5564 122.108 58.1698C121.402 57.7831 120.855 57.2364 120.468 56.5298L120.768 56.2098V62.5098H118.908ZM124.348 56.9498C125.028 56.9498 125.635 56.7831 126.168 56.4498C126.702 56.1164 127.115 55.6631 127.408 55.0898C127.715 54.5031 127.868 53.8498 127.868 53.1298C127.868 52.3831 127.715 51.7298 127.408 51.1698C127.115 50.5964 126.702 50.1431 126.168 49.8098C125.635 49.4631 125.028 49.2898 124.348 49.2898C123.668 49.2898 123.055 49.4564 122.508 49.7898C121.975 50.1231 121.548 50.5831 121.228 51.1698C120.922 51.7431 120.768 52.3964 120.768 53.1298C120.768 53.8498 120.922 54.5031 121.228 55.0898C121.548 55.6631 121.975 56.1164 122.508 56.4498C123.055 56.7831 123.668 56.9498 124.348 56.9498ZM135.547 58.7498C134.467 58.7498 133.527 58.4831 132.727 57.9498C131.927 57.4164 131.361 56.6964 131.027 55.7898L132.507 55.0698C132.814 55.7098 133.234 56.2164 133.767 56.5898C134.301 56.9631 134.894 57.1498 135.547 57.1498C136.134 57.1498 136.621 57.0098 137.007 56.7298C137.394 56.4498 137.587 56.0831 137.587 55.6298C137.587 55.3098 137.494 55.0564 137.307 54.8698C137.134 54.6698 136.921 54.5164 136.667 54.4098C136.414 54.2898 136.181 54.2031 135.967 54.1498L134.347 53.6898C133.374 53.4098 132.661 53.0098 132.207 52.4898C131.767 51.9698 131.547 51.3631 131.547 50.6698C131.547 50.0298 131.707 49.4764 132.027 49.0098C132.361 48.5298 132.807 48.1564 133.367 47.8898C133.941 47.6231 134.581 47.4898 135.287 47.4898C136.234 47.4898 137.081 47.7298 137.827 48.2098C138.587 48.6898 139.127 49.3631 139.447 50.2298L137.927 50.9298C137.687 50.3698 137.327 49.9298 136.847 49.6098C136.367 49.2764 135.827 49.1098 135.227 49.1098C134.681 49.1098 134.247 49.2498 133.927 49.5298C133.607 49.7964 133.447 50.1364 133.447 50.5498C133.447 50.8564 133.527 51.1098 133.687 51.3098C133.847 51.4964 134.041 51.6431 134.267 51.7498C134.494 51.8431 134.714 51.9231 134.927 51.9898L136.687 52.5098C137.567 52.7631 138.247 53.1564 138.727 53.6898C139.221 54.2231 139.467 54.8631 139.467 55.6098C139.467 56.2098 139.301 56.7498 138.967 57.2298C138.634 57.7098 138.174 58.0831 137.587 58.3498C137.001 58.6164 136.321 58.7498 135.547 58.7498Z" fill="white"/>
</svg>
