<svg width="166" height="341" viewBox="0 0 166 341" fill="none" xmlns="http://www.w3.org/2000/svg">
<g opacity="0.3">
<path d="M110.184 305.413H109.958C80.027 297.295 53.4608 280.463 33.9264 257.241C14.3919 234.019 2.85268 205.551 0.901432 175.769C-1.04981 145.986 6.68319 116.356 23.033 90.9698C39.3828 65.5835 63.543 45.6925 92.1787 34.0425C92.2771 33.9981 92.3839 33.9732 92.4926 33.9693C92.6013 33.9654 92.7096 33.9826 92.8112 34.0199C92.9128 34.0571 93.0056 34.1137 93.0838 34.1861C93.1621 34.2586 93.2243 34.3454 93.2668 34.4415C93.3092 34.5376 93.331 34.6409 93.3308 34.7452C93.3307 34.8496 93.3086 34.9528 93.2659 35.0488C93.2231 35.1447 93.1606 35.2314 93.0822 35.3036C93.0037 35.3759 92.9108 35.4322 92.8091 35.4691C64.4496 46.9735 40.5151 66.6457 24.3139 91.7665C8.11275 116.887 0.444928 146.216 2.37033 175.699C4.29572 205.182 15.7193 233.364 35.062 256.348C54.4047 279.332 80.7113 295.984 110.346 304.002C110.551 304.057 110.725 304.186 110.831 304.364C110.937 304.541 110.966 304.751 110.911 304.948C110.851 305.085 110.75 305.203 110.621 305.286C110.491 305.368 110.339 305.413 110.184 305.413Z" fill="black"/>
<path d="M150.688 310.747C140.184 310.759 129.708 309.72 119.429 307.646C119.326 307.626 119.227 307.586 119.14 307.529C119.053 307.472 118.978 307.398 118.921 307.313C118.864 307.228 118.825 307.132 118.807 307.032C118.789 306.932 118.791 306.83 118.815 306.731C118.862 306.532 118.987 306.357 119.165 306.244C119.343 306.132 119.559 306.089 119.769 306.126C134.414 309.088 149.44 309.93 164.346 308.623C164.452 308.614 164.559 308.626 164.66 308.658C164.762 308.689 164.856 308.739 164.937 308.805C165.018 308.872 165.084 308.953 165.133 309.044C165.181 309.135 165.21 309.234 165.218 309.336C165.229 309.437 165.219 309.54 165.189 309.637C165.158 309.734 165.107 309.824 165.039 309.902C164.971 309.981 164.888 310.045 164.794 310.091C164.7 310.138 164.597 310.166 164.491 310.174C159.933 310.546 155.278 310.747 150.688 310.747Z" fill="black"/>
<path d="M146.485 340.863C146.27 340.863 146.065 340.781 145.913 340.636C145.762 340.49 145.677 340.293 145.677 340.087V166.906L98.9339 99.746C98.8738 99.662 98.8319 99.5673 98.8108 99.4675C98.7896 99.3677 98.7896 99.2648 98.8107 99.165C98.8319 99.0652 98.8736 98.9705 98.9337 98.8865C98.9937 98.8025 99.0707 98.7309 99.1601 98.676C99.3383 98.5638 99.5555 98.5237 99.7643 98.5643C99.9732 98.605 100.157 98.7232 100.275 98.8931L147.147 166.24C147.229 166.371 147.273 166.521 147.277 166.674V340.134C147.265 340.329 147.176 340.512 147.029 340.647C146.883 340.782 146.688 340.859 146.485 340.863Z" fill="black"/>
<path d="M95.7512 94.5978C95.6175 94.5992 95.4855 94.5688 95.367 94.5093C95.2485 94.4498 95.1473 94.3629 95.0724 94.2566L30.2921 1.26172C30.2215 1.17771 30.17 1.08049 30.1409 0.976297C30.1117 0.872101 30.1056 0.763214 30.1228 0.656604C30.14 0.549995 30.1803 0.448012 30.2409 0.357166C30.3015 0.26632 30.3813 0.188612 30.475 0.12902C30.5688 0.0694284 30.6744 0.0292621 30.7852 0.0110847C30.8961 -0.00709267 31.0097 -0.00287681 31.1187 0.0234597C31.2278 0.0497963 31.3299 0.0976737 31.4185 0.164034C31.5072 0.230394 31.5804 0.313775 31.6336 0.408843L96.4139 93.4502C96.474 93.5342 96.5158 93.6289 96.537 93.7287C96.5581 93.8286 96.5581 93.9314 96.537 94.0312C96.5159 94.1311 96.4741 94.2258 96.4141 94.3098C96.3541 94.3938 96.2771 94.4653 96.1876 94.5202C96.0541 94.5891 95.9016 94.6162 95.7512 94.5978Z" fill="black"/>
</g>
</svg>
