<svg width="205" height="197" viewBox="0 0 205 197" fill="none" xmlns="http://www.w3.org/2000/svg">
<g opacity="0.3">
<path d="M102.214 173.489C86.3162 173.505 70.7967 168.84 57.7501 160.125C44.7036 151.41 34.7583 139.064 29.2567 124.754C23.7552 110.444 22.9624 94.8595 26.9854 80.1037C31.0084 65.3478 39.6534 52.1315 51.7534 42.239C61.2751 34.4365 72.621 28.9572 84.825 26.2675C97.0291 23.5779 109.73 23.7575 121.846 26.7912C133.962 29.8248 145.135 35.6226 154.412 43.6909C163.69 51.7592 170.798 61.8591 175.132 73.1306C179.465 84.402 180.896 96.5112 179.301 108.427C177.706 120.343 173.134 131.713 165.973 141.568C158.812 151.424 149.275 159.473 138.174 165.031C127.072 170.589 114.735 173.491 102.214 173.489ZM102.214 25.9257C84.0966 25.9169 66.5729 32.1207 52.804 43.4175C47.9868 47.347 43.6928 51.8313 40.0193 56.7689C33.5346 65.5137 29.1668 75.5372 27.2345 86.108C24.4868 100.867 26.5409 116.08 33.1179 129.681C39.6949 143.281 50.4759 154.609 63.9965 162.127C77.5171 169.645 93.1219 172.987 108.691 171.7C124.261 170.413 139.04 164.56 151.021 154.935C163.003 145.309 171.606 132.379 175.661 117.9C179.717 103.421 179.029 88.0948 173.691 74.0038C168.353 59.9128 158.624 47.7398 145.824 39.1382C133.025 30.5367 117.776 25.9236 102.149 25.9257H102.214ZM102.214 167.318C91.7975 167.3 81.5116 165.096 72.0773 160.86C62.6429 156.625 54.2886 150.46 47.6003 142.799C40.9119 135.138 36.0514 126.166 33.3598 116.512C30.6681 106.858 30.2104 96.756 32.0187 86.9143C34.9259 71.3322 43.3738 57.1989 55.9234 46.922C64.6574 39.7683 75.0637 34.7451 86.2565 32.2801C97.4493 29.8152 109.097 29.9814 120.209 32.7646C131.32 35.5479 141.566 40.8657 150.074 48.2655C158.583 55.6653 165.102 64.9279 169.076 75.2649C173.051 85.6019 174.363 96.7073 172.901 107.636C171.44 118.564 167.248 128.991 160.682 138.031C154.116 147.07 145.371 154.454 135.191 159.553C125.011 164.652 113.697 167.316 102.214 167.318ZM102.214 32.0819C91.0717 32.0888 80.0936 34.6561 70.1981 39.569C60.3027 44.4819 51.7777 51.5974 45.3368 60.32C39.3678 68.316 35.3416 77.4933 33.5542 87.1779C31.7801 96.7971 32.2224 106.672 34.8498 116.11C37.4772 125.548 42.2261 134.319 48.7631 141.809C55.3 149.298 63.4666 155.324 72.6893 159.463C81.912 163.602 91.9672 165.753 102.149 165.767C111.387 165.902 120.562 164.273 129.138 160.974C137.714 157.676 145.52 152.774 152.103 146.553C158.686 140.333 163.914 132.919 167.482 124.742C171.05 116.565 172.888 107.789 172.888 98.9244C172.888 90.0598 171.05 81.2838 167.482 73.1069C163.914 64.9301 158.686 57.5158 152.103 51.2955C145.52 45.0753 137.714 40.1732 129.138 36.8747C120.562 33.5761 111.387 31.9469 102.149 32.0819H102.214Z" fill="black"/>
<path d="M102.214 173.489C86.3162 173.505 70.7967 168.84 57.7501 160.125C44.7036 151.41 34.7583 139.064 29.2567 124.754C23.7552 110.444 22.9624 94.8595 26.9854 80.1037C31.0084 65.3478 39.6534 52.1315 51.7534 42.239C61.2751 34.4365 72.621 28.9572 84.825 26.2675C97.0291 23.5779 109.73 23.7575 121.846 26.7912C133.962 29.8248 145.135 35.6226 154.412 43.6909C163.69 51.7592 170.798 61.8591 175.132 73.1306C179.465 84.402 180.896 96.5112 179.301 108.427C177.706 120.343 173.134 131.713 165.973 141.568C158.812 151.424 149.275 159.473 138.174 165.031C127.072 170.589 114.735 173.491 102.214 173.489ZM102.214 25.9257C84.0966 25.9169 66.5729 32.1207 52.804 43.4175C47.9868 47.347 43.6928 51.8313 40.0193 56.7689C33.5346 65.5137 29.1668 75.5372 27.2345 86.108C24.4868 100.867 26.5409 116.08 33.1179 129.681C39.6949 143.281 50.4759 154.609 63.9965 162.127C77.5171 169.645 93.1219 172.987 108.691 171.7C124.261 170.413 139.04 164.56 151.021 154.935C163.003 145.309 171.606 132.379 175.661 117.9C179.717 103.421 179.029 88.0948 173.691 74.0038C168.353 59.9128 158.624 47.7398 145.824 39.1382C133.025 30.5367 117.776 25.9236 102.149 25.9257H102.214ZM102.214 167.318C91.7975 167.3 81.5116 165.096 72.0773 160.86C62.6429 156.625 54.2886 150.46 47.6003 142.799C40.9119 135.138 36.0514 126.166 33.3598 116.512C30.6681 106.858 30.2104 96.756 32.0187 86.9143C34.9259 71.3322 43.3738 57.1989 55.9234 46.922C64.6574 39.7683 75.0637 34.7451 86.2565 32.2801C97.4493 29.8152 109.097 29.9814 120.209 32.7646C131.32 35.5479 141.566 40.8657 150.074 48.2655C158.583 55.6653 165.102 64.9279 169.076 75.2649C173.051 85.6019 174.363 96.7073 172.901 107.636C171.44 118.564 167.248 128.991 160.682 138.031C154.116 147.07 145.371 154.454 135.191 159.553C125.011 164.652 113.697 167.316 102.214 167.318ZM102.214 32.0819C91.0717 32.0888 80.0936 34.6561 70.1981 39.569C60.3027 44.4819 51.7777 51.5974 45.3368 60.32C39.3678 68.316 35.3416 77.4933 33.5542 87.1779C31.7801 96.7971 32.2224 106.672 34.8498 116.11C37.4772 125.548 42.2261 134.319 48.7631 141.809C55.3 149.298 63.4666 155.324 72.6893 159.463C81.912 163.602 91.9672 165.753 102.149 165.767C111.387 165.902 120.562 164.273 129.138 160.974C137.714 157.676 145.52 152.774 152.103 146.553C158.686 140.333 163.914 132.919 167.482 124.742C171.05 116.565 172.888 107.789 172.888 98.9244C172.888 90.0598 171.05 81.2838 167.482 73.1069C163.914 64.9301 158.686 57.5158 152.103 51.2955C145.52 45.0753 137.714 40.1732 129.138 36.8747C120.562 33.5761 111.387 31.9469 102.149 32.0819H102.214Z" fill="black"/>
<path d="M42.4278 31.7703C36.6424 36.5313 31.4908 41.9582 27.0893 47.9284C19.2572 58.5111 13.9689 70.6287 11.6054 83.4082C10.6692 88.5283 10.1987 93.7168 10.1992 98.9151C10.2222 115.013 14.8271 130.8 23.517 144.571C32.2068 158.342 44.6516 169.575 59.5083 177.057C74.365 184.539 91.0693 187.986 107.819 187.026C124.568 186.067 140.726 180.737 154.549 171.611C163.527 165.644 171.34 158.206 177.629 149.638C190.336 132.022 195.942 110.578 193.404 89.2933C190.867 68.0089 180.358 48.3331 163.833 33.9251C147.308 19.5171 125.891 11.3577 103.566 10.9641C81.2403 10.5706 59.5256 17.9699 42.4601 31.7858L42.4278 31.7703ZM179.132 98.9151C179.136 110.523 176.286 121.968 170.814 132.32C165.341 142.673 157.401 151.641 147.637 158.496C137.873 165.35 126.561 169.899 114.621 171.771C102.681 173.643 90.4482 172.787 78.9177 169.271C67.3872 165.756 56.8837 159.68 48.2605 151.538C39.6373 143.396 33.1376 133.417 29.2895 122.412C25.4414 111.407 24.3534 99.6861 26.1139 88.2018C27.8744 76.7176 32.4337 65.7937 39.4215 56.3177C43.1351 51.3262 47.4781 46.7948 52.3517 42.8267C63.5272 33.6729 77.2019 27.7818 91.7577 25.8505C106.313 23.9193 121.141 26.0286 134.487 31.929C147.832 37.8293 159.137 47.2738 167.063 59.1449C174.99 71.016 179.206 84.8171 179.213 98.9151H179.132Z" stroke="black" stroke-linecap="round" stroke-linejoin="round"/>
<path d="M102.213 196.997C75.111 196.968 49.1276 186.625 29.965 168.237C10.8023 149.849 0.0256687 124.918 0 98.916C0 98.7103 0.0851422 98.5131 0.236698 98.3677C0.388253 98.2223 0.593806 98.1406 0.808138 98.1406H10.1664C10.3794 98.1446 10.5826 98.2276 10.7332 98.3721C10.8839 98.5167 10.9704 98.7116 10.9745 98.916C10.9703 114.882 15.5176 130.546 24.1245 144.211C32.7313 157.876 45.0698 169.023 59.8046 176.444C74.5393 183.865 91.109 187.279 107.72 186.315C124.332 185.352 140.352 180.047 154.047 170.977C154.227 170.859 154.448 170.815 154.661 170.852C154.766 170.871 154.866 170.909 154.955 170.965C155.043 171.021 155.12 171.093 155.179 171.178L160.496 178.559C160.615 178.728 160.659 178.935 160.62 179.136C160.581 179.336 160.461 179.513 160.286 179.629C143.232 190.974 122.966 197.035 102.213 196.997ZM1.61628 99.6913C1.76235 117.162 6.84856 134.267 16.3324 149.182C25.8162 164.097 39.342 176.262 55.4669 184.38C71.5919 192.498 89.7113 196.265 107.892 195.278C126.074 194.291 143.634 188.588 158.702 178.776L154.306 172.667C140.4 181.722 124.192 186.986 107.413 187.898C90.6328 188.81 73.9097 185.335 59.0266 177.844C44.1434 170.354 31.6583 159.128 22.9026 145.365C14.1469 131.601 9.44899 115.815 9.30975 99.6913H1.61628Z" fill="black"/>
<path d="M102.213 167.316C91.7967 167.298 81.5108 165.094 72.0765 160.858C62.6422 156.623 54.2879 150.459 47.5995 142.797C40.9111 135.136 36.0507 126.164 33.359 116.51C30.6673 106.856 30.2096 96.7542 32.0179 86.9125C34.9252 71.3303 43.3731 57.197 55.9227 46.9202C64.6567 39.7664 75.063 34.7433 86.2557 32.2783C97.4485 29.8133 109.096 29.9796 120.208 32.7628C131.319 35.546 141.565 40.8639 150.074 48.2636C158.582 55.6634 165.101 64.9261 169.075 75.2631C173.05 85.6001 174.362 96.7054 172.9 107.634C171.439 118.562 167.247 128.99 160.681 138.029C154.115 147.069 145.37 154.452 135.19 159.551C125.01 164.65 113.697 167.314 102.213 167.316ZM102.213 32.0801C91.0709 32.0869 80.0928 34.6543 70.1974 39.5671C60.3019 44.48 51.777 51.5955 45.3361 60.3182C39.367 68.3141 35.3409 77.4915 33.5534 87.1761C31.7794 96.7952 32.2216 106.67 34.849 116.108C37.4764 125.546 42.2253 134.317 48.7623 141.807C55.2993 149.296 63.4658 155.322 72.6885 159.461C81.9112 163.6 91.9664 165.752 102.148 165.765C111.387 165.9 120.561 164.271 129.137 160.972C137.713 157.674 145.519 152.772 152.102 146.551C158.685 140.331 163.913 132.917 167.481 124.74C171.049 116.563 172.887 107.787 172.887 98.9226C172.887 90.058 171.049 81.2819 167.481 73.1051C163.913 64.9283 158.685 57.514 152.102 51.2937C145.519 45.0734 137.713 40.1714 129.137 36.8728C120.561 33.5743 111.387 31.9451 102.148 32.0801H102.213Z" fill="black"/>
<path d="M102.212 173.489C81.6075 173.464 61.8539 165.599 47.2855 151.619C32.717 137.639 24.5233 118.685 24.502 98.916C24.5061 98.7116 24.5926 98.5167 24.7432 98.3721C24.8939 98.2276 25.0971 98.1446 25.3101 98.1406H31.7752C31.9882 98.1446 32.1914 98.2276 32.342 98.3721C32.4927 98.5167 32.5792 98.7116 32.5833 98.916C32.5772 111.11 36.0484 123.073 42.621 133.51C49.1936 143.947 58.6171 152.46 69.8709 158.127C81.1248 163.794 93.7803 166.399 106.467 165.66C119.153 164.921 131.387 160.866 141.844 153.934C141.93 153.877 142.027 153.836 142.13 153.815C142.232 153.793 142.338 153.792 142.442 153.81C142.657 153.848 142.848 153.965 142.975 154.136L146.628 159.207C146.747 159.378 146.792 159.588 146.753 159.791C146.714 159.993 146.593 160.173 146.418 160.292C133.436 168.926 118.008 173.532 102.212 173.489ZM26.1344 99.6913C26.2766 112.875 30.1373 125.776 37.3067 137.024C44.476 148.272 54.6863 157.447 66.8536 163.576C79.0208 169.704 92.6908 172.557 106.412 171.832C120.133 171.106 133.394 166.829 144.785 159.455L142.054 155.64C131.386 162.541 118.97 166.542 106.123 167.22C93.2767 167.898 80.4783 165.228 69.0858 159.491C57.6932 153.755 48.1314 145.167 41.4146 134.639C34.6978 124.111 31.0764 112.035 30.9347 99.6913H26.1344Z" fill="black"/>
<path d="M32.811 87.8292H32.6816L26.362 86.7437C26.1514 86.7058 25.9644 86.5908 25.8406 86.4229C25.7169 86.255 25.6663 86.0475 25.6993 85.8443C27.6924 75.0549 32.1525 64.8233 38.7588 55.885C38.8852 55.7189 39.074 55.6067 39.2852 55.5719C39.4964 55.5372 39.7134 55.5827 39.8902 55.6989L45.1431 59.2655C45.2305 59.3215 45.3045 59.3948 45.3602 59.4803C45.416 59.5658 45.4521 59.6617 45.4664 59.7617C45.4979 59.9666 45.4521 60.1756 45.3371 60.351C39.3676 68.3352 35.3412 77.5026 33.5544 87.1779C33.5091 87.382 33.3886 87.5637 33.215 87.6896C33.0942 87.7671 32.9555 87.815 32.811 87.8292ZM27.4449 85.3326L32.1644 86.1545C33.9779 76.7925 37.8334 67.904 43.4784 60.0718L39.5508 57.4047C33.5064 65.7899 29.3807 75.3079 27.4449 85.3326Z" fill="black"/>
<path d="M11.5717 84.1835H11.4424L2.2296 82.6328C2.01993 82.5951 1.8343 82.4794 1.71319 82.3109C1.59207 82.1424 1.54531 81.9349 1.58309 81.7334C4.17632 67.5343 10.0466 54.0714 18.7641 42.3304C18.8253 42.2465 18.9033 42.1752 18.9935 42.1204C19.0836 42.0656 19.1842 42.0284 19.2894 42.0111C19.3946 41.9938 19.5023 41.9967 19.6063 42.0196C19.7104 42.0424 19.8086 42.0848 19.8955 42.1443L27.5243 47.3236C27.6103 47.3811 27.6833 47.4547 27.7389 47.54C27.7945 47.6253 27.8314 47.7205 27.8476 47.8198C27.8806 48.0248 27.8346 48.2343 27.7183 48.4091C19.9312 58.8857 14.69 70.9034 12.3798 83.5787C12.3336 83.7784 12.2129 83.9548 12.0404 84.0749C11.9001 84.158 11.736 84.196 11.5717 84.1835ZM3.31251 81.2062L10.9252 82.5088C13.3061 70.1475 18.4206 58.4194 25.9242 48.1145L19.6207 43.819C11.4528 55.015 5.89087 67.7659 3.31251 81.2062Z" fill="black"/>
<path d="M165.184 142.072C165.016 142.071 164.853 142.022 164.715 141.932L159.446 138.381C159.358 138.325 159.284 138.252 159.229 138.166C159.173 138.081 159.137 137.985 159.122 137.885C159.092 137.685 159.138 137.481 159.252 137.311C169.004 123.992 173.354 107.716 171.486 91.5376C169.619 75.3594 161.662 60.3912 149.109 49.4418C136.556 38.4924 120.269 32.3145 103.306 32.0674C86.3421 31.8203 69.8676 37.5211 56.9738 48.0998C56.8951 48.1672 56.8029 48.2184 56.7029 48.2504C56.6028 48.2824 56.497 48.2945 56.3919 48.2859C56.2848 48.2802 56.1802 48.2523 56.0853 48.2041C55.9904 48.1559 55.9076 48.0886 55.8424 48.0068L51.6563 43.3547C51.5869 43.278 51.5344 43.1886 51.5017 43.092C51.4689 42.9954 51.4567 42.8935 51.4658 42.7923C51.4748 42.6911 51.5049 42.5927 51.5543 42.5029C51.6037 42.413 51.6713 42.3336 51.7532 42.2692C66.1374 30.4789 84.5106 24.1279 103.427 24.4073C122.344 24.6866 140.505 31.5772 154.504 43.7867C168.503 55.9962 177.379 72.6861 179.467 90.7263C181.555 108.767 176.712 126.918 165.846 141.777C165.768 141.874 165.668 141.951 165.552 142.002C165.437 142.053 165.31 142.077 165.184 142.072ZM161.046 137.559L164.99 140.226C175.363 125.682 179.902 108.027 177.77 90.5227C175.637 73.0179 166.977 56.8441 153.387 44.9866C139.797 33.1291 122.195 26.3884 103.83 26.0087C85.4647 25.6289 67.5763 31.6358 53.4665 42.9205L56.5859 46.4251C69.7976 35.8262 86.5621 30.175 103.78 30.5162C120.998 30.8575 137.505 37.1681 150.25 48.2814C162.994 59.3946 171.113 74.559 173.107 90.9708C175.1 107.383 170.833 123.932 161.094 137.559H161.046Z" fill="black"/>
<path d="M185.241 155.562C185.073 155.569 184.907 155.52 184.773 155.423L177.128 150.275C176.955 150.154 176.834 149.978 176.788 149.778C176.755 149.571 176.807 149.36 176.934 149.189C189.669 131.74 195.337 110.434 192.875 89.2635C190.413 68.0929 179.991 48.5095 163.561 34.1818C147.131 19.8541 125.819 11.7649 103.619 11.4296C81.4189 11.0942 59.8529 18.5357 42.9606 32.3601C42.8794 32.4286 42.7845 32.4805 42.6817 32.5125C42.5788 32.5445 42.4702 32.556 42.3626 32.5462C42.1508 32.5295 41.954 32.4351 41.813 32.2825L35.752 25.4595C35.6029 25.3119 35.5195 25.1145 35.5195 24.909C35.5195 24.7035 35.6029 24.5061 35.752 24.3585C54.6602 8.77747 78.8508 0.361957 103.773 0.695071C128.696 1.02818 152.633 10.087 171.081 26.1673C189.53 42.2477 201.218 64.2413 203.948 88.0111C206.678 111.781 200.261 135.689 185.904 155.237C185.83 155.339 185.731 155.422 185.615 155.479C185.5 155.536 185.371 155.564 185.241 155.562ZM178.776 149.453L185.112 153.717C198.97 134.485 205.081 111.08 202.308 87.8512C199.536 64.6222 188.069 43.1487 170.037 27.4201C152.006 11.6916 128.637 2.77762 104.272 2.3343C79.9066 1.89098 56.202 9.94847 37.5622 25.0098L42.5889 30.6543C59.8008 16.8129 81.6576 9.42445 104.112 9.85705C126.566 10.2897 148.096 18.5141 164.714 33.0072C181.333 47.5004 191.915 67.2804 194.501 88.6843C197.086 110.088 191.5 131.666 178.776 149.422V149.453Z" fill="black"/>
</g>
</svg>
