<svg width="278" height="267" viewBox="0 0 278 267" fill="none" xmlns="http://www.w3.org/2000/svg">
<g opacity="0.3">
<path d="M139.098 235.12C122.498 235.122 106.131 231.368 91.3273 224.163C76.5235 216.957 63.7001 206.502 53.8986 193.648C44.0972 180.794 37.5941 165.903 34.9178 150.185C32.2415 134.467 33.4674 118.365 38.4958 103.186C43.5242 88.0082 52.2134 74.182 63.8576 62.8308C75.5017 51.4797 89.7724 42.9238 105.51 37.8582C121.249 32.7925 138.01 31.3599 154.434 33.6768C170.857 35.9937 186.48 41.9947 200.032 51.1924C207.166 56.0479 213.648 61.7303 219.33 68.1104C232.43 82.8215 240.862 100.826 243.627 119.992C246.393 139.158 243.376 158.683 234.934 176.255C226.492 193.827 212.979 208.71 195.995 219.143C179.01 229.575 159.265 235.12 139.098 235.12ZM139.098 34.1658C115.398 34.1714 92.411 41.9477 73.9485 56.2055C55.486 70.4633 42.6566 90.3464 37.5869 112.559C32.5172 134.771 35.5117 157.979 46.0741 178.334C56.6364 198.69 74.1322 214.971 95.6613 224.479C117.19 233.987 141.46 236.151 164.446 230.611C187.432 225.072 207.755 212.162 222.046 194.022C236.336 175.882 243.736 153.601 243.019 130.872C242.301 108.144 233.51 86.3336 218.102 69.0563C212.508 62.7718 206.124 57.1776 199.094 52.4019C186.652 43.9021 172.389 38.1751 157.346 35.639C151.319 34.6401 145.214 34.1472 139.098 34.1658ZM139.098 226.715C113.43 226.715 88.8127 216.932 70.6624 199.518C52.5121 182.105 42.3154 158.486 42.3154 133.86C42.3154 109.233 52.5121 85.6148 70.6624 68.2011C88.8127 50.7873 113.43 41.0044 139.098 41.0044C144.798 41.0029 150.488 41.4803 156.101 42.431C178.144 46.221 198.135 57.225 212.671 73.5689C221.984 84.0304 228.759 96.3468 232.503 109.628C236.248 122.909 236.87 136.822 234.324 150.362C231.778 163.901 226.128 176.729 217.782 187.917C209.437 199.105 198.604 208.374 186.067 215.054C185.88 215.154 185.66 215.18 185.454 215.124C185.248 215.069 185.073 214.938 184.968 214.759C184.869 214.578 184.847 214.366 184.907 214.169C184.968 213.973 185.105 213.806 185.291 213.705C197.619 207.136 208.271 198.021 216.477 187.019C224.684 176.017 230.239 163.403 232.742 150.088C235.244 136.774 234.632 123.093 230.948 110.033C227.264 96.9739 220.602 84.8632 211.443 74.5768C197.145 58.4984 177.478 47.6747 155.794 43.9507C142.098 41.6395 128.04 42.2304 114.607 45.6819C101.174 49.1334 88.6898 55.3621 78.0304 63.9312C67.371 72.5004 58.7941 83.2026 52.901 95.2877C47.0078 107.373 43.941 120.548 43.9155 133.891C43.9301 148.617 47.6549 163.122 54.7724 176.17C61.8899 189.218 72.1893 200.422 84.7932 208.827C97.397 217.232 111.932 222.59 127.159 224.444C142.387 226.297 157.855 224.592 172.248 219.473C172.348 219.435 172.456 219.417 172.564 219.42C172.672 219.422 172.778 219.445 172.877 219.488C172.975 219.531 173.064 219.592 173.137 219.668C173.211 219.744 173.267 219.833 173.304 219.931C173.341 220.028 173.357 220.132 173.351 220.235C173.345 220.339 173.318 220.44 173.271 220.534C173.224 220.627 173.157 220.71 173.076 220.778C172.995 220.847 172.9 220.898 172.797 220.931C162.015 224.775 150.601 226.734 139.098 226.715Z" fill="black"/>
<path d="M139.098 235.12C122.498 235.122 106.131 231.368 91.3273 224.163C76.5235 216.957 63.7001 206.502 53.8986 193.648C44.0972 180.794 37.5941 165.903 34.9178 150.185C32.2415 134.467 33.4674 118.365 38.4958 103.186C43.5242 88.0082 52.2134 74.182 63.8576 62.8308C75.5017 51.4797 89.7724 42.9238 105.51 37.8582C121.249 32.7925 138.01 31.3599 154.434 33.6768C170.857 35.9937 186.48 41.9947 200.032 51.1924C207.166 56.0479 213.648 61.7303 219.33 68.1104C232.43 82.8215 240.862 100.826 243.627 119.992C246.393 139.158 243.376 158.683 234.934 176.255C226.492 193.827 212.979 208.71 195.995 219.143C179.01 229.575 159.265 235.12 139.098 235.12ZM139.098 34.1658C115.398 34.1714 92.411 41.9477 73.9485 56.2055C55.486 70.4633 42.6566 90.3464 37.5869 112.559C32.5172 134.771 35.5117 157.979 46.0741 178.334C56.6364 198.69 74.1322 214.971 95.6613 224.479C117.19 233.987 141.46 236.151 164.446 230.611C187.432 225.072 207.755 212.162 222.046 194.022C236.336 175.882 243.736 153.601 243.019 130.872C242.301 108.144 233.51 86.3336 218.102 69.0563C212.508 62.7718 206.124 57.1776 199.094 52.4019C186.652 43.9021 172.389 38.1751 157.346 35.639C151.319 34.6401 145.214 34.1472 139.098 34.1658Z" fill="black"/>
<path d="M216.761 39.4537C215.031 38.1511 213.27 36.895 211.475 35.67C196.449 25.4584 179.248 18.5732 161.112 15.511C143.073 12.4457 124.553 13.2071 106.853 17.7417C89.1537 22.2762 72.7034 30.4739 58.6582 41.7589C44.6131 53.044 33.3137 67.1426 25.5537 83.0644C17.7938 98.9863 13.7615 116.345 13.7402 133.922C13.7573 153.294 18.6518 172.376 28.0072 189.544C37.3627 206.712 50.9022 221.458 67.4738 232.527C84.0454 243.595 103.159 250.66 123.187 253.119C143.216 255.577 163.568 253.358 182.51 246.649C201.453 239.941 218.426 228.941 231.986 214.586C245.545 200.232 255.29 182.947 260.391 164.202C265.492 145.458 265.798 125.809 261.283 106.927C256.768 88.0446 247.566 70.4882 234.459 55.7514C232.843 53.9216 231.113 52.1228 229.368 50.386M139.099 234.344C118.388 234.344 98.1423 228.452 80.9218 217.413C63.7013 206.374 50.2792 190.684 42.3528 172.327C34.4265 153.969 32.3518 133.769 36.391 114.28C40.4303 94.7916 50.4022 76.8897 65.0457 62.8382C79.6892 48.7867 98.3468 39.2167 118.659 35.3383C138.971 31.46 160.026 33.4474 179.161 41.0493C198.297 48.6512 214.652 61.5261 226.161 78.0462C237.67 94.5662 243.814 113.989 243.817 133.86C243.871 147.069 241.199 160.157 235.955 172.37C230.712 184.584 223 195.681 213.266 205.022C203.531 214.363 191.966 221.763 179.237 226.795C166.508 231.828 152.866 234.394 139.099 234.344Z" stroke="black" stroke-linecap="round" stroke-linejoin="round"/>
<path d="M82.3993 27.3431C82.2523 27.342 82.1084 27.3025 81.983 27.2287C81.8577 27.1549 81.7558 27.0497 81.6882 26.9245C81.6385 26.8342 81.6083 26.7353 81.5993 26.6336C81.5903 26.5319 81.6028 26.4295 81.636 26.3325C81.6692 26.2356 81.7224 26.146 81.7924 26.0692C81.8625 25.9924 81.948 25.9299 82.0438 25.8855C99.4628 17.3535 118.732 12.8803 138.29 12.8287V2.14444C113.647 2.2827 89.499 8.7913 68.3862 20.9853C68.2951 21.0388 68.1938 21.0744 68.0883 21.0901C67.9827 21.1057 67.875 21.1012 67.7713 21.0767C67.6676 21.0522 67.57 21.0082 67.4841 20.9472C67.3982 20.8863 67.3258 20.8097 67.271 20.7217C67.1627 20.5441 67.1308 20.333 67.1821 20.1332C67.2334 19.9335 67.3639 19.7607 67.5458 19.6517C89.149 7.18019 113.886 0.591574 139.098 0.593751C139.313 0.593751 139.518 0.675438 139.67 0.820843C139.821 0.966249 139.906 1.16346 139.906 1.3691V13.604C139.906 13.8097 139.821 14.0069 139.67 14.1523C139.518 14.2977 139.313 14.3794 139.098 14.3794C119.522 14.3176 100.212 18.7351 82.7711 27.2656C82.6538 27.3152 82.5274 27.3415 82.3993 27.3431Z" fill="black"/>
<path d="M25.4423 209.907C25.3113 209.906 25.1825 209.874 25.0671 209.815C24.9516 209.755 24.853 209.67 24.7796 209.566C4.21427 180.99 -3.9148 145.842 2.1226 111.603C8.16001 77.3644 27.8871 46.738 57.1051 26.243C57.2766 26.1196 57.4922 26.0666 57.7043 26.0957C57.9165 26.1248 58.1079 26.2335 58.2365 26.398C58.3593 26.5658 58.4094 26.7727 58.3762 26.9752C58.3431 27.1777 58.2292 27.36 58.0587 27.4835C29.2967 47.6642 9.8323 77.7771 3.7739 111.466C-2.2845 145.155 5.53707 179.785 25.5878 208.046L34.7359 201.983C25.3846 188.785 18.8451 173.943 15.4934 158.312C12.1417 142.68 12.0441 126.567 15.2059 110.899C18.3678 95.2314 24.7268 80.3178 33.9173 67.0162C43.1079 53.7146 54.9486 42.2873 68.7585 33.3916C68.9367 33.2794 69.1538 33.2393 69.3627 33.2799C69.5716 33.3206 69.7553 33.4388 69.8737 33.6087C69.9346 33.6918 69.9774 33.7857 69.9998 33.8849C70.0222 33.984 70.0236 34.0865 70.004 34.1863C69.9844 34.286 69.9442 34.381 69.8857 34.4655C69.8273 34.5501 69.7518 34.6226 69.6636 34.6787C55.9728 43.5001 44.244 54.842 35.1577 68.0465C26.0714 81.2509 19.8084 96.0549 16.7321 111.6C13.6559 127.145 13.8275 143.121 17.2372 158.601C20.6468 174.082 27.2265 188.759 36.5946 201.781C36.6547 201.864 36.6971 201.957 36.7193 202.055C36.7415 202.154 36.7431 202.256 36.7239 202.355C36.7068 202.456 36.6677 202.552 36.6092 202.638C36.5508 202.723 36.4742 202.796 36.3845 202.851L25.9595 209.767C25.8077 209.867 25.626 209.916 25.4423 209.907Z" fill="black"/>
<path d="M52.9028 191.716C52.7735 191.715 52.6461 191.686 52.531 191.629C52.4158 191.573 52.3162 191.491 52.2401 191.39C41.3082 176.193 34.9159 158.416 33.7548 139.984C32.5936 121.552 36.7079 103.167 45.6524 86.8163C54.5969 70.466 68.0312 56.7735 84.5018 47.2201C100.972 37.6668 119.852 32.6164 139.099 32.6152C139.313 32.6152 139.519 32.6969 139.67 32.8423C139.822 32.9877 139.907 33.1849 139.907 33.3906V41.7798C139.907 41.9855 139.822 42.1827 139.67 42.3281C139.519 42.4735 139.313 42.5552 139.099 42.5552C121.741 42.5514 104.714 47.1029 89.8587 55.7171C75.0039 64.3313 62.888 76.6798 54.8227 91.426C46.7574 106.172 43.05 122.754 44.1018 139.376C45.1537 155.999 50.9248 172.029 60.7902 185.73C60.9041 185.9 60.95 186.104 60.9195 186.304C60.8742 186.508 60.7537 186.69 60.5801 186.816L53.4362 191.561C53.278 191.662 53.0926 191.716 52.9028 191.716ZM138.291 34.1814C119.476 34.3189 101.054 39.3549 84.9891 48.7521C68.9245 58.1492 55.8208 71.5548 47.0762 87.5382C38.3317 103.522 34.2745 121.483 35.3377 139.506C36.4009 157.528 42.5445 174.936 53.1129 189.871L58.9962 185.978C49.1645 172.071 43.4508 155.865 42.4642 139.087C41.4775 122.31 45.2549 105.59 53.3936 90.7096C61.5323 75.8296 73.7272 63.3476 88.6783 54.5941C103.629 45.8406 120.776 41.1438 138.291 41.0045V34.1814Z" fill="black"/>
<path d="M194.521 59.4572C194.353 59.4605 194.188 59.4116 194.052 59.3176C182.655 51.5307 169.59 46.2808 155.811 43.9503C155.707 43.9348 155.608 43.8993 155.519 43.846C155.43 43.7927 155.354 43.7227 155.294 43.6401C155.23 43.5564 155.185 43.4606 155.163 43.3589C155.14 43.2573 155.141 43.1523 155.165 43.0509L156.7 34.8012C156.717 34.7007 156.756 34.6045 156.813 34.5184C156.87 34.4324 156.944 34.3582 157.032 34.3003C157.119 34.2425 157.218 34.2021 157.322 34.1816C157.426 34.161 157.533 34.1608 157.637 34.1809C172.914 36.7768 187.396 42.6037 200.032 51.2385C200.12 51.2973 200.194 51.3721 200.251 51.4586C200.308 51.5451 200.347 51.6416 200.365 51.7425C200.383 51.8434 200.38 51.9468 200.356 52.0466C200.332 52.1464 200.288 52.2407 200.226 52.324L195.167 59.1781C195.109 59.2619 195.033 59.3329 194.943 59.3863C194.854 59.4398 194.754 59.4745 194.65 59.4882L194.521 59.4572ZM156.878 42.5702C170.334 44.9552 183.099 50.0847 194.311 57.6119L198.416 52.0139C186.35 43.9113 172.608 38.3952 158.122 35.8402L156.878 42.5702Z" fill="black"/>
<path d="M211.476 36.4923C211.309 36.4915 211.146 36.4429 211.008 36.3527C196.104 26.1452 179.014 19.2581 160.984 16.1937C160.876 16.1775 160.774 16.1402 160.682 16.0842C160.59 16.0281 160.511 15.9546 160.451 15.8681C160.334 15.6992 160.288 15.4944 160.321 15.2943L162.552 3.27648C162.569 3.17547 162.608 3.0788 162.664 2.99207C162.721 2.90533 162.795 2.83024 162.882 2.77112C162.969 2.71201 163.068 2.67005 163.172 2.64766C163.276 2.62527 163.384 2.6229 163.489 2.64069C183.597 6.03826 202.662 13.693 219.299 25.0482C219.387 25.1069 219.461 25.1817 219.518 25.2682C219.575 25.3547 219.614 25.4512 219.632 25.5521C219.65 25.653 219.647 25.7564 219.623 25.8562C219.599 25.956 219.555 26.0503 219.493 26.1336L212.139 36.1046C212.079 36.1871 212.002 36.2572 211.914 36.3105C211.825 36.3638 211.725 36.3992 211.622 36.4147L211.476 36.4923ZM162.051 14.7826C179.756 17.8864 196.552 24.6314 211.282 34.5539L217.748 25.8545C201.683 15.0187 183.358 7.65912 164.039 4.28443L162.051 14.7826Z" fill="black"/>
<path d="M145.822 266.971C145.616 266.972 145.418 266.897 145.268 266.761C145.117 266.626 145.027 266.44 145.014 266.243C145.01 266.141 145.027 266.039 145.063 265.943C145.1 265.848 145.156 265.76 145.228 265.685C145.3 265.61 145.387 265.55 145.483 265.507C145.58 265.464 145.684 265.44 145.79 265.436C171.361 264.24 196.073 256.208 217.136 242.246C238.2 228.285 254.774 208.952 264.989 186.43C275.203 163.907 278.65 139.093 274.94 114.791C271.231 90.4877 260.512 67.6643 243.995 48.8979L235.542 55.8295C255.264 78.2517 265.827 106.783 265.266 136.117C264.705 165.452 253.058 193.592 232.492 215.305C211.925 237.018 183.839 250.825 153.457 254.159C123.075 257.493 92.4652 250.127 67.3199 233.43L60.8548 242.16C81.4364 255.886 105.548 263.931 130.565 265.421C130.67 265.425 130.774 265.449 130.869 265.492C130.965 265.535 131.051 265.595 131.122 265.671C131.192 265.746 131.247 265.834 131.282 265.929C131.316 266.025 131.331 266.126 131.324 266.227C131.308 266.431 131.209 266.622 131.05 266.757C130.89 266.893 130.681 266.965 130.468 266.956C104.885 265.469 80.235 257.191 59.2709 243.044C59.184 242.987 59.11 242.914 59.053 242.828C58.9961 242.743 58.9575 242.648 58.9395 242.548C58.9214 242.449 58.9242 242.347 58.9478 242.248C58.9715 242.149 59.0153 242.056 59.0769 241.974L66.3825 231.972C66.5094 231.801 66.7007 231.685 66.9159 231.647C67.1243 231.617 67.3367 231.662 67.5139 231.771C92.3368 248.577 122.706 256.098 152.906 252.92C183.106 249.742 211.054 236.082 231.489 214.513C251.925 192.944 263.438 164.953 263.863 135.808C264.288 106.662 253.595 78.3726 233.796 56.2637C233.725 56.1858 233.671 56.0947 233.637 55.9961C233.604 55.8974 233.592 55.7932 233.602 55.6899C233.62 55.4868 233.718 55.2979 233.877 55.1627L243.575 47.2387C243.729 47.0956 243.934 47.0156 244.149 47.0156C244.363 47.0156 244.569 47.0956 244.722 47.2387C261.586 66.1827 272.577 89.2826 276.449 113.917C280.32 138.551 276.917 163.734 266.626 186.606C256.334 209.478 239.566 229.125 218.225 243.317C196.883 257.508 171.823 265.676 145.887 266.894L145.822 266.971Z" fill="black"/>
</g>
</svg>
