<svg width="42" height="42" viewBox="0 0 42 42" fill="none" xmlns="http://www.w3.org/2000/svg">
<path d="M34.75 12.75C38.0637 12.75 40.75 10.0637 40.75 6.75C40.75 3.43629 38.0637 0.75 34.75 0.75C31.4363 0.75 28.75 3.43629 28.75 6.75C28.75 10.0637 31.4363 12.75 34.75 12.75Z" stroke="#23BB4E" stroke-width="1.5"/>
<path d="M10.75 24.75L15.336 20.164C15.7111 19.7891 16.2197 19.5784 16.75 19.5784C17.2803 19.5784 17.7889 19.7891 18.164 20.164L21.336 23.336C21.7111 23.7109 22.2197 23.9216 22.75 23.9216C23.2803 23.9216 23.7889 23.7109 24.164 23.336L30.75 16.75M30.75 16.75V21.75M30.75 16.75H25.75" stroke="#23BB4E" stroke-width="1.5" stroke-linecap="round" stroke-linejoin="round"/>
<path d="M40.75 17.75V20.75C40.75 30.178 40.75 34.892 37.82 37.82C34.894 40.75 30.178 40.75 20.75 40.75C11.322 40.75 6.608 40.75 3.678 37.82C0.75 34.894 0.75 30.178 0.75 20.75C0.75 18.494 0.75 16.506 0.79 14.75M23.75 0.75H20.75C11.322 0.75 6.608 0.75 3.678 3.678C2.798 4.56 2.18 5.604 1.75 6.89" stroke="#23BB4E" stroke-width="1.5" stroke-linecap="round"/>
</svg>
