<svg width="447" height="426" viewBox="0 0 447 426" fill="none" xmlns="http://www.w3.org/2000/svg">
<g opacity="0.78">
<g opacity="0.3">
<path d="M136.41 0.5H41.5V267.56H136.41V0.5Z" stroke="black" stroke-miterlimit="10"/>
<path d="M42.0098 8.62125H136.23L134.01 1.28125" stroke="black" stroke-opacity="0.36" stroke-miterlimit="10"/>
<path d="M42.0098 17.5119H136.23L134.01 10.1719" stroke="black" stroke-opacity="0.36" stroke-miterlimit="10"/>
<path d="M42.0098 26.3986H136.23L134.01 19.0586" stroke="black" stroke-opacity="0.36" stroke-miterlimit="10"/>
<path d="M42.0098 35.2892H136.23L134.01 27.9492" stroke="black" stroke-opacity="0.36" stroke-miterlimit="10"/>
<path d="M42.0098 44.1798H136.23L134.01 36.8398" stroke="black" stroke-opacity="0.36" stroke-miterlimit="10"/>
<path d="M42.0098 53.0805H136.23L134.01 45.7305" stroke="black" stroke-opacity="0.36" stroke-miterlimit="10"/>
<path d="M42.0098 61.9711H136.23L134.01 54.6211" stroke="black" stroke-opacity="0.36" stroke-miterlimit="10"/>
<path d="M42.0098 70.8595H136.23L134.01 63.5195" stroke="black" stroke-opacity="0.36" stroke-miterlimit="10"/>
<path d="M42.0098 79.7502H136.23L134.01 72.4102" stroke="black" stroke-opacity="0.36" stroke-miterlimit="10"/>
<path d="M42.0098 88.6408H136.23L134.01 81.3008" stroke="black" stroke-opacity="0.36" stroke-miterlimit="10"/>
<path d="M42.0098 97.5314H136.23L134.01 90.1914" stroke="black" stroke-opacity="0.36" stroke-miterlimit="10"/>
<path d="M42.0098 106.418H136.23L134.01 99.0781" stroke="black" stroke-opacity="0.36" stroke-miterlimit="10"/>
<path d="M42.0098 115.309H136.23L134.01 107.969" stroke="black" stroke-opacity="0.36" stroke-miterlimit="10"/>
<path d="M42.0098 124.209H136.23L134.01 116.859" stroke="black" stroke-opacity="0.36" stroke-miterlimit="10"/>
<path d="M42.0098 133.1H136.23L134.01 125.75" stroke="black" stroke-opacity="0.36" stroke-miterlimit="10"/>
<path d="M42.0098 141.988H136.23L134.01 134.648" stroke="black" stroke-opacity="0.36" stroke-miterlimit="10"/>
<path d="M42.0098 150.879H136.23L134.01 143.539" stroke="black" stroke-opacity="0.36" stroke-miterlimit="10"/>
<path d="M42.0098 159.77H136.23L134.01 152.43" stroke="black" stroke-opacity="0.36" stroke-miterlimit="10"/>
<path d="M42.0098 168.66H136.23L134.01 161.32" stroke="black" stroke-opacity="0.36" stroke-miterlimit="10"/>
<path d="M42.0098 177.551H136.23L134.01 170.211" stroke="black" stroke-opacity="0.36" stroke-miterlimit="10"/>
<path d="M42.0098 186.442H136.23L134.01 179.102" stroke="black" stroke-miterlimit="10"/>
<path d="M42.0098 195.34H136.23L134.01 188" stroke="black" stroke-miterlimit="10"/>
<path d="M42.0098 204.231H136.23L134.01 196.891" stroke="black" stroke-miterlimit="10"/>
<path d="M42.0098 213.121H136.23L134.01 205.781" stroke="black" stroke-miterlimit="10"/>
<path d="M42.0098 222.012H136.23L134.01 214.672" stroke="black" stroke-miterlimit="10"/>
<path d="M42.0098 230.899H136.23L134.01 223.559" stroke="black" stroke-miterlimit="10"/>
<path d="M42.0098 239.789H136.23L134.01 232.449" stroke="black" stroke-miterlimit="10"/>
<path d="M42.0098 248.68H136.23L134.01 241.34" stroke="black" stroke-miterlimit="10"/>
<path d="M42.0098 257.58H136.23L134.01 250.23" stroke="black" stroke-miterlimit="10"/>
<path d="M238.48 0.5H143.57V267.56H238.48V0.5Z" stroke="black" stroke-miterlimit="10"/>
<path d="M144.08 8.62125H238.29L236.08 1.28125" stroke="black" stroke-miterlimit="10"/>
<path d="M144.08 17.5119H238.29L236.08 10.1719" stroke="black" stroke-miterlimit="10"/>
<path d="M144.08 26.3986H238.29L236.08 19.0586" stroke="black" stroke-miterlimit="10"/>
<path d="M144.08 35.2892H238.29L236.08 27.9492" stroke="black" stroke-miterlimit="10"/>
<path d="M144.08 44.1798H238.29L236.08 36.8398" stroke="black" stroke-miterlimit="10"/>
<path d="M144.08 53.0805H238.29L236.08 45.7305" stroke="black" stroke-miterlimit="10"/>
<path d="M144.08 61.9711H238.29L236.08 54.6211" stroke="black" stroke-miterlimit="10"/>
<path d="M144.08 70.8595H238.29L236.08 63.5195" stroke="black" stroke-miterlimit="10"/>
<path d="M144.08 79.7502H238.29L236.08 72.4102" stroke="black" stroke-miterlimit="10"/>
<path d="M144.08 88.6408H238.29L236.08 81.3008" stroke="black" stroke-miterlimit="10"/>
<path d="M144.08 97.5314H238.29L236.08 90.1914" stroke="black" stroke-miterlimit="10"/>
<path d="M144.08 106.418H238.29L236.08 99.0781" stroke="black" stroke-miterlimit="10"/>
<path d="M144.08 115.309H238.29L236.08 107.969" stroke="black" stroke-miterlimit="10"/>
<path d="M144.08 124.209H238.29L236.08 116.859" stroke="black" stroke-miterlimit="10"/>
<path d="M144.08 133.1H238.29L236.08 125.75" stroke="black" stroke-miterlimit="10"/>
<path d="M144.08 141.988H238.29L236.08 134.648" stroke="black" stroke-miterlimit="10"/>
<path d="M144.08 150.879H238.29L236.08 143.539" stroke="black" stroke-miterlimit="10"/>
<path d="M144.08 159.77H238.29L236.08 152.43" stroke="black" stroke-miterlimit="10"/>
<path d="M144.08 168.66H238.29L236.08 161.32" stroke="black" stroke-miterlimit="10"/>
<path d="M144.08 177.551H238.29L236.08 170.211" stroke="black" stroke-miterlimit="10"/>
<path d="M144.08 186.442H238.29L236.08 179.102" stroke="black" stroke-miterlimit="10"/>
<path d="M144.08 195.34H238.29L236.08 188" stroke="black" stroke-miterlimit="10"/>
<path d="M144.08 204.231H238.29L236.08 196.891" stroke="black" stroke-miterlimit="10"/>
<path d="M144.08 213.121H238.29L236.08 205.781" stroke="black" stroke-miterlimit="10"/>
<path d="M144.08 222.012H238.29L236.08 214.672" stroke="black" stroke-miterlimit="10"/>
<path d="M144.08 230.899H238.29L236.08 223.559" stroke="black" stroke-miterlimit="10"/>
<path d="M144.08 239.789H238.29L236.08 232.449" stroke="black" stroke-miterlimit="10"/>
<path d="M144.08 248.68H238.29L236.08 241.34" stroke="black" stroke-miterlimit="10"/>
<path d="M144.08 257.58H238.29L236.08 250.23" stroke="black" stroke-miterlimit="10"/>
</g>
</g>
<path d="M277.609 200.5C278.776 200.671 279.967 200.495 281.034 199.994C282.101 199.492 282.997 198.687 283.609 197.68" stroke="#263238" stroke-linecap="round" stroke-linejoin="round"/>
<g opacity="0.3">
<path d="M431.5 35.5H348.5V144.5H431.5V35.5Z" stroke="black" stroke-miterlimit="10"/>
<path d="M416.27 55.5H363.73V124.5H416.27V55.5Z" stroke="black" stroke-miterlimit="10"/>
</g>
<path d="M430.5 425.5H446.5" stroke="#263238" stroke-linecap="round" stroke-linejoin="round"/>
<path d="M0.5 425.5H420.5" stroke="#263238" stroke-linecap="round" stroke-linejoin="round"/>
<path d="M207.909 312.93L218.049 400.79L228.929 400.04L231.559 332.83L238.319 332.08L280.749 334.71C282.98 334.208 285.236 333.831 287.509 333.58C289.009 333.58 290.889 329.45 281.879 325.7C272.869 321.95 210.499 309.93 209.039 309.93C207.579 309.93 207.909 312.93 207.909 312.93Z" fill="#263238" stroke="#263238" stroke-linecap="round" stroke-linejoin="round"/>
<path d="M266.86 300.502C266.86 300.502 227.86 287.592 189.86 296.002C186.75 296.692 180.09 376.002 180.09 376.002L190.23 379.002L206 316.292C206 316.292 272.08 335.442 285.6 333.562C299.12 331.682 266.86 300.502 266.86 300.502Z" fill="#263238" stroke="#263238" stroke-linecap="round" stroke-linejoin="round"/>
<path d="M277.749 168.012C277.749 168.012 274.749 175.892 274.749 179.642C274.84 182.187 275.435 184.688 276.499 187.002C276.499 187.002 270.609 193.392 271.699 195.812C272.369 197.322 275.369 197.882 275.369 197.882C275.369 197.882 277.999 211.762 280.249 212.512C282.499 213.262 291.889 211.382 291.889 211.382L290.289 230.382L308.919 214.562L307.419 202.562C307.419 202.562 311.919 196.172 317.179 188.672C322.439 181.172 319.429 169.142 316.429 163.512C313.429 157.882 290.519 146.242 275.129 165.392L277.749 168.012Z" fill="#9C9C9C" stroke="#263238" stroke-linecap="round" stroke-linejoin="round"/>
<path d="M338.499 174.331C338.019 172.641 343.319 172.161 341.389 168.061C339.459 163.961 333.679 164.211 333.929 161.321C334.179 158.431 336.089 158.671 332.719 155.531C329.349 152.391 326.719 154.091 325.719 150.961C324.719 147.831 324.039 144.691 324.039 144.691L321.869 143.011C320.439 141.901 319.119 143.011 318.379 143.841C316.379 144.491 314.539 147.091 312.679 146.841C309.919 146.501 309.229 139.261 303.679 139.601C298.129 139.941 300.239 148.911 298.169 148.221C296.099 147.531 291.959 144.771 286.449 146.151C280.939 147.531 286.449 152.701 284.379 152.361C282.309 152.021 270.249 149.601 269.209 152.701C268.169 155.801 275.759 159.941 275.759 159.941C275.759 159.941 266.449 157.181 269.209 162.351C270.084 163.887 271.307 165.197 272.78 166.174C274.252 167.152 275.934 167.771 277.689 167.981C277.689 167.981 273.989 169.351 275.489 171.041C276.789 172.501 281.039 172.841 282.149 172.901L282.349 173.111C281.989 174.011 280.799 177.761 285.239 178.921C286.439 179.231 287.419 179.431 288.239 179.561L288.909 180.301C288.482 181.3 288.131 182.33 287.859 183.381C287.169 186.481 292.679 188.211 294.749 188.211C296.819 188.211 298.539 195.101 296.819 197.211C296.634 197.436 296.497 197.695 296.415 197.973C296.332 198.251 296.306 198.543 296.339 198.831C296.019 199.181 295.749 199.461 295.609 199.651C294.609 200.851 293.679 204.951 294.879 205.651C296.079 206.351 300.879 205.651 300.879 205.651C300.879 205.651 301.599 211.431 303.769 211.921C305.939 212.411 307.619 210.231 308.349 208.541C309.079 206.851 310.999 210.951 313.889 210.471C316.779 209.991 317.979 207.821 318.949 206.131C319.919 204.441 320.869 207.581 325.449 206.611C330.029 205.641 328.099 198.901 328.099 198.901C328.099 198.901 332.439 201.311 334.849 199.391C337.259 197.471 337.979 193.121 338.219 190.231C338.459 187.341 342.319 190.951 342.319 185.651C342.319 180.351 338.999 176.011 338.499 174.331Z" fill="#263238"/>
<path d="M291.878 211.38L297.108 210.02L291.488 220.01L291.878 211.38Z" fill="#263238" stroke="#263238" stroke-linecap="round" stroke-linejoin="round"/>
<path d="M281.059 187.052C281.059 188.332 280.609 189.372 280.059 189.372C279.509 189.372 279.059 188.372 279.059 187.052C279.059 185.732 279.509 184.742 280.059 184.742C280.609 184.742 281.059 185.782 281.059 187.052Z" fill="#263238"/>
<path d="M278.75 181.272C278.75 181.272 280.75 180.412 283.08 182.432" stroke="#263238" stroke-linecap="round" stroke-linejoin="round"/>
<path d="M278.609 263.562L238.199 266.832L225.199 265.622C225.199 265.622 207.309 271.702 210.799 272.872C213.276 273.538 215.887 273.51 218.349 272.793C221.712 274.128 225.291 274.839 228.909 274.893C231.85 274.863 234.775 274.47 237.619 273.723L282.699 280.503L278.609 263.562Z" fill="#263238" stroke="#263238" stroke-linecap="round" stroke-linejoin="round"/>
<path d="M308.159 212.31C308.159 212.31 284.879 234.84 281.159 240.47C277.439 246.1 275.909 250.98 275.909 255.86C275.909 260.74 279.289 271.63 279.289 271.63L274.779 287.78L261.639 299.78L282.289 332.78C282.289 332.78 291.679 334.66 298.059 330.91C304.439 327.16 308.499 311.06 308.499 303.17C308.499 295.28 306.999 278.39 306.999 278.39C306.999 278.39 315.639 251.39 318.269 241.22C320.899 231.05 321.269 222.07 318.639 217.22C316.009 212.37 311.909 209.68 308.159 212.31Z" fill="white" stroke="#263238" stroke-linecap="round" stroke-linejoin="round"/>
<path d="M281.119 240.5C280.369 241.62 279.678 242.778 279.049 243.97C288.919 245.34 302.429 247.45 315.739 250.28C316.259 248.52 316.739 246.85 317.179 245.28C304.619 242.6 291.889 240.56 282.089 239.16C281.699 239.67 281.369 240.1 281.119 240.5Z" fill="#23BB4E" stroke="#263238" stroke-linecap="round" stroke-linejoin="round"/>
<path d="M318.609 239.952C319.029 238.232 319.379 236.542 319.659 234.902L292.469 227.902C291.049 229.352 289.669 230.792 288.359 232.162L318.609 239.952Z" fill="#23BB4E" stroke="#263238" stroke-linecap="round" stroke-linejoin="round"/>
<path d="M307.678 276.362L309.268 271.312C299.408 270.592 288.579 269.782 278.479 269.012C278.919 270.592 279.249 271.632 279.249 271.632L278.539 274.182C288.089 274.912 298.278 275.672 307.678 276.362Z" fill="#23BB4E" stroke="#263238" stroke-linecap="round" stroke-linejoin="round"/>
<path d="M320.3 229.93C320.459 228.138 320.496 226.337 320.41 224.54L301.86 218.5L297.76 222.58L320.3 229.93Z" fill="#23BB4E" stroke="#263238" stroke-linecap="round" stroke-linejoin="round"/>
<path d="M296.07 331.903C287.79 325.293 277.2 316.903 267.34 308.973L275.56 322.133L289.5 333.253C291.747 333.153 293.965 332.697 296.07 331.903Z" fill="#23BB4E" stroke="#263238" stroke-linecap="round" stroke-linejoin="round"/>
<path d="M307.329 281.9C296.679 281.73 285.759 281.44 276.639 280.98L275.219 286.07C284.819 286.58 296.449 286.89 307.729 287.07C307.579 285.12 307.439 283.34 307.329 281.9Z" fill="#23BB4E" stroke="#263238" stroke-linecap="round" stroke-linejoin="round"/>
<path d="M276.399 250.973C276.047 252.579 275.869 254.218 275.869 255.863V256.113C286.469 256.433 299.769 257.573 313.099 259.003C313.619 257.313 314.099 255.623 314.629 254.003C301.059 252.503 287.409 251.313 276.399 250.973Z" fill="#23BB4E" stroke="#263238" stroke-linecap="round" stroke-linejoin="round"/>
<path d="M275.56 302.502C271.65 300.692 267.88 298.952 264.33 297.332L261.6 299.822L263.29 302.522L273.39 307.172C283.86 311.785 294.58 315.808 305.5 319.222C306.06 317.602 306.56 315.922 306.97 314.222C296.38 310.832 284.56 306.642 275.56 302.502Z" fill="#23BB4E" stroke="#263238" stroke-linecap="round" stroke-linejoin="round"/>
<path d="M308.499 303.17C308.499 301.99 308.499 300.6 308.409 299.09C295.995 297.007 283.722 294.162 271.659 290.57L267.219 294.62C280.738 298.766 294.519 302.006 308.469 304.32C308.499 303.92 308.499 303.5 308.499 303.17Z" fill="#23BB4E" stroke="#263238" stroke-linecap="round" stroke-linejoin="round"/>
<path d="M218.049 400.791L205.279 415.061C205.279 415.061 195.519 418.061 194.019 419.571C192.519 421.081 195.519 421.821 199.269 423.321C203.019 424.821 216.919 422.571 221.429 422.191C225.939 421.811 230.059 422.191 231.559 418.441C233.059 414.691 231.559 410.551 231.189 409.051C230.819 407.551 228.929 400.051 228.929 400.051L218.049 400.791Z" fill="#9C9C9C" stroke="#263238" stroke-linecap="round" stroke-linejoin="round"/>
<path d="M204.639 415.26C202.479 415.95 195.289 418.26 194.019 419.57C192.519 421.07 195.519 421.82 199.269 423.32C203.019 424.82 216.919 422.57 221.429 422.19C225.939 421.81 230.059 422.19 231.559 418.44C233.059 414.69 231.559 410.55 231.189 409.05C231.189 408.88 231.079 408.63 231.009 408.32C224.449 412.43 213.299 416.94 210.909 416.94C208.746 416.703 206.632 416.137 204.639 415.26Z" fill="#23BB4E" stroke="#263238" stroke-linecap="round" stroke-linejoin="round"/>
<path d="M180.119 376.012C180.119 376.012 165.499 392.162 163.599 394.412C161.699 396.662 156.099 397.412 156.469 400.042C156.839 402.672 162.849 401.922 165.469 401.542C168.089 401.162 184.619 397.042 186.869 396.292C189.119 395.542 192.129 394.412 192.509 391.032C192.889 387.652 190.249 379.032 190.249 379.032L180.119 376.012Z" fill="#9C9C9C" stroke="#263238" stroke-linecap="round" stroke-linejoin="round"/>
<path d="M192.499 391.031C192.729 388.921 191.789 384.771 191.059 381.941C187.369 383.741 183.809 388.611 181.979 389.531C179.729 390.651 162.459 396.291 162.459 396.291L161.669 395.841C159.309 397.141 156.169 398.061 156.449 400.041C156.829 402.671 162.829 401.921 165.449 401.541C168.069 401.161 184.599 397.041 186.849 396.291C189.099 395.541 192.139 394.411 192.499 391.031Z" fill="#23BB4E" stroke="#263238" stroke-linecap="round" stroke-linejoin="round"/>
<path d="M316.259 216.043C312.999 214.233 306.479 217.493 304.309 221.113L301.419 231.973L290.919 267.093L238.199 266.833C238.199 266.833 223.279 263.543 221.109 263.593C218.939 263.643 207.869 270.773 207.889 271.853C207.909 272.933 210.809 272.853 210.809 272.853L215.869 272.383L221.279 271.173C221.279 271.173 226.009 272.513 228.189 272.463C230.013 272.342 231.824 272.061 233.599 271.623C233.599 271.623 290.549 284.503 294.169 284.503C297.789 284.503 301.779 283.413 303.229 280.883C304.679 278.353 319.879 240.693 320.599 232.363C321.319 224.033 319.499 217.853 316.259 216.043Z" fill="#9C9C9C" stroke="#263238" stroke-linecap="round" stroke-linejoin="round"/>
<path d="M211.148 272.272C211.148 272.272 219.548 267.782 220.478 267.602" stroke="#263238" stroke-linecap="round" stroke-linejoin="round"/>
<path d="M219.18 265.172C219.18 265.172 209.65 270.592 209.09 272.642" stroke="#263238" stroke-linecap="round" stroke-linejoin="round"/>
<path d="M332.5 221.5L326.5 221.16C326.5 221.16 311.05 265.83 309.03 282.62C307.01 299.41 307.69 313.51 308.7 318.21C309.71 322.91 315.08 331.98 315.08 331.98L321.79 333.66C321.79 333.66 314.79 315.52 314.41 310.49C314.03 305.46 314.94 285.49 315.41 282.95C319.09 263.5 332.5 221.5 332.5 221.5Z" fill="#6E6E6E" stroke="#263238" stroke-linecap="round" stroke-linejoin="round"/>
<path d="M278.499 392.781C278.499 392.781 245.209 409.571 244.499 413.261C244.123 416.045 244.123 418.867 244.499 421.651L245.679 420.481L248.869 412.921L278.749 398.821L278.499 392.781Z" fill="#6E6E6E" stroke="#263238" stroke-linecap="round" stroke-linejoin="round"/>
<path d="M250.589 420.311C250.591 421.043 250.376 421.76 249.971 422.369C249.565 422.979 248.988 423.455 248.312 423.737C247.636 424.018 246.892 424.093 246.174 423.951C245.455 423.81 244.795 423.458 244.277 422.941C243.758 422.424 243.405 421.765 243.261 421.047C243.118 420.329 243.19 419.584 243.47 418.908C243.75 418.231 244.224 417.652 244.833 417.245C245.441 416.838 246.157 416.621 246.889 416.621C247.869 416.621 248.809 417.01 249.502 417.701C250.196 418.393 250.587 419.332 250.589 420.311Z" fill="#263238" stroke="#263238" stroke-linecap="round" stroke-linejoin="round"/>
<path d="M288.189 392.781C288.189 392.781 321.439 409.571 322.109 413.261C322.485 416.045 322.485 418.867 322.109 421.651L320.929 420.501L317.739 412.941L287.859 398.841L288.189 392.781Z" fill="#6E6E6E" stroke="#263238" stroke-linecap="round" stroke-linejoin="round"/>
<path d="M316.068 420.311C316.068 421.041 316.285 421.754 316.69 422.361C317.096 422.968 317.672 423.441 318.346 423.72C319.021 424 319.762 424.073 320.478 423.93C321.194 423.788 321.852 423.436 322.368 422.92C322.884 422.404 323.235 421.747 323.377 421.031C323.52 420.315 323.447 419.573 323.167 418.899C322.888 418.225 322.415 417.648 321.808 417.243C321.202 416.838 320.488 416.621 319.758 416.621C318.781 416.624 317.843 417.013 317.152 417.705C316.461 418.396 316.071 419.333 316.068 420.311Z" fill="#263238" stroke="#263238" stroke-linecap="round" stroke-linejoin="round"/>
<path d="M285.509 338.043H280.139V396.473H285.509V338.043Z" fill="#263238" stroke="#263238" stroke-linecap="round" stroke-linejoin="round"/>
<path d="M290.88 343.75H275.1V354.5H290.88V343.75Z" fill="#263238" stroke="#263238" stroke-linecap="round" stroke-linejoin="round"/>
<path d="M320.5 332.931C308.87 331.711 271.41 328.461 237.82 332.931C237.535 332.974 237.267 333.096 237.048 333.284C236.829 333.471 236.667 333.717 236.581 333.992C236.494 334.267 236.487 334.561 236.559 334.84C236.631 335.119 236.781 335.373 236.99 335.571C240.56 338.941 250.47 345.061 276.12 346.741C302.62 348.481 316.12 340.341 321.43 335.961C321.681 335.74 321.862 335.451 321.953 335.129C322.044 334.807 322.04 334.466 321.941 334.146C321.843 333.827 321.655 333.542 321.4 333.326C321.144 333.111 320.832 332.974 320.5 332.931Z" fill="#6E6E6E" stroke="#263238" stroke-linecap="round" stroke-linejoin="round"/>
<path d="M236.949 335.572L237.019 335.632C237.292 335.884 237.648 336.027 238.019 336.032H321.329H321.389C321.651 335.813 321.842 335.522 321.939 335.195C322.036 334.868 322.034 334.52 321.934 334.194C321.834 333.868 321.639 333.579 321.375 333.364C321.111 333.148 320.789 333.015 320.449 332.982C308.809 331.762 271.359 328.512 237.779 332.982C237.502 333.028 237.243 333.15 237.031 333.334C236.818 333.518 236.661 333.756 236.575 334.024C236.489 334.291 236.479 334.577 236.545 334.85C236.611 335.123 236.751 335.373 236.949 335.572Z" fill="#263238" stroke="#263238" stroke-linecap="round" stroke-linejoin="round"/>
<path d="M289.199 387.402H276.779V400.502H289.199V387.402Z" fill="#263238" stroke="#263238" stroke-linecap="round" stroke-linejoin="round"/>
<path d="M283.498 393.953H281.648V424.003H283.498V393.953Z" fill="#6E6E6E" stroke="#263238" stroke-linecap="round" stroke-linejoin="round"/>
<path d="M284.18 416.172H280.93V424.042H284.18V416.172Z" fill="#263238" stroke="#263238" stroke-linecap="round" stroke-linejoin="round"/>
<path d="M295.578 336.031H288.188L283.488 291.031H288.528L295.578 336.031Z" fill="#6E6E6E" stroke="#263238" stroke-linecap="round" stroke-linejoin="round"/>
<path d="M308.339 294.053H257.639C257.639 294.053 261.329 287.343 263.639 286.673C265.949 286.003 304.269 286.673 304.269 286.673C304.269 286.673 308.339 288.013 308.339 294.053Z" fill="#263238" stroke="#263238" stroke-linecap="round" stroke-linejoin="round"/>
<path d="M257.639 294.051H308.339C308.337 293.489 308.297 292.928 308.219 292.371H258.629C258.029 293.351 257.639 294.051 257.639 294.051Z" fill="#6E6E6E" stroke="#263238" stroke-linecap="round" stroke-linejoin="round"/>
<path d="M100.5 284.989L106.22 299.719C108.22 303.899 109.04 311.009 108.5 315.619L95.0798 422.019C95.0447 422.304 95.07 422.594 95.154 422.868C95.238 423.143 95.3789 423.397 95.5675 423.614C95.7561 423.831 95.9882 424.006 96.2487 424.127C96.5093 424.249 96.7924 424.314 97.0798 424.319C97.5577 424.325 98.0222 424.161 98.3891 423.854C98.7559 423.548 99.001 423.12 99.0798 422.649L124.72 286.409H115.32L113.67 294.249C113.606 294.533 113.452 294.788 113.229 294.975C113.007 295.163 112.73 295.273 112.439 295.287C112.149 295.302 111.862 295.221 111.621 295.057C111.381 294.893 111.202 294.655 111.11 294.379L107.94 284.379L100.5 284.989Z" fill="white" stroke="#263238" stroke-linecap="round" stroke-linejoin="round"/>
<path d="M114.4 290.79H123.89L124.72 286.41H115.32L114.4 290.79Z" fill="#263238" stroke="#263238" stroke-linecap="round" stroke-linejoin="round"/>
<path d="M107.939 284.398L100.449 284.988L102.699 290.788H109.969L107.939 284.398Z" fill="#263238" stroke="#263238" stroke-linecap="round" stroke-linejoin="round"/>
<path d="M244.87 284.989L239.15 299.719C237.15 303.899 236.32 311.009 236.86 315.619L250.29 422.019C250.325 422.304 250.299 422.594 250.215 422.868C250.131 423.143 249.99 423.397 249.802 423.614C249.613 423.831 249.381 424.006 249.121 424.127C248.86 424.249 248.577 424.314 248.29 424.319C247.812 424.325 247.347 424.161 246.98 423.854C246.613 423.548 246.368 423.12 246.29 422.649L220.6 286.409H230L231.65 294.249C231.709 294.534 231.862 294.792 232.083 294.982C232.305 295.171 232.583 295.282 232.874 295.297C233.166 295.312 233.454 295.23 233.694 295.064C233.933 294.898 234.111 294.657 234.2 294.379L237.38 284.379L244.87 284.989Z" fill="white" stroke="#263238" stroke-linecap="round" stroke-linejoin="round"/>
<path d="M230 286.41H220.6L221.43 290.79H230.92L230 286.41Z" fill="#263238" stroke="#263238" stroke-linecap="round" stroke-linejoin="round"/>
<path d="M235.35 290.788H242.62L244.87 284.988L237.38 284.398L235.35 290.788Z" fill="#263238" stroke="#263238" stroke-linecap="round" stroke-linejoin="round"/>
<path d="M255.62 277.629H90.4102V286.359H255.62V277.629Z" fill="white" stroke="#263238" stroke-linecap="round" stroke-linejoin="round"/>
<path d="M243.37 275.168H201.15V277.688H243.37V275.168Z" fill="white" stroke="#263238" stroke-linecap="round" stroke-linejoin="round"/>
<path d="M175.71 277.128H157.29C155.728 277.128 154.226 276.528 153.093 275.452C151.959 274.377 151.282 272.908 151.2 271.348C151.164 270.673 151.241 269.997 151.43 269.348L162.97 236.158C163.087 235.821 163.333 235.544 163.653 235.389C163.974 235.233 164.343 235.211 164.68 235.328C165.017 235.445 165.294 235.69 165.449 236.011C165.605 236.332 165.627 236.701 165.51 237.038L153.99 270.158C153.895 270.506 153.857 270.868 153.88 271.228C153.929 272.1 154.309 272.92 154.943 273.521C155.577 274.122 156.417 274.457 157.29 274.458H175.71C176.047 274.487 176.36 274.641 176.589 274.89C176.817 275.139 176.944 275.465 176.944 275.803C176.944 276.141 176.817 276.467 176.589 276.716C176.36 276.965 176.047 277.119 175.71 277.148V277.128Z" fill="#263238" stroke="#263238" stroke-linecap="round" stroke-linejoin="round"/>
<path d="M170.95 190.719L191.29 268.599L189.07 270.269C189.07 270.269 163.5 250.239 163.5 233.499C163.5 216.759 167.95 191.209 167.95 191.209L170.95 190.719Z" fill="white" stroke="#263238" stroke-linecap="round" stroke-linejoin="round"/>
<path d="M170.95 190.719L167.92 191.249L189.07 270.269L191.29 268.599L170.95 190.719Z" fill="#263238" stroke="#263238" stroke-linecap="round" stroke-linejoin="round"/>
<path d="M114.639 261.9C114.639 261.9 107.419 250.34 113.199 243.84C118.979 237.34 128.369 240.5 130.289 246.5C132.209 252.5 128.129 262.63 128.129 262.63L114.639 261.9Z" fill="#23BB4E" stroke="#263238" stroke-linecap="round" stroke-linejoin="round"/>
<path d="M114.889 248.657C113.679 248.657 109.109 246.967 107.659 244.797C106.209 242.627 105.979 237.797 110.069 237.797C114.159 237.797 115.609 245.027 115.609 245.027L115.849 247.667" fill="#23BB4E"/>
<path d="M114.889 248.657C113.679 248.657 109.109 246.967 107.659 244.797C106.209 242.627 105.979 237.797 110.069 237.797C114.159 237.797 115.609 245.027 115.609 245.027L115.849 247.667" stroke="#263238" stroke-linecap="round" stroke-linejoin="round"/>
<path d="M118.591 244.16C117.511 243.62 114.171 240.07 113.841 237.49C113.511 234.91 115.451 230.49 119.121 232.31C122.791 234.13 120.851 241.25 120.851 241.25L119.851 243.73" fill="#23BB4E"/>
<path d="M118.591 244.16C117.511 243.62 114.171 240.07 113.841 237.49C113.511 234.91 115.451 230.49 119.121 232.31C122.791 234.13 120.851 241.25 120.851 241.25L119.851 243.73" stroke="#263238" stroke-linecap="round" stroke-linejoin="round"/>
<path d="M122.96 245.369C122.36 244.369 121.55 239.519 122.71 237.189C123.87 234.859 127.94 232.259 129.97 235.809C132 239.359 126.5 244.199 126.5 244.199L124.32 245.729" fill="#23BB4E"/>
<path d="M122.96 245.369C122.36 244.369 121.55 239.519 122.71 237.189C123.87 234.859 127.94 232.259 129.97 235.809C132 239.359 126.5 244.199 126.5 244.199L124.32 245.729" stroke="#263238" stroke-linecap="round" stroke-linejoin="round"/>
<path d="M124.4 253.997C124.2 252.807 125.1 247.997 127 246.237C128.9 244.477 133.61 243.417 134.29 247.457C134.97 251.497 128.08 254.107 128.08 254.107L125.51 254.787" fill="#23BB4E"/>
<path d="M124.4 253.997C124.2 252.807 125.1 247.997 127 246.237C128.9 244.477 133.61 243.417 134.29 247.457C134.97 251.497 128.08 254.107 128.08 254.107L125.51 254.787" stroke="#263238" stroke-linecap="round" stroke-linejoin="round"/>
<path d="M108.189 241.898L108.999 243.178" stroke="white" stroke-linecap="round" stroke-linejoin="round"/>
<path d="M110.51 245.039L111.79 246.079" stroke="white" stroke-linecap="round" stroke-linejoin="round"/>
<path d="M109.121 239.457L110.401 241.317" stroke="white" stroke-linecap="round" stroke-linejoin="round"/>
<path d="M112.141 242.828L113.541 245.378" stroke="white" stroke-linecap="round" stroke-linejoin="round"/>
<path d="M115.391 236.668L115.861 238.068" stroke="white" stroke-linecap="round" stroke-linejoin="round"/>
<path d="M117.02 240.617L117.83 241.777" stroke="white" stroke-linecap="round" stroke-linejoin="round"/>
<path d="M116.67 233.879L117.72 236.209" stroke="white" stroke-linecap="round" stroke-linejoin="round"/>
<path d="M112.609 250.258L112.949 252.358" stroke="white" stroke-linecap="round" stroke-linejoin="round"/>
<path d="M113.65 254.328L114.12 256.068" stroke="white" stroke-linecap="round" stroke-linejoin="round"/>
<path d="M114.811 250.379L115.281 252.699" stroke="white" stroke-linecap="round" stroke-linejoin="round"/>
<path d="M116.32 254.328L116.67 256.068" stroke="white" stroke-linecap="round" stroke-linejoin="round"/>
<path d="M117.141 247.359L117.831 250.609" stroke="white" stroke-linecap="round" stroke-linejoin="round"/>
<path d="M118.76 253.75L118.88 255.26" stroke="white" stroke-linecap="round" stroke-linejoin="round"/>
<path d="M120.041 246.309L120.621 249.329" stroke="white" stroke-linecap="round" stroke-linejoin="round"/>
<path d="M120.621 252.469L120.851 255.609" stroke="white" stroke-linecap="round" stroke-linejoin="round"/>
<path d="M123.41 247.48V250.03" stroke="white" stroke-linecap="round" stroke-linejoin="round"/>
<path d="M123.061 253.277L123.181 255.257" stroke="white" stroke-linecap="round" stroke-linejoin="round"/>
<path d="M126.32 235.391L125.73 236.791" stroke="white" stroke-linecap="round" stroke-linejoin="round"/>
<path d="M125.5 238.41L124.92 240.39" stroke="white" stroke-linecap="round" stroke-linejoin="round"/>
<path d="M128.869 238.07L127.939 239.92" stroke="white" stroke-linecap="round" stroke-linejoin="round"/>
<path d="M125.97 242.02L124.92 243.18" stroke="white" stroke-linecap="round" stroke-linejoin="round"/>
<path d="M123.76 237.949L123.41 239.459" stroke="white" stroke-linecap="round" stroke-linejoin="round"/>
<path d="M128.87 246.309L127.59 248.409" stroke="white" stroke-linecap="round" stroke-linejoin="round"/>
<path d="M126.78 249.68L126.08 251.54" stroke="white" stroke-linecap="round" stroke-linejoin="round"/>
<path d="M127.83 252.469L129.92 251.309" stroke="white" stroke-linecap="round" stroke-linejoin="round"/>
<path d="M131.19 246.309L130.15 248.059" stroke="white" stroke-linecap="round" stroke-linejoin="round"/>
<path d="M132.24 248.289L130.85 249.329" stroke="white" stroke-linecap="round" stroke-linejoin="round"/>
<path d="M130.74 257.867H110.99V277.617H130.74V257.867Z" fill="#263238" stroke="#263238" stroke-linecap="round" stroke-linejoin="round"/>
<path d="M356.23 280.238L367.68 390.018" stroke="#263238" stroke-width="2" stroke-miterlimit="10"/>
<path d="M365.841 369.007L360.641 363.527" stroke="#263238" stroke-width="2" stroke-miterlimit="10"/>
<path d="M362.221 365.17C362.211 364.331 362.022 363.504 361.664 362.745C361.307 361.986 360.791 361.312 360.151 360.77C358.821 359.57 351.801 356.62 351.151 359.09C350.411 361.78 357.601 367.06 362.221 365.17Z" fill="#23BB4E" stroke="#263238" stroke-miterlimit="10"/>
<path d="M362.221 365.168L355.541 361.008" stroke="#263238" stroke-width="0.5" stroke-miterlimit="10"/>
<path d="M367.141 381.498L361.951 376.008" stroke="#263238" stroke-width="2" stroke-miterlimit="10"/>
<path d="M363.501 377.659C363.492 376.819 363.303 375.992 362.948 375.231C362.592 374.47 362.079 373.795 361.441 373.249C360.101 372.059 353.091 369.109 352.441 371.579C351.721 374.269 358.901 379.549 363.501 377.659Z" fill="#23BB4E" stroke="#263238" stroke-miterlimit="10"/>
<path d="M363.52 377.658L356.84 373.488" stroke="#263238" stroke-width="0.5" stroke-miterlimit="10"/>
<path d="M362.661 338.549L357.461 333.059" stroke="#263238" stroke-width="2" stroke-miterlimit="10"/>
<path d="M359.041 334.7C359.031 333.861 358.841 333.034 358.484 332.275C358.127 331.516 357.611 330.842 356.971 330.3C355.641 329.11 348.621 326.15 347.971 328.63C347.231 331.31 354.421 336.59 359.041 334.7Z" fill="#23BB4E" stroke="#263238" stroke-miterlimit="10"/>
<path d="M359.041 334.699L352.361 330.539" stroke="#263238" stroke-width="0.5" stroke-miterlimit="10"/>
<path d="M363.961 351.027L358.771 345.547" stroke="#263238" stroke-width="2" stroke-miterlimit="10"/>
<path d="M360.341 347.19C360.332 346.351 360.143 345.523 359.788 344.762C359.433 344.002 358.919 343.326 358.281 342.78C356.941 341.59 349.931 338.64 349.281 341.11C348.501 343.8 355.721 349.08 360.341 347.19Z" fill="#23BB4E" stroke="#263238" stroke-miterlimit="10"/>
<path d="M360.34 347.187L353.66 343.027" stroke="#263238" stroke-width="0.5" stroke-miterlimit="10"/>
<path d="M360.542 318.257L355.352 312.777" stroke="#263238" stroke-width="2" stroke-miterlimit="10"/>
<path d="M356.922 314.42C356.912 313.581 356.724 312.753 356.368 311.993C356.013 311.232 355.499 310.556 354.862 310.01C353.522 308.82 346.512 305.87 345.862 308.34C345.122 311.03 352.302 316.31 356.922 314.42Z" fill="#23BB4E" stroke="#263238" stroke-miterlimit="10"/>
<path d="M356.92 314.418L350.24 310.258" stroke="#263238" stroke-width="0.5" stroke-miterlimit="10"/>
<path d="M358.411 297.89L353.221 292.41" stroke="#263238" stroke-width="2" stroke-miterlimit="10"/>
<path d="M354.801 294.049C354.791 293.209 354.601 292.381 354.244 291.62C353.887 290.859 353.371 290.184 352.731 289.639C351.401 288.449 344.381 285.499 343.731 287.969C342.991 290.659 350.171 295.939 354.801 294.049Z" fill="#23BB4E" stroke="#263238" stroke-miterlimit="10"/>
<path d="M354.801 294.047L348.121 289.887" stroke="#263238" stroke-width="0.5" stroke-miterlimit="10"/>
<path d="M364.961 361.628L368.911 355.188" stroke="#263238" stroke-width="2" stroke-miterlimit="10"/>
<path d="M367.711 357.119C367.547 356.296 367.561 355.446 367.753 354.629C367.944 353.811 368.308 353.044 368.821 352.379C369.881 350.939 376.141 346.599 377.301 348.889C378.561 351.369 372.621 358.009 367.711 357.119Z" fill="#23BB4E" stroke="#263238" stroke-miterlimit="10"/>
<path d="M367.711 357.117L373.721 351.367" stroke="#263238" stroke-width="0.5" stroke-miterlimit="10"/>
<path d="M361.531 328.768L365.481 322.328" stroke="#263238" stroke-width="2" stroke-miterlimit="10"/>
<path d="M364.281 324.26C364.117 323.436 364.131 322.587 364.323 321.769C364.514 320.952 364.879 320.185 365.391 319.52C366.451 318.08 372.711 313.75 373.871 316.03C375.131 318.5 369.201 325.16 364.281 324.26Z" fill="#23BB4E" stroke="#263238" stroke-miterlimit="10"/>
<path d="M364.281 324.258L370.291 318.508" stroke="#263238" stroke-width="0.5" stroke-miterlimit="10"/>
<path d="M360.031 314.327L363.981 307.887" stroke="#263238" stroke-width="2" stroke-miterlimit="10"/>
<path d="M362.77 309.818C362.609 308.996 362.625 308.148 362.818 307.332C363.012 306.516 363.377 305.751 363.89 305.088C364.94 303.638 371.2 299.308 372.36 301.588C373.63 304.068 367.69 310.718 362.77 309.818Z" fill="#23BB4E" stroke="#263238" stroke-miterlimit="10"/>
<path d="M362.771 309.82L368.792 304.07" stroke="#263238" stroke-width="0.5" stroke-miterlimit="10"/>
<path d="M357.82 293.159L361.77 286.719" stroke="#263238" stroke-width="2" stroke-miterlimit="10"/>
<path d="M360.561 288.649C360.4 287.827 360.416 286.979 360.609 286.163C360.803 285.347 361.168 284.582 361.681 283.919C362.731 282.479 368.991 278.139 370.151 280.419C371.421 282.899 365.501 289.549 360.561 288.649Z" fill="#23BB4E" stroke="#263238" stroke-miterlimit="10"/>
<path d="M360.561 288.65L366.581 282.91" stroke="#263238" stroke-width="0.5" stroke-miterlimit="10"/>
<path d="M356.13 279.628C355.965 278.805 355.979 277.955 356.17 277.138C356.362 276.32 356.726 275.553 357.24 274.888C358.3 273.448 364.56 269.108 365.72 271.388C366.98 273.868 361.05 280.498 356.13 279.628Z" fill="#23BB4E" stroke="#263238" stroke-miterlimit="10"/>
<path d="M356.131 279.629L362.141 273.879" stroke="#263238" stroke-width="0.5" stroke-miterlimit="10"/>
<path d="M356.502 279.867C355.665 279.944 354.822 279.841 354.028 279.565C353.235 279.289 352.51 278.846 351.902 278.267C350.582 277.067 346.902 270.387 349.312 269.467C351.892 268.497 357.882 275.077 356.502 279.867Z" fill="#23BB4E" stroke="#263238" stroke-miterlimit="10"/>
<path d="M356.481 279.869L351.391 273.289" stroke="#263238" stroke-width="0.5" stroke-miterlimit="10"/>
<path d="M386.451 295.359L375.051 405.149" stroke="#263238" stroke-width="2" stroke-miterlimit="10"/>
<path d="M377.571 384.21L373.621 377.77" stroke="#263238" stroke-width="2" stroke-miterlimit="10"/>
<path d="M374.82 379.709C374.985 378.885 374.971 378.036 374.779 377.218C374.588 376.401 374.223 375.634 373.71 374.969C372.65 373.529 366.39 369.199 365.23 371.479C363.97 373.959 369.91 380.599 374.82 379.709Z" fill="#23BB4E" stroke="#263238" stroke-miterlimit="10"/>
<path d="M374.821 379.708L369.141 374.258" stroke="#263238" stroke-width="0.5" stroke-miterlimit="10"/>
<path d="M380.731 353.737L376.781 347.297" stroke="#263238" stroke-width="2" stroke-miterlimit="10"/>
<path d="M377.99 349.24C378.152 348.416 378.135 347.567 377.942 346.749C377.749 345.932 377.383 345.165 376.87 344.5C375.81 343.06 369.55 338.73 368.39 341.01C367.13 343.5 373.07 350.13 377.99 349.24Z" fill="#23BB4E" stroke="#263238" stroke-miterlimit="10"/>
<path d="M377.991 349.239L372.311 343.789" stroke="#263238" stroke-width="0.5" stroke-miterlimit="10"/>
<path d="M379.44 366.229L375.48 359.789" stroke="#263238" stroke-width="2" stroke-miterlimit="10"/>
<path d="M376.692 361.72C376.856 360.896 376.841 360.046 376.647 359.228C376.454 358.41 376.087 357.643 375.572 356.98C374.512 355.55 368.262 351.21 367.102 353.49C365.832 355.97 371.772 362.62 376.692 361.72Z" fill="#23BB4E" stroke="#263238" stroke-miterlimit="10"/>
<path d="M376.69 361.72L371.01 356.27" stroke="#263238" stroke-width="0.5" stroke-miterlimit="10"/>
<path d="M382.841 333.46L378.881 327.02" stroke="#263238" stroke-width="2" stroke-miterlimit="10"/>
<path d="M380.09 328.947C380.254 328.123 380.239 327.273 380.046 326.455C379.852 325.638 379.485 324.871 378.97 324.207C377.92 322.767 371.66 318.437 370.5 320.717C369.23 323.197 375.18 329.847 380.09 328.947Z" fill="#23BB4E" stroke="#263238" stroke-miterlimit="10"/>
<path d="M380.09 328.95L374.41 323.5" stroke="#263238" stroke-width="0.5" stroke-miterlimit="10"/>
<path d="M384.95 313.078L381 306.648" stroke="#263238" stroke-width="2" stroke-miterlimit="10"/>
<path d="M382.201 308.58C382.366 307.757 382.352 306.907 382.16 306.09C381.969 305.272 381.604 304.505 381.091 303.84C380.031 302.4 373.771 298.07 372.611 300.35C371.351 302.83 377.291 309.5 382.201 308.58Z" fill="#23BB4E" stroke="#263238" stroke-miterlimit="10"/>
<path d="M382.202 308.579L376.521 303.129" stroke="#263238" stroke-width="0.5" stroke-miterlimit="10"/>
<path d="M378.24 376.799L383.43 371.309" stroke="#263238" stroke-width="2" stroke-miterlimit="10"/>
<path d="M381.852 372.96C381.861 372.119 382.051 371.291 382.408 370.53C382.765 369.77 383.281 369.094 383.922 368.55C385.252 367.36 392.262 364.4 392.922 366.87C393.662 369.56 386.502 374.84 381.852 372.96Z" fill="#23BB4E" stroke="#263238" stroke-miterlimit="10"/>
<path d="M381.852 372.96L388.922 368.57" stroke="#263238" stroke-width="0.5" stroke-miterlimit="10"/>
<path d="M381.65 343.939L386.84 338.449" stroke="#263238" stroke-width="2" stroke-miterlimit="10"/>
<path d="M385.26 340.1C385.27 339.26 385.459 338.432 385.817 337.671C386.174 336.91 386.69 336.235 387.33 335.69C388.66 334.5 395.67 331.54 396.33 334.01C397.07 336.7 389.89 341.98 385.26 340.1Z" fill="#23BB4E" stroke="#263238" stroke-miterlimit="10"/>
<path d="M385.26 340.097L392.33 335.707" stroke="#263238" stroke-width="0.5" stroke-miterlimit="10"/>
<path d="M383.15 329.498L388.34 324.008" stroke="#263238" stroke-width="2" stroke-miterlimit="10"/>
<path d="M386.76 325.659C386.77 324.819 386.959 323.99 387.317 323.23C387.674 322.469 388.19 321.793 388.83 321.249C390.16 320.059 397.17 317.099 397.83 319.569C398.57 322.259 391.39 327.499 386.76 325.659Z" fill="#23BB4E" stroke="#263238" stroke-miterlimit="10"/>
<path d="M386.76 325.66L393.83 321.27" stroke="#263238" stroke-width="0.5" stroke-miterlimit="10"/>
<path d="M385.34 308.33L390.53 302.84" stroke="#263238" stroke-width="2" stroke-miterlimit="10"/>
<path d="M388.961 304.499C388.97 303.659 389.159 302.832 389.514 302.071C389.869 301.311 390.383 300.635 391.021 300.089C392.351 298.899 399.371 295.939 400.021 298.409C400.761 301.089 393.581 306.369 388.961 304.499Z" fill="#23BB4E" stroke="#263238" stroke-miterlimit="10"/>
<path d="M388.961 304.488L396.031 300.098" stroke="#263238" stroke-width="0.5" stroke-miterlimit="10"/>
<path d="M386.5 294.737C386.509 293.898 386.698 293.07 387.053 292.31C387.408 291.549 387.922 290.873 388.56 290.327C389.89 289.137 396.91 286.177 397.56 288.657C398.28 291.337 391.1 296.627 386.5 294.737Z" fill="#23BB4E" stroke="#263238" stroke-miterlimit="10"/>
<path d="M386.48 294.738L393.55 290.348" stroke="#263238" stroke-width="0.5" stroke-miterlimit="10"/>
<path d="M386.771 295.049C385.933 294.948 385.127 294.668 384.408 294.228C383.688 293.788 383.072 293.198 382.601 292.499C381.601 291.049 379.351 283.759 381.881 283.359C384.631 282.959 389.131 290.649 386.771 295.049Z" fill="#23BB4E" stroke="#263238" stroke-miterlimit="10"/>
<path d="M386.771 295.049L383.141 287.559" stroke="#263238" stroke-width="0.5" stroke-miterlimit="10"/>
<path d="M373.391 250.648V389.488" stroke="#263238" stroke-width="2" stroke-miterlimit="10"/>
<path d="M373.5 368.607L368.9 362.617" stroke="#263238" stroke-width="2" stroke-miterlimit="10"/>
<path d="M370.3 364.42C370.377 363.584 370.274 362.74 369.998 361.947C369.722 361.154 369.28 360.428 368.7 359.82C367.5 358.5 360.83 354.82 359.91 357.22C358.91 359.82 365.5 365.82 370.3 364.42Z" fill="#23BB4E" stroke="#263238" stroke-miterlimit="10"/>
<path d="M370.3 364.418L364.09 359.578" stroke="#263238" stroke-width="0.5" stroke-miterlimit="10"/>
<path d="M373.5 342.517L368.9 336.527" stroke="#263238" stroke-width="2" stroke-miterlimit="10"/>
<path d="M370.3 338.32C370.377 337.485 370.274 336.644 369.998 335.852C369.722 335.06 369.279 334.337 368.7 333.73C367.5 332.41 360.83 328.73 359.91 331.13C358.91 333.73 365.5 339.72 370.3 338.32Z" fill="#23BB4E" stroke="#263238" stroke-miterlimit="10"/>
<path d="M370.3 338.318L364.09 333.488" stroke="#263238" stroke-width="0.5" stroke-miterlimit="10"/>
<path d="M373.5 311.887L368.9 305.887" stroke="#263238" stroke-width="2" stroke-miterlimit="10"/>
<path d="M370.3 307.689C370.377 306.853 370.274 306.009 369.998 305.216C369.722 304.423 369.28 303.697 368.7 303.089C367.5 301.769 360.83 298.089 359.91 300.499C358.91 303.089 365.5 309.089 370.3 307.689Z" fill="#23BB4E" stroke="#263238" stroke-miterlimit="10"/>
<path d="M370.3 307.689L364.09 302.859" stroke="#263238" stroke-width="0.5" stroke-miterlimit="10"/>
<path d="M373.5 291.49L368.9 285.5" stroke="#263238" stroke-width="2" stroke-miterlimit="10"/>
<path d="M370.3 287.299C370.377 286.462 370.274 285.619 369.998 284.826C369.722 284.032 369.28 283.307 368.7 282.699C367.5 281.379 360.83 277.699 359.91 280.099C358.91 282.699 365.5 288.699 370.3 287.299Z" fill="#23BB4E" stroke="#263238" stroke-miterlimit="10"/>
<path d="M370.3 287.297L364.09 282.457" stroke="#263238" stroke-width="0.5" stroke-miterlimit="10"/>
<path d="M373.5 271.01L368.9 265.02" stroke="#263238" stroke-width="2" stroke-miterlimit="10"/>
<path d="M370.3 266.818C370.377 265.982 370.274 265.139 369.998 264.345C369.722 263.552 369.28 262.827 368.7 262.218C367.5 260.898 360.83 257.218 359.91 259.618C358.91 262.218 365.5 268.208 370.3 266.818Z" fill="#23BB4E" stroke="#263238" stroke-miterlimit="10"/>
<path d="M370.3 266.82L364.09 261.98" stroke="#263238" stroke-width="0.5" stroke-miterlimit="10"/>
<path d="M373.4 376.58L378 370.59" stroke="#263238" stroke-width="2" stroke-miterlimit="10"/>
<path d="M376.601 372.38C376.524 371.545 376.627 370.703 376.903 369.912C377.179 369.12 377.622 368.396 378.201 367.79C379.401 366.46 386.071 362.79 386.991 365.19C387.991 367.79 381.391 373.78 376.601 372.38Z" fill="#23BB4E" stroke="#263238" stroke-miterlimit="10"/>
<path d="M376.602 372.379L383.182 367.289" stroke="#263238" stroke-width="0.5" stroke-miterlimit="10"/>
<path d="M373.4 335.08L378 329.09" stroke="#263238" stroke-width="2" stroke-miterlimit="10"/>
<path d="M376.601 330.889C376.524 330.052 376.627 329.209 376.903 328.416C377.179 327.622 377.622 326.897 378.201 326.289C379.401 324.969 386.071 321.289 386.991 323.689C387.991 326.289 381.391 332.289 376.601 330.889Z" fill="#23BB4E" stroke="#263238" stroke-miterlimit="10"/>
<path d="M376.602 330.889L383.182 325.789" stroke="#263238" stroke-width="0.5" stroke-miterlimit="10"/>
<path d="M373.4 314.599L378 308.609" stroke="#263238" stroke-width="2" stroke-miterlimit="10"/>
<path d="M376.601 310.4C376.524 309.565 376.627 308.723 376.903 307.931C377.179 307.139 377.622 306.416 378.201 305.81C379.401 304.48 386.071 300.81 386.991 303.21C387.991 305.81 381.391 311.8 376.601 310.4Z" fill="#23BB4E" stroke="#263238" stroke-miterlimit="10"/>
<path d="M376.602 310.399L383.182 305.309" stroke="#263238" stroke-width="0.5" stroke-miterlimit="10"/>
<path d="M373.4 287.527L378 281.527" stroke="#263238" stroke-width="2" stroke-miterlimit="10"/>
<path d="M376.601 283.329C376.524 282.494 376.627 281.652 376.903 280.861C377.179 280.069 377.622 279.345 378.201 278.739C379.401 277.409 386.071 273.739 386.991 276.139C387.991 278.739 381.391 284.729 376.601 283.329Z" fill="#23BB4E" stroke="#263238" stroke-miterlimit="10"/>
<path d="M376.602 283.328L383.182 278.238" stroke="#263238" stroke-width="0.5" stroke-miterlimit="10"/>
<path d="M373.4 266.25L378 260.25" stroke="#263238" stroke-width="2" stroke-miterlimit="10"/>
<path d="M376.601 262.049C376.524 261.212 376.627 260.369 376.903 259.576C377.179 258.782 377.622 258.057 378.201 257.449C379.401 256.129 386.071 252.449 386.991 254.849C387.991 257.499 381.391 263.499 376.601 262.049Z" fill="#23BB4E" stroke="#263238" stroke-miterlimit="10"/>
<path d="M376.602 262.047L383.182 256.957" stroke="#263238" stroke-width="0.5" stroke-miterlimit="10"/>
<path d="M373.12 252.608C373.044 251.771 373.147 250.928 373.423 250.134C373.699 249.341 374.141 248.616 374.72 248.008C375.92 246.688 382.6 243.008 383.52 245.408C384.5 248.008 377.92 254.008 373.12 252.608Z" fill="#23BB4E" stroke="#263238" stroke-miterlimit="10"/>
<path d="M373.121 252.61L379.701 247.52" stroke="#263238" stroke-width="0.5" stroke-miterlimit="10"/>
<path d="M373.441 252.889C372.603 252.879 371.776 252.689 371.017 252.331C370.257 251.974 369.584 251.458 369.041 250.819C367.851 249.489 364.911 242.469 367.381 241.819C370.071 241.079 375.341 248.269 373.441 252.889Z" fill="#23BB4E" stroke="#263238" stroke-miterlimit="10"/>
<path d="M373.44 252.89L369.07 245.82" stroke="#263238" stroke-width="0.5" stroke-miterlimit="10"/>
<path d="M379.101 425.497H364.401L362.561 388.367H380.941L379.101 425.497Z" fill="#263238" stroke="#263238" stroke-miterlimit="10"/>
</svg>
