<svg width="254" height="90" viewBox="0 0 254 90" fill="none" xmlns="http://www.w3.org/2000/svg">
<path d="M132.142 89.7694L132.315 87.1733L152.187 84.591C165.905 82.6112 198.801 76.2353 220.641 66.5701C247.942 54.4886 244.405 46.4289 243.515 39.4156C231.689 18.1977 189.538 13.6397 174.806 10.4812C160.073 7.32258 107.325 3.7942 63.9389 12.6267C20.5533 21.4591 5.86127 43.0763 11.253 53.8677C16.6447 64.6591 28.3634 67.1814 43.3187 72.0933C58.274 77.0052 96.9943 76.9876 104.433 77.4852C111.872 77.9828 141.946 75.2137 169.343 71.831C196.741 68.4483 212.091 57.3058 215.25 55.7787C218.409 54.2515 229.325 48.4625 222.552 38.0133C215.778 27.5641 209.267 28.4324 200.031 24.3377C191.925 18.5801 161.436 17.4099 152.673 16.3891C143.911 15.3684 125.565 15.4451 107.809 16.865C93.789 15.2318 68.7026 22.6517 57.9119 26.5658L51.7769 21.8093C56.298 20.2283 66.7892 16.7289 72.5855 15.3781C79.831 13.6897 115.092 9.52917 138.143 10.2018C161.194 10.8745 182.718 14.0527 208.126 20.0985C233.39 28.3076 234.966 45.363 233.324 49.5993C231.682 53.8356 225.433 66.0214 187.515 74.3504C149.598 82.6793 161.412 78.6889 127.504 82.9399C93.5946 87.1909 40.9137 77.5824 29.9001 74.6726C21.0893 72.3448 10.4812 65.4058 6.27845 62.2272C0.990285 56.6581 -5.84375 42.3802 9.12538 29.8216C27.8368 14.1233 57.8328 7.43746 61.3009 6.36561C64.7691 5.29375 103.499 0.0613597 115.024 0.397692C126.549 0.734018 174.448 5.67646 183.21 6.6972C191.972 7.71794 209.014 11.9002 232.472 21.727C257.33 35.9936 261.341 47.1272 237.074 64.627C217.661 78.6269 159.03 87.2218 132.142 89.7694Z" fill="url(#paint0_linear_5277_14574)"/>
<defs>
<linearGradient id="paint0_linear_5277_14574" x1="123.744" y1="89.2076" x2="129.624" y2="1.30512" gradientUnits="userSpaceOnUse">
<stop stop-color="#23BB4E"/>
<stop offset="1" stop-color="#92E3A9"/>
</linearGradient>
</defs>
</svg>
