<svg width="48" height="48" viewBox="0 0 48 48" fill="none" xmlns="http://www.w3.org/2000/svg">
<path d="M22 4C13.164 4 6 11.09 6 19.838C6 22.824 6.834 25.618 8.286 28" stroke="#23BB4E" stroke-width="1.5" stroke-linecap="round"/>
<path d="M29 22V26M35 22V26M29 6V10M35 6V10M26 13H22M26 19H22M42 13H38M42 19H38M34 10H30C28.114 10 27.172 10 26.586 10.586C26 11.172 26 12.114 26 14V18C26 19.886 26 20.828 26.586 21.414C27.172 22 28.114 22 30 22H34C35.886 22 36.828 22 37.414 21.414C38 20.828 38 19.886 38 18V14C38 12.114 38 11.172 37.414 10.586C36.828 10 35.886 10 34 10Z" stroke="#23BB4E" stroke-width="1.5" stroke-linecap="round" stroke-linejoin="round"/>
<path d="M28.0007 38L27.7407 39.294C27.4607 40.708 27.3187 41.414 27.0007 41.974C26.5107 42.8371 25.7173 43.4872 24.7747 43.798C24.1647 44 23.4407 44 22.0007 44C20.5607 44 19.8367 44 19.2267 43.8C18.2838 43.4887 17.4904 42.8379 17.0007 41.974C16.6827 41.414 16.5407 40.708 16.2607 39.294L16.0007 38M12.7667 34.196C12.5827 33.644 12.4907 33.366 12.5007 33.142C12.5121 32.9104 12.5902 32.687 12.7258 32.4989C12.8614 32.3108 13.0486 32.166 13.2647 32.082C13.4727 32 13.7647 32 14.3447 32H29.6567C30.2387 32 30.5287 32 30.7367 32.08C30.9532 32.1641 31.1406 32.3092 31.2762 32.4977C31.4118 32.6862 31.4898 32.91 31.5007 33.142C31.5107 33.366 31.4187 33.642 31.2347 34.196C30.8947 35.218 30.7247 35.73 30.4627 36.144C29.9147 37.0092 29.0557 37.6313 28.0627 37.882C27.5867 38 27.0507 38 25.9767 38H18.0247C16.9507 38 16.4127 38 15.9387 37.88C14.9461 37.6298 14.0871 37.0085 13.5387 36.144C13.2767 35.73 13.1067 35.218 12.7667 34.196Z" stroke="#23BB4E" stroke-width="1.5"/>
</svg>
