<svg width="38" height="62" viewBox="0 0 38 62" fill="none" xmlns="http://www.w3.org/2000/svg">
<path d="M33.6461 58.4254L0 32.5799V0H1.3733V31.9125L34.4854 57.3333L33.6461 58.4254Z" fill="#455A64"/>
<path d="M37.3087 57.8748C37.3057 58.5131 37.1125 59.1362 36.7535 59.6655C36.3946 60.1948 35.8859 60.6065 35.2918 60.8487C34.6977 61.0909 34.0447 61.1527 33.4153 61.0264C32.7858 60.9 32.2081 60.5911 31.7551 60.1387C31.3021 59.6863 30.9941 59.1106 30.8699 58.4843C30.7458 57.858 30.811 57.2092 31.0574 56.6198C31.3039 56.0303 31.7204 55.5267 32.2546 55.1723C32.7887 54.818 33.4165 54.6289 34.0586 54.6289C34.4867 54.6289 34.9106 54.713 35.3059 54.8763C35.7012 55.0396 36.0602 55.2789 36.3622 55.5805C36.6642 55.8821 36.9032 56.24 37.0657 56.6338C37.2281 57.0275 37.3107 57.4492 37.3087 57.8748Z" fill="#455A64"/>
</svg>
