<svg width="112" height="19" viewBox="0 0 112 19" fill="none" xmlns="http://www.w3.org/2000/svg">
<path d="M3.59946e-05 14.8084C0.00306087 15.4473 0.196628 16.0711 0.556257 16.6007C0.915886 17.1303 1.42544 17.542 2.02045 17.7837C2.61547 18.0255 3.26923 18.0864 3.89908 17.9588C4.52893 17.8312 5.10655 17.5208 5.55894 17.0669C6.01133 16.6129 6.31816 16.0358 6.4406 15.4086C6.56305 14.7813 6.49562 14.132 6.24685 13.5429C5.99808 12.9537 5.57913 12.4511 5.043 12.0986C4.50686 11.7461 3.87762 11.5595 3.23483 11.5625C2.80802 11.5645 2.38578 11.6501 1.99223 11.8142C1.59868 11.9784 1.24154 12.2181 0.941165 12.5195C0.640785 12.8209 0.403047 13.1782 0.24157 13.5709C0.0800919 13.9636 -0.00197249 14.3841 3.59946e-05 14.8084Z" fill="#455A64"/>
<path d="M34.9451 15.5012H3.23633V14.121H34.4721L52.3101 0H111.455V1.38025H52.7832L34.9451 15.5012Z" fill="#455A64"/>
</svg>
