<svg width="38" height="62" viewBox="0 0 38 62" fill="none" xmlns="http://www.w3.org/2000/svg">
<path d="M3.66345 58.4254L2.82422 57.3333L35.9362 31.9125V0H37.3095V32.5799L37.0349 32.7922L3.66345 58.4254Z" fill="#455A64"/>
<path d="M3.5832e-05 57.8748C0.00305062 58.5131 0.196191 59.1362 0.555139 59.6655C0.914088 60.1948 1.42274 60.6065 2.01687 60.8487C2.611 61.0909 3.264 61.1527 3.89344 61.0264C4.52288 60.9 5.10053 60.5911 5.55354 60.1387C6.00654 59.6863 6.31457 59.1106 6.43874 58.4843C6.56291 57.858 6.4977 57.2092 6.25127 56.6198C6.00484 56.0303 5.58826 55.5267 5.05413 55.1723C4.51999 54.818 3.89225 54.6289 3.2501 54.6289C2.82201 54.6289 2.39812 54.713 2.0028 54.8763C1.60749 55.0396 1.24852 55.2789 0.946519 55.5805C0.644524 55.8821 0.405443 56.24 0.243013 56.6338C0.0805824 57.0275 -0.00197398 57.4492 3.5832e-05 57.8748Z" fill="#455A64"/>
</svg>
