<svg width="38" height="134" viewBox="0 0 38 134" fill="none" xmlns="http://www.w3.org/2000/svg">
<path d="M33.1726 2.05078L0 60.0009L0 133.051H1.35397L1.35397 61.4973L34 4.49939L33.1726 2.05078Z" fill="#455A64"/>
<path d="M37.2384 3.21508C37.2353 2.57677 37.0422 1.95364 36.6832 1.42435C36.3243 0.895067 35.8156 0.483345 35.2215 0.241146C34.6274 -0.00105333 33.9744 -0.062871 33.3449 0.0634933C32.7155 0.189858 32.1378 0.498734 31.6848 0.951152C31.2318 1.40357 30.9238 1.97925 30.7996 2.60552C30.6755 3.2318 30.7407 3.88061 30.9871 4.47006C31.2336 5.05951 31.6501 5.56317 32.1843 5.9175C32.7184 6.27182 33.3461 6.46093 33.9883 6.46094C34.4164 6.46094 34.8403 6.37688 35.2356 6.21358C35.6309 6.05027 35.9899 5.81094 36.2918 5.50933C36.5938 5.20773 36.8329 4.8498 36.9954 4.45608C37.1578 4.06236 37.2404 3.64062 37.2384 3.21508Z" fill="#455A64"/>
</svg>
