<svg width="38" height="134" viewBox="0 0 38 134" fill="none" xmlns="http://www.w3.org/2000/svg">
<path d="M4.05007 2.05078L3.22266 4.49939L35.8687 61.4973L35.8687 133.051H37.2227L37.2227 60.0009L36.9519 59.5248L4.05007 2.05078Z" fill="#455A64"/>
<path d="M3.5832e-05 3.21508C0.00305062 2.57677 0.196191 1.95364 0.555139 1.42435C0.914088 0.895067 1.42274 0.483345 2.01687 0.241146C2.611 -0.00105333 3.264 -0.062871 3.89344 0.0634933C4.52288 0.189858 5.10053 0.498734 5.55354 0.951152C6.00654 1.40357 6.31457 1.97925 6.43874 2.60552C6.56291 3.2318 6.4977 3.88061 6.25127 4.47006C6.00484 5.05951 5.58826 5.56317 5.05413 5.9175C4.51999 6.27182 3.89225 6.46093 3.2501 6.46094C2.82201 6.46094 2.39812 6.37688 2.0028 6.21358C1.60749 6.05027 1.24852 5.81094 0.946519 5.50933C0.644524 5.20773 0.405443 4.8498 0.243013 4.45608C0.0805824 4.06236 -0.00197398 3.64062 3.5832e-05 3.21508Z" fill="#455A64"/>
</svg>
