<svg width="112" height="18" viewBox="0 0 112 18" fill="none" xmlns="http://www.w3.org/2000/svg">
<path d="M111.452 14.8084C111.446 15.443 111.251 16.0617 110.892 16.5864C110.533 17.1112 110.026 17.5187 109.434 17.7574C108.842 17.9961 108.193 18.0555 107.568 17.928C106.942 17.8005 106.369 17.4919 105.919 17.041C105.47 16.5902 105.165 16.0172 105.042 15.3943C104.92 14.7714 104.986 14.1264 105.232 13.5406C105.477 12.9548 105.892 12.4544 106.423 12.1024C106.954 11.7504 107.579 11.5625 108.217 11.5625C108.644 11.5645 109.066 11.65 109.46 11.8142C109.853 11.9784 110.21 12.218 110.511 12.5195C110.811 12.8209 111.049 13.1781 111.21 13.5709C111.372 13.9636 111.454 14.3841 111.452 14.8084Z" fill="#455A64"/>
<path d="M108.219 15.5012H76.51L58.6719 1.38025H0V0H59.1602L76.9983 14.121H108.219V15.5012Z" fill="#455A64"/>
</svg>
