<svg width="432" height="190" viewBox="0 0 432 190" fill="none" xmlns="http://www.w3.org/2000/svg">
<g opacity="0.85">
<path d="M47.336 170.332H40.543V174.768H47.336V170.332Z" fill="white"/>
<path d="M47.3377 175.319H40.5447C40.4052 175.316 40.2722 175.259 40.1736 175.161C40.0749 175.062 40.0183 174.929 40.0156 174.789V170.354C40.0156 170.213 40.0714 170.079 40.1706 169.979C40.2698 169.88 40.4044 169.824 40.5447 169.824H47.3377C47.478 169.824 47.6126 169.88 47.7118 169.979C47.811 170.079 47.8668 170.213 47.8668 170.354V174.789C47.8668 174.93 47.811 175.064 47.7118 175.164C47.6126 175.263 47.478 175.319 47.3377 175.319ZM41.0737 174.26H46.8087V170.883H41.0737V174.26Z" fill="#263238"/>
<path d="M124.42 188.725H10.5469L21.9321 171.797H113.035L124.42 188.725Z" fill="white"/>
<path d="M124.418 189.251H10.5446C10.4496 189.25 10.3566 189.224 10.2748 189.176C10.1931 189.128 10.1255 189.059 10.079 188.976C10.0274 188.893 10 188.798 10 188.701C10 188.603 10.0274 188.508 10.079 188.425L21.4642 171.487C21.5116 171.415 21.576 171.356 21.6517 171.316C21.7275 171.275 21.8121 171.254 21.898 171.254H113.001C113.087 171.254 113.171 171.275 113.247 171.316C113.323 171.356 113.387 171.415 113.435 171.487L124.82 188.425C124.871 188.508 124.899 188.603 124.899 188.701C124.899 188.798 124.871 188.893 124.82 188.976C124.779 189.05 124.721 189.114 124.652 189.162C124.582 189.209 124.502 189.24 124.418 189.251ZM11.5392 188.193H123.455L112.779 172.313H22.2155L11.5392 188.193Z" fill="#263238"/>
<path d="M110.082 160.605H25.1797V171.51H110.082V160.605Z" fill="white"/>
<path d="M110.07 172.037H25.1677C25.0283 172.034 24.8953 171.978 24.7966 171.879C24.698 171.78 24.6414 171.647 24.6387 171.508V160.604C24.6387 160.463 24.6944 160.329 24.7936 160.229C24.8928 160.13 25.0274 160.074 25.1677 160.074H110.07C110.21 160.074 110.345 160.13 110.444 160.229C110.543 160.329 110.599 160.463 110.599 160.604V171.508C110.599 171.648 110.543 171.783 110.444 171.882C110.345 171.981 110.21 172.037 110.07 172.037ZM25.6968 170.978H109.541V161.133H25.6968V170.978Z" fill="#263238"/>
<path d="M37.6087 167.699H31.1543V171.616H37.6087V167.699Z" fill="#263238"/>
<path d="M37.6124 172.144H31.158C31.0176 172.144 30.8831 172.088 30.7839 171.989C30.6846 171.889 30.6289 171.755 30.6289 171.614V167.697C30.6316 167.558 30.6882 167.425 30.7869 167.326C30.8855 167.227 31.0185 167.171 31.158 167.168H37.6124C37.7527 167.168 37.8873 167.224 37.9865 167.323C38.0857 167.422 38.1415 167.557 38.1415 167.697V171.614C38.1415 171.755 38.0857 171.889 37.9865 171.989C37.8873 172.088 37.7527 172.144 37.6124 172.144ZM31.687 171.085H37.0833V168.227H31.687V171.085Z" fill="#263238"/>
<path d="M103.763 167.699H97.3086V171.616H103.763V167.699Z" fill="#263238"/>
<path d="M103.765 172.144H97.3103C97.17 172.144 97.0354 172.088 96.9362 171.989C96.837 171.889 96.7812 171.755 96.7812 171.614V167.697C96.784 167.558 96.8406 167.425 96.9392 167.326C97.0379 167.227 97.1708 167.171 97.3103 167.168H103.765C103.905 167.168 104.04 167.224 104.139 167.323C104.238 167.422 104.294 167.557 104.294 167.697V171.614C104.294 171.755 104.238 171.889 104.139 171.989C104.04 172.088 103.905 172.144 103.765 172.144ZM97.8394 171.085H103.236V168.227H97.8394V171.085Z" fill="#263238"/>
<path d="M74.3029 151.551H67.7109V155.86H74.3029V151.551Z" fill="white"/>
<path d="M74.3152 156.376H67.7126C67.5723 156.376 67.4378 156.321 67.3385 156.221C67.2393 156.122 67.1836 155.987 67.1836 155.847V151.549C67.1836 151.408 67.2393 151.274 67.3385 151.175C67.4378 151.075 67.5723 151.02 67.7126 151.02H74.3152C74.4555 151.02 74.5901 151.075 74.6893 151.175C74.7885 151.274 74.8443 151.408 74.8443 151.549V155.847C74.8443 155.987 74.7885 156.122 74.6893 156.221C74.5901 156.321 74.4555 156.376 74.3152 156.376ZM68.2417 155.318H73.7862V152.078H68.2417V155.318Z" fill="#263238"/>
<path d="M91.6382 154.984L73.1426 120.567V104.391H64.5402V120.599L46.0445 155.016C45.8031 155.595 45.7078 156.224 45.7671 156.849C45.8265 157.474 46.0385 158.074 46.3847 158.597C46.7308 159.12 47.2004 159.55 47.7519 159.849C48.3033 160.147 48.9198 160.305 49.5469 160.309H88.1359C88.767 160.308 89.3879 160.15 89.943 159.849C90.4982 159.549 90.9703 159.116 91.3173 158.588C91.6642 158.061 91.8751 157.456 91.9311 156.827C91.9871 156.198 91.8865 155.565 91.6382 154.984Z" fill="white"/>
<path d="M88.1339 160.847H49.5449C48.8244 160.847 48.1154 160.667 47.4815 160.325C46.8476 159.982 46.3086 159.487 45.9131 158.885C45.5176 158.282 45.2779 157.591 45.2155 156.873C45.1532 156.155 45.2701 155.432 45.5558 154.77L64.0092 120.427V104.389C64.0092 104.248 64.0649 104.114 64.1641 104.014C64.2634 103.915 64.3979 103.859 64.5382 103.859H73.1406C73.2809 103.859 73.4155 103.915 73.5147 104.014C73.6139 104.114 73.6697 104.248 73.6697 104.389V120.459L92.1018 154.76C92.3876 155.422 92.5045 156.144 92.4421 156.862C92.3798 157.58 92.1401 158.272 91.7446 158.874C91.3491 159.477 90.8101 159.971 90.1762 160.314C89.5423 160.656 88.8333 160.836 88.1128 160.837L88.1339 160.847ZM65.0673 104.886V120.565C65.0665 120.654 65.0447 120.741 65.0038 120.819L46.5081 155.205C46.3017 155.705 46.2214 156.249 46.2744 156.788C46.3274 157.327 46.512 157.844 46.812 158.295C47.112 158.746 47.5182 159.116 47.9948 159.373C48.4713 159.629 49.0037 159.765 49.5449 159.767H88.1339C88.6779 159.767 89.2134 159.632 89.6925 159.374C90.1715 159.116 90.5792 158.744 90.879 158.289C91.1788 157.835 91.3614 157.314 91.4105 156.772C91.4595 156.23 91.3735 155.684 91.1601 155.183L72.6645 120.819C72.6236 120.741 72.6018 120.654 72.601 120.565V104.886H65.0673Z" fill="#263238"/>
<path d="M81.9136 143.094H55.7361L50.2023 153.395C49.9968 153.868 49.9125 154.386 49.9568 154.9C50.0011 155.415 50.1727 155.91 50.4562 156.342C50.7396 156.774 51.1259 157.128 51.5803 157.373C52.0347 157.618 52.5429 157.746 53.0591 157.746H84.5377C85.0491 157.733 85.5498 157.596 85.9971 157.348C86.4444 157.099 86.8251 156.746 87.1067 156.319C87.3883 155.892 87.5625 155.403 87.6144 154.893C87.6664 154.384 87.5946 153.87 87.4052 153.395L81.9136 143.094Z" fill="#23BB4E"/>
<path d="M84.5823 158.269H53.1037C52.4995 158.27 51.9046 158.12 51.3727 157.834C50.8407 157.547 50.3885 157.132 50.0568 156.627C49.725 156.122 49.5242 155.542 49.4724 154.94C49.4206 154.337 49.5195 153.732 49.7601 153.177L55.3151 142.834C55.3599 142.75 55.4271 142.679 55.5092 142.631C55.5914 142.582 55.6853 142.557 55.7807 142.559H81.9159C82.0108 142.559 82.1039 142.585 82.1856 142.634C82.2674 142.682 82.3349 142.751 82.3814 142.834L87.9153 153.135C88.162 153.691 88.266 154.299 88.218 154.905C88.17 155.512 87.9714 156.096 87.6404 156.606C87.3093 157.116 86.8562 157.535 86.3222 157.826C85.7882 158.116 85.1901 158.269 84.5823 158.269ZM56.0981 143.617L50.7124 153.643C50.5506 154.036 50.488 154.462 50.5304 154.885C50.5727 155.308 50.7186 155.713 50.955 156.066C51.1915 156.419 51.5113 156.708 51.8861 156.908C52.2609 157.107 52.6791 157.211 53.1037 157.211H84.5823C85.0104 157.21 85.4317 157.103 85.8085 156.9C86.1854 156.696 86.506 156.403 86.7418 156.045C86.9775 155.688 87.1212 155.277 87.1598 154.851C87.1984 154.424 87.1308 153.995 86.963 153.601L81.5985 143.617H56.0981Z" fill="#263238"/>
<path d="M193.611 112.554L190.782 113.164L188.746 110.552L194.382 109.344L193.611 112.554Z" fill="white"/>
<path d="M190.781 113.738C190.695 113.737 190.61 113.717 190.533 113.679C190.455 113.641 190.387 113.587 190.333 113.52L188.297 110.907C188.235 110.831 188.194 110.74 188.178 110.643C188.161 110.547 188.171 110.447 188.205 110.355C188.24 110.263 188.298 110.182 188.372 110.118C188.446 110.054 188.535 110.009 188.631 109.987L194.266 108.836C194.361 108.813 194.46 108.815 194.553 108.844C194.646 108.872 194.73 108.925 194.796 108.997C194.864 109.065 194.913 109.15 194.939 109.242C194.965 109.335 194.967 109.433 194.945 109.526L194.163 112.749C194.14 112.855 194.086 112.952 194.009 113.028C193.931 113.103 193.832 113.154 193.726 113.175L190.908 113.784L190.781 113.738ZM189.769 110.953L191.011 112.565L193.128 112.104L193.611 110.125L189.769 110.953Z" fill="#263238"/>
<path d="M191.477 95.8441L185.844 97.0586L188.715 110.39L194.348 109.175L191.477 95.8441Z" fill="white"/>
<path d="M188.714 110.968C188.603 110.971 188.494 110.939 188.403 110.876C188.341 110.833 188.287 110.779 188.246 110.716C188.204 110.653 188.176 110.582 188.162 110.508L185.298 97.1698C185.281 97.0965 185.279 97.0205 185.292 96.9464C185.305 96.8722 185.332 96.8014 185.373 96.7381C185.414 96.6749 185.467 96.6204 185.529 96.5779C185.591 96.5354 185.661 96.5058 185.735 96.4909L191.371 95.271C191.521 95.2451 191.676 95.2737 191.808 95.3516C191.936 95.437 192.027 95.569 192.061 95.7198L194.925 109.046C194.942 109.12 194.944 109.197 194.931 109.272C194.918 109.347 194.891 109.418 194.85 109.482C194.809 109.547 194.756 109.602 194.694 109.646C194.632 109.689 194.562 109.72 194.488 109.737L188.852 110.887L188.714 110.968ZM186.528 97.5036L189.162 109.714L193.671 108.735L191.048 96.5369L186.528 97.5036Z" fill="#263238"/>
<path d="M183.775 112.662L181.188 111.373L181.245 108.059L186.398 110.648L183.775 112.662Z" fill="white"/>
<path d="M183.765 113.236C183.678 113.233 183.592 113.213 183.512 113.178L180.935 111.878C180.839 111.83 180.757 111.757 180.7 111.665C180.643 111.573 180.613 111.468 180.613 111.36L180.671 108.046C180.671 107.948 180.697 107.852 180.745 107.767C180.793 107.683 180.863 107.612 180.947 107.562C181.031 107.514 181.126 107.488 181.223 107.488C181.32 107.488 181.415 107.514 181.499 107.562L186.652 110.152C186.738 110.196 186.812 110.261 186.866 110.342C186.921 110.422 186.954 110.515 186.962 110.612C186.975 110.708 186.961 110.806 186.922 110.895C186.884 110.984 186.822 111.061 186.744 111.118L184.121 113.144C184.014 113.208 183.89 113.24 183.765 113.236ZM181.775 111.015L183.707 111.981L185.318 110.75L181.798 108.978L181.775 111.015Z" fill="#263238"/>
<path d="M192.59 98.2931L187.439 95.707L181.326 107.895L186.476 110.481L192.59 98.2931Z" fill="white"/>
<path d="M186.47 111.077C186.386 111.095 186.3 111.095 186.217 111.077L181.064 108.488C180.928 108.419 180.825 108.3 180.776 108.156C180.727 108.012 180.735 107.855 180.799 107.717L186.918 95.5184C186.991 95.3856 187.11 95.2835 187.252 95.2307C187.392 95.1731 187.549 95.1731 187.689 95.2307L192.842 97.82C192.91 97.8529 192.971 97.8993 193.021 97.9563C193.07 98.0133 193.108 98.0798 193.132 98.1517C193.156 98.2237 193.164 98.2997 193.158 98.3751C193.152 98.4506 193.13 98.524 193.095 98.591L187.01 110.755C186.938 110.891 186.82 110.997 186.677 111.054L186.47 111.077ZM182.087 107.625L186.217 109.696L191.818 98.5335L187.689 96.462L182.087 107.625Z" fill="#263238"/>
<path d="M175.76 109.06L173.184 107.771L173.23 104.457L178.382 107.046L175.76 109.06Z" fill="white"/>
<path d="M175.761 109.638C175.678 109.655 175.591 109.655 175.508 109.638L172.92 108.338C172.825 108.29 172.745 108.216 172.69 108.124C172.635 108.032 172.607 107.927 172.61 107.82V104.506C172.61 104.408 172.635 104.312 172.684 104.227C172.732 104.143 172.802 104.072 172.886 104.022C172.971 103.977 173.065 103.953 173.162 103.953C173.258 103.953 173.353 103.977 173.438 104.022L178.602 106.611C178.688 106.657 178.762 106.723 178.816 106.804C178.87 106.885 178.903 106.979 178.913 107.076C178.922 107.173 178.906 107.271 178.868 107.36C178.83 107.45 178.77 107.529 178.694 107.59L176.06 109.604C175.966 109.643 175.862 109.655 175.761 109.638ZM173.76 107.417L175.692 108.384L177.302 107.152L173.794 105.392L173.76 107.417Z" fill="#263238"/>
<path d="M184.584 94.7072L179.434 92.1211L173.32 104.309L178.47 106.895L184.584 94.7072Z" fill="white"/>
<path d="M178.462 107.471C178.376 107.493 178.284 107.493 178.198 107.471L173.045 104.881C172.977 104.848 172.916 104.802 172.866 104.745C172.816 104.688 172.778 104.621 172.755 104.55C172.731 104.478 172.722 104.402 172.729 104.326C172.735 104.251 172.756 104.177 172.792 104.11L178.957 91.8657C179.026 91.7301 179.146 91.6269 179.29 91.578C179.431 91.5261 179.586 91.5261 179.727 91.578L184.892 94.1673C185.026 94.2407 185.127 94.3627 185.174 94.5082C185.221 94.6537 185.211 94.8118 185.145 94.9499L178.957 107.16C178.924 107.228 178.877 107.289 178.82 107.338C178.763 107.388 178.696 107.425 178.623 107.448L178.462 107.471ZM174.08 104.018L178.198 106.09L183.799 94.9269L179.67 92.8554L174.08 104.018Z" fill="#263238"/>
<path d="M180.244 136.078H137.262V146.55H180.244V136.078Z" fill="#263238"/>
<path d="M180.245 147.112H137.263C137.11 147.112 136.964 147.051 136.856 146.943C136.748 146.835 136.688 146.689 136.688 146.536V136.075C136.688 135.923 136.748 135.776 136.856 135.669C136.964 135.561 137.11 135.5 137.263 135.5H180.245C180.398 135.5 180.544 135.561 180.652 135.669C180.76 135.776 180.82 135.923 180.82 136.075V146.536C180.82 146.689 180.76 146.835 180.652 146.943C180.544 147.051 180.398 147.112 180.245 147.112ZM137.838 145.961H179.67V136.651H137.838V145.961Z" fill="#263238"/>
<path d="M147.545 159.727H208.103C210.583 159.727 212.961 160.712 214.715 162.467C216.469 164.221 217.454 166.601 217.454 169.083V177.84H147.545V159.727Z" fill="white"/>
<path d="M217.466 178.409H147.546C147.393 178.409 147.247 178.349 147.139 178.241C147.031 178.133 146.971 177.986 146.971 177.834V159.732C146.971 159.579 147.031 159.433 147.139 159.325C147.247 159.217 147.393 159.156 147.546 159.156H208.115C209.42 159.155 210.713 159.41 211.919 159.909C213.125 160.407 214.222 161.138 215.145 162.06C216.069 162.983 216.803 164.078 217.303 165.284C217.804 166.489 218.063 167.782 218.064 169.088V177.845C218.063 177.922 218.046 177.997 218.015 178.067C217.984 178.137 217.939 178.2 217.884 178.253C217.828 178.306 217.762 178.346 217.691 178.373C217.619 178.4 217.543 178.412 217.466 178.409ZM148.121 177.258H216.914V169.088C216.911 166.76 215.985 164.528 214.34 162.882C212.695 161.236 210.465 160.31 208.138 160.307H148.121V177.258Z" fill="#263238"/>
<path d="M216.914 169.315H165.477C165.325 169.315 165.179 169.254 165.071 169.146C164.963 169.038 164.902 168.892 164.902 168.739C164.905 168.588 164.967 168.443 165.074 168.336C165.181 168.229 165.326 168.167 165.477 168.164H216.914C217.067 168.164 217.213 168.225 217.321 168.333C217.429 168.44 217.489 168.587 217.489 168.739C217.489 168.892 217.429 169.038 217.321 169.146C217.213 169.254 217.067 169.315 216.914 169.315Z" fill="#263238"/>
<path d="M165.326 136.078H137.262V177.841H165.326V136.078Z" fill="#263238"/>
<path d="M165.327 178.402H137.263C137.11 178.402 136.964 178.341 136.856 178.233C136.748 178.125 136.688 177.979 136.688 177.826V136.075C136.688 135.923 136.748 135.776 136.856 135.669C136.964 135.561 137.11 135.5 137.263 135.5H165.327C165.48 135.5 165.626 135.561 165.734 135.669C165.842 135.776 165.902 135.923 165.902 136.075V177.838C165.899 177.989 165.837 178.132 165.73 178.237C165.622 178.343 165.478 178.402 165.327 178.402ZM137.838 177.251H164.752V136.651H137.838V177.251Z" fill="#263238"/>
<path d="M259.23 53.7505L204.699 75.4546L202.422 69.7236L256.964 48.0195L259.23 53.7505Z" fill="#263238"/>
<path d="M204.698 75.9856C204.623 76.0028 204.544 76.0028 204.468 75.9856C204.398 75.9554 204.334 75.9113 204.28 75.8559C204.227 75.8006 204.185 75.7351 204.158 75.6634L201.857 69.9094C201.829 69.8391 201.815 69.764 201.816 69.6883C201.817 69.6127 201.833 69.538 201.863 69.4685C201.893 69.399 201.937 69.3362 201.991 69.2834C202.045 69.2307 202.109 69.1892 202.179 69.1613L256.722 47.4572C256.862 47.3997 257.019 47.3997 257.159 47.4572C257.228 47.4851 257.29 47.5272 257.341 47.5807C257.393 47.6343 257.432 47.698 257.458 47.7679L259.758 53.5219C259.812 53.6641 259.808 53.8215 259.748 53.9609C259.688 54.1004 259.576 54.2112 259.436 54.27L204.905 75.9856C204.837 76.0017 204.766 76.0017 204.698 75.9856ZM203.169 69.9899L205.02 74.6622L258.481 53.4299L256.641 48.8267L203.169 69.9899Z" fill="#263238"/>
<path d="M238.869 54.2179L236.057 55.332L239.037 62.8647L241.85 61.7506L238.869 54.2179Z" fill="white"/>
<path d="M239.042 63.4668C238.966 63.4841 238.887 63.4841 238.812 63.4668C238.672 63.4074 238.56 63.296 238.501 63.1561L235.522 55.6183C235.469 55.4762 235.472 55.3188 235.532 55.1793C235.592 55.0398 235.704 54.9291 235.844 54.8703L238.662 53.7195C238.733 53.6881 238.809 53.6719 238.886 53.6719C238.964 53.6719 239.04 53.6881 239.111 53.7195C239.247 53.7793 239.355 53.8911 239.41 54.0302L242.389 61.568C242.417 61.6382 242.431 61.7133 242.43 61.789C242.429 61.8646 242.413 61.9393 242.383 62.0088C242.353 62.0783 242.309 62.1412 242.255 62.1939C242.201 62.2466 242.137 62.2881 242.067 62.316L239.249 63.4668C239.18 63.4778 239.11 63.4778 239.042 63.4668ZM236.81 55.6874L239.364 62.1779L241.112 61.4874L238.559 55.0199L236.81 55.6874Z" fill="#263238"/>
<path d="M225.066 57.5842L201.346 66.9805L205.762 78.1404L229.482 68.7441L225.066 57.5842Z" fill="#263238"/>
<path d="M205.767 78.7479C205.652 78.7497 205.539 78.7151 205.444 78.649C205.349 78.583 205.277 78.4887 205.238 78.3796L200.81 67.2169C200.781 67.1468 200.765 67.0714 200.766 66.9953C200.766 66.9192 200.782 66.844 200.812 66.7741C200.842 66.7042 200.886 66.6411 200.941 66.5887C200.996 66.5362 201.061 66.4955 201.132 66.4689L224.849 57.0783C224.989 57.0208 225.146 57.0208 225.286 57.0783C225.424 57.146 225.534 57.26 225.597 57.4005L230.014 68.5633C230.045 68.632 230.061 68.7065 230.061 68.782C230.061 68.8574 230.045 68.9319 230.014 69.0006C229.954 69.1405 229.843 69.2519 229.703 69.3113L205.975 78.7019C205.91 78.7336 205.839 78.7493 205.767 78.7479ZM202.098 67.332L206.09 77.4245L228.737 68.4482L224.746 58.3557L202.098 67.332Z" fill="#263238"/>
<path d="M214.21 80.4855L206.377 91.9935L175.058 93.0408L137.216 159.108C137.216 159.108 125.473 141.087 125.473 132.467V132.214C125.516 125.367 127.607 118.689 131.477 113.042L165.407 63.2695H205.078L214.21 80.4855Z" fill="white"/>
<path d="M137.217 159.661C137.121 159.659 137.027 159.634 136.943 159.588C136.859 159.542 136.787 159.476 136.734 159.397C136.251 158.66 124.898 141.133 124.898 132.445V132.192C124.935 125.228 127.063 118.436 131.006 112.697L164.937 62.9251C164.989 62.8478 165.059 62.7843 165.141 62.7402C165.223 62.6961 165.315 62.6727 165.408 62.6719H205.078C205.183 62.6751 205.284 62.7055 205.373 62.76C205.462 62.8145 205.535 62.8912 205.585 62.9826L214.717 80.2446C214.773 80.3343 214.803 80.438 214.803 80.5438C214.803 80.6496 214.773 80.7533 214.717 80.843L206.896 92.351C206.847 92.4289 206.779 92.493 206.699 92.5373C206.618 92.5816 206.528 92.6046 206.436 92.6042L175.38 93.6399L137.7 159.431C137.649 159.515 137.579 159.585 137.494 159.635C137.41 159.686 137.315 159.714 137.217 159.719V159.661ZM165.707 63.8227L131.949 113.307C128.135 118.868 126.079 125.447 126.049 132.192V132.445C126.049 139.787 134.951 154.402 137.194 157.97L174.564 92.7308C174.614 92.6462 174.684 92.5755 174.769 92.5253C174.853 92.475 174.949 92.4468 175.047 92.4431L206.102 91.4074L213.578 80.4517L204.768 63.8227H165.707Z" fill="#263238"/>
<path d="M214.209 81.0649H154.399C154.247 81.0649 154.101 81.0042 153.993 80.8963C153.885 80.7884 153.824 80.6421 153.824 80.4895C153.824 80.3369 153.885 80.1905 153.993 80.0826C154.101 79.9747 154.247 79.9141 154.399 79.9141H214.209C214.362 79.9141 214.508 79.9747 214.616 80.0826C214.724 80.1905 214.785 80.3369 214.785 80.4895C214.785 80.6421 214.724 80.7884 214.616 80.8963C214.508 81.0042 214.362 81.0649 214.209 81.0649Z" fill="#263238"/>
<path d="M196.463 56.9375H176.887V63.2094H196.463V56.9375Z" fill="#263238"/>
<path d="M196.464 63.7744H176.911C176.759 63.7744 176.612 63.7138 176.504 63.6059C176.397 63.498 176.336 63.3516 176.336 63.199V56.9387C176.336 56.7861 176.397 56.6397 176.504 56.5318C176.612 56.4239 176.759 56.3633 176.911 56.3633H196.464C196.617 56.3633 196.763 56.4239 196.871 56.5318C196.979 56.6397 197.039 56.7861 197.039 56.9387V63.199C197.039 63.3516 196.979 63.498 196.871 63.6059C196.763 63.7138 196.617 63.7744 196.464 63.7744ZM177.463 62.6236H195.866V57.5716H177.463V62.6236Z" fill="#263238"/>
<path d="M137.39 135.593C136.51 135.591 135.646 135.356 134.887 134.912C134.127 134.469 133.498 133.831 133.065 133.065C132.631 132.3 132.408 131.432 132.418 130.552C132.428 129.672 132.671 128.81 133.122 128.055L152.676 95.2685C152.999 94.6845 153.437 94.1716 153.963 93.7603C154.489 93.349 155.092 93.0477 155.737 92.8742C156.381 92.7007 157.054 92.6586 157.715 92.7504C158.376 92.8423 159.012 93.0661 159.585 93.4087C160.158 93.7512 160.657 94.2055 161.051 94.7446C161.445 95.2836 161.726 95.8964 161.879 96.5466C162.032 97.1967 162.052 97.8709 161.939 98.5291C161.826 99.1873 161.582 99.816 161.222 100.378L141.668 133.164C141.225 133.904 140.597 134.515 139.848 134.941C139.098 135.366 138.251 135.591 137.39 135.593Z" fill="#263238"/>
<path d="M137.391 136.172C136.41 136.168 135.448 135.904 134.602 135.408C133.756 134.912 133.056 134.201 132.573 133.347C132.089 132.493 131.84 131.527 131.85 130.546C131.86 129.565 132.129 128.603 132.629 127.76L152.182 94.9848C152.537 94.3232 153.023 93.7403 153.609 93.2714C154.195 92.8025 154.87 92.4573 155.593 92.2567C156.317 92.0561 157.073 92.0042 157.817 92.1041C158.561 92.2041 159.277 92.4538 159.921 92.8382C160.566 93.2226 161.126 93.7337 161.568 94.3407C162.01 94.9477 162.324 95.638 162.492 96.3699C162.66 97.1019 162.678 97.8602 162.545 98.5992C162.412 99.3383 162.13 100.043 161.718 100.67L142.164 133.456C141.67 134.282 140.971 134.967 140.135 135.442C139.298 135.918 138.353 136.17 137.391 136.172ZM156.944 93.4198C156.185 93.4195 155.439 93.6153 154.778 93.9883C154.117 94.3613 153.564 94.8988 153.172 95.5487L133.618 128.335C133.023 129.339 132.848 130.537 133.132 131.669C133.417 132.801 134.137 133.774 135.137 134.377C136.14 134.975 137.34 135.15 138.473 134.863C139.605 134.576 140.577 133.85 141.175 132.846L160.728 100.06C161.324 99.0563 161.499 97.8578 161.214 96.7258C160.93 95.5939 160.209 94.6205 159.21 94.0182C158.525 93.6228 157.747 93.4163 156.956 93.4198H156.944Z" fill="#263238"/>
<path d="M206.376 91.972L199.222 104.7L174.125 94.6534L181.256 82.7656L206.376 91.972Z" fill="#263238"/>
<path d="M199.226 105.273C199.157 105.284 199.087 105.284 199.019 105.273L173.91 95.2263C173.833 95.1919 173.765 95.1426 173.707 95.0814C173.65 95.0201 173.606 94.9481 173.576 94.8695C173.551 94.7914 173.543 94.7087 173.553 94.6272C173.563 94.5457 173.591 94.4674 173.634 94.3977L180.765 82.4984C180.833 82.3826 180.939 82.2947 181.066 82.2504C181.192 82.2061 181.33 82.2084 181.455 82.2567L206.575 91.4631C206.655 91.4919 206.727 91.5377 206.786 91.5973C206.846 91.657 206.892 91.729 206.92 91.8084C206.955 91.8843 206.973 91.9667 206.973 92.0501C206.973 92.1334 206.955 92.2158 206.92 92.2917L199.766 105.02C199.708 105.107 199.627 105.177 199.531 105.222C199.436 105.266 199.33 105.284 199.226 105.273ZM174.968 94.3977L198.973 104.007L205.552 92.3032L181.513 83.4881L174.968 94.3977Z" fill="#263238"/>
<path d="M209.863 123.152H169.963V126.236H209.863V123.152Z" fill="#263238"/>
<path d="M209.862 126.829H169.962C169.809 126.829 169.663 126.768 169.555 126.66C169.447 126.552 169.387 126.406 169.387 126.253V123.169C169.387 123.017 169.447 122.87 169.555 122.762C169.663 122.654 169.809 122.594 169.962 122.594H209.862C210.015 122.594 210.161 122.654 210.269 122.762C210.377 122.87 210.437 123.017 210.437 123.169V126.265C210.434 126.415 210.372 126.559 210.265 126.664C210.157 126.77 210.013 126.829 209.862 126.829ZM170.537 125.678H209.287V123.733H170.537V125.678Z" fill="#263238"/>
<path d="M195.75 126.379H169.963V135.631H195.75V126.379Z" fill="white"/>
<path d="M195.749 136.205H169.962C169.809 136.205 169.663 136.144 169.555 136.036C169.447 135.928 169.387 135.782 169.387 135.629V126.423C169.387 126.27 169.447 126.124 169.555 126.016C169.663 125.908 169.809 125.848 169.962 125.848H195.749C195.902 125.848 196.048 125.908 196.156 126.016C196.264 126.124 196.324 126.27 196.324 126.423V135.629C196.324 135.782 196.264 135.928 196.156 136.036C196.048 136.144 195.902 136.205 195.749 136.205ZM170.537 135.054H195.174V126.998H170.537V135.054Z" fill="#263238"/>
<path d="M157.875 158.298C162.982 158.298 167.122 154.155 167.122 149.045C167.122 143.935 162.982 139.793 157.875 139.793C152.767 139.793 148.627 143.935 148.627 149.045C148.627 154.155 152.767 158.298 157.875 158.298Z" fill="white"/>
<path d="M157.873 158.843C155.931 158.843 154.032 158.267 152.416 157.187C150.801 156.107 149.542 154.572 148.798 152.776C148.055 150.981 147.861 149.004 148.24 147.098C148.619 145.192 149.554 143.44 150.928 142.066C152.301 140.692 154.052 139.756 155.957 139.376C157.863 138.997 159.838 139.192 161.632 139.936C163.427 140.679 164.961 141.939 166.041 143.555C167.12 145.171 167.696 147.072 167.696 149.015C167.693 151.621 166.657 154.119 164.816 155.961C162.974 157.804 160.478 158.84 157.873 158.843ZM157.873 140.35C156.158 140.35 154.481 140.859 153.054 141.813C151.628 142.767 150.516 144.123 149.86 145.709C149.204 147.295 149.033 149.04 149.368 150.724C149.704 152.407 150.531 153.953 151.745 155.167C152.959 156.38 154.506 157.205 156.189 157.539C157.872 157.872 159.616 157.699 161.2 157.04C162.785 156.382 164.138 155.268 165.09 153.839C166.041 152.411 166.548 150.732 166.546 149.015C166.519 146.731 165.593 144.549 163.97 142.942C162.347 141.336 160.157 140.433 157.873 140.43V140.35Z" fill="#263238"/>
<path d="M177.809 140.992C177.809 140.184 177.569 139.394 177.121 138.722C176.672 138.05 176.034 137.526 175.288 137.217C174.542 136.908 173.721 136.827 172.929 136.985C172.137 137.142 171.41 137.531 170.839 138.103C170.267 138.674 169.879 139.402 169.721 140.195C169.563 140.987 169.644 141.808 169.953 142.555C170.262 143.301 170.786 143.94 171.457 144.388C172.129 144.837 172.918 145.077 173.726 145.077C174.262 145.077 174.793 144.971 175.288 144.766C175.784 144.561 176.234 144.26 176.613 143.88C176.992 143.501 177.293 143.051 177.498 142.555C177.703 142.059 177.809 141.528 177.809 140.992Z" fill="white"/>
<path d="M173.678 145.655C172.771 145.644 171.887 145.364 171.138 144.852C170.389 144.339 169.808 143.616 169.469 142.774C169.129 141.932 169.046 141.008 169.23 140.119C169.414 139.23 169.857 138.415 170.503 137.777C171.148 137.139 171.968 136.707 172.859 136.534C173.75 136.361 174.672 136.455 175.509 136.805C176.347 137.155 177.062 137.745 177.565 138.501C178.068 139.256 178.336 140.144 178.336 141.052C178.321 142.278 177.824 143.449 176.952 144.311C176.08 145.172 174.904 145.655 173.678 145.655ZM173.678 137.485C172.984 137.485 172.306 137.69 171.729 138.076C171.152 138.462 170.703 139.01 170.437 139.651C170.171 140.293 170.102 140.998 170.237 141.679C170.373 142.36 170.707 142.986 171.197 143.476C171.688 143.967 172.313 144.302 172.994 144.437C173.674 144.572 174.38 144.503 175.021 144.237C175.662 143.972 176.209 143.522 176.595 142.945C176.98 142.367 177.186 141.689 177.186 140.995C177.183 140.065 176.813 139.174 176.155 138.516C175.498 137.858 174.608 137.488 173.678 137.485Z" fill="#263238"/>
<path d="M283.752 170.785L214.35 179.462L254.008 189.382L314.324 181.108L283.752 170.785Z" fill="white"/>
<path d="M254.008 189.953H253.87L214.211 180.033C214.082 179.999 213.969 179.923 213.89 179.816C213.81 179.709 213.769 179.579 213.774 179.446C213.783 179.311 213.839 179.184 213.931 179.086C214.023 178.987 214.146 178.923 214.28 178.905L283.671 170.228C283.758 170.21 283.848 170.21 283.936 170.228L314.496 180.585C314.572 180.592 314.645 180.614 314.712 180.649C314.78 180.684 314.839 180.732 314.888 180.79C314.936 180.849 314.973 180.916 314.996 180.988C315.018 181.061 315.026 181.137 315.02 181.212C315.013 181.288 314.991 181.362 314.956 181.429C314.921 181.496 314.873 181.556 314.815 181.604C314.756 181.653 314.689 181.689 314.617 181.712C314.544 181.735 314.468 181.743 314.393 181.736L254.088 189.999L254.008 189.953ZM217.477 179.596L254.042 188.802L311.816 180.885L283.694 171.379L217.477 179.596Z" fill="#263238"/>
<path d="M314.359 28.4926C314.359 28.4926 326.839 24.2232 335.235 27.549C345.426 31.5768 354.674 43.9134 356.571 56.0198C358.469 68.1262 357.722 73.2818 357.722 73.2818L329.507 64.5012C329.507 64.5012 326.183 44.811 321.675 39.828C319.579 37.3384 317.192 35.1091 314.566 33.1879L314.359 28.4926Z" fill="#263238"/>
<path d="M357.756 73.9227H357.595L329.369 65.1306C329.268 65.0976 329.177 65.0372 329.108 64.9559C329.039 64.8746 328.994 64.7757 328.978 64.6702C328.978 64.4861 325.631 45.1066 321.283 40.2848C319.215 37.8405 316.868 35.6467 314.29 33.7482C314.213 33.6977 314.149 33.6297 314.103 33.5497C314.057 33.4697 314.03 33.38 314.026 33.2879L313.784 28.5466C313.777 28.4211 313.812 28.2969 313.883 28.193C313.953 28.0891 314.056 28.0112 314.175 27.9712C314.693 27.7986 326.942 23.6672 335.442 27.0275C345.874 31.1589 355.202 43.5876 357.146 55.9472C359.033 67.9961 358.365 73.2092 358.296 73.4393C358.285 73.5219 358.255 73.6008 358.209 73.6704C358.164 73.7401 358.103 73.7987 358.032 73.8421C357.948 73.8919 357.853 73.9196 357.756 73.9227ZM330.048 64.1179L357.25 72.5878C357.416 67.07 357 61.5501 356.008 56.1198C354.121 44.1284 345.104 32.0796 335.017 28.0863C327.759 25.2093 317.166 28.2244 314.957 28.9148L315.164 32.9311C317.712 34.8741 320.052 37.0762 322.146 39.5022C326.425 44.2435 329.565 61.3674 330.048 64.1179Z" fill="#263238"/>
<path d="M275.561 73.7942C275.561 73.7942 262.725 94.6697 261.851 97.0519C260.977 99.434 262.15 114.636 261.564 116.132C260.977 117.628 254.11 129.551 253.512 130.437C252.914 131.323 245.461 141.473 243.678 147.434C241.895 153.395 240.998 168.896 240.998 168.896L260.068 174.259C260.068 174.259 271.099 159.955 272.582 157.573C274.066 155.19 276.459 141.772 277.057 140.874C277.655 139.977 280.335 134.614 280.335 134.614L295.23 155.777L298.807 168.298L299.106 173.373H364.954C364.954 173.373 359.894 81.8498 359.595 77.6724C359.296 73.495 359.296 68.466 357.501 66.9354C355.707 65.4049 332.197 53.8163 321.454 52.3318C310.711 50.8472 279.737 66.0493 275.561 73.7942Z" fill="white"/>
<path d="M260.068 174.833H259.919L240.872 169.447C240.744 169.413 240.632 169.336 240.555 169.229C240.477 169.122 240.439 168.992 240.446 168.86C240.446 168.227 241.366 153.221 243.149 147.271C244.23 143.68 247.428 138.065 252.65 130.699L253.064 130.124C253.639 129.249 260.483 117.339 261.046 115.912C261.219 113.36 261.219 110.799 261.046 108.247C260.885 102.401 260.816 98.1663 261.311 96.8429C262.208 94.4492 274.423 74.5404 275.113 73.5046C279.242 65.8748 310.481 50.2124 321.581 51.7545C332.14 53.2275 355.914 64.8276 357.916 66.4963C359.629 67.9233 359.871 71.8935 360.089 75.7027C360.089 76.3471 360.17 76.9916 360.216 77.6015C360.503 81.7329 365.53 172.393 365.576 173.314C365.582 173.392 365.57 173.471 365.542 173.544C365.514 173.618 365.471 173.684 365.415 173.739C365.363 173.798 365.299 173.844 365.227 173.876C365.156 173.908 365.079 173.924 365.001 173.924H299.106C298.959 173.924 298.818 173.868 298.711 173.767C298.604 173.667 298.54 173.529 298.531 173.383L298.232 168.377L294.701 156.04L280.415 135.74C279.622 137.305 278 140.504 277.528 141.206C277.333 141.552 276.758 144.129 276.252 146.408C275.263 150.838 274.032 156.351 273.077 157.916C271.582 160.298 260.977 174.027 260.529 174.66C260.468 174.719 260.396 174.765 260.317 174.795C260.237 174.825 260.153 174.837 260.068 174.833ZM241.596 168.469L259.85 173.601C261.46 171.507 270.754 159.4 272.099 157.26C272.951 155.89 274.204 150.263 275.125 146.143C275.439 144.239 275.924 142.367 276.574 140.55C277.045 139.848 279.07 135.844 279.817 134.359C279.86 134.268 279.926 134.19 280.009 134.134C280.092 134.077 280.189 134.044 280.289 134.037C280.388 134.032 280.487 134.051 280.578 134.093C280.668 134.135 280.746 134.199 280.806 134.278L295.701 155.442C295.74 155.497 295.767 155.56 295.782 155.626L299.359 168.147C299.364 168.185 299.364 168.223 299.359 168.262L299.624 172.796H364.322C363.885 164.809 359.273 81.6523 358.997 77.7166C358.997 77.0836 358.916 76.4392 358.87 75.7947C358.675 72.3423 358.445 68.4871 357.11 67.3824C355.592 66.1165 332.197 54.4013 321.351 52.8938C310.504 51.3862 280.047 66.6459 276.045 74.0685C271.616 81.2725 263.07 95.3814 262.38 97.2226C261.932 98.3734 262.081 103.84 262.196 108.19C262.323 112.885 262.38 115.578 262.081 116.314C261.472 117.845 254.594 129.813 254.03 130.734L253.604 131.344C248.452 138.64 245.311 144.106 244.265 147.57C242.655 152.852 241.769 165.856 241.596 168.469Z" fill="#263238"/>
<path d="M260.286 35.1415C260.286 35.1415 249.382 26.3724 248.91 24.9454C248.439 23.5184 265.266 6.19884 271.201 4.30001C277.136 2.40119 293.25 -3.05361 303.924 5.01351C311.078 10.4223 313.643 27.7879 314.598 31.5855C315.552 35.3832 309.767 44.4975 307.996 46.2928C303.74 50.5967 304.867 47.7428 304.867 47.7428C304.867 47.7428 306.293 46.3043 302.498 45.8209C298.702 45.3376 287.085 41.3213 285.659 40.1245C284.233 38.9276 262.183 28.0295 262.183 28.0295L260.286 35.1415Z" fill="#263238"/>
<path d="M304.971 49.2465C304.811 49.2483 304.654 49.2 304.522 49.1084C303.936 48.7287 304.189 47.8771 304.327 47.5203C304.36 47.4529 304.402 47.3908 304.453 47.3362C304.513 47.2735 304.55 47.1923 304.557 47.1061C304.557 47.1061 304.361 46.6342 302.429 46.3926C298.748 45.9322 286.901 41.9044 285.291 40.5695C284.314 39.7524 271.397 33.2274 262.563 28.8543L260.85 35.2873C260.824 35.3805 260.776 35.466 260.71 35.5363C260.644 35.6066 260.562 35.6594 260.47 35.6901C260.378 35.7194 260.281 35.7253 260.187 35.7072C260.092 35.6891 260.004 35.6476 259.929 35.5865C257.342 33.5036 248.853 26.5873 248.359 25.1258C248.291 24.8007 248.353 24.4623 248.531 24.1821C250.118 21.0404 265.209 5.60817 271.029 3.75538L271.454 3.60577C277.516 1.66092 293.607 -3.50618 304.269 4.54943C310.572 9.31375 313.321 22.6745 314.621 29.096C314.828 30.0972 315.001 30.9143 315.127 31.3976C316.185 35.598 310.124 44.885 308.376 46.6457C306.432 48.6481 305.558 49.2465 304.971 49.2465ZM262.184 27.4504C262.271 27.4515 262.358 27.4711 262.437 27.5079C264.737 28.6587 284.601 38.4866 286.027 39.6834C287.454 40.8802 298.921 44.7929 302.579 45.2533C304.396 45.4834 305.374 45.9437 305.638 46.7263C305.694 46.8898 305.715 47.063 305.701 47.2352C305.688 47.4074 305.639 47.5749 305.558 47.7275C306.276 47.1637 306.953 46.5483 307.582 45.8862C309.25 44.206 314.92 35.2298 314.035 31.7198C313.908 31.179 313.736 30.3504 313.517 29.3262C312.367 23.5722 309.537 9.9697 303.579 5.47007C293.4 -2.22879 277.711 2.81172 271.811 4.71054L271.374 4.84864C265.68 6.6669 250.187 22.64 249.52 24.8265C250.084 25.8047 255.099 30.1663 259.998 34.1365L261.666 27.8762C261.691 27.7941 261.732 27.7179 261.788 27.6526C261.843 27.5872 261.911 27.5341 261.988 27.4964C262.05 27.4684 262.116 27.4528 262.184 27.4504Z" fill="#263238"/>
<path d="M286.615 73.3434L285.902 86.3935L292.309 89.2935L288.272 93.3328L301.315 105.198L319.338 87.6364L314.128 84.5522L328.828 81.9399C328.828 81.9399 327.677 57.7731 326.688 54.4242C325.699 51.0754 324.089 48.4861 323.376 48.0143C322.663 47.5425 316.256 47.3008 316.256 47.3008C316.256 47.3008 293.252 60.7652 286.615 73.3434Z" fill="white"/>
<path d="M301.315 105.723C301.245 105.725 301.176 105.712 301.111 105.687C301.045 105.661 300.986 105.623 300.936 105.574L287.893 93.7091C287.776 93.6017 287.706 93.4531 287.697 93.2948C287.695 93.2175 287.71 93.1407 287.739 93.0694C287.769 92.998 287.813 92.9337 287.87 92.8805L291.32 89.4281L285.73 86.9309C285.624 86.8812 285.534 86.8013 285.473 86.701C285.411 86.6007 285.381 86.4845 285.385 86.367L286.098 73.3169C286.098 73.2351 286.122 73.155 286.167 73.0868C292.804 60.5085 315.083 47.3088 316.072 46.7564C316.167 46.7018 316.274 46.6739 316.383 46.6759C318.361 46.7449 323.031 46.9751 323.802 47.4814C324.572 47.9878 326.447 51.0374 327.344 54.2136C328.241 57.3898 329.461 80.8777 329.507 81.8328C329.51 81.9719 329.464 82.1077 329.378 82.2169C329.292 82.3261 329.171 82.4019 329.035 82.4313L315.854 84.7329L319.741 87.0345C319.816 87.0809 319.879 87.1431 319.927 87.2166C319.975 87.2902 320.005 87.3734 320.017 87.4603C320.028 87.5487 320.018 87.6384 319.988 87.7222C319.958 87.8061 319.909 87.8819 319.845 87.9436L301.718 105.562C301.609 105.665 301.465 105.722 301.315 105.723ZM289.112 93.2603L301.304 104.354L318.407 87.7019L313.806 84.9976C313.706 84.9369 313.626 84.8475 313.577 84.7408C313.527 84.6341 313.511 84.5151 313.53 84.3991C313.554 84.284 313.611 84.1786 313.695 84.0965C313.78 84.0144 313.886 83.9595 314.002 83.9388L328.287 81.4186C328.103 77.9662 327.045 57.4819 326.194 54.5243C325.656 52.2854 324.6 50.2042 323.112 48.4481C320.917 48.053 318.693 47.8489 316.463 47.8382C314.52 48.989 293.529 61.7629 287.237 73.5126L286.558 86.0333L292.597 88.7261C292.682 88.7624 292.757 88.8192 292.816 88.8915C292.874 88.9637 292.913 89.0492 292.93 89.1404C292.948 89.2333 292.943 89.3292 292.915 89.4195C292.887 89.5099 292.837 89.5919 292.769 89.6583L289.112 93.2603Z" fill="#263238"/>
<path d="M258.874 25.8883C258.874 25.8883 256.735 43.2654 257.207 44.6348C258.129 46.667 259.158 48.6492 260.289 50.5729C260.289 50.5729 258.633 62.9095 259.817 63.623C261.002 64.3365 265.983 64.3365 265.983 64.3365C265.983 64.3365 270.733 75.9596 272.884 77.3866C275.035 78.8136 286.686 73.3473 286.686 73.3473L300.914 95.4197C300.914 95.4197 304.468 90.195 309.448 76.1898C312.347 68.1101 314.518 59.7874 315.935 51.321L306.308 46.4991L301.558 44.1285L293.967 38.6621C293.962 38.9299 293.901 39.1937 293.79 39.4371C293.678 39.6804 293.517 39.8981 293.317 40.0763C293.117 40.2546 292.883 40.3896 292.629 40.473C292.374 40.5564 292.105 40.5864 291.839 40.561C289.7 40.561 286.375 36.5217 286.375 36.5217C286.375 36.5217 278.324 30.1232 274.759 28.2244C272.866 27.2434 271.045 26.1322 269.307 24.8986L283.534 12.3203L269.537 22.0906L258.874 25.8883Z" fill="white"/>
<path d="M300.84 95.9973C300.747 95.9924 300.655 95.966 300.574 95.9201C300.492 95.8742 300.422 95.81 300.369 95.7326L286.405 74.086C283.656 75.3519 274.685 79.2991 272.534 77.8606C270.383 76.4221 266.507 67.1121 265.633 64.9026C264.264 64.9026 260.676 64.7875 259.548 64.1201C258.421 63.4526 258.617 58.999 259.732 50.6902C258.602 48.7974 257.588 46.8374 256.696 44.8211C256.201 43.3481 257.973 28.7099 258.329 25.8214C258.342 25.7152 258.385 25.6148 258.452 25.5315C258.519 25.4481 258.608 25.3851 258.709 25.3496L269.302 21.5865L283.231 11.8967C283.291 11.8499 283.359 11.8152 283.432 11.7948C283.505 11.7744 283.581 11.7685 283.657 11.7776C283.732 11.7867 283.805 11.8105 283.871 11.8477C283.937 11.885 283.995 11.9348 284.042 11.9945C284.089 12.0542 284.123 12.1226 284.144 12.1956C284.164 12.2687 284.17 12.3451 284.161 12.4204C284.152 12.4958 284.128 12.5686 284.091 12.6347C284.054 12.7008 284.004 12.759 283.944 12.8058L270.222 24.8547C271.772 25.8961 273.377 26.8527 275.03 27.7202C278.584 29.6306 286.405 35.7758 286.727 36.0865L286.819 36.1671C288.039 37.6516 290.477 39.9993 291.834 39.9993C293.192 39.9993 293.387 38.8485 293.387 38.6759C293.388 38.5697 293.418 38.4658 293.472 38.3748C293.527 38.2838 293.605 38.209 293.698 38.158C293.788 38.1043 293.891 38.076 293.997 38.076C294.102 38.076 294.205 38.1043 294.296 38.158L301.887 43.6128L316.195 50.7593C316.304 50.8136 316.392 50.9007 316.447 51.0082C316.503 51.1156 316.524 51.2379 316.506 51.3577C315.036 59.8794 312.819 68.255 309.881 76.3876C304.935 90.3008 301.427 95.5254 301.277 95.7441C301.229 95.8168 301.164 95.8774 301.088 95.9212C301.012 95.9651 300.928 95.9911 300.84 95.9973ZM286.612 72.7741C286.708 72.7753 286.803 72.8 286.887 72.8462C286.971 72.8923 287.043 72.9585 287.096 73.0388L300.829 94.3401C301.979 92.4528 304.97 86.8599 308.88 76.0078C311.721 68.0967 313.883 59.958 315.344 51.6799L301.346 44.683L294.365 39.6771C294.16 40.1564 293.81 40.5595 293.364 40.8298C292.919 41.1002 292.4 41.2242 291.88 41.1846C289.58 41.1846 286.52 37.5941 286.014 36.9842C285.508 36.3743 277.859 30.5512 274.512 28.779C272.591 27.7865 270.743 26.6597 268.98 25.4071C268.91 25.3571 268.853 25.2915 268.813 25.2156C268.773 25.1397 268.752 25.0556 268.75 24.9698C268.744 24.8831 268.759 24.7962 268.793 24.7162C268.827 24.6363 268.879 24.5654 268.945 24.5095L275.766 18.4908L269.866 22.5531L269.728 22.6222L259.376 26.2932C258.571 32.9103 257.444 43.4056 257.743 44.4414C258.648 46.4364 259.661 48.3803 260.779 50.2644C260.837 50.3738 260.861 50.498 260.848 50.6212C260.112 56.0529 259.698 62.3939 260.169 63.1649C260.86 63.5677 264.103 63.7403 265.92 63.7403C266.034 63.7393 266.146 63.7729 266.24 63.8366C266.335 63.9002 266.408 63.9911 266.45 64.097C268.336 68.7002 271.66 75.9043 273.121 76.8824C274.581 77.8606 281.609 75.0181 286.313 72.8086C286.409 72.7727 286.511 72.7609 286.612 72.7741Z" fill="#263238"/>
<path d="M270.387 67.0191H270.123C270.047 67.0131 269.974 66.9922 269.906 66.9577C269.839 66.9232 269.779 66.8757 269.73 66.818C269.68 66.7603 269.643 66.6935 269.62 66.6214C269.596 66.5493 269.588 66.4732 269.594 66.3977C269.6 66.3221 269.621 66.2485 269.655 66.181C269.69 66.1135 269.737 66.0535 269.795 66.0043C269.852 65.9551 269.919 65.9178 269.991 65.8945C270.063 65.8712 270.139 65.8623 270.215 65.8683C271.818 65.8608 273.387 65.4065 274.747 64.5564C274.81 64.517 274.882 64.4908 274.956 64.4793C275.03 64.4678 275.106 64.4713 275.179 64.4895C275.252 64.5077 275.32 64.5403 275.38 64.5854C275.44 64.6305 275.491 64.6872 275.529 64.752C275.568 64.8169 275.595 64.889 275.606 64.9642C275.618 65.0393 275.615 65.116 275.596 65.1899C275.578 65.2637 275.546 65.3332 275.5 65.3943C275.455 65.4555 275.398 65.5071 275.333 65.5461C273.844 66.4678 272.137 66.9762 270.387 67.0191Z" fill="#263238"/>
<path d="M265.509 42.703C265.264 42.7024 265.026 42.6239 264.829 42.4788C264.633 42.3337 264.487 42.1296 264.414 41.8961C264.341 41.6627 264.344 41.412 264.423 41.1804C264.502 40.9489 264.653 40.7486 264.853 40.6085C266.205 39.7353 267.75 39.2046 269.353 39.0623C270.956 38.9199 272.57 39.1702 274.055 39.7915C274.332 39.9171 274.548 40.1474 274.656 40.4322C274.764 40.7169 274.754 41.0327 274.63 41.3105C274.569 41.4489 274.481 41.5738 274.372 41.6782C274.262 41.7826 274.133 41.8644 273.992 41.9189C273.851 41.9734 273.701 41.9995 273.55 41.9959C273.399 41.9922 273.25 41.9587 273.112 41.8974C271.996 41.4421 270.787 41.2598 269.587 41.3659C268.387 41.472 267.229 41.8633 266.21 42.5074C266.004 42.6469 265.758 42.7156 265.509 42.703Z" fill="#263238"/>
<path d="M255.907 49.6115C255.835 49.6278 255.76 49.6278 255.688 49.6115C254.388 49.0591 254.331 47.3674 254.538 46.4698C254.558 46.3533 254.615 46.2461 254.7 46.1635C254.784 46.0809 254.893 46.027 255.01 46.0095L277.68 42.4074L293.276 36.2622C293.418 36.2098 293.575 36.2154 293.713 36.2779C293.851 36.3403 293.958 36.4546 294.013 36.5959C294.042 36.6652 294.057 36.7397 294.057 36.815C294.056 36.8903 294.041 36.9647 294.01 37.0337C293.98 37.1027 293.936 37.1648 293.881 37.2161C293.826 37.2675 293.761 37.3071 293.691 37.3324L278.036 43.5007C277.999 43.511 277.959 43.511 277.921 43.5007L255.585 46.9531C255.585 47.4249 255.585 48.2075 256.125 48.4261C256.196 48.4549 256.26 48.4977 256.314 48.552C256.367 48.6062 256.409 48.6708 256.437 48.7418C256.465 48.8128 256.479 48.8888 256.476 48.9651C256.474 49.0414 256.456 49.1164 256.424 49.1857C256.395 49.3027 256.329 49.4072 256.236 49.4839C256.142 49.5605 256.027 49.6052 255.907 49.6115Z" fill="#263238"/>
<path d="M270.178 56.196C269.793 56.194 269.409 56.1671 269.027 56.1154C267.693 55.9313 266.037 53.2845 263.484 47.2773L263.369 46.9896C263.311 46.8505 263.309 46.6943 263.365 46.5545C263.421 46.4146 263.53 46.3023 263.668 46.2416C263.808 46.1831 263.966 46.1816 264.108 46.2375C264.249 46.2933 264.364 46.4021 264.427 46.5408L264.542 46.8285C267.693 54.2281 268.901 54.9416 269.142 54.9761C270.368 55.1357 271.613 55.0413 272.8 54.6988C273.987 54.3563 275.091 53.773 276.044 52.9853C277.803 51.3972 277.539 45.2634 277.274 43.0423C277.258 42.8901 277.302 42.7375 277.396 42.6171C277.491 42.4967 277.629 42.418 277.78 42.3979C277.933 42.3815 278.085 42.4253 278.205 42.5199C278.326 42.6145 278.404 42.7524 278.425 42.9042C278.517 43.7904 279.333 51.5698 276.814 53.8369C274.961 55.4019 272.603 56.2402 270.178 56.196Z" fill="#263238"/>
<path d="M291.121 42.7309C291.121 42.7309 294.434 33.7201 296.331 33.5245C298.229 33.3289 302.497 36.3785 302.025 41.1198C301.553 45.8611 299.897 48.2433 298.471 49.1754C297.045 50.1076 293.019 49.6472 293.019 49.6472" fill="white"/>
<path d="M295.183 50.3142C294.438 50.3125 293.693 50.2702 292.952 50.1876C292.876 50.179 292.803 50.1555 292.736 50.1184C292.67 50.0813 292.611 50.0313 292.564 49.9713C292.517 49.9113 292.482 49.8426 292.462 49.7691C292.442 49.6956 292.436 49.6188 292.446 49.5431C292.453 49.4682 292.475 49.3956 292.511 49.3295C292.547 49.2635 292.596 49.2056 292.655 49.1592C292.715 49.1129 292.783 49.0792 292.855 49.0601C292.928 49.041 293.004 49.037 293.078 49.0483C294.562 49.2209 297.242 49.2669 298.151 48.657C299.059 48.0471 300.934 46.2749 301.452 41.0157C301.552 40.0113 301.42 38.9974 301.067 38.0518C300.714 37.1062 300.149 36.2541 299.416 35.5609C298.648 34.6884 297.572 34.1479 296.414 34.0534C295.482 34.1684 293.205 38.7371 291.664 42.9375C291.637 43.0089 291.596 43.0742 291.544 43.1297C291.492 43.1852 291.429 43.2297 291.36 43.2608C291.29 43.2918 291.215 43.3087 291.139 43.3105C291.063 43.3123 290.987 43.299 290.916 43.2713C290.775 43.2171 290.661 43.1094 290.598 42.9715C290.536 42.8337 290.53 42.6767 290.582 42.5348C291.388 40.3482 294.183 33.1672 296.264 32.9141C297.014 32.9275 297.752 33.096 298.433 33.4089C299.114 33.7219 299.723 34.1725 300.221 34.7323C301.073 35.5511 301.73 36.5516 302.142 37.6594C302.554 38.7672 302.712 39.9538 302.602 41.1308C302.05 46.6776 299.98 48.8296 298.795 49.6237C297.67 50.1582 296.426 50.3959 295.183 50.3142Z" fill="#263238"/>
<path d="M286.615 73.3432L293.022 68.832L294.046 75.6563L286.615 73.3432Z" fill="#263238"/>
<path d="M294.046 76.2374C293.989 76.2485 293.931 76.2485 293.874 76.2374L286.443 73.9358C286.34 73.9053 286.249 73.8456 286.179 73.7638C286.11 73.6821 286.066 73.5819 286.052 73.4754C286.035 73.3694 286.048 73.2607 286.088 73.1613C286.129 73.0619 286.196 72.9755 286.282 72.9115L292.689 68.4004C292.773 68.353 292.868 68.3281 292.965 68.3281C293.062 68.3281 293.157 68.353 293.241 68.4004C293.331 68.4409 293.41 68.5031 293.47 68.5814C293.53 68.6597 293.57 68.7517 293.586 68.8492L294.61 75.6735C294.626 75.7694 294.616 75.8677 294.581 75.9587C294.547 76.0496 294.489 76.1298 294.414 76.1913C294.3 76.2478 294.17 76.264 294.046 76.2374ZM287.904 73.1877L293.333 74.8794L292.631 69.8504L287.904 73.1877Z" fill="#263238"/>
<path d="M272.606 47.1051C272.778 48.2559 272.295 49.3377 271.536 49.4067C270.777 49.4758 270.006 48.6472 269.834 47.4619C269.661 46.2765 270.144 45.2293 270.915 45.1603C271.686 45.0912 272.433 45.9198 272.606 47.1051Z" fill="#263238"/>
<path d="M321.387 162.2L299.764 163.673C299.764 163.673 282.752 161.153 281.28 161.786C279.808 162.419 274.379 167.873 273.091 169.553C271.712 171.91 270.517 174.368 269.514 176.907C269.514 176.907 274.563 179.646 276.242 179.646C277.922 179.646 283.143 180.06 283.799 180.06C284.455 180.06 292.414 175.457 292.414 175.457C292.414 175.457 286.951 180.716 287.365 181.349C287.961 181.791 288.657 182.08 289.392 182.188C290.126 182.296 290.876 182.222 291.574 181.971C293.035 181.349 299.338 177.563 299.338 177.563C299.338 177.563 307.746 179.669 310.472 179.243C313.198 178.817 319.927 173.363 319.927 173.363L324.332 173.155C324.332 173.155 325.39 165.353 321.387 162.2Z" fill="#23BB4E"/>
<path d="M290.123 182.789C289.535 182.832 288.946 182.751 288.391 182.553C287.837 182.355 287.33 182.043 286.902 181.639C286.695 181.339 286.396 180.879 289.03 178.037C287.386 179.087 285.636 179.958 283.808 180.637C283.566 180.637 282.807 180.637 281.508 180.499C279.725 180.384 277.286 180.223 276.263 180.223C274.48 180.223 269.799 177.703 269.27 177.415C269.144 177.349 269.047 177.238 268.998 177.104C268.949 176.97 268.951 176.822 269.005 176.69C270.024 174.106 271.243 171.605 272.651 169.21C273.801 167.656 279.38 161.983 281.071 161.258C282.566 160.613 295.701 162.489 299.807 163.099L321.385 161.626C321.526 161.62 321.665 161.665 321.776 161.753C325.974 165.067 324.973 172.87 324.927 173.203C324.911 173.337 324.848 173.46 324.748 173.551C324.649 173.641 324.521 173.694 324.387 173.698L320.166 173.905C319.13 174.734 313.264 179.383 310.585 179.786C307.905 180.189 300.877 178.497 299.462 178.152C298.312 178.819 293.182 181.903 291.825 182.479C291.285 182.699 290.705 182.805 290.123 182.789ZM288.029 181.121C288.54 181.394 289.101 181.562 289.678 181.613C290.255 181.665 290.837 181.599 291.388 181.42C292.803 180.822 299.025 177.081 299.094 177.047C299.157 177.007 299.227 176.981 299.3 176.969C299.373 176.957 299.448 176.96 299.52 176.978C299.6 176.978 307.847 179.049 310.423 178.658C312.54 178.324 317.762 174.389 319.625 172.904C319.718 172.824 319.836 172.78 319.959 172.777L323.881 172.593C324.019 170.925 324.237 165.355 321.27 162.8L299.865 164.262H299.738C291.687 163.111 282.543 161.96 281.565 162.34C280.277 162.892 274.917 168.186 273.617 169.923C272.343 172.082 271.239 174.336 270.316 176.667C272.318 177.726 275.262 179.095 276.309 179.095C277.355 179.095 279.759 179.245 281.634 179.372C282.784 179.452 283.635 179.51 283.866 179.51C284.406 179.372 289.076 176.771 292.193 174.906C292.314 174.836 292.457 174.812 292.595 174.839C292.733 174.867 292.856 174.944 292.941 175.056C293.026 175.168 293.067 175.309 293.054 175.449C293.041 175.59 292.976 175.721 292.872 175.816C291.102 177.436 289.482 179.211 288.029 181.121Z" fill="#263238"/>
<path d="M277.679 180.201C277.59 180.2 277.502 180.179 277.422 180.139C277.343 180.099 277.273 180.042 277.219 179.971C277.126 179.85 277.085 179.698 277.104 179.547C277.124 179.396 277.202 179.259 277.322 179.165C281.521 175.863 291.401 168.129 292.47 167.922L296.669 167.082L296.899 168.233L292.7 169.073C291.792 169.395 283.223 175.978 278.024 180.098C277.923 180.168 277.802 180.204 277.679 180.201Z" fill="#263238"/>
<path d="M272.676 178.748C272.53 178.747 272.39 178.689 272.285 178.586C272.231 178.533 272.189 178.469 272.159 178.399C272.13 178.329 272.115 178.254 272.115 178.178C272.115 178.102 272.13 178.027 272.159 177.957C272.189 177.886 272.231 177.823 272.285 177.769C273.436 176.619 283.316 166.342 284.811 165.479C285.85 164.908 286.954 164.468 288.101 164.167C288.174 164.148 288.25 164.143 288.325 164.154C288.4 164.165 288.472 164.19 288.537 164.228C288.602 164.267 288.659 164.318 288.705 164.378C288.75 164.439 288.783 164.508 288.802 164.581C288.837 164.729 288.814 164.885 288.737 165.016C288.66 165.147 288.535 165.243 288.388 165.283C287.341 165.545 286.33 165.932 285.375 166.434C284.351 167.021 277.484 173.983 273.113 178.517C273.065 178.588 273 178.647 272.923 178.687C272.847 178.727 272.762 178.748 272.676 178.748Z" fill="#263238"/>
<path d="M292.423 176.006C292.306 176.005 292.192 175.968 292.096 175.9C292.001 175.833 291.928 175.738 291.888 175.627C291.848 175.517 291.843 175.398 291.872 175.284C291.902 175.171 291.966 175.07 292.055 174.993L297.725 170.39C297.807 170.32 297.907 170.276 298.013 170.264L300.946 169.849C301.098 169.828 301.253 169.868 301.376 169.961C301.499 170.054 301.58 170.192 301.601 170.344C301.623 170.497 301.583 170.652 301.49 170.775C301.397 170.898 301.259 170.979 301.107 171L298.323 171.391L292.779 175.914C292.676 175.987 292.549 176.02 292.423 176.006Z" fill="#263238"/>
<path d="M343.242 84.5302C343.242 84.5302 336.985 112.552 338.469 117.316C339.952 122.081 350.983 146.535 350.983 146.535C350.983 146.535 345.922 149.516 345.922 150.713C345.922 151.91 346.221 154.292 346.221 154.292L318.777 161.795C318.777 161.795 321.158 163.291 322.941 169.851C323.997 173.526 324.386 177.361 324.091 181.174C324.091 181.174 355.975 177.895 368.788 174.615C372.695 173.716 376.284 171.77 379.171 168.987C382.059 166.204 384.135 162.688 385.178 158.814C385.765 156.731 385.765 151.069 385.765 149.873C385.765 148.676 364.06 74.3916 361.381 69.915C358.701 65.4384 346.186 61.8594 346.186 61.8594" fill="white"/>
<path d="M324.137 181.688C323.981 181.688 323.832 181.626 323.722 181.515C323.661 181.454 323.615 181.38 323.587 181.298C323.559 181.216 323.55 181.129 323.561 181.044C323.839 177.303 323.449 173.543 322.411 169.938C320.72 163.759 318.501 162.24 318.489 162.228C318.393 162.169 318.316 162.084 318.268 161.982C318.22 161.88 318.203 161.767 318.219 161.655C318.235 161.544 318.283 161.439 318.357 161.355C318.432 161.271 318.53 161.21 318.639 161.181L345.542 153.862C345.45 153.091 345.3 151.56 345.3 150.708C345.3 149.477 348.199 147.521 350.211 146.301C348.624 142.848 339.262 121.927 337.881 117.531C336.363 112.675 342.379 85.5962 342.632 84.4454C342.665 84.2927 342.758 84.1597 342.89 84.0756C343.021 83.9914 343.181 83.963 343.333 83.9965C343.486 84.0301 343.619 84.1229 343.703 84.2546C343.787 84.3862 343.815 84.5459 343.782 84.6985C341.631 94.3307 337.858 113.538 338.997 117.197C340.458 121.869 351.373 146.094 351.488 146.347C351.545 146.475 351.552 146.619 351.51 146.753C351.468 146.886 351.378 147 351.258 147.072C348.762 148.545 346.577 150.237 346.473 150.766C346.473 151.917 346.761 154.218 346.761 154.218C346.779 154.355 346.748 154.493 346.671 154.608C346.595 154.722 346.48 154.805 346.347 154.84L319.892 162.021C321.648 164.257 322.875 166.861 323.481 169.639C324.473 173.159 324.9 176.814 324.746 180.468C329.462 179.973 357.078 177.016 368.661 174.001C372.473 173.132 375.977 171.239 378.794 168.525C381.611 165.812 383.635 162.382 384.648 158.603C385.149 155.701 385.342 152.754 385.223 149.811C384.798 146.543 363.266 74.1917 360.874 70.2099C358.343 65.9865 346.14 62.4536 346.013 62.419C345.861 62.3763 345.731 62.2747 345.654 62.1366C345.576 61.9984 345.556 61.8351 345.599 61.6825C345.642 61.5299 345.743 61.4005 345.881 61.3228C346.02 61.2451 346.183 61.2255 346.335 61.2682C346.853 61.4178 359.091 64.9623 361.863 69.577C364.83 74.5139 386.374 149.374 386.374 149.765C386.472 152.812 386.268 155.861 385.764 158.868C384.698 162.841 382.57 166.448 379.61 169.303C376.649 172.158 372.967 174.152 368.96 175.071C356.25 178.316 324.505 181.607 324.183 181.642L324.137 181.688Z" fill="#263238"/>
<path d="M371.211 144.428H371.153C369.739 144.287 368.318 144.241 366.898 144.289C366.823 144.292 366.748 144.281 366.678 144.254C366.607 144.228 366.543 144.188 366.488 144.137C366.434 144.085 366.39 144.023 366.359 143.955C366.329 143.886 366.312 143.812 366.311 143.737C366.308 143.662 366.32 143.587 366.346 143.517C366.372 143.447 366.412 143.382 366.464 143.327C366.515 143.273 366.577 143.229 366.646 143.198C366.714 143.168 366.788 143.152 366.863 143.15C368.333 143.092 369.805 143.134 371.268 143.277C371.421 143.284 371.564 143.352 371.667 143.466C371.769 143.579 371.822 143.728 371.815 143.881C371.807 144.033 371.739 144.177 371.626 144.279C371.513 144.382 371.363 144.435 371.211 144.428Z" fill="#263238"/>
<path d="M353.59 146.839C353.471 146.843 353.354 146.808 353.257 146.739C353.159 146.671 353.086 146.573 353.049 146.459C352.997 146.317 353.003 146.16 353.065 146.023C353.127 145.885 353.242 145.777 353.383 145.723C356.536 144.653 359.788 143.901 363.09 143.479C363.241 143.466 363.39 143.511 363.508 143.605C363.626 143.699 363.703 143.836 363.723 143.985C363.734 144.06 363.73 144.135 363.711 144.208C363.692 144.281 363.658 144.349 363.612 144.408C363.566 144.468 363.508 144.517 363.442 144.553C363.376 144.589 363.303 144.611 363.228 144.618C360.016 145.029 356.852 145.762 353.785 146.805L353.59 146.839Z" fill="#263238"/>
<path d="M363.174 157.246C363.095 157.263 363.012 157.263 362.933 157.246C353.179 152.942 348.762 153.978 348.716 153.99C348.564 154.029 348.402 154.007 348.266 153.927C348.13 153.847 348.031 153.716 347.992 153.564C347.952 153.411 347.975 153.249 348.054 153.113C348.134 152.977 348.265 152.879 348.417 152.839C348.613 152.781 353.202 151.688 363.37 156.142C363.508 156.204 363.617 156.32 363.67 156.462C363.724 156.604 363.72 156.762 363.657 156.901C363.617 156.998 363.55 157.082 363.465 157.143C363.38 157.204 363.279 157.24 363.174 157.246Z" fill="#263238"/>
<path d="M280.323 135.189C280.219 135.188 280.116 135.159 280.027 135.104C279.938 135.05 279.865 134.972 279.817 134.879C279.737 134.717 279.035 133.152 279.035 126.478C279.035 119.803 280.07 97.2589 280.082 97.0402C280.082 96.8876 280.142 96.7413 280.25 96.6334C280.358 96.5255 280.504 96.4648 280.657 96.4648C280.809 96.4648 280.956 96.5255 281.064 96.6334C281.171 96.7413 281.232 96.8876 281.232 97.0402C281.232 97.2704 280.185 119.803 280.185 126.432C280.185 132.784 280.818 134.257 280.852 134.315C280.916 134.454 280.923 134.612 280.871 134.756C280.82 134.9 280.714 135.019 280.576 135.086C280.501 135.139 280.414 135.174 280.323 135.189Z" fill="#263238"/>
<path d="M279.977 103.316C279.879 103.314 279.784 103.288 279.699 103.24C279.615 103.192 279.544 103.123 279.493 103.04C279.493 102.971 275.525 96.5837 273.317 94.7769C273.258 94.73 273.209 94.6717 273.173 94.6054C273.136 94.5392 273.114 94.4663 273.106 94.3912C273.099 94.316 273.106 94.2402 273.129 94.1681C273.151 94.0959 273.188 94.029 273.236 93.9713C273.283 93.9122 273.342 93.863 273.408 93.8268C273.474 93.7906 273.547 93.7681 273.622 93.7606C273.697 93.7531 273.773 93.7608 273.845 93.7831C273.917 93.8055 273.984 93.8421 274.042 93.8908C276.399 95.8241 280.31 102.165 280.471 102.441C280.549 102.57 280.573 102.724 280.538 102.87C280.504 103.016 280.414 103.143 280.287 103.224C280.193 103.28 280.086 103.312 279.977 103.316Z" fill="#263238"/>
<path d="M276.871 132.932C276.792 132.948 276.709 132.948 276.63 132.932C269.027 129.33 262.402 120.1 262.126 119.709C262.082 119.648 262.051 119.579 262.034 119.506C262.017 119.433 262.015 119.357 262.028 119.283C262.041 119.209 262.068 119.139 262.109 119.075C262.149 119.012 262.202 118.958 262.264 118.915C262.388 118.828 262.542 118.792 262.692 118.816C262.842 118.839 262.977 118.92 263.069 119.042C263.126 119.134 269.786 128.421 277.124 131.885C277.242 131.942 277.336 132.037 277.392 132.154C277.449 132.272 277.463 132.405 277.434 132.532C277.404 132.659 277.333 132.773 277.23 132.854C277.128 132.935 277.002 132.979 276.871 132.978V132.932Z" fill="#263238"/>
<path d="M273.515 142.229C273.369 142.226 273.23 142.169 273.124 142.068C269.467 138.616 264.36 136.798 260.725 135.877C260.579 135.836 260.454 135.741 260.376 135.61C260.299 135.479 260.276 135.323 260.311 135.175C260.33 135.102 260.363 135.033 260.408 134.972C260.454 134.912 260.511 134.861 260.576 134.822C260.641 134.784 260.713 134.758 260.788 134.748C260.863 134.737 260.939 134.742 261.013 134.761C265.792 135.789 270.232 138.014 273.918 141.228C273.972 141.282 274.014 141.345 274.044 141.415C274.073 141.486 274.088 141.561 274.088 141.637C274.088 141.713 274.073 141.788 274.044 141.858C274.014 141.928 273.972 141.992 273.918 142.045C273.812 142.156 273.668 142.222 273.515 142.229Z" fill="#263238"/>
<path d="M257.149 135.081H257.057C255.824 134.868 254.58 134.718 253.331 134.632C253.256 134.629 253.182 134.611 253.114 134.579C253.046 134.547 252.985 134.502 252.935 134.446C252.884 134.391 252.845 134.325 252.821 134.254C252.796 134.184 252.785 134.108 252.79 134.033C252.793 133.958 252.811 133.883 252.843 133.815C252.874 133.746 252.919 133.684 252.975 133.633C253.03 133.582 253.095 133.542 253.166 133.516C253.237 133.49 253.313 133.478 253.388 133.481C253.446 133.481 254.953 133.561 257.241 133.941C257.394 133.953 257.535 134.026 257.635 134.142C257.734 134.259 257.783 134.41 257.771 134.563C257.758 134.715 257.686 134.857 257.57 134.956C257.453 135.055 257.302 135.104 257.149 135.092V135.081Z" fill="#263238"/>
<path d="M273.514 139.448C273.416 139.45 273.319 139.426 273.234 139.377C273.149 139.328 273.079 139.257 273.031 139.172C270.201 134.569 262.828 130.598 262.748 130.564C262.681 130.528 262.621 130.48 262.573 130.421C262.524 130.363 262.488 130.295 262.465 130.223C262.443 130.15 262.435 130.074 262.442 129.998C262.449 129.922 262.471 129.849 262.506 129.781C262.542 129.714 262.59 129.654 262.649 129.606C262.707 129.557 262.775 129.521 262.847 129.498C262.92 129.476 262.996 129.468 263.072 129.475C263.148 129.482 263.221 129.504 263.289 129.54C263.599 129.712 271.018 133.671 274.008 138.573C274.048 138.638 274.074 138.71 274.086 138.786C274.098 138.861 274.094 138.937 274.076 139.011C274.058 139.085 274.025 139.155 273.98 139.216C273.935 139.277 273.878 139.328 273.813 139.368C273.723 139.422 273.619 139.45 273.514 139.448Z" fill="#263238"/>
<path d="M322.236 153.535C322.148 153.534 322.062 153.512 321.984 153.472C321.906 153.432 321.839 153.375 321.787 153.304C320.9 152.022 320.13 150.663 319.487 149.242C319.453 149.174 319.434 149.1 319.429 149.025C319.424 148.949 319.434 148.873 319.459 148.802C319.483 148.73 319.522 148.664 319.572 148.607C319.622 148.55 319.683 148.504 319.751 148.471C319.89 148.407 320.049 148.401 320.193 148.452C320.337 148.504 320.455 148.61 320.522 148.747C321.125 150.09 321.841 151.38 322.661 152.602C322.754 152.723 322.795 152.876 322.776 153.027C322.756 153.178 322.678 153.315 322.558 153.408C322.465 153.482 322.353 153.526 322.236 153.535Z" fill="#263238"/>
<path d="M318.612 146.492C318.502 146.491 318.394 146.459 318.301 146.4C318.207 146.341 318.132 146.258 318.083 146.159C316.277 142.108 314.633 137.873 314.564 137.827C314.527 137.75 314.508 137.665 314.508 137.579C314.508 137.494 314.527 137.409 314.564 137.332C314.608 137.255 314.67 137.189 314.743 137.139C314.817 137.089 314.901 137.057 314.989 137.044C322.592 136.02 339.661 128.759 339.833 128.678C339.972 128.625 340.126 128.628 340.263 128.687C340.4 128.745 340.509 128.855 340.567 128.991C340.625 129.128 340.627 129.283 340.574 129.421C340.521 129.56 340.417 129.673 340.282 129.737C339.592 130.036 323.892 136.711 315.875 138.08C316.415 139.426 317.727 142.614 319.107 145.687C319.169 145.826 319.174 145.984 319.12 146.126C319.066 146.268 318.958 146.384 318.819 146.446C318.754 146.474 318.684 146.489 318.612 146.492Z" fill="#263238"/>
<path d="M303.133 147.017C303.025 147.018 302.919 146.989 302.827 146.931C302.735 146.874 302.662 146.792 302.615 146.694C302.615 146.694 301.914 145.279 301.016 143.242C300.976 143.172 300.951 143.094 300.943 143.014C300.934 142.933 300.943 142.852 300.968 142.775C300.993 142.698 301.034 142.628 301.089 142.568C301.143 142.508 301.209 142.46 301.283 142.428C301.357 142.395 301.437 142.378 301.518 142.379C301.599 142.379 301.679 142.397 301.752 142.43C301.826 142.464 301.892 142.512 301.945 142.573C301.999 142.633 302.039 142.704 302.063 142.782C302.949 144.772 303.639 146.153 303.65 146.165C303.684 146.233 303.703 146.307 303.708 146.382C303.713 146.458 303.703 146.534 303.678 146.605C303.654 146.677 303.615 146.743 303.565 146.8C303.515 146.857 303.454 146.903 303.386 146.936C303.31 146.984 303.223 147.012 303.133 147.017Z" fill="#263238"/>
<path d="M300.349 140.791C300.235 140.792 300.123 140.758 300.029 140.694C299.934 140.631 299.861 140.54 299.819 140.434C298.633 137.661 297.723 134.778 297.105 131.826C296.047 125.911 299.279 109.213 299.405 108.499C299.436 108.346 299.526 108.212 299.655 108.126C299.785 108.04 299.943 108.008 300.096 108.039C300.248 108.069 300.382 108.159 300.469 108.289C300.555 108.418 300.586 108.577 300.556 108.729C300.556 108.902 297.232 125.922 298.255 131.63C298.862 134.504 299.752 137.31 300.912 140.008C300.94 140.078 300.954 140.153 300.953 140.229C300.952 140.305 300.936 140.379 300.906 140.449C300.876 140.518 300.833 140.581 300.779 140.634C300.724 140.687 300.66 140.728 300.59 140.756C300.512 140.782 300.431 140.794 300.349 140.791Z" fill="#263238"/>
<path d="M260.921 157.421C260.921 157.421 260.254 168.273 260.081 170.275C259.909 172.277 257.781 175.108 257.781 175.108C257.86 175.667 257.827 176.236 257.683 176.781C257.538 177.327 257.286 177.838 256.941 178.285C255.791 179.792 251.938 182.462 250.776 181.461C249.615 180.46 245.106 179.286 244.6 179.286C244.094 179.286 241.425 180.287 241.598 177.111C241.77 173.935 246.107 161.92 247.268 161.253C248.43 160.585 253.272 159.423 254.607 158.249C255.941 157.075 260.254 155.418 260.921 157.421Z" fill="#23BB4E"/>
<path d="M251.43 182.256C251.042 182.269 250.663 182.142 250.36 181.899C249.348 181.024 245.081 179.885 244.552 179.862H244.333C243.898 179.996 243.437 180.029 242.987 179.959C242.537 179.89 242.108 179.719 241.734 179.459C241.435 179.141 241.212 178.76 241.083 178.343C240.953 177.926 240.92 177.486 240.986 177.054C241.147 173.901 245.449 161.587 246.944 160.724C247.801 160.319 248.69 159.984 249.601 159.723C251.213 159.285 252.76 158.635 254.202 157.79C255.26 156.869 258.297 155.488 260.125 155.983C260.432 156.053 260.716 156.201 260.95 156.413C261.184 156.624 261.359 156.892 261.46 157.191C261.477 157.263 261.477 157.338 261.46 157.41C261.46 157.514 260.792 168.285 260.631 170.276C260.242 172.076 259.456 173.766 258.331 175.224C258.44 176.431 258.091 177.635 257.353 178.596C256.33 179.92 253.489 182.049 251.683 182.198L251.43 182.256ZM244.529 178.711C245.161 178.711 249.797 179.931 251.073 181.013C251.217 181.092 251.385 181.117 251.545 181.082C252.971 180.932 255.559 179.034 256.422 177.917C256.715 177.537 256.93 177.102 257.055 176.638C257.179 176.173 257.21 175.689 257.146 175.213C257.131 175.133 257.132 175.051 257.15 174.972C257.168 174.893 257.202 174.818 257.25 174.753C257.25 174.753 259.32 172.025 259.47 170.218C259.619 168.412 260.217 158.71 260.298 157.502C260.247 157.402 260.173 157.315 260.084 157.247C259.994 157.18 259.89 157.133 259.78 157.111C258.504 156.766 255.893 157.824 254.915 158.676C253.372 159.642 251.694 160.372 249.935 160.839C249.097 161.082 248.278 161.385 247.485 161.748C246.461 162.554 242.263 174.028 242.102 177.135C242.06 177.394 242.071 177.66 242.134 177.915C242.197 178.17 242.311 178.41 242.47 178.619C242.872 178.976 243.62 178.838 244.092 178.757C244.247 178.73 244.405 178.714 244.563 178.711H244.529Z" fill="#263238"/>
<path d="M245.736 155.751C245.736 155.751 241.228 158.421 241.055 159.756C240.883 161.09 245.897 169.434 247.404 170.113C248.287 170.329 249.22 170.188 249.999 169.721C250.779 169.253 251.342 168.497 251.568 167.616C251.74 165.947 248.117 155.762 247.565 155.429C247.013 155.095 246.622 155.912 245.736 155.751Z" fill="#23BB4E"/>
<path d="M248.225 170.84C247.862 170.844 247.502 170.774 247.167 170.633C245.533 169.908 240.266 161.312 240.496 159.689C240.726 158.067 244.326 155.915 245.441 155.259C245.5 155.22 245.566 155.194 245.635 155.182C245.705 155.17 245.776 155.172 245.844 155.19C246.084 155.201 246.321 155.136 246.523 155.005C246.719 154.862 246.954 154.779 247.197 154.767C247.44 154.755 247.681 154.814 247.891 154.936C248.765 155.523 252.308 166.099 252.147 167.664C252.05 168.215 251.826 168.737 251.492 169.186C251.159 169.635 250.725 170.001 250.226 170.254C249.623 170.623 248.932 170.826 248.225 170.84ZM245.867 156.34C243.854 157.56 241.715 159.217 241.634 159.793C241.577 160.944 246.235 168.999 247.638 169.552C247.977 169.649 248.333 169.671 248.681 169.616C249.029 169.56 249.36 169.428 249.651 169.229C249.988 169.059 250.283 168.817 250.518 168.521C250.752 168.225 250.919 167.882 251.008 167.515C251.146 166.099 247.995 157.157 247.236 155.892L247.04 155.995C246.686 156.211 246.281 156.33 245.867 156.34Z" fill="#263238"/>
<path d="M242.023 162.586C242.023 162.586 237.019 169.099 237.192 170.941C237.364 172.782 238.687 174.278 239.492 174.278C240.297 174.278 248.165 177.109 249.004 177.109C249.844 177.109 252.006 176.442 251.834 174.946C251.661 173.449 247.337 170.101 247.337 170.101L242.023 162.586Z" fill="#23BB4E"/>
<path d="M249.074 177.69C247.393 177.344 245.743 176.863 244.14 176.251C242.368 175.664 239.953 174.882 239.539 174.859C238.389 174.859 236.836 173.133 236.641 170.992C236.456 169.036 240.735 163.362 241.598 162.246C241.649 162.172 241.718 162.113 241.799 162.073C241.879 162.033 241.968 162.013 242.058 162.016C242.147 162.021 242.235 162.046 242.314 162.087C242.393 162.129 242.463 162.187 242.518 162.258L247.809 169.703C248.706 170.394 252.283 173.271 252.41 174.882C252.444 175.169 252.414 175.461 252.322 175.735C252.231 176.01 252.08 176.26 251.881 176.47C251.123 177.202 250.126 177.635 249.074 177.69ZM242.023 163.569C240.068 166.193 237.676 169.864 237.779 170.889C237.917 172.523 239.09 173.708 239.539 173.708C241.22 174.057 242.871 174.542 244.473 175.158C246.233 175.733 248.66 176.527 249.074 176.539C249.825 176.5 250.54 176.203 251.098 175.699C251.185 175.607 251.251 175.498 251.293 175.379C251.334 175.26 251.35 175.134 251.34 175.008C251.248 174.237 249.04 172.097 247.05 170.566C247.006 170.53 246.967 170.487 246.935 170.44L242.023 163.569Z" fill="#263238"/>
<path d="M237.721 172.445L235.893 176.956C235.893 176.956 237.721 180.8 238.561 180.961C241.867 180.818 245.157 180.433 248.407 179.81C249.407 179.477 250.408 178.809 250.408 177.969C250.408 177.969 247.406 176.634 246.566 176.301C245.727 175.967 239.562 174.298 239.562 174.298L237.721 172.445Z" fill="#23BB4E"/>
<path d="M238.836 181.546C238.706 181.561 238.575 181.561 238.445 181.546C237.525 181.362 236.259 179.095 235.374 177.231C235.342 177.156 235.326 177.076 235.326 176.995C235.326 176.914 235.342 176.834 235.374 176.759L237.214 172.248C237.25 172.16 237.308 172.082 237.381 172.021C237.455 171.961 237.542 171.92 237.636 171.901C237.729 171.883 237.826 171.888 237.917 171.917C238.008 171.945 238.09 171.995 238.157 172.064L239.882 173.79C240.849 174.054 246.013 175.458 246.784 175.769C247.554 176.08 250.51 177.403 250.637 177.449C250.739 177.495 250.825 177.57 250.887 177.664C250.948 177.757 250.981 177.867 250.982 177.979C250.982 179.13 249.74 179.97 248.578 180.361C245.36 180.971 242.106 181.367 238.836 181.546ZM236.535 176.943C237.072 178.207 237.814 179.374 238.732 180.395C241.925 180.221 245.102 179.837 248.244 179.245C248.832 179.088 249.355 178.75 249.74 178.278C248.877 177.898 247.002 177.127 246.381 176.816C245.76 176.506 241.136 175.297 239.48 174.837C239.383 174.813 239.295 174.761 239.227 174.687L237.996 173.468L236.535 176.943Z" fill="#263238"/>
<path d="M238.572 180.957C238.572 180.957 242.241 183.132 243.07 183.132C243.898 183.132 249.971 182.292 250.753 181.463C251.535 180.634 252.582 179.461 252.087 178.954C251.579 178.547 251.018 178.21 250.419 177.953L248.418 179.794L238.572 180.957Z" fill="#23BB4E"/>
<path d="M243.057 183.666C242.171 183.666 239.411 182.089 238.261 181.364C238.158 181.303 238.077 181.212 238.029 181.102C237.981 180.993 237.97 180.871 237.996 180.754C238.021 180.636 238.082 180.528 238.171 180.445C238.259 180.363 238.371 180.31 238.491 180.294L248.152 179.143L250.016 177.428C250.096 177.353 250.197 177.304 250.305 177.285C250.413 177.267 250.525 177.281 250.625 177.325C251.298 177.611 251.923 177.999 252.477 178.475C253.466 179.465 251.775 181.157 251.143 181.79C250.073 182.952 243.575 183.666 243.057 183.666ZM240.366 181.364C241.215 181.879 242.122 182.292 243.069 182.595C244.115 182.595 249.728 181.686 250.326 181.088C251.649 179.776 251.637 179.35 251.626 179.339C251.271 179.07 250.885 178.846 250.476 178.671L248.75 180.248C248.67 180.335 248.559 180.388 248.44 180.397L240.366 181.364Z" fill="#263238"/>
<path d="M242.055 141.06L252.901 170.106L255.075 172.615L255.236 169.277L244.229 140.059L242.055 141.06Z" fill="white"/>
<path d="M255.075 173.189C254.993 173.188 254.911 173.17 254.836 173.136C254.761 173.103 254.693 173.054 254.638 172.993L252.476 170.484L252.361 170.312L241.526 141.265C241.471 141.131 241.471 140.98 241.524 140.845C241.578 140.71 241.681 140.601 241.813 140.54L243.987 139.539C244.06 139.508 244.138 139.492 244.217 139.492C244.296 139.492 244.375 139.508 244.447 139.539C244.521 139.569 244.588 139.615 244.643 139.672C244.699 139.73 244.742 139.798 244.769 139.873L255.823 169.069C255.846 169.144 255.846 169.224 255.823 169.299L255.662 172.636C255.655 172.751 255.614 172.862 255.544 172.954C255.475 173.046 255.379 173.116 255.271 173.154C255.208 173.178 255.142 173.19 255.075 173.189ZM253.407 169.851L254.558 171.198L254.65 169.414L243.895 140.886L242.745 141.404L253.407 169.851Z" fill="#263238"/>
<path d="M254.03 152.877C254.03 152.877 252.35 162.233 253.098 163.165C253.846 164.098 256.652 166.169 257.768 165.467C258.884 164.765 261.322 155.915 261.322 154.799C261.322 153.683 257.584 152.313 254.03 152.877Z" fill="#23BB4E"/>
<path d="M257.171 166.156C255.503 166.156 253.249 164.28 252.651 163.532C251.857 162.543 252.823 156.363 253.467 152.772C253.486 152.655 253.542 152.547 253.627 152.464C253.712 152.381 253.821 152.328 253.939 152.312C256.964 151.829 260.115 152.634 261.3 153.647C261.482 153.78 261.63 153.953 261.734 154.152C261.837 154.352 261.894 154.573 261.898 154.798C261.898 155.857 259.506 164.994 258.091 165.938C257.813 166.1 257.492 166.176 257.171 166.156ZM254.525 153.394C253.801 157.502 253.237 162.174 253.559 162.842C254.364 163.832 256.803 165.362 257.447 164.936C258.309 164.269 260.748 155.983 260.748 154.752C260.633 154.245 257.861 152.991 254.525 153.394Z" fill="#263238"/>
<path d="M297.233 79.3625C297.141 79.364 297.049 79.3427 296.967 79.3005C296.885 79.2584 296.814 79.1967 296.761 79.1208C295.888 78.0002 294.879 76.9914 293.759 76.1172C293.637 76.0257 293.557 75.8893 293.535 75.7383C293.514 75.5872 293.553 75.4337 293.644 75.3117C293.738 75.1921 293.874 75.1133 294.024 75.0918C294.174 75.0704 294.326 75.1079 294.449 75.1966C295.667 76.1376 296.757 77.2323 297.693 78.4533C297.78 78.5778 297.816 78.7314 297.792 78.8817C297.769 79.032 297.688 79.1672 297.566 79.2589C297.468 79.3259 297.352 79.3619 297.233 79.3625Z" fill="#263238"/>
</g>
</svg>
