<svg width="234" height="213" viewBox="0 0 234 213" fill="none" xmlns="http://www.w3.org/2000/svg">
<path d="M163.905 81.0105L163.772 78.2555L163.838 79.633L163.766 78.2555C163.865 78.2555 173.443 77.5668 181.523 67.7038C189.756 57.6412 193.36 28.7756 193.36 28.4863L196.009 28.8376C195.857 30.0498 192.28 58.7983 183.53 69.4739C174.681 80.3287 164.342 80.9899 163.905 81.0105Z" fill="#263238"/>
<path d="M161.871 93.679C161.315 93.679 160.759 93.679 160.209 93.6239L160.394 90.8689C173.867 91.8676 190.571 78.5472 195.42 62.9194C200.268 47.2916 194.943 25.5615 194.89 25.3411L197.453 24.6523C197.685 25.5684 203.05 47.2985 197.937 63.7734C192.863 80.1451 176.324 93.679 161.871 93.679Z" fill="#263238"/>
<path d="M163.767 88.8236L162.893 86.2201C187.764 77.2663 179.299 35.7002 179.213 35.2525L181.796 34.6602C183.241 42.2743 183.676 50.0585 183.088 57.7953C181.723 74.043 175.04 84.7599 163.767 88.8236Z" fill="#263238"/>
<path d="M34.5478 36.627L21.8107 49.7546L19.4395 58.8874C19.3718 59.158 19.3775 59.4427 19.4558 59.7101C19.5341 59.9776 19.682 60.2172 19.8832 60.4027C20.0337 60.5393 20.2098 60.642 20.4004 60.7043C20.591 60.7665 20.792 60.787 20.9906 60.7643C21.1892 60.7417 21.3811 60.6764 21.5542 60.5726C21.7273 60.4689 21.8778 60.3289 21.9962 60.1616L27.1957 52.7782L27.7454 59.2456C27.7898 59.7331 27.9993 60.1884 28.3366 60.5303C28.6738 60.8722 29.1169 61.0783 29.5868 61.1121C30.0727 61.1418 30.5523 60.985 30.9345 60.6714C31.3166 60.3578 31.5748 59.9093 31.6599 59.4109L33.0509 50.9737L54.7695 44.2652L34.5478 36.627Z" fill="#263238"/>
<path d="M29.7107 61.4634H29.565C29.0147 61.4262 28.4953 61.1858 28.1006 60.7854C27.7058 60.385 27.4617 59.8511 27.4123 59.28L26.942 53.7287L22.2658 60.3682C22.1206 60.5751 21.9353 60.7481 21.7221 60.8762C21.5088 61.0043 21.2721 61.0846 21.0272 61.1121C20.7409 61.1444 20.4512 61.1038 20.1834 60.9937C19.9155 60.8837 19.6774 60.7075 19.4896 60.4803C19.3018 60.2532 19.17 59.982 19.1056 59.6901C19.0411 59.3982 19.0459 59.0943 19.1196 58.8048L21.4975 49.5755L34.4598 36.2344L55.8208 44.3065L33.3404 51.2492L32.0157 59.4729C31.9239 60.0364 31.6409 60.5471 31.218 60.9123C30.7951 61.2775 30.2603 61.473 29.7107 61.4634ZM27.4454 51.8208L28.0747 59.1905C28.1125 59.6014 28.2922 59.9842 28.5806 60.2681C28.8689 60.5519 29.2463 60.7175 29.643 60.7343C30.0397 60.7511 30.4288 60.618 30.7384 60.3595C31.0479 60.101 31.257 59.7346 31.3268 59.3282L32.7575 50.6844L32.9562 50.6224L53.7079 44.2101L34.6254 36.9989L22.0936 49.9336L19.7621 58.977C19.7148 59.1586 19.7107 59.3495 19.7504 59.5331C19.79 59.7167 19.8721 59.8875 19.9895 60.0306C20.107 60.1738 20.2562 60.285 20.4244 60.3546C20.5925 60.4243 20.7744 60.4502 20.9543 60.4302C21.1081 60.414 21.2568 60.3638 21.3904 60.283C21.5241 60.2023 21.6396 60.0928 21.7293 59.9619L27.4454 51.8208Z" fill="#263238"/>
<path d="M104.868 11.73L82.6738 19.0645L87.7512 35.678L109.946 28.3436L104.868 11.73Z" fill="#263238"/>
<path d="M87.541 36.1099L82.2422 18.836L105.067 11.2598L110.366 28.5337L87.541 36.1099ZM83.09 19.2837L87.9716 35.2421L109.531 28.1204L104.65 12.1551L83.09 19.2837Z" fill="#263238"/>
<path d="M76.6863 20.1797L48.0195 30.938L60.134 54.2936L82.8926 38.3145L76.6863 20.1797Z" fill="#23BB4E"/>
<path d="M60.0218 54.7879L47.543 30.7505L76.8853 19.7305L83.2903 38.437L60.0218 54.7879ZM48.4968 31.1224L60.2271 53.7892L82.4624 38.1752L76.4548 20.619L48.4968 31.1224Z" fill="#263238"/>
<path d="M81.7332 14.1322L77.8826 15.4046C76.4567 15.8758 75.6681 17.4598 76.1213 18.9425L82.2659 39.0481C82.719 40.5308 84.2423 41.3508 85.6681 40.8796L89.5187 39.6071C90.9446 39.1359 91.7332 37.552 91.2801 36.0693L85.1355 15.9637C84.6823 14.481 83.1591 13.661 81.7332 14.1322Z" fill="#263238"/>
<path d="M84.8503 41.3522C84.2053 41.3479 83.5782 41.1318 83.0583 40.7348C82.5385 40.3377 82.1527 39.78 81.9558 39.1413L75.8092 19.0366C75.5661 18.2356 75.6389 17.3671 76.0115 16.6219C76.3841 15.8766 77.0261 15.3158 77.7962 15.0625L81.6379 13.7952C82.4082 13.5425 83.2435 13.6182 83.9601 14.0057C84.6768 14.3932 85.2162 15.0607 85.4597 15.8615L91.6063 35.9662C91.7276 36.3628 91.7723 36.7803 91.738 37.1949C91.7037 37.6096 91.591 38.013 91.4064 38.3823C91.2218 38.7515 90.9689 39.0792 90.6622 39.3465C90.3555 39.6139 90.0011 39.8157 89.6193 39.9403L85.7776 41.2144C85.4767 41.3076 85.1642 41.354 84.8503 41.3522ZM82.5519 14.3325C82.3092 14.3344 82.0681 14.3738 81.8366 14.4496L77.9883 15.7238C77.6904 15.8216 77.4139 15.9797 77.1749 16.189C76.9359 16.3983 76.7391 16.6546 76.5957 16.9433C76.4522 17.2319 76.3651 17.5472 76.3393 17.871C76.3134 18.1948 76.3493 18.5207 76.445 18.83L82.5851 38.914C82.6804 39.2239 82.8336 39.5112 83.0359 39.7594C83.2383 40.0076 83.4857 40.2118 83.764 40.3604C84.041 40.5117 84.3443 40.6037 84.656 40.6309C84.9678 40.6581 85.2816 40.62 85.5789 40.5188L89.4206 39.2515C90.0215 39.0522 90.522 38.6134 90.8124 38.0312C91.1029 37.449 91.1598 36.7709 90.9705 36.1452L84.8238 16.0406C84.6671 15.5429 84.3629 15.1095 83.9548 14.8027C83.5467 14.4958 83.0556 14.3312 82.5519 14.3325Z" fill="#263238"/>
<path d="M60.1319 54.2921C60.1319 54.2921 57.4825 48.2862 63.2052 44.9251C68.928 41.564 72.1471 45.8618 72.1471 45.8618L69.5771 47.6388L60.1319 54.2921Z" fill="#263238"/>
<path d="M59.9952 54.8018L59.8362 54.4298C59.8362 54.3678 57.1868 48.1002 63.042 44.622C68.8972 41.1438 72.3481 45.6069 72.3812 45.6551L72.5998 45.9444L69.7384 47.928L59.9952 54.8018ZM67.4136 43.9815C65.9835 44.0193 64.588 44.4468 63.3666 45.2212C58.7301 47.9762 59.8362 52.4187 60.2932 53.7617L71.6195 45.7998C71.0695 45.2218 70.4143 44.7633 69.6923 44.4511C68.9702 44.139 68.1956 43.9793 67.4136 43.9815Z" fill="#263238"/>
<path d="M60.1309 54.2959C60.1309 54.2959 60.3892 47.9525 69.5496 47.6426L72.8613 65.9703L63.701 66.8932L60.1309 54.2959Z" fill="#23BB4E"/>
<path d="M63.4391 67.2657L59.8027 54.3379V54.2828C59.8027 54.2139 60.1869 47.6157 69.546 47.2988H69.8308L73.2353 66.2877L63.4391 67.2657ZM60.4717 54.2552L63.9226 66.5219L72.4537 65.6609L69.281 48.0014C61.1738 48.3939 60.5181 53.6285 60.4717 54.2552Z" fill="#263238"/>
<path d="M63.6871 66.8839L58.7922 75.7825C58.5025 76.3094 58.3938 76.9231 58.4841 77.5227C58.5744 78.1223 58.8582 78.6721 59.289 79.0817C59.5488 79.3304 59.8551 79.5206 60.1889 79.6404C60.5226 79.7603 60.8766 79.8071 61.2286 79.778C61.5806 79.7489 61.923 79.6445 62.2343 79.4713C62.5457 79.2982 62.8193 79.06 63.038 78.7717L72.8474 65.9609L63.6871 66.8839Z" fill="#23BB4E"/>
<path d="M61.0256 80.1405C60.5164 80.1418 60.0158 80.0038 59.5742 79.7402C59.1325 79.4766 58.7654 79.0968 58.5096 78.6389C58.2539 78.181 58.1185 77.6611 58.1172 77.1316C58.1159 76.6021 58.2486 76.0816 58.5021 75.6223L63.4764 66.5721L73.5839 65.5527L63.2909 79.0041C63.0411 79.3266 62.7309 79.5931 62.379 79.7873C62.0272 79.9814 61.6411 80.0993 61.2442 80.1336L61.0256 80.1405ZM63.8804 67.2195L59.0783 75.9667C58.7991 76.476 58.715 77.0761 58.8428 77.6472C58.9706 78.2182 59.3009 78.718 59.7677 79.0469C60.2345 79.3757 60.8034 79.5092 61.3608 79.4209C61.9181 79.3325 62.4229 79.0287 62.7743 78.5701L72.0936 66.393L63.8804 67.2195Z" fill="#263238"/>
<path d="M72.5001 64.5948L63.7247 65.78C63.0246 65.8745 62.5307 66.5414 62.6217 67.2694L62.6515 67.5084C62.7425 68.2365 63.3838 68.75 64.0839 68.6555L72.8593 67.4703C73.5594 67.3758 74.0532 66.7089 73.9623 65.9809L73.9325 65.7418C73.8415 65.0138 73.2002 64.5003 72.5001 64.5948Z" fill="#263238"/>
<path d="M63.9141 69.0101C63.5232 69.0086 63.1461 68.8599 62.8526 68.5914C62.5591 68.3229 62.3691 67.9529 62.3178 67.55V67.3089C62.2634 66.8687 62.3794 66.424 62.6402 66.0727C62.9011 65.7213 63.2854 65.4921 63.7088 65.4355L72.485 64.2508C72.6948 64.2219 72.9079 64.2364 73.1123 64.2935C73.3166 64.3507 73.5081 64.4493 73.6755 64.5838C73.843 64.7183 73.9833 64.8859 74.0881 65.077C74.193 65.2681 74.2605 65.4789 74.2866 65.6972V65.9314C74.3393 66.3721 74.2229 66.8166 73.9625 67.1686C73.7021 67.5206 73.3188 67.7516 72.8957 67.8117L64.1194 68.9963L63.9141 69.0101ZM72.6572 64.9258H72.538L63.7618 66.1105C63.513 66.1448 63.2872 66.2798 63.1335 66.4861C62.9797 66.6924 62.9104 66.9534 62.9405 67.2125L62.9736 67.4535C62.9891 67.5818 63.0289 67.7055 63.0906 67.8177C63.1524 67.9299 63.235 68.0282 63.3335 68.1069C63.4321 68.1857 63.5447 68.2434 63.6648 68.2767C63.7849 68.3099 63.9102 68.3181 64.0333 68.3007L72.8096 67.1505C72.9329 67.1348 73.052 67.0938 73.16 67.03C73.268 66.9661 73.3627 66.8807 73.4388 66.7786C73.5162 66.6764 73.5731 66.5592 73.606 66.4338C73.639 66.3084 73.6475 66.1773 73.6309 66.0485L73.5978 65.8143C73.5748 65.5713 73.4658 65.3459 73.292 65.1817C73.1182 65.0175 72.892 64.9263 72.6572 64.9258Z" fill="#263238"/>
<path d="M48.0179 30.9342L27.5312 30.7207L28.028 39.2681L55.4363 45.4875L48.0179 30.9342Z" fill="#23BB4E"/>
<path d="M56.0689 45.9851L27.7201 39.5521L27.1836 30.3711L48.22 30.5915L56.0689 45.9851ZM28.3493 38.9874L54.8105 44.9933L47.8226 31.2802L27.8857 31.0667L28.3493 38.9874Z" fill="#263238"/>
<path d="M27.5317 30.7207L12.834 31.2373L13.5824 39.2681H28.0284L27.5317 30.7207Z" fill="#23BB4E"/>
<path d="M28.3805 39.6053H13.2788L12.4707 30.9133L27.844 30.3691L28.3805 39.6053ZM13.8616 38.9166H27.6585L27.2015 31.0648L13.1993 31.5745L13.8616 38.9166Z" fill="#263238"/>
<path d="M12.8372 31.2402L1.15987 40.8139C0.791962 41.1184 0.528661 41.5385 0.409283 42.0115C0.289905 42.4844 0.320854 42.9849 0.49751 43.438C0.609821 43.7315 0.779889 43.9973 0.996799 44.2184C1.21371 44.4395 1.47267 44.611 1.75706 44.7218C2.04146 44.8327 2.34501 44.8806 2.64824 44.8623C2.95147 44.8441 3.24767 44.7601 3.51785 44.6158L13.5989 39.2711L12.8372 31.2402Z" fill="#23BB4E"/>
<path d="M2.50861 45.2111C2.20784 45.211 1.9095 45.1551 1.62768 45.0458C1.29999 44.9197 1.00148 44.7233 0.751573 44.4693C0.501662 44.2154 0.305939 43.9096 0.177118 43.5719C-0.0219922 43.048 -0.0541614 42.4716 0.085341 41.9273C0.224843 41.383 0.528653 40.8996 0.952076 40.5483L13.1063 30.582L13.9343 39.4738L3.65448 44.9287C3.3 45.1175 2.90688 45.2144 2.50861 45.2111ZM12.5367 31.9044L1.36273 41.0855C1.04983 41.3445 0.825467 41.7013 0.72287 42.1033C0.620273 42.5052 0.6449 42.9308 0.793107 43.3171C0.883636 43.5708 1.02578 43.8012 1.20982 43.9926C1.39387 44.184 1.61547 44.3318 1.8595 44.4259C2.09999 44.5209 2.35704 44.562 2.61384 44.5466C2.87065 44.5311 3.12143 44.4595 3.3498 44.3364L13.2322 39.095L12.5367 31.9044Z" fill="#263238"/>
<path d="M12.6545 39.068L11.6941 31.7604C11.6526 31.439 11.7352 31.1136 11.9239 30.8554C12.1126 30.5973 12.392 30.4273 12.7009 30.3829C12.854 30.3606 13.0099 30.37 13.1596 30.4106C13.3092 30.4513 13.4496 30.5223 13.5728 30.6196C13.6959 30.7169 13.7993 30.8386 13.877 30.9776C13.9547 31.1167 14.0052 31.2703 14.0256 31.4298L14.986 38.7374C15.0275 39.0588 14.9448 39.3842 14.7561 39.6424C14.5675 39.9005 14.2881 40.0704 13.9792 40.1149C13.826 40.1372 13.6701 40.1278 13.5205 40.0872C13.3709 40.0465 13.2304 39.9755 13.1073 39.8782C12.9842 39.7809 12.8808 39.6592 12.803 39.5202C12.7253 39.3811 12.6748 39.2274 12.6545 39.068Z" fill="#263238"/>
<path d="M13.8159 40.4776C13.4494 40.474 13.0965 40.3325 12.8225 40.0793C12.5485 39.8261 12.372 39.4782 12.3256 39.1001L11.3652 31.7925C11.3252 31.4848 11.3738 31.1716 11.5049 30.8927C11.636 30.6137 11.8437 30.3814 12.1017 30.2251C12.3597 30.0688 12.6565 29.9956 12.9546 30.0147C13.2526 30.0338 13.5385 30.1443 13.7762 30.3323C13.9344 30.4557 14.0674 30.6106 14.1675 30.788C14.2675 30.9653 14.3327 31.1616 14.359 31.3654L15.3194 38.6731C15.3454 38.88 15.3316 39.0901 15.2789 39.2914C15.2262 39.4927 15.1356 39.6811 15.0124 39.8457C14.8892 40.0103 14.7358 40.1479 14.5611 40.2505C14.3865 40.353 14.1939 40.4185 13.9947 40.4432L13.8159 40.4776ZM12.8621 30.718H12.7495C12.5275 30.7505 12.3269 30.8731 12.1916 31.0589C12.0563 31.2448 11.9973 31.4788 12.0275 31.7098L12.9813 39.0175C12.9966 39.133 13.0337 39.2442 13.0905 39.3447C13.1474 39.4452 13.2228 39.533 13.3125 39.6029C13.4911 39.7413 13.714 39.8029 13.9351 39.7751C14.1576 39.7426 14.3587 39.6202 14.4951 39.4346C14.6314 39.249 14.692 39.015 14.6637 38.7833L13.7033 31.4756C13.6881 31.3601 13.651 31.2489 13.5941 31.1484C13.5373 31.0479 13.4618 30.9602 13.3721 30.8902C13.225 30.776 13.0457 30.7155 12.8621 30.718Z" fill="#263238"/>
<path d="M27.1093 38.2989L27.043 30.9293C27.0413 30.7683 27.0701 30.6085 27.1277 30.4591C27.1853 30.3096 27.2707 30.1735 27.379 30.0583C27.4872 29.9432 27.6162 29.8514 27.7586 29.7881C27.901 29.7248 28.054 29.6913 28.2088 29.6895C28.3636 29.6877 28.5173 29.7176 28.661 29.7776C28.8047 29.8375 28.9357 29.9263 29.0464 30.0388C29.1571 30.1514 29.2454 30.2856 29.3062 30.4336C29.3671 30.5817 29.3993 30.7407 29.401 30.9017L29.4673 38.2783C29.469 38.6022 29.3474 38.9138 29.129 39.1448C28.9105 39.3758 28.6131 39.5075 28.3015 39.5111C28.1465 39.5139 27.9924 39.4846 27.8483 39.425C27.7042 39.3654 27.5729 39.2766 27.462 39.1639C27.3511 39.0511 27.2628 38.9166 27.2023 38.7682C27.1417 38.6197 27.1101 38.4602 27.1093 38.2989Z" fill="#263238"/>
<path d="M28.2815 39.858C27.885 39.8563 27.5048 39.6931 27.2225 39.4034C26.9402 39.1137 26.7783 38.7206 26.7714 38.3083L26.7051 30.9318C26.7016 30.5165 26.8564 30.1166 27.1357 29.8197C27.415 29.5228 27.7961 29.3531 28.1954 29.3477C28.5949 29.3495 28.9786 29.5096 29.2685 29.7953C29.4112 29.9397 29.525 30.112 29.6035 30.3023C29.6819 30.4926 29.7234 30.6972 29.7255 30.9042L29.7917 38.2739C29.7953 38.6892 29.6404 39.089 29.3611 39.3859C29.0818 39.6828 28.7008 39.8526 28.3014 39.858H28.2815ZM27.4337 38.3014C27.4337 38.5352 27.5231 38.7595 27.6821 38.9248C27.841 39.0901 28.0567 39.183 28.2815 39.183C28.5064 39.183 28.722 39.0901 28.881 38.9248C29.04 38.7595 29.1294 38.5352 29.1294 38.3014L29.0631 30.9318C29.0614 30.8159 29.0377 30.7015 28.9933 30.5951C28.949 30.4887 28.8849 30.3925 28.8048 30.3119C28.6486 30.1491 28.4365 30.0574 28.2153 30.0571C27.9916 30.0607 27.7784 30.1561 27.622 30.3226C27.4657 30.489 27.379 30.7129 27.3807 30.9456L27.4337 38.3014Z" fill="#263238"/>
<path d="M55.4379 45.4963L53.6231 29.0352L48.0195 30.943L55.4379 45.4963Z" fill="#263238"/>
<path d="M55.9681 47.2582L47.543 30.7282L53.9082 28.5586L55.9681 47.2582ZM48.4968 31.1345L54.9282 43.7318L53.3651 29.5022L48.4968 31.1345Z" fill="#263238"/>
<path d="M48.0197 30.9375L24.1152 36.2753L27.2416 45.3737L55.438 45.4908L48.0197 30.9375Z" fill="#23BB4E"/>
<path d="M55.9898 45.8384L27.0051 45.7213L23.6934 36.0237L48.2005 30.5137L55.9898 45.8384ZM27.5085 45.0326L54.9235 45.1496L47.8495 31.3402L24.5544 36.5402L27.5085 45.0326Z" fill="#263238"/>
<path d="M24.1168 36.2773L13.9629 48.4614L17.99 52.7798L27.2431 45.3758L24.1168 36.2773Z" fill="#23BB4E"/>
<path d="M17.9561 53.2316L13.5117 48.4724L24.2353 35.5996L27.6331 45.4901L17.9561 53.2316ZM14.4125 48.4448L18.0224 52.3156L26.8449 45.249L23.9968 36.9427L14.4125 48.4448Z" fill="#263238"/>
<path d="M13.9632 48.4629L8.82996 58.7046C8.64692 59.0624 8.59438 59.4769 8.68202 59.8718C8.76965 60.2667 8.99156 60.6153 9.30686 60.8535C9.63696 61.1067 10.0467 61.221 10.4543 61.1738C10.862 61.1265 11.2375 60.9212 11.5059 60.5987L17.9903 52.7814L13.9632 48.4629Z" fill="#23BB4E"/>
<path d="M10.2644 61.529C9.93318 61.5155 9.61045 61.416 9.32564 61.2396C9.04083 61.0631 8.80299 60.8154 8.63379 60.519C8.46459 60.2226 8.36939 59.8868 8.35688 59.5423C8.34438 59.1979 8.41495 58.8556 8.56218 58.5467L13.861 47.8711L18.4247 52.7612L11.7547 60.8196C11.5691 61.0413 11.3402 61.2192 11.0832 61.3416C10.8262 61.4639 10.5471 61.5278 10.2644 61.529ZM14.0399 49.042L9.11855 58.8911C8.97998 59.1787 8.94253 59.5075 9.0127 59.8208C9.08287 60.134 9.25622 60.4118 9.50272 60.6061C9.76851 60.8022 10.0945 60.8895 10.4183 60.8514C10.7421 60.8133 11.0411 60.6524 11.258 60.3995L17.5371 52.8232L14.0399 49.042Z" fill="#263238"/>
<path d="M17.8352 54.3298L12.3311 49.6739C12.09 49.468 11.9373 49.1712 11.9062 48.8485C11.8752 48.5258 11.9684 48.2034 12.1655 47.952C12.3625 47.7003 12.6474 47.5401 12.9578 47.5066C13.2682 47.473 13.5788 47.5688 13.8214 47.7729L19.3189 52.4289C19.5609 52.6337 19.7149 52.93 19.7472 53.2528C19.7795 53.5755 19.6874 53.8985 19.4911 54.1507C19.3941 54.2761 19.2741 54.3803 19.1382 54.4572C19.0022 54.5341 18.853 54.5823 18.6991 54.599C18.5451 54.6156 18.3895 54.6004 18.2413 54.5542C18.093 54.508 17.955 54.4317 17.8352 54.3298Z" fill="#263238"/>
<path d="M18.577 54.9537C18.2318 54.9531 17.8974 54.8291 17.6298 54.6024L12.1323 49.9327C11.9782 49.8025 11.8503 49.6421 11.7559 49.4605C11.6615 49.2789 11.6024 49.0797 11.5821 48.8744C11.5618 48.669 11.5807 48.4615 11.6376 48.2638C11.6944 48.066 11.7883 47.8818 11.9137 47.7218C12.1684 47.4008 12.5348 47.1975 12.9331 47.1562C13.3314 47.1149 13.7292 47.239 14.0398 47.5014L19.5374 52.1574C19.7611 52.3554 19.9243 52.6171 20.0072 52.9102C20.09 53.2033 20.0888 53.5152 20.0037 53.8076C19.9187 54.1 19.7534 54.3603 19.5282 54.5565C19.303 54.7528 19.0277 54.8764 18.7359 54.9124L18.577 54.9537ZM18.0471 54.0652C18.2217 54.2113 18.4446 54.2801 18.6676 54.2569C18.8906 54.2337 19.096 54.1204 19.2393 53.9412C19.3815 53.7603 19.4488 53.5281 19.4264 53.2957C19.4041 53.0632 19.2939 52.8495 19.1201 52.7015L13.6159 48.0455C13.5314 47.9712 13.4331 47.9158 13.3272 47.8826C13.2212 47.8494 13.1098 47.8392 12.9999 47.8527C12.7746 47.8781 12.5677 47.9943 12.4237 48.1764C12.3539 48.2658 12.3017 48.3687 12.2702 48.4792C12.2388 48.5896 12.2286 48.7054 12.2403 48.82C12.252 48.9345 12.2853 49.0456 12.3384 49.1467C12.3915 49.2478 12.4632 49.337 12.5495 49.4092L18.0471 54.0652Z" fill="#263238"/>
<path d="M26.1262 45.5462L23.3509 36.5511C23.2998 36.3992 23.2781 36.2382 23.2871 36.0776C23.2961 35.9169 23.3357 35.7597 23.4034 35.615C23.4711 35.4703 23.5657 35.3409 23.6818 35.2344C23.7978 35.1279 23.933 35.0464 24.0795 34.9945C24.3756 34.8889 24.6998 34.9092 24.9814 35.0511C25.2631 35.1931 25.4794 35.4451 25.5831 35.7521L28.3583 44.7403C28.4095 44.8923 28.4311 45.0532 28.4221 45.2139C28.4131 45.3745 28.3736 45.5318 28.3059 45.6765C28.2381 45.8212 28.1435 45.9505 28.0275 46.057C27.9114 46.1635 27.7763 46.245 27.6298 46.2969C27.4836 46.3503 27.3288 46.3733 27.1741 46.3645C27.0195 46.3557 26.868 46.3152 26.7284 46.2455C26.5887 46.1758 26.4637 46.0781 26.3604 45.9582C26.2571 45.8382 26.1775 45.6982 26.1262 45.5462Z" fill="#263238"/>
<path d="M27.2436 46.7093C27.0139 46.712 26.7868 46.6577 26.5813 46.5509C26.4018 46.4632 26.2411 46.3387 26.1091 46.1848C25.9771 46.031 25.8763 45.8509 25.8129 45.6555L23.0377 36.6604C22.909 36.2686 22.9351 35.8397 23.1102 35.4678C23.2853 35.0959 23.5951 34.8115 23.9716 34.6768C24.3493 34.5404 24.7636 34.5653 25.1237 34.746C25.4838 34.9268 25.7602 35.2486 25.8924 35.6411L28.6677 44.643C28.7965 45.0296 28.7752 45.4533 28.6082 45.8238C28.4412 46.1942 28.1417 46.4823 27.7735 46.6266C27.6027 46.6852 27.4235 46.7131 27.2436 46.7093ZM26.4488 45.4351C26.4841 45.544 26.5406 45.6442 26.6146 45.7295C26.6887 45.8147 26.7788 45.8834 26.8793 45.931C26.9812 45.9846 27.0925 46.016 27.2064 46.0231C27.3203 46.0302 27.4344 46.0129 27.5417 45.9723C27.6467 45.9351 27.7437 45.8767 27.8269 45.8004C27.9101 45.7241 27.978 45.6314 28.0267 45.5277C28.0753 45.424 28.1037 45.3113 28.1103 45.1961C28.1169 45.0809 28.1015 44.9655 28.065 44.8566L25.2897 35.8546C25.2149 35.6365 25.0601 35.4582 24.8591 35.3587C24.7573 35.305 24.646 35.2737 24.5321 35.2666C24.4182 35.2595 24.304 35.2768 24.1968 35.3173C24.0915 35.3553 23.9944 35.4144 23.9111 35.4914C23.8278 35.5683 23.76 35.6616 23.7114 35.7659C23.6628 35.8702 23.6344 35.9834 23.6279 36.099C23.6214 36.2147 23.6369 36.3306 23.6735 36.44L26.4488 45.4351Z" fill="#263238"/>
<path d="M169.745 13.0712C165.967 12.2781 162.041 13.0736 158.826 15.2835C155.611 17.4934 153.369 20.9377 152.59 24.8626L116.936 109.627L157.916 116.177L181.098 30.9168C181.862 26.9854 181.096 22.8994 178.968 19.5542C176.84 16.2091 173.524 13.8777 169.745 13.0712Z" fill="#23BB4E"/>
<path d="M158.158 116.567L116.43 109.9L152.296 24.7634C153.087 20.7447 155.38 17.2172 158.672 14.9568C161.964 12.6964 165.984 11.8883 169.849 12.7103C173.713 13.5323 177.106 15.9171 179.28 19.34C181.453 22.7629 182.23 26.9435 181.44 30.9622L158.158 116.567ZM117.417 109.356L157.675 115.789L180.778 30.8245C181.518 26.99 180.767 23.0068 178.689 19.7471C176.61 16.4874 173.375 14.2171 169.69 13.4335C167.861 13.0441 165.976 13.0334 164.143 13.4019C162.31 13.7703 160.565 14.5108 159.008 15.5809C157.45 16.651 156.111 18.0298 155.066 19.6385C154.021 21.2472 153.292 23.0542 152.919 24.9563V25.0252L117.417 109.356Z" fill="#263238"/>
<path d="M149.241 85.2839C148.663 85.2854 148.094 85.1425 147.581 84.8672C147.067 84.5919 146.625 84.1923 146.291 83.7021C145.958 83.2119 145.742 82.6455 145.663 82.0505C145.584 81.4556 145.643 80.8495 145.837 80.2835L158.839 41.9063C159.16 40.9683 159.827 40.2015 160.692 39.7746C161.12 39.5632 161.585 39.4417 162.058 39.4169C162.532 39.3921 163.005 39.4645 163.452 39.63C163.899 39.7955 164.309 40.0509 164.661 40.3815C165.013 40.7122 165.299 41.1117 165.502 41.5571C165.705 42.0026 165.822 42.4853 165.846 42.9777C165.87 43.4702 165.8 43.9627 165.641 44.4271L152.646 82.8044C152.392 83.5316 151.929 84.1598 151.32 84.6035C150.711 85.0472 149.985 85.2848 149.241 85.2839Z" fill="#263238"/>
<path d="M215.108 204.776L221.732 155.537C224.097 144.131 216.632 133.001 205.067 130.666C193.502 128.338 182.209 135.701 179.851 147.1L145.727 204.776H215.108Z" fill="#23BB4E"/>
<path d="M215.397 205.116H145.135L179.538 146.965C181.962 135.435 193.447 127.976 205.131 130.325C207.975 130.87 210.684 132.004 213.098 133.661C215.511 135.318 217.58 137.462 219.18 139.967C220.644 142.244 221.653 144.804 222.147 147.495C222.64 150.185 222.609 152.952 222.054 155.63L215.397 205.116ZM146.32 204.428H214.828L221.405 155.485C221.942 152.895 221.973 150.219 221.496 147.616C221.02 145.013 220.045 142.536 218.63 140.332C217.075 137.91 215.068 135.837 212.727 134.237C210.387 132.638 207.76 131.544 205.005 131.02C193.632 128.727 182.485 135.979 180.173 147.185L180.134 147.296L146.32 204.428Z" fill="#263238"/>
<path d="M122.285 107.602C121.087 109.771 120.312 112.164 120.004 114.645C119.696 117.126 119.861 119.646 120.49 122.06C121.119 124.475 122.198 126.737 123.668 128.717C125.137 130.697 126.968 132.357 129.054 133.602L186.633 176.594L210.385 128.223L147.289 100.556C145.202 99.3107 142.9 98.5053 140.514 98.1855C138.128 97.8658 135.705 98.0379 133.383 98.6923C131.061 99.3466 128.886 100.47 126.982 101.999C125.077 103.528 123.481 105.432 122.285 107.602Z" fill="#23BB4E"/>
<path d="M186.738 177.109L186.427 176.875L128.848 133.883C124.569 131.317 121.442 127.091 120.155 122.132C118.867 117.173 119.523 111.885 121.98 107.428C123.199 105.219 124.824 103.281 126.763 101.725C128.703 100.169 130.918 99.0257 133.282 98.3599C135.646 97.6941 138.114 97.5191 140.543 97.8448C142.972 98.1705 145.316 98.9906 147.441 100.258L210.821 128.049L210.662 128.38L186.738 177.109ZM138.194 98.3642C135.023 98.3706 131.91 99.2446 129.168 100.899C126.425 102.552 124.149 104.928 122.569 107.786C120.191 112.085 119.554 117.191 120.796 121.979C122.038 126.767 125.058 130.846 129.193 133.318L186.486 176.097L209.921 128.394L147.156 100.844C144.428 99.2176 141.338 98.3628 138.194 98.3642Z" fill="#263238"/>
<path d="M165.112 141.071C164.406 141.074 163.715 140.861 163.125 140.458L146.434 129.142C145.631 128.599 145.068 127.747 144.87 126.773C144.671 125.799 144.852 124.783 145.374 123.949C145.896 123.114 146.715 122.529 147.652 122.322C148.588 122.115 149.565 122.304 150.368 122.847L167.086 134.149C167.734 134.593 168.227 135.243 168.492 136.002C168.757 136.761 168.78 137.588 168.557 138.361C168.334 139.135 167.877 139.812 167.254 140.294C166.631 140.776 165.875 141.036 165.099 141.036L165.112 141.071Z" fill="#263238"/>
<path d="M212.818 173.918C224.518 165.017 227.063 147.938 218.503 135.772C209.943 123.606 193.52 120.959 181.82 129.86C170.12 138.761 167.574 155.839 176.134 168.006C184.694 180.172 201.118 182.819 212.818 173.918Z" fill="white"/>
<path d="M197.268 179.539C191.424 179.528 185.747 177.514 181.114 173.809C176.482 170.104 173.153 164.914 171.644 159.043C170.134 153.173 170.528 146.948 172.764 141.333C175 135.719 178.954 131.027 184.013 127.985C189.072 124.943 194.955 123.72 200.75 124.505C206.545 125.291 211.93 128.04 216.07 132.329C220.211 136.618 222.876 142.207 223.653 148.23C224.431 154.253 223.277 160.374 220.371 165.647C218.058 169.891 214.697 173.415 210.635 175.857C206.574 178.3 201.96 179.57 197.268 179.539ZM197.335 124.942C191.037 124.925 184.949 127.292 180.206 131.6C175.463 135.909 172.39 141.864 171.559 148.355C170.729 154.847 172.197 161.43 175.692 166.878C179.186 172.326 184.467 176.266 190.549 177.963C196.632 179.66 203.1 178.998 208.748 176.1C214.395 173.202 218.836 168.267 221.242 162.215C223.647 156.163 223.853 149.408 221.821 143.21C219.789 137.011 215.657 131.794 210.198 128.53C206.285 126.185 201.85 124.948 197.335 124.942Z" fill="#263238"/>
<path d="M206.839 167.915C215.296 162.521 217.947 151.02 212.761 142.226C207.574 133.432 196.514 130.675 188.057 136.069C179.6 141.462 176.949 152.963 182.135 161.757C187.322 170.551 198.382 173.308 206.839 167.915Z" fill="white"/>
<path d="M197.415 171.01C192.767 171.028 188.286 169.207 184.88 165.918C181.474 162.629 179.398 158.116 179.072 153.295C178.747 148.473 180.195 143.703 183.125 139.951C186.055 136.199 190.247 133.745 194.852 133.086C199.456 132.427 204.13 133.613 207.925 136.404C211.72 139.194 214.354 143.38 215.292 148.114C216.23 152.848 215.403 157.776 212.977 161.899C210.552 166.023 206.71 169.033 202.23 170.321C200.661 170.771 199.042 171.002 197.415 171.01ZM197.475 133.652C193.201 133.651 189.072 135.266 185.859 138.196C182.646 141.127 180.568 145.173 180.013 149.579C179.457 153.985 180.462 158.452 182.84 162.144C185.218 165.837 188.806 168.504 192.936 169.649C197.066 170.793 201.455 170.336 205.284 168.363C209.114 166.391 212.123 163.037 213.749 158.927C215.376 154.817 215.509 150.233 214.125 146.028C212.74 141.824 209.932 138.287 206.224 136.076C203.56 134.491 200.544 133.655 197.475 133.652Z" fill="#263238"/>
<path d="M182.06 142.418L181.73 143.016L197.287 152.299L197.617 151.702L182.06 142.418Z" fill="#263238"/>
<path d="M179.972 147.828L179.836 148.502L197.39 152.332L197.526 151.658L179.972 147.828Z" fill="#263238"/>
<path d="M197.424 151.622L179.592 153.627L179.663 154.312L197.496 152.307L197.424 151.622Z" fill="#263238"/>
<path d="M197.313 151.672L180.941 159.291L181.212 159.92L197.584 152.301L197.313 151.672Z" fill="#263238"/>
<path d="M197.22 151.739L183.922 164.256L184.366 164.766L197.664 152.25L197.22 151.739Z" fill="#263238"/>
<path d="M197.16 151.809L188.227 167.982L188.801 168.325L197.734 152.152L197.16 151.809Z" fill="#263238"/>
<path d="M197.131 151.921L193.451 170.176L194.099 170.317L197.78 152.063L197.131 151.921Z" fill="#263238"/>
<path d="M197.4 150.237L196.744 150.312L198.717 168.777L199.373 168.702L197.4 150.237Z" fill="#263238"/>
<path d="M197.749 151.851L197.145 152.133L204.483 169.152L205.087 168.87L197.749 151.851Z" fill="#263238"/>
<path d="M197.69 151.762L197.199 152.225L209.236 166.053L209.727 165.59L197.69 151.762Z" fill="#263238"/>
<path d="M197.613 151.69L197.283 152.287L212.84 161.57L213.17 160.973L197.613 151.69Z" fill="#263238"/>
<path d="M197.521 151.648L197.385 152.322L214.939 156.152L215.075 155.478L197.521 151.648Z" fill="#263238"/>
<path d="M215.249 149.622L197.416 151.627L197.487 152.312L215.32 150.307L215.249 149.622Z" fill="#263238"/>
<path d="M213.68 144.041L197.309 151.66L197.579 152.289L213.951 144.67L213.68 144.041Z" fill="#263238"/>
<path d="M210.519 139.222L197.221 151.738L197.665 152.249L210.963 139.732L210.519 139.222Z" fill="#263238"/>
<path d="M206.093 135.635L197.16 151.809L197.735 152.152L206.668 135.978L206.093 135.635Z" fill="#263238"/>
<path d="M200.817 133.671L197.137 151.926L197.785 152.067L201.465 133.813L200.817 133.671Z" fill="#263238"/>
<path d="M195.848 133.414L195.189 133.488L197.111 152.032L197.77 151.959L195.848 133.414Z" fill="#263238"/>
<path d="M197.14 152.121L189.801 135.109L190.404 134.826L197.742 151.838L197.14 152.121Z" fill="#263238"/>
<path d="M185.651 137.94L185.16 138.402L197.197 152.23L197.688 151.768L185.651 137.94Z" fill="#263238"/>
<path d="M206.837 154.636C208.28 149.174 205.193 143.53 199.941 142.029C194.689 140.527 189.261 143.738 187.817 149.199C186.373 154.661 189.461 160.305 194.713 161.806C199.965 163.307 205.393 160.097 206.837 154.636Z" fill="#263238"/>
<path d="M197.335 162.501C194.74 162.509 192.24 161.491 190.341 159.653C188.442 157.814 187.286 155.294 187.108 152.602C186.93 149.91 187.744 147.249 189.383 145.158C191.023 143.067 193.366 141.703 195.937 141.342C198.508 140.981 201.115 141.65 203.229 143.214C205.343 144.779 206.806 147.12 207.321 149.765C207.836 152.409 207.364 155.158 206.002 157.454C204.64 159.75 202.488 161.421 199.984 162.129C199.121 162.372 198.23 162.497 197.335 162.501ZM197.335 141.99C195.019 141.985 192.781 142.857 191.038 144.443C189.295 146.028 188.166 148.219 187.862 150.606C187.558 152.994 188.1 155.414 189.386 157.417C190.672 159.419 192.615 160.867 194.853 161.489C197.09 162.111 199.468 161.866 201.544 160.799C203.62 159.732 205.252 157.915 206.135 155.689C207.018 153.463 207.092 150.979 206.343 148.7C205.594 146.421 204.073 144.504 202.064 143.305C200.626 142.444 198.995 141.991 197.335 141.99Z" fill="#263238"/>
<path d="M156.589 119.74C158.166 108.145 150.404 97.4163 139.254 95.7766C128.103 94.1369 117.786 102.207 116.209 113.802C114.632 125.397 122.393 136.126 133.544 137.766C144.694 139.406 155.012 131.335 156.589 119.74Z" fill="white"/>
<path d="M135.953 137.644C130.685 137.644 125.613 135.562 121.766 131.819C117.918 128.076 115.583 122.952 115.233 117.485C114.883 112.019 116.545 106.618 119.881 102.378C123.218 98.1381 127.979 95.3752 133.201 94.6494C138.424 93.9236 143.716 95.2891 148.006 98.4694C152.296 101.65 155.263 106.407 156.306 111.777C157.349 117.147 156.39 122.729 153.623 127.391C150.856 132.053 146.488 135.448 141.405 136.886C139.628 137.391 137.795 137.645 135.953 137.644ZM136.02 95.2236C134.23 95.2229 132.448 95.4683 130.721 95.9536C126.238 97.2092 122.312 100.042 119.612 103.97C116.912 107.898 115.606 112.678 115.915 117.495C116.224 122.313 118.131 126.87 121.309 130.389C124.487 133.909 128.74 136.174 133.344 136.799C137.948 137.423 142.618 136.368 146.558 133.814C150.498 131.26 153.464 127.364 154.952 122.79C156.439 118.216 156.355 113.248 154.715 108.731C153.074 104.215 149.979 100.429 145.955 98.0199C142.936 96.199 139.51 95.2347 136.02 95.2236Z" fill="#263238"/>
<path d="M148.947 117.495C149.694 110.053 144.498 103.391 137.341 102.614C130.185 101.837 123.778 107.24 123.031 114.682C122.283 122.124 127.479 128.786 134.636 129.563C141.792 130.34 148.2 124.937 148.947 117.495Z" fill="white"/>
<path d="M135.97 129.986C133.922 129.981 131.903 129.488 130.068 128.544C128.233 127.601 126.632 126.231 125.386 124.541C124.141 122.851 123.285 120.887 122.886 118.799C122.486 116.711 122.553 114.556 123.082 112.499C123.61 110.442 124.586 108.539 125.934 106.937C127.282 105.334 128.965 104.075 130.855 103.256C132.745 102.438 134.79 102.081 136.834 102.215C138.877 102.348 140.863 102.968 142.64 104.026C144.937 105.393 146.792 107.438 147.97 109.902C149.148 112.366 149.596 115.138 149.258 117.867C148.92 120.597 147.81 123.16 146.069 125.233C144.329 127.305 142.035 128.794 139.48 129.51C138.335 129.828 137.155 129.988 135.97 129.986ZM136.009 102.876C132.927 102.872 129.948 104.034 127.628 106.146C125.309 108.257 123.807 111.174 123.404 114.353C123.001 117.531 123.723 120.753 125.437 123.418C127.15 126.083 129.737 128.009 132.716 128.836C135.694 129.663 138.86 129.335 141.624 127.913C144.387 126.492 146.558 124.073 147.732 121.109C148.907 118.145 149.004 114.838 148.006 111.805C147.008 108.772 144.983 106.22 142.309 104.626C140.392 103.48 138.22 102.876 136.009 102.876Z" fill="#263238"/>
<path d="M124.867 109.059L124.537 109.656L135.826 116.393L136.155 115.795L124.867 109.059Z" fill="#263238"/>
<path d="M123.327 112.978L123.191 113.652L135.929 116.432L136.065 115.757L123.327 112.978Z" fill="#263238"/>
<path d="M135.955 115.73L123.021 117.184L123.093 117.868L136.026 116.414L135.955 115.73Z" fill="#263238"/>
<path d="M135.846 115.769L123.971 121.309L124.242 121.937L136.117 116.398L135.846 115.769Z" fill="#263238"/>
<path d="M135.762 115.843L126.111 124.914L126.555 125.425L136.206 116.354L135.762 115.843Z" fill="#263238"/>
<path d="M135.703 115.906L129.221 127.643L129.795 127.986L136.277 116.25L135.703 115.906Z" fill="#263238"/>
<path d="M135.672 116.027L133.002 129.273L133.65 129.415L136.321 116.169L135.672 116.027Z" fill="#263238"/>
<path d="M136.309 116.059L135.65 116.133L137.045 129.589L137.703 129.515L136.309 116.059Z" fill="#263238"/>
<path d="M136.284 115.949L135.68 116.23L141.005 128.58L141.609 128.298L136.284 115.949Z" fill="#263238"/>
<path d="M136.229 115.858L135.738 116.32L144.473 126.354L144.964 125.892L136.229 115.858Z" fill="#263238"/>
<path d="M136.152 115.797L135.822 116.395L147.111 123.131L147.441 122.533L136.152 115.797Z" fill="#263238"/>
<path d="M136.062 115.758L135.926 116.432L148.664 119.211L148.8 118.537L136.062 115.758Z" fill="#263238"/>
<path d="M148.892 114.282L135.959 115.736L136.03 116.421L148.963 114.967L148.892 114.282Z" fill="#263238"/>
<path d="M147.721 110.238L135.846 115.777L136.117 116.406L147.992 110.866L147.721 110.238Z" fill="#263238"/>
<path d="M145.416 106.757L135.766 115.828L136.21 116.339L145.86 107.268L145.416 106.757Z" fill="#263238"/>
<path d="M142.172 104.184L135.693 115.914L136.268 116.257L142.746 104.527L142.172 104.184Z" fill="#263238"/>
<path d="M138.338 102.787L135.668 116.033L136.316 116.175L138.987 102.928L138.338 102.787Z" fill="#263238"/>
<path d="M134.918 102.606L134.26 102.68L135.653 116.129L136.312 116.055L134.918 102.606Z" fill="#263238"/>
<path d="M130.964 103.613L130.359 103.895L135.682 116.238L136.286 115.956L130.964 103.613Z" fill="#263238"/>
<path d="M127.505 105.833L127.014 106.295L135.743 116.324L136.235 115.862L127.505 105.833Z" fill="#263238"/>
<path d="M140.028 122.831C143.621 120.514 144.728 115.605 142.499 111.869C140.27 108.132 135.55 106.981 131.956 109.299C128.362 111.617 127.256 116.525 129.485 120.262C131.714 123.999 136.434 125.149 140.028 122.831Z" fill="#263238"/>
<path d="M135.97 124.388C134.746 124.388 133.538 124.096 132.439 123.533C131.341 122.971 130.381 122.153 129.635 121.144C128.889 120.134 128.376 118.96 128.136 117.711C127.895 116.463 127.934 115.174 128.25 113.943C128.565 112.713 129.148 111.574 129.954 110.616C130.759 109.657 131.766 108.904 132.897 108.414C134.027 107.924 135.25 107.712 136.472 107.792C137.694 107.872 138.882 108.244 139.944 108.877C141.471 109.788 142.665 111.198 143.342 112.888C144.019 114.577 144.14 116.452 143.687 118.22C143.234 119.989 142.232 121.552 140.836 122.667C139.441 123.783 137.73 124.388 135.97 124.388ZM135.97 108.464C134.19 108.459 132.468 109.127 131.127 110.345C129.785 111.562 128.916 113.246 128.681 115.081C128.446 116.917 128.861 118.778 129.848 120.319C130.836 121.859 132.329 122.973 134.049 123.453C135.769 123.932 137.598 123.745 139.194 122.925C140.791 122.106 142.046 120.71 142.726 118.999C143.406 117.288 143.463 115.378 142.888 113.625C142.313 111.873 141.144 110.399 139.6 109.477C138.503 108.822 137.261 108.478 135.997 108.478L135.97 108.464Z" fill="#263238"/>
<path d="M146.375 8.32259L145.891 13.4056L135.956 12.8064L136.241 8.21928L109.084 7.95066C107.334 7.80168 105.574 8.01256 103.902 8.57126C102.231 9.12997 100.682 10.0255 99.3434 11.2069C98.005 12.3882 96.9035 13.8321 96.1019 15.4561C95.3002 17.0801 94.814 18.8525 94.6711 20.6719C94.3835 24.3441 95.5099 27.9848 97.8026 30.7939C100.095 33.6029 103.367 35.3504 106.898 35.6523L133.637 39.523L134.24 35.4663L144.023 36.5476L143.646 40.9694L195.051 48.4079L196.296 8.8116L146.375 8.32259Z" fill="#23BB4E"/>
<path d="M195.347 48.7981L143.266 41.2632L143.644 36.8483L134.496 35.8427L133.894 39.9063L106.836 35.9873C103.218 35.6768 99.8658 33.8842 97.5181 31.0037C95.1704 28.1233 94.0193 24.3911 94.3179 20.6282C94.6165 16.8652 96.3405 13.3797 99.1105 10.9385C101.881 8.49725 105.47 7.30023 109.088 7.61077L136.589 7.87938L136.298 12.4802L145.604 13.045L146.088 7.96892L196.612 8.47171L195.347 48.7981ZM143.981 40.6708L194.685 48.0129L195.903 9.15357L146.657 8.66456L146.174 13.7682L135.576 13.1277L135.861 8.56125L109.035 8.29263C107.313 8.11206 105.572 8.29023 103.917 8.81675C102.261 9.34327 100.722 10.2076 99.3911 11.3592C98.06 12.5108 96.9629 13.9267 96.1639 15.5241C95.3648 17.1215 94.8799 18.8685 94.7373 20.663C94.5947 22.4574 94.7974 24.2635 95.3335 25.9756C95.8697 27.6877 96.7284 29.2716 97.8598 30.6347C98.9911 31.9979 100.372 33.113 101.923 33.9149C103.473 34.7169 105.161 35.1896 106.889 35.3055L133.317 39.128L133.914 35.0851L144.346 36.2353L143.981 40.6708Z" fill="#263238"/>
<path d="M145.889 13.4122L141.279 13.1367L139.365 36.0446L143.982 36.5543L145.889 13.4122Z" fill="#263238"/>
<path d="M144.279 36.929L138.98 36.3436L140.968 12.7676L146.266 13.0913L144.279 36.929ZM139.709 35.7306L143.683 36.1714L145.531 13.7318L141.557 13.4977L139.709 35.7306Z" fill="#263238"/>
<path d="M137.949 35.808L139.857 13.086L135.936 12.8105L134.207 35.4705L137.949 35.808Z" fill="#263238"/>
<path d="M138.244 36.1543L133.846 35.7617L135.627 12.4199L140.211 12.7436L138.244 36.1543ZM134.554 35.135L137.641 35.4036L139.496 13.3635L136.237 13.1362L134.554 35.135Z" fill="#263238"/>
<path d="M215.146 30.036C215.886 19.039 207.913 9.50015 197.337 8.73036C186.762 7.96057 177.589 16.2514 176.848 27.2483C176.108 38.2453 184.081 47.7842 194.657 48.554C205.232 49.3238 214.405 41.033 215.146 30.036Z" fill="white"/>
<path d="M194.688 48.9117C194.158 48.9117 193.622 48.9117 193.085 48.8497C187.986 48.4342 183.247 45.957 179.885 41.9497C176.522 37.9424 174.804 32.7243 175.099 27.4148C175.394 22.1053 177.678 17.1276 181.462 13.5495C185.246 9.97143 190.228 8.07812 195.339 8.27577C200.45 8.47343 205.283 10.7463 208.801 14.6067C212.319 18.4672 214.241 23.6076 214.156 28.9252C214.071 34.2428 211.985 39.3138 208.345 43.0503C204.706 46.7868 199.803 48.8911 194.688 48.9117ZM194.688 9.08808C189.754 9.08005 185.014 11.0833 181.484 14.668C177.954 18.2527 175.915 23.1333 175.806 28.2628C175.697 33.3922 177.525 38.3619 180.899 42.1055C184.273 45.8492 188.924 48.0686 193.854 48.2877C198.783 48.5068 203.599 46.708 207.268 43.2773C210.937 39.8466 213.166 35.0573 213.478 29.9369C213.79 24.8164 212.16 19.7728 208.937 15.888C205.714 12.0032 201.155 9.58668 196.238 9.15696C195.715 9.11563 195.198 9.08808 194.688 9.08808Z" fill="#263238"/>
<path d="M207.826 30.3305C208.704 22.862 203.593 16.0675 196.411 15.1544C189.229 14.2414 182.694 19.5556 181.816 27.024C180.938 34.4925 186.049 41.287 193.231 42.2001C200.413 43.1131 206.948 37.7989 207.826 30.3305Z" fill="white"/>
<path d="M194.819 42.6364C194.455 42.6364 194.084 42.6364 193.713 42.5882C190.162 42.2858 186.872 40.529 184.566 37.7041C182.261 34.8793 181.129 31.2178 181.42 27.5252C181.711 23.8325 183.4 20.4112 186.117 18.0139C188.833 15.6166 192.354 14.4396 195.906 14.7419C199.373 15.0195 202.602 16.6849 204.913 19.3878C207.224 22.0906 208.437 25.6201 208.296 29.2338C208.155 32.8474 206.672 36.2634 204.159 38.7631C201.645 41.2628 198.297 42.6512 194.819 42.6364ZM194.786 15.3894C191.587 15.4007 188.508 16.6605 186.159 18.9193C183.81 21.1781 182.363 24.2714 182.102 27.5871C181.897 30.2046 182.443 32.8265 183.671 35.1214C184.898 37.4163 186.753 39.2811 189 40.48C191.247 41.6789 193.785 42.1581 196.294 41.8571C198.803 41.556 201.17 40.4882 203.095 38.7886C205.02 37.089 206.418 34.8339 207.11 32.3085C207.803 29.7832 207.76 27.1009 206.987 24.6008C206.214 22.1007 204.746 19.8951 202.767 18.2629C200.789 16.6306 198.39 15.645 195.872 15.4307C195.495 15.4031 195.144 15.3894 194.786 15.3894Z" fill="#263238"/>
<path d="M181.804 27.2257L181.75 27.9121L194.788 29.022L194.842 28.3355L181.804 27.2257Z" fill="#263238"/>
<path d="M194.729 28.3325L182 31.4688L182.153 32.1389L194.882 29.0027L194.729 28.3325Z" fill="#263238"/>
<path d="M194.631 28.3803L183.453 35.4473L183.797 36.0358L194.975 28.9688L194.631 28.3803Z" fill="#263238"/>
<path d="M194.558 28.4537L186.031 38.7695L186.534 39.2185L195.061 28.9026L194.558 28.4537Z" fill="#263238"/>
<path d="M194.515 28.5553L189.465 41.1035L190.076 41.3694L195.126 28.8212L194.515 28.5553Z" fill="#263238"/>
<path d="M194.467 28.6392L193.406 42.1973L194.066 42.2531L195.127 28.695L194.467 28.6392Z" fill="#263238"/>
<path d="M195.125 28.6069L194.48 28.7656L197.494 42.0025L198.139 41.8439L195.125 28.6069Z" fill="#263238"/>
<path d="M195.095 28.5033L194.529 28.8613L201.329 40.4819L201.895 40.1239L195.095 28.5033Z" fill="#263238"/>
<path d="M195.035 28.423L194.604 28.9453L204.524 37.8121L204.956 37.2898L195.035 28.423Z" fill="#263238"/>
<path d="M195.745 29.5128L195.486 30.1465L207.521 35.4516L207.78 34.8179L195.745 29.5128Z" fill="#263238"/>
<path d="M194.849 28.3389L194.795 29.0254L207.833 30.1353L207.887 29.4488L194.849 28.3389Z" fill="#263238"/>
<path d="M207.463 25.2016L194.734 28.3379L194.887 29.0081L207.616 25.8718L207.463 25.2016Z" fill="#263238"/>
<path d="M205.812 21.2963L194.635 28.3633L194.979 28.9518L206.157 21.8849L205.812 21.2963Z" fill="#263238"/>
<path d="M203.086 18.1255L194.559 28.4414L195.061 28.8904L203.588 18.5745L203.086 18.1255Z" fill="#263238"/>
<path d="M199.564 16.0045L194.514 28.5527L195.125 28.8186L200.175 16.2704L199.564 16.0045Z" fill="#263238"/>
<path d="M195.535 15.0845L194.475 28.6426L195.135 28.6984L196.195 15.1403L195.535 15.0845Z" fill="#263238"/>
<path d="M192.115 15.3648L191.471 15.5234L194.485 28.7603L195.129 28.6017L192.115 15.3648Z" fill="#263238"/>
<path d="M188.292 16.8881L187.727 17.2461L194.527 28.8667L195.092 28.5087L188.292 16.8881Z" fill="#263238"/>
<path d="M185.111 19.5558L184.68 20.0781L194.6 28.9449L195.032 28.4226L185.111 19.5558Z" fill="#263238"/>
<path d="M182.865 23.1165L182.609 23.752L194.679 28.997L194.935 28.3615L182.865 23.1165Z" fill="#263238"/>
<path d="M199.306 34.4C202.354 31.7508 202.76 27.0336 200.212 23.864C197.664 20.6944 193.128 20.2725 190.08 22.9218C187.032 25.5711 186.626 30.2882 189.174 33.4579C191.721 36.6275 196.258 37.0493 199.306 34.4Z" fill="#263238"/>
<path d="M194.685 36.4871C194.48 36.4871 194.274 36.4871 194.062 36.4871C192.101 36.4024 190.249 35.5217 188.905 34.0339C187.56 32.546 186.83 30.5695 186.871 28.5284C186.911 26.4872 187.72 24.544 189.122 23.1154C190.525 21.6868 192.41 20.8867 194.374 20.8867C196.337 20.8867 198.222 21.6868 199.625 23.1154C201.027 24.544 201.836 26.4872 201.877 28.5284C201.917 30.5695 201.187 32.546 199.843 34.0339C198.498 35.5217 196.647 36.4024 194.685 36.4871ZM194.685 21.5343C192.965 21.5371 191.309 22.212 190.045 23.4254C188.781 24.6387 188.002 26.3017 187.863 28.0843C187.753 29.4894 188.047 30.8967 188.706 32.1282C189.366 33.3598 190.362 34.3603 191.568 35.0034C192.775 35.6465 194.137 35.9032 195.484 35.7411C196.831 35.5791 198.101 35.0054 199.134 34.0928C200.167 33.1802 200.917 31.9695 201.288 30.6139C201.66 29.2582 201.637 27.8184 201.222 26.4765C200.806 25.1346 200.018 23.9508 198.956 23.0748C197.894 22.1988 196.606 21.6699 195.255 21.555C195.069 21.5412 194.877 21.5343 194.685 21.5343Z" fill="#263238"/>
<path d="M174.952 26.6939C175.305 20.0396 170.404 14.3475 164.005 13.9801C157.606 13.6128 152.132 18.7093 151.778 25.3635C151.425 32.0178 156.326 37.7099 162.726 38.0773C169.125 38.4447 174.599 33.3481 174.952 26.6939Z" fill="white"/>
<path d="M163.385 38.4455C163.061 38.4455 162.723 38.4454 162.405 38.4041C159.296 38.1395 156.41 36.6182 154.367 34.1667C152.324 31.7152 151.287 28.5287 151.477 25.291C151.668 22.0532 153.071 19.022 155.386 16.8477C157.701 14.6734 160.743 13.5292 163.86 13.6606C166.977 13.792 169.921 15.1885 172.059 17.5505C174.197 19.9125 175.36 23.0519 175.298 26.2951C175.235 29.5383 173.953 32.627 171.726 34.8985C169.499 37.17 166.505 38.4434 163.385 38.4455ZM163.385 14.3392C160.469 14.3605 157.678 15.5688 155.609 17.7051C153.54 19.8414 152.358 22.7357 152.317 25.7673C152.276 28.7989 153.379 31.7266 155.389 33.9227C157.4 36.1187 160.157 37.4084 163.071 37.5151C165.985 37.6218 168.823 36.537 170.977 34.4934C173.131 32.4498 174.429 29.61 174.593 26.5829C174.757 23.5558 173.774 20.5823 171.855 18.3C169.936 16.0176 167.233 14.6081 164.326 14.3736C163.981 14.3254 163.67 14.3116 163.359 14.3116L163.385 14.3392Z" fill="#263238"/>
<path d="M166.294 33.7604C170.388 32.1222 172.429 27.3437 170.854 23.0872C169.278 18.8307 164.683 16.7082 160.589 18.3463C156.496 19.9845 154.455 24.7631 156.03 29.0195C157.606 33.276 162.201 35.3986 166.294 33.7604Z" fill="white"/>
<path d="M163.447 34.6424C163.222 34.6424 162.99 34.6424 162.784 34.6424C160.597 34.4597 158.57 33.3811 157.147 31.6438C155.725 29.9065 155.025 27.6529 155.2 25.3787C155.376 23.1045 156.413 20.996 158.084 19.517C159.755 18.0381 161.922 17.3098 164.109 17.4925C166.239 17.6702 168.22 18.698 169.638 20.3607C171.055 22.0233 171.799 24.1919 171.714 26.4121C171.628 28.6323 170.72 30.732 169.179 32.2713C167.638 33.8106 165.584 34.6702 163.447 34.6699V34.6424ZM163.447 18.1124C161.454 18.198 159.572 19.0924 158.206 20.6037C156.84 22.1151 156.098 24.123 156.139 26.1968C156.18 28.2705 157.002 30.2449 158.426 31.6963C159.851 33.1478 161.767 33.9607 163.761 33.9607C165.756 33.9607 167.671 33.1478 169.096 31.6963C170.521 30.2449 171.342 28.2705 171.383 26.1968C171.425 24.123 170.683 22.1151 169.316 20.6037C167.95 19.0924 166.069 18.198 164.076 18.1124C163.851 18.133 163.639 18.1261 163.433 18.1261L163.447 18.1124Z" fill="#263238"/>
<path d="M155.572 25.0323L155.518 25.7188L163.42 26.3914L163.474 25.705L155.572 25.0323Z" fill="#263238"/>
<path d="M163.361 25.7007L155.646 27.6016L155.799 28.2718L163.514 26.3709L163.361 25.7007Z" fill="#263238"/>
<path d="M163.273 25.7442L156.498 30.0273L156.842 30.6159L163.617 26.3328L163.273 25.7442Z" fill="#263238"/>
<path d="M163.185 25.8065L158.021 32.0625L158.524 32.5111L163.688 26.2551L163.185 25.8065Z" fill="#263238"/>
<path d="M163.125 25.8932L160.068 33.5L160.679 33.7656L163.737 26.1587L163.125 25.8932Z" fill="#263238"/>
<path d="M163.124 26.0257L162.473 34.2422L163.133 34.2987L163.784 26.0822L163.124 26.0257Z" fill="#263238"/>
<path d="M163.768 25.9644L163.123 26.123L164.95 34.1456L165.594 33.9869L163.768 25.9644Z" fill="#263238"/>
<path d="M163.724 25.8783L163.158 26.2363L167.28 33.2793L167.845 32.9213L163.724 25.8783Z" fill="#263238"/>
<path d="M163.66 25.7824L163.229 26.3047L169.241 31.6786L169.673 31.1563L163.66 25.7824Z" fill="#263238"/>
<path d="M163.58 25.7376L163.324 26.373L170.64 29.5519L170.895 28.9164L163.58 25.7376Z" fill="#263238"/>
<path d="M163.48 25.7042L163.426 26.3906L171.328 27.0633L171.382 26.3768L163.48 25.7042Z" fill="#263238"/>
<path d="M171.08 23.8101L163.365 25.7109L163.518 26.3811L171.233 24.4803L171.08 23.8101Z" fill="#263238"/>
<path d="M170.044 21.4649L163.27 25.748L163.614 26.3366L170.388 22.0535L170.044 21.4649Z" fill="#263238"/>
<path d="M168.359 19.5681L163.191 25.8203L163.694 26.2693L168.862 20.0171L168.359 19.5681Z" fill="#263238"/>
<path d="M166.211 18.3226L163.15 25.9277L163.761 26.1936L166.822 18.5885L166.211 18.3226Z" fill="#263238"/>
<path d="M163.752 17.7964L163.109 26.0137L163.77 26.0695L164.412 17.8523L163.752 17.7964Z" fill="#263238"/>
<path d="M161.941 17.9193L161.297 18.0781L163.125 26.1004L163.769 25.9416L161.941 17.9193Z" fill="#263238"/>
<path d="M159.605 18.8079L159.039 19.166L163.162 26.2082L163.727 25.8501L159.605 18.8079Z" fill="#263238"/>
<path d="M157.647 20.4191L157.215 20.9414L163.227 26.3154L163.659 25.793L157.647 20.4191Z" fill="#263238"/>
<path d="M156.259 22.552L156.004 23.1875L163.319 26.3664L163.575 25.7309L156.259 22.552Z" fill="#263238"/>
<path d="M163.733 21.5143C162.874 21.4384 162.013 21.6292 161.258 22.0626C160.503 22.4961 159.888 23.1527 159.492 23.9493C159.096 24.746 158.937 25.6469 159.033 26.538C159.13 27.4291 159.479 28.2703 160.035 28.9552C160.592 29.6402 161.331 30.138 162.16 30.3857C162.989 30.6334 163.87 30.6198 164.691 30.3468C165.513 30.0737 166.238 29.5533 166.775 28.8515C167.312 28.1498 167.636 27.2982 167.708 26.4045C167.803 25.2083 167.438 24.0216 166.693 23.1048C165.948 22.188 164.884 21.616 163.733 21.5143Z" fill="#263238"/>
<path d="M163.378 30.9095H162.993C162.379 30.8571 161.781 30.6793 161.233 30.3865C160.685 30.0937 160.198 29.6915 159.799 29.2028C159.401 28.7142 159.099 28.1487 158.91 27.5387C158.722 26.9287 158.651 26.286 158.701 25.6475C158.752 25.0089 158.923 24.3869 159.204 23.817C159.486 23.2472 159.873 22.7405 160.343 22.3261C160.812 21.9117 161.356 21.5975 161.943 21.4016C162.53 21.2057 163.148 21.1319 163.762 21.1844C164.975 21.2789 166.105 21.8598 166.913 22.8043C167.722 23.7489 168.146 24.9833 168.097 26.2469C168.047 27.5106 167.527 28.7047 166.646 29.5772C165.766 30.4497 164.594 30.9323 163.378 30.9233V30.9095ZM163.378 21.8456C162.325 21.8906 161.331 22.363 160.609 23.1613C159.887 23.9596 159.495 25.0203 159.517 26.1157C159.539 27.2112 159.972 28.2542 160.725 29.021C161.478 29.7878 162.489 30.2172 163.543 30.2172C164.597 30.2172 165.609 29.7878 166.361 29.021C167.114 28.2542 167.548 27.2112 167.569 26.1157C167.591 25.0203 167.199 23.9596 166.477 23.1613C165.755 22.363 164.762 21.8906 163.709 21.8456H163.378Z" fill="#263238"/>
<path d="M112.843 36.6393C120.695 34.1258 125.101 25.4688 122.684 17.3034C120.267 9.13804 111.942 4.55634 104.089 7.0699C96.2368 9.58345 91.8306 18.2404 94.2479 26.4058C96.6651 34.5712 104.99 39.1529 112.843 36.6393Z" fill="white"/>
<path d="M108.474 37.6642C108.064 37.6642 107.646 37.6642 107.222 37.6091C103.264 37.2643 99.5937 35.32 96.9981 32.1935C94.4026 29.067 93.0888 25.0072 93.3387 20.885C93.5885 16.7629 95.3821 12.9067 98.3346 10.1438C101.287 7.38088 105.163 5.93126 109.132 6.10593C113.1 6.28061 116.845 8.06566 119.562 11.0781C122.28 14.0906 123.754 18.0906 123.667 22.22C123.581 26.3493 121.942 30.2792 119.102 33.1664C116.262 36.0537 112.446 37.6684 108.474 37.6642ZM108.441 6.72546C104.629 6.71735 100.966 8.26298 98.2367 11.0309C95.5077 13.7988 93.9305 17.5685 93.8433 21.5315C93.7562 25.4945 95.166 29.3353 97.7704 32.23C100.375 35.1247 103.966 36.8429 107.775 37.016C111.583 37.1892 115.306 35.8035 118.143 33.1561C120.98 30.5088 122.707 26.8106 122.953 22.8548C123.199 18.8989 121.944 15.0005 119.458 11.9955C116.971 8.99057 113.452 7.11841 109.653 6.78056C109.243 6.74612 108.845 6.72546 108.441 6.72546Z" fill="#263238"/>
<path d="M116.146 33.3592C122.261 27.6536 122.771 17.8733 117.284 11.5142C111.797 5.15523 102.391 4.62555 96.2759 10.3312C90.1606 16.0368 89.6512 25.8171 95.1381 32.1761C100.625 38.5351 110.031 39.0648 116.146 33.3592Z" fill="white"/>
<path d="M106.228 37.6641C105.81 37.6641 105.393 37.6641 104.976 37.609C101.019 37.2642 97.3505 35.3208 94.7562 32.1956C92.1618 29.0705 90.8487 25.0124 91.0984 20.8921C91.3482 16.7718 93.141 12.9174 96.0922 10.1557C99.0434 7.39397 102.918 5.945 106.885 6.1196C110.851 6.29419 114.594 8.07844 117.311 11.0896C120.027 14.1007 121.5 18.0989 121.414 22.2265C121.328 26.354 119.69 30.2821 116.851 33.1681C114.012 36.0542 110.198 37.6682 106.228 37.6641ZM106.228 6.72536C102.415 6.71166 98.7485 8.25263 96.0156 11.0176C93.2827 13.7826 91.701 17.5513 91.6097 21.5152C91.5184 25.479 92.925 29.3221 95.5275 32.2199C98.13 35.1177 101.721 36.8393 105.53 37.0154C109.34 37.1914 113.063 35.8079 115.903 33.1616C118.742 30.5153 120.471 26.8171 120.719 22.8604C120.966 18.9038 119.712 15.0041 117.226 11.9979C114.739 8.99166 111.219 7.11856 107.42 6.78046C107.003 6.74602 106.592 6.72536 106.208 6.72536H106.228Z" fill="#263238"/>
<path d="M109.007 31.3023C114.025 29.6982 116.842 24.1681 115.299 18.9506C113.757 13.7331 108.439 10.8039 103.421 12.408C98.4035 14.0121 95.5865 19.5421 97.1291 24.7597C98.6718 29.9772 103.99 32.9064 109.007 31.3023Z" fill="white"/>
<path d="M106.236 32.0827C105.965 32.0827 105.687 32.0827 105.415 32.0482C102.854 31.829 100.478 30.575 98.7958 28.5551C97.1136 26.5353 96.2596 23.9104 96.4169 21.2435C96.5741 18.5765 97.7301 16.0798 99.6369 14.2888C101.544 12.4977 104.049 11.5549 106.617 11.6626C109.184 11.7703 111.609 12.9198 113.371 14.8647C115.133 16.8095 116.092 19.3949 116.042 22.0664C115.992 24.7378 114.938 27.2826 113.105 29.1551C111.272 31.0275 108.806 32.0785 106.236 32.0827ZM106.203 12.3155C103.903 12.3196 101.687 13.2225 99.9968 14.8452C98.3062 16.468 97.2638 18.692 97.0761 21.0764C96.9303 22.955 97.3232 24.8364 98.2054 26.4827C99.0875 28.1291 100.419 29.4667 102.032 30.3263C103.645 31.1859 105.467 31.5291 107.267 31.3124C109.068 31.0957 110.766 30.3289 112.147 29.1088C113.529 27.8888 114.532 26.2703 115.029 24.4579C115.526 22.6455 115.495 20.7206 114.941 18.9263C114.386 17.132 113.332 15.549 111.913 14.3772C110.493 13.2055 108.771 12.4976 106.965 12.343C106.713 12.3224 106.455 12.3155 106.203 12.3155Z" fill="#263238"/>
<path d="M96.7943 20.71L96.7402 21.3965L106.2 22.2018L106.254 21.5153L96.7943 20.71Z" fill="#263238"/>
<path d="M106.138 21.5154L96.9023 23.791L97.0551 24.4612L106.291 22.1856L106.138 21.5154Z" fill="#263238"/>
<path d="M106.048 21.5541L97.9375 26.6816L98.2816 27.2702L106.392 22.1426L106.048 21.5541Z" fill="#263238"/>
<path d="M105.959 21.6161L99.7773 29.1055L100.28 29.5541L106.462 22.0647L105.959 21.6161Z" fill="#263238"/>
<path d="M105.91 21.7059L102.25 30.8125L102.861 31.0781L106.521 21.9715L105.91 21.7059Z" fill="#263238"/>
<path d="M105.891 21.8267L105.121 31.6641L105.781 31.7199L106.551 21.8826L105.891 21.8267Z" fill="#263238"/>
<path d="M106.533 21.7925L105.889 21.9512L108.075 31.5555L108.72 31.3968L106.533 21.7925Z" fill="#263238"/>
<path d="M106.497 21.681L105.932 22.0391L110.866 30.4706L111.431 30.1126L106.497 21.681Z" fill="#263238"/>
<path d="M106.434 21.6007L106.002 22.123L113.2 28.5565L113.632 28.0342L106.434 21.6007Z" fill="#263238"/>
<path d="M106.355 21.5501L106.1 22.1855L114.857 25.9912L115.113 25.3557L106.355 21.5501Z" fill="#263238"/>
<path d="M106.249 21.5206L106.195 22.207L115.655 23.0123L115.709 22.3259L106.249 21.5206Z" fill="#263238"/>
<path d="M115.376 19.2479L106.141 21.5234L106.293 22.1936L115.529 19.9181L115.376 19.2479Z" fill="#263238"/>
<path d="M114.151 16.4252L106.041 21.5527L106.385 22.1412L114.495 17.0137L114.151 16.4252Z" fill="#263238"/>
<path d="M112.143 14.1259L105.961 21.6152L106.464 22.0638L112.645 14.5744L112.143 14.1259Z" fill="#263238"/>
<path d="M109.568 12.6004L105.908 21.707L106.519 21.9726L110.179 12.866L109.568 12.6004Z" fill="#263238"/>
<path d="M106.671 11.9971L105.896 21.834L106.557 21.8902L107.331 12.0533L106.671 11.9971Z" fill="#263238"/>
<path d="M104.35 12.1714L103.705 12.3301L105.892 21.9344L106.536 21.7757L104.35 12.1714Z" fill="#263238"/>
<path d="M101.568 13.2494L101.002 13.6074L105.936 22.039L106.502 21.681L101.568 13.2494Z" fill="#263238"/>
<path d="M99.2345 15.1613L98.8027 15.6836L106.001 22.1171L106.433 21.5947L99.2345 15.1613Z" fill="#263238"/>
<path d="M97.5835 17.7395L97.3281 18.375L106.086 22.1806L106.341 21.5451L97.5835 17.7395Z" fill="#263238"/>
<path d="M106.67 16.062C105.569 15.9692 104.467 16.2177 103.503 16.776C102.538 17.3342 101.754 18.1773 101.251 19.1985C100.747 20.2198 100.545 21.3735 100.671 22.5138C100.798 23.6542 101.246 24.7299 101.961 25.6053C102.675 26.4806 103.622 27.1162 104.684 27.4317C105.745 27.7472 106.872 27.7285 107.924 27.3779C108.975 27.0274 109.902 26.3607 110.589 25.4622C111.276 24.5636 111.692 23.4735 111.783 22.3296C111.904 20.7934 111.433 19.2702 110.474 18.0949C109.515 16.9195 108.147 16.1883 106.67 16.062Z" fill="#263238"/>
<path d="M106.22 28.0099H105.729C104.165 27.8766 102.716 27.1025 101.7 25.858C100.685 24.6135 100.186 23.0004 100.315 21.3738C100.443 19.7471 101.187 18.2401 102.384 17.1841C103.581 16.1282 105.132 15.6099 106.697 15.7432C108.237 15.8477 109.676 16.5739 110.709 17.7669C111.741 18.9599 112.284 20.5252 112.222 22.1288C112.16 23.7323 111.497 25.2471 110.376 26.3497C109.254 27.4524 107.763 28.0556 106.22 28.0306V28.0099ZM106.22 16.3907C104.834 16.4492 103.526 17.0703 102.576 18.1205C101.625 19.1707 101.109 20.5664 101.137 22.0081C101.165 23.4497 101.736 24.8225 102.726 25.8317C103.717 26.8409 105.048 27.4061 106.435 27.4061C107.822 27.4061 109.153 26.8409 110.143 25.8317C111.134 24.8225 111.704 23.4497 111.733 22.0081C111.761 20.5664 111.244 19.1707 110.294 18.1205C109.344 17.0703 108.036 16.4492 106.65 16.3907H106.22Z" fill="#263238"/>
<path d="M148.891 201.252C148.928 201.912 148.774 202.567 148.449 203.135C148.123 203.702 147.642 204.155 147.066 204.434C146.491 204.714 145.848 204.807 145.221 204.703C144.594 204.598 144.011 204.3 143.549 203.847C143.086 203.394 142.765 202.808 142.627 202.163C142.489 201.518 142.54 200.845 142.773 200.231C143.007 199.617 143.413 199.09 143.938 198.718C144.463 198.347 145.083 198.147 145.718 198.146C146.123 198.133 146.526 198.203 146.904 198.353C147.282 198.502 147.629 198.727 147.923 199.015C148.218 199.304 148.455 199.65 148.621 200.034C148.787 200.418 148.879 200.832 148.891 201.252Z" fill="#263238"/>
<path d="M145.715 204.706C145.07 204.667 144.449 204.432 143.931 204.031C143.412 203.63 143.017 203.079 142.796 202.448C142.575 201.816 142.536 201.131 142.684 200.476C142.833 199.822 143.163 199.227 143.633 198.765C144.103 198.303 144.692 197.995 145.329 197.877C145.965 197.76 146.621 197.839 147.215 198.104C147.809 198.37 148.316 198.81 148.672 199.371C149.028 199.933 149.218 200.59 149.219 201.262C149.192 202.201 148.807 203.091 148.151 203.736C147.494 204.381 146.619 204.73 145.715 204.706ZM145.715 198.507C145.201 198.546 144.709 198.74 144.299 199.065C143.89 199.391 143.58 199.833 143.409 200.339C143.237 200.845 143.212 201.391 143.334 201.912C143.457 202.432 143.724 202.904 144.101 203.27C144.478 203.636 144.949 203.879 145.457 203.97C145.965 204.061 146.488 203.996 146.961 203.783C147.434 203.57 147.837 203.218 148.12 202.77C148.404 202.322 148.556 201.798 148.557 201.262C148.533 200.503 148.22 199.786 147.687 199.266C147.154 198.747 146.445 198.469 145.715 198.493V198.507Z" fill="#263238"/>
<path d="M156.272 201.252C156.309 201.912 156.155 202.567 155.829 203.135C155.504 203.702 155.023 204.155 154.447 204.434C153.872 204.714 153.229 204.807 152.601 204.703C151.974 204.598 151.392 204.3 150.929 203.847C150.467 203.394 150.146 202.808 150.008 202.163C149.869 201.518 149.921 200.845 150.154 200.231C150.388 199.617 150.794 199.09 151.319 198.718C151.844 198.347 152.464 198.147 153.099 198.146C153.503 198.133 153.906 198.203 154.285 198.353C154.663 198.502 155.01 198.727 155.304 199.015C155.599 199.304 155.836 199.65 156.002 200.034C156.168 200.418 156.26 200.832 156.272 201.252Z" fill="#263238"/>
<path d="M153.116 204.706C152.47 204.667 151.85 204.432 151.331 204.031C150.812 203.63 150.418 203.079 150.196 202.448C149.975 201.816 149.936 201.131 150.085 200.476C150.233 199.822 150.563 199.227 151.033 198.765C151.503 198.303 152.093 197.995 152.729 197.877C153.366 197.76 154.022 197.839 154.616 198.104C155.21 198.37 155.716 198.81 156.072 199.371C156.428 199.933 156.619 200.59 156.62 201.262C156.592 202.201 156.208 203.091 155.551 203.736C154.895 204.381 154.019 204.73 153.116 204.706ZM153.116 198.507C152.602 198.546 152.11 198.74 151.7 199.065C151.29 199.391 150.981 199.833 150.809 200.339C150.638 200.845 150.612 201.391 150.735 201.912C150.858 202.432 151.124 202.904 151.501 203.27C151.878 203.636 152.35 203.879 152.858 203.97C153.366 204.061 153.888 203.996 154.361 203.783C154.834 203.57 155.237 203.218 155.521 202.77C155.804 202.322 155.956 201.798 155.957 201.262C155.933 200.503 155.62 199.786 155.087 199.266C154.555 198.747 153.846 198.469 153.116 198.493V198.507Z" fill="#263238"/>
<path d="M163.687 201.252C163.725 201.913 163.572 202.571 163.246 203.141C162.921 203.71 162.439 204.165 161.862 204.446C161.285 204.727 160.64 204.821 160.011 204.716C159.382 204.612 158.798 204.313 158.334 203.859C157.87 203.405 157.548 202.816 157.41 202.17C157.272 201.523 157.323 200.848 157.558 200.232C157.793 199.617 158.201 199.089 158.728 198.717C159.255 198.344 159.877 198.146 160.514 198.146C161.331 198.122 162.123 198.435 162.718 199.017C163.312 199.6 163.661 200.403 163.687 201.252Z" fill="#263238"/>
<path d="M160.516 204.706C159.871 204.667 159.25 204.432 158.732 204.031C158.213 203.63 157.818 203.079 157.597 202.448C157.375 201.816 157.337 201.131 157.485 200.476C157.634 199.822 157.963 199.227 158.433 198.765C158.903 198.303 159.493 197.995 160.13 197.877C160.766 197.76 161.422 197.839 162.016 198.104C162.61 198.37 163.116 198.81 163.473 199.371C163.829 199.933 164.019 200.59 164.02 201.262C163.991 202.201 163.606 203.089 162.95 203.734C162.293 204.379 161.419 204.728 160.516 204.706ZM160.516 198.507C160.002 198.546 159.51 198.74 159.1 199.065C158.69 199.391 158.381 199.833 158.21 200.339C158.038 200.845 158.012 201.391 158.135 201.912C158.258 202.432 158.524 202.904 158.901 203.27C159.279 203.636 159.75 203.879 160.258 203.97C160.766 204.061 161.289 203.996 161.762 203.783C162.235 203.57 162.638 203.218 162.921 202.77C163.205 202.322 163.356 201.798 163.358 201.262C163.332 200.504 163.018 199.787 162.486 199.268C161.954 198.75 161.245 198.471 160.516 198.493V198.507Z" fill="#263238"/>
<path d="M171.078 201.252C171.115 201.912 170.961 202.568 170.636 203.135C170.31 203.703 169.828 204.155 169.252 204.435C168.676 204.714 168.033 204.807 167.406 204.702C166.778 204.597 166.196 204.298 165.734 203.845C165.271 203.391 164.951 202.804 164.813 202.159C164.676 201.513 164.728 200.84 164.963 200.226C165.197 199.612 165.604 199.086 166.13 198.715C166.656 198.344 167.277 198.146 167.912 198.146C168.728 198.122 169.52 198.435 170.113 199.018C170.707 199.6 171.054 200.404 171.078 201.252Z" fill="#263238"/>
<path d="M167.911 204.706C167.265 204.667 166.645 204.432 166.126 204.031C165.607 203.63 165.213 203.079 164.991 202.448C164.77 201.816 164.731 201.131 164.88 200.476C165.028 199.822 165.358 199.227 165.828 198.765C166.298 198.303 166.887 197.995 167.524 197.877C168.161 197.76 168.817 197.839 169.411 198.104C170.005 198.37 170.511 198.81 170.867 199.371C171.223 199.933 171.413 200.59 171.415 201.262C171.387 202.201 171.003 203.091 170.346 203.736C169.689 204.381 168.814 204.73 167.911 204.706ZM167.911 198.507C167.397 198.546 166.904 198.74 166.495 199.065C166.085 199.391 165.775 199.833 165.604 200.339C165.433 200.845 165.407 201.391 165.53 201.912C165.653 202.432 165.919 202.904 166.296 203.27C166.673 203.636 167.144 203.879 167.653 203.97C168.161 204.061 168.683 203.996 169.156 203.783C169.629 203.57 170.032 203.218 170.316 202.77C170.599 202.322 170.751 201.798 170.752 201.262C170.728 200.503 170.415 199.786 169.882 199.266C169.35 198.747 168.64 198.469 167.911 198.493V198.507Z" fill="#263238"/>
<path d="M178.479 201.252C178.516 201.912 178.362 202.568 178.036 203.135C177.71 203.703 177.228 204.155 176.653 204.435C176.077 204.714 175.433 204.807 174.806 204.702C174.179 204.597 173.596 204.298 173.134 203.845C172.672 203.391 172.351 202.804 172.214 202.159C172.076 201.513 172.128 200.84 172.363 200.226C172.598 199.612 173.004 199.086 173.53 198.715C174.056 198.344 174.677 198.146 175.313 198.146C176.128 198.122 176.92 198.435 177.514 199.018C178.107 199.6 178.454 200.404 178.479 201.252Z" fill="#263238"/>
<path d="M175.312 204.7C174.666 204.663 174.045 204.429 173.525 204.029C173.006 203.628 172.61 203.078 172.388 202.446C172.165 201.815 172.125 201.129 172.273 200.474C172.421 199.82 172.75 199.224 173.22 198.762C173.69 198.299 174.28 197.99 174.916 197.872C175.553 197.754 176.209 197.832 176.804 198.098C177.398 198.363 177.905 198.804 178.261 199.365C178.618 199.926 178.808 200.584 178.809 201.257C178.781 202.195 178.398 203.083 177.743 203.728C177.088 204.373 176.214 204.723 175.312 204.7ZM175.312 198.502C174.797 198.539 174.304 198.732 173.894 199.057C173.483 199.381 173.173 199.824 173 200.329C172.828 200.835 172.801 201.382 172.923 201.903C173.046 202.424 173.311 202.897 173.688 203.263C174.065 203.629 174.537 203.873 175.045 203.964C175.553 204.056 176.076 203.991 176.549 203.778C177.023 203.565 177.426 203.213 177.71 202.765C177.994 202.317 178.145 201.793 178.147 201.257C178.123 200.499 177.811 199.782 177.279 199.263C176.748 198.745 176.04 198.466 175.312 198.488V198.502Z" fill="#263238"/>
<path d="M185.873 201.252C185.91 201.912 185.756 202.568 185.431 203.135C185.105 203.703 184.623 204.155 184.047 204.435C183.471 204.714 182.828 204.807 182.201 204.702C181.573 204.597 180.991 204.298 180.529 203.845C180.066 203.391 179.746 202.804 179.608 202.159C179.471 201.513 179.523 200.84 179.758 200.226C179.992 199.612 180.399 199.086 180.925 198.715C181.451 198.344 182.072 198.146 182.707 198.146C183.523 198.122 184.315 198.435 184.908 199.018C185.502 199.6 185.849 200.404 185.873 201.252Z" fill="#263238"/>
<path d="M182.71 204.7C182.064 204.663 181.443 204.429 180.924 204.029C180.404 203.628 180.008 203.078 179.786 202.446C179.564 201.815 179.524 201.129 179.672 200.474C179.82 199.82 180.149 199.224 180.619 198.762C181.088 198.299 181.678 197.99 182.315 197.872C182.952 197.754 183.608 197.832 184.202 198.098C184.797 198.363 185.303 198.804 185.66 199.365C186.016 199.926 186.207 200.584 186.208 201.257C186.18 202.195 185.797 203.083 185.141 203.728C184.486 204.373 183.612 204.723 182.71 204.7ZM182.71 198.502C182.196 198.539 181.703 198.732 181.292 199.057C180.882 199.381 180.571 199.824 180.399 200.329C180.226 200.835 180.2 201.382 180.322 201.903C180.444 202.424 180.71 202.897 181.087 203.263C181.464 203.629 181.935 203.873 182.443 203.964C182.952 204.056 183.474 203.991 183.948 203.778C184.421 203.565 184.825 203.213 185.108 202.765C185.392 202.317 185.544 201.793 185.545 201.257C185.521 200.499 185.209 199.782 184.678 199.263C184.146 198.745 183.439 198.466 182.71 198.488V198.502Z" fill="#263238"/>
<path d="M193.274 201.252C193.311 201.912 193.157 202.567 192.831 203.135C192.506 203.702 192.024 204.155 191.449 204.434C190.874 204.714 190.231 204.807 189.603 204.703C188.976 204.598 188.394 204.3 187.931 203.847C187.469 203.394 187.148 202.808 187.01 202.163C186.871 201.518 186.922 200.845 187.156 200.231C187.39 199.617 187.795 199.09 188.32 198.718C188.845 198.347 189.466 198.147 190.101 198.146C190.505 198.133 190.908 198.203 191.287 198.353C191.665 198.502 192.012 198.727 192.306 199.015C192.601 199.304 192.838 199.65 193.004 200.034C193.17 200.418 193.262 200.832 193.274 201.252Z" fill="#263238"/>
<path d="M190.1 204.706C189.455 204.667 188.834 204.432 188.315 204.031C187.797 203.63 187.402 203.079 187.181 202.448C186.959 201.816 186.921 201.131 187.069 200.476C187.218 199.822 187.547 199.227 188.017 198.765C188.487 198.303 189.077 197.995 189.714 197.877C190.35 197.76 191.006 197.839 191.6 198.104C192.194 198.37 192.7 198.81 193.056 199.371C193.413 199.933 193.603 200.59 193.604 201.262C193.576 202.201 193.192 203.091 192.536 203.736C191.879 204.381 191.003 204.73 190.1 204.706ZM190.1 198.507C189.586 198.546 189.094 198.74 188.684 199.065C188.274 199.391 187.965 199.833 187.794 200.339C187.622 200.845 187.596 201.391 187.719 201.912C187.842 202.432 188.108 202.904 188.485 203.27C188.863 203.636 189.334 203.879 189.842 203.97C190.35 204.061 190.873 203.996 191.346 203.783C191.819 203.57 192.222 203.218 192.505 202.77C192.789 202.322 192.94 201.798 192.942 201.262C192.917 200.503 192.605 199.786 192.072 199.266C191.539 198.747 190.83 198.469 190.1 198.493V198.507Z" fill="#263238"/>
<path d="M200.647 201.252C200.684 201.912 200.53 202.567 200.204 203.135C199.879 203.702 199.398 204.155 198.822 204.434C198.247 204.714 197.604 204.807 196.976 204.703C196.349 204.598 195.767 204.3 195.304 203.847C194.842 203.394 194.521 202.808 194.383 202.163C194.244 201.518 194.296 200.845 194.529 200.231C194.763 199.617 195.169 199.09 195.694 198.718C196.219 198.347 196.839 198.147 197.474 198.146C197.878 198.133 198.281 198.203 198.66 198.353C199.038 198.502 199.385 198.727 199.679 199.015C199.974 199.304 200.211 199.65 200.377 200.034C200.543 200.418 200.635 200.832 200.647 201.252Z" fill="#263238"/>
<path d="M197.501 204.706C196.855 204.667 196.235 204.432 195.716 204.031C195.197 203.63 194.803 203.079 194.581 202.448C194.36 201.816 194.321 201.131 194.47 200.476C194.618 199.822 194.948 199.227 195.418 198.765C195.888 198.303 196.477 197.995 197.114 197.877C197.751 197.76 198.406 197.839 199 198.104C199.594 198.37 200.101 198.81 200.457 199.371C200.813 199.933 201.003 200.59 201.004 201.262C200.977 202.201 200.593 203.091 199.936 203.736C199.279 204.381 198.404 204.73 197.501 204.706ZM197.501 198.507C196.986 198.546 196.494 198.74 196.085 199.065C195.675 199.391 195.365 199.833 195.194 200.339C195.023 200.845 194.997 201.391 195.12 201.912C195.243 202.432 195.509 202.904 195.886 203.27C196.263 203.636 196.734 203.879 197.242 203.97C197.75 204.061 198.273 203.996 198.746 203.783C199.219 203.57 199.622 203.218 199.905 202.77C200.189 202.322 200.341 201.798 200.342 201.262C200.318 200.503 200.005 199.786 199.472 199.266C198.939 198.747 198.23 198.469 197.501 198.493V198.507Z" fill="#263238"/>
<path d="M208.072 201.252C208.11 201.913 207.957 202.571 207.631 203.141C207.306 203.71 206.823 204.165 206.246 204.446C205.67 204.727 205.025 204.821 204.396 204.716C203.767 204.612 203.182 204.313 202.719 203.859C202.255 203.405 201.933 202.816 201.795 202.17C201.656 201.523 201.708 200.848 201.943 200.232C202.178 199.617 202.585 199.089 203.112 198.717C203.639 198.344 204.262 198.146 204.899 198.146C205.715 198.122 206.508 198.435 207.102 199.017C207.697 199.6 208.046 200.403 208.072 201.252Z" fill="#263238"/>
<path d="M204.899 204.706C204.253 204.667 203.633 204.432 203.114 204.031C202.596 203.63 202.201 203.079 201.98 202.448C201.758 201.816 201.719 201.131 201.868 200.476C202.017 199.822 202.346 199.227 202.816 198.765C203.286 198.303 203.876 197.995 204.512 197.877C205.149 197.76 205.805 197.839 206.399 198.104C206.993 198.37 207.499 198.81 207.855 199.371C208.211 199.933 208.402 200.59 208.403 201.262C208.373 202.201 207.989 203.089 207.333 203.734C206.676 204.379 205.802 204.728 204.899 204.706ZM204.899 198.507C204.385 198.546 203.893 198.74 203.483 199.065C203.073 199.391 202.764 199.833 202.592 200.339C202.421 200.845 202.395 201.391 202.518 201.912C202.641 202.432 202.907 202.904 203.284 203.27C203.661 203.636 204.133 203.879 204.641 203.97C205.149 204.061 205.671 203.996 206.144 203.783C206.617 203.57 207.02 203.218 207.304 202.77C207.587 202.322 207.739 201.798 207.74 201.262C207.715 200.504 207.401 199.787 206.869 199.268C206.336 198.75 205.628 198.471 204.899 198.493V198.507Z" fill="#263238"/>
<path d="M215.47 201.252C215.508 201.913 215.355 202.571 215.03 203.141C214.704 203.71 214.222 204.165 213.645 204.446C213.068 204.727 212.423 204.821 211.794 204.716C211.165 204.612 210.581 204.313 210.117 203.859C209.653 203.405 209.331 202.816 209.193 202.17C209.055 201.523 209.106 200.848 209.341 200.232C209.576 199.617 209.984 199.089 210.511 198.717C211.038 198.344 211.66 198.146 212.297 198.146C213.114 198.122 213.906 198.435 214.501 199.017C215.096 199.6 215.444 200.403 215.47 201.252Z" fill="#263238"/>
<path d="M212.297 204.706C211.652 204.667 211.032 204.432 210.513 204.031C209.994 203.63 209.6 203.079 209.378 202.448C209.157 201.816 209.118 201.131 209.266 200.476C209.415 199.822 209.745 199.227 210.215 198.765C210.685 198.303 211.274 197.995 211.911 197.877C212.547 197.76 213.203 197.839 213.797 198.104C214.391 198.37 214.898 198.81 215.254 199.371C215.61 199.933 215.8 200.59 215.801 201.262C215.774 202.201 215.389 203.091 214.733 203.736C214.076 204.381 213.201 204.73 212.297 204.706ZM212.297 198.507C211.783 198.546 211.291 198.74 210.881 199.065C210.472 199.391 210.162 199.833 209.991 200.339C209.819 200.845 209.794 201.391 209.916 201.912C210.039 202.432 210.306 202.904 210.683 203.27C211.06 203.636 211.531 203.879 212.039 203.97C212.547 204.061 213.07 203.996 213.543 203.783C214.016 203.57 214.419 203.218 214.702 202.77C214.986 202.322 215.138 201.798 215.139 201.262C215.115 200.503 214.802 199.786 214.269 199.266C213.736 198.747 213.027 198.469 212.297 198.493V198.507Z" fill="#263238"/>
<path d="M222.865 201.252C222.902 201.912 222.748 202.568 222.423 203.135C222.097 203.703 221.615 204.155 221.039 204.435C220.463 204.714 219.82 204.807 219.193 204.702C218.565 204.597 217.983 204.298 217.521 203.845C217.059 203.391 216.738 202.804 216.601 202.159C216.463 201.513 216.515 200.84 216.75 200.226C216.985 199.612 217.391 199.086 217.917 198.715C218.443 198.344 219.064 198.146 219.699 198.146C220.515 198.122 221.307 198.435 221.9 199.018C222.494 199.6 222.841 200.404 222.865 201.252Z" fill="#263238"/>
<path d="M219.695 204.7C219.049 204.663 218.428 204.429 217.908 204.029C217.388 203.628 216.993 203.078 216.77 202.446C216.548 201.815 216.508 201.129 216.656 200.474C216.804 199.82 217.133 199.224 217.603 198.762C218.073 198.299 218.662 197.99 219.299 197.872C219.936 197.754 220.592 197.832 221.187 198.098C221.781 198.363 222.288 198.804 222.644 199.365C223 199.926 223.191 200.584 223.192 201.257C223.164 202.195 222.781 203.083 222.126 203.728C221.471 204.373 220.597 204.723 219.695 204.7ZM219.695 198.502C219.18 198.539 218.687 198.732 218.277 199.057C217.866 199.381 217.555 199.824 217.383 200.329C217.211 200.835 217.184 201.382 217.306 201.903C217.428 202.424 217.694 202.897 218.071 203.263C218.448 203.629 218.919 203.873 219.428 203.964C219.936 204.056 220.459 203.991 220.932 203.778C221.406 203.565 221.809 203.213 222.093 202.765C222.376 202.317 222.528 201.793 222.53 201.257C222.505 200.499 222.193 199.782 221.662 199.263C221.131 198.745 220.423 198.466 219.695 198.488V198.502Z" fill="#263238"/>
<path d="M225.093 201.193H140.318V212.654H225.093V201.193Z" fill="#263238"/>
<path d="M225.426 212.999H139.982V200.85H225.426V212.999ZM140.645 212.31H224.764V201.538H140.645V212.31Z" fill="#263238"/>
</svg>
