<svg width="467" height="258" viewBox="0 0 467 258" fill="none" xmlns="http://www.w3.org/2000/svg">
<path d="M449.422 257.32H466.126" stroke="#263238" stroke-linecap="round" stroke-linejoin="round"/>
<path d="M0.5 257.32H438.98" stroke="#263238" stroke-linecap="round" stroke-linejoin="round"/>
<path d="M217.037 156.007L227.623 235.081L238.982 234.406L241.728 173.917L248.785 173.242L293.082 175.609C295.411 175.157 297.767 174.818 300.14 174.592C301.706 174.592 303.668 170.875 294.262 167.5C284.856 164.125 219.741 153.307 218.217 153.307C216.693 153.307 217.037 156.007 217.037 156.007Z" fill="#263238" stroke="#263238" stroke-linecap="round" stroke-linejoin="round"/>
<path d="M278.58 144.82C278.58 144.82 237.864 133.201 198.192 140.77C194.945 141.391 187.992 212.77 187.992 212.77L198.578 215.47L215.042 159.031C215.042 159.031 284.03 176.266 298.145 174.574C312.26 172.882 278.58 144.82 278.58 144.82Z" fill="#263238" stroke="#263238" stroke-linecap="round" stroke-linejoin="round"/>
<path d="M289.949 25.5802C289.949 25.5802 286.817 32.6722 286.817 36.0472C286.912 38.3376 287.533 40.5891 288.644 42.6712C288.644 42.6712 282.495 48.4222 283.633 50.6002C284.332 51.9592 287.464 52.4632 287.464 52.4632C287.464 52.4632 290.21 64.9552 292.559 65.6302C294.908 66.3052 304.711 64.6132 304.711 64.6132L303.041 81.7132L322.49 67.4752L320.924 56.6752C320.924 56.6752 325.622 50.9242 331.114 44.1742C336.605 37.4242 333.463 26.5972 330.331 21.5302C327.199 16.4632 303.281 5.98724 287.214 23.2222L289.949 25.5802Z" fill="#FFE3E3" stroke="#263238" stroke-linecap="round" stroke-linejoin="round"/>
<path d="M353.373 31.2674C352.872 29.7464 358.405 29.3144 356.39 25.6244C354.375 21.9344 348.341 22.1594 348.602 19.5584C348.863 16.9574 350.857 17.1734 347.338 14.3474C343.82 11.5214 341.074 13.0514 340.03 10.2344C338.986 7.41745 338.276 4.59144 338.276 4.59144L336.011 3.07944C334.518 2.08044 333.14 3.07944 332.367 3.82644C330.279 4.41144 328.358 6.75144 326.417 6.52644C323.535 6.22044 322.815 -0.295554 317.021 0.0104462C311.226 0.316446 313.429 8.38944 311.268 7.76844C309.107 7.14744 304.785 4.66343 299.033 5.90544C293.28 7.14743 299.033 11.8004 296.871 11.4944C294.71 11.1884 282.12 9.01044 281.034 11.8004C279.948 14.5904 287.872 18.3164 287.872 18.3164C287.872 18.3164 278.153 15.8324 281.034 20.4854C281.948 21.8677 283.224 23.0461 284.762 23.926C286.299 24.806 288.055 25.363 289.887 25.5524C289.887 25.5524 286.024 26.7854 287.59 28.3064C288.947 29.6204 293.384 29.9264 294.543 29.9804L294.752 30.1694C294.376 30.9794 293.134 34.3544 297.769 35.3984C299.022 35.6774 300.045 35.8574 300.901 35.9744L301.601 36.6404C301.155 37.5393 300.788 38.466 300.505 39.4124C299.784 42.2024 305.537 43.7594 307.698 43.7594C309.859 43.7594 311.654 49.9604 309.859 51.8594C309.666 52.0612 309.523 52.2942 309.437 52.5447C309.351 52.7951 309.324 53.0579 309.358 53.3174C309.024 53.6324 308.742 53.8844 308.596 54.0554C307.552 55.1354 306.581 58.8254 307.833 59.4554C309.086 60.0854 314.097 59.4554 314.097 59.4554C314.097 59.4554 314.849 64.6574 317.115 65.0984C319.38 65.5394 321.134 63.5774 321.896 62.0564C322.658 60.5354 324.663 64.2254 327.68 63.7934C330.697 63.3614 331.95 61.4084 332.963 59.8874C333.975 58.3664 334.967 61.1924 339.749 60.3194C344.53 59.4464 342.515 53.3804 342.515 53.3804C342.515 53.3804 347.046 55.5494 349.562 53.8214C352.078 52.0934 352.83 48.1784 353.08 45.5774C353.331 42.9764 357.361 46.2254 357.361 41.4554C357.361 36.6854 353.895 32.7794 353.373 31.2674Z" fill="#263238"/>
<path d="M304.7 64.6127L310.16 63.3887L304.293 72.3797L304.7 64.6127Z" fill="#263238" stroke="#263238" stroke-linecap="round" stroke-linejoin="round"/>
<path d="M293.404 42.7157C293.404 43.8677 292.935 44.8037 292.36 44.8037C291.786 44.8037 291.316 43.9037 291.316 42.7157C291.316 41.5277 291.786 40.6367 292.36 40.6367C292.935 40.6367 293.404 41.5727 293.404 42.7157Z" fill="#263238"/>
<path d="M290.992 37.5133C290.992 37.5133 293.08 36.7393 295.513 38.5573" stroke="#263238" stroke-linecap="round" stroke-linejoin="round"/>
<path d="M290.847 111.574L248.659 114.517L235.087 113.428C235.087 113.428 216.41 118.9 220.053 119.953C222.639 120.552 225.365 120.527 227.936 119.881C231.447 121.083 235.183 121.723 238.96 121.771C242.03 121.745 245.084 121.391 248.053 120.718L295.117 126.82L290.847 111.574Z" fill="#263238" stroke="#263238" stroke-linecap="round" stroke-linejoin="round"/>
<path d="M321.696 65.4496C321.696 65.4496 297.391 85.7266 293.508 90.7936C289.624 95.8606 288.027 100.253 288.027 104.645C288.027 109.037 291.555 118.838 291.555 118.838L286.847 133.373L273.129 144.173L294.687 173.873C294.687 173.873 304.491 175.565 311.151 172.19C317.812 168.815 322.051 154.325 322.051 147.224C322.051 140.123 320.485 124.922 320.485 124.922C320.485 124.922 329.505 100.622 332.251 91.4686C334.996 82.3156 335.383 74.2336 332.637 69.8686C329.891 65.5036 325.611 63.0826 321.696 65.4496Z" fill="white" stroke="#263238" stroke-linecap="round" stroke-linejoin="round"/>
<path d="M293.466 90.8212C292.683 91.829 291.961 92.8714 291.305 93.9442C301.609 95.1772 315.713 97.0762 329.609 99.6232C330.152 98.0392 330.653 96.5362 331.112 95.1232C318 92.7112 304.71 90.8752 294.478 89.6152C294.071 90.0742 293.727 90.4612 293.466 90.8212Z" fill="#23BB4E" stroke="#263238" stroke-linecap="round" stroke-linejoin="round"/>
<path d="M332.604 90.3255C333.043 88.7775 333.408 87.2565 333.701 85.7805L305.314 79.4805C303.832 80.7855 302.391 82.0815 301.023 83.3145L332.604 90.3255Z" fill="#23BB4E" stroke="#263238" stroke-linecap="round" stroke-linejoin="round"/>
<path d="M321.196 123.093L322.856 118.549C312.562 117.901 301.255 117.172 290.711 116.479C291.17 117.901 291.515 118.837 291.515 118.837L290.774 121.132C300.744 121.789 311.382 122.472 321.196 123.093Z" fill="#23BB4E" stroke="#263238" stroke-linecap="round" stroke-linejoin="round"/>
<path d="M334.372 81.3065C334.538 79.6937 334.576 78.0729 334.486 76.4555L315.12 71.0195L310.84 74.6915L334.372 81.3065Z" fill="#23BB4E" stroke="#263238" stroke-linecap="round" stroke-linejoin="round"/>
<path d="M309.076 173.08C300.432 167.131 289.376 159.58 279.082 152.443L287.664 164.287L302.217 174.295C304.564 174.206 306.879 173.796 309.076 173.08Z" fill="#23BB4E" stroke="#263238" stroke-linecap="round" stroke-linejoin="round"/>
<path d="M320.831 128.08C309.713 127.927 298.312 127.666 288.791 127.252L287.309 131.833C297.331 132.292 309.473 132.571 321.249 132.733C321.092 130.978 320.946 129.376 320.831 128.08Z" fill="#23BB4E" stroke="#263238" stroke-linecap="round" stroke-linejoin="round"/>
<path d="M288.538 100.244C288.17 101.69 287.984 103.165 287.984 104.645V104.87C299.051 105.158 312.936 106.184 326.853 107.471C327.395 105.95 327.897 104.429 328.45 102.971C314.283 101.621 300.032 100.55 288.538 100.244Z" fill="#23BB4E" stroke="#263238" stroke-linecap="round" stroke-linejoin="round"/>
<path d="M287.66 146.62C283.578 144.991 279.642 143.425 275.936 141.967L273.086 144.208L274.85 146.638L285.395 150.823C296.326 154.974 307.517 158.595 318.918 161.668C319.502 160.21 320.024 158.698 320.452 157.168C309.396 154.117 297.056 150.346 287.66 146.62Z" fill="#23BB4E" stroke="#263238" stroke-linecap="round" stroke-linejoin="round"/>
<path d="M322.053 147.223C322.053 146.161 322.053 144.91 321.959 143.551C309 141.676 296.187 139.115 283.592 135.883L278.957 139.528C293.071 143.259 307.458 146.175 322.022 148.258C322.053 147.898 322.053 147.52 322.053 147.223Z" fill="#23BB4E" stroke="#263238" stroke-linecap="round" stroke-linejoin="round"/>
<path d="M227.62 235.082L214.288 247.925C214.288 247.925 204.099 250.625 202.533 251.984C200.967 253.343 204.099 254.009 208.014 255.359C211.929 256.709 226.441 254.684 231.149 254.342C235.857 254 240.159 254.342 241.725 250.967C243.291 247.592 241.725 243.866 241.338 242.516C240.952 241.166 238.979 234.416 238.979 234.416L227.62 235.082Z" fill="#FFE3E3" stroke="#263238" stroke-linecap="round" stroke-linejoin="round"/>
<path d="M213.62 248.105C211.365 248.726 203.859 250.805 202.533 251.984C200.967 253.334 204.099 254.009 208.014 255.359C211.929 256.709 226.441 254.684 231.149 254.342C235.857 254 240.159 254.342 241.725 250.967C243.291 247.592 241.725 243.866 241.338 242.516C241.338 242.363 241.224 242.138 241.15 241.859C234.302 245.558 222.661 249.617 220.166 249.617C217.907 249.404 215.7 248.894 213.62 248.105Z" fill="#23BB4E" stroke="#263238" stroke-linecap="round" stroke-linejoin="round"/>
<path d="M188.021 212.779C188.021 212.779 172.758 227.314 170.774 229.339C168.791 231.364 162.944 232.039 163.331 234.406C163.717 236.773 169.991 236.098 172.727 235.756C175.462 235.414 192.719 231.706 195.068 231.031C197.417 230.356 200.56 229.339 200.957 226.297C201.353 223.255 198.597 215.497 198.597 215.497L188.021 212.779Z" fill="#FFE3E3" stroke="#263238" stroke-linecap="round" stroke-linejoin="round"/>
<path d="M200.947 226.298C201.188 224.399 200.206 220.664 199.444 218.117C195.592 219.737 191.875 224.12 189.965 224.948C187.616 225.956 169.586 231.032 169.586 231.032L168.761 230.627C166.297 231.797 163.019 232.625 163.311 234.407C163.708 236.774 169.972 236.099 172.707 235.757C175.443 235.415 192.7 231.707 195.049 231.032C197.398 230.357 200.572 229.34 200.947 226.298Z" fill="#23BB4E" stroke="#263238" stroke-linecap="round" stroke-linejoin="round"/>
<path d="M330.154 68.8057C326.75 67.1767 319.944 70.1107 317.678 73.3687L314.661 83.1427L303.699 114.751L248.659 114.517C248.659 114.517 233.083 111.556 230.817 111.601C228.552 111.646 216.995 118.063 217.016 119.035C217.037 120.007 220.064 119.935 220.064 119.935L225.347 119.512L230.995 118.423C230.995 118.423 235.933 119.629 238.209 119.584C240.114 119.475 242.004 119.222 243.857 118.828C243.857 118.828 303.313 130.42 307.092 130.42C310.871 130.42 315.037 129.439 316.551 127.162C318.064 124.885 333.933 90.9907 334.685 83.4937C335.437 75.9967 333.536 70.4347 330.154 68.8057Z" fill="#FFE3E3" stroke="#263238" stroke-linecap="round" stroke-linejoin="round"/>
<path d="M220.418 119.414C220.418 119.414 229.188 115.373 230.158 115.211" stroke="#263238" stroke-linecap="round" stroke-linejoin="round"/>
<path d="M228.8 113.023C228.8 113.023 218.85 117.901 218.266 119.746" stroke="#263238" stroke-linecap="round" stroke-linejoin="round"/>
<path d="M347.107 73.7201L340.843 73.4141C340.843 73.4141 324.713 113.617 322.605 128.728C320.496 143.839 321.206 156.529 322.26 160.759C323.315 164.989 328.921 173.152 328.921 173.152L335.926 174.664C335.926 174.664 328.618 158.338 328.221 153.811C327.825 149.284 328.775 131.311 329.265 129.025C333.107 111.52 347.107 73.7201 347.107 73.7201Z" fill="#6E6E6E" stroke="#263238" stroke-linecap="round" stroke-linejoin="round"/>
<path d="M290.732 227.873C290.732 227.873 255.977 242.984 255.236 246.305C254.843 248.811 254.843 251.35 255.236 253.856L256.467 252.803L259.798 245.999L290.993 233.309L290.732 227.873Z" fill="#6E6E6E" stroke="#263238" stroke-linecap="round" stroke-linejoin="round"/>
<path d="M261.593 252.649C261.595 253.308 261.37 253.953 260.947 254.502C260.524 255.05 259.921 255.479 259.215 255.732C258.51 255.985 257.733 256.053 256.983 255.925C256.233 255.798 255.544 255.481 255.002 255.016C254.461 254.551 254.092 253.957 253.942 253.311C253.792 252.665 253.868 251.995 254.16 251.386C254.452 250.777 254.947 250.256 255.583 249.89C256.218 249.524 256.966 249.328 257.73 249.328C258.753 249.328 259.734 249.678 260.458 250.3C261.182 250.923 261.59 251.768 261.593 252.649Z" fill="#263238" stroke="#263238" stroke-linecap="round" stroke-linejoin="round"/>
<path d="M300.848 227.873C300.848 227.873 335.561 242.984 336.261 246.305C336.653 248.811 336.653 251.35 336.261 253.856L335.029 252.821L331.699 246.017L300.504 233.327L300.848 227.873Z" fill="#6E6E6E" stroke="#263238" stroke-linecap="round" stroke-linejoin="round"/>
<path d="M329.953 252.649C329.953 253.306 330.179 253.948 330.602 254.494C331.026 255.04 331.627 255.466 332.331 255.717C333.035 255.969 333.81 256.034 334.557 255.906C335.304 255.778 335.991 255.462 336.53 254.997C337.068 254.533 337.435 253.941 337.584 253.297C337.732 252.653 337.656 251.985 337.365 251.378C337.073 250.771 336.579 250.253 335.946 249.888C335.312 249.523 334.567 249.328 333.805 249.328C332.785 249.331 331.806 249.681 331.084 250.303C330.363 250.926 329.956 251.769 329.953 252.649Z" fill="#263238" stroke="#263238" stroke-linecap="round" stroke-linejoin="round"/>
<path d="M298.052 178.607H292.445V231.194H298.052V178.607Z" fill="#263238" stroke="#263238" stroke-linecap="round" stroke-linejoin="round"/>
<path d="M303.658 183.746H287.184V193.421H303.658V183.746Z" fill="#263238" stroke="#263238" stroke-linecap="round" stroke-linejoin="round"/>
<path d="M334.58 174.007C322.439 172.909 283.33 169.984 248.262 174.007C247.965 174.046 247.685 174.156 247.457 174.325C247.228 174.493 247.059 174.714 246.969 174.962C246.878 175.209 246.87 175.474 246.946 175.725C247.021 175.977 247.177 176.204 247.396 176.383C251.123 179.416 261.469 184.924 288.247 186.436C315.913 188.002 330.007 180.676 335.551 176.734C335.813 176.535 336.002 176.275 336.097 175.985C336.192 175.696 336.188 175.389 336.085 175.101C335.983 174.813 335.786 174.557 335.519 174.363C335.253 174.169 334.926 174.045 334.58 174.007Z" fill="#6E6E6E" stroke="#263238" stroke-linecap="round" stroke-linejoin="round"/>
<path d="M247.354 176.383L247.427 176.437C247.711 176.664 248.083 176.793 248.471 176.797H335.446H335.509C335.782 176.6 335.982 176.338 336.083 176.044C336.185 175.75 336.183 175.436 336.078 175.143C335.973 174.85 335.77 174.59 335.494 174.396C335.218 174.201 334.882 174.082 334.528 174.052C322.376 172.954 283.278 170.029 248.22 174.052C247.931 174.094 247.661 174.203 247.439 174.369C247.217 174.534 247.052 174.749 246.963 174.99C246.873 175.231 246.863 175.488 246.931 175.734C247 175.979 247.146 176.204 247.354 176.383Z" fill="#263238" stroke="#263238" stroke-linecap="round" stroke-linejoin="round"/>
<path d="M301.904 223.031H288.938V234.821H301.904V223.031Z" fill="#263238" stroke="#263238" stroke-linecap="round" stroke-linejoin="round"/>
<path d="M295.951 228.926H294.02V255.971H295.951V228.926Z" fill="#6E6E6E" stroke="#263238" stroke-linecap="round" stroke-linejoin="round"/>
<path d="M296.663 248.924H293.27V256.007H296.663V248.924Z" fill="#263238" stroke="#263238" stroke-linecap="round" stroke-linejoin="round"/>
<path d="M308.563 176.797H300.848L295.941 136.297H301.203L308.563 176.797Z" fill="#6E6E6E" stroke="#263238" stroke-linecap="round" stroke-linejoin="round"/>
<path d="M321.884 139.015H268.953C268.953 139.015 272.805 132.976 275.217 132.373C277.629 131.77 317.635 132.373 317.635 132.373C317.635 132.373 321.884 133.579 321.884 139.015Z" fill="#263238" stroke="#263238" stroke-linecap="round" stroke-linejoin="round"/>
<path d="M268.953 139.016H321.884C321.882 138.51 321.84 138.005 321.759 137.504H269.987C269.36 138.386 268.953 139.016 268.953 139.016Z" fill="#6E6E6E" stroke="#263238" stroke-linecap="round" stroke-linejoin="round"/>
<path d="M104.897 130.863L110.869 144.12C112.957 147.882 113.813 154.281 113.249 158.43L99.2387 254.19C99.202 254.447 99.2284 254.708 99.3162 254.955C99.4039 255.202 99.5509 255.431 99.7478 255.626C99.9447 255.822 100.187 255.979 100.459 256.088C100.731 256.197 101.027 256.256 101.327 256.26C101.826 256.266 102.311 256.118 102.694 255.842C103.077 255.567 103.332 255.182 103.415 254.757L130.183 132.141H120.369L118.647 139.197C118.58 139.453 118.419 139.683 118.187 139.851C117.955 140.02 117.665 140.119 117.362 140.132C117.059 140.145 116.759 140.073 116.508 139.925C116.257 139.777 116.07 139.563 115.974 139.314L112.665 130.314L104.897 130.863Z" fill="white" stroke="#263238" stroke-linecap="round" stroke-linejoin="round"/>
<path d="M119.41 136.083H129.318L130.184 132.141H120.371L119.41 136.083Z" fill="#263238" stroke="#263238" stroke-linecap="round" stroke-linejoin="round"/>
<path d="M112.663 130.332L104.844 130.863L107.193 136.083H114.783L112.663 130.332Z" fill="#263238" stroke="#263238" stroke-linecap="round" stroke-linejoin="round"/>
<path d="M255.619 130.863L249.647 144.12C247.559 147.882 246.693 154.281 247.257 158.43L261.278 254.19C261.314 254.447 261.288 254.708 261.2 254.955C261.112 255.202 260.965 255.431 260.768 255.626C260.572 255.822 260.329 255.979 260.057 256.088C259.785 256.197 259.49 256.256 259.19 256.26C258.691 256.266 258.206 256.118 257.823 255.842C257.44 255.567 257.184 255.182 257.102 254.757L230.281 132.141H240.095L241.817 139.197C241.88 139.454 242.039 139.686 242.27 139.857C242.502 140.028 242.792 140.128 243.096 140.141C243.4 140.154 243.701 140.08 243.951 139.931C244.202 139.781 244.387 139.565 244.48 139.314L247.8 130.314L255.619 130.863Z" fill="white" stroke="#263238" stroke-linecap="round" stroke-linejoin="round"/>
<path d="M240.095 132.141H230.281L231.148 136.083H241.055L240.095 132.141Z" fill="#263238" stroke="#263238" stroke-linecap="round" stroke-linejoin="round"/>
<path d="M245.68 136.083H253.27L255.619 130.863L247.799 130.332L245.68 136.083Z" fill="#263238" stroke="#263238" stroke-linecap="round" stroke-linejoin="round"/>
<path d="M266.843 124.238H94.3633V132.095H266.843V124.238Z" fill="white" stroke="#263238" stroke-linecap="round" stroke-linejoin="round"/>
<path d="M254.054 122.025H209.977V124.293H254.054V122.025Z" fill="white" stroke="#263238" stroke-linecap="round" stroke-linejoin="round"/>
<path d="M183.418 123.788H164.187C162.557 123.788 160.988 123.248 159.805 122.28C158.622 121.312 157.915 119.99 157.829 118.586C157.791 117.979 157.873 117.37 158.07 116.786L170.117 86.9152C170.239 86.6121 170.496 86.3631 170.831 86.223C171.165 86.0829 171.551 86.0632 171.903 86.1682C172.254 86.2732 172.543 86.4944 172.706 86.783C172.868 87.0716 172.891 87.4041 172.769 87.7072L160.742 117.515C160.642 117.829 160.604 118.154 160.627 118.478C160.678 119.263 161.075 120.001 161.737 120.542C162.399 121.082 163.276 121.384 164.187 121.385H183.418C183.769 121.411 184.097 121.55 184.335 121.774C184.574 121.998 184.706 122.292 184.706 122.596C184.706 122.9 184.574 123.193 184.335 123.417C184.097 123.641 183.769 123.78 183.418 123.806V123.788Z" fill="#263238" stroke="#263238" stroke-linecap="round" stroke-linejoin="round"/>
<path d="M178.446 46.0195L199.681 116.112L197.363 117.615C197.363 117.615 170.668 99.5875 170.668 84.5215C170.668 69.4555 175.314 46.4605 175.314 46.4605L178.446 46.0195Z" fill="white" stroke="#263238" stroke-linecap="round" stroke-linejoin="round"/>
<path d="M178.448 46.0195L175.285 46.4965L197.366 117.615L199.683 116.112L178.448 46.0195Z" fill="#263238" stroke="#263238" stroke-linecap="round" stroke-linejoin="round"/>
<path d="M119.661 110.081C119.661 110.081 112.123 99.6775 118.157 93.8275C124.192 87.9775 133.995 90.8215 135.999 96.2215C138.004 101.621 133.744 110.738 133.744 110.738L119.661 110.081Z" fill="#23BB4E" stroke="#263238" stroke-linecap="round" stroke-linejoin="round"/>
<path d="M119.921 98.1646C118.658 98.1646 113.887 96.6436 112.373 94.6906C110.859 92.7376 110.619 88.3906 114.889 88.3906C119.159 88.3906 120.673 94.8976 120.673 94.8976L120.924 97.2736" fill="#23BB4E"/>
<path d="M119.921 98.1646C118.658 98.1646 113.887 96.6436 112.373 94.6906C110.859 92.7376 110.619 88.3906 114.889 88.3906C119.159 88.3906 120.673 94.8976 120.673 94.8976L120.924 97.2736" stroke="#263238" stroke-linecap="round" stroke-linejoin="round"/>
<path d="M123.782 94.1163C122.654 93.6303 119.167 90.4352 118.823 88.1132C118.478 85.7912 120.504 81.8132 124.335 83.4512C128.167 85.0892 126.141 91.4972 126.141 91.4972L125.097 93.7293" fill="#23BB4E"/>
<path d="M123.782 94.1163C122.654 93.6303 119.167 90.4352 118.823 88.1132C118.478 85.7912 120.504 81.8132 124.335 83.4512C128.167 85.0892 126.141 91.4972 126.141 91.4972L125.097 93.7293" stroke="#263238" stroke-linecap="round" stroke-linejoin="round"/>
<path d="M128.345 95.2038C127.718 94.3038 126.873 89.9388 128.084 87.8418C129.295 85.7448 133.544 83.4048 135.663 86.5998C137.782 89.7948 132.04 94.1508 132.04 94.1508L129.764 95.5278" fill="#23BB4E"/>
<path d="M128.345 95.2038C127.718 94.3038 126.873 89.9388 128.084 87.8418C129.295 85.7448 133.544 83.4048 135.663 86.5998C137.782 89.7948 132.04 94.1508 132.04 94.1508L129.764 95.5278" stroke="#263238" stroke-linecap="round" stroke-linejoin="round"/>
<path d="M129.849 102.971C129.64 101.9 130.58 97.571 132.563 95.987C134.547 94.403 139.464 93.449 140.174 97.085C140.884 100.721 133.691 103.07 133.691 103.07L131.008 103.682" fill="#23BB4E"/>
<path d="M129.849 102.971C129.64 101.9 130.58 97.571 132.563 95.987C134.547 94.403 139.464 93.449 140.174 97.085C140.884 100.721 133.691 103.07 133.691 103.07L131.008 103.682" stroke="#263238" stroke-linecap="round" stroke-linejoin="round"/>
<path d="M112.926 92.082L113.771 93.234" stroke="white" stroke-linecap="round" stroke-linejoin="round"/>
<path d="M115.348 94.9082L116.684 95.8442" stroke="white" stroke-linecap="round" stroke-linejoin="round"/>
<path d="M113.898 89.8848L115.235 91.5588" stroke="white" stroke-linecap="round" stroke-linejoin="round"/>
<path d="M117.051 92.918L118.512 95.213" stroke="white" stroke-linecap="round" stroke-linejoin="round"/>
<path d="M120.441 87.375L120.932 88.635" stroke="white" stroke-linecap="round" stroke-linejoin="round"/>
<path d="M122.145 90.9297L122.99 91.9737" stroke="white" stroke-linecap="round" stroke-linejoin="round"/>
<path d="M121.777 84.8633L122.874 86.9603" stroke="white" stroke-linecap="round" stroke-linejoin="round"/>
<path d="M117.539 99.6055L117.894 101.495" stroke="white" stroke-linecap="round" stroke-linejoin="round"/>
<path d="M118.625 103.268L119.116 104.834" stroke="white" stroke-linecap="round" stroke-linejoin="round"/>
<path d="M119.836 99.7129L120.327 101.801" stroke="white" stroke-linecap="round" stroke-linejoin="round"/>
<path d="M121.414 103.268L121.779 104.834" stroke="white" stroke-linecap="round" stroke-linejoin="round"/>
<path d="M122.27 96.9961L122.99 99.9211" stroke="white" stroke-linecap="round" stroke-linejoin="round"/>
<path d="M123.961 102.746L124.086 104.105" stroke="white" stroke-linecap="round" stroke-linejoin="round"/>
<path d="M125.297 96.0508L125.902 98.7688" stroke="white" stroke-linecap="round" stroke-linejoin="round"/>
<path d="M125.902 101.594L126.142 104.42" stroke="white" stroke-linecap="round" stroke-linejoin="round"/>
<path d="M128.816 97.1035V99.3985" stroke="white" stroke-linecap="round" stroke-linejoin="round"/>
<path d="M128.449 102.324L128.574 104.106" stroke="white" stroke-linecap="round" stroke-linejoin="round"/>
<path d="M131.854 86.2227L131.238 87.4827" stroke="white" stroke-linecap="round" stroke-linejoin="round"/>
<path d="M130.996 88.9414L130.391 90.7234" stroke="white" stroke-linecap="round" stroke-linejoin="round"/>
<path d="M134.514 88.6348L133.543 90.2998" stroke="white" stroke-linecap="round" stroke-linejoin="round"/>
<path d="M131.487 92.1895L130.391 93.2335" stroke="white" stroke-linecap="round" stroke-linejoin="round"/>
<path d="M129.182 88.5273L128.816 89.8863" stroke="white" stroke-linecap="round" stroke-linejoin="round"/>
<path d="M134.516 96.0508L133.18 97.9408" stroke="white" stroke-linecap="round" stroke-linejoin="round"/>
<path d="M132.332 99.084L131.602 100.758" stroke="white" stroke-linecap="round" stroke-linejoin="round"/>
<path d="M133.43 101.595L135.612 100.551" stroke="white" stroke-linecap="round" stroke-linejoin="round"/>
<path d="M136.937 96.0508L135.852 97.6258" stroke="white" stroke-linecap="round" stroke-linejoin="round"/>
<path d="M138.033 97.832L136.582 98.768" stroke="white" stroke-linecap="round" stroke-linejoin="round"/>
<path d="M136.467 106.455H115.848V124.23H136.467V106.455Z" fill="#263238" stroke="#263238" stroke-linecap="round" stroke-linejoin="round"/>
<path d="M371.879 126.586L383.833 225.388" stroke="#263238" stroke-width="2" stroke-miterlimit="10"/>
<path d="M381.913 206.479L376.484 201.547" stroke="#263238" stroke-width="2" stroke-miterlimit="10"/>
<path d="M378.132 203.023C378.122 202.268 377.924 201.524 377.551 200.84C377.178 200.157 376.639 199.551 375.971 199.063C374.582 197.983 367.253 195.328 366.575 197.551C365.802 199.972 373.309 204.724 378.132 203.023Z" fill="#23BB4E" stroke="#263238" stroke-miterlimit="10"/>
<path d="M378.134 203.023L371.16 199.279" stroke="#263238" stroke-width="0.5" stroke-miterlimit="10"/>
<path d="M383.27 217.72L377.852 212.779" stroke="#263238" stroke-width="2" stroke-miterlimit="10"/>
<path d="M379.47 214.264C379.461 213.508 379.264 212.763 378.893 212.079C378.522 211.394 377.985 210.786 377.32 210.295C375.921 209.224 368.602 206.569 367.924 208.792C367.172 211.213 374.668 215.965 379.47 214.264Z" fill="#23BB4E" stroke="#263238" stroke-miterlimit="10"/>
<path d="M379.49 214.265L372.516 210.512" stroke="#263238" stroke-width="0.5" stroke-miterlimit="10"/>
<path d="M378.593 179.066L373.164 174.125" stroke="#263238" stroke-width="2" stroke-miterlimit="10"/>
<path d="M374.812 175.6C374.801 174.845 374.603 174.101 374.23 173.418C373.857 172.735 373.318 172.129 372.65 171.64C371.262 170.569 363.933 167.905 363.254 170.137C362.482 172.549 369.988 177.301 374.812 175.6Z" fill="#23BB4E" stroke="#263238" stroke-miterlimit="10"/>
<path d="M374.814 175.601L367.84 171.857" stroke="#263238" stroke-width="0.5" stroke-miterlimit="10"/>
<path d="M379.95 190.297L374.531 185.365" stroke="#263238" stroke-width="2" stroke-miterlimit="10"/>
<path d="M376.17 186.842C376.16 186.086 375.963 185.341 375.593 184.657C375.222 183.972 374.685 183.364 374.019 182.873C372.62 181.802 365.302 179.147 364.623 181.37C363.809 183.791 371.347 188.543 376.17 186.842Z" fill="#23BB4E" stroke="#263238" stroke-miterlimit="10"/>
<path d="M376.169 186.842L369.195 183.098" stroke="#263238" stroke-width="0.5" stroke-miterlimit="10"/>
<path d="M376.379 160.805L370.961 155.873" stroke="#263238" stroke-width="2" stroke-miterlimit="10"/>
<path d="M372.598 157.35C372.588 156.594 372.391 155.849 372.021 155.165C371.65 154.48 371.113 153.872 370.447 153.381C369.048 152.31 361.73 149.654 361.051 151.877C360.279 154.298 367.775 159.051 372.598 157.35Z" fill="#23BB4E" stroke="#263238" stroke-miterlimit="10"/>
<path d="M372.599 157.349L365.625 153.605" stroke="#263238" stroke-width="0.5" stroke-miterlimit="10"/>
<path d="M374.153 142.471L368.734 137.539" stroke="#263238" stroke-width="2" stroke-miterlimit="10"/>
<path d="M370.386 139.015C370.376 138.259 370.177 137.514 369.805 136.829C369.432 136.144 368.893 135.537 368.225 135.047C366.836 133.976 359.507 131.321 358.829 133.544C358.056 135.965 365.552 140.716 370.386 139.015Z" fill="#23BB4E" stroke="#263238" stroke-miterlimit="10"/>
<path d="M370.384 139.015L363.41 135.271" stroke="#263238" stroke-width="0.5" stroke-miterlimit="10"/>
<path d="M380.992 199.837L385.116 194.041" stroke="#263238" stroke-width="2" stroke-miterlimit="10"/>
<path d="M383.865 195.779C383.693 195.038 383.708 194.274 383.908 193.538C384.108 192.802 384.488 192.112 385.023 191.513C386.13 190.217 392.665 186.311 393.877 188.372C395.192 190.604 388.991 196.58 383.865 195.779Z" fill="#23BB4E" stroke="#263238" stroke-miterlimit="10"/>
<path d="M383.863 195.779L390.138 190.604" stroke="#263238" stroke-width="0.5" stroke-miterlimit="10"/>
<path d="M377.41 170.263L381.534 164.467" stroke="#263238" stroke-width="2" stroke-miterlimit="10"/>
<path d="M380.283 166.204C380.111 165.463 380.126 164.698 380.326 163.962C380.526 163.227 380.906 162.536 381.441 161.938C382.548 160.642 389.083 156.745 390.294 158.797C391.61 161.02 385.419 167.014 380.283 166.204Z" fill="#23BB4E" stroke="#263238" stroke-miterlimit="10"/>
<path d="M380.281 166.204L386.556 161.029" stroke="#263238" stroke-width="0.5" stroke-miterlimit="10"/>
<path d="M375.848 157.267L379.971 151.471" stroke="#263238" stroke-width="2" stroke-miterlimit="10"/>
<path d="M378.708 153.209C378.54 152.469 378.557 151.706 378.759 150.972C378.961 150.238 379.342 149.549 379.878 148.952C380.974 147.647 387.509 143.75 388.72 145.802C390.046 148.034 383.845 154.019 378.708 153.209Z" fill="#23BB4E" stroke="#263238" stroke-miterlimit="10"/>
<path d="M378.707 153.208L384.992 148.033" stroke="#263238" stroke-width="0.5" stroke-miterlimit="10"/>
<path d="M373.539 138.214L377.663 132.418" stroke="#263238" stroke-width="2" stroke-miterlimit="10"/>
<path d="M376.4 134.156C376.231 133.415 376.249 132.653 376.45 131.918C376.652 131.184 377.033 130.496 377.569 129.899C378.665 128.603 385.201 124.697 386.412 126.749C387.738 128.981 381.557 134.966 376.4 134.156Z" fill="#23BB4E" stroke="#263238" stroke-miterlimit="10"/>
<path d="M376.398 134.156L382.683 128.99" stroke="#263238" stroke-width="0.5" stroke-miterlimit="10"/>
<path d="M371.775 126.038C371.603 125.297 371.618 124.532 371.818 123.796C372.018 123.061 372.398 122.37 372.934 121.772C374.041 120.476 380.576 116.57 381.787 118.622C383.103 120.854 376.912 126.821 371.775 126.038Z" fill="#23BB4E" stroke="#263238" stroke-miterlimit="10"/>
<path d="M371.773 126.038L378.048 120.863" stroke="#263238" stroke-width="0.5" stroke-miterlimit="10"/>
<path d="M372.162 126.253C371.288 126.322 370.408 126.229 369.58 125.981C368.751 125.733 367.994 125.334 367.359 124.813C365.981 123.733 362.139 117.721 364.655 116.893C367.349 116.02 373.602 121.942 372.162 126.253Z" fill="#23BB4E" stroke="#263238" stroke-miterlimit="10"/>
<path d="M372.138 126.254L366.824 120.332" stroke="#263238" stroke-width="0.5" stroke-miterlimit="10"/>
<path d="M403.429 140.195L391.527 239.006" stroke="#263238" stroke-width="2" stroke-miterlimit="10"/>
<path d="M394.159 220.159L390.035 214.363" stroke="#263238" stroke-width="2" stroke-miterlimit="10"/>
<path d="M391.288 216.11C391.461 215.369 391.446 214.604 391.246 213.868C391.046 213.133 390.666 212.442 390.13 211.844C389.023 210.548 382.488 206.651 381.277 208.703C379.961 210.935 386.162 216.911 391.288 216.11Z" fill="#23BB4E" stroke="#263238" stroke-miterlimit="10"/>
<path d="M391.285 216.11L385.355 211.205" stroke="#263238" stroke-width="0.5" stroke-miterlimit="10"/>
<path d="M397.456 192.737L393.332 186.941" stroke="#263238" stroke-width="2" stroke-miterlimit="10"/>
<path d="M394.596 188.686C394.764 187.944 394.747 187.18 394.546 186.444C394.344 185.709 393.962 185.018 393.427 184.42C392.32 183.124 385.784 179.227 384.573 181.279C383.258 183.52 389.459 189.487 394.596 188.686Z" fill="#23BB4E" stroke="#263238" stroke-miterlimit="10"/>
<path d="M394.598 188.686L388.668 183.781" stroke="#263238" stroke-width="0.5" stroke-miterlimit="10"/>
<path d="M396.111 203.978L391.977 198.182" stroke="#263238" stroke-width="2" stroke-miterlimit="10"/>
<path d="M393.24 199.918C393.412 199.176 393.396 198.411 393.194 197.675C392.992 196.939 392.609 196.249 392.071 195.652C390.964 194.365 384.439 190.459 383.228 192.511C381.903 194.743 388.104 200.728 393.24 199.918Z" fill="#23BB4E" stroke="#263238" stroke-miterlimit="10"/>
<path d="M393.239 199.919L387.309 195.014" stroke="#263238" stroke-width="0.5" stroke-miterlimit="10"/>
<path d="M399.658 174.485L395.523 168.689" stroke="#263238" stroke-width="2" stroke-miterlimit="10"/>
<path d="M396.787 170.426C396.958 169.685 396.943 168.92 396.741 168.184C396.539 167.448 396.156 166.758 395.618 166.16C394.522 164.864 387.986 160.967 386.775 163.019C385.449 165.251 391.661 171.236 396.787 170.426Z" fill="#23BB4E" stroke="#263238" stroke-miterlimit="10"/>
<path d="M396.789 170.426L390.859 165.521" stroke="#263238" stroke-width="0.5" stroke-miterlimit="10"/>
<path d="M401.862 156.142L397.738 150.355" stroke="#263238" stroke-width="2" stroke-miterlimit="10"/>
<path d="M398.992 152.092C399.164 151.351 399.149 150.587 398.949 149.851C398.749 149.115 398.369 148.425 397.833 147.826C396.726 146.53 390.191 142.633 388.98 144.685C387.664 146.917 393.866 152.92 398.992 152.092Z" fill="#23BB4E" stroke="#263238" stroke-miterlimit="10"/>
<path d="M398.992 152.092L393.062 147.188" stroke="#263238" stroke-width="0.5" stroke-miterlimit="10"/>
<path d="M394.855 213.49L400.274 208.549" stroke="#263238" stroke-width="2" stroke-miterlimit="10"/>
<path d="M398.625 210.035C398.635 209.278 398.834 208.533 399.206 207.848C399.579 207.163 400.118 206.556 400.786 206.066C402.175 204.995 409.493 202.331 410.182 204.554C410.955 206.975 403.48 211.727 398.625 210.035Z" fill="#23BB4E" stroke="#263238" stroke-miterlimit="10"/>
<path d="M398.625 210.035L406.006 206.084" stroke="#263238" stroke-width="0.5" stroke-miterlimit="10"/>
<path d="M398.418 183.916L403.836 178.975" stroke="#263238" stroke-width="2" stroke-miterlimit="10"/>
<path d="M402.188 180.46C402.198 179.704 402.396 178.958 402.769 178.274C403.142 177.589 403.68 176.981 404.349 176.491C405.737 175.42 413.056 172.756 413.745 174.979C414.517 177.4 407.021 182.152 402.188 180.46Z" fill="#23BB4E" stroke="#263238" stroke-miterlimit="10"/>
<path d="M402.188 180.461L409.569 176.51" stroke="#263238" stroke-width="0.5" stroke-miterlimit="10"/>
<path d="M399.984 170.921L405.403 165.98" stroke="#263238" stroke-width="2" stroke-miterlimit="10"/>
<path d="M403.754 167.464C403.764 166.708 403.962 165.962 404.335 165.278C404.708 164.593 405.247 163.985 405.915 163.495C407.303 162.424 414.622 159.76 415.311 161.983C416.084 164.404 408.588 169.12 403.754 167.464Z" fill="#23BB4E" stroke="#263238" stroke-miterlimit="10"/>
<path d="M403.754 167.465L411.135 163.514" stroke="#263238" stroke-width="0.5" stroke-miterlimit="10"/>
<path d="M402.27 151.867L407.688 146.926" stroke="#263238" stroke-width="2" stroke-miterlimit="10"/>
<path d="M406.051 148.421C406.06 147.666 406.257 146.921 406.628 146.236C406.999 145.552 407.536 144.943 408.201 144.452C409.59 143.381 416.919 140.717 417.597 142.94C418.37 145.352 410.874 150.104 406.051 148.421Z" fill="#23BB4E" stroke="#263238" stroke-miterlimit="10"/>
<path d="M406.051 148.412L413.432 144.461" stroke="#263238" stroke-width="0.5" stroke-miterlimit="10"/>
<path d="M403.48 139.637C403.49 138.881 403.687 138.136 404.058 137.452C404.429 136.767 404.965 136.159 405.631 135.668C407.02 134.597 414.349 131.933 415.027 134.165C415.779 136.577 408.283 141.338 403.48 139.637Z" fill="#23BB4E" stroke="#263238" stroke-miterlimit="10"/>
<path d="M403.461 139.637L410.842 135.686" stroke="#263238" stroke-width="0.5" stroke-miterlimit="10"/>
<path d="M403.762 139.915C402.887 139.825 402.046 139.573 401.295 139.177C400.543 138.781 399.9 138.25 399.408 137.62C398.364 136.315 396.015 129.754 398.656 129.394C401.527 129.034 406.225 135.955 403.762 139.915Z" fill="#23BB4E" stroke="#263238" stroke-miterlimit="10"/>
<path d="M403.762 139.915L399.973 133.174" stroke="#263238" stroke-width="0.5" stroke-miterlimit="10"/>
<path d="M389.793 99.9551V224.911" stroke="#263238" stroke-width="2" stroke-miterlimit="10"/>
<path d="M389.908 206.12L385.105 200.729" stroke="#263238" stroke-width="2" stroke-miterlimit="10"/>
<path d="M386.567 202.349C386.647 201.596 386.539 200.837 386.251 200.123C385.963 199.409 385.501 198.757 384.896 198.209C383.643 197.021 376.68 193.709 375.719 195.869C374.675 198.209 381.555 203.609 386.567 202.349Z" fill="#23BB4E" stroke="#263238" stroke-miterlimit="10"/>
<path d="M386.569 202.348L380.086 197.992" stroke="#263238" stroke-width="0.5" stroke-miterlimit="10"/>
<path d="M389.908 182.639L385.105 177.248" stroke="#263238" stroke-width="2" stroke-miterlimit="10"/>
<path d="M386.567 178.858C386.647 178.106 386.539 177.349 386.251 176.636C385.963 175.924 385.501 175.272 384.896 174.727C383.643 173.539 376.68 170.227 375.719 172.387C374.675 174.727 381.555 180.118 386.567 178.858Z" fill="#23BB4E" stroke="#263238" stroke-miterlimit="10"/>
<path d="M386.569 178.859L380.086 174.512" stroke="#263238" stroke-width="0.5" stroke-miterlimit="10"/>
<path d="M389.908 155.072L385.105 149.672" stroke="#263238" stroke-width="2" stroke-miterlimit="10"/>
<path d="M386.567 151.292C386.647 150.54 386.539 149.781 386.251 149.067C385.963 148.353 385.501 147.7 384.896 147.152C383.643 145.964 376.68 142.652 375.719 144.821C374.675 147.152 381.555 152.552 386.567 151.292Z" fill="#23BB4E" stroke="#263238" stroke-miterlimit="10"/>
<path d="M386.569 151.292L380.086 146.945" stroke="#263238" stroke-width="0.5" stroke-miterlimit="10"/>
<path d="M389.908 136.711L385.105 131.32" stroke="#263238" stroke-width="2" stroke-miterlimit="10"/>
<path d="M386.567 132.941C386.647 132.188 386.539 131.429 386.251 130.715C385.963 130.001 385.501 129.348 384.896 128.801C383.643 127.613 376.68 124.301 375.719 126.461C374.675 128.801 381.555 134.201 386.567 132.941Z" fill="#23BB4E" stroke="#263238" stroke-miterlimit="10"/>
<path d="M386.569 132.94L380.086 128.584" stroke="#263238" stroke-width="0.5" stroke-miterlimit="10"/>
<path d="M389.908 118.28L385.105 112.889" stroke="#263238" stroke-width="2" stroke-miterlimit="10"/>
<path d="M386.567 114.509C386.647 113.756 386.539 112.998 386.251 112.283C385.963 111.569 385.501 110.917 384.896 110.369C383.643 109.181 376.68 105.869 375.719 108.029C374.675 110.369 381.555 115.76 386.567 114.509Z" fill="#23BB4E" stroke="#263238" stroke-miterlimit="10"/>
<path d="M386.569 114.508L380.086 110.152" stroke="#263238" stroke-width="0.5" stroke-miterlimit="10"/>
<path d="M389.805 213.293L394.607 207.902" stroke="#263238" stroke-width="2" stroke-miterlimit="10"/>
<path d="M393.147 209.513C393.067 208.762 393.174 208.004 393.463 207.292C393.751 206.579 394.213 205.928 394.817 205.382C396.07 204.185 403.033 200.882 403.994 203.042C405.038 205.382 398.147 210.773 393.147 209.513Z" fill="#23BB4E" stroke="#263238" stroke-miterlimit="10"/>
<path d="M393.145 209.513L400.014 204.932" stroke="#263238" stroke-width="0.5" stroke-miterlimit="10"/>
<path d="M389.805 175.942L394.607 170.551" stroke="#263238" stroke-width="2" stroke-miterlimit="10"/>
<path d="M393.147 172.171C393.067 171.419 393.174 170.66 393.462 169.946C393.75 169.232 394.212 168.579 394.817 168.031C396.07 166.843 403.033 163.531 403.994 165.691C405.038 168.031 398.148 173.431 393.147 172.171Z" fill="#23BB4E" stroke="#263238" stroke-miterlimit="10"/>
<path d="M393.145 172.172L400.014 167.582" stroke="#263238" stroke-width="0.5" stroke-miterlimit="10"/>
<path d="M389.805 157.51L394.607 152.119" stroke="#263238" stroke-width="2" stroke-miterlimit="10"/>
<path d="M393.147 153.73C393.067 152.978 393.174 152.221 393.463 151.508C393.751 150.796 394.213 150.145 394.817 149.599C396.07 148.402 403.033 145.099 403.994 147.259C405.038 149.599 398.147 154.99 393.147 153.73Z" fill="#23BB4E" stroke="#263238" stroke-miterlimit="10"/>
<path d="M393.145 153.731L400.014 149.15" stroke="#263238" stroke-width="0.5" stroke-miterlimit="10"/>
<path d="M389.805 133.148L394.607 127.748" stroke="#263238" stroke-width="2" stroke-miterlimit="10"/>
<path d="M393.143 129.367C393.063 128.615 393.17 127.857 393.458 127.145C393.746 126.432 394.209 125.781 394.814 125.236C396.066 124.039 403.03 120.736 403.99 122.896C405.034 125.236 398.144 130.627 393.143 129.367Z" fill="#23BB4E" stroke="#263238" stroke-miterlimit="10"/>
<path d="M393.145 129.368L400.014 124.787" stroke="#263238" stroke-width="0.5" stroke-miterlimit="10"/>
<path d="M389.805 113.996L394.607 108.596" stroke="#263238" stroke-width="2" stroke-miterlimit="10"/>
<path d="M393.147 110.216C393.067 109.463 393.174 108.705 393.462 107.99C393.75 107.276 394.212 106.624 394.817 106.076C396.07 104.888 403.033 101.576 403.994 103.736C405.038 106.121 398.148 111.521 393.147 110.216Z" fill="#23BB4E" stroke="#263238" stroke-miterlimit="10"/>
<path d="M393.145 110.216L400.014 105.635" stroke="#263238" stroke-width="0.5" stroke-miterlimit="10"/>
<path d="M389.51 101.72C389.43 100.967 389.538 100.208 389.826 99.4944C390.114 98.7803 390.576 98.1277 391.181 97.5802C392.433 96.3922 399.407 93.0802 400.368 95.2402C401.391 97.5802 394.521 102.98 389.51 101.72Z" fill="#23BB4E" stroke="#263238" stroke-miterlimit="10"/>
<path d="M389.512 101.72L396.381 97.1387" stroke="#263238" stroke-width="0.5" stroke-miterlimit="10"/>
<path d="M389.848 101.972C388.972 101.963 388.109 101.792 387.316 101.47C386.524 101.149 385.821 100.684 385.254 100.109C384.012 98.9116 380.943 92.5936 383.521 92.0086C386.33 91.3426 391.832 97.8136 389.848 101.972Z" fill="#23BB4E" stroke="#263238" stroke-miterlimit="10"/>
<path d="M389.847 101.972L385.285 95.6094" stroke="#263238" stroke-width="0.5" stroke-miterlimit="10"/>
<path d="M395.756 257.321H380.409L378.488 223.904H397.677L395.756 257.321Z" fill="#263238" stroke="#263238" stroke-miterlimit="10"/>
</svg>
