<svg width="58" height="185" viewBox="0 0 58 185" fill="none" xmlns="http://www.w3.org/2000/svg">
<path d="M13.0527 38.9727L24.5027 148.753" stroke="#263238" stroke-width="2" stroke-miterlimit="10"/>
<path d="M22.6629 127.742L17.4629 122.262" stroke="#263238" stroke-width="2" stroke-miterlimit="10"/>
<path d="M19.0428 123.905C19.0335 123.066 18.8438 122.239 18.4867 121.479C18.1295 120.72 17.6132 120.047 16.9728 119.505C15.6428 118.305 8.62283 115.355 7.97283 117.825C7.23283 120.515 14.4228 125.795 19.0428 123.905Z" fill="#23BB4E" stroke="#263238" stroke-miterlimit="10"/>
<path d="M19.0433 123.902L12.3633 119.742" stroke="#263238" stroke-width="0.5" stroke-miterlimit="10"/>
<path d="M23.9634 140.232L18.7734 134.742" stroke="#263238" stroke-width="2" stroke-miterlimit="10"/>
<path d="M20.3231 136.393C20.3139 135.554 20.1253 134.726 19.77 133.965C19.4147 133.205 18.9009 132.529 18.2631 131.983C16.9231 130.793 9.91315 127.843 9.26315 130.313C8.54315 133.003 15.7231 138.283 20.3231 136.393Z" fill="#23BB4E" stroke="#263238" stroke-miterlimit="10"/>
<path d="M20.3421 136.393L13.6621 132.223" stroke="#263238" stroke-width="0.5" stroke-miterlimit="10"/>
<path d="M19.4832 97.283L14.2832 91.793" stroke="#263238" stroke-width="2" stroke-miterlimit="10"/>
<path d="M15.8632 93.4343C15.8532 92.5955 15.6632 91.7686 15.3061 91.0095C14.949 90.2504 14.433 89.5768 13.7931 89.0343C12.4631 87.8443 5.44314 84.8843 4.79314 87.3643C4.05314 90.0443 11.2432 95.3243 15.8632 93.4343Z" fill="#23BB4E" stroke="#263238" stroke-miterlimit="10"/>
<path d="M15.8636 93.4334L9.18359 89.2734" stroke="#263238" stroke-width="0.5" stroke-miterlimit="10"/>
<path d="M20.7838 109.761L15.5938 104.281" stroke="#263238" stroke-width="2" stroke-miterlimit="10"/>
<path d="M17.1632 105.924C17.154 105.085 16.9654 104.257 16.6101 103.497C16.2548 102.736 15.7411 102.06 15.1033 101.514C13.7633 100.324 6.75325 97.3743 6.10325 99.8443C5.32325 102.534 12.5432 107.814 17.1632 105.924Z" fill="#23BB4E" stroke="#263238" stroke-miterlimit="10"/>
<path d="M17.1624 105.922L10.4824 101.762" stroke="#263238" stroke-width="0.5" stroke-miterlimit="10"/>
<path d="M17.3638 76.9917L12.1738 71.5117" stroke="#263238" stroke-width="2" stroke-miterlimit="10"/>
<path d="M13.7439 73.1548C13.7346 72.3154 13.546 71.4877 13.1907 70.7271C12.8354 69.9665 12.3216 69.2907 11.6838 68.7448C10.3438 67.5548 3.33384 64.6048 2.68384 67.0748C1.94384 69.7648 9.12387 75.0448 13.7439 73.1548Z" fill="#23BB4E" stroke="#263238" stroke-miterlimit="10"/>
<path d="M13.7425 73.1522L7.0625 68.9922" stroke="#263238" stroke-width="0.5" stroke-miterlimit="10"/>
<path d="M15.233 56.6245L10.043 51.1445" stroke="#263238" stroke-width="2" stroke-miterlimit="10"/>
<path d="M11.623 52.7837C11.6131 51.9434 11.4232 51.115 11.0662 50.3543C10.7091 49.5935 10.1931 48.9182 9.55298 48.3737C8.22298 47.1837 1.20298 44.2337 0.552976 46.7037C-0.187024 49.3937 6.99295 54.6737 11.623 52.7837Z" fill="#23BB4E" stroke="#263238" stroke-miterlimit="10"/>
<path d="M11.6234 52.7811L4.94336 48.6211" stroke="#263238" stroke-width="0.5" stroke-miterlimit="10"/>
<path d="M21.7832 120.362L25.7332 113.922" stroke="#263238" stroke-width="2" stroke-miterlimit="10"/>
<path d="M24.5334 115.853C24.3692 115.03 24.3833 114.181 24.5748 113.363C24.7663 112.546 25.1307 111.778 25.6434 111.113C26.7034 109.673 32.9634 105.333 34.1234 107.623C35.3834 110.103 29.4434 116.743 24.5334 115.853Z" fill="#23BB4E" stroke="#263238" stroke-miterlimit="10"/>
<path d="M24.5332 115.852L30.5432 110.102" stroke="#263238" stroke-width="0.5" stroke-miterlimit="10"/>
<path d="M18.3535 87.5025L22.3035 81.0625" stroke="#263238" stroke-width="2" stroke-miterlimit="10"/>
<path d="M21.1037 82.9941C20.9395 82.1706 20.9537 81.3215 21.1451 80.5039C21.3366 79.6863 21.701 78.9191 22.2137 78.2541C23.2737 76.8141 29.5337 72.4841 30.6937 74.7641C31.9537 77.2341 26.0237 83.8941 21.1037 82.9941Z" fill="#23BB4E" stroke="#263238" stroke-miterlimit="10"/>
<path d="M21.1035 82.9922L27.1135 77.2422" stroke="#263238" stroke-width="0.5" stroke-miterlimit="10"/>
<path d="M16.8535 73.0611L20.8035 66.6211" stroke="#263238" stroke-width="2" stroke-miterlimit="10"/>
<path d="M19.5923 68.5526C19.431 67.73 19.4475 66.8823 19.6406 66.0665C19.8338 65.2507 20.1992 64.4856 20.7123 63.8226C21.7623 62.3726 28.0223 58.0426 29.1823 60.3226C30.4523 62.8026 24.5123 69.4526 19.5923 68.5526Z" fill="#23BB4E" stroke="#263238" stroke-miterlimit="10"/>
<path d="M19.5938 68.5547L25.6138 62.8047" stroke="#263238" stroke-width="0.5" stroke-miterlimit="10"/>
<path d="M14.6426 51.8931L18.5926 45.4531" stroke="#263238" stroke-width="2" stroke-miterlimit="10"/>
<path d="M17.3833 47.3837C17.222 46.561 17.2385 45.7133 17.4317 44.8975C17.6248 44.0817 17.9902 43.3167 18.5033 42.6537C19.5533 41.2137 25.8133 36.8737 26.9733 39.1537C28.2433 41.6337 22.3233 48.2837 17.3833 47.3837Z" fill="#23BB4E" stroke="#263238" stroke-miterlimit="10"/>
<path d="M17.3828 47.3845L23.4028 41.6445" stroke="#263238" stroke-width="0.5" stroke-miterlimit="10"/>
<path d="M12.9521 38.3624C12.7872 37.5389 12.801 36.6896 12.9925 35.8719C13.184 35.0542 13.5487 34.2871 14.0621 33.6224C15.1221 32.1824 21.3821 27.8424 22.5421 30.1224C23.8021 32.6024 17.8721 39.2324 12.9521 38.3624Z" fill="#23BB4E" stroke="#263238" stroke-miterlimit="10"/>
<path d="M12.9531 38.3633L18.9631 32.6133" stroke="#263238" stroke-width="0.5" stroke-miterlimit="10"/>
<path d="M13.3238 38.6016C12.4873 38.6783 11.6441 38.5753 10.8507 38.2993C10.0573 38.0233 9.33208 37.5808 8.72377 37.0016C7.40377 35.8016 3.72377 29.1216 6.13377 28.2016C8.71377 27.2316 14.7038 33.8116 13.3238 38.6016Z" fill="#23BB4E" stroke="#263238" stroke-miterlimit="10"/>
<path d="M13.3029 38.6034L8.21289 32.0234" stroke="#263238" stroke-width="0.5" stroke-miterlimit="10"/>
<path d="M43.2731 54.0938L31.873 163.884" stroke="#263238" stroke-width="2" stroke-miterlimit="10"/>
<path d="M34.3934 142.944L30.4434 136.504" stroke="#263238" stroke-width="2" stroke-miterlimit="10"/>
<path d="M31.6422 138.443C31.807 137.62 31.7932 136.771 31.6017 135.953C31.4102 135.135 31.0455 134.368 30.5322 133.703C29.4722 132.263 23.2122 127.933 22.0522 130.213C20.7922 132.693 26.7322 139.333 31.6422 138.443Z" fill="#23BB4E" stroke="#263238" stroke-miterlimit="10"/>
<path d="M31.6429 138.442L25.9629 132.992" stroke="#263238" stroke-width="0.5" stroke-miterlimit="10"/>
<path d="M37.5535 112.471L33.6035 106.031" stroke="#263238" stroke-width="2" stroke-miterlimit="10"/>
<path d="M34.8123 107.975C34.9738 107.15 34.9574 106.301 34.7643 105.484C34.5711 104.666 34.2057 103.899 33.6923 103.235C32.6323 101.795 26.3724 97.4646 25.2124 99.7446C23.9524 102.235 29.8923 108.865 34.8123 107.975Z" fill="#23BB4E" stroke="#263238" stroke-miterlimit="10"/>
<path d="M34.8128 107.973L29.1328 102.523" stroke="#263238" stroke-width="0.5" stroke-miterlimit="10"/>
<path d="M36.2627 124.963L32.3027 118.523" stroke="#263238" stroke-width="2" stroke-miterlimit="10"/>
<path d="M33.5139 120.454C33.678 119.63 33.6629 118.78 33.4696 117.962C33.2764 117.144 32.9095 116.378 32.3939 115.714C31.3339 114.284 25.0839 109.944 23.9239 112.224C22.6539 114.704 28.5939 121.354 33.5139 120.454Z" fill="#23BB4E" stroke="#263238" stroke-miterlimit="10"/>
<path d="M33.512 120.454L27.832 115.004" stroke="#263238" stroke-width="0.5" stroke-miterlimit="10"/>
<path d="M39.6631 92.1939L35.7031 85.7539" stroke="#263238" stroke-width="2" stroke-miterlimit="10"/>
<path d="M36.9121 87.6816C37.0762 86.8574 37.0611 86.0076 36.8679 85.1898C36.6746 84.3719 36.3077 83.6052 35.7921 82.9416C34.7421 81.5016 28.4821 77.1716 27.3221 79.4516C26.0521 81.9316 32.0021 88.5816 36.9121 87.6816Z" fill="#23BB4E" stroke="#263238" stroke-miterlimit="10"/>
<path d="M36.9124 87.6844L31.2324 82.2344" stroke="#263238" stroke-width="0.5" stroke-miterlimit="10"/>
<path d="M41.7723 71.8128L37.8223 65.3828" stroke="#263238" stroke-width="2" stroke-miterlimit="10"/>
<path d="M39.0231 67.3144C39.1879 66.4909 39.1741 65.6416 38.9826 64.8239C38.7911 64.0062 38.4264 63.2391 37.9131 62.5744C36.8531 61.1344 30.5931 56.8044 29.4331 59.0844C28.1731 61.5644 34.1131 68.2344 39.0231 67.3144Z" fill="#23BB4E" stroke="#263238" stroke-miterlimit="10"/>
<path d="M39.0238 67.3133L33.3438 61.8633" stroke="#263238" stroke-width="0.5" stroke-miterlimit="10"/>
<path d="M35.0625 135.533L40.2525 130.043" stroke="#263238" stroke-width="2" stroke-miterlimit="10"/>
<path d="M38.6738 131.694C38.6837 130.854 38.8735 130.025 39.2306 129.265C39.5877 128.504 40.1037 127.829 40.7438 127.284C42.0738 126.094 49.0838 123.134 49.7438 125.604C50.4838 128.294 43.3238 133.574 38.6738 131.694Z" fill="#23BB4E" stroke="#263238" stroke-miterlimit="10"/>
<path d="M38.6738 131.695L45.7438 127.305" stroke="#263238" stroke-width="0.5" stroke-miterlimit="10"/>
<path d="M38.4727 102.674L43.6627 97.1836" stroke="#263238" stroke-width="2" stroke-miterlimit="10"/>
<path d="M42.082 98.8348C42.0919 97.9945 42.2817 97.166 42.6388 96.4053C42.9959 95.6446 43.5119 94.9692 44.152 94.4248C45.482 93.2348 52.492 90.2748 53.152 92.7448C53.892 95.4348 46.712 100.715 42.082 98.8348Z" fill="#23BB4E" stroke="#263238" stroke-miterlimit="10"/>
<path d="M42.082 98.8314L49.152 94.4414" stroke="#263238" stroke-width="0.5" stroke-miterlimit="10"/>
<path d="M39.9727 88.2322L45.1627 82.7422" stroke="#263238" stroke-width="2" stroke-miterlimit="10"/>
<path d="M43.582 84.3934C43.5919 83.5531 43.7817 82.7246 44.1388 81.9639C44.4959 81.2032 45.0119 80.5278 45.652 79.9834C46.982 78.7934 53.992 75.8334 54.652 78.3034C55.392 80.9934 48.212 86.2334 43.582 84.3934Z" fill="#23BB4E" stroke="#263238" stroke-miterlimit="10"/>
<path d="M43.582 84.3939L50.652 80.0039" stroke="#263238" stroke-width="0.5" stroke-miterlimit="10"/>
<path d="M42.1621 67.0642L47.3521 61.5742" stroke="#263238" stroke-width="2" stroke-miterlimit="10"/>
<path d="M45.7832 63.2332C45.7925 62.3938 45.9811 61.5661 46.3364 60.8055C46.6916 60.0449 47.2054 59.369 47.8432 58.8232C49.1732 57.6332 56.1932 54.6732 56.8432 57.1432C57.5832 59.8232 50.4032 65.1032 45.7832 63.2332Z" fill="#23BB4E" stroke="#263238" stroke-miterlimit="10"/>
<path d="M45.7832 63.222L52.8532 58.832" stroke="#263238" stroke-width="0.5" stroke-miterlimit="10"/>
<path d="M43.3223 53.4717C43.3315 52.6322 43.5201 51.8045 43.8754 51.0439C44.2307 50.2833 44.7445 49.6075 45.3823 49.0617C46.7123 47.8717 53.7323 44.9117 54.3823 47.3917C55.1023 50.0717 47.9223 55.3617 43.3223 53.4717Z" fill="#23BB4E" stroke="#263238" stroke-miterlimit="10"/>
<path d="M43.3027 53.472L50.3727 49.082" stroke="#263238" stroke-width="0.5" stroke-miterlimit="10"/>
<path d="M43.593 53.7831C42.7555 53.6826 41.9496 53.4029 41.23 52.9628C40.5104 52.5228 39.8941 51.9328 39.423 51.2331C38.423 49.7831 36.173 42.4931 38.703 42.0931C41.453 41.6931 45.953 49.3831 43.593 53.7831Z" fill="#23BB4E" stroke="#263238" stroke-miterlimit="10"/>
<path d="M43.5929 53.783L39.9629 46.293" stroke="#263238" stroke-width="0.5" stroke-miterlimit="10"/>
<path d="M30.2129 9.38281V148.223" stroke="#263238" stroke-width="2" stroke-miterlimit="10"/>
<path d="M30.3227 127.342L25.7227 121.352" stroke="#263238" stroke-width="2" stroke-miterlimit="10"/>
<path d="M27.1225 123.154C27.1993 122.318 27.0962 121.475 26.8202 120.681C26.5443 119.888 26.1018 119.163 25.5225 118.554C24.3225 117.234 17.6525 113.554 16.7325 115.954C15.7325 118.554 22.3225 124.554 27.1225 123.154Z" fill="#23BB4E" stroke="#263238" stroke-miterlimit="10"/>
<path d="M27.1221 123.153L20.9121 118.312" stroke="#263238" stroke-width="0.5" stroke-miterlimit="10"/>
<path d="M30.3227 101.252L25.7227 95.2617" stroke="#263238" stroke-width="2" stroke-miterlimit="10"/>
<path d="M27.1225 97.0546C27.1991 96.2196 27.096 95.3779 26.82 94.5861C26.544 93.7944 26.1016 93.071 25.5225 92.4646C24.3225 91.1446 17.6525 87.4646 16.7325 89.8646C15.7325 92.4646 22.3225 98.4546 27.1225 97.0546Z" fill="#23BB4E" stroke="#263238" stroke-miterlimit="10"/>
<path d="M27.1221 97.0527L20.9121 92.2227" stroke="#263238" stroke-width="0.5" stroke-miterlimit="10"/>
<path d="M30.3227 70.6211L25.7227 64.6211" stroke="#263238" stroke-width="2" stroke-miterlimit="10"/>
<path d="M27.1225 66.4234C27.1993 65.5869 27.0962 64.7437 26.8202 63.9503C26.5443 63.1569 26.1018 62.4317 25.5225 61.8234C24.3225 60.5034 17.6525 56.8234 16.7325 59.2334C15.7325 61.8234 22.3225 67.8234 27.1225 66.4234Z" fill="#23BB4E" stroke="#263238" stroke-miterlimit="10"/>
<path d="M27.1221 66.4238L20.9121 61.5938" stroke="#263238" stroke-width="0.5" stroke-miterlimit="10"/>
<path d="M30.3227 50.2244L25.7227 44.2344" stroke="#263238" stroke-width="2" stroke-miterlimit="10"/>
<path d="M27.1225 46.0333C27.1993 45.1968 27.0962 44.3536 26.8202 43.5602C26.5443 42.7668 26.1018 42.0416 25.5225 41.4333C24.3225 40.1133 17.6525 36.4333 16.7325 38.8333C15.7325 41.4333 22.3225 47.4333 27.1225 46.0333Z" fill="#23BB4E" stroke="#263238" stroke-miterlimit="10"/>
<path d="M27.1221 46.0314L20.9121 41.1914" stroke="#263238" stroke-width="0.5" stroke-miterlimit="10"/>
<path d="M30.3227 29.7439L25.7227 23.7539" stroke="#263238" stroke-width="2" stroke-miterlimit="10"/>
<path d="M27.1225 25.5528C27.1993 24.7164 27.0962 23.8731 26.8202 23.0797C26.5443 22.2863 26.1018 21.5612 25.5225 20.9528C24.3225 19.6328 17.6525 15.9528 16.7325 18.3528C15.7325 20.9528 22.3225 26.9428 27.1225 25.5528Z" fill="#23BB4E" stroke="#263238" stroke-miterlimit="10"/>
<path d="M27.1221 25.5548L20.9121 20.7148" stroke="#263238" stroke-width="0.5" stroke-miterlimit="10"/>
<path d="M30.2227 135.314L34.8227 129.324" stroke="#263238" stroke-width="2" stroke-miterlimit="10"/>
<path d="M33.423 131.114C33.3464 130.279 33.4495 129.438 33.7255 128.646C34.0015 127.854 34.444 127.131 35.023 126.524C36.223 125.194 42.893 121.524 43.813 123.924C44.813 126.524 38.213 132.514 33.423 131.114Z" fill="#23BB4E" stroke="#263238" stroke-miterlimit="10"/>
<path d="M33.4238 131.113L40.0038 126.023" stroke="#263238" stroke-width="0.5" stroke-miterlimit="10"/>
<path d="M30.2227 93.8142L34.8227 87.8242" stroke="#263238" stroke-width="2" stroke-miterlimit="10"/>
<path d="M33.4231 89.6232C33.3463 88.7867 33.4494 87.9434 33.7253 87.15C34.0013 86.3566 34.4438 85.6315 35.0231 85.0232C36.2231 83.7032 42.8931 80.0231 43.8131 82.4231C44.8131 85.0231 38.2131 91.0232 33.4231 89.6232Z" fill="#23BB4E" stroke="#263238" stroke-miterlimit="10"/>
<path d="M33.4238 89.6234L40.0038 84.5234" stroke="#263238" stroke-width="0.5" stroke-miterlimit="10"/>
<path d="M30.2227 73.3338L34.8227 67.3438" stroke="#263238" stroke-width="2" stroke-miterlimit="10"/>
<path d="M33.423 69.134C33.3464 68.299 33.4495 67.4573 33.7255 66.6656C34.0015 65.8738 34.444 65.1504 35.023 64.544C36.223 63.214 42.893 59.544 43.813 61.944C44.813 64.544 38.213 70.534 33.423 69.134Z" fill="#23BB4E" stroke="#263238" stroke-miterlimit="10"/>
<path d="M33.4238 69.133L40.0038 64.043" stroke="#263238" stroke-width="0.5" stroke-miterlimit="10"/>
<path d="M30.2227 46.2617L34.8227 40.2617" stroke="#263238" stroke-width="2" stroke-miterlimit="10"/>
<path d="M33.4234 42.0636C33.3461 41.2286 33.449 40.3867 33.725 39.5949C34.001 38.8031 34.4438 38.0797 35.0234 37.4736C36.2234 36.1436 42.8933 32.4736 43.8133 34.8736C44.8133 37.4736 38.2134 43.4636 33.4234 42.0636Z" fill="#23BB4E" stroke="#263238" stroke-miterlimit="10"/>
<path d="M33.4238 42.0627L40.0038 36.9727" stroke="#263238" stroke-width="0.5" stroke-miterlimit="10"/>
<path d="M30.2227 24.9844L34.8227 18.9844" stroke="#263238" stroke-width="2" stroke-miterlimit="10"/>
<path d="M33.4231 20.7833C33.3463 19.9468 33.4494 19.1036 33.7253 18.3102C34.0013 17.5168 34.4438 16.7916 35.0231 16.1833C36.2231 14.8633 42.8931 11.1833 43.8131 13.5833C44.8131 16.2333 38.2131 22.2333 33.4231 20.7833Z" fill="#23BB4E" stroke="#263238" stroke-miterlimit="10"/>
<path d="M33.4238 20.7814L40.0038 15.6914" stroke="#263238" stroke-width="0.5" stroke-miterlimit="10"/>
<path d="M29.9426 11.3419C29.8659 10.5054 29.9689 9.66215 30.2449 8.86877C30.5208 8.07538 30.9633 7.35021 31.5426 6.7419C32.7426 5.4219 39.4226 1.7419 40.3426 4.1419C41.3226 6.7419 34.7426 12.7419 29.9426 11.3419Z" fill="#23BB4E" stroke="#263238" stroke-miterlimit="10"/>
<path d="M29.9434 11.3439L36.5234 6.25391" stroke="#263238" stroke-width="0.5" stroke-miterlimit="10"/>
<path d="M30.2637 11.6229C29.4248 11.6129 28.5979 11.4229 27.8388 11.0658C27.0798 10.7087 26.4062 10.1928 25.8637 9.55291C24.6737 8.22291 21.7337 1.20291 24.2037 0.55291C26.8937 -0.18709 32.1637 7.00292 30.2637 11.6229Z" fill="#23BB4E" stroke="#263238" stroke-miterlimit="10"/>
<path d="M30.2626 11.6247L25.8926 4.55469" stroke="#263238" stroke-width="0.5" stroke-miterlimit="10"/>
<path d="M35.9228 184.232H21.2228L19.3828 147.102H37.7628L35.9228 184.232Z" fill="#263238" stroke="#263238" stroke-miterlimit="10"/>
</svg>
