<svg width="47" height="47" viewBox="0 0 47 47" fill="none" xmlns="http://www.w3.org/2000/svg">
<path d="M37.0298 18.8792C37.0295 22.2789 36.0731 25.6101 34.2698 28.4921C32.4664 31.3742 29.8889 33.691 26.8316 35.178C23.7743 36.6649 20.3604 37.2621 16.9798 36.9012C13.5993 36.5403 10.3884 35.236 7.71382 33.1372M0.851815 20.5152C0.516247 16.8246 1.32008 13.1198 3.15498 9.90012C4.98988 6.68044 7.76765 4.10062 11.114 2.50833C14.4603 0.91603 18.2143 0.387792 21.87 0.9948C25.5258 1.60181 28.9077 3.31488 31.5598 5.90317M31.7218 31.6952L45.7518 45.7532M45.7518 11.8952V2.25317H36.1378" stroke="#23BB4E" stroke-width="1.5" stroke-linecap="round" stroke-linejoin="round"/>
<path d="M0.75 32.2539L17.39 15.6199C17.7459 15.2663 18.2273 15.0679 18.729 15.0679C19.2307 15.0679 19.7121 15.2663 20.068 15.6199L24.96 20.5139C25.3152 20.8689 25.7968 21.0684 26.299 21.0684C26.8012 21.0684 27.2828 20.8689 27.638 20.5139L45.75 2.25391" stroke="#23BB4E" stroke-width="1.5" stroke-linecap="round" stroke-linejoin="round"/>
</svg>
