<svg width="446" height="384" viewBox="0 0 446 384" fill="none" xmlns="http://www.w3.org/2000/svg">
<g clip-path="url(#clip0_92_6)">
<g opacity="0.3">
<path d="M311.96 146.05L311.708 141.084L311.834 143.567L311.695 141.084C311.884 141.084 330.113 139.842 345.493 122.06C361.163 103.918 368.021 51.877 368.021 51.3555L373.064 51.9887C372.774 54.1742 365.967 106.004 349.313 125.251C332.471 144.821 312.792 146.013 311.96 146.05Z" fill="#263238"/>
<path d="M308.088 168.888C307.029 168.888 305.97 168.888 304.924 168.789L305.277 163.822C330.919 165.623 362.712 141.607 371.94 113.432C381.168 85.2574 371.033 46.0805 370.932 45.6831L375.81 44.4414C376.252 46.0929 386.463 85.2698 376.731 114.972C367.074 144.488 335.596 168.888 308.088 168.888Z" fill="#263238"/>
<path d="M311.695 160.135L310.031 155.441C357.369 139.298 341.258 64.3594 341.094 63.5523L346.01 62.4844C348.76 76.2118 349.587 90.2457 348.469 104.194C345.872 133.487 333.152 152.808 311.695 160.135Z" fill="#263238"/>
<path d="M65.7549 66.0352L41.5125 89.7027L36.9994 106.168C36.8706 106.656 36.8814 107.169 37.0305 107.651C37.1795 108.134 37.4611 108.566 37.844 108.9C38.1304 109.146 38.4656 109.332 38.8284 109.444C39.1912 109.556 39.5736 109.593 39.9516 109.552C40.3296 109.511 40.6949 109.393 41.0243 109.206C41.3537 109.019 41.6402 108.767 41.8655 108.465L51.7617 95.1539L52.808 106.814C52.8925 107.693 53.2913 108.514 53.9332 109.13C54.5751 109.746 55.4184 110.118 56.3126 110.179C57.2376 110.233 58.1503 109.95 58.8777 109.385C59.6051 108.819 60.0964 108.01 60.2585 107.112L62.9059 91.9006L104.243 79.8061L65.7549 66.0352Z" fill="#263238"/>
<path d="M56.5496 110.809H56.2723C55.2249 110.742 54.2364 110.309 53.4851 109.587C52.7338 108.865 52.2692 107.902 52.1751 106.873L51.2801 96.8644L42.3798 108.835C42.1034 109.208 41.7509 109.52 41.3449 109.751C40.939 109.981 40.4885 110.126 40.0224 110.176C39.4774 110.234 38.9262 110.161 38.4163 109.962C37.9065 109.764 37.4533 109.446 37.0959 109.037C36.7385 108.627 36.4877 108.138 36.365 107.612C36.2423 107.086 36.2515 106.538 36.3917 106.016L40.9175 89.3767L65.5885 65.3242L106.245 79.8774L63.458 92.3941L60.9367 107.22C60.762 108.237 60.2233 109.157 59.4184 109.816C58.6135 110.474 57.5957 110.827 56.5496 110.809ZM52.2382 93.4248L53.4358 106.711C53.5078 107.452 53.8499 108.142 54.3986 108.654C54.9474 109.166 55.6657 109.464 56.4207 109.495C57.1758 109.525 57.9164 109.285 58.5056 108.819C59.0947 108.353 59.4926 107.692 59.6256 106.96L62.3486 91.3759L62.7268 91.2641L102.223 79.7036L65.9037 66.7025L42.0521 90.0224L37.6146 106.326C37.5245 106.654 37.5168 106.998 37.5922 107.329C37.6677 107.66 37.8239 107.968 38.0475 108.226C38.271 108.484 38.5551 108.685 38.875 108.81C39.195 108.936 39.5413 108.983 39.8837 108.947C40.1764 108.917 40.4594 108.827 40.7138 108.681C40.9681 108.536 41.188 108.338 41.3587 108.102L52.2382 93.4248Z" fill="#263238"/>
<path d="M199.594 21.144L157.352 34.3671L167.015 64.3194L209.258 51.0963L199.594 21.144Z" fill="#263238"/>
<path d="M166.616 65.0949L156.531 33.9521L199.973 20.293L210.059 51.4358L166.616 65.0949ZM158.145 34.7592L167.436 63.5303L208.47 50.6907L199.179 21.9072L158.145 34.7592Z" fill="#263238"/>
<path d="M145.958 36.3789L91.3965 55.7749L114.454 97.8822L157.77 69.0739L145.958 36.3789Z" fill="#23BB4E"/>
<path d="M114.239 98.7709L90.4883 55.4342L146.335 35.5664L158.526 69.292L114.239 98.7709ZM92.3036 56.1048L114.63 96.9704L156.95 68.8202L145.516 37.1683L92.3036 56.1048Z" fill="#263238"/>
<path d="M155.563 25.4762L148.234 27.7703C145.52 28.6198 144.019 31.4755 144.882 34.1487L156.577 70.3967C157.439 73.0699 160.339 74.5482 163.052 73.6987L170.381 71.4046C173.095 70.5551 174.596 67.6994 173.734 65.0263L162.039 28.7782C161.176 26.105 158.277 24.6267 155.563 25.4762Z" fill="#263238"/>
<path d="M161.498 74.5521C160.271 74.5444 159.077 74.1548 158.088 73.4389C157.098 72.7231 156.364 71.7176 155.989 70.5661L144.29 34.3198C143.828 32.8757 143.966 31.3097 144.675 29.9662C145.385 28.6227 146.606 27.6115 148.072 27.1549L155.384 24.8702C156.85 24.4145 158.44 24.551 159.804 25.2496C161.168 25.9481 162.194 27.1515 162.658 28.5954L174.357 64.8417C174.588 65.5567 174.673 66.3096 174.607 67.0571C174.542 67.8046 174.328 68.532 173.976 69.1977C173.625 69.8633 173.144 70.4541 172.56 70.9361C171.976 71.4182 171.302 71.7819 170.575 72.0066L163.263 74.3038C162.69 74.4718 162.096 74.5554 161.498 74.5521ZM157.124 25.8387C156.662 25.8421 156.203 25.9132 155.762 26.0498L148.438 28.347C147.871 28.5234 147.345 28.8085 146.89 29.1858C146.435 29.5631 146.06 30.0253 145.787 30.5457C145.514 31.0661 145.348 31.6345 145.299 32.2183C145.25 32.802 145.318 33.3896 145.5 33.9473L157.187 70.1564C157.368 70.7151 157.66 71.233 158.045 71.6805C158.43 72.128 158.901 72.4962 159.431 72.764C159.958 73.0368 160.535 73.2027 161.128 73.2517C161.722 73.3008 162.319 73.232 162.885 73.0496L170.197 70.7648C171.34 70.4055 172.293 69.6144 172.846 68.5648C173.399 67.5152 173.507 66.2925 173.147 65.1646L161.448 28.9182C161.15 28.0209 160.57 27.2396 159.794 26.6864C159.017 26.1332 158.082 25.8364 157.124 25.8387Z" fill="#263238"/>
<path d="M114.453 97.8791C114.453 97.8791 109.41 87.0512 120.302 80.9915C131.194 74.9318 137.321 82.6802 137.321 82.6802L132.43 85.8839L114.453 97.8791Z" fill="#263238"/>
<path d="M114.189 98.7967L113.886 98.1261C113.886 98.0144 108.843 86.7145 119.988 80.4437C131.132 74.173 137.7 82.2194 137.763 82.3064L138.179 82.8279L132.733 86.4041L114.189 98.7967ZM128.308 79.2889C125.586 79.3572 122.93 80.1279 120.605 81.5241C111.781 86.491 113.886 94.5002 114.756 96.9216L136.313 82.5671C135.266 81.525 134.019 80.6985 132.645 80.1357C131.271 79.5729 129.796 79.285 128.308 79.2889Z" fill="#263238"/>
<path d="M114.449 97.8858C114.449 97.8858 114.941 86.4494 132.376 85.8906L138.679 118.933L121.244 120.597L114.449 97.8858Z" fill="#23BB4E"/>
<path d="M120.739 121.268L113.818 97.9601V97.8608C113.818 97.7366 114.55 85.8407 132.363 85.2695H132.905L139.384 119.504L120.739 121.268ZM115.092 97.8111L121.66 119.926L137.897 118.374L131.858 86.5361C116.428 87.2439 115.18 96.6811 115.092 97.8111Z" fill="#263238"/>
<path d="M121.212 120.586L111.895 136.629C111.344 137.579 111.137 138.685 111.309 139.766C111.481 140.847 112.021 141.839 112.841 142.577C113.335 143.025 113.918 143.368 114.554 143.584C115.189 143.8 115.863 143.885 116.532 143.832C117.202 143.78 117.854 143.592 118.447 143.28C119.039 142.967 119.56 142.538 119.976 142.018L138.647 118.922L121.212 120.586Z" fill="#23BB4E"/>
<path d="M116.151 144.476C115.182 144.478 114.229 144.229 113.388 143.754C112.548 143.279 111.849 142.594 111.362 141.769C110.875 140.943 110.618 140.006 110.615 139.051C110.613 138.097 110.865 137.158 111.348 136.33L120.815 120.014L140.053 118.176L120.462 142.427C119.987 143.009 119.396 143.489 118.727 143.839C118.057 144.189 117.322 144.401 116.567 144.463L116.151 144.476ZM121.584 121.181L112.445 136.951C111.913 137.869 111.753 138.951 111.996 139.981C112.24 141.01 112.868 141.911 113.757 142.504C114.645 143.097 115.728 143.338 116.789 143.178C117.85 143.019 118.81 142.471 119.479 141.645L137.216 119.691L121.584 121.181Z" fill="#263238"/>
<path d="M137.99 116.449L121.288 118.586C119.955 118.756 119.015 119.959 119.188 121.271L119.245 121.702C119.418 123.015 120.639 123.941 121.971 123.77L138.673 121.633C140.006 121.463 140.946 120.261 140.773 118.948L140.716 118.517C140.543 117.205 139.322 116.279 137.99 116.449Z" fill="#263238"/>
<path d="M121.651 124.415C120.907 124.412 120.189 124.144 119.631 123.66C119.072 123.176 118.71 122.509 118.613 121.783V121.348C118.509 120.554 118.73 119.753 119.226 119.119C119.723 118.486 120.455 118.073 121.26 117.971L137.964 115.835C138.363 115.783 138.769 115.809 139.158 115.912C139.547 116.015 139.911 116.193 140.23 116.435C140.549 116.677 140.816 116.98 141.015 117.324C141.215 117.669 141.343 118.049 141.393 118.442V118.865C141.493 119.659 141.272 120.461 140.776 121.095C140.281 121.73 139.551 122.146 138.746 122.255L122.042 124.39L121.651 124.415ZM138.292 117.052H138.065L121.361 119.187C120.888 119.249 120.458 119.493 120.165 119.865C119.873 120.237 119.741 120.707 119.798 121.174L119.861 121.609C119.89 121.84 119.966 122.063 120.084 122.265C120.201 122.468 120.359 122.645 120.546 122.787C120.734 122.929 120.948 123.033 121.177 123.093C121.405 123.153 121.644 123.168 121.878 123.136L138.582 121.062C138.816 121.034 139.043 120.96 139.249 120.845C139.454 120.73 139.635 120.576 139.779 120.392C139.927 120.208 140.035 119.996 140.098 119.77C140.16 119.544 140.177 119.308 140.145 119.076L140.082 118.653C140.038 118.215 139.831 117.809 139.5 117.513C139.169 117.217 138.739 117.053 138.292 117.052Z" fill="#263238"/>
<path d="M91.3944 55.7677L52.4023 55.3828L53.3478 70.7928L105.514 82.0057L91.3944 55.7677Z" fill="#23BB4E"/>
<path d="M106.714 82.9041L52.7575 71.3063L51.7363 54.7539L91.7747 55.1513L106.714 82.9041ZM53.9551 70.2881L104.318 81.116L91.0184 56.393L53.0726 56.0081L53.9551 70.2881Z" fill="#263238"/>
<path d="M52.4017 55.3828L24.4277 56.3141L25.8523 70.7928H53.3472L52.4017 55.3828Z" fill="#23BB4E"/>
<path d="M54.0173 71.3978H25.2743L23.7363 55.7271L52.9961 54.7461L54.0173 71.3978ZM26.3837 70.1561H52.6432L51.7733 56.0003L25.123 56.9191L26.3837 70.1561Z" fill="#263238"/>
<path d="M24.4304 56.3203L2.20508 73.5805C1.50485 74.1295 1.00372 74.8869 0.776506 75.7396C0.549294 76.5923 0.6082 77.4945 0.944427 78.3115C1.15819 78.8406 1.48188 79.3198 1.89472 79.7184C2.30756 80.117 2.80043 80.4262 3.34172 80.6261C3.88301 80.826 4.46076 80.9123 5.03789 80.8794C5.61502 80.8465 6.17878 80.695 6.69301 80.4349L25.8802 70.799L24.4304 56.3203Z" fill="#23BB4E"/>
<path d="M4.77461 81.5073C4.20216 81.5072 3.63433 81.4063 3.09794 81.2093C2.47425 80.9819 1.90611 80.6278 1.43046 80.17C0.954809 79.7122 0.58229 79.1609 0.337107 78.552C-0.0418576 77.6075 -0.103085 76.5682 0.162429 75.5869C0.427942 74.6056 1.00618 73.7342 1.81208 73.1008L24.9451 55.1328L26.5209 71.1637L6.95554 80.9982C6.28085 81.3386 5.53263 81.5133 4.77461 81.5073ZM23.8609 57.517L2.59368 74.0693C1.99813 74.5362 1.5711 75.1796 1.37583 75.9043C1.18056 76.6289 1.22743 77.3962 1.50951 78.0926C1.68182 78.5501 1.95235 78.9655 2.30264 79.3105C2.65293 79.6556 3.07471 79.9221 3.53917 80.0918C3.99688 80.2629 4.48612 80.337 4.9749 80.3092C5.46368 80.2814 5.94099 80.1523 6.37564 79.9303L25.1846 70.4807L23.8609 57.517Z" fill="#263238"/>
<path d="M24.0862 70.4374L22.2582 57.2625C22.1793 56.6831 22.3366 56.0965 22.6957 55.631C23.0548 55.1656 23.5865 54.8592 24.1744 54.779C24.466 54.7388 24.7627 54.7559 25.0475 54.8291C25.3323 54.9024 25.5996 55.0304 25.8339 55.2058C26.0683 55.3813 26.2651 55.6007 26.413 55.8513C26.5609 56.102 26.657 56.3791 26.6957 56.6665L28.5237 69.8413C28.6027 70.4207 28.4454 71.0074 28.0862 71.4728C27.7271 71.9383 27.1954 72.2446 26.6075 72.3248C26.316 72.365 26.0193 72.348 25.7344 72.2747C25.4496 72.2015 25.1823 72.0735 24.948 71.898C24.7136 71.7226 24.5168 71.5032 24.3689 71.2525C24.221 71.0018 24.1249 70.7248 24.0862 70.4374Z" fill="#263238"/>
<path d="M26.2958 72.9743C25.5982 72.9678 24.9265 72.7127 24.4051 72.2562C23.8836 71.7996 23.5477 71.1725 23.4593 70.4908L21.6314 57.316C21.5552 56.7612 21.6478 56.1967 21.8973 55.6937C22.1468 55.1907 22.5421 54.7719 23.0332 54.4902C23.5243 54.2084 24.0892 54.0764 24.6564 54.1108C25.2237 54.1452 25.7679 54.3445 26.2202 54.6835C26.5213 54.9059 26.7745 55.1852 26.9649 55.5049C27.1554 55.8247 27.2793 56.1786 27.3295 56.5461L29.1575 69.7209C29.2069 70.0939 29.1806 70.4727 29.0803 70.8356C28.98 71.1985 28.8076 71.5382 28.5731 71.835C28.3386 72.1318 28.0467 72.3798 27.7142 72.5647C27.3817 72.7496 27.0153 72.8677 26.6362 72.9122L26.2958 72.9743ZM24.4805 55.3789H24.2662C23.8436 55.4374 23.4619 55.6584 23.2044 55.9935C22.9468 56.3286 22.8345 56.7505 22.892 57.1669L24.7074 70.3418C24.7364 70.55 24.807 70.7506 24.9152 70.9317C25.0234 71.1129 25.167 71.2711 25.3377 71.3973C25.6776 71.6467 26.1019 71.7579 26.5227 71.7077C26.9461 71.649 27.329 71.4285 27.5885 71.0939C27.848 70.7592 27.9633 70.3374 27.9094 69.9196L26.0815 56.7448C26.0525 56.5365 25.9819 56.336 25.8737 56.1548C25.7655 55.9737 25.6219 55.8154 25.4512 55.6893C25.1711 55.4835 24.8299 55.3743 24.4805 55.3789Z" fill="#263238"/>
<path d="M51.5989 69.0453L51.4728 55.7587C51.4695 55.4684 51.5242 55.1804 51.6339 54.9109C51.7436 54.6415 51.9061 54.396 52.1122 54.1885C52.3182 53.9809 52.5637 53.8154 52.8347 53.7013C53.1057 53.5872 53.3969 53.5268 53.6916 53.5236C53.9862 53.5203 54.2787 53.5742 54.5522 53.6823C54.8257 53.7903 55.075 53.9504 55.2857 54.1534C55.4964 54.3563 55.6645 54.5981 55.7803 54.8651C55.8961 55.132 55.9574 55.4188 55.9607 55.709L56.0868 69.0081C56.0902 69.5921 55.8587 70.1538 55.4429 70.5703C55.0272 70.9867 54.461 71.2242 53.868 71.2308C53.5729 71.2357 53.2797 71.1829 53.0054 71.0754C52.7312 70.968 52.4813 70.808 52.2702 70.6047C52.0591 70.4014 51.8911 70.159 51.7759 69.8913C51.6607 69.6236 51.6005 69.3361 51.5989 69.0453Z" fill="#263238"/>
<path d="M53.8286 71.8553C53.0738 71.8521 52.3502 71.5578 51.813 71.0356C51.2757 70.5134 50.9675 69.8047 50.9543 69.0614L50.8282 55.7623C50.8215 55.0135 51.1162 54.2927 51.6478 53.7574C52.1794 53.2222 52.9046 52.9161 53.6647 52.9062C54.4249 52.9097 55.1553 53.1983 55.707 53.7135C55.9786 53.9738 56.1953 54.2843 56.3446 54.6274C56.4939 54.9705 56.5728 55.3394 56.5768 55.7127L56.7029 68.9992C56.7096 69.7479 56.4149 70.4688 55.8834 71.0041C55.3518 71.5393 54.6265 71.8455 53.8664 71.8553H53.8286ZM52.215 69.0489C52.215 69.4704 52.385 69.8747 52.6876 70.1727C52.9902 70.4708 53.4006 70.6383 53.8286 70.6383C54.2566 70.6383 54.667 70.4708 54.9696 70.1727C55.2722 69.8747 55.4422 69.4704 55.4422 69.0489L55.3162 55.7623C55.3128 55.5533 55.2677 55.3471 55.1833 55.1553C55.099 54.9636 54.977 54.79 54.8245 54.6447C54.5271 54.3511 54.1236 54.1859 53.7025 54.1852C53.2768 54.1918 52.8709 54.3638 52.5733 54.6639C52.2758 54.9639 52.1107 55.3678 52.1141 55.7872L52.215 69.0489Z" fill="#263238"/>
<path d="M105.516 82.0174L102.062 52.3398L91.3965 55.7795L105.516 82.0174Z" fill="#263238"/>
<path d="M106.524 85.2015L90.4883 55.3998L102.603 51.4883L106.524 85.2015ZM92.3036 56.1324L104.545 78.8438L101.569 53.1895L92.3036 56.1324Z" fill="#263238"/>
<path d="M91.3955 55.7734L45.8984 65.3969L51.8487 81.8003L105.515 82.0114L91.3955 55.7734Z" fill="#23BB4E"/>
<path d="M106.563 82.6365L51.3969 82.4254L45.0938 64.9417L91.7379 55.0078L106.563 82.6365ZM52.355 81.1837L104.534 81.3948L91.0699 56.4979L46.7326 65.873L52.355 81.1837Z" fill="#263238"/>
<path d="M45.8981 65.3984L26.5723 87.3648L34.2371 95.1505L51.8484 81.8018L45.8981 65.3984Z" fill="#23BB4E"/>
<path d="M34.1699 95.9682L25.7109 87.3878L46.121 64.1797L52.5881 82.0111L34.1699 95.9682ZM27.4254 87.3381L34.296 94.3167L51.0879 81.5764L45.6671 66.6011L27.4254 87.3381Z" fill="#263238"/>
<path d="M26.5738 87.3672L16.8037 105.832C16.4553 106.477 16.3553 107.224 16.5221 107.936C16.6889 108.648 17.1113 109.277 17.7114 109.706C18.3397 110.162 19.1196 110.369 19.8954 110.283C20.6712 110.198 21.3859 109.828 21.8968 109.247L34.2386 95.1529L26.5738 87.3672Z" fill="#23BB4E"/>
<path d="M19.5357 110.924C18.9052 110.9 18.2909 110.721 17.7489 110.403C17.2068 110.084 16.7541 109.638 16.4321 109.103C16.11 108.569 15.9288 107.964 15.905 107.343C15.8812 106.722 16.0156 106.105 16.2958 105.548L26.381 86.3008L35.0669 95.1171L22.3721 109.645C22.0189 110.045 21.5831 110.366 21.094 110.586C20.6049 110.807 20.0736 110.922 19.5357 110.924ZM26.7214 88.4117L17.3547 106.169C17.091 106.687 17.0197 107.28 17.1532 107.845C17.2868 108.409 17.6167 108.91 18.0859 109.261C18.5918 109.614 19.2122 109.772 19.8285 109.703C20.4448 109.634 21.0138 109.344 21.4266 108.888L33.3776 95.2289L26.7214 88.4117Z" fill="#263238"/>
<path d="M33.9442 97.9501L23.4681 89.5559C23.0094 89.1848 22.7187 88.6497 22.6596 88.0679C22.6005 87.486 22.7779 86.9048 23.153 86.4516C23.5279 85.9979 24.0703 85.7091 24.661 85.6486C25.2518 85.5881 25.8428 85.7607 26.3046 86.1287L36.768 94.5229C37.2286 94.8922 37.5218 95.4264 37.5832 96.0083C37.6447 96.5902 37.4694 97.1724 37.0958 97.6272C36.9111 97.8533 36.6828 98.041 36.4241 98.1797C36.1653 98.3184 35.8813 98.4053 35.5883 98.4353C35.2953 98.4653 34.9991 98.4379 34.717 98.3546C34.4348 98.2713 34.1721 98.1338 33.9442 97.9501Z" fill="#263238"/>
<path d="M35.3595 99.0719C34.7026 99.0709 34.0661 98.8473 33.5568 98.4387L23.0933 90.0197C22.8001 89.785 22.5566 89.4957 22.377 89.1683C22.1973 88.8409 22.085 88.4819 22.0463 88.1117C22.0077 87.7414 22.0435 87.3673 22.1518 87.0108C22.2601 86.6542 22.4387 86.3222 22.6773 86.0337C23.1622 85.455 23.8596 85.0885 24.6176 85.014C25.3756 84.9396 26.1327 85.1633 26.724 85.6363L37.1875 94.0305C37.6132 94.3876 37.9239 94.8593 38.0816 95.3878C38.2392 95.9162 38.237 96.4785 38.0751 97.0057C37.9132 97.5329 37.5986 98.0021 37.17 98.3559C36.7414 98.7097 36.2174 98.9326 35.6621 98.9974L35.3595 99.0719ZM34.351 97.4701C34.6834 97.7335 35.1076 97.8576 35.532 97.8158C35.9565 97.774 36.3473 97.5696 36.6202 97.2466C36.8907 96.9205 37.0188 96.5019 36.9762 96.0828C36.9337 95.6637 36.724 95.2784 36.3933 95.0115L25.9172 86.6173C25.7564 86.4834 25.5693 86.3834 25.3676 86.3236C25.166 86.2638 24.954 86.2454 24.7448 86.2696C24.3158 86.3156 23.9222 86.525 23.648 86.8532C23.5151 87.0145 23.4159 87.2 23.356 87.3991C23.2961 87.5983 23.2767 87.8071 23.299 88.0136C23.3212 88.2201 23.3847 88.4203 23.4857 88.6026C23.5867 88.7849 23.7233 88.9458 23.8876 89.076L34.351 97.4701Z" fill="#263238"/>
<path d="M49.7257 82.1126L44.4435 65.8955C44.3463 65.6216 44.305 65.3314 44.3221 65.0418C44.3393 64.7521 44.4145 64.4687 44.5434 64.2078C44.6723 63.9469 44.8524 63.7137 45.0733 63.5217C45.2941 63.3297 45.5514 63.1827 45.8303 63.0891C46.3937 62.8986 47.0108 62.9353 47.5469 63.1912C48.083 63.4471 48.4946 63.9014 48.6919 64.4551L53.9741 80.6598C54.0714 80.9336 54.1126 81.2238 54.0955 81.5134C54.0784 81.8031 54.0032 82.0866 53.8743 82.3475C53.7453 82.6084 53.5652 82.8415 53.3444 83.0335C53.1235 83.2255 52.8662 83.3725 52.5874 83.4661C52.3093 83.5624 52.0146 83.6038 51.7202 83.5879C51.4259 83.572 51.1376 83.4991 50.8718 83.3734C50.6061 83.2477 50.3681 83.0716 50.1714 82.8553C49.9747 82.639 49.8233 82.3866 49.7257 82.1126Z" fill="#263238"/>
<path d="M51.8481 84.2093C51.4108 84.2143 50.9786 84.1164 50.5874 83.9237C50.2458 83.7657 49.9401 83.5412 49.6888 83.2638C49.4374 82.9864 49.2457 82.6618 49.1251 82.3095L43.8429 66.0924C43.5981 65.3859 43.6477 64.6127 43.981 63.9422C44.3142 63.2718 44.9038 62.7589 45.6205 62.5162C46.3393 62.2702 47.1279 62.315 47.8133 62.6409C48.4986 62.9668 49.0248 63.5471 49.2764 64.2546L54.5585 80.4841C54.8037 81.1811 54.7631 81.9449 54.4452 82.6128C54.1274 83.2807 53.5574 83.8001 52.8566 84.0603C52.5314 84.1658 52.1904 84.2162 51.8481 84.2093ZM50.3353 81.9121C50.4026 82.1084 50.51 82.289 50.6509 82.4428C50.7919 82.5966 50.9633 82.7202 51.1547 82.8062C51.3485 82.9028 51.5604 82.9593 51.7772 82.9721C51.9941 82.9849 52.2113 82.9538 52.4154 82.8807C52.6153 82.8136 52.7998 82.7083 52.9582 82.5707C53.1166 82.4331 53.2458 82.266 53.3384 82.079C53.431 81.8921 53.4851 81.6889 53.4976 81.4812C53.5101 81.2735 53.4808 81.0655 53.4113 80.8691L48.1292 64.6395C47.9869 64.2465 47.6922 63.925 47.3097 63.7455C47.1159 63.6488 46.9041 63.5923 46.6872 63.5795C46.4704 63.5667 46.2532 63.5978 46.0491 63.671C45.8487 63.7393 45.6639 63.846 45.5054 63.9847C45.3469 64.1235 45.2177 64.2917 45.1252 64.4796C45.0327 64.6676 44.9787 64.8717 44.9663 65.0803C44.954 65.2888 44.9835 65.4977 45.0532 65.695L50.3353 81.9121Z" fill="#263238"/>
<path d="M323.075 23.5599C315.884 22.1301 308.412 23.5642 302.293 27.5483C296.173 31.5325 291.906 37.7423 290.424 44.8185L222.562 197.639L300.559 209.448L344.682 55.7334C346.137 48.6456 344.679 41.2789 340.629 35.248C336.579 29.2171 330.266 25.0139 323.075 23.5599Z" fill="#23BB4E"/>
<path d="M301.019 210.151L221.598 198.131L289.862 44.6399C291.367 37.3947 295.732 31.0349 301.997 26.9596C308.262 22.8844 315.914 21.4275 323.27 22.9095C330.625 24.3915 337.082 28.6909 341.219 34.862C345.356 41.0331 346.836 48.5703 345.331 55.8156L301.019 210.151ZM223.476 197.15L300.099 208.748L344.07 55.5672C345.48 48.6542 344.05 41.4728 340.095 35.596C336.139 29.7192 329.98 25.6261 322.967 24.2133C319.486 23.5114 315.899 23.492 312.41 24.1563C308.922 24.8206 305.601 26.1556 302.636 28.0849C299.672 30.0142 297.123 32.5 295.134 35.4003C293.146 38.3006 291.757 41.5584 291.047 44.9876V45.1118L223.476 197.15Z" fill="#263238"/>
<path d="M284.047 153.756C282.948 153.759 281.864 153.501 280.887 153.005C279.91 152.509 279.068 151.788 278.433 150.904C277.797 150.021 277.387 148.999 277.237 147.927C277.086 146.854 277.199 145.762 277.567 144.741L302.314 75.5514C302.926 73.8603 304.194 72.4779 305.841 71.7083C306.656 71.3272 307.54 71.108 308.441 71.0633C309.343 71.0185 310.244 71.1491 311.094 71.4475C311.944 71.7459 312.726 72.2063 313.396 72.8025C314.065 73.3986 314.609 74.1188 314.996 74.9219C315.383 75.725 315.605 76.5953 315.651 77.4831C315.696 78.3709 315.564 79.2589 315.261 80.0962L290.527 149.286C290.044 150.597 289.163 151.73 288.004 152.53C286.844 153.33 285.463 153.758 284.047 153.756Z" fill="#263238"/>
<path d="M409.417 369.183L422.023 280.411C426.524 259.848 412.316 239.781 390.305 235.572C368.294 231.375 346.8 244.649 342.312 265.2L277.363 369.183H409.417Z" fill="#23BB4E"/>
<path d="M409.961 369.799H276.23L341.709 264.959C346.323 244.173 368.183 230.725 390.421 234.959C395.834 235.942 400.99 237.987 405.584 240.974C410.178 243.96 414.114 247.827 417.159 252.343C419.946 256.449 421.866 261.064 422.806 265.915C423.746 270.765 423.686 275.753 422.63 280.58L409.961 369.799ZM278.487 368.558H408.877L421.395 280.32C422.417 275.65 422.476 270.825 421.569 266.132C420.661 261.44 418.806 256.974 416.113 253.001C413.154 248.634 409.333 244.897 404.878 242.013C400.424 239.128 395.425 237.156 390.181 236.213C368.536 232.078 347.319 245.154 342.919 265.357L342.843 265.555L278.487 368.558Z" fill="#263238"/>
<path d="M232.741 193.992C230.461 197.903 228.986 202.218 228.4 206.691C227.814 211.164 228.128 215.706 229.325 220.059C230.521 224.412 232.576 228.49 235.373 232.061C238.17 235.631 241.653 238.624 245.625 240.868L355.213 318.377L400.421 231.17L280.331 181.289C276.359 179.045 271.978 177.592 267.437 177.016C262.895 176.44 258.283 176.75 253.864 177.93C249.445 179.109 245.304 181.135 241.68 183.891C238.056 186.647 235.018 190.08 232.741 193.992Z" fill="#23BB4E"/>
<path d="M355.414 319.305L354.821 318.883L245.233 241.373C237.088 236.747 231.137 229.128 228.687 220.188C226.236 211.247 227.485 201.713 232.16 193.678C234.48 189.695 237.574 186.201 241.265 183.396C244.956 180.591 249.172 178.529 253.671 177.329C258.171 176.129 262.867 175.813 267.491 176.4C272.115 176.988 276.576 178.466 280.619 180.752L401.251 230.856L400.949 231.452L355.414 319.305ZM263.021 177.337C256.986 177.348 251.061 178.924 245.841 181.906C240.62 184.888 236.289 189.171 233.282 194.324C228.756 202.075 227.542 211.279 229.907 219.911C232.271 228.544 238.02 235.897 245.888 240.355L354.935 317.479L399.537 231.477L280.077 181.807C274.886 178.875 269.005 177.334 263.021 177.337Z" fill="#263238"/>
<path d="M314.252 254.328C312.908 254.334 311.592 253.95 310.47 253.223L278.701 232.822C277.173 231.843 276.102 230.307 275.724 228.552C275.346 226.796 275.691 224.964 276.684 223.459C277.677 221.954 279.236 220.899 281.019 220.526C282.802 220.154 284.661 220.494 286.189 221.472L318.008 241.849C319.242 242.65 320.18 243.822 320.685 245.19C321.189 246.558 321.232 248.049 320.807 249.444C320.383 250.838 319.513 252.06 318.328 252.928C317.142 253.797 315.704 254.266 314.226 254.266L314.252 254.328Z" fill="#263238"/>
<path d="M405.052 313.554C427.321 297.507 432.165 266.716 415.873 244.782C399.581 222.847 368.322 218.075 346.053 234.123C323.785 250.17 318.94 280.961 335.232 302.895C351.524 324.83 382.784 329.602 405.052 313.554Z" fill="white"/>
<path d="M375.46 323.68C364.337 323.66 353.53 320.03 344.714 313.35C335.897 306.67 329.562 297.314 326.689 286.729C323.816 276.145 324.565 264.923 328.821 254.8C333.077 244.678 340.602 236.219 350.231 230.735C359.86 225.25 371.056 223.045 382.086 224.461C393.116 225.877 403.365 230.834 411.245 238.567C419.125 246.299 424.198 256.374 425.678 267.233C427.158 278.092 424.962 289.129 419.431 298.634C415.028 306.285 408.631 312.64 400.901 317.043C393.171 321.446 384.389 323.737 375.46 323.68ZM375.586 225.247C363.6 225.218 352.012 229.485 342.985 237.253C333.958 245.02 328.109 255.757 326.528 267.46C324.947 279.163 327.742 291.033 334.393 300.855C341.044 310.677 351.095 317.78 362.672 320.839C374.248 323.899 386.56 322.705 397.308 317.481C408.057 312.256 416.509 303.359 421.088 292.448C425.666 281.536 426.058 269.357 422.19 258.183C418.322 247.008 410.459 237.601 400.068 231.717C392.621 227.49 384.18 225.259 375.586 225.247Z" fill="#263238"/>
<path d="M393.672 302.727C409.768 293.004 414.814 272.269 404.942 256.414C395.071 240.559 374.02 235.589 357.924 245.312C341.828 255.036 336.782 275.771 346.653 291.625C356.525 307.48 377.576 312.45 393.672 302.727Z" fill="white"/>
<path d="M375.737 308.31C366.89 308.342 358.362 305.06 351.88 299.13C345.398 293.2 341.446 285.065 340.826 276.372C340.206 267.679 342.963 259.079 348.539 252.314C354.116 245.549 362.094 241.125 370.858 239.938C379.623 238.75 388.517 240.888 395.741 245.919C402.965 250.95 407.977 258.497 409.762 267.032C411.548 275.567 409.973 284.451 405.357 291.885C400.741 299.318 393.429 304.746 384.902 307.068C381.916 307.879 378.834 308.296 375.737 308.31ZM375.851 240.958C367.716 240.956 359.859 243.868 353.744 249.151C347.629 254.434 343.673 261.729 342.616 269.673C341.558 277.617 343.471 285.669 347.997 292.327C352.522 298.984 359.352 303.793 367.212 305.856C375.072 307.919 383.426 307.095 390.715 303.539C398.003 299.982 403.73 293.935 406.826 286.526C409.922 279.117 410.176 270.851 407.541 263.271C404.906 255.691 399.561 249.314 392.504 245.329C387.433 242.471 381.693 240.964 375.851 240.958Z" fill="#263238"/>
<path d="M346.512 256.759L345.885 257.836L375.494 274.573L376.122 273.496L346.512 256.759Z" fill="#263238"/>
<path d="M342.54 266.515L342.281 267.73L375.692 274.636L375.951 273.42L342.54 266.515Z" fill="#263238"/>
<path d="M375.755 273.355L341.814 276.969L341.95 278.203L375.891 274.589L375.755 273.355Z" fill="#263238"/>
<path d="M375.547 273.448L344.387 287.184L344.902 288.317L376.062 274.581L375.547 273.448Z" fill="#263238"/>
<path d="M375.365 273.567L350.055 296.133L350.901 297.053L376.211 274.488L375.365 273.567Z" fill="#263238"/>
<path d="M375.25 273.688L358.248 302.848L359.341 303.466L376.343 274.307L375.25 273.688Z" fill="#263238"/>
<path d="M375.2 273.894L368.195 306.805L369.429 307.059L376.434 274.149L375.2 273.894Z" fill="#263238"/>
<path d="M375.711 270.852L374.463 270.988L378.218 304.278L379.466 304.142L375.711 270.852Z" fill="#263238"/>
<path d="M376.371 273.765L375.221 274.273L389.188 304.957L390.338 304.449L376.371 273.765Z" fill="#263238"/>
<path d="M376.261 273.608L375.326 274.441L398.236 299.372L399.17 298.538L376.261 273.608Z" fill="#263238"/>
<path d="M376.114 273.478L375.486 274.555L405.096 291.292L405.723 290.215L376.114 273.478Z" fill="#263238"/>
<path d="M375.937 273.398L375.678 274.613L409.089 281.518L409.348 280.303L375.937 273.398Z" fill="#263238"/>
<path d="M409.681 269.745L375.74 273.359L375.876 274.594L409.817 270.98L409.681 269.745Z" fill="#263238"/>
<path d="M406.696 259.69L375.535 273.426L376.05 274.559L407.211 260.823L406.696 259.69Z" fill="#263238"/>
<path d="M400.681 251.001L375.371 273.566L376.217 274.487L401.527 251.921L400.681 251.001Z" fill="#263238"/>
<path d="M392.254 244.528L375.252 273.688L376.345 274.306L393.347 245.147L392.254 244.528Z" fill="#263238"/>
<path d="M382.214 240.991L375.209 273.902L376.443 274.157L383.447 241.246L382.214 240.991Z" fill="#263238"/>
<path d="M372.753 240.527L371.5 240.66L375.157 274.093L376.411 273.96L372.753 240.527Z" fill="#263238"/>
<path d="M375.218 274.25L361.25 243.579L362.397 243.07L376.365 273.741L375.218 274.25Z" fill="#263238"/>
<path d="M353.347 248.682L352.412 249.516L375.322 274.446L376.256 273.613L353.347 248.682Z" fill="#263238"/>
<path d="M393.669 278.782C396.417 268.935 390.541 258.759 380.545 256.053C370.548 253.346 360.217 259.134 357.469 268.98C354.722 278.827 360.598 289.003 370.594 291.709C380.59 294.416 390.921 288.628 393.669 278.782Z" fill="#263238"/>
<path d="M375.583 292.968C370.645 292.983 365.886 291.147 362.271 287.833C358.656 284.519 356.457 279.975 356.118 275.122C355.78 270.269 357.328 265.471 360.448 261.701C363.569 257.931 368.028 255.472 372.922 254.821C377.816 254.17 382.778 255.377 386.801 258.197C390.825 261.017 393.609 265.239 394.589 270.006C395.569 274.774 394.672 279.73 392.079 283.869C389.485 288.009 385.391 291.022 380.626 292.298C378.981 292.737 377.286 292.962 375.583 292.968ZM375.583 255.989C371.175 255.981 366.915 257.553 363.598 260.412C360.28 263.27 358.131 267.22 357.553 271.524C356.975 275.828 358.006 280.192 360.454 283.802C362.902 287.413 366.6 290.022 370.858 291.144C375.116 292.266 379.643 291.824 383.594 289.9C387.546 287.976 390.651 284.701 392.332 280.688C394.012 276.674 394.153 272.195 392.727 268.087C391.301 263.979 388.407 260.522 384.584 258.361C381.846 256.809 378.742 255.991 375.583 255.989Z" fill="#263238"/>
<path d="M298.035 215.874C301.036 194.97 286.265 175.627 265.042 172.671C243.819 169.714 224.181 184.264 221.18 205.169C218.179 226.073 232.951 245.416 254.174 248.372C275.396 251.328 295.034 236.778 298.035 215.874Z" fill="white"/>
<path d="M258.762 248.154C248.734 248.155 239.081 244.4 231.759 237.652C224.436 230.904 219.992 221.666 219.326 211.811C218.66 201.955 221.822 192.219 228.172 184.574C234.522 176.93 243.585 171.949 253.524 170.64C263.463 169.332 273.536 171.794 281.702 177.527C289.867 183.261 295.514 191.837 297.499 201.519C299.484 211.201 297.659 221.264 292.393 229.67C287.126 238.075 278.813 244.195 269.137 246.788C265.756 247.698 262.267 248.157 258.762 248.154ZM258.888 171.675C255.482 171.674 252.091 172.117 248.803 172.992C240.27 175.255 232.798 180.363 227.659 187.445C222.521 194.526 220.034 203.144 220.623 211.829C221.212 220.514 224.84 228.729 230.889 235.075C236.937 241.421 245.033 245.505 253.796 246.63C262.558 247.756 271.446 245.855 278.945 241.249C286.444 236.644 292.09 229.62 294.921 221.375C297.752 213.129 297.593 204.171 294.47 196.028C291.348 187.885 285.456 181.061 277.798 176.717C272.052 173.434 265.531 171.695 258.888 171.675Z" fill="#263238"/>
<path d="M283.491 211.826C284.913 198.41 275.024 186.398 261.402 184.997C247.781 183.596 235.587 193.337 234.165 206.754C232.743 220.171 242.632 232.182 256.253 233.583C269.874 234.984 282.069 225.243 283.491 211.826Z" fill="white"/>
<path d="M258.786 234.343C254.889 234.336 251.047 233.447 247.554 231.745C244.062 230.043 241.013 227.574 238.642 224.528C236.272 221.481 234.644 217.939 233.884 214.175C233.123 210.411 233.251 206.525 234.257 202.817C235.262 199.109 237.12 195.678 239.685 192.789C242.25 189.9 245.454 187.63 249.051 186.154C252.648 184.678 256.541 184.035 260.43 184.276C264.319 184.517 268.1 185.634 271.481 187.542C275.853 190.006 279.383 193.693 281.626 198.135C283.868 202.577 284.722 207.575 284.078 212.496C283.434 217.416 281.321 222.037 278.008 225.774C274.695 229.511 270.331 232.195 265.467 233.486C263.288 234.059 261.042 234.347 258.786 234.343ZM258.862 185.468C252.994 185.46 247.324 187.556 242.91 191.363C238.495 195.17 235.637 200.429 234.87 206.159C234.102 211.889 235.478 217.698 238.739 222.503C242 227.307 246.924 230.779 252.593 232.27C258.262 233.762 264.288 233.171 269.547 230.607C274.806 228.044 278.938 223.684 281.174 218.34C283.409 212.997 283.594 207.035 281.694 201.566C279.795 196.098 275.941 191.497 270.851 188.622C267.203 186.556 263.069 185.469 258.862 185.468Z" fill="#263238"/>
<path d="M237.659 196.614L237.031 197.691L258.517 209.836L259.144 208.759L237.659 196.614Z" fill="#263238"/>
<path d="M234.722 203.687L234.463 204.902L258.707 209.913L258.966 208.698L234.722 203.687Z" fill="#263238"/>
<path d="M258.762 208.644L234.146 211.266L234.282 212.5L258.898 209.879L258.762 208.644Z" fill="#263238"/>
<path d="M258.553 208.716L235.951 218.703L236.467 219.836L259.069 209.849L258.553 208.716Z" fill="#263238"/>
<path d="M258.393 208.85L240.025 225.203L240.871 226.124L259.239 209.771L258.393 208.85Z" fill="#263238"/>
<path d="M258.283 208.962L245.945 230.121L247.038 230.74L259.376 209.581L258.283 208.962Z" fill="#263238"/>
<path d="M258.223 209.178L253.141 233.059L254.374 233.313L259.457 209.432L258.223 209.178Z" fill="#263238"/>
<path d="M259.433 209.242L258.18 209.375L260.834 233.635L262.087 233.502L259.433 209.242Z" fill="#263238"/>
<path d="M259.387 209.039L258.236 209.547L268.371 231.811L269.521 231.303L259.387 209.039Z" fill="#263238"/>
<path d="M259.282 208.878L258.348 209.711L274.971 227.801L275.906 226.968L259.282 208.878Z" fill="#263238"/>
<path d="M259.135 208.767L258.508 209.844L279.993 221.988L280.621 220.911L259.135 208.767Z" fill="#263238"/>
<path d="M258.966 208.695L258.707 209.91L282.951 214.921L283.21 213.705L258.966 208.695Z" fill="#263238"/>
<path d="M283.381 206.035L258.766 208.656L258.901 209.891L283.517 207.27L283.381 206.035Z" fill="#263238"/>
<path d="M281.157 198.744L258.555 208.73L259.071 209.863L281.673 199.877L281.157 198.744Z" fill="#263238"/>
<path d="M276.764 192.471L258.396 208.824L259.242 209.745L277.61 193.392L276.764 192.471Z" fill="#263238"/>
<path d="M270.595 187.829L258.264 208.977L259.357 209.595L271.688 188.447L270.595 187.829Z" fill="#263238"/>
<path d="M263.298 185.31L258.215 209.191L259.449 209.446L264.531 185.565L263.298 185.31Z" fill="#263238"/>
<path d="M256.789 184.984L255.535 185.117L258.188 209.365L259.441 209.232L256.789 184.984Z" fill="#263238"/>
<path d="M249.256 186.801L248.105 187.309L258.235 209.562L259.385 209.054L249.256 186.801Z" fill="#263238"/>
<path d="M242.679 190.8L241.744 191.633L258.359 209.714L259.294 208.88L242.679 190.8Z" fill="#263238"/>
<path d="M266.511 221.448C273.351 217.269 275.456 208.42 271.214 201.683C266.971 194.946 257.988 192.872 251.148 197.051C244.308 201.23 242.203 210.079 246.445 216.816C250.688 223.553 259.671 225.627 266.511 221.448Z" fill="#263238"/>
<path d="M258.795 224.255C256.464 224.256 254.165 223.729 252.074 222.715C249.983 221.7 248.157 220.226 246.737 218.406C245.317 216.586 244.341 214.469 243.883 212.218C243.426 209.967 243.5 207.643 244.1 205.425C244.7 203.207 245.81 201.154 247.344 199.425C248.877 197.697 250.794 196.339 252.945 195.456C255.096 194.573 257.425 194.19 259.751 194.335C262.076 194.479 264.337 195.149 266.359 196.291C269.264 197.934 271.538 200.475 272.826 203.521C274.114 206.567 274.345 209.947 273.482 213.135C272.62 216.324 270.713 219.142 268.057 221.153C265.401 223.164 262.145 224.255 258.795 224.255ZM258.795 195.546C255.406 195.537 252.129 196.742 249.576 198.937C247.023 201.132 245.369 204.168 244.921 207.476C244.473 210.785 245.263 214.141 247.143 216.919C249.023 219.696 251.865 221.704 255.138 222.569C258.411 223.434 261.892 223.096 264.931 221.619C267.97 220.141 270.359 217.625 271.653 214.54C272.946 211.454 273.056 208.011 271.961 204.852C270.866 201.693 268.642 199.034 265.703 197.372C263.616 196.192 261.252 195.571 258.845 195.571L258.795 195.546Z" fill="#263238"/>
<path d="M278.59 15.0041L277.67 24.1682L258.76 23.0879L259.302 14.8179L207.615 14.3336C204.285 14.065 200.934 14.4452 197.753 15.4525C194.572 16.4597 191.624 18.0744 189.076 20.2041C186.529 22.3339 184.433 24.9371 182.907 27.865C181.381 30.7929 180.456 33.9883 180.184 37.2685C179.636 43.8891 181.78 50.4529 186.144 55.5172C190.508 60.5816 196.734 63.7321 203.455 64.2763L254.348 71.2549L255.495 63.9411L274.115 65.8906L273.396 73.8626L371.236 87.2733L373.606 15.8858L278.59 15.0041Z" fill="#23BB4E"/>
<path d="M371.802 87.9797L272.677 74.3951L273.395 66.4355L255.985 64.6226L254.838 71.9489L203.341 64.8834C196.453 64.3235 190.073 61.0916 185.605 55.8986C181.137 50.7055 178.946 43.9768 179.514 37.1926C180.083 30.4084 183.364 24.1245 188.636 19.7232C193.908 15.322 200.739 13.1639 207.627 13.7237L259.969 14.208L259.414 22.5028L277.127 23.5211L278.047 14.3694L374.21 15.2759L371.802 87.9797ZM274.038 73.3272L370.541 86.5641L372.861 16.5052L279.131 15.6236L278.211 24.8249L258.04 23.6701L258.582 15.4373L207.526 14.9531C204.247 14.6275 200.935 14.9487 197.783 15.898C194.631 16.8472 191.703 18.4055 189.17 20.4818C186.636 22.558 184.548 25.1106 183.028 27.9906C181.507 30.8706 180.584 34.0201 180.312 37.2553C180.041 40.4906 180.427 43.7466 181.447 46.8333C182.468 49.9201 184.102 52.7756 186.255 55.2332C188.409 57.6909 191.037 59.7013 193.988 61.1471C196.939 62.5929 200.152 63.4452 203.441 63.6541L253.742 70.5457L254.876 63.2567L274.731 65.3304L274.038 73.3272Z" fill="#263238"/>
<path d="M277.669 24.1764L268.895 23.6797L265.252 64.9799L274.039 65.8988L277.669 24.1764Z" fill="#263238"/>
<path d="M274.603 66.5758L264.518 65.5204L268.3 23.0156L278.385 23.5992L274.603 66.5758ZM265.904 64.4152L273.468 65.2099L276.985 24.7541L269.422 24.3319L265.904 64.4152Z" fill="#263238"/>
<path d="M262.554 64.5515L266.185 23.5865L258.722 23.0898L255.432 63.943L262.554 64.5515Z" fill="#263238"/>
<path d="M263.119 65.1809L254.748 64.4731L258.139 22.3906L266.863 22.9742L263.119 65.1809ZM256.097 63.3432L261.972 63.8275L265.501 24.0918L259.299 23.682L256.097 63.3432Z" fill="#263238"/>
<path d="M409.485 54.143C410.894 34.3167 395.719 17.1192 375.591 15.7314C355.463 14.3436 338.003 29.2909 336.594 49.1172C335.185 68.9434 350.36 86.1409 370.489 87.5287C390.617 88.9166 408.076 73.9693 409.485 54.143Z" fill="white"/>
<path d="M370.543 88.1778C369.535 88.1778 368.514 88.1778 367.492 88.066C357.788 87.3168 348.768 82.8508 342.368 75.6261C335.968 68.4015 332.698 58.9937 333.259 49.4214C333.821 39.8491 338.169 30.8747 345.37 24.4239C352.572 17.973 362.054 14.5596 371.782 14.916C381.509 15.2723 390.708 19.37 397.403 26.33C404.099 33.2899 407.758 42.5575 407.596 52.1445C407.434 61.7315 403.463 70.874 396.536 77.6104C389.609 84.3469 380.278 88.1407 370.543 88.1778ZM370.543 16.3805C361.152 16.366 352.13 19.9776 345.411 26.4404C338.692 32.9032 334.813 41.7024 334.605 50.9502C334.397 60.198 337.877 69.1577 344.299 75.9071C350.721 82.6565 359.572 86.6578 368.955 87.0528C378.337 87.4477 387.503 84.2048 394.486 78.0196C401.469 71.8345 405.712 63.1999 406.306 53.9684C406.9 44.7368 403.797 35.6437 397.662 28.6399C391.528 21.636 382.851 17.2794 373.493 16.5046C372.497 16.4301 371.514 16.3805 370.543 16.3805Z" fill="#263238"/>
<path d="M395.552 54.6785C397.224 41.2137 387.497 28.9639 373.827 27.3178C360.157 25.6717 347.721 35.2526 346.049 48.7174C344.378 62.1821 354.105 74.4319 367.775 76.078C381.445 77.7241 393.881 68.1432 395.552 54.6785Z" fill="white"/>
<path d="M370.795 76.8666C370.102 76.8666 369.396 76.8666 368.69 76.7797C361.931 76.2347 355.669 73.0673 351.281 67.9744C346.893 62.8815 344.739 56.2803 345.292 49.6229C345.846 42.9655 349.061 36.7973 354.232 32.4752C359.402 28.1531 366.104 26.0312 372.863 26.5762C379.463 27.0767 385.609 30.0793 390.007 34.9521C394.405 39.825 396.714 46.1883 396.446 52.7033C396.178 59.2183 393.355 65.3769 388.571 69.8836C383.787 74.3902 377.415 76.8935 370.795 76.8666ZM370.732 27.7435C364.643 27.764 358.784 30.0351 354.313 34.1075C349.842 38.1798 347.087 43.7567 346.591 49.7347C346.2 54.4536 347.239 59.1806 349.576 63.318C351.913 67.4554 355.443 70.8174 359.72 72.979C363.996 75.1405 368.827 76.0045 373.602 75.4617C378.378 74.9189 382.882 72.9937 386.546 69.9295C390.211 66.8653 392.87 62.7997 394.189 58.2468C395.508 53.6938 395.426 48.858 393.955 44.3506C392.483 39.8433 389.688 35.8669 385.923 32.9241C382.157 29.9814 377.591 28.2044 372.8 27.818C372.081 27.7683 371.413 27.7435 370.732 27.7435Z" fill="#263238"/>
<path d="M346.027 49.0786L345.924 50.3162L370.739 52.3172L370.842 51.0796L346.027 49.0786Z" fill="#263238"/>
<path d="M370.626 51.0801L346.398 56.7344L346.689 57.9427L370.916 52.2883L370.626 51.0801Z" fill="#263238"/>
<path d="M370.442 51.1616L349.168 63.9024L349.823 64.9635L371.097 52.2226L370.442 51.1616Z" fill="#263238"/>
<path d="M370.302 51.2925L354.072 69.8908L355.028 70.7002L371.258 52.1019L370.302 51.2925Z" fill="#263238"/>
<path d="M370.216 51.4746L360.604 74.0976L361.766 74.577L371.379 51.954L370.216 51.4746Z" fill="#263238"/>
<path d="M370.124 51.6265L368.105 76.0701L369.362 76.1708L371.38 51.7272L370.124 51.6265Z" fill="#263238"/>
<path d="M371.383 51.5732L370.156 51.8593L375.892 75.7239L377.119 75.4378L371.383 51.5732Z" fill="#263238"/>
<path d="M371.323 51.3857L370.246 52.0311L383.188 72.9817L384.265 72.3363L371.323 51.3857Z" fill="#263238"/>
<path d="M371.207 51.2417L370.385 52.1834L389.266 68.1692L390.088 67.2275L371.207 51.2417Z" fill="#263238"/>
<path d="M372.556 53.2012L372.064 54.3436L394.971 63.908L395.462 62.7656L372.556 53.2012Z" fill="#263238"/>
<path d="M370.853 51.0903L370.75 52.3279L395.565 54.3289L395.668 53.0913L370.853 51.0903Z" fill="#263238"/>
<path d="M394.862 45.4316L370.635 51.0859L370.925 52.2942L395.153 46.6399L394.862 45.4316Z" fill="#263238"/>
<path d="M391.722 38.396L370.447 51.1368L371.102 52.1978L392.376 39.457L391.722 38.396Z" fill="#263238"/>
<path d="M386.532 32.6792L370.303 51.2775L371.259 52.087L387.488 33.4886L386.532 32.6792Z" fill="#263238"/>
<path d="M379.825 28.8496L370.213 51.4726L371.376 51.952L380.988 29.329L379.825 28.8496Z" fill="#263238"/>
<path d="M372.159 27.1968L370.141 51.6404L371.397 51.7411L373.416 27.2975L372.159 27.1968Z" fill="#263238"/>
<path d="M365.654 27.6982L364.428 27.9843L370.164 51.8489L371.391 51.5628L365.654 27.6982Z" fill="#263238"/>
<path d="M358.372 30.4443L357.295 31.0897L370.237 52.0403L371.314 51.3949L358.372 30.4443Z" fill="#263238"/>
<path d="M352.32 35.2495L351.498 36.1912L370.38 52.177L371.201 51.2353L352.32 35.2495Z" fill="#263238"/>
<path d="M348.045 41.6709L347.559 42.8166L370.531 52.2728L371.017 51.1271L348.045 41.6709Z" fill="#263238"/>
<path d="M379.34 62.0142C385.142 57.2379 385.914 48.7334 381.065 43.019C376.216 37.3045 367.581 36.544 361.78 41.3203C355.978 46.0967 355.206 54.6011 360.055 60.3156C364.905 66.0301 373.539 66.7906 379.34 62.0142Z" fill="#263238"/>
<path d="M370.544 65.778C370.153 65.778 369.762 65.778 369.359 65.778C365.625 65.6254 362.101 64.0375 359.542 61.3551C356.983 58.6727 355.594 55.1093 355.671 51.4294C355.749 47.7494 357.287 44.2459 359.957 41.6704C362.626 39.0948 366.214 37.6523 369.951 37.6523C373.688 37.6523 377.276 39.0948 379.946 41.6704C382.615 44.2459 384.154 47.7494 384.231 51.4294C384.309 55.1093 382.919 58.6727 380.36 61.3551C377.801 64.0375 374.277 65.6254 370.544 65.778ZM370.544 38.8199C367.27 38.8248 364.118 40.0418 361.712 42.2292C359.307 44.4167 357.825 47.4149 357.559 50.6288C357.351 53.162 357.909 55.6991 359.165 57.9194C360.42 60.1398 362.316 61.9437 364.612 63.1031C366.908 64.2625 369.501 64.7253 372.064 64.4331C374.627 64.1409 377.045 63.1068 379.011 61.4614C380.978 59.816 382.405 57.6333 383.112 55.1892C383.819 52.7451 383.775 50.1494 382.985 47.73C382.195 45.3107 380.694 43.1765 378.672 41.5972C376.651 40.0179 374.199 39.0643 371.628 38.8571C371.275 38.8323 370.909 38.8199 370.544 38.8199Z" fill="#263238"/>
<path d="M332.984 48.1177C333.656 36.1209 324.328 25.8586 312.148 25.1963C299.969 24.534 289.55 33.7224 288.878 45.7192C288.205 57.716 297.534 67.9783 309.713 68.6407C321.893 69.303 332.311 60.1145 332.984 48.1177Z" fill="white"/>
<path d="M310.966 69.312C310.348 69.312 309.705 69.312 309.1 69.2375C303.183 68.7603 297.691 66.0177 293.803 61.5979C289.914 57.1781 287.94 51.4333 288.302 45.5959C288.665 39.7586 291.336 34.2937 295.742 30.3737C300.148 26.4537 305.938 24.3908 311.871 24.6277C317.803 24.8646 323.405 27.3824 327.475 31.6408C331.544 35.8993 333.757 41.5592 333.639 47.4064C333.521 53.2535 331.08 58.822 326.842 62.9172C322.603 67.0125 316.903 69.3083 310.966 69.312ZM310.966 25.8511C305.417 25.8896 300.104 28.068 296.166 31.9196C292.228 35.7711 289.979 40.9891 289.901 46.4547C289.822 51.9204 291.921 57.1987 295.748 61.1579C299.574 65.1172 304.823 67.4422 310.369 67.6346C315.915 67.8269 321.316 65.8713 325.416 62.1869C329.515 58.5026 331.986 53.3828 332.298 47.9252C332.611 42.4677 330.74 37.1068 327.087 32.992C323.434 28.8772 318.289 26.336 312.756 25.9132C312.101 25.8263 311.508 25.8015 310.916 25.8015L310.966 25.8511Z" fill="#263238"/>
<path d="M316.504 60.864C324.295 57.9106 328.18 49.2954 325.181 41.6214C322.183 33.9475 313.436 30.1208 305.646 33.0742C297.855 36.0276 293.97 44.6428 296.968 52.3168C299.967 59.9907 308.713 63.8174 316.504 60.864Z" fill="white"/>
<path d="M311.088 62.4574C310.659 62.4574 310.218 62.4574 309.827 62.4574C305.664 62.1281 301.805 60.1835 299.098 57.0513C296.391 53.9192 295.058 49.8562 295.392 45.756C295.727 41.6559 297.701 37.8545 300.881 35.1881C304.061 32.5217 308.186 31.2088 312.348 31.5381C316.402 31.8585 320.173 33.7115 322.871 36.7091C325.569 39.7067 326.985 43.6163 326.822 47.6191C326.659 51.6219 324.93 55.4073 321.997 58.1826C319.064 60.9578 315.155 62.5075 311.088 62.5071V62.4574ZM311.088 32.6557C307.294 32.81 303.714 34.4225 301.113 37.1473C298.513 39.8722 297.101 43.4922 297.179 47.2309C297.258 50.9696 298.82 54.5291 301.533 57.1459C304.245 59.7627 307.89 61.2283 311.686 61.2283C315.483 61.2283 319.128 59.7627 321.84 57.1459C324.552 54.5291 326.115 50.9696 326.193 47.2309C326.272 43.4922 324.859 39.8722 322.259 37.1473C319.659 34.4225 316.078 32.81 312.285 32.6557C311.857 32.6929 311.453 32.6805 311.062 32.6805L311.088 32.6557Z" fill="#263238"/>
<path d="M296.097 45.1255L295.994 46.3631L311.034 47.5758L311.137 46.3382L296.097 45.1255Z" fill="#263238"/>
<path d="M310.922 46.335L296.238 49.7619L296.529 50.9702L311.212 47.5433L310.922 46.335Z" fill="#263238"/>
<path d="M310.753 46.4146L297.859 54.1365L298.514 55.1975L311.408 47.4756L310.753 46.4146Z" fill="#263238"/>
<path d="M310.588 46.5181L300.76 57.7969L301.716 58.6056L311.545 47.3269L310.588 46.5181Z" fill="#263238"/>
<path d="M310.477 46.6763L304.658 60.3905L305.821 60.8693L311.64 47.1551L310.477 46.6763Z" fill="#263238"/>
<path d="M310.473 46.917L309.234 61.7305L310.491 61.8324L311.73 47.019L310.473 46.917Z" fill="#263238"/>
<path d="M311.699 46.8037L310.473 47.0897L313.949 61.5535L315.176 61.2674L311.699 46.8037Z" fill="#263238"/>
<path d="M311.612 46.6514L310.535 47.2969L318.379 59.9945L319.456 59.349L311.612 46.6514Z" fill="#263238"/>
<path d="M311.488 46.48L310.666 47.4217L322.11 57.1103L322.931 56.1686L311.488 46.48Z" fill="#263238"/>
<path d="M311.34 46.3975L310.854 47.5432L324.777 53.2743L325.263 52.1286L311.34 46.3975Z" fill="#263238"/>
<path d="M311.15 46.3325L311.047 47.5701L326.087 48.7828L326.189 47.5452L311.15 46.3325Z" fill="#263238"/>
<path d="M325.615 42.9248L310.932 46.3518L311.222 47.56L325.906 44.1331L325.615 42.9248Z" fill="#263238"/>
<path d="M323.646 38.6919L310.752 46.4139L311.407 47.4749L324.301 39.7529L323.646 38.6919Z" fill="#263238"/>
<path d="M320.436 35.2749L310.6 46.5469L311.556 47.3563L321.392 36.0843L320.436 35.2749Z" fill="#263238"/>
<path d="M316.345 33.0269L310.52 46.7382L311.682 47.2176L317.508 33.5063L316.345 33.0269Z" fill="#263238"/>
<path d="M311.663 32.0796L310.439 46.8943L311.696 46.995L312.919 32.1803L311.663 32.0796Z" fill="#263238"/>
<path d="M308.221 32.3037L306.994 32.59L310.473 47.0532L311.7 46.7669L308.221 32.3037Z" fill="#263238"/>
<path d="M303.776 33.9014L302.699 34.5471L310.546 47.2434L311.622 46.5977L303.776 33.9014Z" fill="#263238"/>
<path d="M300.046 36.8042L299.225 37.7459L310.668 47.4345L311.49 46.4928L300.046 36.8042Z" fill="#263238"/>
<path d="M297.408 40.6553L296.922 41.801L310.845 47.5322L311.331 46.3864L297.408 40.6553Z" fill="#263238"/>
<path d="M311.635 38.7872C309.999 38.6502 308.359 38.9942 306.922 39.7757C305.485 40.5571 304.316 41.7409 303.563 43.1772C302.809 44.6135 302.505 46.2376 302.689 47.8442C302.873 49.4507 303.537 50.9674 304.596 52.2023C305.656 53.4371 307.063 54.3346 308.641 54.7812C310.218 55.2278 311.895 55.2034 313.458 54.711C315.021 54.2186 316.401 53.2805 317.423 52.0153C318.445 50.7501 319.063 49.2147 319.199 47.6035C319.38 45.4469 318.686 43.3075 317.268 41.6546C315.85 40.0018 313.824 38.9705 311.635 38.7872Z" fill="#263238"/>
<path d="M310.956 55.7231H310.224C309.056 55.6285 307.917 55.3081 306.874 54.7801C305.831 54.2522 304.904 53.527 304.145 52.6461C303.387 51.7651 302.812 50.7457 302.453 49.6459C302.094 48.546 301.959 47.3874 302.055 46.2362C302.151 45.0849 302.477 43.9635 303.013 42.9361C303.549 41.9087 304.285 40.9953 305.179 40.2481C306.074 39.501 307.109 38.9346 308.225 38.5814C309.342 38.2282 310.518 38.0951 311.687 38.1897C313.995 38.3602 316.146 39.4074 317.685 41.1103C319.225 42.8133 320.032 45.0387 319.937 47.3169C319.842 49.5951 318.853 51.7479 317.177 53.321C315.501 54.894 313.27 55.7642 310.956 55.7479V55.7231ZM310.956 39.3818C308.952 39.463 307.06 40.3146 305.686 41.7539C304.313 43.1931 303.566 45.1054 303.608 47.0804C303.649 49.0554 304.474 50.9358 305.907 52.3183C307.34 53.7007 309.265 54.4749 311.271 54.4749C313.276 54.4749 315.202 53.7007 316.635 52.3183C318.067 50.9358 318.893 49.0554 318.934 47.0804C318.975 45.1054 318.229 43.1931 316.855 41.7539C315.481 40.3146 313.59 39.463 311.586 39.3818H310.956Z" fill="#263238"/>
<path d="M214.773 66.0501C229.718 61.5184 238.104 45.9109 233.503 31.1897C228.903 16.4685 213.057 8.20817 198.112 12.7398C183.166 17.2715 174.78 32.879 179.381 47.6002C183.982 62.3214 199.827 70.5817 214.773 66.0501Z" fill="white"/>
<path d="M206.455 67.9057C205.673 67.9057 204.879 67.9057 204.072 67.8064C196.538 67.1847 189.552 63.6795 184.612 58.0427C179.672 52.406 177.172 45.0866 177.647 37.6549C178.123 30.2231 181.536 23.2709 187.156 18.2897C192.775 13.3084 200.153 10.6949 207.706 11.0099C215.259 11.3248 222.386 14.543 227.558 19.9742C232.73 25.4053 235.535 32.6168 235.372 40.0616C235.208 47.5063 232.088 54.5914 226.682 59.7968C221.276 65.0022 214.014 67.9133 206.455 67.9057ZM206.391 12.1268C199.136 12.1122 192.163 14.8988 186.969 19.8889C181.775 24.8791 178.774 31.6755 178.608 38.8204C178.442 45.9653 181.125 52.8897 186.082 58.1085C191.039 63.3274 197.875 66.425 205.123 66.7372C212.372 67.0493 219.456 64.551 224.857 59.7782C230.257 55.0053 233.544 48.3379 234.012 41.206C234.479 34.0742 232.091 27.0457 227.359 21.6281C222.627 16.2105 215.928 12.8352 208.698 12.2261C207.917 12.164 207.16 12.1268 206.391 12.1268Z" fill="#263238"/>
<path d="M221.059 60.1413C232.698 49.8547 233.668 32.2219 223.225 20.7574C212.781 9.29281 194.88 8.33786 183.241 18.6244C171.601 28.911 170.632 46.5438 181.075 58.0083C191.519 69.4729 209.42 70.4279 221.059 60.1413Z" fill="white"/>
<path d="M202.181 67.9043C201.387 67.9043 200.592 67.9043 199.798 67.805C192.268 67.1834 185.285 63.6797 180.347 58.0453C175.409 52.411 172.91 45.0949 173.385 37.6664C173.861 30.2379 177.273 23.2888 182.89 18.3098C188.507 13.3308 195.881 10.7185 203.431 11.0333C210.981 11.3481 218.105 14.5648 223.275 19.9936C228.444 25.4223 231.248 32.6306 231.085 40.0721C230.921 47.5135 227.803 54.5954 222.399 59.7986C216.996 65.0018 209.737 67.9118 202.181 67.9043ZM202.181 12.1254C194.924 12.1007 187.946 14.8789 182.744 19.8639C177.543 24.8488 174.532 31.6434 174.358 38.7897C174.185 45.936 176.862 52.8647 181.815 58.0891C186.768 63.3135 193.603 66.4174 200.853 66.7348C208.104 67.0522 215.191 64.5578 220.596 59.7868C226 55.0158 229.29 48.3484 229.761 41.2151C230.232 34.0818 227.845 27.0509 223.113 21.6311C218.381 16.2113 211.681 12.8343 204.45 12.2247C203.656 12.1627 202.874 12.1254 202.143 12.1254H202.181Z" fill="#263238"/>
<path d="M207.471 56.4291C217.021 53.5371 222.382 43.5671 219.446 34.1605C216.51 24.7539 206.388 19.4728 196.838 22.3648C187.289 25.2569 181.927 35.2269 184.863 44.6335C187.799 54.0401 197.921 59.3212 207.471 56.4291Z" fill="white"/>
<path d="M202.197 57.8378C201.68 57.8378 201.151 57.8378 200.634 57.7757C195.76 57.3804 191.237 55.1196 188.036 51.478C184.834 47.8365 183.208 43.1042 183.508 38.296C183.807 33.4878 186.007 28.9866 189.636 25.7575C193.266 22.5284 198.035 20.8287 202.921 21.0228C207.808 21.2169 212.423 23.2893 215.776 26.7957C219.13 30.3021 220.955 34.9633 220.86 39.7796C220.765 44.5959 218.758 49.1839 215.27 52.5597C211.781 55.9355 207.088 57.8303 202.197 57.8378ZM202.134 22.1999C197.755 22.2073 193.539 23.8352 190.321 26.7607C187.104 29.6863 185.12 33.696 184.762 37.9948C184.485 41.3817 185.233 44.7735 186.912 47.7418C188.591 50.71 191.125 53.1214 194.195 54.6712C197.265 56.221 200.733 56.8397 204.159 56.449C207.586 56.0584 210.818 54.6759 213.448 52.4763C216.077 50.2768 217.985 47.3588 218.932 44.0913C219.878 40.8237 219.819 37.3533 218.764 34.1184C217.708 30.8835 215.703 28.0295 213.001 25.9169C210.299 23.8044 207.022 22.5282 203.584 22.2495C203.105 22.2123 202.613 22.1999 202.134 22.1999Z" fill="#263238"/>
<path d="M184.226 37.3325L184.123 38.5701L202.128 40.0219L202.231 38.7843L184.226 37.3325Z" fill="#263238"/>
<path d="M202.012 38.7881L184.434 42.8907L184.724 44.099L202.303 39.9964L202.012 38.7881Z" fill="#263238"/>
<path d="M201.84 38.8569L186.404 48.1013L187.059 49.1623L202.495 39.9179L201.84 38.8569Z" fill="#263238"/>
<path d="M201.67 38.9663L189.904 52.4688L190.861 53.2775L202.627 39.775L201.67 38.9663Z" fill="#263238"/>
<path d="M201.573 39.1289L194.607 55.5471L195.771 56.0259L202.736 39.6077L201.573 39.1289Z" fill="#263238"/>
<path d="M201.543 39.3506L200.078 57.0861L201.335 57.1868L202.799 39.4513L201.543 39.3506Z" fill="#263238"/>
<path d="M202.762 39.2842L201.535 39.5703L205.697 56.8857L206.924 56.5997L202.762 39.2842Z" fill="#263238"/>
<path d="M202.7 39.085L201.623 39.7305L211.014 54.9316L212.091 54.2861L202.7 39.085Z" fill="#263238"/>
<path d="M202.574 38.9409L201.752 39.8826L215.452 51.4814L216.274 50.5397L202.574 38.9409Z" fill="#263238"/>
<path d="M202.424 38.8467L201.938 39.9924L218.606 46.8535L219.092 45.7078L202.424 38.8467Z" fill="#263238"/>
<path d="M202.228 38.7935L202.125 40.031L220.13 41.4829L220.233 40.2453L202.228 38.7935Z" fill="#263238"/>
<path d="M219.594 34.6982L202.016 38.8008L202.306 40.0091L219.885 35.9065L219.594 34.6982Z" fill="#263238"/>
<path d="M217.266 29.6108L201.83 38.8552L202.485 39.9162L217.921 30.6718L217.266 29.6108Z" fill="#263238"/>
<path d="M213.44 25.4663L201.674 38.9688L202.63 39.7775L214.396 26.275L213.44 25.4663Z" fill="#263238"/>
<path d="M208.534 22.7188L201.568 39.1369L202.732 39.6157L209.697 23.1975L208.534 22.7188Z" fill="#263238"/>
<path d="M203.029 21.6284L201.555 39.3632L202.811 39.4645L204.285 21.7297L203.029 21.6284Z" fill="#263238"/>
<path d="M198.608 21.9404L197.381 22.2265L201.543 39.5419L202.77 39.2558L198.608 21.9404Z" fill="#263238"/>
<path d="M193.313 23.8857L192.236 24.5311L201.627 39.7323L202.704 39.0868L193.313 23.8857Z" fill="#263238"/>
<path d="M188.871 27.3276L188.049 28.2693L201.749 39.8681L202.571 38.9264L188.871 27.3276Z" fill="#263238"/>
<path d="M185.732 31.9795L185.246 33.1252L201.914 39.9863L202.4 38.8406L185.732 31.9795Z" fill="#263238"/>
<path d="M203.027 28.9561C200.933 28.7889 198.835 29.2369 197 30.2434C195.164 31.2499 193.672 32.7698 192.713 34.611C191.754 36.4523 191.37 38.5322 191.611 40.5881C191.851 42.644 192.705 44.5835 194.064 46.1616C195.424 47.7397 197.227 48.8855 199.247 49.4544C201.267 50.0232 203.413 49.9895 205.414 49.3575C207.414 48.7255 209.18 47.5236 210.487 45.9036C211.795 44.2836 212.585 42.3183 212.759 40.2559C212.989 37.4864 212.093 34.7402 210.268 32.6212C208.443 30.5022 205.839 29.1839 203.027 28.9561Z" fill="#263238"/>
<path d="M202.167 50.4923H201.234C198.257 50.2519 195.498 48.8563 193.566 46.6126C191.633 44.3689 190.684 41.4608 190.928 38.5282C191.172 35.5955 192.589 32.8784 194.867 30.9747C197.145 29.071 200.097 28.1366 203.075 28.377C206.006 28.5652 208.746 29.8745 210.711 32.0253C212.676 34.1762 213.709 36.9984 213.591 39.8894C213.472 42.7804 212.211 45.5113 210.077 47.4992C207.943 49.4871 205.104 50.5746 202.167 50.5296V50.4923ZM202.167 29.5442C199.53 29.6498 197.04 30.7695 195.231 32.6629C193.423 34.5563 192.44 37.0726 192.494 39.6717C192.547 42.2709 193.633 44.7457 195.518 46.5652C197.403 48.3847 199.937 49.4038 202.577 49.4038C205.216 49.4038 207.75 48.3847 209.635 46.5652C211.52 44.7457 212.606 42.2709 212.66 39.6717C212.714 37.0726 211.731 34.5563 209.922 32.6629C208.114 30.7695 205.624 29.6498 202.986 29.5442H202.167Z" fill="#263238"/>
<path d="M283.383 362.833C283.454 364.022 283.161 365.204 282.542 366.227C281.922 367.25 281.006 368.066 279.911 368.57C278.815 369.074 277.592 369.243 276.398 369.054C275.204 368.865 274.096 368.328 273.216 367.512C272.335 366.695 271.724 365.638 271.461 364.475C271.198 363.313 271.295 362.1 271.74 360.993C272.185 359.885 272.957 358.935 273.956 358.265C274.955 357.595 276.136 357.235 277.345 357.233C278.115 357.21 278.882 357.336 279.602 357.605C280.322 357.874 280.981 358.281 281.542 358.801C282.103 359.321 282.554 359.945 282.87 360.637C283.186 361.329 283.36 362.075 283.383 362.833Z" fill="#263238"/>
<path d="M277.34 369.055C276.111 368.985 274.931 368.562 273.943 367.839C272.956 367.115 272.205 366.123 271.784 364.984C271.362 363.845 271.288 362.609 271.571 361.43C271.854 360.25 272.481 359.178 273.376 358.345C274.27 357.512 275.392 356.956 276.604 356.744C277.816 356.532 279.064 356.674 280.195 357.153C281.325 357.632 282.289 358.426 282.967 359.438C283.645 360.449 284.007 361.634 284.009 362.847C283.956 364.54 283.225 366.143 281.975 367.307C280.726 368.47 279.059 369.099 277.34 369.055ZM277.34 357.88C276.361 357.95 275.425 358.3 274.645 358.886C273.865 359.473 273.276 360.271 272.95 361.182C272.624 362.094 272.574 363.079 272.808 364.018C273.042 364.956 273.549 365.807 274.267 366.466C274.984 367.126 275.882 367.564 276.849 367.728C277.816 367.893 278.81 367.775 279.71 367.391C280.611 367.007 281.378 366.372 281.917 365.565C282.457 364.758 282.746 363.813 282.748 362.847C282.702 361.479 282.107 360.185 281.093 359.249C280.079 358.313 278.729 357.811 277.34 357.855V357.88Z" fill="#263238"/>
<path d="M297.428 362.833C297.499 364.022 297.206 365.204 296.586 366.227C295.967 367.25 295.051 368.066 293.955 368.57C292.86 369.074 291.636 369.243 290.443 369.054C289.249 368.865 288.141 368.328 287.26 367.512C286.38 366.695 285.769 365.638 285.506 364.475C285.243 363.313 285.34 362.1 285.785 360.993C286.23 359.885 287.002 358.935 288.001 358.265C289 357.595 290.181 357.235 291.39 357.233C292.159 357.21 292.926 357.336 293.647 357.605C294.367 357.874 295.026 358.281 295.587 358.801C296.148 359.321 296.599 359.945 296.915 360.637C297.231 361.329 297.405 362.075 297.428 362.833Z" fill="#263238"/>
<path d="M291.424 369.055C290.195 368.985 289.015 368.562 288.027 367.839C287.04 367.115 286.289 366.123 285.868 364.984C285.446 363.845 285.372 362.609 285.655 361.43C285.938 360.25 286.566 359.178 287.46 358.345C288.354 357.512 289.476 356.956 290.688 356.744C291.9 356.532 293.148 356.674 294.279 357.153C295.409 357.632 296.373 358.426 297.051 359.438C297.729 360.449 298.091 361.634 298.093 362.847C298.04 364.54 297.309 366.143 296.059 367.307C294.81 368.47 293.143 369.099 291.424 369.055ZM291.424 357.88C290.445 357.95 289.509 358.3 288.729 358.886C287.949 359.473 287.36 360.271 287.034 361.182C286.708 362.094 286.658 363.079 286.892 364.018C287.126 364.956 287.633 365.807 288.351 366.466C289.068 367.126 289.966 367.564 290.933 367.728C291.9 367.893 292.894 367.775 293.794 367.391C294.695 367.007 295.462 366.372 296.001 365.565C296.541 364.758 296.83 363.813 296.832 362.847C296.786 361.479 296.191 360.185 295.177 359.249C294.163 358.313 292.813 357.811 291.424 357.855V357.88Z" fill="#263238"/>
<path d="M311.544 362.833C311.618 364.025 311.326 365.211 310.706 366.238C310.087 367.265 309.169 368.084 308.071 368.591C306.973 369.097 305.745 369.267 304.548 369.079C303.351 368.89 302.239 368.351 301.356 367.533C300.473 366.714 299.861 365.653 299.597 364.487C299.334 363.321 299.433 362.105 299.88 360.995C300.327 359.885 301.102 358.932 302.106 358.262C303.109 357.591 304.293 357.232 305.506 357.233C307.06 357.189 308.568 357.754 309.7 358.804C310.832 359.854 311.495 361.303 311.544 362.833Z" fill="#263238"/>
<path d="M305.506 369.055C304.277 368.985 303.097 368.562 302.109 367.839C301.122 367.115 300.371 366.123 299.95 364.984C299.528 363.845 299.454 362.609 299.737 361.43C300.02 360.25 300.648 359.178 301.542 358.345C302.436 357.512 303.559 356.956 304.77 356.744C305.982 356.532 307.23 356.674 308.361 357.153C309.491 357.632 310.455 358.426 311.133 359.438C311.811 360.449 312.173 361.634 312.175 362.847C312.119 364.539 311.387 366.14 310.138 367.303C308.889 368.466 307.224 369.096 305.506 369.055ZM305.506 357.88C304.527 357.95 303.591 358.3 302.811 358.886C302.031 359.473 301.442 360.271 301.116 361.182C300.79 362.094 300.74 363.079 300.974 364.018C301.208 364.956 301.715 365.807 302.433 366.466C303.15 367.126 304.048 367.564 305.015 367.728C305.982 367.893 306.976 367.775 307.876 367.391C308.777 367.007 309.544 366.372 310.083 365.565C310.623 364.758 310.912 363.813 310.914 362.847C310.865 361.48 310.268 360.188 309.255 359.252C308.242 358.317 306.894 357.815 305.506 357.855V357.88Z" fill="#263238"/>
<path d="M325.612 362.833C325.682 364.022 325.389 365.205 324.769 366.228C324.15 367.251 323.232 368.067 322.136 368.571C321.04 369.075 319.816 369.242 318.622 369.053C317.428 368.863 316.319 368.325 315.439 367.507C314.56 366.689 313.95 365.63 313.688 364.467C313.426 363.304 313.525 362.091 313.972 360.984C314.419 359.877 315.193 358.927 316.194 358.258C317.195 357.59 318.376 357.232 319.586 357.233C321.138 357.189 322.645 357.755 323.775 358.805C324.905 359.855 325.566 361.304 325.612 362.833Z" fill="#263238"/>
<path d="M319.584 369.055C318.356 368.985 317.175 368.562 316.187 367.839C315.2 367.115 314.449 366.123 314.028 364.984C313.606 363.845 313.532 362.609 313.815 361.43C314.098 360.25 314.726 359.178 315.62 358.345C316.514 357.512 317.637 356.956 318.848 356.744C320.06 356.532 321.308 356.674 322.439 357.153C323.569 357.632 324.533 358.426 325.211 359.438C325.889 360.449 326.251 361.634 326.253 362.847C326.2 364.54 325.469 366.143 324.219 367.307C322.97 368.47 321.303 369.099 319.584 369.055ZM319.584 357.88C318.606 357.95 317.669 358.3 316.889 358.886C316.109 359.473 315.52 360.271 315.194 361.182C314.868 362.094 314.819 363.079 315.053 364.018C315.286 364.956 315.793 365.807 316.511 366.466C317.229 367.126 318.126 367.564 319.093 367.728C320.06 367.893 321.054 367.775 321.955 367.391C322.855 367.007 323.622 366.372 324.161 365.565C324.701 364.758 324.99 363.813 324.992 362.847C324.946 361.479 324.351 360.185 323.337 359.249C322.323 358.313 320.973 357.811 319.584 357.855V357.88Z" fill="#263238"/>
<path d="M339.696 362.833C339.766 364.022 339.473 365.205 338.853 366.228C338.234 367.251 337.316 368.067 336.22 368.571C335.124 369.075 333.9 369.242 332.706 369.053C331.512 368.863 330.403 368.325 329.523 367.507C328.644 366.689 328.034 365.63 327.772 364.467C327.51 363.304 327.609 362.091 328.056 360.984C328.503 359.877 329.277 358.927 330.278 358.258C331.279 357.59 332.46 357.232 333.67 357.233C335.223 357.189 336.729 357.755 337.859 358.805C338.989 359.855 339.65 361.304 339.696 362.833Z" fill="#263238"/>
<path d="M333.669 369.048C332.44 368.98 331.258 368.559 330.268 367.837C329.279 367.115 328.527 366.123 328.103 364.984C327.68 363.846 327.604 362.61 327.886 361.429C328.167 360.249 328.794 359.175 329.688 358.341C330.582 357.507 331.704 356.95 332.916 356.737C334.129 356.524 335.377 356.666 336.509 357.144C337.64 357.623 338.604 358.417 339.283 359.429C339.961 360.441 340.323 361.627 340.325 362.84C340.273 364.53 339.543 366.132 338.296 367.295C337.049 368.458 335.386 369.088 333.669 369.048ZM333.669 357.873C332.69 357.94 331.752 358.288 330.97 358.873C330.189 359.459 329.597 360.256 329.269 361.167C328.941 362.079 328.89 363.065 329.123 364.004C329.356 364.944 329.862 365.796 330.579 366.456C331.296 367.117 332.194 367.556 333.161 367.721C334.128 367.886 335.123 367.77 336.025 367.386C336.926 367.002 337.693 366.367 338.233 365.559C338.773 364.752 339.062 363.807 339.065 362.84C339.019 361.474 338.425 360.182 337.414 359.246C336.402 358.31 335.056 357.808 333.669 357.848V357.873Z" fill="#263238"/>
<path d="M353.774 362.833C353.845 364.022 353.551 365.205 352.931 366.228C352.312 367.251 351.394 368.067 350.298 368.571C349.202 369.075 347.978 369.242 346.784 369.053C345.59 368.863 344.481 368.325 343.602 367.507C342.722 366.689 342.112 365.63 341.85 364.467C341.588 363.304 341.687 362.091 342.134 360.984C342.581 359.877 343.355 358.927 344.356 358.258C345.357 357.59 346.538 357.232 347.748 357.233C349.301 357.189 350.807 357.755 351.937 358.805C353.067 359.855 353.728 361.304 353.774 362.833Z" fill="#263238"/>
<path d="M347.749 369.048C346.52 368.98 345.338 368.559 344.349 367.837C343.359 367.115 342.607 366.123 342.183 364.984C341.76 363.846 341.684 362.61 341.966 361.429C342.248 360.249 342.874 359.175 343.768 358.341C344.662 357.507 345.784 356.95 346.996 356.737C348.209 356.524 349.457 356.666 350.589 357.144C351.72 357.623 352.684 358.417 353.363 359.429C354.041 360.441 354.403 361.627 354.405 362.84C354.353 364.53 353.623 366.132 352.376 367.295C351.129 368.458 349.466 369.088 347.749 369.048ZM347.749 357.873C346.77 357.94 345.832 358.288 345.05 358.873C344.269 359.459 343.678 360.256 343.349 361.167C343.021 362.079 342.97 363.065 343.203 364.004C343.436 364.944 343.942 365.796 344.659 366.456C345.376 367.117 346.274 367.556 347.241 367.721C348.208 367.886 349.204 367.77 350.105 367.386C351.006 367.002 351.773 366.367 352.313 365.559C352.853 364.752 353.142 363.807 353.145 362.84C353.099 361.474 352.505 360.182 351.494 359.246C350.482 358.31 349.136 357.808 347.749 357.848V357.873Z" fill="#263238"/>
<path d="M367.854 362.833C367.925 364.022 367.631 365.204 367.012 366.227C366.393 367.25 365.477 368.066 364.381 368.57C363.286 369.074 362.062 369.243 360.869 369.054C359.675 368.865 358.566 368.328 357.686 367.512C356.806 366.695 356.195 365.638 355.932 364.475C355.669 363.313 355.766 362.1 356.211 360.993C356.656 359.885 357.427 358.935 358.427 358.265C359.426 357.595 360.606 357.235 361.815 357.233C362.585 357.21 363.352 357.336 364.072 357.605C364.793 357.874 365.452 358.281 366.013 358.801C366.574 359.321 367.025 359.945 367.341 360.637C367.657 361.329 367.831 362.075 367.854 362.833Z" fill="#263238"/>
<path d="M361.819 369.055C360.59 368.985 359.409 368.562 358.422 367.839C357.434 367.115 356.684 366.123 356.262 364.984C355.841 363.845 355.767 362.609 356.05 361.43C356.333 360.25 356.96 359.178 357.854 358.345C358.749 357.512 359.871 356.956 361.083 356.744C362.294 356.532 363.543 356.674 364.673 357.153C365.804 357.632 366.767 358.426 367.445 359.438C368.123 360.449 368.485 361.634 368.487 362.847C368.435 364.54 367.703 366.143 366.454 367.307C365.204 368.47 363.538 369.099 361.819 369.055ZM361.819 357.88C360.84 357.95 359.903 358.3 359.124 358.886C358.344 359.473 357.755 360.271 357.428 361.182C357.102 362.094 357.053 363.079 357.287 364.018C357.521 364.956 358.028 365.807 358.745 366.466C359.463 367.126 360.36 367.564 361.327 367.728C362.294 367.893 363.289 367.775 364.189 367.391C365.089 367.007 365.856 366.372 366.396 365.565C366.935 364.758 367.224 363.813 367.227 362.847C367.181 361.479 366.585 360.185 365.571 359.249C364.557 358.313 363.207 357.811 361.819 357.855V357.88Z" fill="#263238"/>
<path d="M381.889 362.833C381.96 364.022 381.666 365.204 381.047 366.227C380.428 367.25 379.512 368.066 378.416 368.57C377.321 369.074 376.097 369.243 374.904 369.054C373.71 368.865 372.601 368.328 371.721 367.512C370.841 366.695 370.23 365.638 369.967 364.475C369.704 363.313 369.801 362.1 370.246 360.993C370.691 359.885 371.463 358.935 372.462 358.265C373.461 357.595 374.642 357.235 375.85 357.233C376.62 357.21 377.387 357.336 378.108 357.605C378.828 357.874 379.487 358.281 380.048 358.801C380.609 359.321 381.06 359.945 381.376 360.637C381.692 361.329 381.866 362.075 381.889 362.833Z" fill="#263238"/>
<path d="M375.899 369.055C374.67 368.985 373.489 368.562 372.502 367.839C371.515 367.115 370.764 366.123 370.342 364.984C369.921 363.845 369.847 362.609 370.13 361.43C370.413 360.25 371.04 359.178 371.934 358.345C372.829 357.512 373.951 356.956 375.163 356.744C376.375 356.532 377.623 356.674 378.753 357.153C379.884 357.632 380.848 358.426 381.525 359.438C382.203 360.449 382.565 361.634 382.567 362.847C382.515 364.54 381.784 366.143 380.534 367.307C379.284 368.47 377.618 369.099 375.899 369.055ZM375.899 357.88C374.92 357.95 373.983 358.3 373.204 358.886C372.424 359.473 371.835 360.271 371.508 361.182C371.182 362.094 371.133 363.079 371.367 364.018C371.601 364.956 372.108 365.807 372.825 366.466C373.543 367.126 374.44 367.564 375.407 367.728C376.374 367.893 377.369 367.775 378.269 367.391C379.169 367.007 379.936 366.372 380.476 365.565C381.015 364.758 381.304 363.813 381.307 362.847C381.261 361.479 380.665 360.185 379.651 359.249C378.637 358.313 377.288 357.811 375.899 357.855V357.88Z" fill="#263238"/>
<path d="M396.021 362.833C396.094 364.025 395.802 365.211 395.183 366.238C394.563 367.265 393.645 368.084 392.547 368.591C391.449 369.097 390.222 369.267 389.025 369.079C387.828 368.89 386.715 368.351 385.833 367.533C384.95 366.714 384.337 365.653 384.074 364.487C383.811 363.321 383.909 362.105 384.356 360.995C384.804 359.885 385.579 358.932 386.582 358.262C387.585 357.591 388.77 357.232 389.982 357.233C391.536 357.189 393.044 357.754 394.176 358.804C395.308 359.854 395.971 361.303 396.021 362.833Z" fill="#263238"/>
<path d="M389.981 369.055C388.752 368.985 387.571 368.562 386.584 367.839C385.596 367.115 384.846 366.123 384.424 364.984C384.003 363.845 383.929 362.609 384.212 361.43C384.495 360.25 385.122 359.178 386.016 358.345C386.911 357.512 388.033 356.956 389.245 356.744C390.457 356.532 391.705 356.674 392.835 357.153C393.966 357.632 394.93 358.426 395.607 359.438C396.285 360.449 396.647 361.634 396.649 362.847C396.593 364.539 395.861 366.14 394.612 367.303C393.363 368.466 391.699 369.096 389.981 369.055ZM389.981 357.88C389.002 357.95 388.065 358.3 387.286 358.886C386.506 359.473 385.917 360.271 385.59 361.182C385.264 362.094 385.215 363.079 385.449 364.018C385.683 364.956 386.19 365.807 386.907 366.466C387.625 367.126 388.522 367.564 389.489 367.728C390.456 367.893 391.451 367.775 392.351 367.391C393.251 367.007 394.018 366.372 394.558 365.565C395.097 364.758 395.386 363.813 395.389 362.847C395.339 361.48 394.743 360.188 393.73 359.252C392.716 358.317 391.369 357.815 389.981 357.855V357.88Z" fill="#263238"/>
<path d="M410.101 362.833C410.174 364.025 409.882 365.211 409.263 366.238C408.643 367.265 407.725 368.084 406.627 368.591C405.529 369.097 404.302 369.267 403.105 369.079C401.908 368.89 400.796 368.351 399.913 367.533C399.03 366.714 398.417 365.653 398.154 364.487C397.891 363.321 397.989 362.105 398.436 360.995C398.884 359.885 399.659 358.932 400.662 358.262C401.665 357.591 402.85 357.232 404.062 357.233C405.616 357.189 407.125 357.754 408.256 358.804C409.388 359.854 410.052 361.303 410.101 362.833Z" fill="#263238"/>
<path d="M404.063 369.055C402.834 368.985 401.653 368.562 400.666 367.839C399.679 367.115 398.928 366.123 398.506 364.984C398.085 363.845 398.011 362.609 398.294 361.43C398.577 360.25 399.204 359.178 400.099 358.345C400.993 357.512 402.115 356.956 403.327 356.744C404.539 356.532 405.787 356.674 406.917 357.153C408.048 357.632 409.012 358.426 409.689 359.438C410.367 360.449 410.729 361.634 410.732 362.847C410.679 364.54 409.948 366.143 408.698 367.307C407.448 368.47 405.782 369.099 404.063 369.055ZM404.063 357.88C403.084 357.95 402.147 358.3 401.368 358.886C400.588 359.473 399.999 360.271 399.673 361.182C399.346 362.094 399.297 363.079 399.531 364.018C399.765 364.956 400.272 365.807 400.989 366.466C401.707 367.126 402.604 367.564 403.571 367.728C404.538 367.893 405.533 367.775 406.433 367.391C407.333 367.007 408.1 366.372 408.64 365.565C409.18 364.758 409.468 363.813 409.471 362.847C409.425 361.479 408.829 360.185 407.815 359.249C406.801 358.313 405.452 357.811 404.063 357.855V357.88Z" fill="#263238"/>
<path d="M424.174 362.833C424.245 364.022 423.951 365.205 423.332 366.228C422.712 367.251 421.795 368.067 420.699 368.571C419.603 369.075 418.378 369.242 417.184 369.053C415.99 368.863 414.882 368.325 414.002 367.507C413.122 366.689 412.512 365.63 412.25 364.467C411.989 363.304 412.088 362.091 412.535 360.984C412.981 359.877 413.755 358.927 414.756 358.258C415.757 357.59 416.939 357.232 418.148 357.233C419.701 357.189 421.208 357.755 422.338 358.805C423.468 359.855 424.128 361.304 424.174 362.833Z" fill="#263238"/>
<path d="M418.142 369.048C416.912 368.98 415.73 368.559 414.741 367.837C413.752 367.115 412.999 366.123 412.576 364.984C412.152 363.846 412.077 362.61 412.359 361.429C412.64 360.249 413.267 359.175 414.161 358.341C415.055 357.507 416.177 356.95 417.389 356.737C418.601 356.524 419.85 356.666 420.981 357.144C422.113 357.623 423.077 358.417 423.755 359.429C424.434 360.441 424.796 361.627 424.798 362.84C424.745 364.53 424.016 366.132 422.769 367.295C421.522 368.458 419.859 369.088 418.142 369.048ZM418.142 357.873C417.162 357.94 416.224 358.288 415.443 358.873C414.661 359.459 414.07 360.256 413.742 361.167C413.414 362.079 413.363 363.065 413.596 364.004C413.828 364.944 414.334 365.796 415.052 366.456C415.769 367.117 416.666 367.556 417.634 367.721C418.601 367.886 419.596 367.77 420.497 367.386C421.398 367.002 422.166 366.367 422.706 365.559C423.246 364.752 423.535 363.807 423.537 362.84C423.491 361.474 422.898 360.182 421.886 359.246C420.875 358.31 419.529 357.808 418.142 357.848V357.873Z" fill="#263238"/>
<path d="M428.42 362.723H267.068V383.385H428.42V362.723Z" fill="#263238"/>
<path d="M429.052 384.006H266.428V362.102H429.052V384.006ZM267.688 382.764H427.792V363.343H267.688V382.764Z" fill="#263238"/>
</g>
</g>
<defs>
<clipPath id="clip0_92_6">
<rect width="446" height="384" fill="white"/>
</clipPath>
</defs>
</svg>
