<svg width="254" height="226" viewBox="0 0 254 226" fill="none" xmlns="http://www.w3.org/2000/svg">
<g opacity="0.8">
<path d="M252.72 0.5H0.5V225.01H252.72V0.5Z" fill="white" stroke="#263238" stroke-linecap="round" stroke-linejoin="round"/>
<path d="M252.72 0.5H0.5V35.58H252.72V0.5Z" fill="#23BB4E" stroke="#263238" stroke-linecap="round" stroke-linejoin="round"/>
<path d="M252.721 0.5H243.221V225.01H252.721V0.5Z" fill="#DBDBDB" stroke="#263238" stroke-linecap="round" stroke-linejoin="round"/>
<path d="M252.721 34.25H243.221V77.58H252.721V34.25Z" fill="#949494" stroke="#263238" stroke-linecap="round" stroke-linejoin="round"/>
<path d="M252.72 0.5H0.5V17.55H252.72V0.5Z" fill="#DBDBDB" stroke="#263238" stroke-linecap="round" stroke-linejoin="round"/>
<path d="M112.759 5.48047H13.2891V12.5805H112.759V5.48047Z" fill="white" stroke="#263238" stroke-linecap="round" stroke-linejoin="round"/>
<path d="M237.83 5.80859H246.56" stroke="#263238" stroke-linecap="round" stroke-linejoin="round"/>
<path d="M237.83 9.5H246.56" stroke="#263238" stroke-linecap="round" stroke-linejoin="round"/>
<path d="M237.83 13.1914H246.56" stroke="#263238" stroke-linecap="round" stroke-linejoin="round"/>
<path d="M202.551 61.5781H42.5508V67.5781H202.551V61.5781Z" fill="#DBDBDB" stroke="#A8A8A8" stroke-linecap="round" stroke-linejoin="round"/>
<path d="M121.881 61.5781H42.5508V67.5781H121.881V61.5781Z" fill="#23BB4E" stroke="#263238" stroke-linecap="round" stroke-linejoin="round"/>
<path d="M33.8907 80.2502C41.9927 80.2502 48.5607 73.6822 48.5607 65.5802C48.5607 57.4781 41.9927 50.9102 33.8907 50.9102C25.7887 50.9102 19.2207 57.4781 19.2207 65.5802C19.2207 73.6822 25.7887 80.2502 33.8907 80.2502Z" fill="#23BB4E" stroke="#263238" stroke-linecap="round" stroke-linejoin="round"/>
<path d="M33.8899 78.0494C40.7769 78.0494 46.3599 72.4664 46.3599 65.5794C46.3599 58.6924 40.7769 53.1094 33.8899 53.1094C27.0029 53.1094 21.4199 58.6924 21.4199 65.5794C21.4199 72.4664 27.0029 78.0494 33.8899 78.0494Z" fill="white" stroke="#263238" stroke-linecap="round" stroke-linejoin="round"/>
<path d="M122.551 80.2502C130.653 80.2502 137.221 73.6822 137.221 65.5802C137.221 57.4781 130.653 50.9102 122.551 50.9102C114.449 50.9102 107.881 57.4781 107.881 65.5802C107.881 73.6822 114.449 80.2502 122.551 80.2502Z" fill="#23BB4E" stroke="#263238" stroke-linecap="round" stroke-linejoin="round"/>
<path d="M122.55 78.0494C129.437 78.0494 135.02 72.4664 135.02 65.5794C135.02 58.6924 129.437 53.1094 122.55 53.1094C115.663 53.1094 110.08 58.6924 110.08 65.5794C110.08 72.4664 115.663 78.0494 122.55 78.0494Z" fill="white" stroke="#263238" stroke-linecap="round" stroke-linejoin="round"/>
<path d="M211.221 80.2502C219.323 80.2502 225.891 73.6822 225.891 65.5802C225.891 57.4781 219.323 50.9102 211.221 50.9102C203.119 50.9102 196.551 57.4781 196.551 65.5802C196.551 73.6822 203.119 80.2502 211.221 80.2502Z" fill="#DBDBDB" stroke="#A8A8A8" stroke-linecap="round" stroke-linejoin="round"/>
<path d="M211.221 78.0903C218.13 78.0903 223.731 72.4894 223.731 65.5803C223.731 58.6712 218.13 53.0703 211.221 53.0703C204.312 53.0703 198.711 58.6712 198.711 65.5803C198.711 72.4894 204.312 78.0903 211.221 78.0903Z" fill="white" stroke="#A8A8A8" stroke-linecap="round" stroke-linejoin="round"/>
<path d="M31.3401 61.09C31.838 61.1476 32.3393 61.0161 32.7449 60.7217C33.1504 60.4272 33.4306 59.9912 33.5301 59.5H34.8701V72.14H32.8701V62.5H31.3301L31.3401 61.09Z" fill="#263238"/>
<path d="M121.92 61.1584C121.29 61.1584 120.92 61.4984 120.92 62.4084V63.7584H119.02V62.5784C119.02 60.5784 120.02 59.3984 122.02 59.3984C124.02 59.3984 125.02 60.5584 125.02 62.5784C125.02 66.5784 121.07 68.0384 121.07 70.1184C121.06 70.2082 121.06 70.2987 121.07 70.3884H124.82V72.1884H119.02V70.5784C119.02 66.8584 122.96 66.2384 122.96 62.5784C122.95 61.4684 122.55 61.1584 121.92 61.1584Z" fill="#263238"/>
<path d="M212.08 62.5784C212.08 61.4384 211.68 61.1284 211.08 61.1284C210.48 61.1284 210.08 61.4684 210.08 62.3784V63.1884H208.2V62.5784C208.2 60.5784 209.2 59.3984 211.2 59.3984C213.2 59.3984 214.2 60.5584 214.2 62.5784V62.9084C214.28 63.4338 214.188 63.971 213.937 64.4397C213.687 64.9084 213.291 65.2834 212.81 65.5084C213.249 65.7732 213.598 66.1632 213.814 66.6283C214.03 67.0934 214.101 67.6123 214.02 68.1184V69.1184C214.02 71.1184 213.02 72.2984 211.02 72.2984C209.02 72.2984 208.02 71.1384 208.02 69.1184V68.1184H210.02V69.2984C210.02 70.1984 210.41 70.5384 211.02 70.5384C211.63 70.5384 212.02 70.2384 212.02 69.1184V68.1184C212.02 66.9484 211.62 66.5084 210.72 66.5084H210.05V64.7084H210.82C211.56 64.7084 212.02 64.3784 212.02 63.3684L212.08 62.5784Z" fill="#263238"/>
<path d="M96.9705 115.219H22.4805V126.739H96.9705V115.219Z" fill="white" stroke="#263238" stroke-linecap="round" stroke-linejoin="round"/>
<path d="M187.92 115.219H113.43V126.739H187.92V115.219Z" fill="white" stroke="#263238" stroke-linecap="round" stroke-linejoin="round"/>
<path d="M148 137.859H22.4805V149.379H148V137.859Z" fill="white" stroke="#263238" stroke-linecap="round" stroke-linejoin="round"/>
<path d="M148 159.672H22.4805V171.192H148V159.672Z" fill="white" stroke="#263238" stroke-linecap="round" stroke-linejoin="round"/>
<path d="M25.5595 94.8008C26.8495 94.8008 27.4995 95.5608 27.4995 96.9108V97.1708H26.2595V96.8208C26.2595 96.2208 26.0195 95.9908 25.5995 95.9908C25.1795 95.9908 24.9395 96.2208 24.9395 96.8208C24.9395 98.5508 27.5195 98.8708 27.5195 101.271C27.5195 102.611 26.8495 103.381 25.5195 103.381C24.1895 103.381 23.5195 102.611 23.5195 101.271V100.761H24.7695V101.361C24.7695 101.961 25.0295 102.171 25.4495 102.171C25.8695 102.171 26.1395 101.961 26.1395 101.361C26.1395 99.6308 23.5595 99.3008 23.5595 96.9108C23.6195 95.5808 24.2795 94.8008 25.5595 94.8008Z" fill="#263238"/>
<path d="M27.8906 94.8906H32.0206V96.0906H30.6406V103.291H29.3206V96.0906H27.9406L27.8906 94.8906Z" fill="#263238"/>
<path d="M33.8708 98.4306H35.6808V99.6306H33.8708V102.091H36.1408V103.291H32.5508V94.8906H36.1408V96.0906H33.8708V98.4306Z" fill="#263238"/>
<path d="M40.8699 96.9706V98.0606C40.8699 99.4006 40.2199 100.131 38.8699 100.131H38.2399V103.291H36.9199V94.8906H38.8699C40.2199 94.8906 40.8699 95.5806 40.8699 96.9706ZM38.2799 96.0906V98.9306H38.9099C39.3299 98.9306 39.5499 98.7406 39.5499 98.1406V96.8806C39.5499 96.2806 39.3299 96.0906 38.9099 96.0906H38.2799Z" fill="#263238"/>
<path d="M45.8893 96.949C45.8893 96.199 45.6193 95.949 45.2093 95.949C44.7993 95.949 44.5193 96.1789 44.5193 96.7789V97.3189H43.2693V96.869C43.2268 96.5917 43.2482 96.3083 43.332 96.0406C43.4158 95.7728 43.5596 95.5278 43.7526 95.3242C43.9456 95.1206 44.1826 94.9638 44.4455 94.8658C44.7083 94.7679 44.9901 94.7313 45.2693 94.759C46.5693 94.759 47.2693 95.519 47.2693 96.869V97.079C47.3235 97.4292 47.262 97.7876 47.0941 98.0998C46.9263 98.4119 46.6613 98.6609 46.3393 98.809C46.6587 98.9685 46.92 99.2241 47.0868 99.5397C47.2536 99.8553 47.3174 100.215 47.2693 100.569V101.229C47.2693 102.569 46.5993 103.339 45.2693 103.339C44.9901 103.367 44.7083 103.33 44.4455 103.232C44.1826 103.134 43.9456 102.977 43.7526 102.774C43.5596 102.57 43.4158 102.325 43.332 102.057C43.2482 101.79 43.2268 101.506 43.2693 101.229V100.579H44.5193V101.359C44.5193 101.959 44.7893 102.179 45.2093 102.179C45.6293 102.179 45.8893 101.979 45.8893 101.239V100.579C45.8893 99.799 45.6193 99.509 45.0293 99.509H44.5793V98.309H45.0993C45.5893 98.309 45.8893 98.0889 45.8893 97.4189V96.949Z" fill="#263238"/>
<path d="M109.551 99.5781H119.551" stroke="#263238" stroke-miterlimit="10"/>
<path d="M72.5508 99.5781H105.051" stroke="#263238" stroke-miterlimit="10"/>
<path d="M58.0508 99.5781H68.0508" stroke="#263238" stroke-miterlimit="10"/>
<path d="M21.8906 192.25H212.551" stroke="#263238" stroke-linecap="round" stroke-linejoin="round"/>
</g>
</svg>
