<svg width="94" height="86" viewBox="0 0 94 86" fill="none" xmlns="http://www.w3.org/2000/svg">
<g clip-path="url(#clip0_5277_14570)">
<path d="M55.5398 32.0173C50.3655 28.2282 48.1664 22.9064 46.8728 17.1163C46.1398 13.8807 45.7948 10.6025 46.226 7.28169C46.3985 5.87674 46.6572 4.51436 47.2609 3.23714C47.6489 2.47081 48.0801 1.74704 48.6838 1.10843C49.8049 -0.0836503 51.3572 -0.296522 52.8664 0.384666C53.815 0.810409 54.5911 1.53417 55.2379 2.30051C56.359 3.66288 57.1783 5.19555 57.8251 6.81337C59.5499 11.0708 60.1104 15.5411 60.0242 20.1391C59.9379 23.2045 59.593 26.2698 58.9462 29.25C58.9031 29.4629 58.9031 29.6332 58.86 29.8886C60.0673 30.4847 61.3609 30.6124 62.6976 30.655C68.26 30.9104 73.693 30.1015 78.9535 28.3134C80.6783 27.7173 82.36 27.0361 83.9985 26.2272C87.1893 24.7371 89.9058 22.5658 92.0618 19.8411C92.4499 19.3728 92.8379 18.9045 93.2691 18.4361C93.3122 18.3936 93.3985 18.3936 93.6141 18.3936C93.5278 18.6916 93.4847 18.9045 93.3985 19.1173C91.7168 22.651 89.259 25.5035 85.982 27.7173C81.8856 30.4421 77.3581 32.1451 72.5719 33.0817C68.648 33.848 64.7242 34.1886 60.7572 33.7203C59.8948 33.6352 58.9893 33.4223 58.0407 33.252C57.9544 33.4649 57.8682 33.7203 57.782 33.9757C56.6178 37.85 55.2379 41.5965 53.2544 45.1304C51.659 47.9829 49.8049 50.6225 47.4333 52.9215C46.1398 54.1562 44.7168 55.2631 43.1214 56.072C39.0251 58.1156 35.2737 57.477 32.1691 54.1562C31.9966 53.9859 31.8241 53.8156 31.5654 53.5601C31.3929 54.0284 31.2636 54.369 31.0911 54.7522C29.97 57.8175 28.7195 60.8403 27.1242 63.7354C25.7444 66.2047 24.1489 68.5463 22.0792 70.5472C21.0875 71.5265 20.0095 72.3354 18.759 72.974C15.7407 74.4641 12.8517 74.2512 10.092 72.2928C9.57459 71.9522 9.1434 71.5265 8.58285 71.1007C8.41037 71.569 8.28101 71.9096 8.15165 72.2928C6.98743 75.6987 5.56454 79.0621 3.79663 82.2126C3.36544 83.0215 2.84801 83.7878 2.28746 84.5116C2.02874 84.8948 1.59755 85.1502 1.20947 85.4482C0.86452 85.6611 0.476446 85.6611 0.174612 85.3205C-0.127223 84.9799 0.00213471 84.6393 0.26085 84.2987C0.778281 83.575 1.25259 82.8086 1.68379 82.0423C3.83975 78.168 5.4783 74.0809 6.815 69.9086C6.94431 69.5255 7.0306 69.1423 6.72876 68.7591C3.92599 64.8423 2.45993 60.4146 1.55443 55.7314C0.26085 49.2175 0.00213468 42.6185 0.778281 36.0193C1.037 33.7629 1.46819 31.5916 2.41681 29.5054C2.76177 28.7391 3.19296 27.9728 3.71039 27.3342C5.00399 25.7589 6.77184 25.6738 8.32413 27.0361C9.27275 27.8876 9.91954 28.9094 10.437 30.0589C11.515 32.2728 12.1186 34.6569 12.5067 37.0837C13.2828 41.7243 13.2829 46.3651 12.8086 51.0482C12.248 56.7532 11.1269 62.373 9.57463 67.8651C9.40216 68.5037 9.40216 68.972 9.96266 69.3977C10.6526 69.9512 11.2994 70.5898 12.0324 71.0581C13.6709 72.0799 15.3957 72.1651 17.1636 71.3987C18.3709 70.8878 19.3627 70.1215 20.2682 69.2274C21.8636 67.7374 23.114 65.9918 24.2783 64.1611C26.6929 60.2443 28.4609 56.0294 29.9269 51.6869C30.0563 51.3037 30.0994 51.0057 29.8838 50.6225C27.9434 46.7482 27.0811 42.576 26.6499 38.3183C26.1756 33.7203 26.2187 29.1223 26.9948 24.5668C27.2967 22.8213 27.6847 21.0757 28.4178 19.4579C28.7195 18.7767 29.1077 18.0955 29.5819 17.5421C30.7461 16.1797 32.3847 16.2223 33.4627 17.6272C33.9801 18.3084 34.3682 19.0748 34.67 19.8837C35.4893 22.1401 35.748 24.5243 35.9205 26.9084C36.3517 34.5292 35.0581 41.9797 32.9022 49.2601C32.8159 49.5156 32.7728 49.771 32.6434 50.0265C32.4709 50.4522 32.5572 50.8354 32.8159 51.176C33.4196 51.9423 33.9801 52.7938 34.7132 53.4324C36.3948 55.0076 38.4214 55.3908 40.5773 54.5393C41.6984 54.1136 42.7764 53.4324 43.7682 52.7086C45.493 51.4314 46.8728 49.8136 48.1233 48.1106C50.7535 44.5344 52.6077 40.5322 54.0737 36.3599C54.5911 35.0401 55.0223 33.55 55.5398 32.0173ZM7.76358 66.5453C7.89294 66.2898 7.93606 66.2047 7.97918 66.077C8.06546 65.8641 8.10853 65.6086 8.19477 65.3958C9.79023 59.8185 10.8682 54.1136 11.2131 48.3235C11.4718 44.1086 11.3856 39.8936 10.437 35.7213C10.0058 33.848 9.53147 32.0173 8.58285 30.3144C8.15165 29.5906 7.63422 28.9094 7.03055 28.3134C6.47 27.7599 5.82326 27.8025 5.34895 28.4837C4.91775 29.0797 4.52968 29.7609 4.27094 30.4421C3.32232 32.7837 2.97736 35.253 2.76177 37.7649C2.33057 43.2571 2.63241 48.7067 3.58103 54.1562C4.27094 58.0304 5.26266 61.8195 7.07367 65.3532C7.28927 65.6512 7.46175 66.0344 7.76358 66.5453ZM56.3159 28.3985C56.4453 27.8876 56.5315 27.547 56.5746 27.249C56.7471 26.0569 56.9627 24.9074 57.0921 23.7154C57.5664 19.4153 57.437 15.1579 56.359 10.9431C55.7985 8.77179 55.0223 6.72822 53.7719 4.85496C53.2976 4.17378 52.737 3.57774 52.1334 3.02427C51.3141 2.34308 50.7535 2.51338 50.193 3.40744C49.9774 3.74803 49.8049 4.1312 49.7187 4.51436C49.5031 5.49357 49.2444 6.51535 49.1581 7.53713C48.8563 11.2411 49.3737 14.8599 50.4086 18.4361C51.3141 21.5015 52.6508 24.354 54.7636 26.8233C55.1948 27.3342 55.7122 27.8025 56.3159 28.3985ZM31.6948 18.947C31.6086 18.947 31.4792 18.947 31.393 18.9896C31.1774 19.3728 30.8755 19.7134 30.703 20.0965C30.4012 20.9054 30.0562 21.7569 29.8406 22.6084C28.8058 26.6955 28.6333 30.8678 28.8489 35.0827C29.0214 38.9144 29.5389 42.7463 30.6599 46.4502C30.7461 46.7482 30.8755 47.0463 31.0049 47.3443C31.2636 47.0037 31.4361 46.6631 31.4792 46.3225C31.9966 43.8106 32.6434 41.3411 33.0315 38.8292C33.8077 34.2738 34.0664 29.6757 33.5058 25.1203C33.3333 23.5876 32.9022 22.055 32.471 20.5649C32.3847 19.9688 31.9966 19.4579 31.6948 18.947Z" fill="#23BB4E"/>
</g>
<defs>
<clipPath id="clip0_5277_14570">
<rect width="94" height="86" fill="white"/>
</clipPath>
</defs>
</svg>
