<svg width="82" height="87" viewBox="0 0 82 87" fill="none" xmlns="http://www.w3.org/2000/svg">
<g clip-path="url(#clip0_5277_14921)">
<path d="M35.0316 42.4261C35.1923 41.8715 35.353 41.3632 35.4907 40.855C36.1564 38.2441 36.7992 35.6333 37.6716 33.0687C39.2556 28.4247 41.0921 23.8731 42.9746 19.3447C45.0637 14.331 47.1064 9.31734 49.1726 4.30366C49.4942 3.495 49.8842 2.73255 50.2747 1.947C50.4124 1.64664 50.6188 1.36939 50.8487 1.13834C51.2387 0.745568 51.7439 0.907299 51.7898 1.46181C51.8357 1.9239 51.8357 2.38598 51.7439 2.84808C51.3993 4.81197 51.0552 6.77582 50.6418 8.71663C49.5401 14.0075 48.415 19.2985 47.5428 24.6356C47.0376 27.7778 46.6017 30.92 46.1654 34.0622C45.7753 36.8348 45.4537 39.5842 45.1095 42.3567C45.0637 42.7726 45.0407 43.1885 44.9948 43.7197C45.2243 43.5812 45.339 43.512 45.4537 43.4195C45.913 43.0037 46.3948 42.5878 46.8082 42.1257C51.2617 37.4586 56.2892 33.4615 61.592 29.811C61.9136 29.6031 62.2348 29.3951 62.5794 29.2103C62.7629 29.1178 62.9694 29.0717 63.1529 29.0485C63.5205 29.0254 63.7958 29.2796 63.7958 29.6493C63.7958 29.9265 63.7499 30.25 63.6122 30.5041C63.291 31.1742 62.9694 31.8442 62.5564 32.4449C61.179 34.3857 59.8016 36.3265 58.3783 38.221C56.2433 41.0629 54.0624 43.8818 51.9045 46.7237C51.4911 47.2547 51.124 47.8327 50.7794 48.4334C50.2747 49.2882 50.3665 49.704 51.2158 50.2355C51.8586 50.6281 52.5244 50.9747 53.2131 51.2752C55.6922 52.3378 58.2635 53.1698 60.8344 53.955C67.377 55.9885 73.8508 58.2296 80.1869 60.8402C80.5769 61.0018 80.9903 61.1407 81.3803 61.3024C81.5409 61.3716 81.679 61.4409 81.8167 61.5565C82.1149 61.8339 82.0231 62.3189 81.6331 62.4578C81.495 62.5038 81.3344 62.527 81.1968 62.527C79.6587 62.5498 78.1207 62.5963 76.5827 62.5498C72.6798 62.3882 68.7774 61.9723 64.8979 61.4873C59.2046 60.7941 53.5572 59.8469 47.9562 58.6687C47.1986 58.5065 46.4407 58.3913 45.6831 58.2524C45.5225 58.2296 45.3619 58.2064 45.1784 58.2296C44.5814 58.2296 44.3291 58.3681 44.168 58.9688C43.9615 59.7776 43.778 60.586 43.6403 61.3949C43.0205 64.8834 42.5153 68.3957 42.1251 71.9303C41.8725 74.2179 41.6889 76.5283 41.4134 78.8154C41.2068 80.6176 40.9084 82.3969 40.6559 84.199C40.587 84.5916 40.4493 84.9847 40.3115 85.354C40.1738 85.747 39.9213 86.0936 39.4392 86.0936C39.003 86.0704 38.7505 85.747 38.6357 85.354C38.4291 84.7305 38.2225 84.0834 38.1307 83.4367C37.9011 81.8887 37.6716 80.3174 37.5797 78.7694C37.3502 74.9803 37.1665 71.2143 37.0518 67.4252C36.9829 65.1376 37.0518 62.8504 37.0747 60.5632C37.0747 60.3551 37.0747 60.1242 37.0747 59.8236C36.7303 59.8701 36.4319 59.8701 36.1335 59.9161C32.8278 60.4708 29.5909 61.2332 26.3311 62.0188C20.7757 63.3127 15.2203 64.7218 9.59599 65.854C7.20851 66.339 4.7981 66.7552 2.38769 67.1938C1.97447 67.2635 1.5383 67.2863 1.12509 67.3327C1.0103 67.3327 0.895526 67.3559 0.803699 67.3327C0.321617 67.3095 0.0690973 67.171 0.0231845 66.8705C-0.0456845 66.4779 0.206835 66.293 0.48231 66.1313C1.10213 65.7847 1.699 65.4614 2.31882 65.1376C8.17267 62.0188 14.1643 59.1769 20.11 56.2658C22.8877 54.9023 25.6195 53.4007 28.3513 51.9452C28.6956 51.7603 28.9941 51.5522 29.4073 51.298C29.2007 51.0211 29.04 50.7438 28.8334 50.5356C27.6856 49.2882 26.5837 47.9943 25.344 46.8389C22.8647 44.5285 20.3395 42.2874 17.7914 40.0463C14.6923 37.32 11.6391 34.5474 8.8384 31.5207C8.2186 30.8507 7.62174 30.1345 7.04783 29.4182C6.88714 29.2334 6.7494 29.0024 6.61166 28.7713C6.42798 28.4478 6.45097 28.1475 6.65754 27.9395C6.84121 27.7316 7.13964 27.7085 7.46101 27.8702C7.57581 27.9164 7.69062 28.0088 7.80537 28.0551C9.34345 28.933 10.8356 29.8572 12.3966 30.689C17.0338 33.1381 21.694 35.5871 26.2393 38.2441C28.4202 39.5149 30.6928 40.5777 33.0803 41.4325C33.4476 41.5712 33.769 41.756 34.1133 41.9408C34.4118 42.0795 34.6872 42.2412 35.0316 42.4261Z" fill="#23BB4E" fill-opacity="0.25"/>
</g>
<defs>
<clipPath id="clip0_5277_14921">
<rect width="82" height="87" fill="white"/>
</clipPath>
</defs>
</svg>
