<svg width="42" height="38" viewBox="0 0 42 38" fill="none" xmlns="http://www.w3.org/2000/svg">
<path d="M24.75 0.75H16.75C9.208 0.75 5.436 0.75 3.094 3.094C0.752 5.438 0.75 9.208 0.75 16.75C0.75 24.292 0.75 28.064 3.094 30.406C5.438 32.748 9.208 32.75 16.75 32.75H24.75C32.292 32.75 36.064 32.75 38.406 30.406C40.748 28.062 40.75 24.292 40.75 16.75C40.75 9.208 40.75 5.436 38.406 3.094C36.062 0.752 32.292 0.75 24.75 0.75Z" stroke="#23BB4E" stroke-width="1.5" stroke-linecap="round"/>
<path d="M30.55 25.75C30.55 24.9013 30.8871 24.0874 31.4873 23.4873C32.0874 22.8871 32.9013 22.55 33.75 22.55M24.15 25.75C24.15 23.2039 25.1614 20.7621 26.9618 18.9618C28.7621 17.1614 31.2039 16.15 33.75 16.15M17.75 25.75C17.75 21.5065 19.4357 17.4369 22.4363 14.4363C25.4369 11.4357 29.5065 9.75 33.75 9.75" stroke="#23BB4E" stroke-width="1.5" stroke-linecap="round"/>
<path d="M32.75 32.75L34.75 36.75M8.75 32.75L6.75 36.75" stroke="#23BB4E" stroke-width="1.5" stroke-linecap="round" stroke-linejoin="round"/>
</svg>
