<svg width="52" height="137" viewBox="0 0 52 137" fill="none" xmlns="http://www.w3.org/2000/svg">
<path d="M1.84961 69.9821L3.69594 71.0438L49.8697 44.5461L48.0234 43.4844L1.84961 69.9821Z" fill="#F0F0F0"/>
<path d="M48.0208 43.477L3.69336 68.9282V30.7211L48.0208 5.28516V43.477Z" fill="#FAFAFA"/>
<path d="M51.6703 1.0625L1.84961 29.6837V74.2308L51.6703 45.6096V1.0625ZM49.8697 44.5479L3.69594 71.0456V30.7454L49.8697 4.23252V44.5479Z" fill="#EBEBEB"/>
<path d="M49.8678 44.5497L48.0215 43.488V5.2961L49.8678 4.23438V44.5497Z" fill="#E0E0E0"/>
<path d="M51.7128 1.06173L49.8665 0L0 28.6212L1.84635 29.6829L51.7128 1.06173Z" fill="#F5F5F5"/>
<path d="M0 28.6172L1.84629 29.6789V74.226L0 73.1643V28.6172Z" fill="#E0E0E0"/>
<path d="M39.3212 37.0659C41.0454 36.08 42.3729 36.8839 42.3729 38.8556C42.3227 39.9256 42.0204 40.9689 41.4903 41.9015C40.9602 42.8341 40.2173 43.63 39.3212 44.2249C37.597 45.2108 36.2695 44.407 36.2695 42.4352C36.3186 41.3649 36.6204 40.3212 37.1505 39.3884C37.6807 38.4556 38.4243 37.66 39.3212 37.0659Z" fill="#E0E0E0"/>
<path d="M14.128 29.0014L37.5956 15.5174C38.2517 15.1383 38.7857 15.5174 38.7857 16.2C38.7649 16.6086 38.646 17.0063 38.4389 17.3599C38.2319 17.7135 37.9427 18.0127 37.5956 18.2324L14.128 31.7315C13.4719 32.1107 12.9531 31.7316 12.9531 31.049C12.9723 30.6397 13.0888 30.2408 13.293 29.8849C13.4972 29.5289 13.7834 29.2262 14.128 29.0014Z" fill="#E0E0E0"/>
<path d="M10.4699 39.6213L41.3541 21.8904C42.0103 21.5112 42.5443 21.678 42.5443 22.2696C42.495 22.632 42.3619 22.9781 42.1554 23.2807C41.9489 23.5834 41.6746 23.8343 41.3541 24.0139L10.4699 41.7599C9.81373 42.1239 9.29492 41.9571 9.29492 41.3655C9.34692 41.0059 9.47949 40.6625 9.68285 40.3606C9.8862 40.0587 10.1552 39.806 10.4699 39.6213Z" fill="#F0F0F0"/>
<path d="M10.4699 43.8519L41.3541 26.121C42.0103 25.7418 42.5443 25.9238 42.5443 26.5002C42.495 26.8626 42.3619 27.2087 42.1554 27.5113C41.9489 27.814 41.6746 28.0649 41.3541 28.2445L10.4699 45.9905C9.81373 46.3697 9.29492 46.1877 9.29492 45.5961C9.34692 45.2365 9.47949 44.8931 9.68285 44.5912C9.8862 44.2893 10.1552 44.0366 10.4699 43.8519Z" fill="#F0F0F0"/>
<path d="M10.4699 48.0827L41.3541 30.3519C42.0103 29.9879 42.5443 30.1547 42.5443 30.7462C42.4951 31.1067 42.3618 31.4507 42.1552 31.7509C41.9486 32.0511 41.6742 32.2991 41.3541 32.4753L10.4699 50.1607C9.81373 50.5399 9.29492 50.3579 9.29492 49.7663C9.35735 49.4182 9.49465 49.0876 9.69742 48.797C9.9002 48.5064 10.1637 48.2628 10.4699 48.0827Z" fill="#F0F0F0"/>
<path d="M33.7833 46.148C33.5429 46.2731 33.2764 46.3407 33.0051 46.3452C32.349 46.3452 32.41 45.6778 32.4253 45.2228C32.4253 45.0104 32.1506 44.6919 31.998 44.9649C31.586 45.6778 31.0825 46.3452 30.6553 47.0429C30.3959 47.4676 29.8924 48.4383 29.2515 48.3018C28.9921 48.3018 28.9006 47.9681 28.9006 47.6192C29.2253 47.0313 29.3686 46.3614 29.3125 45.693C29.3125 45.4958 28.9463 45.2531 28.8548 45.5261C28.6255 46.0875 28.4865 46.6812 28.4428 47.2856C28.1573 47.8189 27.8255 48.3264 27.451 48.8023C27.2374 49.0905 27.039 49.409 26.8102 49.682C26.5813 49.955 26.6423 49.8944 26.5507 49.9095C26.4592 49.9247 26.3524 49.8185 26.3219 49.682C26.3199 49.4651 26.3561 49.2496 26.4287 49.045C26.4287 48.8326 26.1693 48.5141 26.0625 48.7871C25.6188 49.8545 24.9886 50.8353 24.2009 51.6841L24.0789 51.7751V51.4111C24.0676 51.1273 24.0162 50.8465 23.9263 50.5769C23.9263 50.4404 23.6516 50.2281 23.5143 50.4101C22.952 51.4212 22.2652 52.3586 21.4697 53.2009C21.3332 53.317 21.1848 53.4186 21.0272 53.5042C20.8899 53.5042 21.1035 52.6852 21.134 52.5639C21.1645 52.4425 21.3324 51.9117 21.4392 51.578C21.5485 51.3178 21.6352 51.0489 21.6986 50.7741C21.6986 50.5162 21.2866 50.1219 21.2103 50.4707C21.134 50.8196 21.0577 50.9409 20.9356 51.3505C20.4275 52.3666 19.8462 53.3449 19.1962 54.2778C18.6038 55.2383 17.7738 56.032 16.7853 56.5833C16.5107 56.7349 15.9919 56.9473 15.6867 56.7349C15.3815 56.5226 15.4273 56.1434 15.4121 55.8704C15.4022 55.1472 15.4999 54.4265 15.702 53.7318C16.6754 53.2309 17.5741 52.5979 18.3722 51.851C19.1753 51.2322 19.8623 50.4775 20.4016 49.6214C20.6762 49.136 20.8441 48.3321 20.1727 48.1046C19.5013 47.8771 19.1199 48.2259 18.7384 48.4535C18.1721 48.7495 17.657 49.1335 17.2126 49.591C16.3495 50.5525 15.7228 51.6999 15.3815 52.9431C15.3815 53.1251 15.2442 53.3829 15.1679 53.6711C14.1169 54.196 12.9305 54.3917 11.7653 54.2323C11.7653 54.2323 11.6737 54.3688 11.7653 54.384C12.8807 54.6197 14.042 54.5085 15.0916 54.0654C14.8017 55.3395 14.6339 57.099 15.8393 57.372C17.0447 57.645 18.4943 56.2041 19.1351 55.3547C19.6311 54.7033 20.0653 54.0077 20.4321 53.2767C20.4588 53.2205 20.4949 53.1692 20.5389 53.1251C20.5389 53.7166 20.661 54.1565 21.2408 54.0503C21.8206 53.9441 22.3852 53.1099 22.7666 52.67C23.1481 52.2302 23.3617 51.7903 23.6516 51.3353C23.6516 51.8813 23.789 52.488 24.3078 52.3818C24.8266 52.2757 25.2538 51.396 25.4979 51.0319C25.7421 50.6679 25.9099 50.3949 26.0777 50.0612C26.104 50.1303 26.1457 50.1926 26.1998 50.2432C26.627 50.6983 27.1306 50.2432 27.4052 49.8489C27.6799 49.4545 28.2444 48.7871 28.6106 48.2108C28.7004 48.4634 28.8868 48.6705 29.1294 48.7871C29.7855 49.0905 30.3959 48.5596 30.7773 48.0743C31.2492 47.4476 31.6677 46.783 32.0286 46.0873C32.0513 46.2191 32.1044 46.3438 32.1839 46.4517C32.2633 46.5597 32.3668 46.6478 32.4863 46.7092C32.7262 46.8288 32.9936 46.8833 33.2615 46.8673C33.5294 46.8513 33.7883 46.7654 34.0121 46.6182C34.1952 46.4817 33.9969 46.0266 33.7833 46.148ZM19.3182 48.6506C19.6234 48.499 20.2643 48.2259 20.2948 48.7416C20.255 49.0799 20.1111 49.3978 19.8828 49.6517C19.3727 50.3985 18.7732 51.081 18.0976 51.6841C17.4091 52.3237 16.6576 52.8928 15.8546 53.3829C16.0658 52.3968 16.4834 51.4659 17.0801 50.6506C17.6768 49.8353 18.4394 49.1539 19.3182 48.6506Z" fill="#E0E0E0"/>
<path d="M1.84961 132.244L3.69594 133.306L49.8697 106.808L48.0234 105.746L1.84961 132.244Z" fill="#F0F0F0"/>
<path d="M48.0208 105.747L3.69336 131.183V92.9907L48.0208 67.5547V105.747Z" fill="#FAFAFA"/>
<path d="M51.6672 63.3125L1.80078 91.9337V136.481L51.6672 107.799V63.3125ZM49.8209 106.813L3.64711 133.311V92.9954L49.8209 66.4977V106.813Z" fill="#EBEBEB"/>
<path d="M49.8678 106.8L48.0215 105.738V67.5461L49.8678 66.4844V106.8Z" fill="#E0E0E0"/>
<path d="M51.7128 63.3078L49.8665 62.2461L0 90.8673L1.84635 91.929L51.7128 63.3078Z" fill="#F5F5F5"/>
<path d="M0 90.8672L1.84629 91.9289V136.476L0 135.429V90.8672Z" fill="#E0E0E0"/>
<path d="M39.3212 99.3159C41.0454 98.33 42.3729 99.1338 42.3729 101.106C42.3239 102.176 42.0221 103.22 41.4919 104.152C40.9617 105.085 40.2181 105.881 39.3212 106.475C37.597 107.461 36.2695 106.672 36.2695 104.685C36.3222 103.616 36.6255 102.573 37.1553 101.641C37.6852 100.709 38.4269 99.9126 39.3212 99.3159Z" fill="#E0E0E0"/>
<path d="M14.128 91.2521L37.5956 77.7834C38.2517 77.4042 38.7857 77.7834 38.7857 78.4507C38.7612 78.8585 38.6408 79.2548 38.4341 79.6078C38.2274 79.9609 37.9401 80.2607 37.5956 80.4832L14.128 93.9671C13.4719 94.3463 12.9531 93.9671 12.9531 93.2998C12.9723 92.8905 13.0888 92.4915 13.293 92.1356C13.4972 91.7797 13.7834 91.4769 14.128 91.2521Z" fill="#E0E0E0"/>
<path d="M10.4699 101.86L41.3541 84.1292C42.0103 83.7652 42.5443 83.9321 42.5443 84.5236C42.4951 84.884 42.3618 85.228 42.1552 85.5282C41.9486 85.8284 41.6742 86.0765 41.3541 86.2527L10.4699 103.999C9.81373 104.378 9.29492 104.196 9.29492 103.604C9.34901 103.245 9.48242 102.903 9.68557 102.601C9.88872 102.3 10.1566 102.047 10.4699 101.86Z" fill="#F0F0F0"/>
<path d="M10.4699 106.113L41.3541 88.3826C42.0103 88.0034 42.5443 88.1702 42.5443 88.7618C42.4951 89.1222 42.3618 89.4662 42.1552 89.7664C41.9486 90.0666 41.6742 90.3147 41.3541 90.4909L10.4699 108.237C9.81373 108.616 9.29492 108.449 9.29492 107.858C9.34477 107.497 9.47648 107.153 9.68005 106.851C9.88362 106.549 10.1537 106.297 10.4699 106.113Z" fill="#F0F0F0"/>
<path d="M10.4699 110.34L41.3083 92.6248C41.9645 92.2456 42.4985 92.4124 42.4985 93.004C42.4493 93.3663 42.3161 93.7124 42.1096 94.0151C41.9031 94.3177 41.6288 94.5687 41.3083 94.7482L10.4699 112.479C9.81373 112.843 9.29492 112.676 9.29492 112.085C9.34692 111.725 9.47949 111.382 9.68285 111.08C9.8862 110.778 10.1552 110.525 10.4699 110.34Z" fill="#F0F0F0"/>
<path d="M33.7824 108.382C33.542 108.508 33.2756 108.575 33.0042 108.58C32.3481 108.58 32.4092 107.912 32.4244 107.457C32.4244 107.245 32.1498 106.926 31.9972 107.199C31.5852 107.927 31.0817 108.595 30.6544 109.292C30.395 109.717 29.8915 110.688 29.2506 110.536C28.9913 110.536 28.8997 110.202 28.8997 109.854C29.2258 109.272 29.3693 108.606 29.3117 107.943C29.3117 107.745 28.9455 107.503 28.8539 107.76C28.6231 108.327 28.4841 108.926 28.442 109.535C28.1527 110.066 27.821 110.573 27.4502 111.052C27.2365 111.34 27.0382 111.643 26.8093 111.916C26.5804 112.189 26.6414 112.144 26.5499 112.159C26.4583 112.174 26.3515 112.068 26.321 111.916C26.3193 111.704 26.3555 111.494 26.4278 111.295C26.4278 111.082 26.1684 110.779 26.0616 111.037C25.6534 112.152 25.0374 113.181 24.2459 114.07L24.1238 114.161V113.797C24.11 113.514 24.0587 113.233 23.9712 112.963C23.9712 112.826 23.6966 112.629 23.5592 112.811C22.9954 113.831 22.3088 114.778 21.5146 115.632C21.3742 115.743 21.2264 115.845 21.0721 115.936C20.9348 115.845 21.1484 115.102 21.1789 114.995C21.2094 114.889 21.3773 114.328 21.4841 114.01C21.5956 113.745 21.6824 113.471 21.7435 113.19C21.7435 112.948 21.3315 112.553 21.2552 112.887C21.1789 113.221 21.1026 113.372 20.9806 113.782C20.4758 114.795 19.8943 115.769 19.2411 116.694C18.6496 117.659 17.8197 118.458 16.8302 119.015C16.5556 119.151 16.0368 119.379 15.7316 119.151C15.4265 118.924 15.4723 118.56 15.457 118.287C15.4461 117.569 15.5439 116.853 15.7469 116.163C16.7139 115.652 17.6113 115.02 18.4171 114.283C19.2133 113.656 19.8991 112.903 20.4465 112.053C20.7212 111.552 20.889 110.748 20.2176 110.536C19.5463 110.324 19.1648 110.657 18.7833 110.87C18.2204 111.171 17.706 111.555 17.2575 112.007C16.3945 112.969 15.7677 114.116 15.4265 115.359C15.4265 115.557 15.2891 115.799 15.2129 116.087C14.1666 116.627 12.9756 116.823 11.8102 116.649C11.8102 116.649 11.7187 116.785 11.8102 116.8C12.9256 117.036 14.087 116.925 15.1366 116.482C14.8466 117.771 14.6788 119.515 15.8842 119.804C17.0897 120.092 18.5392 118.636 19.1801 117.771C19.676 117.12 20.1102 116.424 20.477 115.693L20.5838 115.541C20.5838 116.148 20.7059 116.573 21.2857 116.482C21.8655 116.391 22.4301 115.541 22.8116 115.086C23.193 114.631 23.4067 114.207 23.6966 113.767C23.6966 114.298 23.8339 114.904 24.3527 114.813C24.8715 114.722 25.2987 113.812 25.5428 113.448C25.7539 113.141 25.9475 112.822 26.1227 112.493C26.1489 112.558 26.1909 112.615 26.2447 112.66C26.672 113.13 27.1755 112.66 27.4502 112.28C27.7248 111.901 28.2894 111.219 28.6556 110.642C28.7495 110.892 28.9347 111.098 29.1744 111.219C29.8305 111.522 30.4408 110.976 30.8223 110.491C31.2975 109.866 31.7162 109.201 32.0735 108.504C32.0951 108.638 32.1477 108.765 32.2271 108.876C32.3066 108.986 32.4106 109.077 32.5312 109.141C32.7725 109.258 33.0406 109.31 33.3085 109.291C33.5764 109.273 33.8346 109.184 34.0571 109.035C34.1944 108.716 33.996 108.276 33.7824 108.382ZM19.3174 110.946C19.6226 110.794 20.2634 110.536 20.2939 111.052C20.2605 111.387 20.1155 111.702 19.8819 111.947C19.3641 112.651 18.765 113.292 18.0967 113.858C17.4046 114.498 16.6536 115.071 15.8537 115.572C16.0803 114.605 16.5048 113.696 17.1007 112.9C17.6967 112.104 18.4513 111.439 19.3174 110.946Z" fill="#E0E0E0"/>
</svg>
