<svg width="183" height="241" viewBox="0 0 183 241" fill="none" xmlns="http://www.w3.org/2000/svg">
<path d="M175.407 226.038L171.668 228.252L7.06641 133.804L10.8202 131.574L175.407 226.038Z" fill="#FAFAFA"/>
<path d="M10.8184 131.573L171.666 223.868V108.792L10.8184 16.5273V131.573Z" fill="white"/>
<path d="M90.119 58.2719V177.732L83.0391 173.667V54.207L90.119 58.2719Z" fill="#F0F0F0"/>
<path d="M93.6438 56.2305L90.1191 58.2781V177.738L93.6438 175.69V56.2305Z" fill="#E0E0E0"/>
<path d="M0 137.864L178.732 240.442V104.738L0 2.16016V137.864ZM7.065 14.3549L171.667 108.758V228.217L7.065 133.814V14.3549Z" fill="#F0F0F0"/>
<path d="M7.06641 133.807L10.82 131.578V16.5318L7.06641 14.3477V133.807Z" fill="#E0E0E0"/>
<path d="M0 2.16896L3.79954 0L182.547 102.563L178.732 104.732L0 2.16896Z" fill="#FAFAFA"/>
<path d="M182.547 102.566L178.732 104.735V240.439L182.547 238.286V102.566Z" fill="#E0E0E0"/>
<path d="M90.1194 62.3271L83.0547 58.2773V62.3271L90.1194 66.3768V62.3271Z" fill="#E0E0E0"/>
<path opacity="0.15" d="M90.1191 66.374L93.6438 64.3415L90.1191 62.3242V66.374Z" fill="black"/>
</svg>
