<svg width="182" height="257" viewBox="0 0 182 257" fill="none" xmlns="http://www.w3.org/2000/svg">
<path d="M176.385 3.71875L177.652 4.43163V153.665C177.652 157.518 175.286 161.992 172.387 163.645L10.9593 256.213C10.483 256.54 9.93178 256.744 9.35599 256.805C8.7802 256.866 8.19823 256.782 7.66328 256.562C7.40388 256.44 6.50358 255.91 6.30521 255.788C5.68011 255.307 5.18738 254.676 4.87263 253.955C4.55788 253.234 4.4313 252.445 4.50462 251.663V102.368L176.385 3.71875Z" fill="#E0E0E0"/>
<path d="M10.9578 256.211L172.325 163.689C175.224 162.036 177.589 157.622 177.589 153.709V4.42969L5.69336 103.019V252.267C5.69336 256.12 8.04328 257.895 10.9578 256.211Z" fill="#FAFAFA"/>
<path d="M176.216 6.75032V153.633C176.182 155.352 175.751 157.04 174.958 158.568C174.164 160.096 173.028 161.422 171.638 162.445L10.2559 254.967C9.83715 255.241 9.35244 255.398 8.85203 255.422C7.50921 255.422 7.03617 253.678 7.03617 252.192V103.823L176.2 6.75032H176.216ZM177.65 4.42969L5.69336 103.019V252.267C5.69336 255.134 7.00565 256.818 8.86729 256.818C9.60676 256.795 10.3274 256.581 10.9578 256.196L172.325 163.689C175.224 162.036 177.589 157.622 177.589 153.709V4.42969H177.65Z" fill="#E0E0E0"/>
<path d="M4.83936 108.106L0.826172 101.175L176.75 0.219676C177.074 0.0527679 177.438 -0.0214357 177.802 0.00534666C178.166 0.032129 178.515 0.158842 178.81 0.371349C179.639 0.907979 180.33 1.63112 180.826 2.48224C181.321 3.33336 181.608 4.28854 181.664 5.27047C181.695 5.60972 181.641 5.95143 181.505 6.26417C181.369 6.57691 181.156 6.85066 180.886 7.06024L4.83936 108.106Z" fill="#F0F0F0"/>
<path d="M5.69141 106.25C5.63898 105.269 5.35467 104.315 4.86157 103.463C4.36846 102.612 3.68045 101.889 2.85334 101.351C1.32749 100.456 0 101.184 0 102.989C0.0553358 103.971 0.342478 104.926 0.838185 105.777C1.33389 106.629 2.02424 107.352 2.85334 107.888C4.42496 108.783 5.69141 108.055 5.69141 106.25Z" fill="#E0E0E0"/>
<path d="M138.07 108.433C137.957 108.435 137.847 108.407 137.75 108.351C137.653 108.294 137.573 108.213 137.52 108.115C137.477 108.043 137.448 107.964 137.436 107.881C137.424 107.799 137.429 107.715 137.45 107.634C137.472 107.553 137.509 107.478 137.56 107.412C137.612 107.346 137.676 107.291 137.749 107.25L158.668 95.2373C158.742 95.1945 158.823 95.1664 158.907 95.1547C158.991 95.1429 159.076 95.1478 159.158 95.1689C159.241 95.19 159.318 95.227 159.386 95.2778C159.453 95.3286 159.51 95.3922 159.553 95.4649C159.597 95.5376 159.625 95.618 159.637 95.7015C159.648 95.7851 159.644 95.8701 159.622 95.9518C159.601 96.0335 159.564 96.1103 159.513 96.1776C159.462 96.245 159.398 96.3017 159.325 96.3446L138.39 108.357C138.29 108.405 138.181 108.431 138.07 108.433Z" fill="#E0E0E0"/>
<path d="M138.073 114.316C137.928 114.32 137.787 114.275 137.671 114.19C137.556 114.104 137.473 113.982 137.436 113.843C137.398 113.704 137.41 113.557 137.467 113.426C137.524 113.294 137.625 113.186 137.752 113.118L158.671 101.105C158.822 101.022 158.998 101.002 159.164 101.047C159.329 101.092 159.47 101.2 159.556 101.348C159.6 101.419 159.629 101.498 159.641 101.581C159.653 101.663 159.648 101.748 159.626 101.828C159.605 101.909 159.568 101.984 159.516 102.05C159.465 102.116 159.401 102.171 159.328 102.212L138.393 114.225C138.297 114.285 138.186 114.317 138.073 114.316Z" fill="#E0E0E0"/>
<path d="M138.07 120.191C137.959 120.19 137.85 120.16 137.753 120.104C137.657 120.048 137.577 119.968 137.521 119.872C137.477 119.8 137.449 119.719 137.436 119.636C137.424 119.552 137.429 119.467 137.45 119.385C137.471 119.303 137.509 119.226 137.56 119.159C137.612 119.091 137.676 119.035 137.75 118.993L158.669 106.995C158.817 106.909 158.993 106.884 159.159 106.927C159.325 106.969 159.467 107.076 159.554 107.223C159.641 107.369 159.666 107.545 159.623 107.71C159.58 107.875 159.473 108.016 159.326 108.102L138.391 120.1C138.295 120.16 138.184 120.192 138.07 120.191Z" fill="#E0E0E0"/>
<path d="M138.067 126.064C137.915 126.07 137.767 126.015 137.655 125.913L119.009 109.881C118.936 109.829 118.876 109.763 118.83 109.686C118.785 109.61 118.757 109.525 118.746 109.436C118.736 109.348 118.745 109.259 118.771 109.174C118.798 109.09 118.842 109.011 118.9 108.945C118.959 108.878 119.031 108.824 119.112 108.786C119.193 108.749 119.281 108.729 119.37 108.727C119.459 108.725 119.548 108.742 119.63 108.776C119.712 108.81 119.787 108.861 119.848 108.925L138.159 124.654L158.682 112.869C158.755 112.826 158.836 112.798 158.92 112.786C159.004 112.774 159.09 112.779 159.172 112.8C159.254 112.821 159.331 112.858 159.399 112.909C159.467 112.96 159.524 113.023 159.567 113.096C159.61 113.169 159.638 113.249 159.65 113.333C159.662 113.416 159.657 113.501 159.636 113.583C159.615 113.665 159.578 113.742 159.526 113.809C159.475 113.876 159.411 113.933 159.338 113.976L138.403 125.989C138.298 126.039 138.183 126.065 138.067 126.064Z" fill="#E0E0E0"/>
<path d="M128.363 156.998C128.252 156.995 128.143 156.965 128.047 156.909C127.951 156.853 127.871 156.774 127.814 156.679C127.77 156.607 127.741 156.526 127.729 156.442C127.717 156.359 127.722 156.273 127.743 156.192C127.764 156.11 127.802 156.033 127.853 155.966C127.905 155.898 127.969 155.842 128.043 155.799L148.962 143.802C149.035 143.758 149.116 143.73 149.2 143.718C149.285 143.705 149.371 143.71 149.453 143.731C149.535 143.752 149.613 143.79 149.68 143.841C149.748 143.892 149.805 143.956 149.847 144.029C149.891 144.101 149.919 144.18 149.931 144.263C149.944 144.345 149.939 144.429 149.917 144.51C149.896 144.591 149.859 144.666 149.807 144.732C149.756 144.798 149.692 144.853 149.619 144.894L128.684 156.907C128.588 156.967 128.477 156.998 128.363 156.998Z" fill="#E0E0E0"/>
<path d="M128.364 162.867C128.224 162.865 128.09 162.818 127.98 162.732C127.87 162.647 127.791 162.529 127.754 162.395C127.718 162.262 127.727 162.12 127.779 161.991C127.831 161.863 127.924 161.755 128.043 161.684L148.963 149.671C149.036 149.628 149.117 149.6 149.201 149.588C149.285 149.577 149.37 149.581 149.453 149.602C149.535 149.624 149.612 149.661 149.68 149.711C149.748 149.762 149.805 149.826 149.848 149.898C149.891 149.971 149.919 150.052 149.931 150.135C149.943 150.219 149.938 150.304 149.917 150.385C149.895 150.467 149.858 150.544 149.807 150.611C149.756 150.679 149.692 150.735 149.619 150.778L128.684 162.776C128.588 162.836 128.477 162.867 128.364 162.867Z" fill="#E0E0E0"/>
<path d="M128.364 168.74C128.224 168.738 128.09 168.691 127.98 168.606C127.87 168.521 127.791 168.402 127.754 168.269C127.718 168.135 127.727 167.993 127.779 167.865C127.831 167.736 127.924 167.628 128.043 167.557L148.963 155.544C149.037 155.501 149.118 155.473 149.203 155.462C149.288 155.451 149.374 155.457 149.457 155.48C149.539 155.503 149.616 155.541 149.683 155.594C149.751 155.647 149.806 155.712 149.848 155.787C149.891 155.858 149.92 155.938 149.932 156.02C149.944 156.103 149.939 156.187 149.918 156.267C149.896 156.348 149.859 156.424 149.807 156.49C149.756 156.556 149.692 156.611 149.619 156.651L128.684 168.664C128.587 168.72 128.476 168.746 128.364 168.74Z" fill="#E0E0E0"/>
<path d="M128.362 174.617C128.211 174.612 128.067 174.559 127.95 174.465L109.303 158.433C109.184 158.311 109.117 158.148 109.117 157.978C109.117 157.808 109.184 157.645 109.303 157.523C109.428 157.408 109.591 157.344 109.761 157.344C109.931 157.344 110.095 157.408 110.219 157.523L128.53 173.252L149.053 161.482C149.126 161.438 149.207 161.409 149.291 161.397C149.375 161.385 149.461 161.39 149.543 161.411C149.626 161.432 149.703 161.469 149.771 161.521C149.839 161.572 149.895 161.636 149.938 161.709C149.981 161.781 150.01 161.86 150.022 161.942C150.034 162.025 150.029 162.109 150.008 162.19C149.987 162.27 149.949 162.346 149.898 162.412C149.846 162.478 149.782 162.533 149.709 162.574L128.774 174.586C128.644 174.645 128.498 174.656 128.362 174.617Z" fill="#E0E0E0"/>
<path d="M62.9618 183.615C63.205 183.332 63.3961 183.008 63.5264 182.659C63.6942 182.144 63.5264 181.871 63.2823 182.053L42.3629 194.02C41.9531 194.334 41.6453 194.761 41.4779 195.248C41.31 195.764 41.4779 196.037 41.722 195.855L62.6414 183.842C62.7593 183.783 62.8674 183.707 62.9618 183.615Z" fill="#E0E0E0"/>
<path d="M62.9618 189.476C63.205 189.193 63.3961 188.869 63.5264 188.52C63.6942 188.005 63.5264 187.747 63.2823 187.914L42.3629 199.942C41.95 200.259 41.6418 200.693 41.4779 201.185C41.31 201.686 41.4779 201.959 41.722 201.777L62.6414 189.779C62.764 189.696 62.8722 189.594 62.9618 189.476Z" fill="#E0E0E0"/>
<path d="M62.9618 195.354C63.2114 195.075 63.4032 194.75 63.5264 194.398C63.6942 193.898 63.5264 193.625 63.2823 193.807L42.3629 205.804C41.9533 206.125 41.6459 206.557 41.4779 207.048C41.31 207.564 41.4779 207.821 41.722 207.655L62.6414 195.642C62.7663 195.568 62.8753 195.47 62.9618 195.354Z" fill="#E0E0E0"/>
<path d="M63.6035 200.952C63.7735 200.759 63.9171 200.545 64.0307 200.315L77.8859 172.558C78.0537 172.194 78.1911 171.784 77.7791 171.511C77.3671 171.238 76.9856 171.709 76.8025 172.057L62.8863 199.92L42.3629 211.705C41.9531 212.02 41.6453 212.447 41.4779 212.934C41.31 213.45 41.4779 213.723 41.722 213.541L62.6421 201.528C62.9788 201.364 63.3005 201.171 63.6035 200.952Z" fill="#E0E0E0"/>
<path d="M40.3165 158.65C40.5493 158.362 40.7347 158.04 40.8658 157.694C41.0489 157.179 40.8658 156.906 40.6369 157.088L19.7023 169.1C19.2934 169.412 18.9899 169.841 18.8325 170.329C18.6494 170.845 18.8325 171.118 19.0614 170.936L39.9961 158.923C40.1151 158.847 40.2229 158.755 40.3165 158.65Z" fill="#E0E0E0"/>
<path d="M40.3165 164.523C40.5493 164.235 40.7347 163.913 40.8658 163.567C41.0489 163.052 40.8658 162.794 40.6369 162.961L19.7023 174.973C19.2894 175.288 18.9853 175.723 18.8325 176.217C18.6494 176.718 18.8325 176.991 19.0614 176.809L39.9961 164.811C40.1111 164.724 40.2183 164.628 40.3165 164.523Z" fill="#E0E0E0"/>
<path d="M40.3165 170.393C40.5567 170.11 40.7428 169.786 40.8658 169.437C41.0489 168.937 40.8658 168.664 40.6369 168.846L19.7023 180.843C19.293 181.161 18.9898 181.595 18.8325 182.087C18.6494 182.603 18.8325 182.86 19.0614 182.694L39.9961 170.681C40.1147 170.599 40.2224 170.502 40.3165 170.393Z" fill="#E0E0E0"/>
<path d="M40.9866 175.971C41.1515 175.778 41.29 175.563 41.3985 175.334L55.269 147.577C55.4216 147.213 55.5742 146.804 55.1469 146.531C54.7197 146.258 54.3687 146.728 54.1856 147.077L40.3152 174.94L19.7765 186.725C19.3676 187.037 19.0642 187.466 18.9068 187.953C18.7237 188.469 18.9068 188.742 19.1357 188.56L40.071 176.547C40.3883 176.375 40.6941 176.182 40.9866 175.971Z" fill="#E0E0E0"/>
<path d="M58.1861 123.134C59.8798 123.984 60.3375 126.077 63.4655 122.998C66.2361 120.238 68.8204 117.299 71.2016 114.2C71.7343 112.945 71.8623 111.557 71.5678 110.227C72.4645 111.486 73.0819 112.919 73.3791 114.433C73.6764 115.947 73.6467 117.507 73.292 119.009C72.468 117.492 71.934 116.946 69.9504 118.326C67.9668 119.706 63.847 123.498 62.7026 126.319C61.5582 129.14 60.3833 135.101 55.3633 138.453L58.1861 123.134Z" fill="#E0E0E0"/>
<path opacity="0.1" d="M58.1861 123.134C59.8798 123.984 60.3375 126.077 63.4655 122.998C66.2361 120.238 68.8204 117.299 71.2016 114.2C71.7343 112.945 71.8623 111.557 71.5678 110.227C72.4645 111.486 73.0819 112.919 73.3791 114.433C73.6764 115.947 73.6467 117.507 73.292 119.009C72.468 117.492 71.934 116.946 69.9504 118.326C67.9668 119.706 63.847 123.498 62.7026 126.319C61.5582 129.14 60.3833 135.101 55.3633 138.453L58.1861 123.134Z" fill="black"/>
<g opacity="0.1">
<path opacity="0.1" d="M66.2614 99.6492C56.9076 100.696 51.3838 99.4065 43.3729 96.919C35.3619 94.4316 29.304 100.286 27.3051 108.173C25.8708 113.801 27.6561 123.705 32.0049 129.408C36.3537 135.111 40.1074 136.385 40.1074 136.385L44.5478 123.872C44.5478 123.872 39.2987 126.905 35.0872 124.145C30.8757 121.384 27.4577 115.818 28.6937 108.249C29.9297 100.681 36.8573 96.2972 43.3729 98.1779C50.7326 100.695 58.6368 101.203 66.2614 99.6492Z" fill="black"/>
<path opacity="0.1" d="M118.645 69.6445C127.998 59.9373 133.522 52.3232 141.533 40.6138C149.544 28.9045 155.602 27.8276 157.601 33.4092C159.035 37.3983 157.25 49.3503 152.901 60.1193C150.736 65.7727 148.022 71.203 144.798 76.3334L140.358 68.9013C144.351 66.2043 147.599 62.5535 149.803 58.284C154.015 50.7002 157.433 41.266 156.212 35.0322C154.991 28.7983 148.049 32.4688 141.533 41.8424C134.927 51.8976 127.253 61.2184 118.645 69.6445Z" fill="black"/>
<path opacity="0.1" d="M92.4626 196.309C93.854 195.495 95.4267 195.036 97.0401 194.974C97.0401 172.89 98.0472 163.744 99.7867 160.089C101.526 156.433 102.06 154.098 101.419 153.597C100.778 153.097 97.8641 158.89 95.6669 159.346C93.4697 159.801 92.3863 158.329 92.3863 155.432C92.4193 156.872 92.1486 158.303 91.5914 159.633C91.0343 160.963 90.2031 162.162 89.1515 163.153C86.9543 165.231 84.0247 162.773 83.3838 164.017C82.743 165.261 83.2923 167.051 85.0317 168.567C86.7712 170.084 87.7782 178.168 87.7782 200.252C89.0803 198.684 90.6255 197.333 92.3558 196.248" fill="black"/>
<path opacity="0.1" d="M92.4622 129.469C92.7826 133.625 92.8589 137.932 92.8742 142.255C92.8895 146.578 92.7826 150.976 92.4622 155.496C92.157 151.34 92.0808 147.048 92.0655 142.725C92.0502 138.402 92.2028 133.989 92.4622 129.469Z" fill="black"/>
</g>
<path d="M56.7107 136.922C60.7784 131.662 60.9779 125.031 57.1562 122.111C53.3345 119.191 46.9389 121.088 42.8712 126.347C38.8034 131.607 38.6039 138.238 42.4256 141.158C46.2473 144.079 52.6429 142.182 56.7107 136.922Z" fill="#EBEBEB"/>
</svg>
