<svg width="207" height="242" viewBox="0 0 207 242" fill="none" xmlns="http://www.w3.org/2000/svg">
<g opacity="0.54">
<g opacity="0.3">
<path d="M99.586 0.5H0.5V240.854H99.586V0.5Z" stroke="black" stroke-miterlimit="10"/>
<path d="M1.03125 7.80717H99.3969L97.0793 1.20117" stroke="black" stroke-miterlimit="10"/>
<path d="M1.03125 15.8091H99.3969L97.0793 9.20312" stroke="black" stroke-miterlimit="10"/>
<path d="M1.03125 23.8091H99.3969L97.0793 17.2031" stroke="black" stroke-miterlimit="10"/>
<path d="M1.03125 31.8111H99.3969L97.0793 25.2051" stroke="black" stroke-miterlimit="10"/>
<path d="M1.03125 39.8111H99.3969L97.0793 33.2051" stroke="black" stroke-miterlimit="10"/>
<path d="M1.03125 47.822H99.3969L97.0793 41.207" stroke="black" stroke-miterlimit="10"/>
<path d="M1.03125 55.822H99.3969L97.0793 49.207" stroke="black" stroke-miterlimit="10"/>
<path d="M1.03125 63.8248H99.3969L97.0793 57.2188" stroke="black" stroke-miterlimit="10"/>
<path d="M1.03125 71.8248H99.3969L97.0793 65.2188" stroke="black" stroke-miterlimit="10"/>
<path d="M1.03125 79.8267H99.3969L97.0793 73.2207" stroke="black" stroke-miterlimit="10"/>
<path d="M1.03125 87.8267H99.3969L97.0793 81.2207" stroke="black" stroke-miterlimit="10"/>
<path d="M1.03125 95.8287H99.3969L97.0793 89.2227" stroke="black" stroke-miterlimit="10"/>
<path d="M1.03125 103.829H99.3969L97.0793 97.2227" stroke="black" stroke-miterlimit="10"/>
<path d="M1.03125 111.84H99.3969L97.0793 105.225" stroke="black" stroke-miterlimit="10"/>
<path d="M1.03125 119.84H99.3969L97.0793 113.225" stroke="black" stroke-miterlimit="10"/>
<path d="M1.03125 127.84H99.3969L97.0793 121.234" stroke="black" stroke-miterlimit="10"/>
<path d="M1.03125 135.842H99.3969L97.0793 129.236" stroke="black" stroke-miterlimit="10"/>
<path d="M1.03125 143.842H99.3969L97.0793 137.236" stroke="black" stroke-miterlimit="10"/>
<path d="M1.03125 151.844H99.3969L97.0793 145.238" stroke="black" stroke-miterlimit="10"/>
<path d="M1.03125 159.844H99.3969L97.0793 153.238" stroke="black" stroke-miterlimit="10"/>
<path d="M1.03125 167.846H99.3969L97.0793 161.24" stroke="black" stroke-miterlimit="10"/>
<path d="M1.03125 175.856H99.3969L97.0793 169.25" stroke="black" stroke-miterlimit="10"/>
<path d="M1.03125 183.858H99.3969L97.0793 177.252" stroke="black" stroke-miterlimit="10"/>
<path d="M1.03125 191.858H99.3969L97.0793 185.252" stroke="black" stroke-miterlimit="10"/>
<path d="M1.03125 199.86H99.3969L97.0793 193.254" stroke="black" stroke-miterlimit="10"/>
<path d="M1.03125 207.86H99.3969L97.0793 201.254" stroke="black" stroke-miterlimit="10"/>
<path d="M1.03125 215.862H99.3969L97.0793 209.256" stroke="black" stroke-miterlimit="10"/>
<path d="M1.03125 223.862H99.3969L97.0793 217.256" stroke="black" stroke-miterlimit="10"/>
<path d="M1.03125 231.873H99.3969L97.0793 225.258" stroke="black" stroke-miterlimit="10"/>
<path d="M206.149 0.5H107.062V240.854H206.149V0.5Z" stroke="black" stroke-miterlimit="10"/>
<path d="M107.594 7.80717H205.949L203.642 1.20117" stroke="black" stroke-miterlimit="10"/>
<path d="M107.594 15.8091H205.949L203.642 9.20312" stroke="black" stroke-miterlimit="10"/>
<path d="M107.594 23.8091H205.949L203.642 17.2031" stroke="black" stroke-miterlimit="10"/>
<path d="M107.594 31.8111H205.949L203.642 25.2051" stroke="black" stroke-miterlimit="10"/>
<path d="M107.594 39.8111H205.949L203.642 33.2051" stroke="black" stroke-miterlimit="10"/>
<path d="M107.594 47.822H205.949L203.642 41.207" stroke="black" stroke-miterlimit="10"/>
<path d="M107.594 55.822H205.949L203.642 49.207" stroke="black" stroke-miterlimit="10"/>
<path d="M107.594 63.8248H205.949L203.642 57.2188" stroke="black" stroke-miterlimit="10"/>
<path d="M107.594 71.8248H205.949L203.642 65.2188" stroke="black" stroke-miterlimit="10"/>
<path d="M107.594 79.8267H205.949L203.642 73.2207" stroke="black" stroke-miterlimit="10"/>
<path d="M107.594 87.8267H205.949L203.642 81.2207" stroke="black" stroke-miterlimit="10"/>
<path d="M107.594 95.8287H205.949L203.642 89.2227" stroke="black" stroke-miterlimit="10"/>
<path d="M107.594 103.829H205.949L203.642 97.2227" stroke="black" stroke-miterlimit="10"/>
<path d="M107.594 111.84H205.949L203.642 105.225" stroke="black" stroke-miterlimit="10"/>
<path d="M107.594 119.84H205.949L203.642 113.225" stroke="black" stroke-miterlimit="10"/>
<path d="M107.594 127.84H205.949L203.642 121.234" stroke="black" stroke-miterlimit="10"/>
<path d="M107.594 135.842H205.949L203.642 129.236" stroke="black" stroke-miterlimit="10"/>
<path d="M107.594 143.842H205.949L203.642 137.236" stroke="black" stroke-miterlimit="10"/>
<path d="M107.594 151.844H205.949L203.642 145.238" stroke="black" stroke-miterlimit="10"/>
<path d="M107.594 159.844H205.949L203.642 153.238" stroke="black" stroke-miterlimit="10"/>
<path d="M107.594 167.846H205.949L203.642 161.24" stroke="black" stroke-miterlimit="10"/>
<path d="M107.594 175.856H205.949L203.642 169.25" stroke="black" stroke-miterlimit="10"/>
<path d="M107.594 183.858H205.949L203.642 177.252" stroke="black" stroke-miterlimit="10"/>
<path d="M107.594 191.858H205.949L203.642 185.252" stroke="black" stroke-miterlimit="10"/>
<path d="M107.594 199.86H205.949L203.642 193.254" stroke="black" stroke-miterlimit="10"/>
<path d="M107.594 207.86H205.949L203.642 201.254" stroke="black" stroke-miterlimit="10"/>
<path d="M107.594 215.862H205.949L203.642 209.256" stroke="black" stroke-miterlimit="10"/>
<path d="M107.594 223.862H205.949L203.642 217.256" stroke="black" stroke-miterlimit="10"/>
<path d="M107.594 231.873H205.949L203.642 225.258" stroke="black" stroke-miterlimit="10"/>
</g>
</g>
</svg>
