<svg width="36" height="36" viewBox="0 0 36 36" fill="none" xmlns="http://www.w3.org/2000/svg">
<path d="M5.06836 24.4818V23.2318H2.56836V24.4818C2.56836 26.8025 3.49023 29.0281 5.13118 30.669C6.77212 32.3099 8.99771 33.2318 11.3184 33.2318H15.0684V30.7318H11.3184C9.66076 30.7318 8.07104 30.0733 6.89894 28.9012C5.72684 27.7291 5.06836 26.1394 5.06836 24.4818ZM27.5684 11.9818V13.2318H30.0684V11.9818C30.0684 9.66117 29.1465 7.43557 27.5055 5.79463C25.8646 4.15369 23.639 3.23181 21.3184 3.23181H17.5684V5.73181H21.3184C22.1391 5.73181 22.9518 5.89348 23.7101 6.20757C24.4684 6.52166 25.1574 6.98203 25.7378 7.5624C26.3181 8.14276 26.7785 8.83176 27.0926 9.59004C27.4067 10.3483 27.5684 11.1611 27.5684 11.9818ZM11.3184 11.9818H3.81836C2.8238 11.9818 1.86997 12.3769 1.16671 13.0802C0.463448 13.7834 0.0683594 14.7373 0.0683594 15.7318V18.2318H2.56836V15.7318C2.56836 15.4003 2.70006 15.0824 2.93448 14.8479C3.1689 14.6135 3.48684 14.4818 3.81836 14.4818H11.3184C11.6499 14.4818 11.9678 14.6135 12.2022 14.8479C12.4367 15.0824 12.5684 15.4003 12.5684 15.7318V18.2318H15.0684V15.7318C15.0684 14.7373 14.6733 13.7834 13.97 13.0802C13.2667 12.3769 12.3129 11.9818 11.3184 11.9818ZM7.56836 10.7318C8.55727 10.7318 9.52396 10.4386 10.3462 9.88916C11.1685 9.33975 11.8093 8.55886 12.1878 7.64523C12.5662 6.7316 12.6652 5.72627 12.4723 4.75636C12.2794 3.78646 11.8032 2.89554 11.1039 2.19628C10.4046 1.49702 9.51372 1.02081 8.54381 0.827887C7.57391 0.634961 6.56857 0.733978 5.65494 1.11242C4.74131 1.49085 3.96042 2.13172 3.41101 2.95396C2.8616 3.77621 2.56836 4.74291 2.56836 5.73181C2.56836 7.0579 3.09514 8.32967 4.03283 9.26735C4.97051 10.205 6.24228 10.7318 7.56836 10.7318ZM7.56836 3.23181C8.06281 3.23181 8.54616 3.37844 8.95728 3.65314C9.36841 3.92784 9.68884 4.31829 9.87806 4.7751C10.0673 5.23192 10.1168 5.73459 10.0203 6.21954C9.92386 6.70449 9.68576 7.14995 9.33613 7.49958C8.9865 7.84921 8.54104 8.08731 8.05609 8.18378C7.57113 8.28024 7.06847 8.23073 6.61165 8.04151C6.15484 7.85229 5.76439 7.53186 5.48969 7.12074C5.21498 6.70962 5.06836 6.22627 5.06836 5.73181C5.06836 5.06877 5.33175 4.43289 5.80059 3.96405C6.26943 3.49521 6.90532 3.23181 7.56836 3.23181ZM31.3184 29.4818H23.8184C22.8238 29.4818 21.87 29.8769 21.1667 30.5802C20.4634 31.2834 20.0684 32.2373 20.0684 33.2318V35.7318H22.5684V33.2318C22.5684 32.9003 22.7001 32.5823 22.9345 32.3479C23.1689 32.1135 23.4868 31.9818 23.8184 31.9818H31.3184C31.6499 31.9818 31.9678 32.1135 32.2022 32.3479C32.4367 32.5823 32.5684 32.9003 32.5684 33.2318V35.7318H35.0684V33.2318C35.0684 32.2373 34.6733 31.2834 33.97 30.5802C33.2668 29.8769 32.3129 29.4818 31.3184 29.4818ZM22.5684 23.2318C22.5684 24.2207 22.8616 25.1874 23.411 26.0097C23.9604 26.8319 24.7413 27.4728 25.6549 27.8512C26.5686 28.2297 27.5739 28.3287 28.5438 28.1357C29.5137 27.9428 30.4046 27.4666 31.1039 26.7673C31.8032 26.0681 32.2794 25.1772 32.4723 24.2073C32.6652 23.2374 32.5662 22.232 32.1878 21.3184C31.8093 20.4048 31.1685 19.6239 30.3462 19.0745C29.524 18.5251 28.5573 18.2318 27.5684 18.2318C26.2423 18.2318 24.9705 18.7586 24.0328 19.6963C23.0951 20.634 22.5684 21.9057 22.5684 23.2318ZM30.0684 23.2318C30.0684 23.7263 29.9217 24.2096 29.647 24.6207C29.3723 25.0319 28.9819 25.3523 28.5251 25.5415C28.0683 25.7307 27.5656 25.7802 27.0806 25.6838C26.5957 25.5873 26.1502 25.3492 25.8006 24.9996C25.451 24.65 25.2129 24.2045 25.1164 23.7195C25.0199 23.2346 25.0694 22.7319 25.2587 22.2751C25.4479 21.8183 25.7683 21.4278 26.1794 21.1531C26.5906 20.8784 27.0739 20.7318 27.5684 20.7318C28.2314 20.7318 28.8673 20.9952 29.3361 21.464C29.805 21.9329 30.0684 22.5688 30.0684 23.2318Z" fill="black"/>
</svg>
