<svg width="41" height="41" viewBox="0 0 41 41" fill="none" xmlns="http://www.w3.org/2000/svg">
<g clip-path="url(#clip0_3996_4625)">
<path fill-rule="evenodd" clip-rule="evenodd" d="M12.7352 11.9951C11.5594 8.47069 10.6206 4.87154 9.92517 1.22181C9.89832 1.05644 9.93377 0.887003 10.0247 0.746273C10.1155 0.605542 10.2554 0.50353 10.4172 0.459977C10.5789 0.416425 10.7511 0.434428 10.9004 0.510504C11.0496 0.58658 11.1654 0.715319 11.2252 0.871807C13.3494 6.11301 14.9928 11.5364 16.1352 17.0751C16.1617 17.2474 16.1243 17.4233 16.03 17.5699C15.9357 17.7164 15.791 17.8233 15.6232 17.8705C15.4555 17.9176 15.2763 17.9018 15.1194 17.8259C14.9626 17.75 14.8389 17.6193 14.7718 17.4585C14.2583 16.217 13.7748 14.9633 13.3218 13.6985C12.0633 15.4527 11.1768 17.4457 10.7168 19.5551C15.3252 19.5551 19.9302 19.8218 24.5102 20.3568C24.6996 20.3458 24.8856 20.4104 25.0274 20.5365C25.1691 20.6626 25.2549 20.8399 25.266 21.0293C25.277 21.2187 25.2124 21.4048 25.0863 21.5465C24.9602 21.6882 24.7829 21.7741 24.5935 21.7851C22.0647 21.6423 19.5329 21.559 17.0002 21.5351C18.9012 27.088 19.9509 32.8965 20.1135 38.7635C20.114 38.8819 20.0849 38.9986 20.0289 39.103C19.9729 39.2073 19.8917 39.2961 19.7927 39.3611C19.6937 39.4262 19.5801 39.4655 19.462 39.4755C19.344 39.4855 19.2254 39.4659 19.1168 39.4185C18.9335 39.8118 17.9102 39.8185 11.8335 39.8451C9.62016 39.8551 6.73683 39.8685 2.98017 39.9051C2.70107 39.9003 2.43514 39.7856 2.24011 39.5859C2.04508 39.3862 1.9367 39.1176 1.9385 38.8385C1.95183 36.0685 2.00517 32.9318 2.13517 29.7985L2.1635 29.0918C2.5035 20.7435 2.54017 19.8585 3.72517 19.7651C5.47072 19.6609 7.21837 19.5953 8.96683 19.5685C8.83975 18.0821 9.12391 16.5894 9.78825 15.2537C10.4526 13.9179 11.4715 12.7906 12.7335 11.9951M4.82017 21.8785C4.44183 26.4668 4.1535 33.2851 4.06517 37.8318C6.30183 37.9051 8.20683 37.9651 9.83183 38.0151C15.5735 38.1951 17.7902 38.2651 18.6385 38.4785C18.2935 36.4718 16.0835 24.8318 15.4335 21.5285C11.8924 21.5285 8.35461 21.6451 4.82017 21.8785ZM34.9752 0.308474C26.0918 -0.746526 24.7835 9.36514 31.7335 11.5018C33.0421 11.8688 34.4374 11.7711 35.682 11.2252C36.9267 10.6793 37.9437 9.71902 38.5601 8.50774C39.1764 7.29646 39.354 5.90902 39.0626 4.58155C38.7712 3.25407 38.0288 2.06858 36.9618 1.22681C36.8888 1.16224 36.8034 1.11325 36.7108 1.08283C36.6181 1.05241 36.5203 1.04121 36.4232 1.0499C36.3261 1.0586 36.2318 1.08701 36.1461 1.13339C36.0603 1.17978 35.985 1.24317 35.9246 1.31969C35.8642 1.3962 35.82 1.48424 35.7948 1.5784C35.7696 1.67257 35.7639 1.77088 35.778 1.86734C35.7921 1.96379 35.8257 2.05636 35.8768 2.13937C35.9279 2.22239 35.9954 2.29411 36.0752 2.35014C36.7412 2.96569 37.1852 3.78392 37.3385 4.67777C37.4917 5.57161 37.3455 6.49104 36.9225 7.29326C36.4996 8.09547 35.8235 8.73557 34.9994 9.11414C34.1754 9.49271 33.2493 9.58856 32.3652 9.38681C28.0018 8.08681 28.1735 1.60347 34.8885 1.65847C35.0645 1.66472 35.236 1.60211 35.3666 1.48393C35.4971 1.36576 35.5765 1.20133 35.5878 1.02558C35.5991 0.849836 35.5414 0.676614 35.427 0.542712C35.3126 0.408811 35.1505 0.324782 34.9752 0.308474Z" fill="black"/>
<path fill-rule="evenodd" clip-rule="evenodd" d="M37.2385 15.3152C34.8718 11.8518 31.3885 14.2785 29.6101 14.5702C27.666 14.5132 25.7314 14.2744 23.8318 13.8568C18.0818 13.7202 17.8718 21.1302 24.9451 21.9302C32.5701 22.7752 29.6051 16.5885 30.5951 34.4135C30.7551 37.4602 31.0518 40.4918 34.6151 40.2135C38.0651 39.9552 38.6618 36.6735 38.9285 33.2302C39.1251 30.7402 39.3118 18.3702 37.2385 15.3152ZM36.0101 16.1785C34.2968 13.8468 32.0551 15.8952 29.9368 16.3252C27.8851 16.3585 25.8335 16.1918 23.8135 15.8285C20.4268 15.8568 21.0868 19.3568 25.1768 19.7785C34.2701 20.7168 31.6735 12.7468 32.7868 34.3002C32.8918 36.5052 32.6918 38.2052 34.4785 38.0952C37.6251 37.8952 37.2068 29.2352 37.2068 26.1085C37.6535 22.7518 37.2401 19.3352 36.0101 16.1785Z" fill="black"/>
</g>
<defs>
<clipPath id="clip0_3996_4625">
<rect width="40" height="40" fill="white" transform="translate(0.283203 0.231812)"/>
</clipPath>
</defs>
</svg>
