<svg width="558" height="419" viewBox="0 0 558 419" fill="none" xmlns="http://www.w3.org/2000/svg">
<path d="M27.6963 351.76C27.6963 351.76 100.403 291.687 188.46 316.328C276.516 340.968 438.087 285.831 436.471 197.398C434.856 108.965 379.701 145.144 396.776 166.405C413.851 187.667 480.526 188.922 497.68 142.442C514.833 95.962 541.761 96.2708 541.761 96.2708" stroke="#D4D4D4" stroke-miterlimit="10" stroke-linecap="round" stroke-linejoin="round"/>
<path d="M67.5381 21.1545C67.5381 21.1545 113.485 44.7165 99.4105 65.4278C87.3023 83.2456 62.1758 47.9084 110.373 49.6215C158.571 51.3346 157.188 89.3007 157.188 89.3007" stroke="#D4D4D4" stroke-miterlimit="10" stroke-linecap="round" stroke-linejoin="round"/>
<path d="M461.515 272.531C461.515 272.531 497.868 275.269 504.331 260.212C510.794 245.156 493.828 243.415 490.597 251.471C487.366 259.527 508.371 269.793 522.104 267.056" stroke="#D4D4D4" stroke-miterlimit="10" stroke-linecap="round" stroke-linejoin="round"/>
<path d="M56.5077 139.752L22.4346 142.998L34.3283 124.233L56.5077 139.752Z" fill="#D4D4D4"/>
<path d="M510.794 199.184L522.104 188.398L529.374 202.227L510.794 199.184Z" fill="#D4D4D4"/>
<path d="M251.713 38.3674L244.985 21.2145L263.749 25.8338L251.713 38.3674Z" fill="#D4D4D4"/>
<path d="M39.8331 323.166L15.5596 319.748" stroke="black" stroke-miterlimit="10" stroke-linecap="round" stroke-linejoin="round"/>
<path d="M350.008 160.749L367.511 140.95" stroke="black" stroke-miterlimit="10" stroke-linecap="round" stroke-linejoin="round"/>
<path d="M186.794 33.7587L178.813 4.01352" stroke="black" stroke-miterlimit="10" stroke-linecap="round" stroke-linejoin="round"/>
<path d="M388.63 214.489L405.001 211.318" stroke="black" stroke-miterlimit="10" stroke-linecap="round" stroke-linejoin="round"/>
<path d="M1 394.443H549.419" stroke="black" stroke-width="0.75" stroke-miterlimit="10" stroke-linecap="round" stroke-linejoin="round"/>
<path d="M485.583 6.53012C443.017 31.196 406.157 58.9319 392.618 77.4649C382.333 91.5424 382.499 99.1321 388.63 101.211C397.617 104.259 414.759 85.2615 414.759 85.2615C414.759 85.2615 413.977 98.0471 423.942 96.6186L423.662 96.7878C423.662 96.7878 426.425 103.812 436.649 103.462C437.379 103.436 438.098 103.348 438.809 103.226C438.834 103.27 443.156 111.139 452.063 109.127C455.938 108.251 458.959 106.218 461.05 103.815C461.05 103.815 497.566 91.2116 536.195 67.4007L485.583 6.53012Z" fill="white"/>
<path d="M435.381 65.6053C435.381 65.6053 420.402 90.5473 431.382 94.7381C442.362 98.9279 450.267 77.6525 450.267 77.6525C450.267 77.6525 458.31 78.29 464.813 70.0765" stroke="black" stroke-miterlimit="10" stroke-linecap="round" stroke-linejoin="round"/>
<path d="M423.662 96.7877C423.662 96.7877 426.426 103.812 436.649 103.462C446.874 103.113 455.518 92.704 455.437 87.6845C455.371 83.6901 451.463 81.9739 448.372 81.915" stroke="black" stroke-miterlimit="10" stroke-linecap="round" stroke-linejoin="round"/>
<path d="M438.808 103.222C438.808 103.222 443.132 111.144 452.064 109.127C460.996 107.108 465.402 98.95 464.306 94.2592C463.245 89.7145 458.838 88.161 455.486 88.641" stroke="black" stroke-miterlimit="10" stroke-linecap="round" stroke-linejoin="round"/>
<path d="M424.698 78.4036L429.789 76.1916" stroke="black" stroke-miterlimit="10" stroke-linecap="round" stroke-linejoin="round"/>
<path d="M478.703 10.5683C439.082 34.1775 405.423 59.9378 392.618 77.4656C382.333 91.5432 382.499 99.1328 388.63 101.211C397.617 104.259 414.759 85.2622 414.759 85.2622C414.759 85.2622 413.665 103.083 430.444 94.3055" stroke="black" stroke-miterlimit="10" stroke-linecap="round" stroke-linejoin="round"/>
<path d="M461.052 103.815C461.052 103.815 498.903 90.7535 538.298 66.0981" stroke="black" stroke-miterlimit="10" stroke-linecap="round" stroke-linejoin="round"/>
<path d="M495.332 1C480.804 9.09276 466.764 17.6277 453.882 26.1564C453.941 26.1931 490.73 49.0051 516.629 78.6863C528.565 72.2425 541.337 64.5815 553.789 55.786C536.198 27.3548 510.518 9.65048 495.332 1Z" fill="#23BB4E" stroke="black" stroke-miterlimit="10" stroke-linecap="round" stroke-linejoin="round"/>
<path d="M475.148 16.8651C475.148 16.8651 502.218 30.6643 528.838 65.0257" stroke="black" stroke-miterlimit="10" stroke-linecap="round" stroke-linejoin="round"/>
<path d="M473.998 31.365C476.6 31.365 478.71 29.5776 478.71 27.3728C478.71 25.1679 476.6 23.3805 473.998 23.3805C471.395 23.3805 469.285 25.1679 469.285 27.3728C469.285 29.5776 471.395 31.365 473.998 31.365Z" stroke="black" stroke-miterlimit="10" stroke-linecap="round" stroke-linejoin="round"/>
<path d="M283.25 167.369C310.945 164.475 330.628 143.11 327.212 119.648C323.797 96.1857 298.576 79.5115 270.881 82.4049C243.186 85.2984 223.503 106.664 226.918 130.126C230.334 153.588 255.554 170.262 283.25 167.369Z" fill="white" stroke="black" stroke-miterlimit="10" stroke-linecap="round" stroke-linejoin="round"/>
<path d="M327.358 128.901C329.973 105.366 309.571 84.4916 281.789 82.2765C278.826 82.0402 275.9 82.0328 273.031 82.225C271.782 82.0738 269.497 82.1683 265.832 82.6031C240.976 85.5535 224.406 104.826 230.563 107.77C236.72 110.714 249.359 95.8814 249.359 95.8814C249.006 97.502 241.042 106.325 247.871 108.204C253.676 109.802 261.49 95.7144 261.49 95.7144C261.49 95.7144 256.029 106.991 261.353 109.215C266.675 111.44 270.873 99.1006 270.873 99.1006C270.873 99.1006 266.946 112.595 280.928 118.719C294.911 124.842 299.543 124.147 299.543 124.147L299.542 124.135C303.503 125.111 307.828 125.846 312.575 126.242L307.291 159.182C318.323 152.196 325.964 141.436 327.358 128.901Z" fill="black"/>
<path d="M322.774 130.566C322.125 136.402 316.015 140.687 309.127 140.138C302.238 139.589 297.18 134.413 297.828 128.577C298.477 122.741 304.587 118.456 311.475 119.005C318.364 119.555 323.422 124.731 322.774 130.566Z" fill="white"/>
<path d="M301.442 128.866C301.902 124.721 306.242 121.678 311.134 122.068C316.026 122.458 319.618 126.134 319.158 130.279C318.698 134.423 314.359 137.466 309.466 137.076" stroke="black" stroke-miterlimit="10" stroke-linecap="round" stroke-linejoin="round"/>
<path d="M341.024 88.8196C358.456 84.3497 368.31 68.7546 363.033 53.987C357.757 39.2194 339.348 30.8715 321.916 35.3414C304.484 39.8114 294.63 55.4065 299.906 70.1741C305.183 84.9416 323.591 93.2896 341.024 88.8196Z" fill="black"/>
<path d="M274.469 122.219C274.197 124.68 272.198 126.532 270.006 126.358C267.814 126.184 266.259 124.047 266.533 121.586C266.806 119.126 268.805 117.273 270.997 117.448C273.187 117.622 274.742 119.759 274.469 122.219Z" fill="black"/>
<path d="M246.349 114.914C246.093 117.218 244.221 118.954 242.169 118.79C240.117 118.626 238.66 116.625 238.917 114.322C239.172 112.017 241.045 110.282 243.097 110.446C245.148 110.609 246.605 112.61 246.349 114.914Z" fill="black"/>
<path d="M257.668 110.489L247.202 121.182L256.693 123.923" stroke="black" stroke-miterlimit="10" stroke-linecap="round" stroke-linejoin="round"/>
<path d="M243.526 131.836C243.526 131.836 252.427 132.199 258.35 133.616" stroke="black" stroke-miterlimit="10" stroke-linecap="round" stroke-linejoin="round"/>
<path d="M287.17 137.028C284.797 140.811 279.254 142.246 274.791 140.236C270.326 138.226 268.632 133.531 271.005 129.75C273.378 125.968 278.92 124.532 283.383 126.542C287.847 128.551 289.543 133.246 287.17 137.028Z" fill="#23BB4E"/>
<path d="M239.386 126.656C241.411 123.428 239.964 119.42 236.154 117.705C233.341 116.438 230.033 116.784 227.676 118.346C227.484 119.328 227.285 120.309 227.174 121.31C226.911 123.67 226.933 126.013 227.131 128.331C227.634 128.734 228.179 129.106 228.82 129.395C232.63 131.109 237.361 129.883 239.386 126.656Z" fill="#23BB4E"/>
<path d="M273.723 137.967C272.539 127.987 232.526 133.872 232.526 133.872C270.76 124.193 267.831 113.501 260.912 108.434C258.333 106.545 256.406 105.974 250.111 107.327L250.607 106.679C251.662 103.994 250.828 99.6426 245.59 97.3424C240.696 95.1934 226.717 97.9915 213.617 101.673C214.102 100.909 220.308 91.2631 210.791 89.0038C200.933 86.6637 123.207 121.55 93.2039 140.745C70.3438 155.37 6.87168 202.914 45.6885 251.957C84.5052 300.999 210.748 270.442 210.748 270.442C210.748 270.442 260.371 211.718 254.595 208.156C248.839 204.608 164.313 202.935 163.686 202.922C186.059 181.993 222.413 171.052 233.266 169.376C246.212 167.376 265.686 166.514 265.364 158.221C265.133 152.276 255.615 151.068 250.242 150.86C273.808 150.756 274.602 145.371 273.723 137.967ZM246.645 150.85L246.642 150.848C246.655 150.848 246.668 150.848 246.681 150.849C246.665 150.849 246.645 150.85 246.645 150.85Z" fill="white"/>
<mask id="mask0_3659_19174" style="mask-type:luminance" maskUnits="userSpaceOnUse" x="33" y="119" width="223" height="161">
<path d="M163.687 202.921C170.04 196.978 177.521 191.842 185.225 187.494L132.239 119.546C116.897 127.066 102.674 134.686 93.2049 140.745C70.3448 155.369 6.87266 202.913 45.6894 251.956C84.5062 300.999 210.749 270.442 210.749 270.442C210.749 270.442 260.372 211.717 254.596 208.156C248.84 204.608 164.314 202.933 163.687 202.921Z" fill="white"/>
</mask>
<g mask="url(#mask0_3659_19174)">
<path d="M169.765 246.307C167.552 242.803 163.795 240.292 159.312 239.36C150.592 237.545 141.807 242.266 139.729 249.884C137.651 257.501 143.056 265.174 151.776 266.989C156.719 268.018 161.885 266.973 165.801 264.191C168.014 267.696 171.772 270.207 176.253 271.139C184.973 272.954 193.758 268.233 195.835 260.615C197.913 252.998 192.509 245.324 183.789 243.509C178.846 242.481 173.68 243.526 169.765 246.307Z" stroke="#23BB4E" stroke-miterlimit="10" stroke-linecap="round" stroke-linejoin="round"/>
<path d="M92.1781 264.309C89.965 260.804 86.2071 258.294 81.7251 257.361C73.0053 255.546 64.2198 260.267 62.1419 267.885C60.0639 275.502 65.4696 283.176 74.1893 284.991C79.1326 286.019 84.2977 284.974 88.2144 282.193C90.4275 285.698 94.1842 288.208 98.6662 289.141C107.387 290.956 116.171 286.235 118.249 278.617C120.327 271 114.923 263.326 106.203 261.511C101.259 260.482 96.0935 261.528 92.1781 264.309Z" stroke="#23BB4E" stroke-miterlimit="10" stroke-linecap="round" stroke-linejoin="round"/>
<path d="M100.478 199.701C98.2648 196.196 94.5069 193.686 90.0249 192.753C81.3051 190.938 72.5196 195.66 70.4417 203.278C68.3637 210.895 73.7694 218.568 82.4891 220.383C87.4324 221.411 92.5975 220.366 96.5142 217.585C98.7273 221.09 102.484 223.6 106.966 224.533C115.687 226.348 124.471 221.627 126.549 214.01C128.627 206.393 123.223 198.719 114.503 196.904C109.56 195.874 104.395 196.919 100.478 199.701Z" stroke="#23BB4E" stroke-miterlimit="10" stroke-linecap="round" stroke-linejoin="round"/>
<path d="M155.647 160.18C153.434 156.675 149.676 154.164 145.194 153.232C136.474 151.417 127.689 156.138 125.611 163.756C123.533 171.373 128.938 179.047 137.658 180.862C142.601 181.89 147.766 180.845 151.683 178.064C153.896 181.569 157.654 184.079 162.135 185.011C170.856 186.826 179.64 182.105 181.718 174.488C183.796 166.871 178.392 159.198 169.672 157.383C164.727 156.353 159.562 157.398 155.647 160.18Z" stroke="#23BB4E" stroke-miterlimit="10" stroke-linecap="round" stroke-linejoin="round"/>
<path d="M76.8637 143.903C74.6506 140.398 70.8926 137.887 66.4106 136.955C57.6909 135.14 48.9054 139.861 46.8274 147.479C44.7494 155.096 50.1551 162.77 58.8749 164.585C63.8181 165.614 68.9833 164.568 72.8999 161.787C75.113 165.292 78.8697 167.802 83.3517 168.735C92.0715 170.549 100.857 165.828 102.934 158.21C105.012 150.593 99.6072 142.92 90.8874 141.105C85.9455 140.075 80.7803 141.12 76.8637 143.903Z" stroke="#23BB4E" stroke-miterlimit="10" stroke-linecap="round" stroke-linejoin="round"/>
<path d="M19.8685 220.319C17.6554 216.814 13.8975 214.304 9.41549 213.371C0.695729 211.556 -8.08974 216.277 -10.1677 223.894C-12.2457 231.511 -6.83999 239.185 1.87977 241C6.823 242.028 11.9882 240.983 15.9048 238.202C18.1179 241.707 21.8758 244.217 26.3566 245.15C35.0764 246.965 43.8618 242.244 45.9386 234.626C48.0165 227.009 42.6121 219.335 33.8923 217.52C28.9491 216.493 23.7839 217.538 19.8685 220.319Z" stroke="#23BB4E" stroke-miterlimit="10" stroke-linecap="round" stroke-linejoin="round"/>
<path d="M158.947 207.733C160.367 207.213 161.711 206.515 162.932 205.647C165.145 209.152 168.902 211.662 173.384 212.595C181.47 214.278 189.612 210.341 192.409 203.685" stroke="#23BB4E" stroke-miterlimit="10" stroke-linecap="round" stroke-linejoin="round"/>
</g>
<path d="M193.269 109.164C193.269 109.164 236.786 90.7155 246.631 97.9565C251.086 101.233 251.664 103.995 250.61 106.679" stroke="black" stroke-miterlimit="10" stroke-linecap="round" stroke-linejoin="round"/>
<path d="M213.617 119.732C213.617 119.732 249.674 102.999 260.032 107.967C269.214 112.372 269.128 125.39 232.525 133.872C232.525 133.872 273.722 126.448 274.219 138.909C274.572 147.756 271.679 151.966 234.777 150.55" stroke="black" stroke-miterlimit="10" stroke-linecap="round" stroke-linejoin="round"/>
<path d="M246.644 150.85C246.644 150.85 265.044 149.928 265.366 158.221C265.688 166.513 246.213 167.376 233.268 169.375C220.724 171.313 174.095 185.618 154.386 213.429" stroke="black" stroke-miterlimit="10" stroke-linecap="round" stroke-linejoin="round"/>
<path d="M163.673 202.921C163.673 202.921 248.819 204.594 254.596 208.155C260.372 211.717 210.749 270.441 210.749 270.441C210.749 270.441 84.5062 300.998 45.6894 251.956C6.87266 202.913 70.3448 155.369 93.2049 140.744C123.209 121.549 200.934 86.6627 210.792 89.0028C220.65 91.3429 212.659 101.982 212.659 101.982" stroke="black" stroke-miterlimit="10" stroke-linecap="round" stroke-linejoin="round"/>
<path d="M175.078 193.818C180.897 189.797 187.108 186.274 193.268 183.251C160.512 158.988 149.613 111.293 149.613 111.293C143.668 114.03 137.69 116.869 131.878 119.722C134.309 157.195 162.852 183.987 175.078 193.818Z" fill="#D4D4D4" stroke="black" stroke-miterlimit="10" stroke-linecap="round" stroke-linejoin="round"/>
<path d="M136.067 125.391L151.555 118.254" stroke="black" stroke-miterlimit="10" stroke-linecap="round" stroke-linejoin="round"/>
<path d="M142.411 144.86L158.435 136.566" stroke="black" stroke-miterlimit="10" stroke-linecap="round" stroke-linejoin="round"/>
<path d="M155.468 165.426L170.021 157.965" stroke="black" stroke-miterlimit="10" stroke-linecap="round" stroke-linejoin="round"/>
<path d="M167.782 182.123L182.804 174.043" stroke="black" stroke-miterlimit="10" stroke-linecap="round" stroke-linejoin="round"/>
<path d="M375.108 345.092C375.108 345.092 363.303 400.285 462.21 386.757C466.981 383.169 470.442 378.719 471.798 373.197C486.057 315.078 452.543 286.25 397.193 250.291C325.025 203.406 295.494 211.417 295.494 211.417L375.108 345.092Z" fill="white"/>
<mask id="mask1_3659_19174" style="mask-type:luminance" maskUnits="userSpaceOnUse" x="295" y="210" width="181" height="177">
<path d="M375.108 345.092C375.108 345.092 388.185 387.896 462.21 386.757C466.981 383.169 470.442 378.719 471.798 373.197C486.057 315.078 452.543 286.25 397.193 250.291C325.025 203.406 295.494 211.417 295.494 211.417L375.108 345.092Z" fill="white"/>
</mask>
<g mask="url(#mask1_3659_19174)">
<path d="M408.299 246.308C406.086 242.803 402.328 240.293 397.846 239.36C389.126 237.545 380.341 242.266 378.263 249.884C376.185 257.501 381.591 265.175 390.31 266.99C395.254 268.018 400.419 266.973 404.335 264.192C406.549 267.697 410.305 270.207 414.787 271.14C423.508 272.955 432.293 268.233 434.369 260.615C436.447 252.998 431.043 245.325 422.323 243.51C417.381 242.482 412.215 243.527 408.299 246.308Z" stroke="#23BB4E" stroke-miterlimit="10" stroke-linecap="round" stroke-linejoin="round"/>
<path d="M391.372 299.384C389.159 295.879 385.403 293.369 380.919 292.436C372.2 290.621 363.414 295.343 361.336 302.961C359.258 310.578 364.664 318.251 373.384 320.066C378.327 321.094 383.492 320.049 387.409 317.268C389.622 320.773 393.38 323.283 397.862 324.216C406.583 326.031 415.367 321.31 417.444 313.692C419.522 306.075 414.117 298.401 405.398 296.586C400.453 295.557 395.288 296.602 391.372 299.384Z" stroke="#23BB4E" stroke-miterlimit="10" stroke-linecap="round" stroke-linejoin="round"/>
<path d="M477.063 292.929C474.85 289.424 471.093 286.914 466.61 285.981C457.89 284.166 449.105 288.887 447.027 296.505C444.949 304.122 450.354 311.796 459.074 313.611C464.017 314.639 469.182 313.594 473.099 310.813C475.312 314.318 479.069 316.828 483.551 317.761C492.272 319.576 501.056 314.855 503.133 307.236C505.211 299.62 499.806 291.946 491.087 290.131C486.143 289.102 480.978 290.147 477.063 292.929Z" stroke="#23BB4E" stroke-miterlimit="10" stroke-linecap="round" stroke-linejoin="round"/>
</g>
<path d="M295.492 211.417C295.492 211.417 325.023 203.406 397.191 250.291C452.542 286.25 486.055 315.078 471.796 373.197" stroke="black" stroke-miterlimit="10" stroke-linecap="round" stroke-linejoin="round"/>
<path d="M356.64 244.713C356.64 244.713 389.374 290.51 378.453 394.442H152.105C152.105 394.442 148.881 282.83 196.003 238.215C196.003 238.215 233.736 197.077 285.12 205.491C336.504 213.905 356.64 244.713 356.64 244.713Z" fill="white"/>
<mask id="mask2_3659_19174" style="mask-type:luminance" maskUnits="userSpaceOnUse" x="152" y="204" width="229" height="191">
<path d="M356.64 244.713C356.64 244.713 355.033 242.257 351.573 238.543C353.062 235.123 354.162 232.32 354.07 231.698C353.801 229.873 343.117 219.929 333.771 219.459C331.681 219.354 329.51 219.541 327.375 219.887C316.659 213.886 302.726 208.374 285.12 205.491C265.678 202.307 248.194 206.22 233.964 212.311C230.374 209.437 226.661 206.968 223.735 206.179C215.387 203.93 197.345 209.112 195.006 216.926C193.494 221.978 197.391 229.393 200.335 234.006C197.513 236.568 196.002 238.214 196.002 238.214C148.881 282.829 152.104 394.441 152.104 394.441H378.452C389.373 290.509 356.64 244.713 356.64 244.713Z" fill="white"/>
</mask>
<g mask="url(#mask2_3659_19174)">
<path d="M181.764 307.386C179.551 303.881 175.794 301.371 171.311 300.438C162.591 298.623 153.806 303.345 151.728 310.963C149.65 318.58 155.056 326.253 163.775 328.068C168.719 329.097 173.884 328.051 177.8 325.27C180.013 328.775 183.771 331.285 188.252 332.218C196.973 334.033 205.757 329.312 207.835 321.694C209.913 314.077 204.509 306.403 195.789 304.588C190.846 303.559 185.681 304.605 181.764 307.386Z" stroke="#23BB4E" stroke-miterlimit="10" stroke-linecap="round" stroke-linejoin="round"/>
<path d="M238.479 266.828C236.266 263.323 232.509 260.813 228.026 259.88C219.306 258.065 210.521 262.786 208.443 270.404C206.365 278.021 211.77 285.695 220.49 287.51C225.433 288.538 230.599 287.493 234.515 284.712C236.728 288.217 240.486 290.727 244.967 291.66C253.688 293.475 262.472 288.753 264.549 281.135C266.627 273.518 261.222 265.845 252.503 264.03C247.561 263.001 242.396 264.046 238.479 266.828Z" stroke="#23BB4E" stroke-miterlimit="10" stroke-linecap="round" stroke-linejoin="round"/>
<path d="M322.112 224.148C319.899 220.643 316.142 218.133 311.659 217.2C302.939 215.385 294.153 220.106 292.075 227.724C289.997 235.341 295.403 243.015 304.123 244.83C309.066 245.859 314.231 244.813 318.148 242.032C320.361 245.537 324.118 248.047 328.6 248.98C337.321 250.795 346.105 246.074 348.182 238.456C350.26 230.839 344.855 223.165 336.135 221.35C331.193 220.321 326.028 221.367 322.112 224.148Z" stroke="#23BB4E" stroke-miterlimit="10" stroke-linecap="round" stroke-linejoin="round"/>
<path d="M297.475 315.656C295.262 312.151 291.505 309.641 287.022 308.708C278.302 306.893 269.517 311.614 267.439 319.232C265.361 326.849 270.766 334.523 279.486 336.338C284.429 337.366 289.595 336.321 293.511 333.54C295.724 337.045 299.482 339.555 303.963 340.488C312.683 342.303 321.468 337.582 323.545 329.964C325.623 322.347 320.219 314.673 311.499 312.858C306.557 311.829 301.392 312.874 297.475 315.656Z" stroke="#23BB4E" stroke-miterlimit="10" stroke-linecap="round" stroke-linejoin="round"/>
<path d="M360.963 278.688C358.75 275.183 354.993 272.673 350.51 271.74C341.79 269.925 333.005 274.646 330.927 282.264C328.849 289.881 334.255 297.555 342.974 299.37C347.918 300.398 353.083 299.353 357 296.572C359.213 300.077 362.971 302.587 367.451 303.52C376.171 305.335 384.957 300.614 387.033 292.996C389.111 285.379 383.707 277.705 374.987 275.89C370.045 274.861 364.88 275.907 360.963 278.688Z" stroke="#23BB4E" stroke-miterlimit="10" stroke-linecap="round" stroke-linejoin="round"/>
<path d="M382.35 348.433C380.137 344.928 376.38 342.417 371.897 341.485C363.177 339.67 354.392 344.391 352.314 352.009C350.236 359.626 355.641 367.3 364.361 369.115C369.304 370.143 374.47 369.098 378.386 366.317C380.599 369.821 384.357 372.332 388.838 373.264C397.558 375.079 406.343 370.358 408.42 362.74C410.498 355.122 405.094 347.449 396.374 345.635C391.432 344.605 386.267 345.65 382.35 348.433Z" stroke="#23BB4E" stroke-miterlimit="10" stroke-linecap="round" stroke-linejoin="round"/>
<path d="M238.479 361.166C236.266 357.661 232.509 355.151 228.026 354.218C219.306 352.403 210.521 357.124 208.443 364.742C206.365 372.359 211.77 380.033 220.49 381.848C225.433 382.876 230.599 381.831 234.515 379.05C236.728 382.555 240.486 385.065 244.967 385.998C253.688 387.813 262.472 383.091 264.549 375.473C266.627 367.856 261.222 360.183 252.503 358.368C247.561 357.338 242.396 358.384 238.479 361.166Z" stroke="#23BB4E" stroke-miterlimit="10" stroke-linecap="round" stroke-linejoin="round"/>
<path d="M151.426 385.192C149.213 381.687 145.456 379.177 140.973 378.244C132.253 376.429 123.468 381.15 121.39 388.768C119.312 396.385 124.718 404.059 133.437 405.874C138.381 406.903 143.546 405.857 147.462 403.076C149.676 406.581 153.432 409.091 157.914 410.024C166.634 411.839 175.419 407.118 177.496 399.499C179.574 391.883 174.17 384.209 165.45 382.394C160.508 381.365 155.343 382.41 151.426 385.192Z" stroke="#23BB4E" stroke-miterlimit="10" stroke-linecap="round" stroke-linejoin="round"/>
<path d="M231.852 215.778C229.639 212.273 225.882 209.762 221.399 208.83C212.679 207.015 203.894 211.736 201.816 219.354C199.738 226.971 205.143 234.645 213.863 236.46C218.806 237.488 223.972 236.443 227.888 233.662C230.101 237.167 233.858 239.677 238.34 240.609C247.061 242.424 255.845 237.703 257.923 230.085C260.001 222.468 254.597 214.795 245.877 212.98C240.934 211.95 235.769 212.995 231.852 215.778Z" stroke="#23BB4E" stroke-miterlimit="10" stroke-linecap="round" stroke-linejoin="round"/>
</g>
<path d="M356.64 244.713C356.64 244.713 389.374 290.51 378.453 394.442H152.105C152.105 394.442 148.881 282.83 196.003 238.215" stroke="black" stroke-miterlimit="10" stroke-linecap="round" stroke-linejoin="round"/>
<path d="M287.064 225.638C275.209 224.719 244.794 221.811 237.772 200.271C229.869 176.027 260.032 164.856 291.056 178.248C306.6 184.957 333.189 176.312 337.104 194.053C340.935 211.415 316.764 227.942 287.064 225.638Z" fill="#D4D4D4" stroke="black" stroke-miterlimit="10" stroke-linecap="round" stroke-linejoin="round"/>
<path d="M250.606 184.767C250.606 184.767 273.552 217.09 325.794 194.052" stroke="black" stroke-miterlimit="10" stroke-linecap="round" stroke-linejoin="round"/>
<path d="M256.917 191.075C256.917 191.075 249.5 195.87 243.645 202.336" stroke="black" stroke-miterlimit="10" stroke-linecap="round" stroke-linejoin="round"/>
<path d="M267.149 197.399C267.149 197.399 259.795 203.749 254.018 212.903" stroke="black" stroke-miterlimit="10" stroke-linecap="round" stroke-linejoin="round"/>
<path d="M284.189 202.337C284.189 202.337 281.118 213.876 280.756 219.46" stroke="black" stroke-miterlimit="10" stroke-linecap="round" stroke-linejoin="round"/>
<path d="M300.851 201.554C300.851 201.554 303.982 207.859 304.791 216.926" stroke="black" stroke-miterlimit="10" stroke-linecap="round" stroke-linejoin="round"/>
<path d="M316.888 197.399C316.888 197.399 321.279 203.538 323.37 210.221" stroke="black" stroke-miterlimit="10" stroke-linecap="round" stroke-linejoin="round"/>
<path d="M360.522 355.551C354.295 353.344 324.716 354.137 324.716 354.137C301.356 354.499 276.502 357.569 257.778 362.605C237.787 367.98 215.313 384.908 217.183 396.42C219.042 407.88 229.25 403.756 229.342 403.718C231.976 407.723 238.364 408.952 244.201 406.556L244.202 406.554C247.298 408.814 252.39 409.252 257.527 407.284C260.569 410.959 268.115 412.159 279.869 407.185C303.414 397.219 336.452 401.519 336.452 401.519C336.452 401.519 399.581 404.084 406.037 377.773C406.142 377.345 406.22 376.932 406.319 376.508C393.042 368.209 366.197 357.561 360.522 355.551Z" fill="white"/>
<path d="M406.034 377.775C399.578 404.086 336.449 401.52 336.449 401.52C336.449 401.52 303.411 397.22 279.866 407.186C256.32 417.151 249.654 402.345 262.272 392.48C274.891 382.616 290.744 382.316 290.744 382.316" stroke="black" stroke-miterlimit="10" stroke-linecap="round" stroke-linejoin="round"/>
<path d="M279.594 377.775C279.594 377.775 253.515 379.66 244.366 392.48C235.674 404.661 246.501 411.508 257.526 407.286" stroke="black" stroke-miterlimit="10" stroke-linecap="round" stroke-linejoin="round"/>
<path d="M265.946 372.782C265.946 372.782 239.903 377.135 230.799 391.523C222.754 404.238 234.278 410.629 244.199 406.558" stroke="black" stroke-miterlimit="10" stroke-linecap="round" stroke-linejoin="round"/>
<path d="M229.343 403.718C229.343 403.718 219.048 407.932 217.179 396.42C215.311 384.908 237.786 367.98 257.775 362.605C285.067 355.266 337.564 350.268 368.784 357" stroke="black" stroke-miterlimit="10" stroke-linecap="round" stroke-linejoin="round"/>
<path d="M38.3564 382.996C38.3564 395.042 49.8832 404.807 64.1029 404.807C78.3225 404.807 89.8493 395.041 89.8493 382.996C89.8493 370.95 78.3225 361.185 64.1029 361.185C49.8832 361.185 38.3564 370.95 38.3564 382.996ZM47.8325 382.996C47.8325 375.384 55.1165 369.214 64.1029 369.214C73.088 369.214 80.3732 375.384 80.3732 382.996C80.3732 390.608 73.0892 396.779 64.1029 396.779C55.1178 396.778 47.8325 390.608 47.8325 382.996Z" fill="white" stroke="black" stroke-miterlimit="10" stroke-linecap="round" stroke-linejoin="round"/>
<path d="M77.1443 418H119.85C127.653 418 133.977 412.643 133.977 406.033V360.726C133.977 354.116 127.653 348.759 119.85 348.759H77.1443C69.342 348.759 63.0176 354.117 63.0176 360.726V406.032C63.0163 412.642 69.342 418 77.1443 418Z" fill="white" stroke="black" stroke-miterlimit="10" stroke-linecap="round" stroke-linejoin="round"/>
<path d="M112.832 338.726C133.909 333.239 132.19 307.338 112.832 295.599C96.5246 285.709 110.224 281.354 104.906 254.879C99.587 228.403 71.0224 215.283 37.558 228.201C4.09364 241.118 -0.410687 288.393 37.4663 302.432C64.5145 312.456 79.2004 297.216 80.9424 320.955C81.7259 331.631 95.2042 343.315 112.832 338.726Z" stroke="black" stroke-miterlimit="10" stroke-linecap="round" stroke-linejoin="round"/>
<path d="M102.215 402.186C100.18 403.282 97.5542 403.224 95.5767 402.056C88.5071 397.881 72.5777 387.149 73.6018 375.739C74.7251 363.205 93.0313 364.993 99.4871 375.732C99.4871 375.732 105.85 365.646 116.33 366.946C127.971 368.389 130.347 387.022 102.215 402.186Z" fill="#23BB4E"/>
<path d="M85.206 384.901C86.3845 384.901 87.3398 383.599 87.3398 381.994C87.3398 380.389 86.3845 379.088 85.206 379.088C84.0276 379.088 83.0723 380.389 83.0723 381.994C83.0723 383.599 84.0276 384.901 85.206 384.901Z" fill="black"/>
<path d="M110.98 384.901C112.159 384.901 113.114 383.599 113.114 381.994C113.114 380.389 112.159 379.088 110.98 379.088C109.802 379.088 108.847 380.389 108.847 381.994C108.847 383.599 109.802 384.901 110.98 384.901Z" fill="black"/>
<path d="M104.142 382.422C104.142 385.452 101.857 387.909 99.0363 387.909C96.2157 387.909 93.9307 385.452 93.9307 382.422" stroke="black" stroke-miterlimit="10" stroke-linecap="round" stroke-linejoin="round"/>
<path d="M488.363 416.436L357.018 416.64C343.384 416.661 336.334 407.698 341.273 396.62L375.702 319.394C380.641 308.316 395.699 299.319 409.333 299.298L540.677 299.095C554.312 299.074 561.362 308.036 556.422 319.114L521.993 396.34C517.054 407.417 501.997 416.415 488.363 416.436Z" fill="black"/>
<path d="M468.538 351.745C466.998 356.649 461.06 360.632 455.273 360.64C449.487 360.649 446.045 356.68 447.585 351.776C449.125 346.872 455.064 342.889 460.85 342.88C466.635 342.873 470.078 346.841 468.538 351.745Z" fill="white"/>
<path d="M261.816 413.982L261.79 402.666C261.786 401.195 263.191 400 264.928 399.998L397.258 399.793C398.994 399.79 400.404 400.981 400.407 402.451L400.431 413.769C400.433 415.239 399.029 416.434 397.293 416.436L264.965 416.641C263.23 416.642 261.819 415.452 261.816 413.982Z" fill="black"/>
</svg>
