<svg width="38" height="38" viewBox="0 0 38 38" fill="none" xmlns="http://www.w3.org/2000/svg">
<path d="M7.19344 0.376465C11.0049 5.39084 13.1461 10.8969 14.7569 17.5712H8.71187L9.68609 18.7626L11.9078 21.4798L19.2857 30.7181L21.107 28.4183L29 18.7626L29.9742 17.5712H24.1319C25.7428 10.8968 27.8838 5.39092 31.6955 0.376465H25.4845C22.1869 5.90256 21.1986 11.7872 20.3525 19.0312H26.8955L19.3443 28.2694L11.7905 19.0312H18.5288C17.6976 11.7794 16.5595 5.82857 13.3042 0.376465H7.19344ZM7.5743 28.7015C7.06023 28.8315 6.56883 28.969 6.10445 29.1142C4.41383 29.6428 3.06969 30.2716 2.1982 30.9159C1.3268 31.5602 0.982422 32.156 0.982422 32.6714C0.982422 33.1866 1.3268 33.7823 2.1982 34.4266C3.06961 35.0709 4.41383 35.6997 6.10445 36.2284C9.48555 37.2857 14.2415 37.9569 19.4931 37.9569C24.7449 37.9569 29.5008 37.2857 32.8819 36.2284C34.5725 35.6997 35.9167 35.0709 36.7881 34.4266C37.6595 33.7823 38.004 33.1866 38.004 32.6713C38.004 32.156 37.6595 31.5602 36.788 30.9158C35.9166 30.2716 34.5724 29.6428 32.8818 29.1141C32.4174 28.969 31.9261 28.8315 31.4121 28.7016C32.885 29.4157 33.7437 30.2688 33.7437 31.1869C33.7437 33.6921 27.3636 35.723 19.4931 35.723C11.6228 35.723 5.24273 33.6921 5.24273 31.1869C5.24273 30.269 6.10133 29.4156 7.5743 28.7015V28.7015ZM12.5693 29.1483C12.1884 29.24 11.8261 29.3387 11.4902 29.4437C10.4887 29.7569 9.69859 30.1317 9.21242 30.4912C8.72617 30.8505 8.59469 31.1322 8.59469 31.3187C8.59469 31.5054 8.72625 31.787 9.21242 32.1465C9.69867 32.5058 10.4887 32.8806 11.4903 33.1938C13.4936 33.8204 16.344 34.2243 19.4932 34.2243C22.6424 34.2243 25.4954 33.8204 27.4987 33.1938C28.5002 32.8807 29.2879 32.506 29.7741 32.1465C30.2602 31.7871 30.3917 31.5055 30.3917 31.3189C30.3917 31.1324 30.2603 30.8508 29.7741 30.4914C29.288 30.132 28.5004 29.7572 27.4988 29.444C27.1622 29.3388 26.7991 29.2404 26.4172 29.1487C27.0963 29.5226 27.4866 29.9576 27.4866 30.4205C27.4866 31.8258 23.9078 32.9646 19.4934 32.9646C15.079 32.9646 11.5004 31.8258 11.5004 30.4206C11.5004 29.9579 11.8912 29.5226 12.5696 29.1487L12.5693 29.1483Z" fill="black"/>
</svg>
