<svg width="41" height="41" viewBox="0 0 41 41" fill="none" xmlns="http://www.w3.org/2000/svg">
<g clip-path="url(#clip0_3996_4603)">
<path d="M18.9019 13.5652H22.2352V15.2319H18.9019V13.5652ZM18.9019 6.89856H22.2352V8.56523H18.9019V6.89856ZM18.9019 16.8986H22.2352V18.5652H18.9019V16.8986Z" fill="black"/>
<path d="M35.5685 20.2318V15.2318C30.4875 15.2302 25.5644 16.9981 21.6452 20.2318H19.4919C15.5726 16.9981 10.6496 15.2302 5.56852 15.2318V20.2318C5.12649 20.2318 4.70257 20.4074 4.39001 20.72C4.07745 21.0325 3.90186 21.4565 3.90186 21.8985V25.2318C3.90186 25.6738 4.07745 26.0978 4.39001 26.4103C4.70257 26.7229 5.12649 26.8985 5.56852 26.8985V33.5651C11.1387 33.5596 16.5021 35.6751 20.5685 39.4818C24.6395 35.6823 29.9999 33.5679 35.5685 33.5651V26.8985C36.0105 26.8985 36.4345 26.7229 36.747 26.4103C37.0596 26.0978 37.2352 25.6738 37.2352 25.2318V21.8985C37.2352 21.4565 37.0596 21.0325 36.747 20.72C36.4345 20.4074 36.0105 20.2318 35.5685 20.2318Z" fill="black"/>
<path d="M15.5685 8.56514C16.489 8.56514 17.2352 7.81895 17.2352 6.89848C17.2352 5.978 16.489 5.23181 15.5685 5.23181C14.648 5.23181 13.9019 5.978 13.9019 6.89848C13.9019 7.81895 14.648 8.56514 15.5685 8.56514Z" fill="black"/>
<path d="M25.5685 8.56514C26.489 8.56514 27.2352 7.81895 27.2352 6.89848C27.2352 5.978 26.489 5.23181 25.5685 5.23181C24.648 5.23181 23.9019 5.978 23.9019 6.89848C23.9019 7.81895 24.648 8.56514 25.5685 8.56514Z" fill="black"/>
<path d="M27.2352 13.5651H13.9019C12.5762 13.5638 11.3052 13.0366 10.3678 12.0992C9.43039 11.1618 8.90318 9.89082 8.90186 8.56514V5.23181C8.90318 3.90614 9.43039 2.63513 10.3678 1.69774C11.3052 0.760344 12.5762 0.233135 13.9019 0.231812L27.2352 0.231812C28.5609 0.233135 29.8319 0.760344 30.7693 1.69774C31.7067 2.63513 32.2339 3.90614 32.2352 5.23181V8.56514C32.2339 9.89082 31.7067 11.1618 30.7693 12.0992C29.8319 13.0366 28.5609 13.5638 27.2352 13.5651ZM13.9019 3.56514C13.4598 3.56514 13.0359 3.74074 12.7233 4.0533C12.4108 4.36586 12.2352 4.78978 12.2352 5.23181V8.56514C12.2352 9.00717 12.4108 9.4311 12.7233 9.74366C13.0359 10.0562 13.4598 10.2318 13.9019 10.2318H27.2352C27.6772 10.2318 28.1011 10.0562 28.4137 9.74366C28.7263 9.4311 28.9019 9.00717 28.9019 8.56514V5.23181C28.9019 4.78978 28.7263 4.36586 28.4137 4.0533C28.1011 3.74074 27.6772 3.56514 27.2352 3.56514H13.9019Z" fill="black"/>
</g>
<defs>
<clipPath id="clip0_3996_4603">
<rect width="40" height="40" fill="white" transform="translate(0.283203 0.231812)"/>
</clipPath>
</defs>
</svg>
