<svg width="1512" height="881" viewBox="0 0 1512 881" fill="none" xmlns="http://www.w3.org/2000/svg">
<path d="M-1271.08 880.772C-1131.22 691.848 -769.428 613.861 -463.579 576.578C-272.377 553.205 -77.4947 544.425 116.836 537.356C306.933 530.401 497.031 536.216 686.577 517.29C796.624 506.23 905.934 489.356 1009.72 463.93C1025.18 460.168 1040.46 456.291 1055.73 452.301C1282.63 392.556 1496.1 309.781 1701.66 225.979" stroke="url(#paint0_linear_3996_4575)" stroke-width="1.2" stroke-miterlimit="10"/>
<path d="M-1264.09 825.703C-1120 657.073 -759.307 589.462 -453.641 552.065C-264.28 528.92 -70.5016 518.43 121.988 512.615C309.694 506.915 495.559 514.098 681.792 501.442C795.335 493.689 908.143 478.753 1019.29 458.914C1130.44 439.075 1061.8 451.959 1082.6 446.828C1303.8 391.759 1508.8 309.781 1708.1 229.742" stroke="url(#paint1_linear_3996_4575)" stroke-width="1.2" stroke-miterlimit="10"/>
<path d="M-1257.09 770.747C-1108.77 622.298 -749.001 565.29 -443.52 527.779C-255.998 504.748 -63.3244 492.662 127.509 488.216C312.822 483.769 494.639 492.548 677.376 485.935C794.6 481.717 911.823 470.201 1029.23 454.125C1055.91 450.476 1083.7 447.968 1109.83 441.697C1324.22 390.276 1521.68 310.123 1714.91 233.732" stroke="url(#paint2_linear_3996_4575)" stroke-width="1.2" stroke-miterlimit="10"/>
<path d="M-1250.1 715.677C-1097.54 587.523 -738.696 540.891 -433.583 503.379C-247.902 480.576 -56.5163 466.78 132.661 463.702C315.582 460.51 494.27 460.852 672.59 470.315C850.91 479.778 915.687 462.22 1038.98 449.336C1071.37 445.915 1105.23 443.863 1136.88 436.566C1344.28 388.109 1534.38 310.579 1721.35 237.723" stroke="url(#paint3_linear_3996_4575)" stroke-width="1.2" stroke-miterlimit="10"/>
<path d="M-1243.11 660.721C-1086.32 552.748 -728.574 516.605 -423.461 478.98C-239.62 456.405 -49.3381 440.899 137.999 439.188C318.528 437.25 495.007 438.048 667.991 454.809C791.84 466.78 919.921 454.809 1048.74 444.661C1177.56 434.514 1126.76 439.987 1163.94 431.435C1364.16 385.715 1547.08 310.921 1727.97 241.827" stroke="url(#paint4_linear_3996_4575)" stroke-width="1.2" stroke-miterlimit="10"/>
<path d="M-1236.12 605.652C-1075.09 517.86 -718.269 492.206 -413.524 454.581C-231.523 432.12 -42.3458 414.903 143.151 414.561C321.287 413.877 492.43 429.954 663.022 439.075C792.575 446.03 923.785 447.626 1058.31 439.645C1102.47 437.022 1148.11 435.654 1190.81 426.077C1383.48 382.865 1559.77 311.149 1734.41 245.59" stroke="url(#paint5_linear_3996_4575)" stroke-width="1.2" stroke-miterlimit="10"/>
<path d="M-1229.12 550.582C-1063.87 483.085 -707.964 467.807 -403.586 430.182C-223.426 407.948 -35.3527 389.022 148.304 390.048C324.048 390.618 491.695 409.773 658.237 423.455C792.023 434.514 928.018 440.671 1067.88 434.856C1117.93 432.804 1169.46 431.55 1217.49 420.946C1402.8 380.015 1572.1 311.491 1740.49 249.695" stroke="url(#paint6_linear_3996_4575)" stroke-width="1.2" stroke-miterlimit="10"/>
<path d="M-1222.13 495.626C-1052.64 448.31 -697.658 443.521 -393.465 405.782C-215.145 383.663 -28.3596 363.14 153.825 365.534C327.176 367.473 491.511 389.934 653.821 407.948C791.839 423.226 932.618 423.226 1077.81 430.181C1223.01 437.136 1191.17 427.559 1244.72 415.929C1422.49 377.278 1584.99 312.061 1747.3 253.799" stroke="url(#paint7_linear_3996_4575)" stroke-width="1.2" stroke-miterlimit="10"/>
<path d="M-1215.32 440.557C-1041.6 413.535 -687.721 419.122 -383.712 381.383C-207.232 359.492 -21.551 337.259 158.793 341.021C329.569 344.214 490.59 370.323 648.852 392.328C791.103 412.167 936.666 417.298 1087.38 425.279C1238.1 433.26 1212.52 423.227 1271.59 410.571C1441.81 374.2 1597.68 312.175 1753.55 257.676" stroke="url(#paint8_linear_3996_4575)" stroke-width="1.2" stroke-miterlimit="10"/>
<path d="M-1208.33 385.601C-1030.38 378.76 -677.415 394.836 -373.59 357.097C-198.951 335.434 -14.3737 311.491 164.13 316.508C332.513 320.954 490.039 350.94 644.251 376.708C790.735 401.221 940.899 411.711 1097.14 420.49C1164.49 424.253 1234.05 419.008 1298.64 405.44C1461.32 371.235 1610.38 312.631 1760.18 261.666" stroke="url(#paint9_linear_3996_4575)" stroke-width="1.2" stroke-miterlimit="10"/>
<path d="M-1201.33 330.531C-1019.15 343.985 -667.11 370.437 -363.653 332.584C-191.037 311.035 -7.38057 285.495 169.283 291.88C335.274 297.581 489.118 331.558 639.467 361.088C789.815 390.504 944.948 406.238 1106.89 415.701C1179.95 419.92 1255.4 414.789 1325.7 400.309C1480.83 368.157 1623.08 312.973 1766.8 265.771" stroke="url(#paint10_linear_3996_4575)" stroke-width="1.2" stroke-miterlimit="10"/>
<path d="M-1194.34 275.576C-1007.92 309.21 -656.989 346.152 -353.716 308.298C-182.941 286.977 -0.572482 259.728 174.435 267.481C338.033 274.436 488.014 312.631 634.497 345.581C788.71 380.242 948.628 401.107 1116.27 410.912C1195.04 415.587 1276.56 410.57 1352.38 395.064C1499.97 365.078 1635.41 313.315 1772.88 269.647" stroke="url(#paint11_linear_3996_4575)" stroke-width="1.2" stroke-miterlimit="10"/>
<path d="M-1187.35 220.507C-996.699 274.436 -646.684 321.753 -343.595 283.9C-174.66 262.807 6.60465 233.733 179.956 242.968C341.162 251.177 487.094 293.705 630.081 329.962C787.974 369.982 952.124 401.222 1126.21 406.125C1211.23 408.519 1298.09 406.125 1379.61 389.934C1519.47 362 1648.47 313.658 1779.68 273.752" stroke="url(#paint12_linear_3996_4575)" stroke-width="1.2" stroke-miterlimit="10"/>
<path d="M-1180.36 165.437C-985.473 239.547 -636.378 297.467 -333.657 259.386C-166.562 238.407 13.5979 207.736 185.109 218.226C343.923 227.689 485.438 274.664 625.297 314.227C786.502 359.719 955.805 394.608 1135.97 401.221C1226.69 404.528 1319.62 401.677 1406.67 384.689C1538.98 358.807 1661.17 313.999 1786.31 277.628" stroke="url(#paint13_linear_3996_4575)" stroke-width="1.2" stroke-miterlimit="10"/>
<path d="M-1173.36 110.481C-974.247 204.886 -626.256 273.182 -323.535 235.101C-158.281 214.35 20.5911 181.969 190.446 193.827C346.867 204.544 483.966 256.079 620.696 298.721C784.846 350.028 959.854 388.338 1145.72 396.433C1242.15 400.652 1340.97 397.231 1433.72 379.445C1558.49 355.615 1673.87 314.228 1792.75 281.505" stroke="url(#paint14_linear_3996_4575)" stroke-width="1.2" stroke-miterlimit="10"/>
<path d="M-1166.37 55.4121C-963.022 169.998 -615.951 248.783 -313.598 210.702C-150.184 190.179 27.5842 156.088 195.599 169.314C349.628 181.286 482.126 237.267 615.912 283.102C782.822 340.224 963.535 381.839 1155.47 391.645C1257.79 396.889 1362.32 392.671 1460.77 374.314C1577.81 352.423 1686.57 314.57 1799.38 285.61" stroke="url(#paint15_linear_3996_4575)" stroke-width="1.2" stroke-miterlimit="10"/>
<path d="M-1159.38 0.456055C-951.797 135.223 -605.646 224.497 -303.477 186.302C-141.903 165.893 34.7604 130.206 200.935 144.8C352.571 158.026 480.101 218.568 611.126 267.595C780.429 330.76 967.215 375.568 1165.04 386.97C1273.06 393.126 1383.29 388.11 1487.64 369.297C1597.13 349.458 1699.27 315.14 1805.63 289.714" stroke="url(#paint16_linear_3996_4575)" stroke-width="1.2" stroke-miterlimit="10"/>
<defs>
<linearGradient id="paint0_linear_3996_4575" x1="-1307.39" y1="803.259" x2="1400.77" y2="-433.62" gradientUnits="userSpaceOnUse">
<stop stop-color="#19FF5A"/>
<stop offset="1" stop-color="#23BB4E"/>
</linearGradient>
<linearGradient id="paint1_linear_3996_4575" x1="-1300.39" y1="755.154" x2="1313.98" y2="-556.52" gradientUnits="userSpaceOnUse">
<stop stop-color="#19FF5A"/>
<stop offset="1" stop-color="#23BB4E"/>
</linearGradient>
<linearGradient id="paint2_linear_3996_4575" x1="-1293.39" y1="707.176" x2="1204.56" y2="-683.57" gradientUnits="userSpaceOnUse">
<stop stop-color="#19FF5A"/>
<stop offset="1" stop-color="#23BB4E"/>
</linearGradient>
<linearGradient id="paint3_linear_3996_4575" x1="-1286.39" y1="659.098" x2="1065.33" y2="-811.755" gradientUnits="userSpaceOnUse">
<stop stop-color="#19FF5A"/>
<stop offset="1" stop-color="#23BB4E"/>
</linearGradient>
<linearGradient id="paint4_linear_3996_4575" x1="-1279.39" y1="611.134" x2="888.25" y2="-935.543" gradientUnits="userSpaceOnUse">
<stop stop-color="#19FF5A"/>
<stop offset="1" stop-color="#23BB4E"/>
</linearGradient>
<linearGradient id="paint5_linear_3996_4575" x1="-1272.39" y1="563.029" x2="664.225" y2="-1044.29" gradientUnits="userSpaceOnUse">
<stop stop-color="#19FF5A"/>
<stop offset="1" stop-color="#23BB4E"/>
</linearGradient>
<linearGradient id="paint6_linear_3996_4575" x1="-1265.39" y1="514.964" x2="381.104" y2="-1119.8" gradientUnits="userSpaceOnUse">
<stop stop-color="#19FF5A"/>
<stop offset="1" stop-color="#23BB4E"/>
</linearGradient>
<linearGradient id="paint7_linear_3996_4575" x1="-1258.39" y1="466.999" x2="35.9452" y2="-1131.88" gradientUnits="userSpaceOnUse">
<stop stop-color="#19FF5A"/>
<stop offset="1" stop-color="#23BB4E"/>
</linearGradient>
<linearGradient id="paint8_linear_3996_4575" x1="-1251.58" y1="418.908" x2="-360.202" y2="-1036.83" gradientUnits="userSpaceOnUse">
<stop stop-color="#19FF5A"/>
<stop offset="1" stop-color="#23BB4E"/>
</linearGradient>
<linearGradient id="paint9_linear_3996_4575" x1="-1244.58" y1="402.734" x2="-515.561" y2="-957.877" gradientUnits="userSpaceOnUse">
<stop stop-color="#19FF5A"/>
<stop offset="1" stop-color="#23BB4E"/>
</linearGradient>
<linearGradient id="paint10_linear_3996_4575" x1="-1237.58" y1="399.211" x2="-569.535" y2="-918.7" gradientUnits="userSpaceOnUse">
<stop stop-color="#19FF5A"/>
<stop offset="1" stop-color="#23BB4E"/>
</linearGradient>
<linearGradient id="paint11_linear_3996_4575" x1="-1230.58" y1="395.255" x2="-596.69" y2="-896.679" gradientUnits="userSpaceOnUse">
<stop stop-color="#19FF5A"/>
<stop offset="1" stop-color="#23BB4E"/>
</linearGradient>
<linearGradient id="paint12_linear_3996_4575" x1="-1223.58" y1="384.849" x2="-306.97" y2="-1082.87" gradientUnits="userSpaceOnUse">
<stop stop-color="#19FF5A"/>
<stop offset="1" stop-color="#23BB4E"/>
</linearGradient>
<linearGradient id="paint13_linear_3996_4575" x1="-1216.59" y1="374.374" x2="46.5697" y2="-1216.34" gradientUnits="userSpaceOnUse">
<stop stop-color="#19FF5A"/>
<stop offset="1" stop-color="#23BB4E"/>
</linearGradient>
<linearGradient id="paint14_linear_3996_4575" x1="-1209.59" y1="364.017" x2="363.043" y2="-1267.76" gradientUnits="userSpaceOnUse">
<stop stop-color="#19FF5A"/>
<stop offset="1" stop-color="#23BB4E"/>
</linearGradient>
<linearGradient id="paint15_linear_3996_4575" x1="-1202.59" y1="353.684" x2="634.264" y2="-1266.18" gradientUnits="userSpaceOnUse">
<stop stop-color="#19FF5A"/>
<stop offset="1" stop-color="#23BB4E"/>
</linearGradient>
<linearGradient id="paint16_linear_3996_4575" x1="-1195.59" y1="343.412" x2="860.237" y2="-1232.96" gradientUnits="userSpaceOnUse">
<stop stop-color="#19FF5A"/>
<stop offset="1" stop-color="#23BB4E"/>
</linearGradient>
</defs>
</svg>
